<?xml version="1.0" encoding="UTF-8" standalone="no"?>
<svg width="250px" height="250px" viewBox="0 0 250 250" version="1.1" xmlns="http://www.w3.org/2000/svg" xmlns:xlink="http://www.w3.org/1999/xlink" xmlns:sketch="http://www.bohemiancoding.com/sketch/ns">
    <!-- Generator: Sketch 3.3 (11970) - http://www.bohemiancoding.com/sketch -->
    <title>Group</title>
    <desc>Created with Sketch.</desc>
    <defs></defs>
    <g id="Page-1" stroke="none" stroke-width="1" fill="none" fill-rule="evenodd" sketch:type="MSPage">
        <g id="hoder" sketch:type="MSLayerGroup" transform="translate(-720.000000, 0.000000)">
            <g id="Group" transform="translate(720.300000, 0.000000)" sketch:type="MSShapeGroup">
                <path d="M249.697987,124.916946 C249.697987,193.786493 193.863255,249.614513 124.995805,249.614513 C56.1241611,249.614513 0.293624161,193.786493 0.293624161,124.916946 C0.293624161,56.0478188 56.1241611,0.218120805 124.995805,0.218120805 C193.863255,0.218120805 249.697987,56.0478188 249.697987,124.916946" id="Fill-10" fill="#2F312E"></path>
                <path d="M49.8657718,105.869966 C49.8657718,105.869966 61.8582215,41.1455537 79.5931208,29.6380034 C97.3364094,18.1354866 177.403523,19.5650168 177.403523,19.5650168 L197.541946,105.869966 L184.114933,114.021393" id="Fill-11" fill="#AA2F41"></path>
                <path d="M60.5620805,106.621225 C62.3909396,116.175336 57.8187919,125.083054 50.3649329,126.512584 C42.9110738,127.933305 35.3817114,121.348574 33.5528523,111.794883 C31.7239933,102.240352 36.2877517,93.3330537 43.7416107,91.9035235 C51.2038591,90.4777685 58.7290268,97.0675336 60.5620805,106.621225" id="Fill-12" fill="#F4DAB9"></path>
                <path d="M211.728188,113.753356 C210.549497,123.411074 203.485738,130.49245 195.943792,129.568372 C188.410235,128.653104 183.255034,120.07802 184.437919,110.424077 C185.612416,100.765101 192.676174,93.6744966 200.213926,94.5989933 C207.751678,95.5146812 212.906879,104.09396 211.728188,113.753356" id="Fill-13" fill="#F4DAB9"></path>
                <path d="M27.6258389,202.934983 C50.4823826,231.460151 85.6040268,249.731963 124.995805,249.731963 C155.755034,249.731963 183.909396,238.589346 205.654362,220.128356 C182.080537,175.020134 165.528523,140.748742 94.0184564,161.231124 C65.7256711,169.335151 44.341443,185.138842 27.6258389,202.934983" id="Fill-14" fill="#1C5466"></path>
                <path d="M52.6845638,181.341023 C52.6845638,181.341023 78.3389262,190.812919 111.346477,194.396812 C144.354027,197.97651 191.606544,194.629614 191.606544,194.629614 C191.606544,194.629614 221.308725,157.720638 193.829698,113.943792 C166.354866,70.1631711 163.729027,40.1031879 163.729027,40.1031879 L90.0629195,41.8108221 C90.0629195,41.8108221 52.4119128,101.621225 49.488255,129.404362 C46.5645973,157.182886 52.6845638,181.341023 52.6845638,181.341023" id="Fill-15" fill="#F4DAB9"></path>
                <path d="M106.216443,94.8586409 C106.216443,98.5931208 109.240772,101.625839 112.973993,101.625839 C116.711409,101.625839 119.739933,98.5931208 119.739933,94.8586409 L119.739933,90.9836409 C119.739933,87.2537752 116.711409,84.2206376 112.973993,84.2206376 C109.240772,84.2206376 106.216443,87.2537752 106.216443,90.9836409 L106.216443,94.8586409" id="Fill-16" fill="#2F312E"></path>
                <path d="M139.400168,96.5440436 C139.400168,100.27307 142.428691,103.305789 146.157718,103.305789 C149.895134,103.305789 152.923658,100.27307 152.923658,96.5440436 L152.923658,92.6589765 C152.923658,88.9299497 149.895134,85.9014262 146.157718,85.9014262 C142.428691,85.9014262 139.400168,88.9299497 139.400168,92.6589765 L139.400168,96.5440436" id="Fill-17" fill="#2F312E"></path>
                <path d="M128.75,136.157718 C128.75,136.157718 155.008389,142.683305 161.59396,151.904782 C168.175336,161.121644 161.174497,181.815017 161.174497,181.815017 L148.150168,180.949664 L137.957215,186.651007 L130.461409,181.368289 L117.067953,186.059144 L109.047819,178.745805 L97.6635906,182.776007 L88.6031879,171.391359 C88.6031879,171.391359 69.8112416,139.408977 122.986577,136.567534" id="Fill-18" fill="#AA2F41"></path>
                <path d="M129.362416,96.4932886 C129.362416,96.4932886 124.639262,103.333054 121.686242,106.935822 C113.489933,116.935822 103.217282,131.376258 114.316275,135.237836 C125.415268,139.113255 135.91443,139.381711 135.91443,139.381711 L129.953859,97.5423658" id="Fill-19" fill="#BD837D"></path>
                <path d="M121.778523,211.311242 L118.598993,219.618289 L124.240772,221.082634 L116.413591,232.42995 L120.943792,233.566275 L115.394295,242.836829 L126.862416,233.152265 L121.677852,230.744547 L130.146812,219.602349 L124.068792,217.291946 L128.573826,211.502936 L121.778523,211.311242" id="Fill-20" fill="#E7B640"></path>
                <path d="M87.7516779,37.3112416 L71.9253356,91.4886745 L97.8104027,47.3754195 C97.8104027,47.3754195 88.2256711,77.1073826 89.6644295,75.6640101 C91.1031879,74.2248322 102.60906,57.9219799 111.719799,52.6535235 C122.852349,46.2097315 128.502517,43.5461409 128.502517,43.5461409 L105.90604,62.4702181 L171.64849,41.1455537 L161.098993,30.1208054" id="Fill-21" fill="#AA2F41"></path>
                <path d="M109.400168,150.552852 C109.400168,150.552852 117.051174,153.699245 124.249161,153.699245 C131.447148,153.699245 140.897651,150.106963 140.897651,150.106963 C140.897651,150.106963 137.298658,163.14849 125.599832,163.14849 C113.901007,163.14849 109.400168,150.552852 109.400168,150.552852" id="Fill-22" fill="#2F312E"></path>
                <path d="M124.249161,153.699245 C131.447148,153.699245 140.897651,150.106963 140.897651,150.106963 C140.897651,150.106963 137.298658,163.14849 125.599832,163.14849 C113.901007,163.14849 109.400168,150.552852 109.400168,150.552852 C109.400168,150.552852 117.051174,153.699245 124.249161,153.699245 Z" id="Stroke-23" stroke="#BD837D" stroke-width="3" stroke-linecap="round" stroke-linejoin="round"></path>
            </g>
        </g>
    </g>
</svg>