<?xml version="1.0" encoding="UTF-8" standalone="no"?>
<svg width="250px" height="251px" viewBox="0 0 250 251" version="1.1" xmlns="http://www.w3.org/2000/svg" xmlns:xlink="http://www.w3.org/1999/xlink" xmlns:sketch="http://www.bohemiancoding.com/sketch/ns">
    <!-- Generator: Sketch 3.3 (11970) - http://www.bohemiancoding.com/sketch -->
    <title>Group</title>
    <desc>Created with Sketch.</desc>
    <defs></defs>
    <g id="Page-1" stroke="none" stroke-width="1" fill="none" fill-rule="evenodd" sketch:type="MSPage">
        <g id="hoder" sketch:type="MSLayerGroup">
            <g id="Group" sketch:type="MSShapeGroup">
                <path d="M249.821849,125.126891 C249.821849,194.112185 193.896218,250.034034 124.912185,250.034034 C55.9260504,250.034034 0,194.112185 0,125.126891 C0,56.1420168 55.9260504,0.218487395 124.912185,0.218487395 C193.896218,0.218487395 249.821849,56.1420168 249.821849,125.126891" id="Fill-1" fill="#2F312E"></path>
                <path d="M207.891176,110.657563 C207.891176,156.088235 171.062185,192.916807 125.634454,192.916807 C80.2037815,192.916807 43.3747899,156.088235 43.3747899,110.657563 C43.3747899,65.2298319 80.2037815,28.4004202 125.634454,28.4004202 C171.062185,28.4004202 207.891176,65.2298319 207.891176,110.657563" id="Fill-2" fill="#E7B640"></path>
                <path d="M205.631092,129.438235 C203.032353,129.032353 200.42395,129.571429 197.947479,130.870588 L190.682353,75.9668067 L75.0760504,55.5138655 L56.6962185,92.4344538 L55.7159664,139.578992 C52.8445378,136.758824 49.5911765,135.281933 46.2987395,135.636555 C37.5088235,136.582353 31.7672269,150.216387 33.4802521,166.086975 C35.1878151,181.954202 43.7016807,194.054622 52.4894958,193.107983 C53.2201681,193.029412 53.9277311,192.855042 54.6138655,192.606723 L53.8676471,228.513445 C74.037395,242.486555 98.5147059,250.681933 124.912185,250.681933 C148.728151,250.681933 170.985294,244.012185 189.928151,232.442437 L194.178992,185.835714 C194.989916,186.168487 195.834034,186.410504 196.710924,186.547479 C206.415126,188.063445 216.280672,176.507143 218.744958,160.738235 C221.209664,144.964706 215.335294,130.952101 205.631092,129.438235" id="Fill-3" fill="#F4DAB9"></path>
                <path d="M119.855882,138.671008 L134.443277,199.338235 L105.084874,202.846639 L119.855882,138.671008" id="Fill-4" fill="#BD837D"></path>
                <path d="M91.0840336,53.7344538 C91.0840336,53.7344538 81.4945378,57.6012605 105.021008,53.6403361 C139.197059,47.8840336 191.569748,75.9668067 191.569748,75.9668067 L184.457563,27.9466387 C184.457563,27.9466387 119.539496,6.60462185 72.4067227,49.2903361" id="Fill-5" fill="#E7B640"></path>
                <path d="M112.430672,138.876471 C112.430672,152.455042 101.422689,163.460504 87.8470588,163.460504 C74.2735294,163.460504 63.2659664,152.455042 63.2659664,138.876471 C63.2659664,125.30084 74.2735294,114.298319 87.8470588,114.298319 C101.422689,114.298319 112.430672,125.30084 112.430672,138.876471 L112.430672,138.876471 Z M176.171849,135.129412 C176.171849,148.704202 165.169748,159.710504 151.596218,159.710504 C138.017647,159.710504 127.010084,148.704202 127.010084,135.129412 C127.010084,121.552101 138.017647,110.548739 151.596218,110.548739 C165.169748,110.548739 176.171849,121.552101 176.171849,135.129412 L176.171849,135.129412 Z M111.596639,135.963025 L124.92563,134.295378 L111.596639,135.963025 Z" id="Stroke-6" stroke="#1C5466" stroke-width="4"></path>
                <path d="M85.7462185,208.471429 C85.7462185,208.471429 127.541176,225.366807 159.871429,197.362605" id="Stroke-7" stroke="#BD837D" stroke-width="3" stroke-linecap="round"></path>
                <path d="M95.3285714,141.040336 C95.3285714,145.568067 91.6529412,149.243697 87.1277311,149.243697 C82.5920168,149.243697 78.9218487,145.568067 78.9218487,141.040336 L78.9218487,136.330672 C78.9218487,131.801681 82.5920168,128.12563 87.1277311,128.12563 C91.6529412,128.12563 95.3285714,131.801681 95.3285714,136.330672 L95.3285714,141.040336" id="Fill-8" fill="#2F312E"></path>
                <path d="M160.331513,136.593697 C160.331513,141.121429 156.655882,144.795378 152.130672,144.795378 C147.594538,144.795378 143.919328,141.121429 143.919328,136.593697 L143.919328,131.886555 C143.919328,127.354202 147.594538,123.681513 152.130672,123.681513 C156.655882,123.681513 160.331513,127.354202 160.331513,131.886555 L160.331513,136.593697" id="Fill-9" fill="#2F312E"></path>
            </g>
        </g>
    </g>
</svg>