<?xml version="1.0" encoding="UTF-8" standalone="no"?>
<svg width="250px" height="250px" viewBox="0 0 250 250" version="1.1" xmlns="http://www.w3.org/2000/svg" xmlns:xlink="http://www.w3.org/1999/xlink" xmlns:sketch="http://www.bohemiancoding.com/sketch/ns">
    <!-- Generator: Sketch 3.3 (11970) - http://www.bohemiancoding.com/sketch -->
    <title>Group</title>
    <desc>Created with Sketch.</desc>
    <defs></defs>
    <g id="Page-1" stroke="none" stroke-width="1" fill="none" fill-rule="evenodd" sketch:type="MSPage">
        <g id="hoder" sketch:type="MSLayerGroup" transform="translate(-170.000000, -290.000000)">
            <g id="Group" transform="translate(170.000000, 290.000000)" sketch:type="MSShapeGroup">
                <path d="M249.740352,124.790268 C249.740352,193.657718 193.908138,249.488255 125.040268,249.488255 C56.1694631,249.488255 0.337667785,193.657718 0.337667785,124.790268 C0.337667785,55.9194631 56.1694631,0.0901845638 125.040268,0.0901845638 C193.908138,0.0901845638 249.740352,55.9194631 249.740352,124.790268" id="Fill-54" fill="#E7B640"></path>
                <path d="M177.947567,52.3204698 C177.743708,47.8787752 176.313339,44.1388423 173.879614,41.0083893 C173.848574,40.846057 173.786913,40.6803691 173.686242,40.5096477 C167.878775,30.6371644 114.440856,13.7932047 114.440856,13.7932047 L116.184144,23.085151 L77.3255034,13.0918624 L87.3926174,26.5146812 L33.142198,20.642198 L53.102349,34.0155201 C30.4538591,38.0088087 13.846896,42.1749161 13.846896,42.1749161 L82.2999161,79.0394295 L176.397651,122.797819 C176.397651,122.797819 180.269295,103.049497 177.947567,52.3204698" id="Fill-55" fill="#2F312E"></path>
                <path d="M168.11703,106.816275 C168.11703,106.816275 194.449664,91.329698 197.54656,116.887584 C200.644295,142.44547 173.152685,149.022651 173.152685,149.022651" id="Fill-56" fill="#BD837D"></path>
                <path d="M208.586829,214.421141 C183.72693,198.657718 174.028104,199.869966 174.028104,199.869966 C109.545721,206.187081 84.5184564,231.472315 84.5184564,231.472315 L81.7772651,241.891779 C95.255453,246.875 109.828859,249.605705 125.040268,249.605705 C158.095638,249.605705 188.143037,236.736577 210.459732,215.74245 C209.846896,215.268456 209.222315,214.823826 208.586829,214.421141" id="Fill-57" fill="#1C5466"></path>
                <path d="M68.2722315,155.633389 C68.2722315,155.633389 78.4983221,193.674497 90.9924497,200.025168 C103.486158,206.380034 115.963926,200.490772 115.963926,200.490772 L117.813758,215.285235 L177.541946,202.642617 L166.74203,62.4593121 L76.5310403,63.9425336 L68.2722315,155.633389" id="Fill-58" fill="#F4DAB9"></path>
                <path d="M89.0935403,161.963087 C89.0935403,161.963087 101.974832,169.052013 132.061242,163.657718" id="Stroke-59" stroke="#2F312E" stroke-width="3" stroke-linecap="round"></path>
                <path d="M151.799497,230.545302 L151.775587,239.798658 L149.114933,239.798658 L149.474413,231.19547 L143.769715,230.931208 L143.314178,247.78104 L147.065436,247.78104 C147.610319,247.684564 148.150587,247.575503 148.692953,247.470638 L148.851091,242.533557 L151.607802,242.533557 L151.645134,246.866611 C153.646812,246.430369 155.630453,245.947987 157.595218,245.419463 L157.264681,230.692114 L151.799497,230.545302 L151.799497,230.545302 Z M129.309983,236.325503 L132.881292,236.13255 L132.857383,247.495805 L137.915268,247.231544 L138.825923,235.868289 L142.397651,235.725671 L142.517617,230.641779 L129.453859,230.666946 L129.309983,236.325503 L129.309983,236.325503 Z M159.332215,230.499161 L159.009228,245.037752 C161.868708,244.228188 164.684564,243.317953 167.456795,242.315436 L164.485319,242.315436 L164.605285,240.566275 L168.200503,240.448826 L168.464346,236.732383 L164.892617,236.732383 L165.013003,235.222315 L170.094379,234.958054 C170.158138,234.207215 170.210151,233.464765 170.25,232.730705 C170.290268,231.99245 170.333893,231.25 170.381711,230.499161 L159.332215,230.499161 L159.332215,230.499161 Z" id="Fill-60" fill="#BDC7B1"></path>
                <path d="M129.542366,111.744966 C129.542366,115.801174 132.831795,119.08557 136.885487,119.08557 C140.940017,119.08557 144.229027,115.801174 144.229027,111.744966 L144.229027,107.533557 C144.229027,103.477349 140.940017,100.192953 136.885487,100.192953 C132.831795,100.192953 129.542366,103.477349 129.542366,107.533557 L129.542366,111.744966" id="Fill-61" fill="#2F312E"></path>
                <path d="M79.5989933,110.360738 C79.5989933,114.412752 82.8880034,117.697148 86.9421141,117.697148 C90.9966443,117.697148 94.2856544,114.412752 94.2856544,110.360738 L94.2856544,106.145134 C94.2856544,102.093121 90.9966443,98.8045302 86.9421141,98.8045302 C82.8880034,98.8045302 79.5989933,102.093121 79.5989933,106.145134 L79.5989933,110.360738" id="Fill-62" fill="#2F312E"></path>
                <path d="M153.883809,109.853188 L175.299916,101.086409" id="Stroke-63" stroke="#2F312E" stroke-width="4"></path>
                <path d="M122.438339,132.512584 C122.438339,144.513423 116.951762,146.849832 110.183725,146.849832 C103.415688,146.849832 97.9291107,144.513423 97.9291107,132.512584 C97.9291107,120.50755 103.415688,110.776007 110.183725,110.776007 C116.951762,110.776007 122.438339,120.50755 122.438339,132.512584" id="Fill-64" fill="#BD837D"></path>
                <path d="M155.705956,110.776007 C155.705956,124.190436 146.817114,135.071309 135.850671,135.071309 C124.881292,135.071309 115.991611,124.190436 115.991611,110.776007 C115.991611,97.3573826 124.881292,86.4807047 135.850671,86.4807047 C146.817114,86.4807047 155.705956,97.3573826 155.705956,110.776007 L155.705956,110.776007 Z" id="Stroke-65" stroke="#2F312E" stroke-width="4"></path>
                <path d="M103.277685,110.578859 C103.277685,110.578859 107.408138,110.163591 116.991611,113.779362" id="Stroke-66" stroke="#2F312E" stroke-width="4"></path>
                <path d="M104.375419,108.464765 C104.375419,121.879195 95.4861577,132.760067 84.5197148,132.760067 C73.5511745,132.760067 64.6614933,121.879195 64.6614933,108.464765 C64.6614933,95.0461409 73.5511745,84.1694631 84.5197148,84.1694631 C95.4861577,84.1694631 104.375419,95.0461409 104.375419,108.464765 L104.375419,108.464765 Z" id="Stroke-67" stroke="#2F312E" stroke-width="4"></path>
            </g>
        </g>
    </g>
</svg>