<?xml version="1.0" encoding="UTF-8" standalone="no"?>
<svg width="250px" height="250px" viewBox="0 0 250 250" version="1.1" xmlns="http://www.w3.org/2000/svg" xmlns:xlink="http://www.w3.org/1999/xlink" xmlns:sketch="http://www.bohemiancoding.com/sketch/ns">
    <!-- Generator: Sketch 3.3 (11970) - http://www.bohemiancoding.com/sketch -->
    <title>Group</title>
    <desc>Created with Sketch.</desc>
    <defs></defs>
    <g id="Page-1" stroke="none" stroke-width="1" fill="none" fill-rule="evenodd" sketch:type="MSPage">
        <g id="hoder" sketch:type="MSLayerGroup" transform="translate(-524.000000, -292.000000)">
            <g id="Group" transform="translate(524.000000, 292.000000)" sketch:type="MSShapeGroup">
                <path d="M249.597315,124.949664 C249.597315,193.821309 193.766779,249.647651 124.895134,249.647651 C56.0276846,249.647651 0.19295302,193.821309 0.19295302,124.949664 C0.19295302,56.0826342 56.0276846,0.252936242 124.895134,0.252936242 C193.766779,0.252936242 249.597315,56.0826342 249.597315,124.949664" id="Fill-39" fill="#BDC7B1"></path>
                <path d="M202.462248,222.701342 C202.516779,222.655201 202.575503,222.613255 202.630034,222.571309 L202.630034,222.567114 C205.74245,220.079698 208.737416,217.453859 211.598154,214.685403 C205.390101,209.286913 199.983221,205 196.572987,202.378356 C195.641779,199.555369 194.668624,196.711409 193.64094,193.833893 C159.559564,98.2550336 73.8758389,188.565436 70.9186242,191.723993 L71.4219799,187.437081 C71.4219799,187.437081 57.8355705,201.925336 44.5385906,220.415268 C48.8255034,224.03104 53.3598993,227.361577 58.1124161,230.377517 C58.1124161,230.381711 58.1124161,230.385906 58.1082215,230.385906 C58.7667785,230.805369 59.4295302,231.216443 60.0964765,231.623322 C60.2307047,231.70302 60.3691275,231.786913 60.5075503,231.870805 C61.1996644,232.286074 61.8959732,232.697148 62.5922819,233.099832 C62.8104027,233.225671 63.0285235,233.35151 63.2466443,233.477349 C64.0520134,233.934564 64.8573826,234.387584 65.6711409,234.82802 C65.7172819,234.848993 65.7634228,234.878356 65.8095638,234.903523 L65.8095638,234.899329 C83.397651,244.383389 103.515101,249.765101 124.895134,249.765101 C152.583893,249.765101 178.158557,240.73406 198.850671,225.469799 L198.850671,225.473993 C199.437919,225.037752 200.020973,224.60151 200.599832,224.156879 C200.637584,224.127517 200.675336,224.098154 200.717282,224.064597 C201.30453,223.615772 201.883389,223.162752 202.462248,222.701342" id="Fill-40" fill="#2F312E"></path>
                <path d="M106.229027,248.57802 C112.395134,249.513423 118.708054,250 125.130034,250 C128.913591,250 132.655201,249.823826 136.350671,249.49245 L135.436242,189.207215 L117.604866,190.826342 L106.229027,248.57802" id="Fill-41" fill="#E7B640"></path>
                <path d="M69.4211409,190.293624 L127.663591,197.575503 L193.758389,193.863255 C193.758389,193.863255 204.375,21.880453 117.504195,31.6090604 C30.6333893,41.335151 69.4211409,190.293624 69.4211409,190.293624 L120,110" id="Fill-42" fill="#F4DAB9"></path>
                <path d="M204.098154,112.663591 C204.098154,124.299497 198.473154,133.733221 191.535235,133.733221 C184.593121,133.733221 178.972315,124.299497 178.972315,112.663591 C178.972315,101.02349 184.593121,91.5897651 191.535235,91.5897651 C198.473154,91.5897651 204.098154,101.02349 204.098154,112.663591" id="Fill-43" fill="#F4DAB9"></path>
                <path d="M150.083893,56.2864933 L42.5964765,52.6640101 C42.5964765,52.6640101 84.9496644,1.61577181 173.028523,29.9563758" id="Fill-44" fill="#2F312E"></path>
                <path d="M100.625,124.14849 C100.625,126.682047 98.5654362,128.741611 96.0318792,128.741611 L57.3993289,128.741611 C54.8573826,128.741611 52.8020134,126.682047 52.8020134,124.14849 L52.8020134,111.451342 C52.8020134,108.913591 54.8573826,106.858221 57.3993289,106.858221 L96.0318792,106.858221 C98.5654362,106.858221 100.625,108.913591 100.625,111.451342 L100.625,124.14849 L100.625,124.14849 Z" id="Stroke-45" stroke="#1C5466" stroke-width="4"></path>
                <path d="M109.94547,112.126678 C109.94547,112.126678 72.386745,125.490772 79.9538591,144.54698 C83.8926174,154.454698 121.174497,140.943792 121.174497,140.943792" id="Fill-46" fill="#BD837D"></path>
                <path d="M161.413591,129.819631 C161.413591,132.357383 159.358221,134.412752 156.82047,134.412752 L118.187919,134.412752 C115.650168,134.412752 113.594799,132.357383 113.594799,129.819631 L113.594799,117.126678 C113.594799,114.588926 115.650168,112.533557 118.187919,112.533557 L156.82047,112.533557 C159.358221,112.533557 161.413591,114.588926 161.413591,117.126678 L161.413591,129.819631 L161.413591,129.819631 Z M100.448826,112.063758 L115.037752,116.115772 L100.448826,112.063758 Z" id="Stroke-47" stroke="#1C5466" stroke-width="4"></path>
                <path d="M108.246644,155.356544 C108.246644,155.356544 144.333054,134.190436 145.952181,142.298658 C147.571309,150.402685 113.280201,159.731544 113.280201,159.731544" id="Fill-48" fill="#AA2F41"></path>
                <path d="M68.9177852,190.046141 L98.7290268,226.946309 L124.66443,196.958893 L68.9177852,190.046141" id="Fill-49" fill="#BD837D"></path>
                <path d="M124.66443,196.958893 L144.119128,227.760067 L194.370805,193.716443 L124.66443,196.958893" id="Fill-50" fill="#BD837D"></path>
                <path d="M99.0939597,91.7030201 C99.0939597,95.8305369 95.7424497,99.1778523 91.6149329,99.1778523 C87.4832215,99.1778523 84.135906,95.8305369 84.135906,91.7030201 L84.135906,87.4119128 C84.135906,83.2802013 87.4832215,79.9328859 91.6149329,79.9328859 C95.7424497,79.9328859 99.0939597,83.2802013 99.0939597,87.4119128 L99.0939597,91.7030201" id="Fill-51" fill="#2F312E"></path>
                <path d="M148.498322,98.8422819 C148.498322,102.969799 145.146812,106.321309 141.019295,106.321309 C136.887584,106.321309 133.540268,102.969799 133.540268,98.8422819 L133.540268,94.5511745 C133.540268,90.4236577 136.887584,87.0721477 141.019295,87.0721477 C145.146812,87.0721477 148.498322,90.4236577 148.498322,94.5511745 L148.498322,98.8422819" id="Fill-52" fill="#2F312E"></path>
                <path d="M189.869966,87.0637584 C189.869966,60.0071309 179.643456,37.8737416 166.694631,36.0566275 C164.223993,33.8548658 162.562919,32.7827181 162.562919,32.7827181 L159.953859,36.9920302 C156.849832,38.3049497 153.951342,40.7797819 151.388423,44.2197987 L154.052013,46.5088087 L141.711409,66.4068792 L166.329698,58.692953 L188.120805,105.897651 C189.249161,100.062919 189.869966,93.716443 189.869966,87.0637584" id="Fill-53" fill="#2F312E"></path>
            </g>
        </g>
    </g>
</svg>