<?xml version="1.0" encoding="UTF-8" standalone="no"?>
<svg width="250px" height="251px" viewBox="0 0 250 251" version="1.1" xmlns="http://www.w3.org/2000/svg" xmlns:xlink="http://www.w3.org/1999/xlink" xmlns:sketch="http://www.bohemiancoding.com/sketch/ns">
    <!-- Generator: Sketch 3.3 (11970) - http://www.bohemiancoding.com/sketch -->
    <title>Group</title>
    <desc>Created with Sketch.</desc>
    <defs></defs>
    <g id="Page-1" stroke="none" stroke-width="1" fill="none" fill-rule="evenodd" sketch:type="MSPage">
        <g id="hoder" sketch:type="MSLayerGroup" transform="translate(-350.000000, 0.000000)">
            <g id="Group" transform="translate(350.000000, 0.000000)" sketch:type="MSShapeGroup">
                <path d="M249.823529,125.126891 C249.823529,194.112185 193.894958,250.034034 124.911765,250.034034 C55.9260504,250.034034 0,194.112185 0,125.126891 C0,56.1420168 55.9260504,0.218487395 124.911765,0.218487395 C193.894958,0.218487395 249.823529,56.1420168 249.823529,125.126891" id="Fill-24" fill="#1C5466"></path>
                <path d="M144.777311,206.342857 C97.1596639,206.342857 79.9273109,213.748319 77.7046218,234.247479 C77.6689076,234.323109 76.8810924,236.647899 75.755042,240.101681 C90.8445378,246.566807 107.457983,250.151681 124.911765,250.151681 C153.928571,250.151681 180.634454,240.255462 201.840336,223.655882 C187.865546,213.982353 160.987395,206.342857 144.777311,206.342857" id="Fill-25" fill="#2F312E"></path>
                <path d="M190.554622,113.177731 L185.214286,149.989076 L179.987395,150.398319 L179.726891,165.984034 L166.907563,168.881513 L166.243697,75.207563" id="Fill-26" fill="#2F312E"></path>
                <path d="M145.37395,30.0264706 C145.37395,30.0264706 143.079832,19.4794118 128.189076,19.9936975 C113.289916,20.5340336 94.3109244,26.7445378 78.3415966,32.402521 C62.3768908,38.0605042 52.95,57.5243697 50.707563,69.257563 C48.4705882,81.0142857 56.1634454,123.117647 56.1634454,123.117647 L59.3592437,119.59958 L62.107563,134.645378 L72.9428571,127.913445" id="Fill-27" fill="#2F312E"></path>
                <path d="M61.8651261,78.1852941 C61.8651261,78.1852941 78.3911765,195.454622 91.8655462,203.433193 C105.336134,211.419328 122.47479,205.133193 122.47479,205.133193 L124.857143,228.121429 L171.021008,210.072269 L172.731092,58.6348739 L93.8781513,38.5512605 L61.8651261,78.1852941" id="Fill-28" fill="#F4DAB9"></path>
                <path d="M107.487395,113.234454 C107.487395,113.234454 97.9915966,137.30084 92.4243697,142.679832 C85.1596639,149.697479 77.5558824,158.060504 110.987395,156.423109" id="Fill-29" fill="#BD837D"></path>
                <path d="M94.0336134,109.253782 C94.4663866,114.208403 90.7983193,118.592017 85.8361345,119.017227 C80.8768908,119.456303 76.5037815,115.792857 76.0680672,110.826471 L75.6197479,105.673109 C75.1840336,100.712605 78.8516807,96.3420168 83.8109244,95.910084 C88.7689076,95.4718487 93.1470588,99.1453782 93.5798319,104.094958 L94.0336134,109.253782" id="Fill-30" fill="#2F312E"></path>
                <path d="M131.058824,106.757983 C131.495798,111.711345 127.827731,116.089076 122.865546,116.526471 C117.89916,116.953782 113.529412,113.285714 113.096639,108.336134 L112.642857,103.170588 C112.201681,98.2105042 115.878151,93.8394958 120.836134,93.4071429 C125.798319,92.9756303 130.168067,96.6378151 130.605042,101.598739 L131.058824,106.757983" id="Fill-31" fill="#2F312E"></path>
                <path d="M126.705882,163.318487 C127.596639,165.490336 117.756303,174.647479 110.659664,177.57605 C103.558824,180.517227 97.0756303,181.137395 96.1848739,178.972269 C95.2857143,176.801261 100.319328,172.668908 107.415966,169.739916 C114.508403,166.79916 125.806723,161.152941 126.705882,163.318487" id="Fill-32" fill="#AA2F41"></path>
                <path d="M120.084034,171.192017 C121.294118,172.618067 119.306723,176.316387 115.62605,179.440756 C111.953782,182.582773 107.983193,183.968908 106.768908,182.536555 C105.554622,181.104202 107.542017,177.413025 111.218487,174.282353 C114.89916,171.144538 118.861345,169.761345 120.084034,171.192017" id="Fill-33" fill="#AA2F41"></path>
                <path d="M122.071429,37.0004202 L90.6764706,34.9903361 C85.7478992,40.9592437 82.5756303,48.4848739 82.042437,56.8042017 C81.242437,69.3004202 86.5336134,80.7781513 95.3739496,88.3226891 C94.3613445,84.1226891 93.9495798,79.6991597 94.2436975,75.1638655 C95.3739496,57.5739496 106.684874,43.0621849 122.071429,37.0004202" id="Fill-34" fill="#2F312E"></path>
                <path d="M105.890756,43.0995798 L147.10084,95.5264706 L151.823529,68.3386555 L160,126.077311 L168.638655,107.314706 L178.168067,132.448739 L182.651261,108.959244 L192.159664,145.987395 L196.710084,109.865126 C196.710084,109.865126 200.739496,81.8836134 197.773109,58.660084 C194.815126,35.4306723 173.466387,20.6823529 140.571429,23.7726891" id="Fill-35" fill="#2F312E"></path>
                <path d="M156.563025,121.764706 C155.710084,135.04916 160.315126,146.166807 166.852941,146.583193 C173.394958,147.005462 179.390756,136.57521 180.243697,123.297899 C181.096639,110.014286 176.487395,98.907563 169.945378,98.4861345 C163.407563,98.0638655 157.415966,108.487815 156.563025,121.764706" id="Fill-36" fill="#F4DAB9"></path>
                <path d="M161.945378,139.212605 C161.760504,142.071849 163.92437,144.541597 166.785714,144.727731 C169.647059,144.907563 172.121849,142.735714 172.302521,139.87605 C172.487395,137.008824 170.315126,134.552101 167.457983,134.372689 C164.592437,134.179832 162.130252,136.357983 161.945378,139.212605" id="Fill-37" fill="#AA2F41"></path>
                <path d="M176.441176,89.9794118 L167.231092,117.626891 L163.268908,109.939076 L154.033613,126.436555 L150.773109,61.5819328" id="Fill-38" fill="#2F312E"></path>
            </g>
        </g>
    </g>
</svg>