<?xml version="1.0" encoding="UTF-8" standalone="no"?>
<svg width="1015px" height="408px" viewBox="0 0 1015 408" version="1.1" xmlns="http://www.w3.org/2000/svg" xmlns:xlink="http://www.w3.org/1999/xlink" xmlns:sketch="http://www.bohemiancoding.com/sketch/ns">
    <!-- Generator: Sketch 3.3.3 (12072) - http://www.bohemiancoding.com/sketch -->
    <title>Salillustrasjoner</title>
    <desc>Created with Sketch.</desc>
    <defs>
        <path id="path-1" d="M0.54,49.832 L53.496,49.832 L53.496,0.821 L0.54,0.821 L0.54,49.832 Z"></path>
        <path id="path-3" d="M0.54,49.832 L53.496,49.832 L53.496,0.821 L0.54,0.821 L0.54,49.832 Z"></path>
        <path id="path-5" d="M0.273,49.832 L53.229,49.832 L53.229,0.821 L0.273,0.821 L0.273,49.832 Z"></path>
        <path id="path-7" d="M0.273,49.832 L53.229,49.832 L53.229,0.821 L0.273,0.821 L0.273,49.832 Z"></path>
    </defs>
    <g id="Page-1" stroke="none" stroke-width="1" fill="none" fill-rule="evenodd" sketch:type="MSPage">
        <g id="Salillustrasjoner" sketch:type="MSLayerGroup" transform="translate(-3.000000, -20.000000)">
            <g id="Group-33" sketch:type="MSShapeGroup">
                <path d="M508.4056,42.1304 C318.1486,42.1304 168.2046,65.3804 98.6476,96.9114 L98.6476,268.1444 C169.6896,242.1774 300.5016,202.5684 510.2366,202.2304 C719.9706,202.5684 850.7826,242.1774 921.8256,268.1444 L921.8256,96.9114 C852.2676,65.3804 698.6626,42.1304 508.4056,42.1304" id="Fill-1" fill="#E5B44D"></path>
                <path d="M389.7325,206.869 L387.6455,189.316 L616.9795,189.509 L614.9795,206.869 L568.4105,245.854 L443.4985,245.604 L389.7325,206.869 Z" id="Fill-3" fill="#FFFFFF"></path>
                <path d="M2.9936,83.5072 L96.8396,96.8492 L96.3616,270.6212 L21.8686,327.5702 L2.9936,83.5072 Z" id="Fill-4" fill="#B2C1AC"></path>
                <path d="M1017.479,83.5072 L923.6328,96.8492 L924.1108,270.6212 L998.6038,327.5702 L1017.479,83.5072 Z" id="Fill-5" fill="#B2C1AC"></path>
                <path d="M387.6458,189.3159 L439.9868,226.7729 L571.8598,226.6379 L616.9788,189.5089 L387.6458,189.3159 Z" id="Fill-6" fill="#B2C1AC"></path>
                <path d="M439.9866,228.5951 L445.1846,245.7191 L567.4196,245.7191 L572.4746,228.5951 L439.9866,228.5951 Z" id="Fill-7" fill="#292D2C"></path>
                <path d="M517.4296,180.9085 C517.4296,180.9085 509.8636,188.9745 512.8496,191.4275 C515.8356,193.8805 515.9626,193.3095 515.9626,193.3095" id="Fill-8" fill="#292D2C"></path>
                <path d="M524.1751,212.6611 L521.4111,212.9031 C521.4111,212.9031 520.9411,213.3161 520.3541,213.4691 C519.7671,213.6231 518.3251,213.5611 518.4731,213.9911 C518.6201,214.4221 521.6471,214.1621 521.8771,214.1531 C522.1071,214.1451 522.8601,214.0431 522.8601,214.0431 L522.8731,214.1491 L524.4341,214.1081 C524.4341,214.1081 524.4921,213.0031 524.1751,212.6611" id="Fill-9" fill="#292D2C"></path>
                <path d="M529.4767,213.0339 L527.2117,212.8559 C527.2117,212.8559 526.2427,213.6889 525.6557,213.8419 C525.0687,213.9959 523.6267,213.9339 523.7747,214.3649 C523.9217,214.7949 526.9487,214.5349 527.1787,214.5259 C527.4087,214.5179 528.1617,214.4159 528.1617,214.4159 L528.1747,214.5229 L529.7367,214.4809 C529.7367,214.4809 529.7937,213.3759 529.4767,213.0339" id="Fill-10" fill="#292D2C"></path>
                <path d="M523.7425,202.0494 L526.8115,213.1284 L529.7095,213.7104 L531.0355,195.1054 L521.3455,194.1204 L515.8435,196.3374 L521.2785,212.9344 L524.3605,213.0724 L523.7425,202.0494 Z" id="Fill-11" fill="#A83548"></path>
                <path d="M531.7247,196.2406 C532.0597,193.5326 532.1977,188.2456 529.8117,181.5566 C526.2977,171.7026 517.3697,181.3516 517.3697,181.3516 C517.3697,181.3516 514.9397,187.5506 514.8587,192.2316 C514.8227,194.2926 515.0247,196.0666 515.2627,197.4066 L531.7247,196.2406 Z" id="Fill-12" fill="#292D2C"></path>
                <path d="M522.0847,181.2279 L519.9497,192.0669 L521.5097,195.0239 L524.0557,191.9029 L523.8907,181.0639 L522.0847,181.2279 Z" id="Fill-13" fill="#E5B44D"></path>
                <path d="M517.2267,181.2098 L523.1277,181.9478 L529.8237,181.5718 C529.8237,181.5718 530.8987,164.1478 522.0977,165.1328 C513.2967,166.1188 517.2267,181.2098 517.2267,181.2098" id="Fill-14" fill="#F0D4B1"></path>
                <path d="M530.871,173.3448 C530.871,174.5238 530.301,175.4798 529.598,175.4798 C528.895,175.4798 528.326,174.5238 528.326,173.3448 C528.326,172.1658 528.895,171.2098 529.598,171.2098 C530.301,171.2098 530.871,172.1658 530.871,173.3448" id="Fill-15" fill="#F0D4B1"></path>
                <path d="M525.3988,167.6333 L514.5098,167.2663 C514.5098,167.2663 518.7998,162.0943 527.7238,164.9653" id="Fill-16" fill="#292D2C"></path>
                <path d="M516.0088,173.0032 C515.8878,173.0032 515.7898,173.1012 515.7898,173.2222 L515.7898,174.5082 C515.7898,174.6292 515.8878,174.7272 516.0088,174.7272 L519.9228,174.7272 C520.0438,174.7272 520.1418,174.6292 520.1418,174.5082 L520.1418,173.2222 C520.1418,173.1012 520.0438,173.0032 519.9228,173.0032 L516.0088,173.0032 Z M519.9228,175.2202 L516.0088,175.2202 C515.6158,175.2202 515.2968,174.9012 515.2968,174.5082 L515.2968,173.2222 C515.2968,172.8302 515.6158,172.5102 516.0088,172.5102 L519.9228,172.5102 C520.3148,172.5102 520.6348,172.8302 520.6348,173.2222 L520.6348,174.5082 C520.6348,174.9012 520.3148,175.2202 519.9228,175.2202 L519.9228,175.2202 Z" id="Fill-17" fill="#1D5768"></path>
                <path d="M521.3323,173.2904 C521.3323,173.2904 517.5273,174.6444 518.2943,176.5754 C518.6923,177.5784 522.4703,176.2104 522.4703,176.2104" id="Fill-18" fill="#BB817B"></path>
                <path d="M522.1675,173.5779 C522.0465,173.5779 521.9485,173.6759 521.9485,173.7969 L521.9485,175.0829 C521.9485,175.2039 522.0465,175.3019 522.1675,175.3019 L526.0815,175.3019 C526.2015,175.3019 526.3005,175.2039 526.3005,175.0829 L526.3005,173.7969 C526.3005,173.6759 526.2015,173.5779 526.0815,173.5779 L522.1675,173.5779 Z M526.0815,175.7949 L522.1675,175.7949 C521.7745,175.7949 521.4555,175.4759 521.4555,175.0829 L521.4555,173.7969 C521.4555,173.4049 521.7745,173.0849 522.1675,173.0849 L526.0815,173.0849 C526.4735,173.0849 526.7935,173.4049 526.7935,173.7969 L526.7935,175.0829 C526.7935,175.4759 526.4735,175.7949 526.0815,175.7949 L526.0815,175.7949 Z" id="Fill-19" fill="#1D5768"></path>
                <path d="M521.7825,173.9321 L520.3045,173.5221 L520.4365,173.0471 L521.9145,173.4571 L521.7825,173.9321 Z" id="Fill-20" fill="#1D5768"></path>
                <path d="M521.6064,177.6701 C521.6064,177.6701 525.2624,175.5261 525.4264,176.3471 C525.5904,177.1681 523.0724,178.5921 523.0724,178.5921" id="Fill-21" fill="#A83548"></path>
                <path d="M517.176,181.1844 L520.196,184.9234 L522.824,181.8844 L517.176,181.1844 Z" id="Fill-22" fill="#BB817B"></path>
                <path d="M522.8237,181.8848 L524.7947,185.0048 L529.8857,181.5568 L522.8237,181.8848 Z" id="Fill-23" fill="#BB817B"></path>
                <path d="M519.1068,191.3466 L519.0928,191.3436 C519.2218,191.2976 519.3258,191.2016 519.3638,191.0706 C519.4288,190.8476 519.2748,190.6126 519.0198,190.5466 L517.8578,190.2476 C517.9038,190.2016 517.9498,190.1386 518.0188,190.0766 L518.6898,189.4666 C518.8628,189.3086 518.8758,189.0386 518.7188,188.8656 C518.5598,188.6916 518.2908,188.6786 518.1168,188.8366 L517.3178,189.5636 L515.1048,190.5076 C515.0728,190.5106 515.0428,190.5166 515.0138,190.5246 L514.7448,191.8316 L517.4128,193.1006 L517.6488,193.1466 C517.8748,193.2056 518.1108,193.0716 518.1758,192.8476 C518.1878,192.8076 518.1908,192.7666 518.1908,192.7266 L518.3738,192.7746 C518.6288,192.8406 518.8878,192.7126 518.9528,192.4886 C518.9858,192.3736 518.9608,192.2566 518.8958,192.1606 C519.1418,192.2126 519.3878,192.0876 519.4498,191.8706 C519.5148,191.6466 519.3618,191.4126 519.1068,191.3466" id="Fill-24" fill="#F0D4B1"></path>
                <path d="M526.8474,187.8056 C526.8474,187.8056 525.8324,195.2116 525.8914,195.2116 C526.5494,195.2116 535.8554,196.3246 535.8554,196.3246 L537.2404,189.6576 L526.8474,187.8056 Z" id="Fill-25" fill="#FFFFFF"></path>
                <path d="M529.5428,196.6382 C529.3648,196.7882 529.0938,196.7682 528.9388,196.5942 C528.9098,196.5632 528.8908,196.5282 528.8738,196.4912 L528.7288,196.6132 C528.5268,196.7822 528.2378,196.7772 528.0828,196.6032 C528.0038,196.5142 527.9748,196.3972 527.9938,196.2822 C527.7938,196.4352 527.5178,196.4282 527.3678,196.2592 C527.2128,196.0852 527.2518,195.8072 527.4538,195.6382 L527.4648,195.6292 C527.3278,195.6432 527.1928,195.6012 527.1028,195.4992 C526.9488,195.3262 526.9858,195.0482 527.1878,194.8782 L528.1088,194.1092 C527.9478,194.0932 527.8118,193.9962 527.7628,193.8422 C527.6958,193.6172 527.8378,193.3612 528.0818,193.2682 L530.7078,193.1622 C530.7378,193.1502 530.7668,193.1432 530.7968,193.1382 L531.6008,194.2042 L529.7358,196.4952 L529.5428,196.6382 Z" id="Fill-26" fill="#E2CBA8"></path>
                <path d="M529.7216,182.1312 C529.7216,182.1312 538.8706,188.7462 535.3886,191.9122 C534.0746,193.1062 531.2076,194.7192 531.2076,194.7192 L529.5946,193.1662 L531.6256,190.2392 L529.7216,182.1312 Z" id="Fill-27" fill="#292D2C"></path>
                <path d="M522.0593,197.3204 L522.6243,194.8804 L523.4063,197.0604 L522.0593,197.3204 Z" id="Fill-28" fill="#A83548"></path>
                <path d="M520.2328,171.2212 C520.2328,171.6392 519.8938,171.9792 519.4748,171.9792 C519.0568,171.9792 518.7178,171.6392 518.7178,171.2212 L518.7178,170.7862 C518.7178,170.3682 519.0568,170.0292 519.4748,170.0292 C519.8938,170.0292 520.2328,170.3682 520.2328,170.7862 L520.2328,171.2212 Z" id="Fill-29" fill="#292D2C"></path>
                <path d="M525.2382,171.9447 C525.2382,172.3627 524.8982,172.7027 524.4802,172.7027 C524.0622,172.7027 523.7222,172.3627 523.7222,171.9447 L523.7222,171.5097 C523.7222,171.0917 524.0622,170.7527 524.4802,170.7527 C524.8982,170.7527 525.2382,171.0917 525.2382,171.5097 L525.2382,171.9447 Z" id="Fill-30" fill="#292D2C"></path>
                <path d="M529.4298,170.7513 C529.4298,168.0103 528.3938,165.7683 527.0818,165.5833 C526.8308,165.3603 526.6628,165.2523 526.6628,165.2523 L526.3988,165.6783 C526.0848,165.8113 525.7908,166.0623 525.5308,166.4103 L525.8008,166.6423 L524.5508,168.6583 L527.0448,167.8773 L529.2528,172.6593 C529.3668,172.0683 529.4298,171.4253 529.4298,170.7513" id="Fill-31" fill="#292D2C"></path>
                <path d="M488.3454,222.6998 L487.1274,193.5228 L522.0874,194.0058 L519.3024,223.1498 L488.3454,222.6998 Z" id="Fill-32" fill="#1D5768"></path>
            </g>
            <text id="1" sketch:type="MSTextLayer" font-family="Luckiest Guy" font-size="25.9015" font-weight="normal" fill="#FFFFFF">
                <tspan x="498.4438" y="214.3143">1</tspan>
            </text>
            <g id="Group-38" fill="#292D2C" sketch:type="MSShapeGroup">
                <path d="M569.1243,245.6036 L573.9243,228.2146 L616.7603,191.3966 L615.1043,205.8806 L569.1243,245.6036 Z" id="Fill-35"></path>
                <path d="M443.4985,245.6036 L438.6985,228.2146 L387.8795,191.4186 L389.7485,207.0406 L443.4985,245.6036 Z" id="Fill-37"></path>
            </g>
            <g id="Group-42" sketch:type="MSShapeGroup">
                <path d="M546.4348,20.6758 L707.3038,36.7448 L701.6348,133.8328 L551.3958,151.0718 L546.4348,20.6758 Z" id="Fill-39" fill="#FFFFFF"></path>
                <path d="M546.4348,20.6758 L707.3038,36.7448 L701.6348,133.8328 L551.3958,151.0718 L546.4348,20.6758 L546.4348,20.6758 Z" id="Stroke-41" stroke="#E5B44D"></path>
            </g>
            <g id="Group-45" transform="translate(598.000000, 54.000000)">
                <mask id="mask-2" sketch:name="Clip 44" fill="white">
                    <use xlink:href="#path-1"></use>
                </mask>
                <g id="Clip-44"></g>
                <path d="M7.3347,32.1024 C6.2817,32.3464 5.8617,31.7834 6.3977,30.8454 L19.4667,7.9544 L44.8347,0.8894 C45.8767,0.5994 46.7217,1.2414 46.7217,2.3234 L46.7217,21.0044 C46.7217,22.0864 45.8687,23.1604 44.8147,23.4054 L7.3347,32.1024 Z" id="Fill-43" fill="#E87E41" sketch:type="MSShapeGroup" mask="url(#mask-2)"></path>
            </g>
            <path d="M605.934,58.3013 C604.903,57.9763 604.379,58.5313 604.763,59.5423 L613.29,81.9773 L625.107,88.8303 L640.927,86.9033 L641.377,86.8483 C642.451,86.7173 642.821,85.8913 642.204,85.0033 L628.632,65.4663 L605.934,58.3013 Z" id="Fill-46" fill="#DF4C49" sketch:type="MSShapeGroup"></path>
            <g id="Group-51" transform="translate(598.000000, 54.000000)">
                <mask id="mask-4" sketch:name="Clip 49" fill="white">
                    <use xlink:href="#path-3"></use>
                </mask>
                <g id="Clip-49"></g>
                <path d="M13.3969,23.1483 L16.0739,30.0663 L22.7159,34.1393 C23.6389,34.7053 25.2559,35.0603 26.3309,34.9313 C26.3309,34.9313 42.5139,33.0023 43.2969,32.8723 C44.0809,32.7413 44.3419,32.4803 44.4719,32.0893 L18.8159,17.6013 L13.3969,23.1483 Z" id="Fill-48" fill="#8F2034" sketch:type="MSShapeGroup" mask="url(#mask-4)"></path>
                <path d="M46.1696,1.0901 C43.0846,3.6041 6.4766,31.8281 6.2156,31.8281 C6.0196,31.4361 6.4116,30.7841 6.4116,30.7841 L19.4586,7.9541 L44.7986,0.8941 C44.7986,0.8941 45.5816,0.6331 46.1696,1.0901" id="Fill-50" fill="#F0AB2B" sketch:type="MSShapeGroup" mask="url(#mask-4)"></path>
            </g>
            <g id="Group-61" fill="#0C0A09" sketch:type="MSShapeGroup">
                <path d="M602.6864,100.8136 C602.6864,102.2276 602.5914,102.8936 602.0064,103.3016 C601.4904,103.6686 600.7964,103.7096 599.8724,103.7096 L598.9884,103.7096 C598.6624,103.7096 598.5394,103.6146 598.5394,103.2476 L598.5394,102.3226 C598.5394,101.9146 598.6624,101.8336 599.0154,101.8336 L599.6684,101.8336 C599.9134,101.8336 600.1444,101.8336 600.2664,101.7106 C600.4024,101.5746 600.4024,101.3986 600.4024,100.7456 L600.4024,95.3346 C600.4024,94.9536 600.4704,94.9136 600.8914,94.9136 L602.2244,94.9136 C602.6454,94.9136 602.6864,94.9536 602.6864,95.3346 L602.6864,100.8136 Z" id="Fill-52"></path>
                <path d="M607.5538,101.0312 C607.4038,101.0042 607.0918,100.9902 606.9008,100.9902 L606.7518,100.9902 C606.1268,100.9902 605.8678,101.0992 605.8678,101.6022 L605.8678,101.6562 C605.8678,102.1592 606.1538,102.2822 606.6298,102.2822 L606.7248,102.2822 C607.0368,102.2822 607.2408,102.1872 607.3638,102.0782 C607.5128,101.9422 607.5538,101.7792 607.5538,101.4122 L607.5538,101.0312 Z M608.0158,103.1522 C607.7438,103.5602 607.0918,103.8322 606.2348,103.8322 L606.0308,103.8322 C604.6718,103.8322 603.8288,103.1112 603.8288,101.7382 L603.8288,101.5882 C603.8288,100.0662 604.6848,99.5762 606.5068,99.5762 L606.6018,99.5762 C606.9558,99.5762 607.3498,99.6042 607.5538,99.6312 L607.5538,99.3452 C607.5538,99.0732 607.5128,98.8832 607.3228,98.7472 C607.1598,98.6382 606.9558,98.5972 606.5068,98.5972 C606.0308,98.5972 605.4598,98.6932 604.9298,98.8292 C604.5898,98.9102 604.5088,98.8012 604.4678,98.5702 L604.3588,97.8502 C604.3458,97.7542 604.3318,97.6322 604.3318,97.5782 C604.3318,97.4012 604.3858,97.3062 604.6578,97.2242 C605.2288,97.0612 606.0588,96.9252 606.9828,96.9252 C608.0708,96.9252 608.7778,97.1432 609.2128,97.5912 C609.5658,97.9582 609.7288,98.4892 609.7288,99.2912 L609.7288,103.3292 C609.7288,103.6002 609.6208,103.7092 609.2668,103.7092 L608.6278,103.7092 C608.3148,103.7092 608.2068,103.6412 608.1248,103.3972 L608.0428,103.1522 L608.0158,103.1522 Z" id="Fill-54"></path>
                <path d="M614.9091,103.4376 C614.8271,103.6146 614.7191,103.7096 614.4331,103.7096 L612.9511,103.7096 C612.6791,103.7096 612.5431,103.6416 612.4481,103.4236 C611.8361,102.0106 610.8581,99.3316 610.4091,97.4416 C610.3411,97.1566 610.4771,97.0476 610.7901,97.0476 L612.0541,97.0476 C612.3531,97.0476 612.4481,97.0886 612.5161,97.3606 C612.8831,98.7606 613.4141,100.5686 613.6851,101.3716 L613.7401,101.3716 C614.0121,100.5416 614.5011,98.7746 614.8141,97.4146 C614.8821,97.1156 614.9631,97.0476 615.2631,97.0476 L616.5541,97.0476 C616.8671,97.0476 616.9891,97.1566 616.9081,97.4416 C616.4181,99.2506 615.5211,102.0106 614.9091,103.4376" id="Fill-55"></path>
                <path d="M621.1223,101.0312 C620.9733,101.0042 620.6603,100.9902 620.4693,100.9902 L620.3203,100.9902 C619.6953,100.9902 619.4363,101.0992 619.4363,101.6022 L619.4363,101.6562 C619.4363,102.1592 619.7223,102.2822 620.1983,102.2822 L620.2933,102.2822 C620.6053,102.2822 620.8093,102.1872 620.9323,102.0782 C621.0813,101.9422 621.1223,101.7792 621.1223,101.4122 L621.1223,101.0312 Z M621.5843,103.1522 C621.3123,103.5602 620.6603,103.8322 619.8033,103.8322 L619.5993,103.8322 C618.2403,103.8322 617.3973,103.1112 617.3973,101.7382 L617.3973,101.5882 C617.3973,100.0662 618.2533,99.5762 620.0753,99.5762 L620.1703,99.5762 C620.5243,99.5762 620.9183,99.6042 621.1223,99.6312 L621.1223,99.3452 C621.1223,99.0732 621.0813,98.8832 620.8913,98.7472 C620.7283,98.6382 620.5243,98.5972 620.0753,98.5972 C619.5993,98.5972 619.0283,98.6932 618.4983,98.8292 C618.1583,98.9102 618.0773,98.8012 618.0363,98.5702 L617.9273,97.8502 C617.9143,97.7542 617.9003,97.6322 617.9003,97.5782 C617.9003,97.4012 617.9543,97.3062 618.2263,97.2242 C618.7973,97.0612 619.6273,96.9252 620.5513,96.9252 C621.6393,96.9252 622.3463,97.1432 622.7813,97.5912 C623.1343,97.9582 623.2973,98.4892 623.2973,99.2912 L623.2973,103.3292 C623.2973,103.6002 623.1893,103.7092 622.8353,103.7092 L622.1963,103.7092 C621.8833,103.7092 621.7753,103.6412 621.6933,103.3972 L621.6113,103.1522 L621.5843,103.1522 Z" id="Fill-56"></path>
                <path d="M630.1364,101.8604 C630.5034,101.8604 630.6124,101.9554 630.6124,102.2954 L630.6124,103.2744 C630.6124,103.6414 630.5034,103.7094 630.1364,103.7094 L624.7394,103.7094 C624.3174,103.7094 624.2224,103.6004 624.2224,103.2474 L624.2224,102.8394 C624.2224,102.5404 624.2634,102.4184 624.4404,102.1324 L627.6754,96.7624 L624.8614,96.7624 C624.4944,96.7624 624.3854,96.6674 624.3854,96.3404 L624.3854,95.3484 C624.3854,94.9944 624.4944,94.9134 624.8614,94.9134 L630.1364,94.9134 C630.4624,94.9134 630.5714,94.9814 630.5714,95.3074 L630.5714,95.7694 C630.5714,96.0554 630.5174,96.2184 630.2994,96.5724 L626.9824,101.8604 L630.1364,101.8604 Z" id="Fill-57"></path>
                <path d="M633.6577,100.9088 C633.6577,101.5068 633.6987,101.7378 633.9027,101.9418 C634.0247,102.0648 634.2017,102.1328 634.4737,102.1328 L634.5277,102.1328 C634.7997,102.1328 634.9767,102.0648 635.0987,101.9418 C635.3027,101.7378 635.3437,101.5068 635.3437,100.9088 L635.3437,99.8488 C635.3437,99.2498 635.3027,99.0188 635.0987,98.8148 C634.9767,98.6928 634.7997,98.6248 634.5277,98.6248 L634.4737,98.6248 C634.2017,98.6248 634.0247,98.6928 633.9027,98.8148 C633.6987,99.0188 633.6577,99.2498 633.6577,99.8488 L633.6577,100.9088 Z M637.5327,100.8138 C637.5327,102.2008 637.2467,102.8528 636.6757,103.3018 C636.2817,103.6148 635.5477,103.8318 634.5827,103.8318 L634.4187,103.8318 C633.4537,103.8318 632.7197,103.6148 632.3257,103.3018 C631.7547,102.8528 631.4687,102.2008 631.4687,100.8138 L631.4687,99.9438 C631.4687,98.5568 631.7547,97.9038 632.3257,97.4558 C632.7197,97.1428 633.4537,96.9248 634.4187,96.9248 L634.5827,96.9248 C635.5477,96.9248 636.2817,97.1428 636.6757,97.4558 C637.2467,97.9038 637.5327,98.5428 637.5327,99.9298 L637.5327,100.8138 Z" id="Fill-58"></path>
                <path d="M642.3726,96.9252 C643.1746,96.9252 643.7456,97.1152 644.0996,97.4822 C644.4666,97.8632 644.6026,98.3662 644.6026,99.2772 L644.6026,103.3152 C644.6026,103.5732 644.5066,103.7092 644.1396,103.7092 L642.8896,103.7092 C642.5226,103.7092 642.4266,103.5732 642.4266,103.3152 L642.4266,99.4672 C642.4266,99.1552 642.3866,98.9642 642.2776,98.8422 C642.1686,98.7202 641.9506,98.6652 641.6796,98.6652 L641.5976,98.6652 C641.3256,98.6652 641.1086,98.7202 640.9996,98.8422 C640.8906,98.9642 640.8496,99.1412 640.8496,99.4672 L640.8496,103.3152 C640.8496,103.5732 640.7546,103.7092 640.3876,103.7092 L639.1366,103.7092 C638.7696,103.7092 638.6746,103.5732 638.6746,103.3152 L638.6746,97.4282 C638.6746,97.1562 638.7836,97.0472 639.1366,97.0472 L639.7756,97.0472 C640.0886,97.0472 640.1976,97.1022 640.2786,97.3602 L640.3606,97.6182 L640.4016,97.6182 C640.8366,97.1562 641.4616,96.9252 642.2636,96.9252 L642.3726,96.9252 Z" id="Fill-59"></path>
                <path d="M649.3336,99.7123 C649.4556,99.7123 649.4966,99.6583 649.4966,99.5353 L649.4966,99.3183 C649.4966,99.0463 649.4556,98.8423 649.3606,98.6923 C649.2386,98.5163 649.0346,98.4483 648.7356,98.4483 L648.6126,98.4483 C648.3686,98.4483 648.1646,98.5023 648.0416,98.6383 C647.9056,98.7883 647.8376,99.0193 647.8376,99.3723 L647.8376,99.7123 L649.3336,99.7123 Z M649.2516,102.0783 C649.6866,102.0783 650.3536,101.9833 650.6926,101.9013 C650.7606,101.8873 650.8566,101.8603 650.9516,101.8603 C651.0736,101.8603 651.1686,101.9553 651.1966,102.0913 L651.3046,102.7713 C651.3326,102.9073 651.3596,103.0433 651.3596,103.1383 C651.3596,103.3153 651.2916,103.4103 651.0056,103.5053 C650.4616,103.6953 649.6186,103.8313 648.9526,103.8313 L648.6946,103.8313 C647.6206,103.8313 646.7916,103.6003 646.3286,103.1383 C645.7856,102.5943 645.6496,101.9013 645.6496,100.8003 L645.6496,100.0383 C645.6496,98.6793 646.0026,97.9453 646.4646,97.5373 C646.9136,97.1423 647.6206,96.9253 648.5996,96.9253 L648.7896,96.9253 C649.7686,96.9253 650.4756,97.1973 650.8426,97.6053 C651.3186,98.1353 651.4956,98.8693 651.4956,100.0383 L651.4956,100.7453 C651.4956,101.0313 651.3726,101.1263 651.1006,101.1263 L647.8376,101.1263 L647.8376,101.2353 C647.8376,101.8743 648.1506,102.0783 649.1026,102.0783 L649.2516,102.0783 Z" id="Fill-60"></path>
            </g>
            <g id="Group-65" sketch:type="MSShapeGroup">
                <path d="M474.0377,20.6758 L313.1687,36.7448 L318.8377,133.8328 L469.0767,151.0718 L474.0377,20.6758 Z" id="Fill-62" fill="#FFFFFF"></path>
                <path d="M474.0377,20.6758 L313.1687,36.7448 L318.8377,133.8328 L469.0767,151.0718 L474.0377,20.6758 L474.0377,20.6758 Z" id="Stroke-64" stroke="#E5B44D"></path>
            </g>
            <g id="Group-68" transform="translate(365.000000, 54.000000)">
                <mask id="mask-6" sketch:name="Clip 67" fill="white">
                    <use xlink:href="#path-5"></use>
                </mask>
                <g id="Clip-67"></g>
                <path d="M7.0682,32.1024 C6.0152,32.3464 5.5952,31.7834 6.1312,30.8454 L19.2002,7.9544 L44.5682,0.8894 C45.6102,0.5994 46.4552,1.2414 46.4552,2.3234 L46.4552,21.0044 C46.4552,22.0864 45.6022,23.1604 44.5482,23.4054 L7.0682,32.1024 Z" id="Fill-66" fill="#E87E41" sketch:type="MSShapeGroup" mask="url(#mask-6)"></path>
            </g>
            <path d="M372.6675,58.3013 C371.6365,57.9763 371.1125,58.5313 371.4965,59.5423 L380.0235,81.9773 L391.8405,88.8303 L407.6605,86.9033 L408.1105,86.8483 C409.1845,86.7173 409.5545,85.8913 408.9375,85.0033 L395.3655,65.4663 L372.6675,58.3013 Z" id="Fill-69" fill="#DF4C49" sketch:type="MSShapeGroup"></path>
            <g id="Group-74" transform="translate(365.000000, 54.000000)">
                <mask id="mask-8" sketch:name="Clip 72" fill="white">
                    <use xlink:href="#path-7"></use>
                </mask>
                <g id="Clip-72"></g>
                <path d="M13.1304,23.1483 L15.8074,30.0663 L22.4494,34.1393 C23.3724,34.7053 24.9894,35.0603 26.0644,34.9313 C26.0644,34.9313 42.2474,33.0023 43.0304,32.8723 C43.8144,32.7413 44.0754,32.4803 44.2054,32.0893 L18.5494,17.6013 L13.1304,23.1483 Z" id="Fill-71" fill="#8F2034" sketch:type="MSShapeGroup" mask="url(#mask-8)"></path>
                <path d="M45.9031,1.0901 C42.8181,3.6041 6.2101,31.8281 5.9491,31.8281 C5.7531,31.4361 6.1451,30.7841 6.1451,30.7841 L19.1921,7.9541 L44.5321,0.8941 C44.5321,0.8941 45.3151,0.6331 45.9031,1.0901" id="Fill-73" fill="#F0AB2B" sketch:type="MSShapeGroup" mask="url(#mask-8)"></path>
            </g>
            <g id="Group-84" fill="#0C0A09" sketch:type="MSShapeGroup">
                <path d="M369.4199,100.8136 C369.4199,102.2276 369.3249,102.8936 368.7399,103.3016 C368.2239,103.6686 367.5299,103.7096 366.6059,103.7096 L365.7219,103.7096 C365.3959,103.7096 365.2729,103.6146 365.2729,103.2476 L365.2729,102.3226 C365.2729,101.9146 365.3959,101.8336 365.7489,101.8336 L366.4019,101.8336 C366.6469,101.8336 366.8779,101.8336 366.9999,101.7106 C367.1359,101.5746 367.1359,101.3986 367.1359,100.7456 L367.1359,95.3346 C367.1359,94.9536 367.2039,94.9136 367.6249,94.9136 L368.9579,94.9136 C369.3789,94.9136 369.4199,94.9536 369.4199,95.3346 L369.4199,100.8136 Z" id="Fill-75"></path>
                <path d="M374.2873,101.0312 C374.1373,101.0042 373.8253,100.9902 373.6343,100.9902 L373.4853,100.9902 C372.8593,100.9902 372.6013,101.0992 372.6013,101.6022 L372.6013,101.6562 C372.6013,102.1592 372.8873,102.2822 373.3633,102.2822 L373.4583,102.2822 C373.7703,102.2822 373.9743,102.1872 374.0973,102.0782 C374.2463,101.9422 374.2873,101.7792 374.2873,101.4122 L374.2873,101.0312 Z M374.7493,103.1522 C374.4773,103.5602 373.8253,103.8322 372.9683,103.8322 L372.7643,103.8322 C371.4053,103.8322 370.5623,103.1112 370.5623,101.7382 L370.5623,101.5882 C370.5623,100.0662 371.4183,99.5762 373.2403,99.5762 L373.3353,99.5762 C373.6893,99.5762 374.0833,99.6042 374.2873,99.6312 L374.2873,99.3452 C374.2873,99.0732 374.2463,98.8832 374.0563,98.7472 C373.8933,98.6382 373.6893,98.5972 373.2403,98.5972 C372.7643,98.5972 372.1933,98.6932 371.6633,98.8292 C371.3233,98.9102 371.2423,98.8012 371.2013,98.5702 L371.0923,97.8502 C371.0783,97.7542 371.0653,97.6322 371.0653,97.5782 C371.0653,97.4012 371.1193,97.3062 371.3913,97.2242 C371.9623,97.0612 372.7913,96.9252 373.7163,96.9252 C374.8043,96.9252 375.5113,97.1432 375.9463,97.5912 C376.2993,97.9582 376.4623,98.4892 376.4623,99.2912 L376.4623,103.3292 C376.4623,103.6002 376.3543,103.7092 376.0003,103.7092 L375.3613,103.7092 C375.0483,103.7092 374.9403,103.6412 374.8583,103.3972 L374.7763,103.1522 L374.7493,103.1522 Z" id="Fill-77"></path>
                <path d="M381.6426,103.4376 C381.5606,103.6146 381.4526,103.7096 381.1666,103.7096 L379.6846,103.7096 C379.4126,103.7096 379.2766,103.6416 379.1816,103.4236 C378.5696,102.0106 377.5916,99.3316 377.1426,97.4416 C377.0746,97.1566 377.2106,97.0476 377.5236,97.0476 L378.7876,97.0476 C379.0866,97.0476 379.1816,97.0886 379.2496,97.3606 C379.6166,98.7606 380.1476,100.5686 380.4186,101.3716 L380.4736,101.3716 C380.7456,100.5416 381.2346,98.7746 381.5476,97.4146 C381.6156,97.1156 381.6966,97.0476 381.9966,97.0476 L383.2876,97.0476 C383.6006,97.0476 383.7226,97.1566 383.6416,97.4416 C383.1516,99.2506 382.2546,102.0106 381.6426,103.4376" id="Fill-78"></path>
                <path d="M387.8558,101.0312 C387.7068,101.0042 387.3938,100.9902 387.2038,100.9902 L387.0538,100.9902 C386.4288,100.9902 386.1698,101.0992 386.1698,101.6022 L386.1698,101.6562 C386.1698,102.1592 386.4558,102.2822 386.9318,102.2822 L387.0268,102.2822 C387.3388,102.2822 387.5428,102.1872 387.6658,102.0782 C387.8148,101.9422 387.8558,101.7792 387.8558,101.4122 L387.8558,101.0312 Z M388.3178,103.1522 C388.0458,103.5602 387.3938,103.8322 386.5368,103.8322 L386.3328,103.8322 C384.9738,103.8322 384.1308,103.1112 384.1308,101.7382 L384.1308,101.5882 C384.1308,100.0662 384.9868,99.5762 386.8088,99.5762 L386.9038,99.5762 C387.2578,99.5762 387.6518,99.6042 387.8558,99.6312 L387.8558,99.3452 C387.8558,99.0732 387.8148,98.8832 387.6248,98.7472 C387.4618,98.6382 387.2578,98.5972 386.8088,98.5972 C386.3328,98.5972 385.7618,98.6932 385.2318,98.8292 C384.8918,98.9102 384.8108,98.8012 384.7698,98.5702 L384.6608,97.8502 C384.6478,97.7542 384.6338,97.6322 384.6338,97.5782 C384.6338,97.4012 384.6878,97.3062 384.9598,97.2242 C385.5308,97.0612 386.3608,96.9252 387.2848,96.9252 C388.3728,96.9252 389.0798,97.1432 389.5148,97.5912 C389.8678,97.9582 390.0308,98.4892 390.0308,99.2912 L390.0308,103.3292 C390.0308,103.6002 389.9228,103.7092 389.5688,103.7092 L388.9298,103.7092 C388.6168,103.7092 388.5088,103.6412 388.4268,103.3972 L388.3448,103.1522 L388.3178,103.1522 Z" id="Fill-79"></path>
                <path d="M396.8699,101.8604 C397.2369,101.8604 397.3459,101.9554 397.3459,102.2954 L397.3459,103.2744 C397.3459,103.6414 397.2369,103.7094 396.8699,103.7094 L391.4729,103.7094 C391.0509,103.7094 390.9559,103.6004 390.9559,103.2474 L390.9559,102.8394 C390.9559,102.5404 390.9969,102.4184 391.1739,102.1324 L394.4089,96.7624 L391.5949,96.7624 C391.2279,96.7624 391.1189,96.6674 391.1189,96.3404 L391.1189,95.3484 C391.1189,94.9944 391.2279,94.9134 391.5949,94.9134 L396.8699,94.9134 C397.1959,94.9134 397.3049,94.9814 397.3049,95.3074 L397.3049,95.7694 C397.3049,96.0554 397.2509,96.2184 397.0329,96.5724 L393.7159,101.8604 L396.8699,101.8604 Z" id="Fill-80"></path>
                <path d="M400.3912,100.9088 C400.3912,101.5068 400.4322,101.7378 400.6362,101.9418 C400.7582,102.0648 400.9352,102.1328 401.2072,102.1328 L401.2612,102.1328 C401.5332,102.1328 401.7102,102.0648 401.8322,101.9418 C402.0362,101.7378 402.0772,101.5068 402.0772,100.9088 L402.0772,99.8488 C402.0772,99.2498 402.0362,99.0188 401.8322,98.8148 C401.7102,98.6928 401.5332,98.6248 401.2612,98.6248 L401.2072,98.6248 C400.9352,98.6248 400.7582,98.6928 400.6362,98.8148 C400.4322,99.0188 400.3912,99.2498 400.3912,99.8488 L400.3912,100.9088 Z M404.2662,100.8138 C404.2662,102.2008 403.9802,102.8528 403.4092,103.3018 C403.0152,103.6148 402.2812,103.8318 401.3162,103.8318 L401.1522,103.8318 C400.1872,103.8318 399.4532,103.6148 399.0592,103.3018 C398.4882,102.8528 398.2022,102.2008 398.2022,100.8138 L398.2022,99.9438 C398.2022,98.5568 398.4882,97.9038 399.0592,97.4558 C399.4532,97.1428 400.1872,96.9248 401.1522,96.9248 L401.3162,96.9248 C402.2812,96.9248 403.0152,97.1428 403.4092,97.4558 C403.9802,97.9038 404.2662,98.5428 404.2662,99.9298 L404.2662,100.8138 Z" id="Fill-81"></path>
                <path d="M409.1061,96.9252 C409.9081,96.9252 410.4791,97.1152 410.8331,97.4822 C411.2001,97.8632 411.3361,98.3662 411.3361,99.2772 L411.3361,103.3152 C411.3361,103.5732 411.2401,103.7092 410.8731,103.7092 L409.6231,103.7092 C409.2561,103.7092 409.1601,103.5732 409.1601,103.3152 L409.1601,99.4672 C409.1601,99.1552 409.1201,98.9642 409.0111,98.8422 C408.9021,98.7202 408.6851,98.6652 408.4131,98.6652 L408.3311,98.6652 C408.0591,98.6652 407.8421,98.7202 407.7331,98.8422 C407.6241,98.9642 407.5831,99.1412 407.5831,99.4672 L407.5831,103.3152 C407.5831,103.5732 407.4881,103.7092 407.1211,103.7092 L405.8701,103.7092 C405.5031,103.7092 405.4081,103.5732 405.4081,103.3152 L405.4081,97.4282 C405.4081,97.1562 405.5171,97.0472 405.8701,97.0472 L406.5091,97.0472 C406.8221,97.0472 406.9311,97.1022 407.0121,97.3602 L407.0941,97.6182 L407.1351,97.6182 C407.5701,97.1562 408.1951,96.9252 408.9971,96.9252 L409.1061,96.9252 Z" id="Fill-82"></path>
                <path d="M416.0671,99.7123 C416.1891,99.7123 416.2301,99.6583 416.2301,99.5353 L416.2301,99.3183 C416.2301,99.0463 416.1891,98.8423 416.0941,98.6923 C415.9721,98.5163 415.7681,98.4483 415.4691,98.4483 L415.3461,98.4483 C415.1021,98.4483 414.8981,98.5023 414.7751,98.6383 C414.6391,98.7883 414.5711,99.0193 414.5711,99.3723 L414.5711,99.7123 L416.0671,99.7123 Z M415.9851,102.0783 C416.4201,102.0783 417.0871,101.9833 417.4261,101.9013 C417.4941,101.8873 417.5901,101.8603 417.6851,101.8603 C417.8071,101.8603 417.9021,101.9553 417.9301,102.0913 L418.0381,102.7713 C418.0661,102.9073 418.0931,103.0433 418.0931,103.1383 C418.0931,103.3153 418.0251,103.4103 417.7391,103.5053 C417.1951,103.6953 416.3521,103.8313 415.6861,103.8313 L415.4281,103.8313 C414.3541,103.8313 413.5251,103.6003 413.0621,103.1383 C412.5191,102.5943 412.3831,101.9013 412.3831,100.8003 L412.3831,100.0383 C412.3831,98.6793 412.7361,97.9453 413.1981,97.5373 C413.6471,97.1423 414.3541,96.9253 415.3331,96.9253 L415.5231,96.9253 C416.5021,96.9253 417.2091,97.1973 417.5761,97.6053 C418.0521,98.1353 418.2291,98.8693 418.2291,100.0383 L418.2291,100.7453 C418.2291,101.0313 418.1061,101.1263 417.8341,101.1263 L414.5711,101.1263 L414.5711,101.2353 C414.5711,101.8743 414.8841,102.0783 415.8361,102.0783 L415.9851,102.0783 Z" id="Fill-83"></path>
            </g>
            <g id="Group-94">
                <path d="M948.8941,173.6459 L898.9121,166.4699 L895.3161,261.9449 L924.1511,270.6209 L948.8941,173.6459 Z" id="Fill-85" fill="#FFFFFF" sketch:type="MSShapeGroup"></path>
                <path d="M892.3066,145.8447 L894.6216,173.3787 L951.8666,176.4947 L956.2096,144.4177 L892.3066,145.8447 Z" id="Fill-87" fill="#FFFFFF" sketch:type="MSShapeGroup"></path>
                <path d="M892.3066,145.8447 L894.6216,173.3787 L951.8666,176.4947 L956.2096,144.4177 L892.3066,145.8447 L892.3066,145.8447 Z" id="Stroke-88" stroke="#E5B44D" sketch:type="MSShapeGroup"></path>
                <path d="M916.5677,241.3979 L920.1007,229.5569 L919.7217,229.0829 L907.4687,229.0539 L909.4047,233.1109 L903.6887,236.5939 L908.2767,242.3349 L912.8207,238.2599 L916.5677,241.3979 Z" id="Fill-89" fill="#F0AB2B" sketch:type="MSShapeGroup"></path>
                <text id="EXIT" sketch:type="MSTextLayer" font-family="Luckiest Guy" font-size="22.8757" font-weight="normal" fill="#292D2C">
                    <tspan x="902.5498" y="166.2952">EXIT</tspan>
                </text>
                <path d="M71.5783,173.6459 L121.5603,166.4699 L125.1563,261.9449 L96.3213,270.6209 L71.5783,173.6459 Z" id="Fill-90" fill="#FFFFFF" sketch:type="MSShapeGroup"></path>
                <path d="M128.1658,145.8447 L125.8508,173.3787 L68.6058,176.4947 L64.2628,144.4177 L128.1658,145.8447 Z" id="Fill-91" fill="#FFFFFF" sketch:type="MSShapeGroup"></path>
                <path d="M128.1658,145.8447 L125.8508,173.3787 L68.6058,176.4947 L64.2628,144.4177 L128.1658,145.8447 L128.1658,145.8447 Z" id="Stroke-92" stroke="#E5B44D" sketch:type="MSShapeGroup"></path>
                <text id="EXIT" sketch:type="MSTextLayer" font-family="Luckiest Guy" font-size="22.8757" font-weight="normal" fill="#292D2C">
                    <tspan x="74.3936" y="166.2952">EXIT</tspan>
                </text>
                <path d="M105.6502,242.331 L100.8262,230.955 L101.1492,230.442 L113.3242,229.054 L111.8492,233.3 L117.9172,236.128 L113.9942,242.343 L109.0262,238.797 L105.6502,242.331 Z" id="Fill-93" fill="#F0AB2B" sketch:type="MSShapeGroup"></path>
            </g>
            <g id="Group-219" sketch:type="MSShapeGroup">
                <path d="M571.16,402.52 L528.619,402.52 C524.821,402.52 521.742,399.441 521.742,395.643 L521.742,395.643 C521.742,391.845 524.821,388.766 528.619,388.766 L571.16,388.766 C574.958,388.766 578.037,391.845 578.037,395.643 L578.037,395.643 C578.037,399.441 574.958,402.52 571.16,402.52" id="Fill-95" fill="#292D2C"></path>
                <path d="M632.8488,402.52 L590.3078,402.52 C586.5098,402.52 583.4308,399.441 583.4308,395.643 L583.4308,395.643 C583.4308,391.845 586.5098,388.766 590.3078,388.766 L632.8488,388.766 C636.6468,388.766 639.7258,391.845 639.7258,395.643 L639.7258,395.643 C639.7258,399.441 636.6468,402.52 632.8488,402.52" id="Fill-97" fill="#292D2C"></path>
                <path d="M785.4436,402.52 L743.3456,402.52 C739.5476,402.52 736.4686,399.441 736.4686,395.643 L736.4686,395.643 C736.4686,391.845 739.5476,388.766 743.3456,388.766 L785.4436,388.766 C789.2416,388.766 792.3206,391.845 792.3206,395.643 L792.3206,395.643 C792.3206,399.441 789.2416,402.52 785.4436,402.52" id="Fill-98" fill="#292D2C"></path>
                <path d="M567.6315,378.779 L527.9775,378.779 C524.5335,378.779 521.7415,375.987 521.7415,372.544 L521.7415,372.544 C521.7415,369.1 524.5335,366.308 527.9775,366.308 L567.6315,366.308 C571.0755,366.308 573.8665,369.1 573.8665,372.544 L573.8665,372.544 C573.8665,375.987 571.0755,378.779 567.6315,378.779" id="Fill-99" fill="#292D2C"></path>
                <path d="M625.5127,378.779 L585.8587,378.779 C582.4147,378.779 579.6227,375.987 579.6227,372.544 L579.6227,372.544 C579.6227,369.1 582.4147,366.308 585.8587,366.308 L625.5127,366.308 C628.9567,366.308 631.7477,369.1 631.7477,372.544 L631.7477,372.544 C631.7477,375.987 628.9567,378.779 625.5127,378.779" id="Fill-100" fill="#292D2C"></path>
                <path d="M767.725,378.779 L729.554,378.779 C726.111,378.779 723.319,375.987 723.319,372.544 L723.319,372.544 C723.319,369.1 726.111,366.308 729.554,366.308 L767.725,366.308 C771.169,366.308 773.96,369.1 773.96,372.544 L773.96,372.544 C773.96,375.987 771.169,378.779 767.725,378.779" id="Fill-101" fill="#292D2C"></path>
                <path d="M564.0729,356.6134 L527.3659,356.6134 C524.2599,356.6134 521.7419,354.0954 521.7419,350.9894 L521.7419,350.9894 C521.7419,347.8834 524.2599,345.3654 527.3659,345.3654 L564.0729,345.3654 C567.1789,345.3654 569.6969,347.8834 569.6969,350.9894 L569.6969,350.9894 C569.6969,354.0954 567.1789,356.6134 564.0729,356.6134" id="Fill-102" fill="#292D2C"></path>
                <path d="M618.4232,356.6134 L581.7162,356.6134 C578.6102,356.6134 576.0922,354.0954 576.0922,350.9894 L576.0922,350.9894 C576.0922,347.8834 578.6102,345.3654 581.7162,345.3654 L618.4232,345.3654 C621.5292,345.3654 624.0472,347.8834 624.0472,350.9894 L624.0472,350.9894 C624.0472,354.0954 621.5292,356.6134 618.4232,356.6134" id="Fill-103" fill="#292D2C"></path>
                <path d="M750.8383,356.6134 L716.4103,356.6134 C713.3043,356.6134 710.7863,354.0954 710.7863,350.9894 L710.7863,350.9894 C710.7863,347.8834 713.3043,345.3654 716.4103,345.3654 L750.8383,345.3654 C753.9443,345.3654 756.4623,347.8834 756.4623,350.9894 L756.4623,350.9894 C756.4623,354.0954 753.9443,356.6134 750.8383,356.6134" id="Fill-104" fill="#292D2C"></path>
                <path d="M556.6413,319.3161 L526.4573,319.3161 C523.8533,319.3161 521.7423,317.2051 521.7423,314.6001 C521.7423,311.9961 523.8533,309.8851 526.4573,309.8851 L556.6413,309.8851 C559.2453,309.8851 561.3573,311.9961 561.3573,314.6001 C561.3573,317.2051 559.2453,319.3161 556.6413,319.3161" id="Fill-105" fill="#292D2C"></path>
                <path d="M606.8181,319.3161 L576.6341,319.3161 C574.0301,319.3161 571.9191,317.2051 571.9191,314.6001 C571.9191,311.9961 574.0301,309.8851 576.6341,309.8851 L606.8181,309.8851 C609.4221,309.8851 611.5341,311.9961 611.5341,314.6001 C611.5341,317.2051 609.4221,319.3161 606.8181,319.3161" id="Fill-106" fill="#292D2C"></path>
                <path d="M725.7501,319.3161 L696.8831,319.3161 C694.2781,319.3161 692.1671,317.2051 692.1671,314.6001 C692.1671,311.9961 694.2781,309.8851 696.8831,309.8851 L725.7501,309.8851 C728.3541,309.8851 730.4661,311.9961 730.4661,314.6001 C730.4661,317.2051 728.3541,319.3161 725.7501,319.3161" id="Fill-107" fill="#292D2C"></path>
                <path d="M560.4574,336.5125 L526.8114,336.5125 C524.0114,336.5125 521.7414,334.2425 521.7414,331.4435 L521.7414,331.4435 C521.7414,328.6435 524.0114,326.3735 526.8114,326.3735 L560.4574,326.3735 C563.2574,326.3735 565.5264,328.6435 565.5264,331.4435 L565.5264,331.4435 C565.5264,334.2425 563.2574,336.5125 560.4574,336.5125" id="Fill-108" fill="#292D2C"></path>
                <path d="M611.7997,336.5125 L578.1537,336.5125 C575.3537,336.5125 573.0837,334.2425 573.0837,331.4435 L573.0837,331.4435 C573.0837,328.6435 575.3537,326.3735 578.1537,326.3735 L611.7997,326.3735 C614.5997,326.3735 616.8687,328.6435 616.8687,331.4435 L616.8687,331.4435 C616.8687,334.2425 614.5997,336.5125 611.7997,336.5125" id="Fill-109" fill="#292D2C"></path>
                <path d="M735.5245,336.5125 L704.4905,336.5125 C701.6905,336.5125 699.4215,334.2425 699.4215,331.4435 L699.4215,331.4435 C699.4215,328.6435 701.6905,326.3735 704.4905,326.3735 L735.5245,326.3735 C738.3245,326.3735 740.5935,328.6435 740.5935,331.4435 L740.5935,331.4435 C740.5935,334.2425 738.3245,336.5125 735.5245,336.5125" id="Fill-110" fill="#292D2C"></path>
                <path d="M597.4631,290.9896 L571.8191,290.9896 C569.6881,290.9896 567.9611,289.2626 567.9611,287.1316 C567.9611,285.0006 569.6881,283.2736 571.8191,283.2736 L597.4631,283.2736 C599.5941,283.2736 601.3211,285.0006 601.3211,287.1316 C601.3211,289.2626 599.5941,290.9896 597.4631,290.9896" id="Fill-111" fill="#292D2C"></path>
                <path d="M551.357,290.9896 L525.713,290.9896 C523.582,290.9896 521.855,289.2626 521.855,287.1316 C521.855,285.0006 523.582,283.2736 525.713,283.2736 L551.357,283.2736 C553.488,283.2736 555.215,285.0006 555.215,287.1316 C555.215,289.2626 553.488,290.9896 551.357,290.9896" id="Fill-112" fill="#292D2C"></path>
                <path d="M702.0646,290.9896 L678.4466,290.9896 C676.3166,290.9896 674.5886,289.2626 674.5886,287.1316 C674.5886,285.0006 676.3166,283.2736 678.4466,283.2736 L702.0646,283.2736 C704.1956,283.2736 705.9226,285.0006 705.9226,287.1316 C705.9226,289.2626 704.1956,290.9896 702.0646,290.9896" id="Fill-113" fill="#292D2C"></path>
                <path d="M554.9808,304.3507 L526.0328,304.3507 C523.6628,304.3507 521.7418,302.4297 521.7418,300.0597 L521.7418,300.0597 C521.7418,297.6897 523.6628,295.7687 526.0328,295.7687 L554.9808,295.7687 C557.3508,295.7687 559.2718,297.6897 559.2718,300.0597 L559.2718,300.0597 C559.2718,302.4297 557.3508,304.3507 554.9808,304.3507" id="Fill-114" fill="#292D2C"></path>
                <path d="M602.3006,304.3507 L573.3526,304.3507 C570.9826,304.3507 569.0616,302.4297 569.0616,300.0597 L569.0616,300.0597 C569.0616,297.6897 570.9826,295.7687 573.3526,295.7687 L602.3006,295.7687 C604.6706,295.7687 606.5916,297.6897 606.5916,300.0597 L606.5916,300.0597 C606.5916,302.4297 604.6706,304.3507 602.3006,304.3507" id="Fill-115" fill="#292D2C"></path>
                <path d="M713.2891,304.3507 L687.0211,304.3507 C684.6511,304.3507 682.7291,302.4297 682.7291,300.0597 L682.7291,300.0597 C682.7291,297.6897 684.6511,295.7687 687.0211,295.7687 L713.2891,295.7687 C715.6591,295.7687 717.5801,297.6897 717.5801,300.0597 L717.5801,300.0597 C717.5801,302.4297 715.6591,304.3507 713.2891,304.3507" id="Fill-116" fill="#292D2C"></path>
                <path d="M593.424,279.1606 L571.127,279.1606 C569.223,279.1606 567.68,277.6176 567.68,275.7146 L567.68,275.7146 C567.68,273.8106 569.223,272.2676 571.127,272.2676 L593.424,272.2676 C595.327,272.2676 596.87,273.8106 596.87,275.7146 L596.87,275.7146 C596.87,277.6176 595.327,279.1606 593.424,279.1606" id="Fill-117" fill="#292D2C"></path>
                <path d="M694.5375,402.52 L651.9965,402.52 C648.1985,402.52 645.1195,399.441 645.1195,395.643 L645.1195,395.643 C645.1195,391.845 648.1985,388.766 651.9965,388.766 L694.5375,388.766 C698.3355,388.766 701.4145,391.845 701.4145,395.643 L701.4145,395.643 C701.4145,399.441 698.3355,402.52 694.5375,402.52" id="Fill-118" fill="#292D2C"></path>
                <path d="M683.3938,378.779 L643.7398,378.779 C640.2958,378.779 637.5038,375.987 637.5038,372.544 L637.5038,372.544 C637.5038,369.1 640.2958,366.308 643.7398,366.308 L683.3938,366.308 C686.8378,366.308 689.6288,369.1 689.6288,372.544 L689.6288,372.544 C689.6288,375.987 686.8378,378.779 683.3938,378.779" id="Fill-119" fill="#292D2C"></path>
                <path d="M672.7734,356.6134 L636.0664,356.6134 C632.9604,356.6134 630.4424,354.0954 630.4424,350.9894 L630.4424,350.9894 C630.4424,347.8834 632.9604,345.3654 636.0664,345.3654 L672.7734,345.3654 C675.8794,345.3654 678.3974,347.8834 678.3974,350.9894 L678.3974,350.9894 C678.3974,354.0954 675.8794,356.6134 672.7734,356.6134" id="Fill-120" fill="#292D2C"></path>
                <path d="M656.9948,319.3161 L626.8108,319.3161 C624.2068,319.3161 622.0958,317.2051 622.0958,314.6001 C622.0958,311.9961 624.2068,309.8851 626.8108,309.8851 L656.9948,309.8851 C659.5988,309.8851 661.7108,311.9961 661.7108,314.6001 C661.7108,317.2051 659.5988,319.3161 656.9948,319.3161" id="Fill-121" fill="#292D2C"></path>
                <path d="M663.1422,336.5125 L629.4962,336.5125 C626.6962,336.5125 624.4262,334.2425 624.4262,331.4435 L624.4262,331.4435 C624.4262,328.6435 626.6962,326.3735 629.4962,326.3735 L663.1422,326.3735 C665.9422,326.3735 668.2112,328.6435 668.2112,331.4435 L668.2112,331.4435 C668.2112,334.2425 665.9422,336.5125 663.1422,336.5125" id="Fill-122" fill="#292D2C"></path>
                <path d="M641.9142,290.9896 L616.2702,290.9896 C614.1392,290.9896 612.4122,289.2626 612.4122,287.1316 C612.4122,285.0006 614.1392,283.2736 616.2702,283.2736 L641.9142,283.2736 C644.0452,283.2736 645.7722,285.0006 645.7722,287.1316 C645.7722,289.2626 644.0452,290.9896 641.9142,290.9896" id="Fill-123" fill="#292D2C"></path>
                <path d="M649.6204,304.3507 L620.6724,304.3507 C618.3024,304.3507 616.3814,302.4297 616.3814,300.0597 L616.3814,300.0597 C616.3814,297.6897 618.3024,295.7687 620.6724,295.7687 L649.6204,295.7687 C651.9904,295.7687 653.9114,297.6897 653.9114,300.0597 L653.9114,300.0597 C653.9114,302.4297 651.9904,304.3507 649.6204,304.3507" id="Fill-124" fill="#292D2C"></path>
                <path d="M634.5875,279.1606 L612.2905,279.1606 C610.3865,279.1606 608.8435,277.6176 608.8435,275.7146 L608.8435,275.7146 C608.8435,273.8106 610.3865,272.2676 612.2905,272.2676 L634.5875,272.2676 C636.4905,272.2676 638.0335,273.8106 638.0335,275.7146 L638.0335,275.7146 C638.0335,277.6176 636.4905,279.1606 634.5875,279.1606" id="Fill-125" fill="#292D2C"></path>
                <path d="M690.6935,279.1606 L669.5965,279.1606 C667.6925,279.1606 666.1495,277.6176 666.1495,275.7146 L666.1495,275.7146 C666.1495,273.8106 667.6925,272.2676 669.5965,272.2676 L690.6935,272.2676 C692.5965,272.2676 694.1395,273.8106 694.1395,275.7146 L694.1395,275.7146 C694.1395,277.6176 692.5965,279.1606 690.6935,279.1606" id="Fill-126" fill="#292D2C"></path>
                <path d="M716.2353,290.9896 L737.0973,290.9896 C739.2283,290.9896 740.9553,289.2626 740.9553,287.1316 C740.9553,285.0006 739.2283,283.2736 737.0973,283.2736 L716.2353,283.2736 C714.1043,283.2736 712.3773,285.0006 712.3773,287.1316 C712.3773,289.2626 714.1043,290.9896 716.2353,290.9896" id="Fill-127" fill="#292D2C"></path>
                <path d="M807.5244,402.52 L844.7114,402.52 C848.5094,402.52 851.5884,399.441 851.5884,395.643 L851.5884,395.643 C851.5884,391.845 848.5094,388.766 844.7114,388.766 L807.5244,388.766 C803.7264,388.766 800.6474,391.845 800.6474,395.643 L800.6474,395.643 C800.6474,399.441 803.7264,402.52 807.5244,402.52" id="Fill-128" fill="#292D2C"></path>
                <path d="M940.3124,371.8262 L975.6794,360.3352 C979.2914,359.1612 981.2684,355.2812 980.0944,351.6692 L980.0944,351.6692 C978.9204,348.0572 975.0414,346.0812 971.4294,347.2542 L936.0624,358.7452 C932.4504,359.9192 930.4734,363.7992 931.6474,367.4112 L931.6474,367.4112 C932.8204,371.0232 936.7004,373.0002 940.3124,371.8262" id="Fill-129" fill="#292D2C"></path>
                <path d="M787.494,378.779 L821.212,378.779 C824.655,378.779 827.447,375.987 827.447,372.544 L827.447,372.544 C827.447,369.1 824.655,366.308 821.212,366.308 L787.494,366.308 C784.05,366.308 781.259,369.1 781.259,372.544 L781.259,372.544 C781.259,375.987 784.05,378.779 787.494,378.779" id="Fill-130" fill="#292D2C"></path>
                <path d="M770.2004,356.6134 L800.6124,356.6134 C803.7184,356.6134 806.2364,354.0954 806.2364,350.9894 L806.2364,350.9894 C806.2364,347.8834 803.7184,345.3654 800.6124,345.3654 L770.2004,345.3654 C767.0944,345.3654 764.5764,347.8834 764.5764,350.9894 L764.5764,350.9894 C764.5764,354.0954 767.0944,356.6134 770.2004,356.6134" id="Fill-131" fill="#292D2C"></path>
                <path d="M742.5497,319.3161 L768.0497,319.3161 C770.6537,319.3161 772.7647,317.2051 772.7647,314.6001 L772.7647,314.6001 C772.7647,311.9961 770.6537,309.8851 768.0497,309.8851 L742.5497,309.8851 C739.9457,309.8851 737.8337,311.9961 737.8337,314.6001 L737.8337,314.6001 C737.8337,317.2051 739.9457,319.3161 742.5497,319.3161" id="Fill-132" fill="#292D2C"></path>
                <path d="M753.3362,336.5125 L780.7492,336.5125 C783.5492,336.5125 785.8192,334.2425 785.8192,331.4435 L785.8192,331.4435 C785.8192,328.6435 783.5492,326.3735 780.7492,326.3735 L753.3362,326.3735 C750.5362,326.3735 748.2672,328.6435 748.2672,331.4435 L748.2672,331.4435 C748.2672,334.2425 750.5362,336.5125 753.3362,336.5125" id="Fill-133" fill="#292D2C"></path>
                <path d="M729.9,304.3507 L753.104,304.3507 C755.474,304.3507 757.395,302.4297 757.395,300.0597 C757.395,297.6897 755.474,295.7687 753.104,295.7687 L729.9,295.7687 C727.53,295.7687 725.609,297.6897 725.609,300.0597 C725.609,302.4297 727.53,304.3507 729.9,304.3507" id="Fill-134" fill="#292D2C"></path>
                <path d="M704.369,279.1606 L723.005,279.1606 C724.908,279.1606 726.451,277.6176 726.451,275.7146 L726.451,275.7146 C726.451,273.8106 724.908,272.2676 723.005,272.2676 L704.369,272.2676 C702.466,272.2676 700.923,273.8106 700.923,275.7146 L700.923,275.7146 C700.923,277.6176 702.466,279.1606 704.369,279.1606" id="Fill-135" fill="#292D2C"></path>
                <path d="M859.7087,372.5912 L891.7767,362.1722 C895.0517,361.1072 896.8437,357.5902 895.7797,354.3152 L895.7797,354.3152 C894.7157,351.0402 891.1977,349.2472 887.9227,350.3112 L855.8547,360.7312 C852.5797,361.7952 850.7877,365.3132 851.8517,368.5882 L851.8517,368.5882 C852.9157,371.8632 856.4337,373.6552 859.7087,372.5912" id="Fill-136" fill="#292D2C"></path>
                <path d="M915.8017,351.1093 L947.8697,340.6903 C951.1447,339.6253 952.9367,336.1083 951.8727,332.8333 L951.8727,332.8333 C950.8087,329.5583 947.2907,327.7653 944.0157,328.8293 L911.9477,339.2493 C908.6727,340.3133 906.8807,343.8313 907.9447,347.1063 L907.9447,347.1063 C909.0087,350.3813 912.5267,352.1733 915.8017,351.1093" id="Fill-137" fill="#292D2C"></path>
                <path d="M837.8503,350.1689 L866.7733,340.7709 C869.7273,339.8119 871.3443,336.6389 870.3843,333.6849 L870.3843,333.6849 C869.4243,330.7309 866.2513,329.1139 863.2973,330.0739 L834.3743,339.4719 C831.4203,340.4309 829.8043,343.6039 830.7633,346.5579 L830.7633,346.5579 C831.7233,349.5119 834.8963,351.1289 837.8503,350.1689" id="Fill-138" fill="#292D2C"></path>
                <path d="M887.5927,333.3797 L916.5157,323.9817 C919.4697,323.0227 921.0867,319.8497 920.1267,316.8957 L920.1267,316.8957 C919.1667,313.9417 915.9937,312.3247 913.0397,313.2847 L884.1167,322.6827 C881.1627,323.6417 879.5467,326.8147 880.5057,329.7687 L880.5057,329.7687 C881.4657,332.7227 884.6387,334.3397 887.5927,333.3797" id="Fill-139" fill="#292D2C"></path>
                <path d="M802.4105,314.9746 L826.6625,307.0946 C829.1395,306.2896 830.4945,303.6296 829.6895,301.1526 L829.6895,301.1526 C828.8845,298.6756 826.2245,297.3206 823.7475,298.1256 L799.4965,306.0046 C797.0195,306.8096 795.6635,309.4706 796.4685,311.9466 C797.2735,314.4236 799.9335,315.7796 802.4105,314.9746" id="Fill-140" fill="#292D2C"></path>
                <path d="M843.9999,300.2295 L868.2519,292.3495 C870.7289,291.5445 872.0839,288.8845 871.2789,286.4075 L871.2789,286.4075 C870.4739,283.9305 867.8139,282.5755 865.3369,283.3805 L841.0859,291.2595 C838.6089,292.0645 837.2529,294.7255 838.0579,297.2015 L838.0579,297.2015 C838.8629,299.6785 841.5229,301.0345 843.9999,300.2295" id="Fill-141" fill="#292D2C"></path>
                <path d="M820.1711,331.3404 L846.2431,322.8694 C848.9051,322.0044 850.3631,319.1444 849.4971,316.4814 L849.4971,316.4814 C848.6321,313.8184 845.7721,312.3614 843.1101,313.2264 L817.0381,321.6974 C814.3751,322.5624 812.9181,325.4224 813.7831,328.0854 L813.7831,328.0854 C814.6481,330.7484 817.5081,332.2054 820.1711,331.3404" id="Fill-142" fill="#292D2C"></path>
                <path d="M865.4613,315.3786 L891.5333,306.9076 C894.1953,306.0426 895.6533,303.1826 894.7873,300.5196 L894.7873,300.5196 C893.9223,297.8566 891.0623,296.3996 888.4003,297.2646 L862.3283,305.7356 C859.6653,306.6006 858.2083,309.4606 859.0733,312.1236 L859.0733,312.1236 C859.9383,314.7866 862.7983,316.2436 865.4613,315.3786" id="Fill-143" fill="#292D2C"></path>
                <path d="M774.7632,288.9932 L794.6042,282.5462 C796.6312,281.8882 797.7402,279.7112 797.0812,277.6852 C796.4232,275.6582 794.2462,274.5492 792.2202,275.2082 L772.3792,281.6552 C770.3522,282.3132 769.2432,284.4902 769.9022,286.5162 C770.5602,288.5422 772.7372,289.6512 774.7632,288.9932" id="Fill-144" fill="#292D2C"></path>
                <path d="M809.3395,278.2012 L829.1805,271.7542 C831.2075,271.0962 832.3165,268.9192 831.6575,266.8932 L831.6575,266.8932 C830.9995,264.8662 828.8225,263.7572 826.7965,264.4162 L806.9555,270.8632 C804.9285,271.5212 803.8195,273.6982 804.4785,275.7242 L804.4785,275.7242 C805.1365,277.7502 807.3135,278.8592 809.3395,278.2012" id="Fill-145" fill="#292D2C"></path>
                <path d="M785.6605,301.3289 L807.7285,294.1589 C809.9825,293.4259 811.2165,291.0049 810.4835,288.7519 L810.4835,288.7519 C809.7515,286.4979 807.3305,285.2639 805.0765,285.9969 L783.0085,293.1669 C780.7545,293.8989 779.5215,296.3199 780.2535,298.5739 L780.2535,298.5739 C780.9855,300.8279 783.4065,302.0609 785.6605,301.3289" id="Fill-146" fill="#292D2C"></path>
                <path d="M824.5237,288.6002 L846.5917,281.4302 C848.8457,280.6972 850.0797,278.2762 849.3467,276.0232 L849.3467,276.0232 C848.6147,273.7692 846.1937,272.5352 843.9397,273.2682 L821.8717,280.4382 C819.6177,281.1702 818.3847,283.5912 819.1167,285.8452 L819.1167,285.8452 C819.8487,288.0992 822.2697,289.3322 824.5237,288.6002" id="Fill-147" fill="#292D2C"></path>
                <path d="M798.0621,268.9916 L815.7861,263.2326 C817.5961,262.6446 818.5871,260.7006 817.9991,258.8896 C817.4111,257.0796 815.4661,256.0896 813.6561,256.6776 L795.9321,262.4366 C794.1221,263.0246 793.1311,264.9686 793.7191,266.7786 C794.3081,268.5896 796.2521,269.5796 798.0621,268.9916" id="Fill-148" fill="#292D2C"></path>
                <path d="M444.6166,402.52 L487.1576,402.52 C490.9556,402.52 494.0346,399.441 494.0346,395.643 L494.0346,395.643 C494.0346,391.845 490.9556,388.766 487.1576,388.766 L444.6166,388.766 C440.8186,388.766 437.7396,391.845 437.7396,395.643 L437.7396,395.643 C437.7396,399.441 440.8186,402.52 444.6166,402.52" id="Fill-149" fill="#292D2C"></path>
                <path d="M382.9279,402.52 L425.4689,402.52 C429.2669,402.52 432.3459,399.441 432.3459,395.643 L432.3459,395.643 C432.3459,391.845 429.2669,388.766 425.4689,388.766 L382.9279,388.766 C379.1299,388.766 376.0509,391.845 376.0509,395.643 L376.0509,395.643 C376.0509,399.441 379.1299,402.52 382.9279,402.52" id="Fill-150" fill="#292D2C"></path>
                <path d="M230.3331,402.52 L272.4311,402.52 C276.2291,402.52 279.3081,399.441 279.3081,395.643 L279.3081,395.643 C279.3081,391.845 276.2291,388.766 272.4311,388.766 L230.3331,388.766 C226.5351,388.766 223.4561,391.845 223.4561,395.643 L223.4561,395.643 C223.4561,399.441 226.5351,402.52 230.3331,402.52" id="Fill-151" fill="#292D2C"></path>
                <path d="M448.1451,378.779 L487.7991,378.779 C491.2431,378.779 494.0351,375.987 494.0351,372.544 L494.0351,372.544 C494.0351,369.1 491.2431,366.308 487.7991,366.308 L448.1451,366.308 C444.7011,366.308 441.9101,369.1 441.9101,372.544 L441.9101,372.544 C441.9101,375.987 444.7011,378.779 448.1451,378.779" id="Fill-152" fill="#292D2C"></path>
                <path d="M390.264,378.779 L429.918,378.779 C433.362,378.779 436.154,375.987 436.154,372.544 L436.154,372.544 C436.154,369.1 433.362,366.308 429.918,366.308 L390.264,366.308 C386.82,366.308 384.029,369.1 384.029,372.544 L384.029,372.544 C384.029,375.987 386.82,378.779 390.264,378.779" id="Fill-153" fill="#292D2C"></path>
                <path d="M248.0517,378.779 L286.2227,378.779 C289.6657,378.779 292.4577,375.987 292.4577,372.544 L292.4577,372.544 C292.4577,369.1 289.6657,366.308 286.2227,366.308 L248.0517,366.308 C244.6077,366.308 241.8167,369.1 241.8167,372.544 L241.8167,372.544 C241.8167,375.987 244.6077,378.779 248.0517,378.779" id="Fill-154" fill="#292D2C"></path>
                <path d="M451.7037,356.6134 L488.4107,356.6134 C491.5167,356.6134 494.0347,354.0954 494.0347,350.9894 L494.0347,350.9894 C494.0347,347.8834 491.5167,345.3654 488.4107,345.3654 L451.7037,345.3654 C448.5977,345.3654 446.0797,347.8834 446.0797,350.9894 L446.0797,350.9894 C446.0797,354.0954 448.5977,356.6134 451.7037,356.6134" id="Fill-155" fill="#292D2C"></path>
                <path d="M397.3535,356.6134 L434.0605,356.6134 C437.1665,356.6134 439.6845,354.0954 439.6845,350.9894 L439.6845,350.9894 C439.6845,347.8834 437.1665,345.3654 434.0605,345.3654 L397.3535,345.3654 C394.2475,345.3654 391.7295,347.8834 391.7295,350.9894 L391.7295,350.9894 C391.7295,354.0954 394.2475,356.6134 397.3535,356.6134" id="Fill-156" fill="#292D2C"></path>
                <path d="M264.9384,356.6134 L299.3664,356.6134 C302.4724,356.6134 304.9904,354.0954 304.9904,350.9894 L304.9904,350.9894 C304.9904,347.8834 302.4724,345.3654 299.3664,345.3654 L264.9384,345.3654 C261.8324,345.3654 259.3144,347.8834 259.3144,350.9894 L259.3144,350.9894 C259.3144,354.0954 261.8324,356.6134 264.9384,356.6134" id="Fill-157" fill="#292D2C"></path>
                <path d="M459.1354,319.3161 L489.3194,319.3161 C491.9234,319.3161 494.0344,317.2051 494.0344,314.6001 C494.0344,311.9961 491.9234,309.8851 489.3194,309.8851 L459.1354,309.8851 C456.5314,309.8851 454.4194,311.9961 454.4194,314.6001 C454.4194,317.2051 456.5314,319.3161 459.1354,319.3161" id="Fill-158" fill="#292D2C"></path>
                <path d="M408.9586,319.3161 L439.1426,319.3161 C441.7466,319.3161 443.8576,317.2051 443.8576,314.6001 C443.8576,311.9961 441.7466,309.8851 439.1426,309.8851 L408.9586,309.8851 C406.3546,309.8851 404.2426,311.9961 404.2426,314.6001 C404.2426,317.2051 406.3546,319.3161 408.9586,319.3161" id="Fill-159" fill="#292D2C"></path>
                <path d="M290.0266,319.3161 L318.8936,319.3161 C321.4986,319.3161 323.6096,317.2051 323.6096,314.6001 C323.6096,311.9961 321.4986,309.8851 318.8936,309.8851 L290.0266,309.8851 C287.4226,309.8851 285.3106,311.9961 285.3106,314.6001 C285.3106,317.2051 287.4226,319.3161 290.0266,319.3161" id="Fill-160" fill="#292D2C"></path>
                <path d="M455.3193,336.5125 L488.9653,336.5125 C491.7653,336.5125 494.0353,334.2425 494.0353,331.4435 L494.0353,331.4435 C494.0353,328.6435 491.7653,326.3735 488.9653,326.3735 L455.3193,326.3735 C452.5193,326.3735 450.2503,328.6435 450.2503,331.4435 L450.2503,331.4435 C450.2503,334.2425 452.5193,336.5125 455.3193,336.5125" id="Fill-161" fill="#292D2C"></path>
                <path d="M403.9769,336.5125 L437.6229,336.5125 C440.4229,336.5125 442.6929,334.2425 442.6929,331.4435 L442.6929,331.4435 C442.6929,328.6435 440.4229,326.3735 437.6229,326.3735 L403.9769,326.3735 C401.1769,326.3735 398.9079,328.6435 398.9079,331.4435 L398.9079,331.4435 C398.9079,334.2425 401.1769,336.5125 403.9769,336.5125" id="Fill-162" fill="#292D2C"></path>
                <path d="M280.2522,336.5125 L311.2862,336.5125 C314.0862,336.5125 316.3552,334.2425 316.3552,331.4435 L316.3552,331.4435 C316.3552,328.6435 314.0862,326.3735 311.2862,326.3735 L280.2522,326.3735 C277.4522,326.3735 275.1832,328.6435 275.1832,331.4435 L275.1832,331.4435 C275.1832,334.2425 277.4522,336.5125 280.2522,336.5125" id="Fill-163" fill="#292D2C"></path>
                <path d="M418.3135,290.9896 L443.9575,290.9896 C446.0885,290.9896 447.8155,289.2626 447.8155,287.1316 C447.8155,285.0006 446.0885,283.2736 443.9575,283.2736 L418.3135,283.2736 C416.1825,283.2736 414.4555,285.0006 414.4555,287.1316 C414.4555,289.2626 416.1825,290.9896 418.3135,290.9896" id="Fill-164" fill="#292D2C"></path>
                <path d="M463.6638,290.9896 L489.3078,290.9896 C491.4388,290.9896 493.1658,289.2626 493.1658,287.1316 C493.1658,285.0006 491.4388,283.2736 489.3078,283.2736 L463.6638,283.2736 C461.5328,283.2736 459.8058,285.0006 459.8058,287.1316 C459.8058,289.2626 461.5328,290.9896 463.6638,290.9896" id="Fill-165" fill="#292D2C"></path>
                <path d="M313.7121,290.9896 L337.3301,290.9896 C339.4601,290.9896 341.1881,289.2626 341.1881,287.1316 C341.1881,285.0006 339.4601,283.2736 337.3301,283.2736 L313.7121,283.2736 C311.5811,283.2736 309.8541,285.0006 309.8541,287.1316 C309.8541,289.2626 311.5811,290.9896 313.7121,290.9896" id="Fill-166" fill="#292D2C"></path>
                <path d="M460.7959,304.3507 L489.7439,304.3507 C492.1139,304.3507 494.0349,302.4297 494.0349,300.0597 L494.0349,300.0597 C494.0349,297.6897 492.1139,295.7687 489.7439,295.7687 L460.7959,295.7687 C458.4259,295.7687 456.5049,297.6897 456.5049,300.0597 L456.5049,300.0597 C456.5049,302.4297 458.4259,304.3507 460.7959,304.3507" id="Fill-167" fill="#292D2C"></path>
                <path d="M413.4761,304.3507 L442.4241,304.3507 C444.7941,304.3507 446.7151,302.4297 446.7151,300.0597 L446.7151,300.0597 C446.7151,297.6897 444.7941,295.7687 442.4241,295.7687 L413.4761,295.7687 C411.1061,295.7687 409.1851,297.6897 409.1851,300.0597 L409.1851,300.0597 C409.1851,302.4297 411.1061,304.3507 413.4761,304.3507" id="Fill-168" fill="#292D2C"></path>
                <path d="M302.4875,304.3507 L328.7555,304.3507 C331.1255,304.3507 333.0475,302.4297 333.0475,300.0597 L333.0475,300.0597 C333.0475,297.6897 331.1255,295.7687 328.7555,295.7687 L302.4875,295.7687 C300.1175,295.7687 298.1965,297.6897 298.1965,300.0597 L298.1965,300.0597 C298.1965,302.4297 300.1175,304.3507 302.4875,304.3507" id="Fill-169" fill="#292D2C"></path>
                <path d="M422.3528,279.1606 L444.6498,279.1606 C446.5538,279.1606 448.0968,277.6176 448.0968,275.7146 L448.0968,275.7146 C448.0968,273.8106 446.5538,272.2676 444.6498,272.2676 L422.3528,272.2676 C420.4498,272.2676 418.9068,273.8106 418.9068,275.7146 L418.9068,275.7146 C418.9068,277.6176 420.4498,279.1606 422.3528,279.1606" id="Fill-170" fill="#292D2C"></path>
                <path d="M321.2392,402.52 L363.7802,402.52 C367.5782,402.52 370.6572,399.441 370.6572,395.643 L370.6572,395.643 C370.6572,391.845 367.5782,388.766 363.7802,388.766 L321.2392,388.766 C317.4412,388.766 314.3622,391.845 314.3622,395.643 L314.3622,395.643 C314.3622,399.441 317.4412,402.52 321.2392,402.52" id="Fill-171" fill="#292D2C"></path>
                <path d="M332.3829,378.779 L372.0369,378.779 C375.4809,378.779 378.2729,375.987 378.2729,372.544 L378.2729,372.544 C378.2729,369.1 375.4809,366.308 372.0369,366.308 L332.3829,366.308 C328.9389,366.308 326.1479,369.1 326.1479,372.544 L326.1479,372.544 C326.1479,375.987 328.9389,378.779 332.3829,378.779" id="Fill-172" fill="#292D2C"></path>
                <path d="M343.0033,356.6134 L379.7103,356.6134 C382.8163,356.6134 385.3343,354.0954 385.3343,350.9894 L385.3343,350.9894 C385.3343,347.8834 382.8163,345.3654 379.7103,345.3654 L343.0033,345.3654 C339.8973,345.3654 337.3793,347.8834 337.3793,350.9894 L337.3793,350.9894 C337.3793,354.0954 339.8973,356.6134 343.0033,356.6134" id="Fill-173" fill="#292D2C"></path>
                <path d="M358.7819,319.3161 L388.9659,319.3161 C391.5699,319.3161 393.6809,317.2051 393.6809,314.6001 C393.6809,311.9961 391.5699,309.8851 388.9659,309.8851 L358.7819,309.8851 C356.1779,309.8851 354.0659,311.9961 354.0659,314.6001 C354.0659,317.2051 356.1779,319.3161 358.7819,319.3161" id="Fill-174" fill="#292D2C"></path>
                <path d="M352.6346,336.5125 L386.2806,336.5125 C389.0806,336.5125 391.3506,334.2425 391.3506,331.4435 L391.3506,331.4435 C391.3506,328.6435 389.0806,326.3735 386.2806,326.3735 L352.6346,326.3735 C349.8346,326.3735 347.5656,328.6435 347.5656,331.4435 L347.5656,331.4435 C347.5656,334.2425 349.8346,336.5125 352.6346,336.5125" id="Fill-175" fill="#292D2C"></path>
                <path d="M373.8625,290.9896 L399.5065,290.9896 C401.6375,290.9896 403.3645,289.2626 403.3645,287.1316 C403.3645,285.0006 401.6375,283.2736 399.5065,283.2736 L373.8625,283.2736 C371.7315,283.2736 370.0045,285.0006 370.0045,287.1316 C370.0045,289.2626 371.7315,290.9896 373.8625,290.9896" id="Fill-176" fill="#292D2C"></path>
                <path d="M366.1563,304.3507 L395.1043,304.3507 C397.4743,304.3507 399.3953,302.4297 399.3953,300.0597 L399.3953,300.0597 C399.3953,297.6897 397.4743,295.7687 395.1043,295.7687 L366.1563,295.7687 C363.7863,295.7687 361.8653,297.6897 361.8653,300.0597 L361.8653,300.0597 C361.8653,302.4297 363.7863,304.3507 366.1563,304.3507" id="Fill-177" fill="#292D2C"></path>
                <path d="M381.1892,279.1606 L403.4862,279.1606 C405.3902,279.1606 406.9332,277.6176 406.9332,275.7146 L406.9332,275.7146 C406.9332,273.8106 405.3902,272.2676 403.4862,272.2676 L381.1892,272.2676 C379.2862,272.2676 377.7432,273.8106 377.7432,275.7146 L377.7432,275.7146 C377.7432,277.6176 379.2862,279.1606 381.1892,279.1606" id="Fill-178" fill="#292D2C"></path>
                <path d="M325.0831,279.1606 L346.1801,279.1606 C348.0841,279.1606 349.6271,277.6176 349.6271,275.7146 L349.6271,275.7146 C349.6271,273.8106 348.0841,272.2676 346.1801,272.2676 L325.0831,272.2676 C323.1801,272.2676 321.6371,273.8106 321.6371,275.7146 L321.6371,275.7146 C321.6371,277.6176 323.1801,279.1606 325.0831,279.1606" id="Fill-179" fill="#292D2C"></path>
                <path d="M299.5414,290.9896 L278.6794,290.9896 C276.5484,290.9896 274.8214,289.2626 274.8214,287.1316 C274.8214,285.0006 276.5484,283.2736 278.6794,283.2736 L299.5414,283.2736 C301.6724,283.2736 303.3994,285.0006 303.3994,287.1316 C303.3994,289.2626 301.6724,290.9896 299.5414,290.9896" id="Fill-180" fill="#292D2C"></path>
                <path d="M208.2523,402.52 L171.0653,402.52 C167.2673,402.52 164.1883,399.441 164.1883,395.643 L164.1883,395.643 C164.1883,391.845 167.2673,388.766 171.0653,388.766 L208.2523,388.766 C212.0503,388.766 215.1293,391.845 215.1293,395.643 L215.1293,395.643 C215.1293,399.441 212.0503,402.52 208.2523,402.52" id="Fill-181" fill="#292D2C"></path>
                <path d="M135.3812,392.8727 L100.0142,381.3817 C96.4022,380.2077 94.4252,376.3277 95.5992,372.7157 L95.5992,372.7157 C96.7732,369.1037 100.6522,367.1267 104.2642,368.3007 L139.6312,379.7917 C143.2432,380.9657 145.2202,384.8457 144.0462,388.4577 L144.0462,388.4577 C142.8732,392.0697 138.9932,394.0467 135.3812,392.8727" id="Fill-182" fill="#292D2C"></path>
                <path d="M575.5115,427.2682 L529.4775,427.2682 C525.6805,427.2682 522.6015,424.1892 522.6015,420.3912 L522.6015,419.5382 C522.6015,415.7402 525.6805,412.6612 529.4775,412.6612 L575.5115,412.6612 C579.3095,412.6612 582.3885,415.7402 582.3885,419.5382 L582.3885,420.3912 C582.3885,424.1892 579.3095,427.2682 575.5115,427.2682" id="Fill-183" fill="#292D2C"></path>
                <path d="M641.0268,427.2682 L594.9938,427.2682 C591.1958,427.2682 588.1168,424.1892 588.1168,420.3912 L588.1168,419.5382 C588.1168,415.7402 591.1958,412.6612 594.9938,412.6612 L641.0268,412.6612 C644.8248,412.6612 647.9038,415.7402 647.9038,419.5382 L647.9038,420.3912 C647.9038,424.1892 644.8248,427.2682 641.0268,427.2682" id="Fill-184" fill="#292D2C"></path>
                <path d="M803.0874,427.2682 L757.5244,427.2682 C753.7274,427.2682 750.6484,424.1892 750.6484,420.3912 L750.6484,419.5382 C750.6484,415.7402 753.7274,412.6612 757.5244,412.6612 L803.0874,412.6612 C806.8854,412.6612 809.9644,415.7402 809.9644,419.5382 L809.9644,420.3912 C809.9644,424.1892 806.8854,427.2682 803.0874,427.2682" id="Fill-185" fill="#292D2C"></path>
                <path d="M706.5422,427.2682 L660.5092,427.2682 C656.7112,427.2682 653.6322,424.1892 653.6322,420.3912 L653.6322,419.5382 C653.6322,415.7402 656.7112,412.6612 660.5092,412.6612 L706.5422,412.6612 C710.3402,412.6612 713.4192,415.7402 713.4192,419.5382 L713.4192,420.3912 C713.4192,424.1892 710.3402,427.2682 706.5422,427.2682" id="Fill-186" fill="#292D2C"></path>
                <path d="M825.6847,427.2682 L866.0317,427.2682 C869.8297,427.2682 872.9087,424.1892 872.9087,420.3912 L872.9087,419.5382 C872.9087,415.7402 869.8297,412.6612 866.0317,412.6612 L825.6847,412.6612 C821.8867,412.6612 818.8077,415.7402 818.8077,419.5382 L818.8077,420.3912 C818.8077,424.1892 821.8867,427.2682 825.6847,427.2682" id="Fill-187" fill="#292D2C"></path>
                <path d="M440.2652,427.2682 L486.2982,427.2682 C490.0962,427.2682 493.1752,424.1892 493.1752,420.3912 L493.1752,419.5382 C493.1752,415.7402 490.0962,412.6612 486.2982,412.6612 L440.2652,412.6612 C436.4672,412.6612 433.3882,415.7402 433.3882,419.5382 L433.3882,420.3912 C433.3882,424.1892 436.4672,427.2682 440.2652,427.2682" id="Fill-188" fill="#292D2C"></path>
                <path d="M374.7498,427.2682 L420.7828,427.2682 C424.5808,427.2682 427.6598,424.1892 427.6598,420.3912 L427.6598,419.5382 C427.6598,415.7402 424.5808,412.6612 420.7828,412.6612 L374.7498,412.6612 C370.9518,412.6612 367.8728,415.7402 367.8728,419.5382 L367.8728,420.3912 C367.8728,424.1892 370.9518,427.2682 374.7498,427.2682" id="Fill-189" fill="#292D2C"></path>
                <path d="M212.6893,427.2682 L258.2523,427.2682 C262.0493,427.2682 265.1283,424.1892 265.1283,420.3912 L265.1283,419.5382 C265.1283,415.7402 262.0493,412.6612 258.2523,412.6612 L212.6893,412.6612 C208.8913,412.6612 205.8123,415.7402 205.8123,419.5382 L205.8123,420.3912 C205.8123,424.1892 208.8913,427.2682 212.6893,427.2682" id="Fill-190" fill="#292D2C"></path>
                <path d="M309.2345,427.2682 L355.2675,427.2682 C359.0655,427.2682 362.1445,424.1892 362.1445,420.3912 L362.1445,419.5382 C362.1445,415.7402 359.0655,412.6612 355.2675,412.6612 L309.2345,412.6612 C305.4365,412.6612 302.3575,415.7402 302.3575,419.5382 L302.3575,420.3912 C302.3575,424.1892 305.4365,427.2682 309.2345,427.2682" id="Fill-191" fill="#292D2C"></path>
                <path d="M190.092,427.2682 L149.745,427.2682 C145.947,427.2682 142.868,424.1892 142.868,420.3912 L142.868,419.5382 C142.868,415.7402 145.947,412.6612 149.745,412.6612 L190.092,412.6612 C193.89,412.6612 196.969,415.7402 196.969,419.5382 L196.969,420.3912 C196.969,424.1892 193.89,427.2682 190.092,427.2682" id="Fill-192" fill="#292D2C"></path>
                <path d="M70.3078,401.615 L113.6408,415.695 C117.2528,416.868 121.1318,414.891 122.3058,411.279 L122.5688,410.468 C123.7428,406.856 121.7658,402.976 118.1538,401.803 L74.8218,387.723 C71.2098,386.549 67.3298,388.526 66.1558,392.138 L65.8928,392.95 C64.7188,396.562 66.6958,400.441 70.3078,401.615" id="Fill-193" fill="#292D2C"></path>
                <path d="M75.4643,371.8262 L40.0973,360.3352 C36.4853,359.1612 34.5083,355.2812 35.6823,351.6692 L35.6823,351.6692 C36.8563,348.0572 40.7353,346.0812 44.3473,347.2542 L79.7143,358.7452 C83.3263,359.9192 85.3033,363.7992 84.1293,367.4112 L84.1293,367.4112 C82.9563,371.0232 79.0763,373.0002 75.4643,371.8262" id="Fill-194" fill="#292D2C"></path>
                <path d="M880.6102,392.8727 L915.9772,381.3817 C919.5892,380.2077 921.5662,376.3277 920.3922,372.7157 L920.3922,372.7157 C919.2182,369.1037 915.3392,367.1267 911.7272,368.3007 L876.3602,379.7917 C872.7482,380.9657 870.7712,384.8457 871.9452,388.4577 L871.9452,388.4577 C873.1182,392.0697 876.9982,394.0467 880.6102,392.8727" id="Fill-195" fill="#292D2C"></path>
                <path d="M945.6837,401.615 L902.3507,415.695 C898.7387,416.868 894.8597,414.891 893.6857,411.279 L893.4227,410.468 C892.2487,406.856 894.2257,402.976 897.8377,401.803 L941.1697,387.723 C944.7817,386.549 948.6617,388.526 949.8357,392.138 L950.0987,392.95 C951.2727,396.562 949.2957,400.441 945.6837,401.615" id="Fill-196" fill="#292D2C"></path>
                <path d="M940.5272,371.8262 L975.8942,360.3352 C979.5062,359.1612 981.4832,355.2812 980.3092,351.6692 L980.3092,351.6692 C979.1352,348.0572 975.2562,346.0812 971.6442,347.2542 L936.2772,358.7452 C932.6652,359.9192 930.6882,363.7992 931.8622,367.4112 L931.8622,367.4112 C933.0352,371.0232 936.9152,373.0002 940.5272,371.8262" id="Fill-197" fill="#292D2C"></path>
                <path d="M228.2827,378.779 L194.5647,378.779 C191.1217,378.779 188.3297,375.987 188.3297,372.544 L188.3297,372.544 C188.3297,369.1 191.1217,366.308 194.5647,366.308 L228.2827,366.308 C231.7267,366.308 234.5177,369.1 234.5177,372.544 L234.5177,372.544 C234.5177,375.987 231.7267,378.779 228.2827,378.779" id="Fill-198" fill="#292D2C"></path>
                <path d="M245.5762,356.6134 L215.1642,356.6134 C212.0582,356.6134 209.5402,354.0954 209.5402,350.9894 L209.5402,350.9894 C209.5402,347.8834 212.0582,345.3654 215.1642,345.3654 L245.5762,345.3654 C248.6822,345.3654 251.2002,347.8834 251.2002,350.9894 L251.2002,350.9894 C251.2002,354.0954 248.6822,356.6134 245.5762,356.6134" id="Fill-199" fill="#292D2C"></path>
                <path d="M273.227,319.3161 L247.727,319.3161 C245.123,319.3161 243.012,317.2051 243.012,314.6001 L243.012,314.6001 C243.012,311.9961 245.123,309.8851 247.727,309.8851 L273.227,309.8851 C275.831,309.8851 277.943,311.9961 277.943,314.6001 L277.943,314.6001 C277.943,317.2051 275.831,319.3161 273.227,319.3161" id="Fill-200" fill="#292D2C"></path>
                <path d="M262.4405,336.5125 L235.0275,336.5125 C232.2275,336.5125 229.9575,334.2425 229.9575,331.4435 L229.9575,331.4435 C229.9575,328.6435 232.2275,326.3735 235.0275,326.3735 L262.4405,326.3735 C265.2405,326.3735 267.5095,328.6435 267.5095,331.4435 L267.5095,331.4435 C267.5095,334.2425 265.2405,336.5125 262.4405,336.5125" id="Fill-201" fill="#292D2C"></path>
                <path d="M285.8767,304.3507 L262.6727,304.3507 C260.3027,304.3507 258.3817,302.4297 258.3817,300.0597 C258.3817,297.6897 260.3027,295.7687 262.6727,295.7687 L285.8767,295.7687 C288.2467,295.7687 290.1677,297.6897 290.1677,300.0597 C290.1677,302.4297 288.2467,304.3507 285.8767,304.3507" id="Fill-202" fill="#292D2C"></path>
                <path d="M311.4077,279.1606 L292.7717,279.1606 C290.8687,279.1606 289.3257,277.6176 289.3257,275.7146 L289.3257,275.7146 C289.3257,273.8106 290.8687,272.2676 292.7717,272.2676 L311.4077,272.2676 C313.3107,272.2676 314.8537,273.8106 314.8537,275.7146 L314.8537,275.7146 C314.8537,277.6176 313.3107,279.1606 311.4077,279.1606" id="Fill-203" fill="#292D2C"></path>
                <path d="M156.0679,372.5912 L124.0009,362.1722 C120.7249,361.1072 118.9329,357.5902 119.9969,354.3152 L119.9969,354.3152 C121.0609,351.0402 124.5789,349.2472 127.8539,350.3112 L159.9219,360.7312 C163.1969,361.7952 164.9889,365.3132 163.9249,368.5882 L163.9249,368.5882 C162.8609,371.8632 159.3429,373.6552 156.0679,372.5912" id="Fill-204" fill="#292D2C"></path>
                <path d="M99.975,351.1093 L67.907,340.6903 C64.632,339.6253 62.84,336.1083 63.904,332.8333 L63.904,332.8333 C64.968,329.5583 68.486,327.7653 71.761,328.8293 L103.829,339.2493 C107.104,340.3133 108.896,343.8313 107.832,347.1063 L107.832,347.1063 C106.768,350.3813 103.25,352.1733 99.975,351.1093" id="Fill-205" fill="#292D2C"></path>
                <path d="M177.9264,350.1689 L149.0034,340.7709 C146.0494,339.8119 144.4324,336.6389 145.3924,333.6849 L145.3924,333.6849 C146.3524,330.7309 149.5254,329.1139 152.4794,330.0739 L181.4024,339.4719 C184.3564,340.4309 185.9724,343.6039 185.0134,346.5579 L185.0134,346.5579 C184.0534,349.5119 180.8804,351.1289 177.9264,350.1689" id="Fill-206" fill="#292D2C"></path>
                <path d="M128.184,333.3797 L99.261,323.9817 C96.307,323.0227 94.69,319.8497 95.65,316.8957 L95.65,316.8957 C96.61,313.9417 99.783,312.3247 102.737,313.2847 L131.66,322.6827 C134.614,323.6417 136.23,326.8147 135.271,329.7687 L135.271,329.7687 C134.311,332.7227 131.138,334.3397 128.184,333.3797" id="Fill-207" fill="#292D2C"></path>
                <path d="M213.3662,314.9746 L189.1142,307.0946 C186.6372,306.2896 185.2822,303.6296 186.0872,301.1526 C186.8922,298.6756 189.5522,297.3206 192.0292,298.1256 L216.2802,306.0046 C218.7572,306.8096 220.1132,309.4706 219.3082,311.9466 C218.5032,314.4236 215.8432,315.7796 213.3662,314.9746" id="Fill-208" fill="#292D2C"></path>
                <path d="M171.7768,300.2295 L147.5248,292.3495 C145.0478,291.5445 143.6928,288.8845 144.4978,286.4075 L144.4978,286.4075 C145.3028,283.9305 147.9628,282.5755 150.4398,283.3805 L174.6908,291.2595 C177.1678,292.0645 178.5238,294.7255 177.7188,297.2015 L177.7188,297.2015 C176.9138,299.6785 174.2538,301.0345 171.7768,300.2295" id="Fill-209" fill="#292D2C"></path>
                <path d="M195.6056,331.3404 L169.5336,322.8694 C166.8716,322.0044 165.4136,319.1444 166.2796,316.4814 L166.2796,316.4814 C167.1446,313.8184 170.0046,312.3614 172.6666,313.2264 L198.7386,321.6974 C201.4016,322.5624 202.8586,325.4224 201.9936,328.0854 L201.9936,328.0854 C201.1286,330.7484 198.2686,332.2054 195.6056,331.3404" id="Fill-210" fill="#292D2C"></path>
                <path d="M150.3154,315.3786 L124.2434,306.9076 C121.5814,306.0426 120.1234,303.1826 120.9894,300.5196 L120.9894,300.5196 C121.8544,297.8566 124.7144,296.3996 127.3764,297.2646 L153.4484,305.7356 C156.1114,306.6006 157.5684,309.4606 156.7034,312.1236 L156.7034,312.1236 C155.8384,314.7866 152.9784,316.2436 150.3154,315.3786" id="Fill-211" fill="#292D2C"></path>
                <path d="M241.0134,288.9932 L221.1724,282.5462 C219.1454,281.8882 218.0364,279.7112 218.6954,277.6852 C219.3534,275.6582 221.5304,274.5492 223.5564,275.2082 L243.3974,281.6552 C245.4244,282.3132 246.5334,284.4902 245.8744,286.5162 C245.2164,288.5422 243.0394,289.6512 241.0134,288.9932" id="Fill-212" fill="#292D2C"></path>
                <path d="M206.4372,278.2012 L186.5962,271.7542 C184.5692,271.0962 183.4602,268.9192 184.1192,266.8932 L184.1192,266.8932 C184.7772,264.8662 186.9542,263.7572 188.9802,264.4162 L208.8212,270.8632 C210.8482,271.5212 211.9572,273.6982 211.2982,275.7242 L211.2982,275.7242 C210.6402,277.7502 208.4632,278.8592 206.4372,278.2012" id="Fill-213" fill="#292D2C"></path>
                <path d="M230.1161,301.3289 L208.0481,294.1589 C205.7941,293.4259 204.5601,291.0049 205.2931,288.7519 L205.2931,288.7519 C206.0251,286.4979 208.4461,285.2639 210.7001,285.9969 L232.7681,293.1669 C235.0221,293.8989 236.2551,296.3199 235.5231,298.5739 L235.5231,298.5739 C234.7911,300.8279 232.3701,302.0609 230.1161,301.3289" id="Fill-214" fill="#292D2C"></path>
                <path d="M191.253,288.6002 L169.185,281.4302 C166.931,280.6972 165.697,278.2762 166.43,276.0232 L166.43,276.0232 C167.162,273.7692 169.583,272.5352 171.837,273.2682 L193.905,280.4382 C196.159,281.1702 197.392,283.5912 196.66,285.8452 L196.66,285.8452 C195.928,288.0992 193.507,289.3322 191.253,288.6002" id="Fill-215" fill="#292D2C"></path>
                <path d="M217.7146,268.9916 L199.9906,263.2326 C198.1806,262.6446 197.1896,260.7006 197.7776,258.8896 C198.3656,257.0796 200.3106,256.0896 202.1206,256.6776 L219.8446,262.4366 C221.6546,263.0246 222.6456,264.9686 222.0576,266.7786 L222.0576,266.7786 C221.4686,268.5896 219.5246,269.5796 217.7146,268.9916" id="Fill-216" fill="#292D2C"></path>
                <path d="M405.7883,309.1797 L610.9403,309.1797 L632.2743,379.0747 L380.4933,379.1997 L405.7883,309.1797 Z" id="Fill-217" fill="#292D2C"></path>
                <path d="M613.0397,306.3443 L403.7977,306.3443 L376.4537,382.0363 L636.1017,381.9073 L613.0397,306.3443 Z M608.8427,312.0133 L628.4457,376.2413 L384.5317,376.3623 L407.7777,312.0133 L608.8427,312.0133 Z" id="Fill-218" fill="#FFFFFF"></path>
            </g>
            <g id="Group-221" font-size="26" font-family="Luckiest Guy" fill="#FFFFFF" sketch:type="MSTextLayer" font-weight="normal">
                <text id="684">
                    <tspan x="485.9121" y="333.877">6</tspan>
                    <tspan x="500.816397" y="333.877" letter-spacing="0.1924">8</tspan>
                    <tspan x="516.040047" y="333.877">4</tspan>
                </text>
                <text id="SEATS">
                    <tspan x="473.4061" y="361.879">SE</tspan>
                    <tspan x="499.660006" y="361.879" letter-spacing="-1.5054">A</tspan>
                    <tspan x="512.93195" y="361.879">TS</tspan>
                </text>
            </g>
        </g>
    </g>
</svg>