<?xml version="1.0" encoding="UTF-8" standalone="no"?>
<svg width="839px" height="438px" viewBox="0 0 839 438" version="1.1" xmlns="http://www.w3.org/2000/svg" xmlns:xlink="http://www.w3.org/1999/xlink" xmlns:sketch="http://www.bohemiancoding.com/sketch/ns">
    <!-- Generator: Sketch 3.3.3 (12072) - http://www.bohemiancoding.com/sketch -->
    <title>Salillustrasjoner</title>
    <desc>Created with Sketch.</desc>
    <defs>
        <path id="path-1" d="M0.426,39.941 L42.689,39.941 L42.689,0.826 L0.426,0.826 L0.426,39.941 Z"></path>
        <path id="path-3" d="M0.426,39.941 L42.689,39.941 L42.689,0.826 L0.426,0.826 L0.426,39.941 Z"></path>
        <path id="path-5" d="M0.216,39.941 L42.479,39.941 L42.479,0.826 L0.216,0.826 L0.216,39.941 Z"></path>
        <path id="path-7" d="M0.216,39.941 L42.479,39.941 L42.479,0.826 L0.216,0.826 L0.216,39.941 Z"></path>
    </defs>
    <g id="Page-2" stroke="none" stroke-width="1" fill="none" fill-rule="evenodd" sketch:type="MSPage">
        <g id="Salillustrasjoner" sketch:type="MSLayerGroup" transform="translate(-91.000000, 0.000000)">
            <g id="Group-282" sketch:type="MSShapeGroup">
                <path d="M347.9918,437.2676 L304.4418,437.2676 C300.2188,437.2676 296.7958,433.8446 296.7958,429.6216 L296.7958,428.9226 C296.7958,424.6996 300.2188,421.2766 304.4418,421.2766 L347.9918,421.2766 C352.2148,421.2766 355.6378,424.6996 355.6378,428.9226 L355.6378,429.6216 C355.6378,433.8446 352.2148,437.2676 347.9918,437.2676" id="Fill-223" fill="#292D2C"></path>
                <path d="M419.1635,437.2676 L375.6135,437.2676 C371.3905,437.2676 367.9675,433.8446 367.9675,429.6216 L367.9675,428.9226 C367.9675,424.6996 371.3905,421.2766 375.6135,421.2766 L419.1635,421.2766 C423.3865,421.2766 426.8095,424.6996 426.8095,428.9226 L426.8095,429.6216 C426.8095,433.8446 423.3865,437.2676 419.1635,437.2676" id="Fill-225" fill="#292D2C"></path>
                <path d="M490.3353,437.2676 L446.7853,437.2676 C442.5623,437.2676 439.1393,433.8446 439.1393,429.6216 L439.1393,428.9226 C439.1393,424.6996 442.5623,421.2766 446.7853,421.2766 L490.3353,421.2766 C494.5583,421.2766 497.9813,424.6996 497.9813,428.9226 L497.9813,429.6216 C497.9813,433.8446 494.5583,437.2676 490.3353,437.2676" id="Fill-226" fill="#292D2C"></path>
                <path d="M561.5071,437.2676 L517.9571,437.2676 C513.7341,437.2676 510.3111,433.8446 510.3111,429.6216 L510.3111,428.9226 C510.3111,424.6996 513.7341,421.2766 517.9571,421.2766 L561.5071,421.2766 C565.7301,421.2766 569.1531,424.6996 569.1531,428.9226 L569.1531,429.6216 C569.1531,433.8446 565.7301,437.2676 561.5071,437.2676" id="Fill-227" fill="#292D2C"></path>
                <path d="M632.6788,437.2676 L589.1288,437.2676 C584.9058,437.2676 581.4828,433.8446 581.4828,429.6216 L581.4828,428.9226 C581.4828,424.6996 584.9058,421.2766 589.1288,421.2766 L632.6788,421.2766 C636.9018,421.2766 640.3248,424.6996 640.3248,428.9226 L640.3248,429.6216 C640.3248,433.8446 636.9018,437.2676 632.6788,437.2676" id="Fill-228" fill="#292D2C"></path>
                <path d="M703.8506,437.2676 L660.3006,437.2676 C656.0776,437.2676 652.6546,433.8446 652.6546,429.6216 L652.6546,428.9226 C652.6546,424.6996 656.0776,421.2766 660.3006,421.2766 L703.8506,421.2766 C708.0736,421.2766 711.4966,424.6996 711.4966,428.9226 L711.4966,429.6216 C711.4966,433.8446 708.0736,437.2676 703.8506,437.2676" id="Fill-229" fill="#292D2C"></path>
                <path d="M372.3232,362.5329 L335.5592,362.5329 C331.9942,362.5329 329.1042,359.6429 329.1042,356.0779 L329.1042,355.4879 C329.1042,351.9239 331.9942,349.0339 335.5592,349.0339 L372.3232,349.0339 C375.8882,349.0339 378.7782,351.9239 378.7782,355.4879 L378.7782,356.0779 C378.7782,359.6429 375.8882,362.5329 372.3232,362.5329" id="Fill-230" fill="#292D2C"></path>
                <path d="M432.4052,363.3746 L395.6412,363.3746 C392.0762,363.3746 389.1862,360.4846 389.1862,356.9196 L389.1862,356.3296 C389.1862,352.7656 392.0762,349.8756 395.6412,349.8756 L432.4052,349.8756 C435.9702,349.8756 438.8602,352.7656 438.8602,356.3296 L438.8602,356.9196 C438.8602,360.4846 435.9702,363.3746 432.4052,363.3746" id="Fill-231" fill="#292D2C"></path>
                <path d="M492.4873,363.3746 L455.7233,363.3746 C452.1583,363.3746 449.2683,360.4846 449.2683,356.9196 L449.2683,356.3296 C449.2683,352.7656 452.1583,349.8756 455.7233,349.8756 L492.4873,349.8756 C496.0523,349.8756 498.9423,352.7656 498.9423,356.3296 L498.9423,356.9196 C498.9423,360.4846 496.0523,363.3746 492.4873,363.3746" id="Fill-232" fill="#292D2C"></path>
                <path d="M552.5693,363.3746 L515.8053,363.3746 C512.2403,363.3746 509.3503,360.4846 509.3503,356.9196 L509.3503,356.3296 C509.3503,352.7656 512.2403,349.8756 515.8053,349.8756 L552.5693,349.8756 C556.1343,349.8756 559.0243,352.7656 559.0243,356.3296 L559.0243,356.9196 C559.0243,360.4846 556.1343,363.3746 552.5693,363.3746" id="Fill-233" fill="#292D2C"></path>
                <path d="M612.6514,363.3746 L575.8874,363.3746 C572.3224,363.3746 569.4324,360.4846 569.4324,356.9196 L569.4324,356.3296 C569.4324,352.7656 572.3224,349.8756 575.8874,349.8756 L612.6514,349.8756 C616.2164,349.8756 619.1064,352.7656 619.1064,356.3296 L619.1064,356.9196 C619.1064,360.4846 616.2164,363.3746 612.6514,363.3746" id="Fill-234" fill="#292D2C"></path>
                <path d="M672.7333,363.3746 L635.9693,363.3746 C632.4043,363.3746 629.5143,360.4846 629.5143,356.9196 L629.5143,356.3296 C629.5143,352.7656 632.4043,349.8756 635.9693,349.8756 L672.7333,349.8756 C676.2983,349.8756 679.1883,352.7656 679.1883,356.3296 L679.1883,356.9196 C679.1883,360.4846 676.2983,363.3746 672.7333,363.3746" id="Fill-235" fill="#292D2C"></path>
                <path d="M363.3867,398.2338 L324.1307,398.2338 C320.3237,398.2338 317.2377,395.1478 317.2377,391.3418 L317.2377,390.7118 C317.2377,386.9048 320.3237,383.8198 324.1307,383.8198 L363.3867,383.8198 C367.1927,383.8198 370.2787,386.9048 370.2787,390.7118 L370.2787,391.3418 C370.2787,395.1478 367.1927,398.2338 363.3867,398.2338" id="Fill-236" fill="#292D2C"></path>
                <path d="M427.5418,398.2338 L388.2858,398.2338 C384.4788,398.2338 381.3928,395.1478 381.3928,391.3418 L381.3928,390.7118 C381.3928,386.9048 384.4788,383.8198 388.2858,383.8198 L427.5418,383.8198 C431.3478,383.8198 434.4338,386.9048 434.4338,390.7118 L434.4338,391.3418 C434.4338,395.1478 431.3478,398.2338 427.5418,398.2338" id="Fill-237" fill="#292D2C"></path>
                <path d="M491.6969,398.2338 L452.4409,398.2338 C448.6339,398.2338 445.5479,395.1478 445.5479,391.3418 L445.5479,390.7118 C445.5479,386.9048 448.6339,383.8198 452.4409,383.8198 L491.6969,383.8198 C495.5029,383.8198 498.5889,386.9048 498.5889,390.7118 L498.5889,391.3418 C498.5889,395.1478 495.5029,398.2338 491.6969,398.2338" id="Fill-238" fill="#292D2C"></path>
                <path d="M555.852,398.2338 L516.596,398.2338 C512.789,398.2338 509.703,395.1478 509.703,391.3418 L509.703,390.7118 C509.703,386.9048 512.789,383.8198 516.596,383.8198 L555.852,383.8198 C559.658,383.8198 562.744,386.9048 562.744,390.7118 L562.744,391.3418 C562.744,395.1478 559.658,398.2338 555.852,398.2338" id="Fill-239" fill="#292D2C"></path>
                <path d="M620.0071,398.2338 L580.7511,398.2338 C576.9441,398.2338 573.8581,395.1478 573.8581,391.3418 L573.8581,390.7118 C573.8581,386.9048 576.9441,383.8198 580.7511,383.8198 L620.0071,383.8198 C623.8131,383.8198 626.8991,386.9048 626.8991,390.7118 L626.8991,391.3418 C626.8991,395.1478 623.8131,398.2338 620.0071,398.2338" id="Fill-240" fill="#292D2C"></path>
                <path d="M684.1621,398.2338 L644.9061,398.2338 C641.0991,398.2338 638.0141,395.1478 638.0141,391.3418 L638.0141,390.7118 C638.0141,386.9048 641.0991,383.8198 644.9061,383.8198 L684.1621,383.8198 C687.9681,383.8198 691.0541,386.9048 691.0541,390.7118 L691.0541,391.3418 C691.0541,395.1478 687.9681,398.2338 684.1621,398.2338" id="Fill-241" fill="#292D2C"></path>
                <path d="M397.024,304.2356 L367.149,304.2356 C364.252,304.2356 361.904,301.8876 361.904,298.9906 L361.904,298.5106 C361.904,295.6146 364.252,293.2656 367.149,293.2656 L397.024,293.2656 C399.921,293.2656 402.269,295.6146 402.269,298.5106 L402.269,298.9906 C402.269,301.8876 399.921,304.2356 397.024,304.2356" id="Fill-242" fill="#292D2C"></path>
                <path d="M445.8479,304.2356 L415.9729,304.2356 C413.0759,304.2356 410.7279,301.8876 410.7279,298.9906 L410.7279,298.5106 C410.7279,295.6146 413.0759,293.2656 415.9729,293.2656 L445.8479,293.2656 C448.7449,293.2656 451.0929,295.6146 451.0929,298.5106 L451.0929,298.9906 C451.0929,301.8876 448.7449,304.2356 445.8479,304.2356" id="Fill-243" fill="#292D2C"></path>
                <path d="M494.6719,304.2356 L464.7969,304.2356 C461.8999,304.2356 459.5519,301.8876 459.5519,298.9906 L459.5519,298.5106 C459.5519,295.6146 461.8999,293.2656 464.7969,293.2656 L494.6719,293.2656 C497.5689,293.2656 499.9169,295.6146 499.9169,298.5106 L499.9169,298.9906 C499.9169,301.8876 497.5689,304.2356 494.6719,304.2356" id="Fill-244" fill="#292D2C"></path>
                <path d="M543.4959,304.2356 L513.6209,304.2356 C510.7239,304.2356 508.3759,301.8876 508.3759,298.9906 L508.3759,298.5106 C508.3759,295.6146 510.7239,293.2656 513.6209,293.2656 L543.4959,293.2656 C546.3929,293.2656 548.7409,295.6146 548.7409,298.5106 L548.7409,298.9906 C548.7409,301.8876 546.3929,304.2356 543.4959,304.2356" id="Fill-245" fill="#292D2C"></path>
                <path d="M592.3199,304.2356 L562.4449,304.2356 C559.5479,304.2356 557.1999,301.8876 557.1999,298.9906 L557.1999,298.5106 C557.1999,295.6146 559.5479,293.2656 562.4449,293.2656 L592.3199,293.2656 C595.2169,293.2656 597.5649,295.6146 597.5649,298.5106 L597.5649,298.9906 C597.5649,301.8876 595.2169,304.2356 592.3199,304.2356" id="Fill-246" fill="#292D2C"></path>
                <path d="M641.1439,304.2356 L611.2689,304.2356 C608.3719,304.2356 606.0239,301.8876 606.0239,298.9906 L606.0239,298.5106 C606.0239,295.6146 608.3719,293.2656 611.2689,293.2656 L641.1439,293.2656 C644.0409,293.2656 646.3889,295.6146 646.3889,298.5106 L646.3889,298.9906 C646.3889,301.8876 644.0409,304.2356 641.1439,304.2356" id="Fill-247" fill="#292D2C"></path>
                <path d="M385.0005,331.8003 L351.7715,331.8003 C348.5505,331.8003 345.9385,329.1883 345.9385,325.9663 L345.9385,325.4333 C345.9385,322.2113 348.5505,319.5993 351.7715,319.5993 L385.0005,319.5993 C388.2225,319.5993 390.8345,322.2113 390.8345,325.4333 L390.8345,325.9663 C390.8345,329.1883 388.2225,331.8003 385.0005,331.8003" id="Fill-248" fill="#292D2C"></path>
                <path d="M439.3045,332.642 L406.0755,332.642 C402.8545,332.642 400.2425,330.03 400.2425,326.808 L400.2425,326.275 C400.2425,323.053 402.8545,320.441 406.0755,320.441 L439.3045,320.441 C442.5265,320.441 445.1385,323.053 445.1385,326.275 L445.1385,326.808 C445.1385,330.03 442.5265,332.642 439.3045,332.642" id="Fill-249" fill="#292D2C"></path>
                <path d="M493.6085,332.642 L460.3795,332.642 C457.1585,332.642 454.5465,330.03 454.5465,326.808 L454.5465,326.275 C454.5465,323.053 457.1585,320.441 460.3795,320.441 L493.6085,320.441 C496.8305,320.441 499.4425,323.053 499.4425,326.275 L499.4425,326.808 C499.4425,330.03 496.8305,332.642 493.6085,332.642" id="Fill-250" fill="#292D2C"></path>
                <path d="M547.9125,332.642 L514.6835,332.642 C511.4615,332.642 508.8505,330.03 508.8505,326.808 L508.8505,326.275 C508.8505,323.053 511.4615,320.441 514.6835,320.441 L547.9125,320.441 C551.1345,320.441 553.7465,323.053 553.7465,326.275 L553.7465,326.808 C553.7465,330.03 551.1345,332.642 547.9125,332.642" id="Fill-251" fill="#292D2C"></path>
                <path d="M602.2166,332.642 L568.9876,332.642 C565.7656,332.642 563.1546,330.03 563.1546,326.808 L563.1546,326.275 C563.1546,323.053 565.7656,320.441 568.9876,320.441 L602.2166,320.441 C605.4386,320.441 608.0506,323.053 608.0506,326.275 L608.0506,326.808 C608.0506,330.03 605.4386,332.642 602.2166,332.642" id="Fill-252" fill="#292D2C"></path>
                <path d="M656.5206,332.642 L623.2916,332.642 C620.0696,332.642 617.4586,330.03 617.4586,326.808 L617.4586,326.275 C617.4586,323.053 620.0696,320.441 623.2916,320.441 L656.5206,320.441 C659.7426,320.441 662.3546,323.053 662.3546,326.275 L662.3546,326.808 C662.3546,330.03 659.7426,332.642 656.5206,332.642" id="Fill-253" fill="#292D2C"></path>
                <path d="M335.741,291.5228 L309.577,279.2668 C307.125,278.1178 305.978,275.2688 306.95,272.7418 L306.95,272.7418 C308.025,269.9478 311.244,268.6508 313.955,269.9208 L340.119,282.1768 C342.571,283.3258 343.718,286.1748 342.746,288.7028 L342.746,288.7028 C341.671,291.4968 338.452,292.7928 335.741,291.5228" id="Fill-254" fill="#292D2C"></path>
                <path d="M259.4631,397.556 L221.3231,379.69 C217.7491,378.015 216.0771,373.862 217.4941,370.178 L217.4941,370.178 C219.0601,366.105 223.7531,364.216 227.7051,366.067 L265.8451,383.933 C269.4191,385.607 271.0911,389.76 269.6741,393.445 L269.6741,393.445 C268.1081,397.518 263.4151,399.407 259.4631,397.556" id="Fill-255" fill="#292D2C"></path>
                <path d="M302.5379,339.7816 L270.3409,324.6996 C267.3229,323.2856 265.9119,319.7796 267.1079,316.6696 L267.1079,316.6696 C268.4309,313.2316 272.3919,311.6366 275.7279,313.1986 L307.9249,328.2816 C310.9429,329.6946 312.3539,333.2006 311.1579,336.3106 L311.1579,336.3106 C309.8359,339.7496 305.8739,341.3446 302.5379,339.7816" id="Fill-256" fill="#292D2C"></path>
                <path d="M282.5502,367.5076 L248.1702,351.4026 C244.9482,349.8936 243.4412,346.1496 244.7182,342.8286 L244.7182,342.8286 C246.1312,339.1576 250.3612,337.4546 253.9232,339.1226 L288.3022,355.2276 C291.5252,356.7366 293.0322,360.4806 291.7552,363.8016 L291.7552,363.8016 C290.3422,367.4736 286.1122,369.1766 282.5502,367.5076" id="Fill-257" fill="#292D2C"></path>
                <path d="M320.7481,315.4749 L291.6471,301.8429 C288.9201,300.5659 287.6441,297.3969 288.7251,294.5859 C289.9211,291.4779 293.5011,290.0359 296.5171,291.4489 L325.6171,305.0809 C328.3451,306.3579 329.6201,309.5269 328.5391,312.3379 L328.5391,312.3379 C327.3441,315.4459 323.7631,316.8869 320.7481,315.4749" id="Fill-258" fill="#292D2C"></path>
                <path d="M292.6525,271.1056 L268.5485,259.8146 C266.2885,258.7556 265.2325,256.1316 266.1275,253.8026 C267.1175,251.2286 270.0835,250.0346 272.5815,251.2046 L296.6855,262.4956 C298.9445,263.5536 300.0015,266.1786 299.1065,268.5076 C298.1155,271.0816 295.1505,272.2756 292.6525,271.1056" id="Fill-259" fill="#292D2C"></path>
                <path d="M199.6429,366.2341 L164.5049,349.7741 C161.2119,348.2321 159.6719,344.4051 160.9769,341.0111 L160.9769,341.0111 C162.4209,337.2591 166.7439,335.5181 170.3849,337.2231 L205.5219,353.6831 C208.8159,355.2261 210.3559,359.0521 209.0499,362.4461 L209.0499,362.4461 C207.6069,366.1991 203.2839,367.9401 199.6429,366.2341" id="Fill-260" fill="#292D2C"></path>
                <path d="M235.7559,429.457 L194.8119,410.277 C190.9739,408.479 189.1789,404.021 190.6999,400.066 L190.6999,400.066 C192.3819,395.693 197.4199,393.665 201.6619,395.652 L242.6069,414.832 C246.4439,416.63 248.2399,421.088 246.7179,425.043 L246.7179,425.043 C245.0359,429.416 239.9989,431.444 235.7559,429.457" id="Fill-261" fill="#292D2C"></path>
                <path d="M250.847,312.4253 L221.184,298.5303 C218.404,297.2283 217.104,293.9983 218.206,291.1323 L218.206,291.1323 C219.424,287.9643 223.074,286.4953 226.148,287.9353 L255.81,301.8303 C258.59,303.1323 259.891,306.3623 258.789,309.2283 L258.789,309.2283 C257.57,312.3953 253.921,313.8653 250.847,312.4253" id="Fill-262" fill="#292D2C"></path>
                <path d="M227.0178,340.7564 L195.3448,325.9194 C192.3758,324.5284 190.9868,321.0794 192.1638,318.0204 L192.1638,318.0204 C193.4648,314.6374 197.3618,313.0684 200.6438,314.6064 L232.3178,329.4434 C235.2858,330.8334 236.6748,334.2824 235.4978,337.3424 L235.4978,337.3424 C234.1968,340.7244 230.2998,342.2934 227.0178,340.7564" id="Fill-263" fill="#292D2C"></path>
                <path d="M273.1378,292.3196 L246.3278,279.7606 C243.8148,278.5836 242.6398,275.6646 243.6358,273.0746 C244.7368,270.2116 248.0358,268.8836 250.8138,270.1846 L277.6238,282.7436 C280.1368,283.9206 281.3118,286.8396 280.3158,289.4296 L280.3158,289.4296 C279.2148,292.2926 275.9158,293.6206 273.1378,292.3196" id="Fill-264" fill="#292D2C"></path>
                <path d="M203.7496,289.3534 L174.0866,275.4584 C171.3066,274.1564 170.0066,270.9264 171.1086,268.0604 C172.3266,264.8924 175.9766,263.4234 179.0506,264.8634 L208.7126,278.7584 C211.4926,280.0604 212.7936,283.2904 211.6916,286.1564 L211.6916,286.1564 C210.4726,289.3234 206.8236,290.7934 203.7496,289.3534" id="Fill-265" fill="#292D2C"></path>
                <path d="M174.8408,313.8291 L143.1678,298.9921 C140.1988,297.6011 138.8098,294.1521 139.9868,291.0931 L139.9868,291.0931 C141.2878,287.7101 145.1848,286.1411 148.4668,287.6791 L180.1408,302.5161 C183.1088,303.9061 184.4978,307.3551 183.3208,310.4151 L183.3208,310.4151 C182.0198,313.7971 178.1228,315.3661 174.8408,313.8291" id="Fill-266" fill="#292D2C"></path>
                <path d="M227.8887,269.2338 L201.0787,256.6748 C198.5657,255.4978 197.3907,252.5788 198.3867,249.9888 L198.3867,249.9888 C199.4877,247.1258 202.7867,245.7978 205.5647,247.0988 L232.3747,259.6578 C234.8877,260.8348 236.0627,263.7538 235.0667,266.3438 L235.0667,266.3438 C233.9657,269.2068 230.6667,270.5348 227.8887,269.2338" id="Fill-267" fill="#292D2C"></path>
                <path d="M673.4498,291.5228 L699.6138,279.2668 C702.0658,278.1178 703.2128,275.2688 702.2408,272.7418 L702.2408,272.7418 C701.1658,269.9478 697.9468,268.6508 695.2358,269.9208 L669.0718,282.1768 C666.6198,283.3258 665.4728,286.1748 666.4448,288.7028 L666.4448,288.7028 C667.5198,291.4968 670.7388,292.7928 673.4498,291.5228" id="Fill-268" fill="#282C2C"></path>
                <path d="M749.7277,397.5561 L787.8677,379.6901 C791.4417,378.0151 793.1137,373.8621 791.6967,370.1781 L791.6967,370.1781 C790.1307,366.1051 785.4377,364.2161 781.4857,366.0671 L743.3457,383.9331 C739.7717,385.6071 738.0997,389.7601 739.5167,393.4451 L739.5167,393.4451 C741.0827,397.5181 745.7757,399.4071 749.7277,397.5561" id="Fill-269" fill="#282C2C"></path>
                <path d="M706.6528,339.7816 L738.8498,324.6996 C741.8678,323.2856 743.2788,319.7796 742.0828,316.6696 L742.0828,316.6696 C740.7598,313.2316 736.7988,311.6366 733.4628,313.1986 L701.2658,328.2816 C698.2478,329.6946 696.8368,333.2006 698.0328,336.3106 L698.0328,336.3106 C699.3548,339.7496 703.3168,341.3446 706.6528,339.7816" id="Fill-270" fill="#282C2C"></path>
                <path d="M726.6406,367.5076 L761.0206,351.4026 C764.2426,349.8936 765.7496,346.1496 764.4726,342.8286 L764.4726,342.8286 C763.0596,339.1576 758.8296,337.4546 755.2676,339.1226 L720.8886,355.2276 C717.6656,356.7366 716.1586,360.4806 717.4356,363.8016 L717.4356,363.8016 C718.8486,367.4736 723.0786,369.1766 726.6406,367.5076" id="Fill-271" fill="#282C2C"></path>
                <path d="M688.4427,315.4749 L717.5437,301.8429 C720.2707,300.5659 721.5467,297.3969 720.4657,294.5859 C719.2697,291.4779 715.6897,290.0359 712.6737,291.4489 L683.5737,305.0809 C680.8457,306.3579 679.5707,309.5269 680.6517,312.3379 L680.6517,312.3379 C681.8467,315.4459 685.4277,316.8869 688.4427,315.4749" id="Fill-272" fill="#282C2C"></path>
                <path d="M716.5382,271.1056 L740.6422,259.8146 C742.9022,258.7556 743.9582,256.1316 743.0632,253.8026 C742.0732,251.2286 739.1072,250.0346 736.6092,251.2046 L712.5052,262.4956 C710.2462,263.5536 709.1892,266.1786 710.0842,268.5076 C711.0752,271.0816 714.0402,272.2756 716.5382,271.1056" id="Fill-273" fill="#282C2C"></path>
                <path d="M809.5479,366.2341 L844.6859,349.7741 C847.9789,348.2321 849.5189,344.4051 848.2139,341.0111 L848.2139,341.0111 C846.7699,337.2591 842.4469,335.5181 838.8059,337.2231 L803.6689,353.6831 C800.3749,355.2261 798.8349,359.0521 800.1409,362.4461 L800.1409,362.4461 C801.5839,366.1991 805.9069,367.9401 809.5479,366.2341" id="Fill-274" fill="#282C2C"></path>
                <path d="M773.4348,429.457 L814.3788,410.277 C818.2168,408.479 820.0118,404.021 818.4908,400.066 L818.4908,400.066 C816.8088,395.693 811.7708,393.665 807.5288,395.652 L766.5838,414.832 C762.7468,416.63 760.9508,421.088 762.4728,425.043 L762.4728,425.043 C764.1548,429.416 769.1918,431.444 773.4348,429.457" id="Fill-275" fill="#282C2C"></path>
                <path d="M758.3437,312.4253 L788.0067,298.5303 C790.7867,297.2283 792.0867,293.9983 790.9847,291.1323 C789.7667,287.9643 786.1167,286.4953 783.0427,287.9353 L753.3807,301.8303 C750.6007,303.1323 749.2997,306.3623 750.4017,309.2283 L750.4017,309.2283 C751.6207,312.3953 755.2707,313.8653 758.3437,312.4253" id="Fill-276" fill="#282C2C"></path>
                <path d="M782.1729,340.7564 L813.8459,325.9194 C816.8149,324.5284 818.2039,321.0794 817.0269,318.0204 L817.0269,318.0204 C815.7259,314.6374 811.8289,313.0684 808.5469,314.6064 L776.8729,329.4434 C773.9049,330.8334 772.5159,334.2824 773.6929,337.3424 L773.6929,337.3424 C774.9939,340.7244 778.8909,342.2934 782.1729,340.7564" id="Fill-277" fill="#282C2C"></path>
                <path d="M736.053,292.3196 L762.863,279.7606 C765.376,278.5836 766.551,275.6646 765.555,273.0746 C764.454,270.2116 761.155,268.8836 758.377,270.1846 L731.567,282.7436 C729.054,283.9206 727.879,286.8396 728.875,289.4296 L728.875,289.4296 C729.976,292.2926 733.275,293.6206 736.053,292.3196" id="Fill-278" fill="#282C2C"></path>
                <path d="M805.4412,289.3534 L835.1042,275.4584 C837.8842,274.1564 839.1842,270.9264 838.0822,268.0604 C836.8642,264.8924 833.2142,263.4234 830.1402,264.8634 L800.4782,278.7584 C797.6982,280.0604 796.3972,283.2904 797.4992,286.1564 L797.4992,286.1564 C798.7182,289.3234 802.3672,290.7934 805.4412,289.3534" id="Fill-279" fill="#282C2C"></path>
                <path d="M834.3499,313.8291 L866.0229,298.9921 C868.9919,297.6011 870.3809,294.1521 869.2039,291.0931 L869.2039,291.0931 C867.9029,287.7101 864.0059,286.1411 860.7239,287.6791 L829.0499,302.5161 C826.0819,303.9061 824.6929,307.3551 825.8699,310.4151 L825.8699,310.4151 C827.1709,313.7971 831.0679,315.3661 834.3499,313.8291" id="Fill-280" fill="#282C2C"></path>
                <path d="M781.3021,269.2338 L808.1121,256.6748 C810.6251,255.4978 811.8001,252.5788 810.8041,249.9888 L810.8041,249.9888 C809.7031,247.1258 806.4041,245.7978 803.6261,247.0988 L776.8161,259.6578 C774.3031,260.8348 773.1281,263.7538 774.1241,266.3438 L774.1241,266.3438 C775.2251,269.2068 778.5241,270.5348 781.3021,269.2338" id="Fill-281" fill="#282C2C"></path>
            </g>
            <g id="Group-289" sketch:type="MSShapeGroup">
                <path d="M99.2358,296.2254 L193.6988,217.9814 L193.6478,35.8654 L91.2368,-0.5436 L99.2358,296.2254 Z" id="Fill-283" fill="#B2C1AC"></path>
                <path d="M929.2362,7.2835 L812.4662,33.4755 L812.7772,216.7115 L915.2362,298.2255 L929.2362,7.2835 Z" id="Fill-285" fill="#B2C1AC"></path>
                <path d="M199.2493,35.8277 L200.1793,216.5407 L806.5263,216.2117 L807.2163,33.2247 L199.2493,35.8277 Z" id="Fill-286" fill="#E5B44D"></path>
                <path d="M423.0185,213.6785 L409.4015,247.9355 L598.8915,247.7685 L587.7475,213.9185 L423.0185,213.6785 Z" id="Fill-287" fill="#B2C1AC"></path>
                <path d="M409.401,258.166 L599.658,258.166 L599.658,250.209 L409.401,250.209 L409.401,258.166 Z" id="Fill-288" fill="#292D2C"></path>
            </g>
            <g id="Group-316" sketch:type="MSShapeGroup">
                <path d="M521.0295,174.2573 C521.0295,174.2573 510.0235,185.9913 514.3665,189.5593 C518.7105,193.1283 518.8955,192.2973 518.8955,192.2973" id="Fill-290" fill="#292D2C"></path>
                <path d="M530.8421,220.4475 L526.8211,220.8005 C526.8211,220.8005 526.1371,221.4005 525.2831,221.6235 C524.4301,221.8465 522.3321,221.7565 522.5471,222.3825 C522.7611,223.0095 527.1641,222.6305 527.4991,222.6185 C527.8341,222.6065 528.9301,222.4575 528.9301,222.4575 L528.9471,222.6125 L531.2191,222.5525 C531.2191,222.5525 531.3031,220.9445 530.8421,220.4475" id="Fill-292" fill="#292D2C"></path>
                <path d="M538.5544,220.9899 L535.2594,220.7299 C535.2594,220.7299 533.8494,221.9419 532.9964,222.1659 C532.1424,222.3889 530.0444,222.2989 530.2594,222.9259 C530.4744,223.5519 534.8774,223.1739 535.2124,223.1609 C535.5464,223.1479 536.6424,222.9999 536.6424,222.9999 L536.6604,223.1549 L538.9324,223.0939 C538.9324,223.0939 539.0164,221.4869 538.5544,220.9899" id="Fill-293" fill="#292D2C"></path>
                <path d="M530.2128,205.0107 L534.6778,221.1267 L538.8928,221.9727 L540.8218,194.9097 L526.7258,193.4767 L518.7228,196.7017 L526.6288,220.8447 L531.1108,221.0447 L530.2128,205.0107 Z" id="Fill-294" fill="#A83548"></path>
                <path d="M541.8244,196.5608 C542.3114,192.6218 542.5114,184.9298 539.0414,175.1998 C533.9304,160.8648 520.9424,174.9018 520.9424,174.9018 C520.9424,174.9018 517.4074,183.9198 517.2894,190.7288 C517.2364,193.7268 517.5314,196.3068 517.8774,198.2568 L541.8244,196.5608 Z" id="Fill-295" fill="#292D2C"></path>
                <path d="M527.8011,174.7219 L524.6951,190.4899 L526.9651,194.7909 L530.6681,190.2509 L530.4291,174.4829 L527.8011,174.7219 Z" id="Fill-296" fill="#E5B44D"></path>
                <path d="M520.7343,174.6956 L529.3183,175.7686 L539.0593,175.2216 C539.0593,175.2216 540.6233,149.8756 527.8203,151.3086 C515.0183,152.7426 520.7343,174.6956 520.7343,174.6956" id="Fill-297" fill="#F0D4B1"></path>
                <path d="M540.5826,163.2543 C540.5826,164.9693 539.7536,166.3603 538.7316,166.3603 C537.7086,166.3603 536.8796,164.9693 536.8796,163.2543 C536.8796,161.5393 537.7086,160.1483 538.7316,160.1483 C539.7536,160.1483 540.5826,161.5393 540.5826,163.2543" id="Fill-298" fill="#F0D4B1"></path>
                <path d="M532.6222,154.9459 L516.7812,154.4119 C516.7812,154.4119 523.0232,146.8889 536.0042,151.0659" id="Fill-299" fill="#292D2C"></path>
                <path d="M518.9626,162.7574 C518.7866,162.7574 518.6436,162.9004 518.6436,163.0764 L518.6436,164.9474 C518.6436,165.1224 518.7866,165.2654 518.9626,165.2654 L524.6556,165.2654 C524.8316,165.2654 524.9746,165.1224 524.9746,164.9474 L524.9746,163.0764 C524.9746,162.9004 524.8316,162.7574 524.6556,162.7574 L518.9626,162.7574 Z M524.6556,165.9824 L518.9626,165.9824 C518.3916,165.9824 517.9266,165.5174 517.9266,164.9474 L517.9266,163.0764 C517.9266,162.5054 518.3916,162.0404 518.9626,162.0404 L524.6556,162.0404 C525.2266,162.0404 525.6916,162.5054 525.6916,163.0764 L525.6916,164.9474 C525.6916,165.5174 525.2266,165.9824 524.6556,165.9824 L524.6556,165.9824 Z" id="Fill-300" fill="#1D5768"></path>
                <path d="M526.7068,163.1752 C526.7068,163.1752 521.1718,165.1452 522.2868,167.9532 C522.8668,169.4132 528.3618,167.4222 528.3618,167.4222" id="Fill-301" fill="#BB817B"></path>
                <path d="M527.9216,163.5935 C527.7456,163.5935 527.6026,163.7365 527.6026,163.9125 L527.6026,165.7835 C527.6026,165.9585 527.7456,166.1015 527.9216,166.1015 L533.6146,166.1015 C533.7906,166.1015 533.9336,165.9585 533.9336,165.7835 L533.9336,163.9125 C533.9336,163.7365 533.7906,163.5935 533.6146,163.5935 L527.9216,163.5935 Z M533.6146,166.8185 L527.9216,166.8185 C527.3506,166.8185 526.8856,166.3545 526.8856,165.7835 L526.8856,163.9125 C526.8856,163.3415 527.3506,162.8765 527.9216,162.8765 L533.6146,162.8765 C534.1856,162.8765 534.6506,163.3415 534.6506,163.9125 L534.6506,165.7835 C534.6506,166.3545 534.1856,166.8185 533.6146,166.8185 L533.6146,166.8185 Z" id="Fill-302" fill="#1D5768"></path>
                <path d="M527.3615,164.1087 L525.2115,163.5117 L525.4035,162.8207 L527.5535,163.4177 L527.3615,164.1087 Z" id="Fill-303" fill="#1D5768"></path>
                <path d="M527.1055,169.5464 C527.1055,169.5464 532.4235,166.4274 532.6625,167.6224 C532.9015,168.8164 529.2375,170.8874 529.2375,170.8874" id="Fill-304" fill="#A83548"></path>
                <path d="M520.6605,174.6585 L525.0535,180.0975 L528.8765,175.6775 L520.6605,174.6585 Z" id="Fill-305" fill="#BB817B"></path>
                <path d="M528.8763,175.6775 L531.7433,180.2165 L539.1493,175.1995 L528.8763,175.6775 Z" id="Fill-306" fill="#BB817B"></path>
                <path d="M523.4692,189.4415 L523.4492,189.4365 C523.6362,189.3695 523.7882,189.2295 523.8432,189.0405 C523.9382,188.7155 523.7142,188.3745 523.3432,188.2775 L521.6532,187.8425 C521.7192,187.7755 521.7862,187.6835 521.8862,187.5935 L522.8622,186.7065 C523.1152,186.4765 523.1342,186.0845 522.9042,185.8315 C522.6742,185.5785 522.2822,185.5605 522.0292,185.7905 L520.8672,186.8475 L517.6472,188.2215 C517.6002,188.2245 517.5572,188.2335 517.5152,188.2455 L517.1242,190.1475 L521.0052,191.9935 L521.3482,192.0605 C521.6762,192.1455 522.0212,191.9505 522.1142,191.6255 C522.1322,191.5665 522.1372,191.5075 522.1362,191.4495 L522.4032,191.5185 C522.7732,191.6145 523.1502,191.4285 523.2452,191.1025 C523.2932,190.9355 523.2572,190.7655 523.1612,190.6255 C523.5202,190.7015 523.8772,190.5195 523.9682,190.2035 C524.0632,189.8785 523.8392,189.5365 523.4692,189.4415" id="Fill-307" fill="#F0D4B1"></path>
                <path d="M534.7295,184.2904 C534.7295,184.2904 533.2525,195.0644 533.3395,195.0644 C534.2955,195.0644 547.8325,196.6824 547.8325,196.6824 L549.8475,186.9834 L534.7295,184.2904 Z" id="Fill-308" fill="#FFFFFF"></path>
                <path d="M538.6505,197.1391 C538.3905,197.3571 537.9965,197.3281 537.7715,197.0751 C537.7305,197.0291 537.7015,196.9781 537.6775,196.9261 L537.4655,197.1021 C537.1725,197.3481 536.7515,197.3421 536.5265,197.0881 C536.4115,196.9581 536.3705,196.7891 536.3965,196.6211 C536.1055,196.8441 535.7045,196.8331 535.4875,196.5871 C535.2615,196.3351 535.3175,195.9301 535.6115,195.6851 L535.6275,195.6711 C535.4285,195.6921 535.2325,195.6311 535.1005,195.4831 C534.8765,195.2311 534.9315,194.8261 535.2245,194.5791 L536.5645,193.4601 C536.3305,193.4371 536.1325,193.2961 536.0615,193.0721 C535.9625,192.7451 536.1695,192.3711 536.5255,192.2371 L540.3445,192.0821 C540.3885,192.0651 540.4315,192.0551 540.4745,192.0481 L541.6435,193.5981 L538.9315,196.9311 L538.6505,197.1391 Z" id="Fill-309" fill="#E2CBA8"></path>
                <path d="M538.9106,176.0359 C538.9106,176.0359 552.2196,185.6589 547.1546,190.2639 C545.2426,192.0009 541.0716,194.3469 541.0716,194.3469 L538.7266,192.0879 L541.6806,187.8309 L538.9106,176.0359 Z" id="Fill-310" fill="#292D2C"></path>
                <path d="M527.7642,198.1316 L528.5852,194.5816 L529.7232,197.7526 L527.7642,198.1316 Z" id="Fill-311" fill="#A83548"></path>
                <path d="M525.1074,160.1651 C525.1074,160.7741 524.6134,161.2671 524.0054,161.2671 C523.3964,161.2671 522.9034,160.7741 522.9034,160.1651 L522.9034,159.5331 C522.9034,158.9241 523.3964,158.4311 524.0054,158.4311 C524.6134,158.4311 525.1074,158.9241 525.1074,159.5331 L525.1074,160.1651 Z" id="Fill-312" fill="#292D2C"></path>
                <path d="M532.3887,161.2177 C532.3887,161.8257 531.8947,162.3197 531.2867,162.3197 C530.6777,162.3197 530.1837,161.8257 530.1837,161.2177 L530.1837,160.5847 C530.1837,159.9767 530.6777,159.4837 531.2867,159.4837 C531.8947,159.4837 532.3887,159.9767 532.3887,160.5847 L532.3887,161.2177 Z" id="Fill-313" fill="#292D2C"></path>
                <path d="M538.486,159.4816 C538.486,155.4946 536.978,152.2326 535.07,151.9646 C534.706,151.6396 534.461,151.4816 534.461,151.4816 L534.077,152.1026 C533.619,152.2956 533.192,152.6606 532.814,153.1676 L533.207,153.5046 L531.388,156.4376 L535.017,155.3006 L538.228,162.2576 C538.394,161.3976 538.486,160.4626 538.486,159.4816" id="Fill-314" fill="#292D2C"></path>
                <path d="M475.1469,235.624 L474.3289,193.318 L525.1859,194.02 L522.5109,236.278 L475.1469,235.624 Z" id="Fill-315" fill="#1D5768"></path>
            </g>
            <path d="M276.1272,61.064 L415.0562,60.779 L413.4222,142.25 L284.1342,142.25 L276.1272,61.064 Z" id="Fill-318" fill="#FFFFFF" sketch:type="MSShapeGroup"></path>
            <g id="Group-322" transform="translate(323.000000, 77.000000)">
                <mask id="mask-2" sketch:name="Clip 321" fill="white">
                    <use xlink:href="#path-1"></use>
                </mask>
                <g id="Clip-321"></g>
                <path d="M5.8488,25.7914 C5.0078,25.9864 4.6738,25.5374 5.1008,24.7884 L15.5308,6.5194 L35.7768,0.8814 C36.6088,0.6494 37.2828,1.1624 37.2828,2.0254 L37.2828,16.9344 C37.2828,17.7974 36.6018,18.6554 35.7608,18.8504 L5.8488,25.7914 Z" id="Fill-320" fill="#E87E41" sketch:type="MSShapeGroup" mask="url(#mask-2)"></path>
            </g>
            <path d="M329.3271,80.6039 C328.5041,80.3439 328.0861,80.7879 328.3921,81.5939 L335.1981,99.4999 L344.6281,104.9679 L357.2541,103.4299 L357.6131,103.3869 C358.4701,103.2819 358.7651,102.6229 358.2731,101.9139 L347.4421,86.3229 L329.3271,80.6039 Z" id="Fill-323" fill="#DF4C49" sketch:type="MSShapeGroup"></path>
            <g id="Group-328" transform="translate(323.000000, 77.000000)">
                <mask id="mask-4" sketch:name="Clip 326" fill="white">
                    <use xlink:href="#path-3"></use>
                </mask>
                <g id="Clip-326"></g>
                <path d="M10.687,18.6453 L12.823,24.1663 L18.125,27.4173 C18.861,27.8683 20.152,28.1513 21.009,28.0493 C21.009,28.0493 33.924,26.5103 34.55,26.4053 C35.175,26.3013 35.383,26.0933 35.487,25.7803 L15.011,14.2183 L10.687,18.6453 Z" id="Fill-325" fill="#8F2034" sketch:type="MSShapeGroup" mask="url(#mask-4)"></path>
                <path d="M36.8421,1.0412 C34.3801,3.0472 5.1641,25.5722 4.9561,25.5722 C4.7991,25.2602 5.1121,24.7392 5.1121,24.7392 L15.5241,6.5192 L35.7481,0.8852 C35.7481,0.8852 36.3731,0.6762 36.8421,1.0412" id="Fill-327" fill="#F0AB2B" sketch:type="MSShapeGroup" mask="url(#mask-4)"></path>
            </g>
            <g id="Group-339" sketch:type="MSShapeGroup">
                <path d="M326.7353,114.5321 C326.7353,115.6601 326.6593,116.1921 326.1923,116.5181 C325.7803,116.8111 325.2273,116.8431 324.4893,116.8431 L323.7843,116.8431 C323.5233,116.8431 323.4263,116.7671 323.4263,116.4741 L323.4263,115.7361 C323.4263,115.4111 323.5233,115.3461 323.8053,115.3461 L324.3263,115.3461 C324.5223,115.3461 324.7063,115.3461 324.8043,115.2481 C324.9123,115.1401 324.9123,114.9991 324.9123,114.4781 L324.9123,110.1591 C324.9123,109.8561 324.9663,109.8231 325.3033,109.8231 L326.3663,109.8231 C326.7023,109.8231 326.7353,109.8561 326.7353,110.1591 L326.7353,114.5321 Z" id="Fill-329" fill="#0C0A09"></path>
                <path d="M330.6198,114.7057 C330.5008,114.6837 330.2508,114.6727 330.0988,114.6727 L329.9798,114.6727 C329.4808,114.6727 329.2748,114.7597 329.2748,115.1617 L329.2748,115.2047 C329.2748,115.6067 329.5018,115.7037 329.8818,115.7037 L329.9578,115.7037 C330.2078,115.7037 330.3698,115.6277 330.4678,115.5417 C330.5868,115.4327 330.6198,115.3027 330.6198,115.0097 L330.6198,114.7057 Z M330.9888,116.3987 C330.7718,116.7237 330.2508,116.9407 329.5678,116.9407 L329.4048,116.9407 C328.3198,116.9407 327.6468,116.3657 327.6468,115.2697 L327.6468,115.1507 C327.6468,113.9357 328.3308,113.5447 329.7848,113.5447 L329.8598,113.5447 C330.1428,113.5447 330.4568,113.5667 330.6198,113.5877 L330.6198,113.3607 C330.6198,113.1437 330.5868,112.9917 330.4358,112.8827 C330.3048,112.7957 330.1428,112.7637 329.7848,112.7637 C329.4048,112.7637 328.9488,112.8397 328.5258,112.9477 C328.2548,113.0127 328.1898,112.9267 328.1568,112.7417 L328.0698,112.1667 C328.0588,112.0907 328.0478,111.9927 328.0478,111.9497 C328.0478,111.8087 328.0918,111.7327 328.3088,111.6677 C328.7648,111.5377 329.4258,111.4287 330.1638,111.4287 C331.0318,111.4287 331.5968,111.6027 331.9438,111.9607 C332.2258,112.2537 332.3558,112.6767 332.3558,113.3167 L332.3558,116.5397 C332.3558,116.7567 332.2688,116.8437 331.9868,116.8437 L331.4768,116.8437 C331.2278,116.8437 331.1408,116.7887 331.0758,116.5937 L331.0108,116.3987 L330.9888,116.3987 Z" id="Fill-331" fill="#0C0A09"></path>
                <path d="M336.49,116.6262 C336.425,116.7672 336.338,116.8432 336.11,116.8432 L334.928,116.8432 C334.711,116.8432 334.602,116.7892 334.526,116.6152 C334.038,115.4872 333.257,113.3492 332.899,111.8412 C332.844,111.6132 332.953,111.5262 333.202,111.5262 L334.211,111.5262 C334.45,111.5262 334.526,111.5592 334.58,111.7762 C334.873,112.8942 335.296,114.3372 335.513,114.9772 L335.557,114.9772 C335.774,114.3152 336.164,112.9042 336.414,111.8192 C336.468,111.5812 336.533,111.5262 336.772,111.5262 L337.803,111.5262 C338.052,111.5262 338.15,111.6132 338.085,111.8412 C337.694,113.2842 336.978,115.4872 336.49,116.6262" id="Fill-332" fill="#0C0A09"></path>
                <path d="M341.4486,114.7057 C341.3296,114.6837 341.0796,114.6727 340.9276,114.6727 L340.8086,114.6727 C340.3096,114.6727 340.1036,114.7597 340.1036,115.1617 L340.1036,115.2047 C340.1036,115.6067 340.3306,115.7037 340.7106,115.7037 L340.7866,115.7037 C341.0366,115.7037 341.1986,115.6277 341.2966,115.5417 C341.4156,115.4327 341.4486,115.3027 341.4486,115.0097 L341.4486,114.7057 Z M341.8176,116.3987 C341.6006,116.7237 341.0796,116.9407 340.3966,116.9407 L340.2336,116.9407 C339.1486,116.9407 338.4756,116.3657 338.4756,115.2697 L338.4756,115.1507 C338.4756,113.9357 339.1596,113.5447 340.6136,113.5447 L340.6896,113.5447 C340.9716,113.5447 341.2856,113.5667 341.4486,113.5877 L341.4486,113.3607 C341.4486,113.1437 341.4156,112.9917 341.2646,112.8827 C341.1336,112.7957 340.9716,112.7637 340.6136,112.7637 C340.2336,112.7637 339.7776,112.8397 339.3546,112.9477 C339.0836,113.0127 339.0186,112.9267 338.9856,112.7417 L338.8986,112.1667 C338.8876,112.0907 338.8776,111.9927 338.8776,111.9497 C338.8776,111.8087 338.9206,111.7327 339.1376,111.6677 C339.5936,111.5377 340.2546,111.4287 340.9926,111.4287 C341.8606,111.4287 342.4256,111.6027 342.7726,111.9607 C343.0546,112.2537 343.1846,112.6767 343.1846,113.3167 L343.1846,116.5397 C343.1846,116.7567 343.0976,116.8437 342.8156,116.8437 L342.3056,116.8437 C342.0566,116.8437 341.9696,116.7887 341.9046,116.5937 L341.8396,116.3987 L341.8176,116.3987 Z" id="Fill-333" fill="#0C0A09"></path>
                <path d="M348.6425,115.3676 C348.9355,115.3676 349.0225,115.4436 349.0225,115.7146 L349.0225,116.4956 C349.0225,116.7886 348.9355,116.8436 348.6425,116.8436 L344.3345,116.8436 C343.9985,116.8436 343.9225,116.7566 343.9225,116.4746 L343.9225,116.1486 C343.9225,115.9106 343.9555,115.8126 344.0965,115.5846 L346.6785,111.2986 L344.4325,111.2986 C344.1395,111.2986 344.0525,111.2226 344.0525,110.9626 L344.0525,110.1706 C344.0525,109.8886 344.1395,109.8236 344.4325,109.8236 L348.6425,109.8236 C348.9025,109.8236 348.9895,109.8776 348.9895,110.1376 L348.9895,110.5066 C348.9895,110.7346 348.9465,110.8646 348.7725,111.1466 L346.1255,115.3676 L348.6425,115.3676 Z" id="Fill-334" fill="#0C0A09"></path>
                <path d="M351.4528,114.6081 C351.4528,115.0851 351.4858,115.2701 351.6478,115.4331 C351.7458,115.5301 351.8868,115.5851 352.1038,115.5851 L352.1468,115.5851 C352.3638,115.5851 352.5058,115.5301 352.6028,115.4331 C352.7658,115.2701 352.7978,115.0851 352.7978,114.6081 L352.7978,113.7621 C352.7978,113.2841 352.7658,113.1001 352.6028,112.9371 C352.5058,112.8391 352.3638,112.7851 352.1468,112.7851 L352.1038,112.7851 C351.8868,112.7851 351.7458,112.8391 351.6478,112.9371 C351.4858,113.1001 351.4528,113.2841 351.4528,113.7621 L351.4528,114.6081 Z M354.5448,114.5321 C354.5448,115.6391 354.3178,116.1601 353.8618,116.5181 C353.5468,116.7671 352.9608,116.9411 352.1908,116.9411 L352.0608,116.9411 C351.2898,116.9411 350.7038,116.7671 350.3898,116.5181 C349.9338,116.1601 349.7058,115.6391 349.7058,114.5321 L349.7058,113.8381 C349.7058,112.7311 349.9338,112.2101 350.3898,111.8521 C350.7038,111.6021 351.2898,111.4291 352.0608,111.4291 L352.1908,111.4291 C352.9608,111.4291 353.5468,111.6021 353.8618,111.8521 C354.3178,112.2101 354.5448,112.7201 354.5448,113.8271 L354.5448,114.5321 Z" id="Fill-335" fill="#0C0A09"></path>
                <path d="M358.4079,111.4289 C359.0479,111.4289 359.5039,111.5809 359.7859,111.8739 C360.0789,112.1779 360.1869,112.5789 360.1869,113.3059 L360.1869,116.5289 C360.1869,116.7349 360.1109,116.8429 359.8189,116.8429 L358.8199,116.8429 C358.5269,116.8429 358.4509,116.7349 358.4509,116.5289 L358.4509,113.4579 C358.4509,113.2089 358.4189,113.0569 358.3319,112.9589 C358.2449,112.8609 358.0719,112.8179 357.8549,112.8179 L357.7899,112.8179 C357.5729,112.8179 357.3989,112.8609 357.3119,112.9589 C357.2249,113.0569 357.1929,113.1979 357.1929,113.4579 L357.1929,116.5289 C357.1929,116.7349 357.1169,116.8429 356.8239,116.8429 L355.8259,116.8429 C355.5329,116.8429 355.4569,116.7349 355.4569,116.5289 L355.4569,111.8309 C355.4569,111.6139 355.5439,111.5269 355.8259,111.5269 L356.3359,111.5269 C356.5849,111.5269 356.6719,111.5699 356.7369,111.7759 L356.8019,111.9819 L356.8349,111.9819 C357.1819,111.6139 357.6809,111.4289 358.3209,111.4289 L358.4079,111.4289 Z" id="Fill-336" fill="#0C0A09"></path>
                <path d="M363.9634,113.6532 C364.0614,113.6532 364.0934,113.6102 364.0934,113.5122 L364.0934,113.3382 C364.0934,113.1212 364.0614,112.9592 363.9854,112.8392 C363.8874,112.6982 363.7244,112.6442 363.4864,112.6442 L363.3884,112.6442 C363.1934,112.6442 363.0304,112.6872 362.9324,112.7962 C362.8244,112.9152 362.7694,113.1002 362.7694,113.3822 L362.7694,113.6532 L363.9634,113.6532 Z M363.8984,115.5412 C364.2454,115.5412 364.7774,115.4652 365.0484,115.4002 C365.1024,115.3892 365.1784,115.3672 365.2544,115.3672 C365.3524,115.3672 365.4284,115.4432 365.4494,115.5522 L365.5364,116.0942 C365.5584,116.2032 365.5804,116.3112 365.5804,116.3872 C365.5804,116.5282 365.5254,116.6042 365.2984,116.6802 C364.8644,116.8322 364.1914,116.9412 363.6594,116.9412 L363.4534,116.9412 C362.5964,116.9412 361.9344,116.7562 361.5654,116.3872 C361.1314,115.9532 361.0234,115.4002 361.0234,114.5212 L361.0234,113.9132 C361.0234,112.8282 361.3054,112.2422 361.6744,111.9172 C362.0324,111.6022 362.5964,111.4292 363.3774,111.4292 L363.5294,111.4292 C364.3104,111.4292 364.8744,111.6462 365.1674,111.9712 C365.5474,112.3942 365.6884,112.9802 365.6884,113.9132 L365.6884,114.4782 C365.6884,114.7062 365.5914,114.7812 365.3734,114.7812 L362.7694,114.7812 L362.7694,114.8682 C362.7694,115.3782 363.0194,115.5412 363.7794,115.5412 L363.8984,115.5412 Z" id="Fill-337" fill="#0C0A09"></path>
                <path d="M623.9177,61.064 L762.8467,60.779 L754.6947,141.668 L623.0777,142.25 L623.9177,61.064 Z" id="Fill-338" fill="#FFFFFF"></path>
            </g>
            <g id="Group-342" transform="translate(671.000000, 77.000000)">
                <mask id="mask-6" sketch:name="Clip 341" fill="white">
                    <use xlink:href="#path-5"></use>
                </mask>
                <g id="Clip-341"></g>
                <path d="M5.6393,25.7914 C4.7983,25.9864 4.4643,25.5374 4.8923,24.7884 L15.3213,6.5194 L35.5673,0.8814 C36.3993,0.6494 37.0733,1.1624 37.0733,2.0254 L37.0733,16.9344 C37.0733,17.7974 36.3923,18.6554 35.5513,18.8504 L5.6393,25.7914 Z" id="Fill-340" fill="#E87E41" sketch:type="MSShapeGroup" mask="url(#mask-6)"></path>
            </g>
            <path d="M677.1176,80.6039 C676.2946,80.3439 675.8766,80.7879 676.1826,81.5939 L682.9886,99.4999 L692.4186,104.9679 L705.0446,103.4299 L705.4036,103.3869 C706.2606,103.2819 706.5556,102.6229 706.0636,101.9139 L695.2326,86.3229 L677.1176,80.6039 Z" id="Fill-343" fill="#DF4C49" sketch:type="MSShapeGroup"></path>
            <g id="Group-348" transform="translate(671.000000, 77.000000)">
                <mask id="mask-8" sketch:name="Clip 346" fill="white">
                    <use xlink:href="#path-7"></use>
                </mask>
                <g id="Clip-346"></g>
                <path d="M10.4775,18.6453 L12.6135,24.1663 L17.9155,27.4173 C18.6515,27.8683 19.9425,28.1513 20.7995,28.0493 C20.7995,28.0493 33.7145,26.5103 34.3405,26.4053 C34.9655,26.3013 35.1735,26.0933 35.2775,25.7803 L14.8015,14.2183 L10.4775,18.6453 Z" id="Fill-345" fill="#8F2034" sketch:type="MSShapeGroup" mask="url(#mask-8)"></path>
                <path d="M36.6326,1.0412 C34.1706,3.0472 4.9546,25.5722 4.7466,25.5722 C4.5896,25.2602 4.9026,24.7392 4.9026,24.7392 L15.3146,6.5192 L35.5386,0.8852 C35.5386,0.8852 36.1636,0.6762 36.6326,1.0412" id="Fill-347" fill="#F0AB2B" sketch:type="MSShapeGroup" mask="url(#mask-8)"></path>
            </g>
            <g id="Group-358" fill="#0C0A09" sketch:type="MSShapeGroup">
                <path d="M674.5258,114.5321 C674.5258,115.6601 674.4498,116.1921 673.9828,116.5181 C673.5708,116.8111 673.0178,116.8431 672.2798,116.8431 L671.5748,116.8431 C671.3138,116.8431 671.2168,116.7671 671.2168,116.4741 L671.2168,115.7361 C671.2168,115.4111 671.3138,115.3461 671.5958,115.3461 L672.1168,115.3461 C672.3128,115.3461 672.4968,115.3461 672.5948,115.2481 C672.7028,115.1401 672.7028,114.9991 672.7028,114.4781 L672.7028,110.1591 C672.7028,109.8561 672.7568,109.8231 673.0938,109.8231 L674.1568,109.8231 C674.4928,109.8231 674.5258,109.8561 674.5258,110.1591 L674.5258,114.5321 Z" id="Fill-349"></path>
                <path d="M678.4103,114.7057 C678.2913,114.6837 678.0413,114.6727 677.8893,114.6727 L677.7703,114.6727 C677.2713,114.6727 677.0653,114.7597 677.0653,115.1617 L677.0653,115.2047 C677.0653,115.6067 677.2923,115.7037 677.6723,115.7037 L677.7483,115.7037 C677.9983,115.7037 678.1603,115.6277 678.2583,115.5417 C678.3773,115.4327 678.4103,115.3027 678.4103,115.0097 L678.4103,114.7057 Z M678.7793,116.3987 C678.5623,116.7237 678.0413,116.9407 677.3583,116.9407 L677.1953,116.9407 C676.1103,116.9407 675.4373,116.3657 675.4373,115.2697 L675.4373,115.1507 C675.4373,113.9357 676.1213,113.5447 677.5753,113.5447 L677.6513,113.5447 C677.9333,113.5447 678.2473,113.5667 678.4103,113.5877 L678.4103,113.3607 C678.4103,113.1437 678.3773,112.9917 678.2263,112.8827 C678.0953,112.7957 677.9333,112.7637 677.5753,112.7637 C677.1953,112.7637 676.7393,112.8397 676.3163,112.9477 C676.0453,113.0127 675.9803,112.9267 675.9473,112.7417 L675.8603,112.1667 C675.8493,112.0907 675.8393,111.9927 675.8393,111.9497 C675.8393,111.8087 675.8823,111.7327 676.0993,111.6677 C676.5553,111.5377 677.2173,111.4287 677.9543,111.4287 C678.8223,111.4287 679.3873,111.6027 679.7343,111.9607 C680.0163,112.2537 680.1463,112.6767 680.1463,113.3167 L680.1463,116.5397 C680.1463,116.7567 680.0593,116.8437 679.7773,116.8437 L679.2673,116.8437 C679.0183,116.8437 678.9313,116.7887 678.8663,116.5937 L678.8013,116.3987 L678.7793,116.3987 Z" id="Fill-351"></path>
                <path d="M684.2805,116.6262 C684.2155,116.7672 684.1285,116.8432 683.9005,116.8432 L682.7185,116.8432 C682.5015,116.8432 682.3925,116.7892 682.3165,116.6152 C681.8285,115.4872 681.0475,113.3492 680.6895,111.8412 C680.6345,111.6132 680.7435,111.5262 680.9925,111.5262 L682.0015,111.5262 C682.2405,111.5262 682.3165,111.5592 682.3705,111.7762 C682.6635,112.8942 683.0865,114.3372 683.3035,114.9772 L683.3475,114.9772 C683.5645,114.3152 683.9545,112.9042 684.2045,111.8192 C684.2585,111.5812 684.3235,111.5262 684.5625,111.5262 L685.5935,111.5262 C685.8425,111.5262 685.9405,111.6132 685.8755,111.8412 C685.4845,113.2842 684.7685,115.4872 684.2805,116.6262" id="Fill-352"></path>
                <path d="M689.2391,114.7057 C689.1201,114.6837 688.8701,114.6727 688.7181,114.6727 L688.5991,114.6727 C688.1001,114.6727 687.8941,114.7597 687.8941,115.1617 L687.8941,115.2047 C687.8941,115.6067 688.1211,115.7037 688.5011,115.7037 L688.5771,115.7037 C688.8271,115.7037 688.9891,115.6277 689.0871,115.5417 C689.2061,115.4327 689.2391,115.3027 689.2391,115.0097 L689.2391,114.7057 Z M689.6081,116.3987 C689.3911,116.7237 688.8701,116.9407 688.1871,116.9407 L688.0241,116.9407 C686.9391,116.9407 686.2661,116.3657 686.2661,115.2697 L686.2661,115.1507 C686.2661,113.9357 686.9501,113.5447 688.4041,113.5447 L688.4801,113.5447 C688.7621,113.5447 689.0761,113.5667 689.2391,113.5877 L689.2391,113.3607 C689.2391,113.1437 689.2061,112.9917 689.0551,112.8827 C688.9241,112.7957 688.7621,112.7637 688.4041,112.7637 C688.0241,112.7637 687.5681,112.8397 687.1451,112.9477 C686.8741,113.0127 686.8091,112.9267 686.7761,112.7417 L686.6891,112.1667 C686.6781,112.0907 686.6681,111.9927 686.6681,111.9497 C686.6681,111.8087 686.7111,111.7327 686.9281,111.6677 C687.3841,111.5377 688.0451,111.4287 688.7831,111.4287 C689.6511,111.4287 690.2161,111.6027 690.5631,111.9607 C690.8451,112.2537 690.9751,112.6767 690.9751,113.3167 L690.9751,116.5397 C690.9751,116.7567 690.8881,116.8437 690.6061,116.8437 L690.0961,116.8437 C689.8471,116.8437 689.7601,116.7887 689.6951,116.5937 L689.6301,116.3987 L689.6081,116.3987 Z" id="Fill-353"></path>
                <path d="M696.433,115.3676 C696.726,115.3676 696.813,115.4436 696.813,115.7146 L696.813,116.4956 C696.813,116.7886 696.726,116.8436 696.433,116.8436 L692.125,116.8436 C691.789,116.8436 691.713,116.7566 691.713,116.4746 L691.713,116.1486 C691.713,115.9106 691.746,115.8126 691.887,115.5846 L694.469,111.2986 L692.223,111.2986 C691.93,111.2986 691.843,111.2226 691.843,110.9626 L691.843,110.1706 C691.843,109.8886 691.93,109.8236 692.223,109.8236 L696.433,109.8236 C696.693,109.8236 696.78,109.8776 696.78,110.1376 L696.78,110.5066 C696.78,110.7346 696.737,110.8646 696.563,111.1466 L693.916,115.3676 L696.433,115.3676 Z" id="Fill-354"></path>
                <path d="M699.2433,114.6081 C699.2433,115.0851 699.2763,115.2701 699.4383,115.4331 C699.5363,115.5301 699.6773,115.5851 699.8943,115.5851 L699.9373,115.5851 C700.1543,115.5851 700.2953,115.5301 700.3933,115.4331 C700.5563,115.2701 700.5883,115.0851 700.5883,114.6081 L700.5883,113.7621 C700.5883,113.2841 700.5563,113.1001 700.3933,112.9371 C700.2953,112.8391 700.1543,112.7851 699.9373,112.7851 L699.8943,112.7851 C699.6773,112.7851 699.5363,112.8391 699.4383,112.9371 C699.2763,113.1001 699.2433,113.2841 699.2433,113.7621 L699.2433,114.6081 Z M702.3353,114.5321 C702.3353,115.6391 702.1083,116.1601 701.6523,116.5181 C701.3373,116.7671 700.7513,116.9411 699.9813,116.9411 L699.8513,116.9411 C699.0803,116.9411 698.4943,116.7671 698.1803,116.5181 C697.7243,116.1601 697.4963,115.6391 697.4963,114.5321 L697.4963,113.8381 C697.4963,112.7311 697.7243,112.2101 698.1803,111.8521 C698.4943,111.6021 699.0803,111.4291 699.8513,111.4291 L699.9813,111.4291 C700.7513,111.4291 701.3373,111.6021 701.6523,111.8521 C702.1083,112.2101 702.3353,112.7201 702.3353,113.8271 L702.3353,114.5321 Z" id="Fill-355"></path>
                <path d="M706.1985,111.4289 C706.8385,111.4289 707.2945,111.5809 707.5765,111.8739 C707.8695,112.1779 707.9775,112.5789 707.9775,113.3059 L707.9775,116.5289 C707.9775,116.7349 707.9015,116.8429 707.6095,116.8429 L706.6105,116.8429 C706.3175,116.8429 706.2415,116.7349 706.2415,116.5289 L706.2415,113.4579 C706.2415,113.2089 706.2095,113.0569 706.1225,112.9589 C706.0355,112.8609 705.8625,112.8179 705.6455,112.8179 L705.5795,112.8179 C705.3625,112.8179 705.1895,112.8609 705.1025,112.9589 C705.0155,113.0569 704.9835,113.1979 704.9835,113.4579 L704.9835,116.5289 C704.9835,116.7349 704.9075,116.8429 704.6145,116.8429 L703.6165,116.8429 C703.3235,116.8429 703.2475,116.7349 703.2475,116.5289 L703.2475,111.8309 C703.2475,111.6139 703.3345,111.5269 703.6165,111.5269 L704.1265,111.5269 C704.3755,111.5269 704.4625,111.5699 704.5275,111.7759 L704.5925,111.9819 L704.6255,111.9819 C704.9725,111.6139 705.4715,111.4289 706.1115,111.4289 L706.1985,111.4289 Z" id="Fill-356"></path>
                <path d="M711.754,113.6532 C711.852,113.6532 711.884,113.6102 711.884,113.5122 L711.884,113.3382 C711.884,113.1212 711.852,112.9592 711.776,112.8392 C711.678,112.6982 711.515,112.6442 711.277,112.6442 L711.179,112.6442 C710.984,112.6442 710.821,112.6872 710.723,112.7962 C710.615,112.9152 710.56,113.1002 710.56,113.3822 L710.56,113.6532 L711.754,113.6532 Z M711.689,115.5412 C712.036,115.5412 712.568,115.4652 712.839,115.4002 C712.893,115.3892 712.969,115.3672 713.045,115.3672 C713.143,115.3672 713.219,115.4432 713.24,115.5522 L713.327,116.0942 C713.349,116.2032 713.371,116.3112 713.371,116.3872 C713.371,116.5282 713.316,116.6042 713.089,116.6802 C712.655,116.8322 711.982,116.9412 711.45,116.9412 L711.244,116.9412 C710.387,116.9412 709.725,116.7562 709.356,116.3872 C708.922,115.9532 708.814,115.4002 708.814,114.5212 L708.814,113.9132 C708.814,112.8282 709.096,112.2422 709.465,111.9172 C709.823,111.6022 710.387,111.4292 711.168,111.4292 L711.32,111.4292 C712.101,111.4292 712.665,111.6462 712.958,111.9712 C713.338,112.3942 713.479,112.9802 713.479,113.9132 L713.479,114.4782 C713.479,114.7062 713.382,114.7812 713.165,114.7812 L710.56,114.7812 L710.56,114.8682 C710.56,115.3782 710.81,115.5412 711.569,115.5412 L711.689,115.5412 Z" id="Fill-357"></path>
            </g>
            <g id="Group-366" transform="translate(364.000000, 113.000000)" sketch:type="MSShapeGroup">
                <path d="M490.8574,29.2499 L440.8754,22.0739 L437.2794,117.5489 L466.1144,126.2249 L490.8574,29.2499 Z" id="Fill-359" fill="#FFFFFF"></path>
                <path d="M434.2699,1.4487 L436.5849,28.9827 L493.8299,32.0987 L498.1729,0.0217 L434.2699,1.4487 Z" id="Fill-361" fill="#FFFFFF"></path>
                <path d="M434.2699,1.4487 L436.5849,28.9827 L493.8299,32.0987 L498.1729,0.0217 L434.2699,1.4487 L434.2699,1.4487 Z" id="Stroke-362" stroke="#E5B44D"></path>
                <path d="M452.9633,111.2569 L456.4963,99.4159 L456.1173,98.9419 L443.8643,98.9129 L445.8003,102.9699 L440.0843,106.4529 L444.6723,112.1939 L449.2163,108.1189 L452.9633,111.2569 Z" id="Fill-363" fill="#F0AB2B"></path>
                <path d="M4.3351,296.5762 L34.7631,200.1582 L243.7341,200.1582 L275.8921,296.5762 L4.3351,296.5762 Z" id="Fill-364" fill="#292D2C"></path>
                <path d="M245.778,197.3231 L32.685,197.3231 L0.467,299.4111 L279.825,299.4111 L245.778,197.3231 Z M241.693,202.9921 L271.958,293.7421 L8.201,293.7421 L36.841,202.9921 L241.693,202.9921 Z" id="Fill-365" fill="#FFFFFF"></path>
                <path d="M130.878875,229.523416 C130.878875,230.200502 130.756155,230.845841 130.510711,231.459451 C130.265267,232.073061 129.94154,232.648576 129.53952,233.186013 C129.137499,233.723451 128.680473,234.218563 128.168426,234.671365 C127.656379,235.124167 127.137992,235.532528 126.61325,235.896462 L130.624969,235.896462 L130.320281,241.177712 L118.437469,240.771462 L118.437469,236.150369 C118.886039,235.998024 119.357876,235.813944 119.852996,235.598123 C120.348116,235.382301 120.834765,235.134745 121.312957,234.855447 C121.79115,234.576149 122.243944,234.263001 122.671355,233.915994 C123.098766,233.568987 123.47539,233.190247 123.801238,232.779763 C124.127086,232.369279 124.385222,231.922832 124.575652,231.440408 C124.766083,230.957984 124.861297,230.437481 124.861297,229.878884 C124.861297,229.557268 124.804169,229.273742 124.68991,229.028298 C124.575652,228.782855 124.416962,228.577616 124.213836,228.412576 C124.01071,228.247536 123.775849,228.124816 123.509246,228.044412 C123.242643,227.964008 122.957002,227.923806 122.652312,227.923806 C122.398405,227.923806 122.14027,227.951312 121.877898,228.006326 C121.615527,228.061339 121.357392,228.139626 121.103484,228.241189 C120.849577,228.342752 120.610484,228.467588 120.386199,228.615701 C120.161914,228.763814 119.960907,228.930967 119.783172,229.117166 L118.665984,224.140603 C118.979137,223.827451 119.338834,223.565083 119.745086,223.353494 C120.151338,223.141904 120.578743,222.970519 121.027312,222.839334 C121.475882,222.708148 121.932909,222.612934 122.398406,222.553689 C122.863903,222.494444 123.32093,222.464822 123.7695,222.464822 C124.768203,222.464822 125.699183,222.64467 126.562469,223.004373 C127.425754,223.364075 128.176886,223.859187 128.815887,224.489724 C129.454887,225.120261 129.958463,225.867161 130.326629,226.730447 C130.694795,227.593732 130.878875,228.524713 130.878875,229.523416 L130.878875,229.523416 Z M147.408172,232.392556 C147.408172,233.137352 147.325653,233.877904 147.160613,234.614236 C146.995573,235.350568 146.756481,236.057266 146.443328,236.734353 C146.130176,237.41144 145.747204,238.041967 145.294402,238.625955 C144.841601,239.209942 144.323214,239.717749 143.739227,240.149392 C143.155239,240.581035 142.514132,240.919573 141.815887,241.165017 C141.117641,241.410461 140.366509,241.533181 139.562469,241.533181 C138.749965,241.533181 137.992485,241.410461 137.290008,241.165017 C136.58753,240.919573 135.946423,240.581035 135.366668,240.149392 C134.786912,239.717749 134.268526,239.209942 133.811492,238.625955 C133.354459,238.041967 132.969371,237.41144 132.656219,236.734353 C132.343066,236.057266 132.103973,235.348452 131.938934,234.607888 C131.773894,233.867325 131.691375,233.128888 131.691375,232.392556 C131.691375,231.656224 131.773894,230.915672 131.938934,230.170877 C132.103973,229.426081 132.343066,228.715151 132.656219,228.038064 C132.969371,227.360977 133.354459,226.728334 133.811492,226.140115 C134.268526,225.551896 134.786912,225.041972 135.366668,224.61033 C135.946423,224.178687 136.589646,223.840149 137.296355,223.594705 C138.003065,223.349261 138.758428,223.226541 139.562469,223.226541 C140.366509,223.226541 141.117641,223.349261 141.815887,223.594705 C142.514132,223.840149 143.155239,224.178687 143.739227,224.61033 C144.323214,225.041972 144.841601,225.551896 145.294402,226.140115 C145.747204,226.728334 146.130176,227.360977 146.443328,228.038064 C146.756481,228.715151 146.995573,229.426081 147.160613,230.170877 C147.325653,230.915672 147.408172,231.656224 147.408172,232.392556 L147.408172,232.392556 Z M142.05075,232.773416 C142.05075,232.401018 141.999969,231.986309 141.898406,231.529275 C141.796843,231.072241 141.640269,230.644837 141.42868,230.247048 C141.21709,229.84926 140.946259,229.514953 140.61618,229.244119 C140.2861,228.973284 139.892549,228.837869 139.435516,228.837869 C138.970019,228.837869 138.572236,228.973284 138.242156,229.244119 C137.912076,229.514953 137.63913,229.84926 137.423309,230.247048 C137.207487,230.644837 137.048797,231.072241 136.947234,231.529275 C136.845671,231.986309 136.794891,232.401018 136.794891,232.773416 C136.794891,233.145813 136.845671,233.560523 136.947234,234.017556 C137.048797,234.47459 137.207487,234.901994 137.423309,235.299783 C137.63913,235.697571 137.912076,236.031878 138.242156,236.302712 C138.572236,236.573547 138.970019,236.708962 139.435516,236.708962 C139.892549,236.708962 140.2861,236.573547 140.61618,236.302712 C140.946259,236.031878 141.21709,235.697571 141.42868,235.299783 C141.640269,234.901994 141.796843,234.47459 141.898406,234.017556 C141.999969,233.560523 142.05075,233.145813 142.05075,232.773416 L142.05075,232.773416 Z M161.791961,231.097634 C161.791961,231.901675 161.728485,232.712051 161.601531,233.528787 C161.474577,234.345523 161.277802,235.136856 161.011199,235.90281 C160.744596,236.668765 160.403942,237.386042 159.989227,238.054666 C159.574511,238.723289 159.079399,239.305151 158.503875,239.800271 C157.928351,240.295391 157.266086,240.686826 156.517059,240.974587 C155.768031,241.262349 154.928033,241.406228 153.997039,241.406228 C153.590787,241.406228 153.165498,241.387185 152.72116,241.349099 C152.276822,241.311013 151.836722,241.247537 151.400848,241.15867 C150.964973,241.069802 150.539684,240.947082 150.124969,240.790505 C149.710253,240.633929 149.333629,240.432922 148.995086,240.187478 L149.655242,235.38865 C149.917613,235.540995 150.213834,235.682757 150.543914,235.813943 C150.873994,235.945129 151.212532,236.061501 151.559539,236.163064 C151.906546,236.264627 152.253548,236.342914 152.600555,236.397927 C152.947562,236.452941 153.277636,236.480447 153.590789,236.480447 C154.081677,236.480447 154.506966,236.410623 154.866668,236.270974 C155.22637,236.131325 155.531055,235.930318 155.78073,235.667947 C156.030406,235.405576 156.231413,235.090312 156.383758,234.722146 C156.536102,234.35398 156.646127,233.941387 156.713836,233.484353 C156.206021,233.755188 155.672823,233.962543 155.114227,234.106423 C154.55563,234.250304 153.988578,234.322244 153.413055,234.322244 C152.702114,234.322244 152.025037,234.212219 151.381805,233.992166 C150.738572,233.772112 150.175752,233.456849 149.693328,233.046365 C149.210904,232.635881 148.825817,232.134421 148.538055,231.54197 C148.250293,230.949519 148.106414,230.276675 148.106414,229.523416 C148.106414,228.558567 148.282031,227.674136 148.63327,226.870095 C148.984508,226.066055 149.464809,225.376283 150.074187,224.800759 C150.683566,224.225236 151.405075,223.776672 152.238738,223.455056 C153.072401,223.13344 153.971644,222.972634 154.936492,222.972634 C156.11293,222.972634 157.130661,223.190568 157.989715,223.626443 C158.848769,224.062318 159.559699,224.650528 160.122527,225.391091 C160.685356,226.131655 161.104297,226.992812 161.379363,227.974587 C161.65443,228.956363 161.791961,229.997368 161.791961,231.097634 L161.791961,231.097634 Z M156.536102,229.244119 C156.536102,228.990211 156.478973,228.761698 156.364715,228.558572 C156.250456,228.355446 156.104462,228.181945 155.926727,228.038064 C155.748991,227.894183 155.545868,227.784158 155.317352,227.707986 C155.088835,227.631814 154.860321,227.593728 154.631805,227.593728 C154.403288,227.593728 154.179006,227.629698 153.958953,227.701638 C153.7389,227.773579 153.540009,227.879372 153.362273,228.019021 C153.184538,228.15867 153.042775,228.327939 152.93698,228.526834 C152.831186,228.725728 152.778289,228.947894 152.778289,229.193337 C152.778289,229.438781 152.835417,229.663063 152.949676,229.866189 C153.063934,230.069315 153.209929,230.242816 153.387664,230.386697 C153.565399,230.530578 153.768522,230.642719 153.997039,230.723123 C154.225556,230.803527 154.454069,230.843728 154.682586,230.843728 C154.911103,230.843728 155.135384,230.805643 155.355437,230.72947 C155.575491,230.653298 155.774382,230.545389 155.952117,230.40574 C156.129852,230.266091 156.271615,230.098937 156.37741,229.904275 C156.483205,229.709613 156.536102,229.489563 156.536102,229.244119 L156.536102,229.244119 Z" id="209" fill="#FFFFFF"></path>
                <path d="M119.327461,262.730494 C119.327461,263.890005 119.126454,264.903504 118.724434,265.771021 C118.322413,266.638538 117.772289,267.360048 117.074043,267.935572 C116.375797,268.511096 115.559074,268.942732 114.623848,269.230494 C113.688622,269.518256 112.683586,269.662134 111.608711,269.662134 C111.193995,269.662134 110.739085,269.607122 110.243965,269.497095 C109.748845,269.387069 109.247385,269.249538 108.73957,269.084498 C108.231755,268.919458 107.742991,268.741725 107.273262,268.551295 C106.803533,268.360864 106.386708,268.181015 106.022773,268.011744 L106.581367,262.781275 C107.300772,263.212918 108.098453,263.540877 108.974434,263.765162 C109.850415,263.989447 110.711571,264.101587 111.55793,264.101587 C111.718738,264.101587 111.913397,264.09524 112.141914,264.082545 C112.370431,264.069849 112.588365,264.031764 112.795723,263.968287 C113.00308,263.90481 113.178697,263.809596 113.322578,263.682642 C113.466459,263.555688 113.538398,263.373724 113.538398,263.136744 C113.538398,262.975936 113.487618,262.838404 113.386055,262.724146 C113.284492,262.609888 113.153308,262.51679 112.9925,262.444849 C112.831692,262.372909 112.649728,262.317896 112.446602,262.27981 C112.243476,262.241724 112.044584,262.214218 111.849922,262.197291 C111.655259,262.180363 111.473295,262.1719 111.304023,262.1719 L110.897773,262.1719 C110.169905,262.1719 109.50764,262.044948 108.910957,261.791041 C108.314274,261.537133 107.802235,261.183784 107.374824,260.730982 C106.947413,260.27818 106.615223,259.740751 106.378242,259.118677 C106.141262,258.496604 106.022773,257.821643 106.022773,257.093775 C106.022773,256.095072 106.223781,255.200062 106.625801,254.408716 C107.027821,253.617371 107.565251,252.944526 108.238105,252.390162 C108.91096,251.835797 109.683251,251.410508 110.555,251.114283 C111.426749,250.818057 112.328107,250.669947 113.259102,250.669947 C113.673817,250.669947 114.101222,250.684758 114.541328,250.71438 C114.981434,250.744003 115.419418,250.7969 115.855293,250.873072 C116.291168,250.949244 116.716456,251.046574 117.131172,251.165064 C117.545887,251.283554 117.939438,251.431665 118.311836,251.6094 L117.829414,256.763697 C117.25389,256.569034 116.650869,256.406113 116.020332,256.274927 C115.389795,256.143742 114.774079,256.07815 114.173164,256.07815 C114.063137,256.07815 113.921375,256.080266 113.747871,256.084498 C113.574368,256.088729 113.392403,256.101425 113.201973,256.122584 C113.011542,256.143743 112.818998,256.175481 112.624336,256.217798 C112.429674,256.260116 112.256173,256.317245 112.103828,256.389185 C111.951484,256.461126 111.828763,256.55634 111.735664,256.67483 C111.642565,256.79332 111.600247,256.932967 111.608711,257.093775 C111.617175,257.279974 111.686998,257.4302 111.818184,257.544459 C111.949369,257.658717 112.118638,257.747583 112.325996,257.81106 C112.533354,257.874537 112.761867,257.91897 113.011543,257.944361 C113.261219,257.969752 113.508775,257.984563 113.754219,257.988795 C113.999663,257.993026 114.228176,257.993026 114.439766,257.988795 C114.651355,257.984563 114.824856,257.99091 114.960273,258.007837 C115.63736,258.050155 116.246729,258.194034 116.788398,258.439478 C117.330068,258.684922 117.78921,259.010765 118.16584,259.417017 C118.542469,259.823269 118.830227,260.307802 119.029121,260.87063 C119.228015,261.433459 119.327461,262.053407 119.327461,262.730494 L119.327461,262.730494 Z M132.149727,251.177759 C132.098945,251.973336 132.052396,252.760438 132.010078,253.539087 C131.96776,254.317737 131.912748,255.104839 131.845039,255.900416 L126.462227,256.179712 L126.335273,257.779322 L130.118477,257.779322 L129.83918,261.714869 L126.030586,261.841822 L125.903633,263.695337 L129.05207,263.695337 L131.286445,263.695337 C131.235664,264.626332 131.182767,265.550964 131.127754,266.469263 C131.072741,267.387562 131.024076,268.307963 130.981758,269.230494 L120.038398,269.4844 L120.444648,251.177759 L132.149727,251.177759 Z M148.590156,268.392603 L142.293281,269.205103 L141.531563,266.335962 L138.637031,266.335962 L138.002266,269.205103 L131.527656,268.570337 L136.580391,251.660181 L143.638984,251.304712 L148.590156,268.392603 Z M141.074531,262.451197 L140.109688,258.033228 L139.170234,262.451197 L141.074531,262.451197 Z M159.272256,251.330103 L159.145303,256.712916 L155.3621,256.865259 L154.397256,268.900416 L149.039834,269.179712 L149.065225,257.144556 L145.282022,257.347681 L145.434366,251.355494 L159.272256,251.330103 Z M172.970498,262.730494 C172.970498,263.890005 172.769491,264.903504 172.367471,265.771021 C171.965451,266.638538 171.415326,267.360048 170.71708,267.935572 C170.018835,268.511096 169.202111,268.942732 168.266885,269.230494 C167.331659,269.518256 166.326624,269.662134 165.251748,269.662134 C164.837033,269.662134 164.382122,269.607122 163.887002,269.497095 C163.391883,269.387069 162.890423,269.249538 162.382608,269.084498 C161.874793,268.919458 161.386028,268.741725 160.916299,268.551295 C160.44657,268.360864 160.029745,268.181015 159.665811,268.011744 L160.224405,262.781275 C160.943809,263.212918 161.74149,263.540877 162.617471,263.765162 C163.493452,263.989447 164.354609,264.101587 165.200967,264.101587 C165.361775,264.101587 165.556435,264.09524 165.784952,264.082545 C166.013468,264.069849 166.231402,264.031764 166.43876,263.968287 C166.646118,263.90481 166.821735,263.809596 166.965616,263.682642 C167.109497,263.555688 167.181436,263.373724 167.181436,263.136744 C167.181436,262.975936 167.130655,262.838404 167.029092,262.724146 C166.927529,262.609888 166.796346,262.51679 166.635537,262.444849 C166.474729,262.372909 166.292765,262.317896 166.089639,262.27981 C165.886513,262.241724 165.687622,262.214218 165.492959,262.197291 C165.298297,262.180363 165.116333,262.1719 164.947061,262.1719 L164.540811,262.1719 C163.812943,262.1719 163.150677,262.044948 162.553995,261.791041 C161.957312,261.537133 161.445273,261.183784 161.017862,260.730982 C160.590451,260.27818 160.25826,259.740751 160.02128,259.118677 C159.784299,258.496604 159.665811,257.821643 159.665811,257.093775 C159.665811,256.095072 159.866818,255.200062 160.268838,254.408716 C160.670859,253.617371 161.208288,252.944526 161.881143,252.390162 C162.553998,251.835797 163.326288,251.410508 164.198037,251.114283 C165.069787,250.818057 165.971145,250.669947 166.902139,250.669947 C167.316855,250.669947 167.744259,250.684758 168.184366,250.71438 C168.624472,250.744003 169.062456,250.7969 169.49833,250.873072 C169.934205,250.949244 170.359494,251.046574 170.774209,251.165064 C171.188925,251.283554 171.582476,251.431665 171.954873,251.6094 L171.472452,256.763697 C170.896928,256.569034 170.293907,256.406113 169.66337,256.274927 C169.032833,256.143742 168.417116,256.07815 167.816202,256.07815 C167.706175,256.07815 167.564412,256.080266 167.390909,256.084498 C167.217405,256.088729 167.035441,256.101425 166.84501,256.122584 C166.65458,256.143743 166.462036,256.175481 166.267373,256.217798 C166.072711,256.260116 165.89921,256.317245 165.746866,256.389185 C165.594521,256.461126 165.471801,256.55634 165.378702,256.67483 C165.285602,256.79332 165.243285,256.932967 165.251748,257.093775 C165.260212,257.279974 165.330036,257.4302 165.461221,257.544459 C165.592407,257.658717 165.761676,257.747583 165.969034,257.81106 C166.176391,257.874537 166.404905,257.91897 166.65458,257.944361 C166.904256,257.969752 167.151812,257.984563 167.397256,257.988795 C167.6427,257.993026 167.871214,257.993026 168.082803,257.988795 C168.294393,257.984563 168.467894,257.99091 168.603311,258.007837 C169.280398,258.050155 169.889767,258.194034 170.431436,258.439478 C170.973105,258.684922 171.432248,259.010765 171.808877,259.417017 C172.185507,259.823269 172.473264,260.307802 172.672159,260.87063 C172.871053,261.433459 172.970498,262.053407 172.970498,262.730494 L172.970498,262.730494 Z" id="SEATS" fill="#FFFFFF"></path>
                <path d="M455.279236,5.79288389 C455.234557,6.49285998 455.193601,7.18537913 455.156368,7.87046211 C455.119136,8.55554509 455.070734,9.24806424 455.011161,9.94804033 L450.275176,10.1937754 L450.163479,11.6011671 L453.492072,11.6011671 L453.246337,15.0637975 L449.895404,15.1754952 L449.783706,16.8062824 L452.553811,16.8062824 L454.519691,16.8062824 C454.475012,17.6254034 454.428472,18.4389272 454.380069,19.2468783 C454.331666,20.0548295 454.288849,20.8646301 454.251617,21.6763045 L444.62327,21.8997 L444.980703,5.79288389 L455.279236,5.79288389 Z M469.107418,6.2396749 L464.751205,13.8127826 L468.459571,20.4029501 L463.790605,21.8550209 L461.780045,17.2977525 L459.412053,21.8773604 L454.58671,20.1348755 L458.697187,13.6564058 L454.944143,6.84284277 L460.0599,5.61416748 L461.891743,10.1044172 L463.835284,5.61416748 L469.107418,6.2396749 Z M475.150266,6.17265625 L473.921591,21.3858903 L469.207946,21.6316254 L469.207946,6.48540996 L475.150266,6.17265625 Z M487.727433,5.92692119 L487.615736,10.662906 L484.287143,10.7969433 L483.43824,21.3858903 L478.724594,21.6316254 L478.746934,11.0426783 L475.418341,11.2213947 L475.552378,5.94926074 L487.727433,5.92692119 Z" id="EXIT" fill="#292D2C"></path>
            </g>
            <path d="M509.677785,205.06287 C509.677785,206.044091 509.499942,206.979303 509.144249,207.868535 C508.788556,208.757766 508.319417,209.591792 507.736817,210.370636 C507.154217,211.14948 506.491903,211.866987 505.749854,212.523179 C505.007806,213.17937 504.25657,213.77116 503.496123,214.298567 L509.309829,214.298567 L508.868282,221.952053 L491.647938,221.363323 L491.647938,214.666523 C492.297997,214.445748 492.981776,214.178983 493.699293,213.866218 C494.416811,213.553454 495.122053,213.194701 495.815041,212.789947 C496.508028,212.385193 497.16421,211.931385 497.783606,211.42851 C498.403001,210.925634 498.948798,210.376771 499.42101,209.781906 C499.893223,209.187041 500.267308,208.540058 500.543276,207.840938 C500.819245,207.141818 500.957227,206.387516 500.957227,205.578008 C500.957227,205.111928 500.874437,204.701048 500.708856,204.345356 C500.543275,203.989663 500.313305,203.692235 500.018939,203.453062 C499.724572,203.213889 499.384216,203.036046 498.997861,202.919526 C498.611505,202.803006 498.197558,202.744747 497.756009,202.744747 C497.388051,202.744747 497.013966,202.784608 496.633743,202.864332 C496.25352,202.944057 495.879435,203.057509 495.511477,203.204692 C495.143519,203.351875 494.797031,203.532785 494.472001,203.747427 C494.146972,203.962069 493.855676,204.204304 493.598106,204.47414 L491.979099,197.262201 C492.432914,196.808387 492.95418,196.428169 493.542912,196.121538 C494.131645,195.814906 494.751031,195.566538 495.40109,195.376427 C496.051149,195.186315 496.713463,195.048333 497.388053,194.962476 C498.062642,194.876619 498.724957,194.833692 499.375016,194.833692 C500.822317,194.833692 502.171475,195.094324 503.422532,195.615598 C504.673589,196.136872 505.762115,196.854379 506.688142,197.768141 C507.61417,198.681903 508.343942,199.764296 508.877481,201.015353 C509.41102,202.26641 509.677785,203.615569 509.677785,205.06287 L509.677785,205.06287 Z" id="2" fill="#FFFFFF" sketch:type="MSShapeGroup"></path>
        </g>
    </g>
</svg>