<?xml version="1.0" encoding="UTF-8" standalone="no"?>
<svg width="839px" height="438px" viewBox="0 0 839 438" version="1.1" xmlns="http://www.w3.org/2000/svg" xmlns:xlink="http://www.w3.org/1999/xlink" xmlns:sketch="http://www.bohemiancoding.com/sketch/ns">
    <!-- Generator: Sketch 3.3.3 (12072) - http://www.bohemiancoding.com/sketch -->
    <title>Salillustrasjoner</title>
    <desc>Created with Sketch.</desc>
    <defs>
        <path id="path-1" d="M0.426,39.941 L42.689,39.941 L42.689,0.826 L0.426,0.826 L0.426,39.941 Z"></path>
        <path id="path-3" d="M0.426,39.941 L42.689,39.941 L42.689,0.826 L0.426,0.826 L0.426,39.941 Z"></path>
        <path id="path-5" d="M0.216,39.941 L42.479,39.941 L42.479,0.826 L0.216,0.826 L0.216,39.941 Z"></path>
        <path id="path-7" d="M0.216,39.941 L42.479,39.941 L42.479,0.826 L0.216,0.826 L0.216,39.941 Z"></path>
    </defs>
    <g id="Page-3" stroke="none" stroke-width="1" fill="none" fill-rule="evenodd" sketch:type="MSPage">
        <g id="Salillustrasjoner" sketch:type="MSLayerGroup" transform="translate(-91.000000, 0.000000)">
            <g id="Group-375" sketch:type="MSShapeGroup">
                <path d="M868.9164,337.1987 L903.0534,321.2077 C906.2534,319.7087 907.7494,315.9917 906.4814,312.6937 L906.4814,312.6937 C905.0794,309.0487 900.8784,307.3567 897.3414,309.0137 L863.2044,325.0057 C860.0054,326.5037 858.5084,330.2217 859.7764,333.5187 L859.7764,333.5187 C861.1794,337.1647 865.3794,338.8557 868.9164,337.1987" id="Fill-368" fill="#292D2C"></path>
                <path d="M836.1206,398.9337 L876.0046,380.2507 C879.7426,378.4997 881.4916,374.1567 880.0096,370.3037 L880.0096,370.3037 C878.3716,366.0437 873.4636,364.0687 869.3316,366.0047 L829.4476,384.6877 C825.7086,386.4387 823.9606,390.7817 825.4426,394.6347 L825.4426,394.6347 C827.0806,398.8937 831.9876,400.8697 836.1206,398.9337" id="Fill-370" fill="#292D2C"></path>
                <path d="M91.2363,-0.5433 L193.6473,35.8657 L193.6993,217.9807 L99.2363,296.2257 L91.2363,-0.5433 Z" id="Fill-371" fill="#B2C1AC"></path>
                <path d="M929.2363,7.2835 L812.4663,33.4755 L812.7773,216.7115 L915.2363,298.2255 L929.2363,7.2835 Z" id="Fill-372" fill="#B2C1AC"></path>
                <path d="M199.2494,35.8277 L200.1794,216.5407 L806.5264,216.2117 L807.2164,33.2247 L199.2494,35.8277 Z" id="Fill-373" fill="#E5B44D"></path>
                <path d="M276.1273,61.064 L415.0553,60.779 L413.4223,142.25 L284.1343,142.25 L276.1273,61.064 Z" id="Fill-374" fill="#FFFFFF"></path>
            </g>
            <g id="Group-378" transform="translate(323.000000, 77.000000)">
                <mask id="mask-2" sketch:name="Clip 377" fill="white">
                    <use xlink:href="#path-1"></use>
                </mask>
                <g id="Clip-377"></g>
                <path d="M5.8488,25.7914 C5.0078,25.9864 4.6738,25.5374 5.1008,24.7884 L15.5308,6.5194 L35.7768,0.8814 C36.6088,0.6494 37.2828,1.1624 37.2828,2.0254 L37.2828,16.9344 C37.2828,17.7974 36.6018,18.6554 35.7608,18.8504 L5.8488,25.7914 Z" id="Fill-376" fill="#E87E41" sketch:type="MSShapeGroup" mask="url(#mask-2)"></path>
            </g>
            <path d="M329.3271,80.6039 C328.5041,80.3439 328.0861,80.7879 328.3921,81.5939 L335.1981,99.4999 L344.6281,104.9679 L357.2541,103.4299 L357.6131,103.3869 C358.4701,103.2819 358.7651,102.6229 358.2731,101.9139 L347.4421,86.3229 L329.3271,80.6039 Z" id="Fill-379" fill="#DF4C49" sketch:type="MSShapeGroup"></path>
            <g id="Group-384" transform="translate(323.000000, 77.000000)">
                <mask id="mask-4" sketch:name="Clip 382" fill="white">
                    <use xlink:href="#path-3"></use>
                </mask>
                <g id="Clip-382"></g>
                <path d="M10.687,18.6453 L12.823,24.1663 L18.125,27.4173 C18.861,27.8683 20.152,28.1513 21.009,28.0493 C21.009,28.0493 33.924,26.5103 34.55,26.4053 C35.175,26.3013 35.383,26.0933 35.487,25.7803 L15.011,14.2183 L10.687,18.6453 Z" id="Fill-381" fill="#8F2034" sketch:type="MSShapeGroup" mask="url(#mask-4)"></path>
                <path d="M36.8421,1.0412 C34.3801,3.0472 5.1641,25.5722 4.9561,25.5722 C4.7991,25.2602 5.1121,24.7392 5.1121,24.7392 L15.5241,6.5192 L35.7481,0.8852 C35.7481,0.8852 36.3731,0.6762 36.8421,1.0412" id="Fill-383" fill="#F0AB2B" sketch:type="MSShapeGroup" mask="url(#mask-4)"></path>
            </g>
            <g id="Group-395" sketch:type="MSShapeGroup">
                <path d="M326.7353,114.5321 C326.7353,115.6601 326.6593,116.1921 326.1923,116.5181 C325.7803,116.8111 325.2273,116.8431 324.4893,116.8431 L323.7843,116.8431 C323.5233,116.8431 323.4263,116.7671 323.4263,116.4741 L323.4263,115.7361 C323.4263,115.4111 323.5233,115.3461 323.8053,115.3461 L324.3263,115.3461 C324.5223,115.3461 324.7063,115.3461 324.8043,115.2481 C324.9123,115.1401 324.9123,114.9991 324.9123,114.4781 L324.9123,110.1591 C324.9123,109.8561 324.9663,109.8231 325.3033,109.8231 L326.3663,109.8231 C326.7023,109.8231 326.7353,109.8561 326.7353,110.1591 L326.7353,114.5321 Z" id="Fill-385" fill="#0C0A09"></path>
                <path d="M330.6198,114.7057 C330.5008,114.6837 330.2508,114.6727 330.0988,114.6727 L329.9798,114.6727 C329.4808,114.6727 329.2748,114.7597 329.2748,115.1617 L329.2748,115.2047 C329.2748,115.6067 329.5018,115.7037 329.8818,115.7037 L329.9578,115.7037 C330.2078,115.7037 330.3698,115.6277 330.4678,115.5417 C330.5868,115.4327 330.6198,115.3027 330.6198,115.0097 L330.6198,114.7057 Z M330.9888,116.3987 C330.7718,116.7237 330.2508,116.9407 329.5678,116.9407 L329.4048,116.9407 C328.3198,116.9407 327.6468,116.3657 327.6468,115.2697 L327.6468,115.1507 C327.6468,113.9357 328.3308,113.5447 329.7848,113.5447 L329.8598,113.5447 C330.1428,113.5447 330.4568,113.5667 330.6198,113.5877 L330.6198,113.3607 C330.6198,113.1437 330.5868,112.9917 330.4358,112.8827 C330.3048,112.7957 330.1428,112.7637 329.7848,112.7637 C329.4048,112.7637 328.9488,112.8397 328.5258,112.9477 C328.2548,113.0127 328.1898,112.9267 328.1568,112.7417 L328.0698,112.1667 C328.0588,112.0907 328.0478,111.9927 328.0478,111.9497 C328.0478,111.8087 328.0918,111.7327 328.3088,111.6677 C328.7648,111.5377 329.4258,111.4287 330.1638,111.4287 C331.0318,111.4287 331.5968,111.6027 331.9438,111.9607 C332.2258,112.2537 332.3558,112.6767 332.3558,113.3167 L332.3558,116.5397 C332.3558,116.7567 332.2688,116.8437 331.9868,116.8437 L331.4768,116.8437 C331.2278,116.8437 331.1408,116.7887 331.0758,116.5937 L331.0108,116.3987 L330.9888,116.3987 Z" id="Fill-387" fill="#0C0A09"></path>
                <path d="M336.49,116.6262 C336.425,116.7672 336.338,116.8432 336.11,116.8432 L334.928,116.8432 C334.711,116.8432 334.602,116.7892 334.526,116.6152 C334.038,115.4872 333.257,113.3492 332.899,111.8412 C332.844,111.6132 332.953,111.5262 333.202,111.5262 L334.211,111.5262 C334.45,111.5262 334.526,111.5592 334.58,111.7762 C334.873,112.8942 335.296,114.3372 335.513,114.9772 L335.557,114.9772 C335.774,114.3152 336.164,112.9042 336.414,111.8192 C336.468,111.5812 336.533,111.5262 336.772,111.5262 L337.803,111.5262 C338.052,111.5262 338.15,111.6132 338.085,111.8412 C337.694,113.2842 336.978,115.4872 336.49,116.6262" id="Fill-388" fill="#0C0A09"></path>
                <path d="M341.4486,114.7057 C341.3296,114.6837 341.0796,114.6727 340.9276,114.6727 L340.8086,114.6727 C340.3096,114.6727 340.1036,114.7597 340.1036,115.1617 L340.1036,115.2047 C340.1036,115.6067 340.3306,115.7037 340.7106,115.7037 L340.7866,115.7037 C341.0366,115.7037 341.1986,115.6277 341.2966,115.5417 C341.4156,115.4327 341.4486,115.3027 341.4486,115.0097 L341.4486,114.7057 Z M341.8176,116.3987 C341.6006,116.7237 341.0796,116.9407 340.3966,116.9407 L340.2336,116.9407 C339.1486,116.9407 338.4756,116.3657 338.4756,115.2697 L338.4756,115.1507 C338.4756,113.9357 339.1596,113.5447 340.6136,113.5447 L340.6896,113.5447 C340.9716,113.5447 341.2856,113.5667 341.4486,113.5877 L341.4486,113.3607 C341.4486,113.1437 341.4156,112.9917 341.2646,112.8827 C341.1336,112.7957 340.9716,112.7637 340.6136,112.7637 C340.2336,112.7637 339.7776,112.8397 339.3546,112.9477 C339.0836,113.0127 339.0186,112.9267 338.9856,112.7417 L338.8986,112.1667 C338.8876,112.0907 338.8776,111.9927 338.8776,111.9497 C338.8776,111.8087 338.9206,111.7327 339.1376,111.6677 C339.5936,111.5377 340.2546,111.4287 340.9926,111.4287 C341.8606,111.4287 342.4256,111.6027 342.7726,111.9607 C343.0546,112.2537 343.1846,112.6767 343.1846,113.3167 L343.1846,116.5397 C343.1846,116.7567 343.0976,116.8437 342.8156,116.8437 L342.3056,116.8437 C342.0566,116.8437 341.9696,116.7887 341.9046,116.5937 L341.8396,116.3987 L341.8176,116.3987 Z" id="Fill-389" fill="#0C0A09"></path>
                <path d="M348.6425,115.3676 C348.9355,115.3676 349.0225,115.4436 349.0225,115.7146 L349.0225,116.4956 C349.0225,116.7886 348.9355,116.8436 348.6425,116.8436 L344.3345,116.8436 C343.9985,116.8436 343.9225,116.7566 343.9225,116.4746 L343.9225,116.1486 C343.9225,115.9106 343.9555,115.8126 344.0965,115.5846 L346.6785,111.2986 L344.4325,111.2986 C344.1395,111.2986 344.0525,111.2226 344.0525,110.9626 L344.0525,110.1706 C344.0525,109.8886 344.1395,109.8236 344.4325,109.8236 L348.6425,109.8236 C348.9025,109.8236 348.9895,109.8776 348.9895,110.1376 L348.9895,110.5066 C348.9895,110.7346 348.9465,110.8646 348.7725,111.1466 L346.1255,115.3676 L348.6425,115.3676 Z" id="Fill-390" fill="#0C0A09"></path>
                <path d="M351.4528,114.6081 C351.4528,115.0851 351.4858,115.2701 351.6478,115.4331 C351.7458,115.5301 351.8868,115.5851 352.1038,115.5851 L352.1468,115.5851 C352.3638,115.5851 352.5058,115.5301 352.6028,115.4331 C352.7658,115.2701 352.7978,115.0851 352.7978,114.6081 L352.7978,113.7621 C352.7978,113.2841 352.7658,113.1001 352.6028,112.9371 C352.5058,112.8391 352.3638,112.7851 352.1468,112.7851 L352.1038,112.7851 C351.8868,112.7851 351.7458,112.8391 351.6478,112.9371 C351.4858,113.1001 351.4528,113.2841 351.4528,113.7621 L351.4528,114.6081 Z M354.5448,114.5321 C354.5448,115.6391 354.3178,116.1601 353.8618,116.5181 C353.5468,116.7671 352.9608,116.9411 352.1908,116.9411 L352.0608,116.9411 C351.2898,116.9411 350.7038,116.7671 350.3898,116.5181 C349.9338,116.1601 349.7058,115.6391 349.7058,114.5321 L349.7058,113.8381 C349.7058,112.7311 349.9338,112.2101 350.3898,111.8521 C350.7038,111.6021 351.2898,111.4291 352.0608,111.4291 L352.1908,111.4291 C352.9608,111.4291 353.5468,111.6021 353.8618,111.8521 C354.3178,112.2101 354.5448,112.7201 354.5448,113.8271 L354.5448,114.5321 Z" id="Fill-391" fill="#0C0A09"></path>
                <path d="M358.4079,111.4289 C359.0479,111.4289 359.5039,111.5809 359.7859,111.8739 C360.0789,112.1779 360.1869,112.5789 360.1869,113.3059 L360.1869,116.5289 C360.1869,116.7349 360.1109,116.8429 359.8189,116.8429 L358.8199,116.8429 C358.5269,116.8429 358.4509,116.7349 358.4509,116.5289 L358.4509,113.4579 C358.4509,113.2089 358.4189,113.0569 358.3319,112.9589 C358.2449,112.8609 358.0719,112.8179 357.8549,112.8179 L357.7899,112.8179 C357.5729,112.8179 357.3989,112.8609 357.3119,112.9589 C357.2249,113.0569 357.1929,113.1979 357.1929,113.4579 L357.1929,116.5289 C357.1929,116.7349 357.1169,116.8429 356.8239,116.8429 L355.8259,116.8429 C355.5329,116.8429 355.4569,116.7349 355.4569,116.5289 L355.4569,111.8309 C355.4569,111.6139 355.5439,111.5269 355.8259,111.5269 L356.3359,111.5269 C356.5849,111.5269 356.6719,111.5699 356.7369,111.7759 L356.8019,111.9819 L356.8349,111.9819 C357.1819,111.6139 357.6809,111.4289 358.3209,111.4289 L358.4079,111.4289 Z" id="Fill-392" fill="#0C0A09"></path>
                <path d="M363.9634,113.6532 C364.0614,113.6532 364.0934,113.6102 364.0934,113.5122 L364.0934,113.3382 C364.0934,113.1212 364.0614,112.9592 363.9854,112.8392 C363.8874,112.6982 363.7244,112.6442 363.4864,112.6442 L363.3884,112.6442 C363.1934,112.6442 363.0304,112.6872 362.9324,112.7962 C362.8244,112.9152 362.7694,113.1002 362.7694,113.3822 L362.7694,113.6532 L363.9634,113.6532 Z M363.8984,115.5412 C364.2454,115.5412 364.7774,115.4652 365.0484,115.4002 C365.1024,115.3892 365.1784,115.3672 365.2544,115.3672 C365.3524,115.3672 365.4284,115.4432 365.4494,115.5522 L365.5364,116.0942 C365.5584,116.2032 365.5804,116.3112 365.5804,116.3872 C365.5804,116.5282 365.5254,116.6042 365.2984,116.6802 C364.8644,116.8322 364.1914,116.9412 363.6594,116.9412 L363.4534,116.9412 C362.5964,116.9412 361.9344,116.7562 361.5654,116.3872 C361.1314,115.9532 361.0234,115.4002 361.0234,114.5212 L361.0234,113.9132 C361.0234,112.8282 361.3054,112.2422 361.6744,111.9172 C362.0324,111.6022 362.5964,111.4292 363.3774,111.4292 L363.5294,111.4292 C364.3104,111.4292 364.8744,111.6462 365.1674,111.9712 C365.5474,112.3942 365.6884,112.9802 365.6884,113.9132 L365.6884,114.4782 C365.6884,114.7062 365.5914,114.7812 365.3734,114.7812 L362.7694,114.7812 L362.7694,114.8682 C362.7694,115.3782 363.0194,115.5412 363.7794,115.5412 L363.8984,115.5412 Z" id="Fill-393" fill="#0C0A09"></path>
                <path d="M623.9178,61.064 L762.8468,60.779 L754.6948,141.668 L623.0778,142.25 L623.9178,61.064 Z" id="Fill-394" fill="#FFFFFF"></path>
            </g>
            <g id="Group-398" transform="translate(671.000000, 77.000000)">
                <mask id="mask-6" sketch:name="Clip 397" fill="white">
                    <use xlink:href="#path-5"></use>
                </mask>
                <g id="Clip-397"></g>
                <path d="M5.6393,25.7914 C4.7983,25.9864 4.4643,25.5374 4.8923,24.7884 L15.3213,6.5194 L35.5673,0.8814 C36.3993,0.6494 37.0733,1.1624 37.0733,2.0254 L37.0733,16.9344 C37.0733,17.7974 36.3923,18.6554 35.5513,18.8504 L5.6393,25.7914 Z" id="Fill-396" fill="#E87E41" sketch:type="MSShapeGroup" mask="url(#mask-6)"></path>
            </g>
            <path d="M677.1176,80.6039 C676.2946,80.3439 675.8766,80.7879 676.1826,81.5939 L682.9886,99.4999 L692.4186,104.9679 L705.0446,103.4299 L705.4036,103.3869 C706.2606,103.2819 706.5556,102.6229 706.0636,101.9139 L695.2326,86.3229 L677.1176,80.6039 Z" id="Fill-399" fill="#DF4C49" sketch:type="MSShapeGroup"></path>
            <g id="Group-404" transform="translate(671.000000, 77.000000)">
                <mask id="mask-8" sketch:name="Clip 402" fill="white">
                    <use xlink:href="#path-7"></use>
                </mask>
                <g id="Clip-402"></g>
                <path d="M10.4775,18.6453 L12.6135,24.1663 L17.9155,27.4173 C18.6515,27.8683 19.9425,28.1513 20.7995,28.0493 C20.7995,28.0493 33.7145,26.5103 34.3405,26.4053 C34.9655,26.3013 35.1735,26.0933 35.2775,25.7803 L14.8015,14.2183 L10.4775,18.6453 Z" id="Fill-401" fill="#8F2034" sketch:type="MSShapeGroup" mask="url(#mask-8)"></path>
                <path d="M36.6326,1.0412 C34.1706,3.0472 4.9546,25.5722 4.7466,25.5722 C4.5896,25.2602 4.9026,24.7392 4.9026,24.7392 L15.3146,6.5192 L35.5386,0.8852 C35.5386,0.8852 36.1636,0.6762 36.6326,1.0412" id="Fill-403" fill="#F0AB2B" sketch:type="MSShapeGroup" mask="url(#mask-8)"></path>
            </g>
            <g id="Group-417" sketch:type="MSShapeGroup">
                <path d="M674.5258,114.5321 C674.5258,115.6601 674.4498,116.1921 673.9828,116.5181 C673.5708,116.8111 673.0178,116.8431 672.2798,116.8431 L671.5748,116.8431 C671.3138,116.8431 671.2168,116.7671 671.2168,116.4741 L671.2168,115.7361 C671.2168,115.4111 671.3138,115.3461 671.5958,115.3461 L672.1168,115.3461 C672.3128,115.3461 672.4968,115.3461 672.5948,115.2481 C672.7028,115.1401 672.7028,114.9991 672.7028,114.4781 L672.7028,110.1591 C672.7028,109.8561 672.7568,109.8231 673.0938,109.8231 L674.1568,109.8231 C674.4928,109.8231 674.5258,109.8561 674.5258,110.1591 L674.5258,114.5321 Z" id="Fill-405" fill="#0C0A09"></path>
                <path d="M678.4103,114.7057 C678.2913,114.6837 678.0413,114.6727 677.8893,114.6727 L677.7703,114.6727 C677.2713,114.6727 677.0653,114.7597 677.0653,115.1617 L677.0653,115.2047 C677.0653,115.6067 677.2923,115.7037 677.6723,115.7037 L677.7483,115.7037 C677.9983,115.7037 678.1603,115.6277 678.2583,115.5417 C678.3773,115.4327 678.4103,115.3027 678.4103,115.0097 L678.4103,114.7057 Z M678.7793,116.3987 C678.5623,116.7237 678.0413,116.9407 677.3583,116.9407 L677.1953,116.9407 C676.1103,116.9407 675.4373,116.3657 675.4373,115.2697 L675.4373,115.1507 C675.4373,113.9357 676.1213,113.5447 677.5753,113.5447 L677.6513,113.5447 C677.9333,113.5447 678.2473,113.5667 678.4103,113.5877 L678.4103,113.3607 C678.4103,113.1437 678.3773,112.9917 678.2263,112.8827 C678.0953,112.7957 677.9333,112.7637 677.5753,112.7637 C677.1953,112.7637 676.7393,112.8397 676.3163,112.9477 C676.0453,113.0127 675.9803,112.9267 675.9473,112.7417 L675.8603,112.1667 C675.8493,112.0907 675.8393,111.9927 675.8393,111.9497 C675.8393,111.8087 675.8823,111.7327 676.0993,111.6677 C676.5553,111.5377 677.2173,111.4287 677.9543,111.4287 C678.8223,111.4287 679.3873,111.6027 679.7343,111.9607 C680.0163,112.2537 680.1463,112.6767 680.1463,113.3167 L680.1463,116.5397 C680.1463,116.7567 680.0593,116.8437 679.7773,116.8437 L679.2673,116.8437 C679.0183,116.8437 678.9313,116.7887 678.8663,116.5937 L678.8013,116.3987 L678.7793,116.3987 Z" id="Fill-407" fill="#0C0A09"></path>
                <path d="M684.2805,116.6262 C684.2155,116.7672 684.1285,116.8432 683.9005,116.8432 L682.7185,116.8432 C682.5015,116.8432 682.3925,116.7892 682.3165,116.6152 C681.8285,115.4872 681.0475,113.3492 680.6895,111.8412 C680.6345,111.6132 680.7435,111.5262 680.9925,111.5262 L682.0015,111.5262 C682.2405,111.5262 682.3165,111.5592 682.3705,111.7762 C682.6635,112.8942 683.0865,114.3372 683.3035,114.9772 L683.3475,114.9772 C683.5645,114.3152 683.9545,112.9042 684.2045,111.8192 C684.2585,111.5812 684.3235,111.5262 684.5625,111.5262 L685.5935,111.5262 C685.8425,111.5262 685.9405,111.6132 685.8755,111.8412 C685.4845,113.2842 684.7685,115.4872 684.2805,116.6262" id="Fill-408" fill="#0C0A09"></path>
                <path d="M689.2391,114.7057 C689.1201,114.6837 688.8701,114.6727 688.7181,114.6727 L688.5991,114.6727 C688.1001,114.6727 687.8941,114.7597 687.8941,115.1617 L687.8941,115.2047 C687.8941,115.6067 688.1211,115.7037 688.5011,115.7037 L688.5771,115.7037 C688.8271,115.7037 688.9891,115.6277 689.0871,115.5417 C689.2061,115.4327 689.2391,115.3027 689.2391,115.0097 L689.2391,114.7057 Z M689.6081,116.3987 C689.3911,116.7237 688.8701,116.9407 688.1871,116.9407 L688.0241,116.9407 C686.9391,116.9407 686.2661,116.3657 686.2661,115.2697 L686.2661,115.1507 C686.2661,113.9357 686.9501,113.5447 688.4041,113.5447 L688.4801,113.5447 C688.7621,113.5447 689.0761,113.5667 689.2391,113.5877 L689.2391,113.3607 C689.2391,113.1437 689.2061,112.9917 689.0551,112.8827 C688.9241,112.7957 688.7621,112.7637 688.4041,112.7637 C688.0241,112.7637 687.5681,112.8397 687.1451,112.9477 C686.8741,113.0127 686.8091,112.9267 686.7761,112.7417 L686.6891,112.1667 C686.6781,112.0907 686.6681,111.9927 686.6681,111.9497 C686.6681,111.8087 686.7111,111.7327 686.9281,111.6677 C687.3841,111.5377 688.0451,111.4287 688.7831,111.4287 C689.6511,111.4287 690.2161,111.6027 690.5631,111.9607 C690.8451,112.2537 690.9751,112.6767 690.9751,113.3167 L690.9751,116.5397 C690.9751,116.7567 690.8881,116.8437 690.6061,116.8437 L690.0961,116.8437 C689.8471,116.8437 689.7601,116.7887 689.6951,116.5937 L689.6301,116.3987 L689.6081,116.3987 Z" id="Fill-409" fill="#0C0A09"></path>
                <path d="M696.433,115.3676 C696.726,115.3676 696.813,115.4436 696.813,115.7146 L696.813,116.4956 C696.813,116.7886 696.726,116.8436 696.433,116.8436 L692.125,116.8436 C691.789,116.8436 691.713,116.7566 691.713,116.4746 L691.713,116.1486 C691.713,115.9106 691.746,115.8126 691.887,115.5846 L694.469,111.2986 L692.223,111.2986 C691.93,111.2986 691.843,111.2226 691.843,110.9626 L691.843,110.1706 C691.843,109.8886 691.93,109.8236 692.223,109.8236 L696.433,109.8236 C696.693,109.8236 696.78,109.8776 696.78,110.1376 L696.78,110.5066 C696.78,110.7346 696.737,110.8646 696.563,111.1466 L693.916,115.3676 L696.433,115.3676 Z" id="Fill-410" fill="#0C0A09"></path>
                <path d="M699.2433,114.6081 C699.2433,115.0851 699.2763,115.2701 699.4383,115.4331 C699.5363,115.5301 699.6773,115.5851 699.8943,115.5851 L699.9373,115.5851 C700.1543,115.5851 700.2953,115.5301 700.3933,115.4331 C700.5563,115.2701 700.5883,115.0851 700.5883,114.6081 L700.5883,113.7621 C700.5883,113.2841 700.5563,113.1001 700.3933,112.9371 C700.2953,112.8391 700.1543,112.7851 699.9373,112.7851 L699.8943,112.7851 C699.6773,112.7851 699.5363,112.8391 699.4383,112.9371 C699.2763,113.1001 699.2433,113.2841 699.2433,113.7621 L699.2433,114.6081 Z M702.3353,114.5321 C702.3353,115.6391 702.1083,116.1601 701.6523,116.5181 C701.3373,116.7671 700.7513,116.9411 699.9813,116.9411 L699.8513,116.9411 C699.0803,116.9411 698.4943,116.7671 698.1803,116.5181 C697.7243,116.1601 697.4963,115.6391 697.4963,114.5321 L697.4963,113.8381 C697.4963,112.7311 697.7243,112.2101 698.1803,111.8521 C698.4943,111.6021 699.0803,111.4291 699.8513,111.4291 L699.9813,111.4291 C700.7513,111.4291 701.3373,111.6021 701.6523,111.8521 C702.1083,112.2101 702.3353,112.7201 702.3353,113.8271 L702.3353,114.5321 Z" id="Fill-411" fill="#0C0A09"></path>
                <path d="M706.1985,111.4289 C706.8385,111.4289 707.2945,111.5809 707.5765,111.8739 C707.8695,112.1779 707.9775,112.5789 707.9775,113.3059 L707.9775,116.5289 C707.9775,116.7349 707.9015,116.8429 707.6095,116.8429 L706.6105,116.8429 C706.3175,116.8429 706.2415,116.7349 706.2415,116.5289 L706.2415,113.4579 C706.2415,113.2089 706.2095,113.0569 706.1225,112.9589 C706.0355,112.8609 705.8625,112.8179 705.6455,112.8179 L705.5795,112.8179 C705.3625,112.8179 705.1895,112.8609 705.1025,112.9589 C705.0155,113.0569 704.9835,113.1979 704.9835,113.4579 L704.9835,116.5289 C704.9835,116.7349 704.9075,116.8429 704.6145,116.8429 L703.6165,116.8429 C703.3235,116.8429 703.2475,116.7349 703.2475,116.5289 L703.2475,111.8309 C703.2475,111.6139 703.3345,111.5269 703.6165,111.5269 L704.1265,111.5269 C704.3755,111.5269 704.4625,111.5699 704.5275,111.7759 L704.5925,111.9819 L704.6255,111.9819 C704.9725,111.6139 705.4715,111.4289 706.1115,111.4289 L706.1985,111.4289 Z" id="Fill-412" fill="#0C0A09"></path>
                <path d="M711.754,113.6532 C711.852,113.6532 711.884,113.6102 711.884,113.5122 L711.884,113.3382 C711.884,113.1212 711.852,112.9592 711.776,112.8392 C711.678,112.6982 711.515,112.6442 711.277,112.6442 L711.179,112.6442 C710.984,112.6442 710.821,112.6872 710.723,112.7962 C710.615,112.9152 710.56,113.1002 710.56,113.3822 L710.56,113.6532 L711.754,113.6532 Z M711.689,115.5412 C712.036,115.5412 712.568,115.4652 712.839,115.4002 C712.893,115.3892 712.969,115.3672 713.045,115.3672 C713.143,115.3672 713.219,115.4432 713.24,115.5522 L713.327,116.0942 C713.349,116.2032 713.371,116.3112 713.371,116.3872 C713.371,116.5282 713.316,116.6042 713.089,116.6802 C712.655,116.8322 711.982,116.9412 711.45,116.9412 L711.244,116.9412 C710.387,116.9412 709.725,116.7562 709.356,116.3872 C708.922,115.9532 708.814,115.4002 708.814,114.5212 L708.814,113.9132 C708.814,112.8282 709.096,112.2422 709.465,111.9172 C709.823,111.6022 710.387,111.4292 711.168,111.4292 L711.32,111.4292 C712.101,111.4292 712.665,111.6462 712.958,111.9712 C713.338,112.3942 713.479,112.9802 713.479,113.9132 L713.479,114.4782 C713.479,114.7062 713.382,114.7812 713.165,114.7812 L710.56,114.7812 L710.56,114.8682 C710.56,115.3782 710.81,115.5412 711.569,115.5412 L711.689,115.5412 Z" id="Fill-413" fill="#0C0A09"></path>
                <path d="M149.9384,142.2499 L199.9204,135.0739 L203.5164,230.5489 L174.6814,239.2249 L149.9384,142.2499 Z" id="Fill-414" fill="#FFFFFF"></path>
                <path d="M206.5258,114.4487 L204.2108,141.9827 L146.9658,145.0987 L142.6228,113.0217 L206.5258,114.4487 Z" id="Fill-415" fill="#FFFFFF"></path>
                <path d="M206.5258,114.4487 L204.2108,141.9827 L146.9658,145.0987 L142.6228,113.0217 L206.5258,114.4487 L206.5258,114.4487 Z" id="Stroke-416" stroke="#E5B44D"></path>
            </g>
            <path d="M187.8325,224.2569 L184.2995,212.4159 L184.6785,211.9419 L196.9315,211.9129 L194.9955,215.9699 L200.7115,219.4529 L196.1235,225.1939 L191.5795,221.1189 L187.8325,224.2569 Z" id="Fill-419" fill="#F0AB2B" sketch:type="MSShapeGroup"></path>
            <g id="Group-424" sketch:type="MSShapeGroup">
                <path d="M423.0185,213.6721 L409.4015,247.9291 L598.8915,247.7621 L587.7475,213.9121 L423.0185,213.6721 Z" id="Fill-421" fill="#B2C1AC"></path>
                <path d="M409.401,258.16 L599.658,258.16 L599.658,250.203 L409.401,250.203 L409.401,258.16 Z" id="Fill-423" fill="#292D2C"></path>
            </g>
            <g id="Group-451" sketch:type="MSShapeGroup">
                <path d="M521.0295,174.2509 C521.0295,174.2509 510.0235,185.9849 514.3665,189.5529 C518.7105,193.1219 518.8955,192.2909 518.8955,192.2909" id="Fill-425" fill="#292D2C"></path>
                <path d="M530.8421,220.4411 L526.8211,220.7941 C526.8211,220.7941 526.1371,221.3941 525.2831,221.6171 C524.4301,221.8401 522.3321,221.7501 522.5471,222.3761 C522.7621,223.0031 527.1641,222.6241 527.4991,222.6121 C527.8341,222.6001 528.9301,222.4511 528.9301,222.4511 L528.9471,222.6061 L531.2191,222.5461 C531.2191,222.5461 531.3031,220.9381 530.8421,220.4411" id="Fill-427" fill="#292D2C"></path>
                <path d="M538.5544,220.9836 L535.2594,220.7236 C535.2594,220.7236 533.8494,221.9356 532.9964,222.1596 C532.1424,222.3826 530.0444,222.2926 530.2594,222.9196 C530.4744,223.5456 534.8774,223.1676 535.2124,223.1546 C535.5464,223.1416 536.6424,222.9936 536.6424,222.9936 L536.6604,223.1486 L538.9324,223.0876 C538.9324,223.0876 539.0164,221.4806 538.5544,220.9836" id="Fill-428" fill="#292D2C"></path>
                <path d="M530.2128,205.0044 L534.6778,221.1204 L538.8928,221.9664 L540.8218,194.9034 L526.7258,193.4704 L518.7228,196.6954 L526.6288,220.8384 L531.1108,221.0384 L530.2128,205.0044 Z" id="Fill-429" fill="#A83548"></path>
                <path d="M541.8244,196.5544 C542.3114,192.6154 542.5114,184.9234 539.0414,175.1934 C533.9304,160.8584 520.9424,174.8954 520.9424,174.8954 C520.9424,174.8954 517.4074,183.9134 517.2894,190.7224 C517.2364,193.7204 517.5314,196.3004 517.8774,198.2504 L541.8244,196.5544 Z" id="Fill-430" fill="#292D2C"></path>
                <path d="M527.8011,174.7155 L524.6951,190.4835 L526.9651,194.7845 L530.6681,190.2445 L530.4291,174.4765 L527.8011,174.7155 Z" id="Fill-431" fill="#E5B44D"></path>
                <path d="M520.7343,174.6892 L529.3183,175.7622 L539.0593,175.2152 C539.0593,175.2152 540.6233,149.8692 527.8203,151.3022 C515.0183,152.7362 520.7343,174.6892 520.7343,174.6892" id="Fill-432" fill="#F0D4B1"></path>
                <path d="M540.5826,163.248 C540.5826,164.963 539.7536,166.354 538.7316,166.354 C537.7086,166.354 536.8796,164.963 536.8796,163.248 C536.8796,161.533 537.7086,160.142 538.7316,160.142 C539.7536,160.142 540.5826,161.533 540.5826,163.248" id="Fill-433" fill="#F0D4B1"></path>
                <path d="M532.6222,154.9395 L516.7812,154.4055 C516.7812,154.4055 523.0232,146.8825 536.0042,151.0595" id="Fill-434" fill="#292D2C"></path>
                <path d="M518.9626,162.7511 C518.7866,162.7511 518.6436,162.8941 518.6436,163.0701 L518.6436,164.9411 C518.6436,165.1161 518.7866,165.2591 518.9626,165.2591 L524.6556,165.2591 C524.8316,165.2591 524.9746,165.1161 524.9746,164.9411 L524.9746,163.0701 C524.9746,162.8941 524.8316,162.7511 524.6556,162.7511 L518.9626,162.7511 Z M524.6556,165.9761 L518.9626,165.9761 C518.3916,165.9761 517.9266,165.5111 517.9266,164.9411 L517.9266,163.0701 C517.9266,162.4991 518.3916,162.0341 518.9626,162.0341 L524.6556,162.0341 C525.2266,162.0341 525.6916,162.4991 525.6916,163.0701 L525.6916,164.9411 C525.6916,165.5111 525.2266,165.9761 524.6556,165.9761 L524.6556,165.9761 Z" id="Fill-435" fill="#1D5768"></path>
                <path d="M526.7068,163.1689 C526.7068,163.1689 521.1718,165.1389 522.2868,167.9469 C522.8668,169.4069 528.3618,167.4159 528.3618,167.4159" id="Fill-436" fill="#BB817B"></path>
                <path d="M527.9216,163.5872 C527.7456,163.5872 527.6026,163.7302 527.6026,163.9062 L527.6026,165.7772 C527.6026,165.9522 527.7456,166.0952 527.9216,166.0952 L533.6146,166.0952 C533.7906,166.0952 533.9336,165.9522 533.9336,165.7772 L533.9336,163.9062 C533.9336,163.7302 533.7906,163.5872 533.6146,163.5872 L527.9216,163.5872 Z M533.6146,166.8122 L527.9216,166.8122 C527.3506,166.8122 526.8856,166.3482 526.8856,165.7772 L526.8856,163.9062 C526.8856,163.3352 527.3506,162.8702 527.9216,162.8702 L533.6146,162.8702 C534.1856,162.8702 534.6506,163.3352 534.6506,163.9062 L534.6506,165.7772 C534.6506,166.3482 534.1856,166.8122 533.6146,166.8122 L533.6146,166.8122 Z" id="Fill-437" fill="#1D5768"></path>
                <path d="M527.3615,164.1024 L525.2115,163.5054 L525.4035,162.8144 L527.5535,163.4114 L527.3615,164.1024 Z" id="Fill-438" fill="#1D5768"></path>
                <path d="M527.1055,169.54 C527.1055,169.54 532.4235,166.421 532.6625,167.616 C532.9015,168.81 529.2375,170.881 529.2375,170.881" id="Fill-439" fill="#A83548"></path>
                <path d="M520.6605,174.6522 L525.0535,180.0912 L528.8765,175.6712 L520.6605,174.6522 Z" id="Fill-440" fill="#BB817B"></path>
                <path d="M528.8763,175.6711 L531.7433,180.2101 L539.1493,175.1931 L528.8763,175.6711 Z" id="Fill-441" fill="#BB817B"></path>
                <path d="M523.4692,189.4351 L523.4492,189.4301 C523.6362,189.3631 523.7882,189.2231 523.8432,189.0341 C523.9382,188.7091 523.7142,188.3681 523.3432,188.2711 L521.6532,187.8361 C521.7192,187.7691 521.7862,187.6771 521.8862,187.5871 L522.8622,186.7001 C523.1152,186.4701 523.1342,186.0781 522.9042,185.8251 C522.6742,185.5721 522.2822,185.5541 522.0292,185.7841 L520.8672,186.8411 L517.6472,188.2151 C517.6002,188.2181 517.5572,188.2271 517.5152,188.2391 L517.1242,190.1411 L521.0052,191.9871 L521.3482,192.0541 C521.6762,192.1391 522.0212,191.9441 522.1142,191.6191 C522.1322,191.5601 522.1372,191.5011 522.1362,191.4431 L522.4032,191.5121 C522.7732,191.6081 523.1502,191.4221 523.2452,191.0961 C523.2932,190.9291 523.2572,190.7591 523.1612,190.6191 C523.5202,190.6951 523.8772,190.5131 523.9682,190.1971 C524.0632,189.8721 523.8392,189.5301 523.4692,189.4351" id="Fill-442" fill="#F0D4B1"></path>
                <path d="M534.7295,184.2841 C534.7295,184.2841 533.2525,195.0581 533.3395,195.0581 C534.2955,195.0581 547.8325,196.6761 547.8325,196.6761 L549.8475,186.9771 L534.7295,184.2841 Z" id="Fill-443" fill="#FFFFFF"></path>
                <path d="M538.6506,197.1328 C538.3906,197.3508 537.9966,197.3218 537.7716,197.0688 C537.7306,197.0228 537.7016,196.9718 537.6776,196.9198 L537.4656,197.0958 C537.1726,197.3418 536.7516,197.3358 536.5266,197.0818 C536.4116,196.9518 536.3706,196.7828 536.3966,196.6148 C536.1056,196.8378 535.7046,196.8268 535.4876,196.5808 C535.2616,196.3288 535.3176,195.9238 535.6116,195.6788 L535.6276,195.6648 C535.4286,195.6858 535.2326,195.6248 535.1006,195.4768 C534.8766,195.2248 534.9316,194.8198 535.2246,194.5728 L536.5646,193.4538 C536.3296,193.4308 536.1326,193.2898 536.0616,193.0658 C535.9626,192.7388 536.1696,192.3648 536.5256,192.2308 L540.3446,192.0758 C540.3886,192.0588 540.4316,192.0488 540.4746,192.0418 L541.6436,193.5918 L538.9316,196.9248 L538.6506,197.1328 Z" id="Fill-444" fill="#E2CBA8"></path>
                <path d="M538.9106,176.0296 C538.9106,176.0296 552.2196,185.6526 547.1546,190.2576 C545.2426,191.9946 541.0716,194.3406 541.0716,194.3406 L538.7266,192.0816 L541.6806,187.8236 L538.9106,176.0296 Z" id="Fill-445" fill="#292D2C"></path>
                <path d="M527.7642,198.1252 L528.5852,194.5752 L529.7232,197.7462 L527.7642,198.1252 Z" id="Fill-446" fill="#A83548"></path>
                <path d="M525.1074,160.1588 C525.1074,160.7678 524.6134,161.2608 524.0054,161.2608 C523.3964,161.2608 522.9034,160.7678 522.9034,160.1588 L522.9034,159.5268 C522.9034,158.9178 523.3964,158.4248 524.0054,158.4248 C524.6134,158.4248 525.1074,158.9178 525.1074,159.5268 L525.1074,160.1588 Z" id="Fill-447" fill="#292D2C"></path>
                <path d="M532.3887,161.2114 C532.3887,161.8194 531.8947,162.3134 531.2867,162.3134 C530.6777,162.3134 530.1837,161.8194 530.1837,161.2114 L530.1837,160.5784 C530.1837,159.9704 530.6777,159.4774 531.2867,159.4774 C531.8947,159.4774 532.3887,159.9704 532.3887,160.5784 L532.3887,161.2114 Z" id="Fill-448" fill="#292D2C"></path>
                <path d="M538.486,159.4753 C538.486,155.4883 536.978,152.2263 535.07,151.9583 C534.706,151.6333 534.461,151.4753 534.461,151.4753 L534.077,152.0963 C533.619,152.2893 533.192,152.6543 532.814,153.1613 L533.207,153.4983 L531.388,156.4313 L535.017,155.2943 L538.228,162.2513 C538.394,161.3913 538.486,160.4563 538.486,159.4753" id="Fill-449" fill="#292D2C"></path>
                <path d="M475.1469,235.6177 L474.3289,193.3117 L525.1859,194.0137 L522.5109,236.2717 L475.1469,235.6177 Z" id="Fill-450" fill="#1D5768"></path>
            </g>
            <g id="Group-514" sketch:type="MSShapeGroup">
                <path d="M347.9918,437.2676 L304.4418,437.2676 C300.2188,437.2676 296.7958,433.8446 296.7958,429.6216 L296.7958,428.9226 C296.7958,424.6996 300.2188,421.2766 304.4418,421.2766 L347.9918,421.2766 C352.2148,421.2766 355.6378,424.6996 355.6378,428.9226 L355.6378,429.6216 C355.6378,433.8446 352.2148,437.2676 347.9918,437.2676" id="Fill-453" fill="#292D2C"></path>
                <path d="M419.1636,437.2676 L375.6136,437.2676 C371.3906,437.2676 367.9676,433.8446 367.9676,429.6216 L367.9676,428.9226 C367.9676,424.6996 371.3906,421.2766 375.6136,421.2766 L419.1636,421.2766 C423.3866,421.2766 426.8096,424.6996 426.8096,428.9226 L426.8096,429.6216 C426.8096,433.8446 423.3866,437.2676 419.1636,437.2676" id="Fill-455" fill="#292D2C"></path>
                <path d="M490.3354,437.2676 L446.7854,437.2676 C442.5624,437.2676 439.1394,433.8446 439.1394,429.6216 L439.1394,428.9226 C439.1394,424.6996 442.5624,421.2766 446.7854,421.2766 L490.3354,421.2766 C494.5584,421.2766 497.9814,424.6996 497.9814,428.9226 L497.9814,429.6216 C497.9814,433.8446 494.5584,437.2676 490.3354,437.2676" id="Fill-456" fill="#292D2C"></path>
                <path d="M561.5071,437.2676 L517.9571,437.2676 C513.7341,437.2676 510.3111,433.8446 510.3111,429.6216 L510.3111,428.9226 C510.3111,424.6996 513.7341,421.2766 517.9571,421.2766 L561.5071,421.2766 C565.7301,421.2766 569.1531,424.6996 569.1531,428.9226 L569.1531,429.6216 C569.1531,433.8446 565.7301,437.2676 561.5071,437.2676" id="Fill-457" fill="#292D2C"></path>
                <path d="M632.6789,437.2676 L589.1289,437.2676 C584.9059,437.2676 581.4829,433.8446 581.4829,429.6216 L581.4829,428.9226 C581.4829,424.6996 584.9059,421.2766 589.1289,421.2766 L632.6789,421.2766 C636.9019,421.2766 640.3249,424.6996 640.3249,428.9226 L640.3249,429.6216 C640.3249,433.8446 636.9019,437.2676 632.6789,437.2676" id="Fill-458" fill="#292D2C"></path>
                <path d="M703.8506,437.2676 L660.3006,437.2676 C656.0776,437.2676 652.6546,433.8446 652.6546,429.6216 L652.6546,428.9226 C652.6546,424.6996 656.0776,421.2766 660.3006,421.2766 L703.8506,421.2766 C708.0736,421.2766 711.4966,424.6996 711.4966,428.9226 L711.4966,429.6216 C711.4966,433.8446 708.0736,437.2676 703.8506,437.2676" id="Fill-459" fill="#292D2C"></path>
                <path d="M372.3233,362.5329 L335.5593,362.5329 C331.9943,362.5329 329.1043,359.6429 329.1043,356.0779 L329.1043,355.4879 C329.1043,351.9239 331.9943,349.0339 335.5593,349.0339 L372.3233,349.0339 C375.8883,349.0339 378.7783,351.9239 378.7783,355.4879 L378.7783,356.0779 C378.7783,359.6429 375.8883,362.5329 372.3233,362.5329" id="Fill-460" fill="#292D2C"></path>
                <path d="M432.4053,363.3746 L395.6413,363.3746 C392.0763,363.3746 389.1863,360.4846 389.1863,356.9196 L389.1863,356.3296 C389.1863,352.7656 392.0763,349.8756 395.6413,349.8756 L432.4053,349.8756 C435.9703,349.8756 438.8603,352.7656 438.8603,356.3296 L438.8603,356.9196 C438.8603,360.4846 435.9703,363.3746 432.4053,363.3746" id="Fill-461" fill="#292D2C"></path>
                <path d="M492.4873,363.3746 L455.7233,363.3746 C452.1583,363.3746 449.2683,360.4846 449.2683,356.9196 L449.2683,356.3296 C449.2683,352.7656 452.1583,349.8756 455.7233,349.8756 L492.4873,349.8756 C496.0523,349.8756 498.9423,352.7656 498.9423,356.3296 L498.9423,356.9196 C498.9423,360.4846 496.0523,363.3746 492.4873,363.3746" id="Fill-462" fill="#292D2C"></path>
                <path d="M552.5693,363.3746 L515.8053,363.3746 C512.2403,363.3746 509.3503,360.4846 509.3503,356.9196 L509.3503,356.3296 C509.3503,352.7656 512.2403,349.8756 515.8053,349.8756 L552.5693,349.8756 C556.1343,349.8756 559.0243,352.7656 559.0243,356.3296 L559.0243,356.9196 C559.0243,360.4846 556.1343,363.3746 552.5693,363.3746" id="Fill-463" fill="#292D2C"></path>
                <path d="M612.6514,363.3746 L575.8874,363.3746 C572.3224,363.3746 569.4324,360.4846 569.4324,356.9196 L569.4324,356.3296 C569.4324,352.7656 572.3224,349.8756 575.8874,349.8756 L612.6514,349.8756 C616.2164,349.8756 619.1064,352.7656 619.1064,356.3296 L619.1064,356.9196 C619.1064,360.4846 616.2164,363.3746 612.6514,363.3746" id="Fill-464" fill="#292D2C"></path>
                <path d="M672.7334,363.3746 L635.9694,363.3746 C632.4044,363.3746 629.5144,360.4846 629.5144,356.9196 L629.5144,356.3296 C629.5144,352.7656 632.4044,349.8756 635.9694,349.8756 L672.7334,349.8756 C676.2984,349.8756 679.1884,352.7656 679.1884,356.3296 L679.1884,356.9196 C679.1884,360.4846 676.2984,363.3746 672.7334,363.3746" id="Fill-465" fill="#292D2C"></path>
                <path d="M363.3868,398.2338 L324.1308,398.2338 C320.3238,398.2338 317.2378,395.1478 317.2378,391.3418 L317.2378,390.7118 C317.2378,386.9048 320.3238,383.8198 324.1308,383.8198 L363.3868,383.8198 C367.1928,383.8198 370.2788,386.9048 370.2788,390.7118 L370.2788,391.3418 C370.2788,395.1478 367.1928,398.2338 363.3868,398.2338" id="Fill-466" fill="#292D2C"></path>
                <path d="M427.5419,398.2338 L388.2859,398.2338 C384.4789,398.2338 381.3939,395.1478 381.3939,391.3418 L381.3939,390.7118 C381.3939,386.9048 384.4789,383.8198 388.2859,383.8198 L427.5419,383.8198 C431.3479,383.8198 434.4339,386.9048 434.4339,390.7118 L434.4339,391.3418 C434.4339,395.1478 431.3479,398.2338 427.5419,398.2338" id="Fill-467" fill="#292D2C"></path>
                <path d="M491.697,398.2338 L452.441,398.2338 C448.634,398.2338 445.548,395.1478 445.548,391.3418 L445.548,390.7118 C445.548,386.9048 448.634,383.8198 452.441,383.8198 L491.697,383.8198 C495.503,383.8198 498.589,386.9048 498.589,390.7118 L498.589,391.3418 C498.589,395.1478 495.503,398.2338 491.697,398.2338" id="Fill-468" fill="#292D2C"></path>
                <path d="M555.8521,398.2338 L516.5961,398.2338 C512.7891,398.2338 509.7031,395.1478 509.7031,391.3418 L509.7031,390.7118 C509.7031,386.9048 512.7891,383.8198 516.5961,383.8198 L555.8521,383.8198 C559.6581,383.8198 562.7441,386.9048 562.7441,390.7118 L562.7441,391.3418 C562.7441,395.1478 559.6581,398.2338 555.8521,398.2338" id="Fill-469" fill="#292D2C"></path>
                <path d="M620.0071,398.2338 L580.7511,398.2338 C576.9441,398.2338 573.8591,395.1478 573.8591,391.3418 L573.8591,390.7118 C573.8591,386.9048 576.9441,383.8198 580.7511,383.8198 L620.0071,383.8198 C623.8131,383.8198 626.8991,386.9048 626.8991,390.7118 L626.8991,391.3418 C626.8991,395.1478 623.8131,398.2338 620.0071,398.2338" id="Fill-470" fill="#292D2C"></path>
                <path d="M684.1622,398.2338 L644.9062,398.2338 C641.0992,398.2338 638.0142,395.1478 638.0142,391.3418 L638.0142,390.7118 C638.0142,386.9048 641.0992,383.8198 644.9062,383.8198 L684.1622,383.8198 C687.9682,383.8198 691.0542,386.9048 691.0542,390.7118 L691.0542,391.3418 C691.0542,395.1478 687.9682,398.2338 684.1622,398.2338" id="Fill-471" fill="#292D2C"></path>
                <path d="M397.024,304.2356 L367.149,304.2356 C364.252,304.2356 361.904,301.8876 361.904,298.9906 L361.904,298.5106 C361.904,295.6146 364.252,293.2656 367.149,293.2656 L397.024,293.2656 C399.921,293.2656 402.269,295.6146 402.269,298.5106 L402.269,298.9906 C402.269,301.8876 399.921,304.2356 397.024,304.2356" id="Fill-472" fill="#292D2C"></path>
                <path d="M445.848,304.2356 L415.973,304.2356 C413.076,304.2356 410.728,301.8876 410.728,298.9906 L410.728,298.5106 C410.728,295.6146 413.076,293.2656 415.973,293.2656 L445.848,293.2656 C448.745,293.2656 451.093,295.6146 451.093,298.5106 L451.093,298.9906 C451.093,301.8876 448.745,304.2356 445.848,304.2356" id="Fill-473" fill="#292D2C"></path>
                <path d="M494.672,304.2356 L464.797,304.2356 C461.9,304.2356 459.552,301.8876 459.552,298.9906 L459.552,298.5106 C459.552,295.6146 461.9,293.2656 464.797,293.2656 L494.672,293.2656 C497.569,293.2656 499.917,295.6146 499.917,298.5106 L499.917,298.9906 C499.917,301.8876 497.569,304.2356 494.672,304.2356" id="Fill-474" fill="#292D2C"></path>
                <path d="M543.496,304.2356 L513.621,304.2356 C510.724,304.2356 508.376,301.8876 508.376,298.9906 L508.376,298.5106 C508.376,295.6146 510.724,293.2656 513.621,293.2656 L543.496,293.2656 C546.393,293.2656 548.741,295.6146 548.741,298.5106 L548.741,298.9906 C548.741,301.8876 546.393,304.2356 543.496,304.2356" id="Fill-475" fill="#292D2C"></path>
                <path d="M592.3199,304.2356 L562.4449,304.2356 C559.5479,304.2356 557.1999,301.8876 557.1999,298.9906 L557.1999,298.5106 C557.1999,295.6146 559.5479,293.2656 562.4449,293.2656 L592.3199,293.2656 C595.2169,293.2656 597.5649,295.6146 597.5649,298.5106 L597.5649,298.9906 C597.5649,301.8876 595.2169,304.2356 592.3199,304.2356" id="Fill-476" fill="#292D2C"></path>
                <path d="M641.1439,304.2356 L611.2689,304.2356 C608.3719,304.2356 606.0239,301.8876 606.0239,298.9906 L606.0239,298.5106 C606.0239,295.6146 608.3719,293.2656 611.2689,293.2656 L641.1439,293.2656 C644.0409,293.2656 646.3889,295.6146 646.3889,298.5106 L646.3889,298.9906 C646.3889,301.8876 644.0409,304.2356 641.1439,304.2356" id="Fill-477" fill="#292D2C"></path>
                <path d="M385.0005,331.8003 L351.7715,331.8003 C348.5505,331.8003 345.9385,329.1883 345.9385,325.9663 L345.9385,325.4333 C345.9385,322.2113 348.5505,319.5993 351.7715,319.5993 L385.0005,319.5993 C388.2225,319.5993 390.8345,322.2113 390.8345,325.4333 L390.8345,325.9663 C390.8345,329.1883 388.2225,331.8003 385.0005,331.8003" id="Fill-478" fill="#292D2C"></path>
                <path d="M439.3046,332.642 L406.0756,332.642 C402.8546,332.642 400.2426,330.03 400.2426,326.808 L400.2426,326.275 C400.2426,323.053 402.8546,320.441 406.0756,320.441 L439.3046,320.441 C442.5266,320.441 445.1386,323.053 445.1386,326.275 L445.1386,326.808 C445.1386,330.03 442.5266,332.642 439.3046,332.642" id="Fill-479" fill="#292D2C"></path>
                <path d="M493.6086,332.642 L460.3796,332.642 C457.1586,332.642 454.5466,330.03 454.5466,326.808 L454.5466,326.275 C454.5466,323.053 457.1586,320.441 460.3796,320.441 L493.6086,320.441 C496.8306,320.441 499.4426,323.053 499.4426,326.275 L499.4426,326.808 C499.4426,330.03 496.8306,332.642 493.6086,332.642" id="Fill-480" fill="#292D2C"></path>
                <path d="M547.9126,332.642 L514.6836,332.642 C511.4616,332.642 508.8506,330.03 508.8506,326.808 L508.8506,326.275 C508.8506,323.053 511.4616,320.441 514.6836,320.441 L547.9126,320.441 C551.1346,320.441 553.7466,323.053 553.7466,326.275 L553.7466,326.808 C553.7466,330.03 551.1346,332.642 547.9126,332.642" id="Fill-481" fill="#292D2C"></path>
                <path d="M602.2166,332.642 L568.9876,332.642 C565.7656,332.642 563.1546,330.03 563.1546,326.808 L563.1546,326.275 C563.1546,323.053 565.7656,320.441 568.9876,320.441 L602.2166,320.441 C605.4386,320.441 608.0506,323.053 608.0506,326.275 L608.0506,326.808 C608.0506,330.03 605.4386,332.642 602.2166,332.642" id="Fill-482" fill="#292D2C"></path>
                <path d="M656.5206,332.642 L623.2916,332.642 C620.0706,332.642 617.4586,330.03 617.4586,326.808 L617.4586,326.275 C617.4586,323.053 620.0706,320.441 623.2916,320.441 L656.5206,320.441 C659.7426,320.441 662.3546,323.053 662.3546,326.275 L662.3546,326.808 C662.3546,330.03 659.7426,332.642 656.5206,332.642" id="Fill-483" fill="#292D2C"></path>
                <path d="M335.741,291.5228 L309.577,279.2668 C307.125,278.1178 305.978,275.2688 306.95,272.7418 L306.95,272.7418 C308.025,269.9478 311.244,268.6508 313.955,269.9208 L340.119,282.1768 C342.571,283.3258 343.718,286.1748 342.746,288.7028 L342.746,288.7028 C341.671,291.4968 338.452,292.7928 335.741,291.5228" id="Fill-484" fill="#292D2C"></path>
                <path d="M259.4631,397.556 L221.3231,379.69 C217.7491,378.015 216.0771,373.862 217.4941,370.178 L217.4941,370.178 C219.0601,366.105 223.7531,364.216 227.7051,366.067 L265.8451,383.933 C269.4191,385.607 271.0911,389.76 269.6741,393.445 L269.6741,393.445 C268.1081,397.518 263.4151,399.407 259.4631,397.556" id="Fill-485" fill="#292D2C"></path>
                <path d="M302.538,339.7816 L270.341,324.6996 C267.323,323.2856 265.912,319.7796 267.108,316.6696 L267.108,316.6696 C268.431,313.2316 272.392,311.6366 275.728,313.1986 L307.925,328.2816 C310.943,329.6946 312.354,333.2006 311.158,336.3106 L311.158,336.3106 C309.836,339.7496 305.874,341.3446 302.538,339.7816" id="Fill-486" fill="#292D2C"></path>
                <path d="M282.5502,367.5076 L248.1702,351.4026 C244.9482,349.8936 243.4412,346.1496 244.7182,342.8286 L244.7182,342.8286 C246.1312,339.1576 250.3612,337.4546 253.9232,339.1226 L288.3022,355.2276 C291.5252,356.7366 293.0322,360.4806 291.7552,363.8016 L291.7552,363.8016 C290.3422,367.4736 286.1122,369.1766 282.5502,367.5076" id="Fill-487" fill="#292D2C"></path>
                <path d="M320.7481,315.4749 L291.6471,301.8429 C288.9201,300.5659 287.6441,297.3969 288.7251,294.5859 C289.9211,291.4779 293.5011,290.0359 296.5171,291.4489 L325.6171,305.0809 C328.3451,306.3579 329.6201,309.5269 328.5391,312.3379 L328.5391,312.3379 C327.3441,315.4459 323.7631,316.8869 320.7481,315.4749" id="Fill-488" fill="#292D2C"></path>
                <path d="M292.6526,271.1056 L268.5486,259.8146 C266.2886,258.7556 265.2326,256.1316 266.1276,253.8026 C267.1176,251.2286 270.0836,250.0346 272.5816,251.2046 L296.6856,262.4956 C298.9446,263.5536 300.0016,266.1786 299.1066,268.5076 C298.1156,271.0816 295.1506,272.2756 292.6526,271.1056" id="Fill-489" fill="#292D2C"></path>
                <path d="M199.6429,366.2341 L164.5049,349.7741 C161.2119,348.2321 159.6719,344.4051 160.9769,341.0111 L160.9769,341.0111 C162.4209,337.2591 166.7439,335.5181 170.3849,337.2231 L205.5219,353.6831 C208.8159,355.2261 210.3559,359.0521 209.0499,362.4461 L209.0499,362.4461 C207.6069,366.1991 203.2839,367.9401 199.6429,366.2341" id="Fill-490" fill="#292D2C"></path>
                <path d="M235.756,429.457 L194.812,410.277 C190.974,408.479 189.179,404.021 190.7,400.066 L190.7,400.066 C192.382,395.693 197.42,393.665 201.662,395.652 L242.607,414.832 C246.444,416.63 248.24,421.088 246.718,425.043 L246.718,425.043 C245.036,429.416 239.999,431.444 235.756,429.457" id="Fill-491" fill="#292D2C"></path>
                <path d="M250.8471,312.4253 L221.1841,298.5303 C218.4041,297.2283 217.1041,293.9983 218.2061,291.1323 L218.2061,291.1323 C219.4241,287.9643 223.0741,286.4953 226.1481,287.9353 L255.8101,301.8303 C258.5901,303.1323 259.8911,306.3623 258.7891,309.2283 L258.7891,309.2283 C257.5701,312.3953 253.9211,313.8653 250.8471,312.4253" id="Fill-492" fill="#292D2C"></path>
                <path d="M227.0178,340.7564 L195.3448,325.9194 C192.3758,324.5284 190.9868,321.0794 192.1638,318.0204 L192.1638,318.0204 C193.4648,314.6374 197.3618,313.0684 200.6438,314.6064 L232.3178,329.4434 C235.2858,330.8334 236.6748,334.2824 235.4978,337.3424 L235.4978,337.3424 C234.1968,340.7244 230.2998,342.2934 227.0178,340.7564" id="Fill-493" fill="#292D2C"></path>
                <path d="M273.1378,292.3196 L246.3278,279.7606 C243.8148,278.5836 242.6398,275.6646 243.6358,273.0746 L243.6358,273.0746 C244.7368,270.2116 248.0358,268.8836 250.8138,270.1846 L277.6238,282.7436 C280.1368,283.9206 281.3118,286.8396 280.3158,289.4296 L280.3158,289.4296 C279.2148,292.2926 275.9158,293.6206 273.1378,292.3196" id="Fill-494" fill="#292D2C"></path>
                <path d="M203.7496,289.3534 L174.0866,275.4584 C171.3066,274.1564 170.0066,270.9264 171.1086,268.0604 C172.3266,264.8924 175.9766,263.4234 179.0506,264.8634 L208.7126,278.7584 C211.4926,280.0604 212.7936,283.2904 211.6916,286.1564 L211.6916,286.1564 C210.4726,289.3234 206.8236,290.7934 203.7496,289.3534" id="Fill-495" fill="#292D2C"></path>
                <path d="M174.8409,313.8291 L143.1679,298.9921 C140.1989,297.6011 138.8099,294.1521 139.9869,291.0931 L139.9869,291.0931 C141.2879,287.7101 145.1849,286.1411 148.4669,287.6791 L180.1409,302.5161 C183.1089,303.9061 184.4979,307.3551 183.3209,310.4151 L183.3209,310.4151 C182.0199,313.7971 178.1229,315.3661 174.8409,313.8291" id="Fill-496" fill="#292D2C"></path>
                <path d="M227.8887,269.2338 L201.0787,256.6748 C198.5657,255.4978 197.3907,252.5788 198.3867,249.9888 L198.3867,249.9888 C199.4877,247.1258 202.7867,245.7978 205.5647,247.0988 L232.3747,259.6578 C234.8877,260.8348 236.0627,263.7538 235.0667,266.3438 L235.0667,266.3438 C233.9657,269.2068 230.6667,270.5348 227.8887,269.2338" id="Fill-497" fill="#292D2C"></path>
                <path d="M673.4498,291.5228 L699.6138,279.2668 C702.0658,278.1178 703.2128,275.2688 702.2408,272.7418 L702.2408,272.7418 C701.1658,269.9478 697.9468,268.6508 695.2358,269.9208 L669.0718,282.1768 C666.6198,283.3258 665.4728,286.1748 666.4448,288.7028 L666.4448,288.7028 C667.5198,291.4968 670.7388,292.7928 673.4498,291.5228" id="Fill-498" fill="#282C2C"></path>
                <path d="M749.7277,397.5561 L787.8677,379.6901 C791.4417,378.0151 793.1137,373.8621 791.6967,370.1781 L791.6967,370.1781 C790.1307,366.1051 785.4377,364.2161 781.4857,366.0671 L743.3457,383.9331 C739.7717,385.6071 738.0997,389.7601 739.5167,393.4451 L739.5167,393.4451 C741.0827,397.5181 745.7757,399.4071 749.7277,397.5561" id="Fill-499" fill="#282C2C"></path>
                <path d="M706.6528,339.7816 L738.8498,324.6996 C741.8678,323.2856 743.2788,319.7796 742.0828,316.6696 L742.0828,316.6696 C740.7598,313.2316 736.7988,311.6366 733.4628,313.1986 L701.2658,328.2816 C698.2478,329.6946 696.8368,333.2006 698.0328,336.3106 L698.0328,336.3106 C699.3548,339.7496 703.3168,341.3446 706.6528,339.7816" id="Fill-500" fill="#282C2C"></path>
                <path d="M726.6406,367.5076 L761.0206,351.4026 C764.2426,349.8936 765.7496,346.1496 764.4726,342.8286 L764.4726,342.8286 C763.0596,339.1576 758.8296,337.4546 755.2676,339.1226 L720.8886,355.2276 C717.6656,356.7366 716.1586,360.4806 717.4356,363.8016 L717.4356,363.8016 C718.8486,367.4736 723.0786,369.1766 726.6406,367.5076" id="Fill-501" fill="#282C2C"></path>
                <path d="M688.4427,315.4749 L717.5437,301.8429 C720.2707,300.5659 721.5467,297.3969 720.4657,294.5859 C719.2697,291.4779 715.6897,290.0359 712.6737,291.4489 L683.5737,305.0809 C680.8457,306.3579 679.5707,309.5269 680.6517,312.3379 L680.6517,312.3379 C681.8467,315.4459 685.4277,316.8869 688.4427,315.4749" id="Fill-502" fill="#282C2C"></path>
                <path d="M716.5383,271.1056 L740.6423,259.8146 C742.9023,258.7556 743.9583,256.1316 743.0633,253.8026 C742.0733,251.2286 739.1073,250.0346 736.6093,251.2046 L712.5053,262.4956 C710.2463,263.5536 709.1893,266.1786 710.0843,268.5076 L710.0843,268.5076 C711.0753,271.0816 714.0403,272.2756 716.5383,271.1056" id="Fill-503" fill="#282C2C"></path>
                <path d="M809.5479,366.2341 L844.6859,349.7741 C847.9789,348.2321 849.5189,344.4051 848.2139,341.0111 L848.2139,341.0111 C846.7699,337.2591 842.4469,335.5181 838.8059,337.2231 L803.6689,353.6831 C800.3749,355.2261 798.8349,359.0521 800.1409,362.4461 L800.1409,362.4461 C801.5839,366.1991 805.9069,367.9401 809.5479,366.2341" id="Fill-504" fill="#282C2C"></path>
                <path d="M773.4349,429.457 L814.3789,410.277 C818.2169,408.479 820.0119,404.021 818.4909,400.066 L818.4909,400.066 C816.8089,395.693 811.7709,393.665 807.5289,395.652 L766.5839,414.832 C762.7469,416.63 760.9509,421.088 762.4729,425.043 L762.4729,425.043 C764.1549,429.416 769.1919,431.444 773.4349,429.457" id="Fill-505" fill="#282C2C"></path>
                <path d="M758.3437,312.4253 L788.0067,298.5303 C790.7867,297.2283 792.0867,293.9983 790.9847,291.1323 L790.9847,291.1323 C789.7667,287.9643 786.1167,286.4953 783.0427,287.9353 L753.3807,301.8303 C750.6007,303.1323 749.2997,306.3623 750.4017,309.2283 L750.4017,309.2283 C751.6207,312.3953 755.2697,313.8653 758.3437,312.4253" id="Fill-506" fill="#282C2C"></path>
                <path d="M782.173,340.7564 L813.846,325.9194 C816.815,324.5284 818.204,321.0794 817.027,318.0204 L817.027,318.0204 C815.726,314.6374 811.829,313.0684 808.547,314.6064 L776.873,329.4434 C773.905,330.8334 772.516,334.2824 773.693,337.3424 L773.693,337.3424 C774.994,340.7244 778.891,342.2934 782.173,340.7564" id="Fill-507" fill="#282C2C"></path>
                <path d="M736.053,292.3196 L762.863,279.7606 C765.376,278.5836 766.551,275.6646 765.555,273.0746 C764.454,270.2116 761.155,268.8836 758.377,270.1846 L731.567,282.7436 C729.054,283.9206 727.879,286.8396 728.875,289.4296 L728.875,289.4296 C729.976,292.2926 733.275,293.6206 736.053,292.3196" id="Fill-508" fill="#282C2C"></path>
                <path d="M805.4412,289.3534 L835.1042,275.4584 C837.8842,274.1564 839.1842,270.9264 838.0822,268.0604 C836.8642,264.8924 833.2142,263.4234 830.1402,264.8634 L800.4782,278.7584 C797.6982,280.0604 796.3972,283.2904 797.4992,286.1564 L797.4992,286.1564 C798.7182,289.3234 802.3672,290.7934 805.4412,289.3534" id="Fill-509" fill="#282C2C"></path>
                <path d="M834.35,313.8291 L866.023,298.9921 C868.992,297.6011 870.381,294.1521 869.204,291.0931 L869.204,291.0931 C867.903,287.7101 864.006,286.1411 860.724,287.6791 L829.05,302.5161 C826.082,303.9061 824.693,307.3551 825.87,310.4151 L825.87,310.4151 C827.171,313.7971 831.068,315.3661 834.35,313.8291" id="Fill-510" fill="#282C2C"></path>
                <path d="M781.3021,269.2338 L808.1121,256.6748 C810.6251,255.4978 811.8001,252.5788 810.8041,249.9888 L810.8041,249.9888 C809.7031,247.1258 806.4041,245.7978 803.6261,247.0988 L776.8161,259.6578 C774.3031,260.8348 773.1281,263.7538 774.1241,266.3438 L774.1241,266.3438 C775.2251,269.2068 778.5241,270.5348 781.3021,269.2338" id="Fill-511" fill="#282C2C"></path>
                <path d="M368.342,409.5762 L398.761,313.7872 L607.737,313.1642 L639.892,409.5762 L368.342,409.5762 Z" id="Fill-512" fill="#292D2C"></path>
                <path d="M609.778,310.3231 L396.685,310.9591 L364.467,412.4111 L643.825,412.4111 L609.778,310.3231 Z M605.696,316.0041 L635.958,406.7421 L372.216,406.7421 L400.837,316.6161 L605.696,316.0041 Z" id="Fill-513" fill="#FFFFFF"></path>
            </g>
            <g id="Group-516" transform="translate(470.000000, 335.000000)" fill="#FFFFFF" sketch:type="MSShapeGroup">
                <path d="M24.878875,7.52341562 C24.878875,8.20050234 24.7561549,8.84584094 24.5107109,9.45945078 C24.265267,10.0730606 23.9415398,10.6485757 23.5395195,11.1860133 C23.1374993,11.7234509 22.6804726,12.2185631 22.1684258,12.6713648 C21.656379,13.1241666 21.1379922,13.5325284 20.61325,13.8964625 L24.6249687,13.8964625 L24.3202812,19.1777125 L12.4374687,18.7714625 L12.4374687,14.1503687 C12.8860387,13.9980242 13.3578764,13.813944 13.8529961,13.5981227 C14.3481158,13.3823013 14.8347645,13.1347451 15.312957,12.8554469 C15.7911495,12.5761486 16.2439445,12.2630007 16.6713555,11.9159937 C17.0987665,11.5689868 17.4753903,11.1902471 17.8012383,10.7797633 C18.1270863,10.3692795 18.3852217,9.9228321 18.5756523,9.44040781 C18.766083,8.95798353 18.8612969,8.43748092 18.8612969,7.87888437 C18.8612969,7.55726818 18.8041685,7.27374237 18.6899102,7.02829844 C18.5756518,6.7828545 18.416962,6.57761567 18.2138359,6.41257578 C18.0107099,6.24753589 17.775849,6.12481577 17.5092461,6.04441172 C17.2426432,5.96400767 16.9570015,5.92380625 16.6523125,5.92380625 C16.398405,5.92380625 16.1402695,5.95131249 15.8778984,6.00632578 C15.6155273,6.06133908 15.3573919,6.13962605 15.1034844,6.24118906 C14.8495769,6.34275207 14.6104842,6.46758806 14.3861992,6.61570078 C14.1619142,6.7638135 13.9609071,6.93096678 13.7831719,7.11716562 L12.6659844,2.14060312 C12.979137,1.82745052 13.3388339,1.56508335 13.7450859,1.35349375 C14.151338,1.14190415 14.5787425,0.970519146 15.0273125,0.839333594 C15.4758825,0.708148042 15.9329091,0.61293415 16.3984062,0.553689062 C16.8639034,0.494443975 17.32093,0.464821875 17.7695,0.464821875 C18.7682029,0.464821875 19.6991832,0.644670337 20.5624687,1.00437266 C21.4257543,1.36407498 22.1768861,1.85918721 22.8158867,2.48972422 C23.4548873,3.12026123 23.958463,3.86716131 24.3266289,4.73044687 C24.6947948,5.59373244 24.878875,6.52471271 24.878875,7.52341562 L24.878875,7.52341562 Z M41.4081719,10.3925562 C41.4081719,11.1373516 41.3256532,11.8779041 41.1606133,12.6142359 C40.9955734,13.3505677 40.7564807,14.0572664 40.4433281,14.7343531 C40.1301755,15.4114398 39.7472041,16.0419674 39.2944023,16.6259547 C38.8416006,17.209942 38.3232139,17.7177494 37.7392266,18.1493922 C37.1552393,18.581035 36.5141324,18.9195733 35.8158867,19.1650172 C35.117641,19.4104611 34.3665092,19.5331812 33.5624687,19.5331812 C32.7499647,19.5331812 31.9924853,19.4104611 31.2900078,19.1650172 C30.5875303,18.9195733 29.9464235,18.581035 29.366668,18.1493922 C28.7869125,17.7177494 28.2685257,17.209942 27.8114922,16.6259547 C27.3544587,16.0419674 26.9693714,15.4114398 26.6562187,14.7343531 C26.3430661,14.0572664 26.1039735,13.3484519 25.9389336,12.6078883 C25.7738937,11.8673247 25.691375,11.1288881 25.691375,10.3925562 C25.691375,9.65622444 25.7738937,8.91567195 25.9389336,8.17087656 C26.1039735,7.42608117 26.3430661,6.71515078 26.6562187,6.03806406 C26.9693714,5.36097734 27.3544587,4.72833393 27.8114922,4.14011484 C28.2685257,3.55189576 28.7869125,3.04197247 29.366668,2.61032969 C29.9464235,2.1786869 30.5896462,1.84014862 31.2963555,1.59470469 C32.0030647,1.34926075 32.7584283,1.22654062 33.5624687,1.22654062 C34.3665092,1.22654062 35.117641,1.34926075 35.8158867,1.59470469 C36.5141324,1.84014862 37.1552393,2.1786869 37.7392266,2.61032969 C38.3232139,3.04197247 38.8416006,3.55189576 39.2944023,4.14011484 C39.7472041,4.72833393 40.1301755,5.36097734 40.4433281,6.03806406 C40.7564807,6.71515078 40.9955734,7.42608117 41.1606133,8.17087656 C41.3256532,8.91567195 41.4081719,9.65622444 41.4081719,10.3925562 L41.4081719,10.3925562 Z M36.05075,10.7734156 C36.05075,10.4010179 35.9999693,9.98630854 35.8984062,9.529275 C35.7968432,9.07224146 35.6402693,8.64483688 35.4286797,8.24704844 C35.2170901,7.84925999 34.9462595,7.51495344 34.6161797,7.24411875 C34.2860999,6.97328406 33.8925492,6.83786875 33.4355156,6.83786875 C32.9700185,6.83786875 32.572236,6.97328406 32.2421562,7.24411875 C31.9120765,7.51495344 31.63913,7.84925999 31.4233086,8.24704844 C31.2074872,8.64483688 31.0487974,9.07224146 30.9472344,9.529275 C30.8456714,9.98630854 30.7948906,10.4010179 30.7948906,10.7734156 C30.7948906,11.1458133 30.8456714,11.5605227 30.9472344,12.0175562 C31.0487974,12.4745898 31.2074872,12.9019944 31.4233086,13.2997828 C31.63913,13.6975713 31.9120765,14.0318778 32.2421562,14.3027125 C32.572236,14.5735472 32.9700185,14.7089625 33.4355156,14.7089625 C33.8925492,14.7089625 34.2860999,14.5735472 34.6161797,14.3027125 C34.9462595,14.0318778 35.2170901,13.6975713 35.4286797,13.2997828 C35.6402693,12.9019944 35.7968432,12.4745898 35.8984062,12.0175562 C35.9999693,11.5605227 36.05075,11.1458133 36.05075,10.7734156 L36.05075,10.7734156 Z M55.7919609,9.09763437 C55.7919609,9.90167485 55.728485,10.7120509 55.6015312,11.5287867 C55.4745775,12.3455226 55.2778021,13.1368558 55.0111992,13.9028102 C54.7445963,14.6687645 54.4039422,15.3860425 53.9892266,16.0546656 C53.5745109,16.7232888 53.0793987,17.3051514 52.503875,17.8002711 C51.9283513,18.2953908 51.2660858,18.6868256 50.5170586,18.9745875 C49.7680314,19.2623494 48.9280333,19.4062281 47.9970391,19.4062281 C47.590787,19.4062281 47.1654983,19.3871853 46.7211602,19.3490992 C46.276822,19.3110131 45.8367222,19.2475372 45.4008477,19.1586695 C44.9649731,19.0698019 44.5396844,18.9470818 44.1249687,18.7905055 C43.7102531,18.6339292 43.3336293,18.4329221 42.9950859,18.1874781 L43.6552422,13.38865 C43.9176133,13.5409945 44.2138343,13.6827574 44.5439141,13.813943 C44.8739938,13.9451285 45.2125321,14.0615011 45.5595391,14.1630641 C45.906546,14.2646271 46.2535477,14.342914 46.6005547,14.3979273 C46.9475616,14.4529406 47.2776365,14.4804469 47.5907891,14.4804469 C48.0816769,14.4804469 48.5069656,14.4106234 48.866668,14.2709742 C49.2263703,14.1313251 49.5310547,13.930318 49.7807305,13.6679469 C50.0304062,13.4055758 50.2314133,13.090312 50.3837578,12.7221461 C50.5361023,12.3539802 50.6461273,11.9413867 50.7138359,11.4843531 C50.2060209,11.7551878 49.6728231,11.9625425 49.1142266,12.1064234 C48.55563,12.2503044 47.9885784,12.3222437 47.4130547,12.3222437 C46.7021136,12.3222437 46.0250371,12.2122188 45.3818047,11.9921656 C44.7385723,11.7721124 44.1757524,11.4568487 43.6933281,11.0463648 C43.2109038,10.635881 42.8258165,10.1344212 42.5380547,9.54197031 C42.2502928,8.94951943 42.1064141,8.2766746 42.1064141,7.52341562 C42.1064141,6.55856705 42.2820308,5.67413579 42.6332695,4.87009531 C42.9845083,4.06605483 43.4648095,3.37628309 44.0741875,2.80075937 C44.6835655,2.22523566 45.4050753,1.77667244 46.2387383,1.45505625 C47.0724013,1.13344006 47.9716436,0.972634375 48.9364922,0.972634375 C50.1129304,0.972634375 51.1306611,1.19056839 51.9897148,1.62644297 C52.8487686,2.06231754 53.559699,2.65052781 54.1225273,3.39109141 C54.6853557,4.131655 55.1042968,4.99281176 55.3793633,5.9745875 C55.6544298,6.95636324 55.7919609,7.99736846 55.7919609,9.09763437 L55.7919609,9.09763437 Z M50.5361016,7.24411875 C50.5361016,6.99021123 50.4789732,6.76169789 50.3647148,6.55857187 C50.2504565,6.35544586 50.1044618,6.18194499 49.9267266,6.03806406 C49.7489913,5.89418313 49.5458683,5.78415819 49.3173516,5.70798594 C49.0888348,5.63181368 48.8603215,5.59372812 48.6318047,5.59372812 C48.4032879,5.59372812 48.1790063,5.62969782 47.9589531,5.70163828 C47.7388999,5.77357875 47.5400087,5.87937196 47.3622734,6.01902109 C47.1845382,6.15867023 47.0427753,6.32793937 46.9369805,6.52683359 C46.8311857,6.72572782 46.7782891,6.94789356 46.7782891,7.1933375 C46.7782891,7.43878144 46.8354174,7.66306305 46.9496758,7.86618906 C47.0639342,8.06931508 47.2099288,8.24281595 47.3876641,8.38669687 C47.5653993,8.5305778 47.7685223,8.64271861 47.9970391,8.72312266 C48.2255558,8.8035267 48.4540692,8.84372812 48.6825859,8.84372812 C48.9111027,8.84372812 49.1353843,8.80564257 49.3554375,8.72947031 C49.5754907,8.65329806 49.7743819,8.54538898 49.9521172,8.40573984 C50.1298525,8.26609071 50.2716154,8.09893743 50.3774102,7.904275 C50.483205,7.70961257 50.5361016,7.48956269 50.5361016,7.24411875 L50.5361016,7.24411875 Z" id="209"></path>
                <path d="M13.3274609,40.7304937 C13.3274609,41.8900048 13.1264538,42.9035037 12.7244336,43.7710211 C12.3224134,44.6385385 11.7722886,45.3600482 11.074043,45.9355719 C10.3757973,46.5110956 9.55907369,46.9427319 8.62384766,47.2304937 C7.68862163,47.5182556 6.6835861,47.6621344 5.60871094,47.6621344 C5.19399532,47.6621344 4.73908451,47.6071219 4.24396484,47.4970953 C3.74884518,47.3870687 3.24738535,47.2495375 2.73957031,47.0844977 C2.23175527,46.9194578 1.74299063,46.7417252 1.27326172,46.5512945 C0.803532808,46.3608639 0.386707549,46.1810154 0.0227734375,46.0117437 L0.581367188,40.781275 C1.30077183,41.2129178 2.09845265,41.5408767 2.97443359,41.7651617 C3.85041454,41.9894467 4.71157129,42.1015875 5.55792969,42.1015875 C5.71873778,42.1015875 5.91339729,42.0952399 6.14191406,42.0825445 C6.37043083,42.0698492 6.58836485,42.0317636 6.79572266,41.9682867 C7.00308046,41.9048098 7.1786972,41.8095959 7.32257813,41.6826422 C7.46645905,41.5556884 7.53839844,41.3737241 7.53839844,41.1367437 C7.53839844,40.9759357 7.4876177,40.8384045 7.38605469,40.7241461 C7.28449168,40.6098877 7.1533081,40.5167897 6.9925,40.4448492 C6.8316919,40.3729088 6.64972758,40.3178963 6.44660156,40.2798102 C6.24347555,40.241724 6.04458431,40.2142178 5.84992188,40.1972906 C5.65525944,40.1803635 5.47329512,40.1719 5.30402344,40.1719 L4.89777344,40.1719 C4.16990521,40.1719 3.5076397,40.0449481 2.91095703,39.7910406 C2.31427436,39.5371331 1.80223521,39.1837838 1.37482422,38.730982 C0.947413228,38.2781803 0.615222539,37.7407508 0.378242188,37.1186773 C0.141261836,36.4966039 0.0227734375,35.8216432 0.0227734375,35.093775 C0.0227734375,34.0950721 0.223780542,33.2000615 0.625800781,32.4087164 C1.02782102,31.6173713 1.56525054,30.9445265 2.23810547,30.3901617 C2.9109604,29.835797 3.68325085,29.4105083 4.555,29.1142828 C5.42674915,28.8180574 6.32810732,28.6699469 7.25910156,28.6699469 C7.67381718,28.6699469 8.10122176,28.6847579 8.54132813,28.7143805 C8.98143449,28.744003 9.41941839,28.7968996 9.85529297,28.8730719 C10.2911675,28.9492441 10.7164563,29.0465739 11.1311719,29.1650641 C11.5458875,29.2835542 11.9394382,29.4316647 12.3118359,29.6094 L11.8294141,34.7636969 C11.2538904,34.5690344 10.650869,34.4061129 10.020332,34.2749273 C9.38979502,34.1437418 8.77407853,34.07815 8.17316406,34.07815 C8.06313747,34.07815 7.92137457,34.0802659 7.74787109,34.0844977 C7.57436762,34.0887294 7.3924033,34.1014246 7.20197266,34.1225836 C7.01154202,34.1437426 6.81899837,34.1754805 6.62433594,34.2177984 C6.42967351,34.2601164 6.25617264,34.3172447 6.10382813,34.3891852 C5.95148361,34.4611256 5.82876349,34.5563395 5.73566406,34.6748297 C5.64256464,34.7933199 5.60024735,34.9329669 5.60871094,35.093775 C5.61717452,35.2799738 5.68699804,35.4302002 5.81818359,35.5444586 C5.94936915,35.658717 6.11863829,35.7475833 6.32599609,35.8110602 C6.5333539,35.874537 6.76186724,35.9189702 7.01154297,35.9443609 C7.2612187,35.9697517 7.50877481,35.9845627 7.75421875,35.9887945 C7.99966269,35.9930263 8.22817603,35.9930263 8.43976563,35.9887945 C8.65135522,35.9845627 8.82485609,35.9909103 8.96027344,36.0078375 C9.63736016,36.0501554 10.2467291,36.1940342 10.7883984,36.4394781 C11.3300678,36.6849221 11.7892104,37.0107652 12.1658398,37.4170172 C12.5424693,37.8232692 12.8302269,38.3078021 13.0291211,38.8706305 C13.2280153,39.4334588 13.3274609,40.053407 13.3274609,40.7304937 L13.3274609,40.7304937 Z M26.1497266,29.1777594 C26.0989451,29.9733363 26.052396,30.7604378 26.0100781,31.5390875 C25.9677602,32.3177372 25.9127477,33.1048387 25.8450391,33.9004156 L20.4622266,34.1797125 L20.3352734,35.7793219 L24.1184766,35.7793219 L23.8391797,39.7148687 L20.0305859,39.8418219 L19.9036328,41.6953375 L23.0520703,41.6953375 L25.2864453,41.6953375 C25.2356638,42.6263317 25.1827672,43.5509644 25.1277539,44.4692633 C25.0727406,45.3875621 25.0240757,46.3079631 24.9817578,47.2304937 L14.0383984,47.4844 L14.4446484,29.1777594 L26.1497266,29.1777594 Z M42.5901563,46.3926031 L36.2932813,47.2051031 L35.5315625,44.3359625 L32.6370313,44.3359625 L32.0022656,47.2051031 L25.5276563,46.5703375 L30.5803906,29.6601812 L37.6389844,29.3047125 L42.5901563,46.3926031 Z M35.0745313,40.4511969 L34.1096875,36.0332281 L33.1702344,40.4511969 L35.0745313,40.4511969 Z M53.2722563,29.3301031 L53.1453031,34.7129156 L49.3621,34.8652594 L48.3972563,46.9004156 L43.0398344,47.1797125 L43.065225,35.1445562 L39.2820219,35.3476812 L39.4343656,29.3554937 L53.2722563,29.3301031 Z M66.9704984,40.7304937 C66.9704984,41.8900048 66.7694913,42.9035037 66.3674711,43.7710211 C65.9654509,44.6385385 65.4153261,45.3600482 64.7170805,45.9355719 C64.0188348,46.5110956 63.2021112,46.9427319 62.2668852,47.2304937 C61.3316591,47.5182556 60.3266236,47.6621344 59.2517484,47.6621344 C58.8370328,47.6621344 58.382122,47.6071219 57.8870023,47.4970953 C57.3918827,47.3870687 56.8904229,47.2495375 56.3826078,47.0844977 C55.8747928,46.9194578 55.3860281,46.7417252 54.9162992,46.5512945 C54.4465703,46.3608639 54.029745,46.1810154 53.6658109,46.0117437 L54.2244047,40.781275 C54.9438093,41.2129178 55.7414902,41.5408767 56.6174711,41.7651617 C57.493452,41.9894467 58.3546088,42.1015875 59.2009672,42.1015875 C59.3617753,42.1015875 59.5564348,42.0952399 59.7849516,42.0825445 C60.0134683,42.0698492 60.2314023,42.0317636 60.4387602,41.9682867 C60.646118,41.9048098 60.8217347,41.8095959 60.9656156,41.6826422 C61.1094966,41.5556884 61.1814359,41.3737241 61.1814359,41.1367437 C61.1814359,40.9759357 61.1306552,40.8384045 61.0290922,40.7241461 C60.9275292,40.6098877 60.7963456,40.5167897 60.6355375,40.4448492 C60.4747294,40.3729088 60.2927651,40.3178963 60.0896391,40.2798102 C59.886513,40.241724 59.6876218,40.2142178 59.4929594,40.1972906 C59.2982969,40.1803635 59.1163326,40.1719 58.9470609,40.1719 L58.5408109,40.1719 C57.8129427,40.1719 57.1506772,40.0449481 56.5539945,39.7910406 C55.9573119,39.5371331 55.4452727,39.1837838 55.0178617,38.730982 C54.5904507,38.2781803 54.25826,37.7407508 54.0212797,37.1186773 C53.7842993,36.4966039 53.6658109,35.8216432 53.6658109,35.093775 C53.6658109,34.0950721 53.866818,33.2000615 54.2688383,32.4087164 C54.6708585,31.6173713 55.208288,30.9445265 55.881143,30.3901617 C56.5539979,29.835797 57.3262883,29.4105083 58.1980375,29.1142828 C59.0697867,28.8180574 59.9711448,28.6699469 60.9021391,28.6699469 C61.3168547,28.6699469 61.7442593,28.6847579 62.1843656,28.7143805 C62.624472,28.744003 63.0624559,28.7968996 63.4983305,28.8730719 C63.934205,28.9492441 64.3594938,29.0465739 64.7742094,29.1650641 C65.188925,29.2835542 65.5824757,29.4316647 65.9548734,29.6094 L65.4724516,34.7636969 C64.8969279,34.5690344 64.2939065,34.4061129 63.6633695,34.2749273 C63.0328325,34.1437418 62.417116,34.07815 61.8162016,34.07815 C61.706175,34.07815 61.5644121,34.0802659 61.3909086,34.0844977 C61.2174051,34.0887294 61.0354408,34.1014246 60.8450102,34.1225836 C60.6545795,34.1437426 60.4620359,34.1754805 60.2673734,34.2177984 C60.072711,34.2601164 59.8992101,34.3172447 59.7468656,34.3891852 C59.5945211,34.4611256 59.471801,34.5563395 59.3787016,34.6748297 C59.2856021,34.7933199 59.2432849,34.9329669 59.2517484,35.093775 C59.260212,35.2799738 59.3300355,35.4302002 59.4612211,35.5444586 C59.5924066,35.658717 59.7616758,35.7475833 59.9690336,35.8110602 C60.1763914,35.874537 60.4049047,35.9189702 60.6545805,35.9443609 C60.9042562,35.9697517 61.1518123,35.9845627 61.3972563,35.9887945 C61.6427002,35.9930263 61.8712135,35.9930263 62.0828031,35.9887945 C62.2943927,35.9845627 62.4678936,35.9909103 62.6033109,36.0078375 C63.2803977,36.0501554 63.8897666,36.1940342 64.4314359,36.4394781 C64.9731053,36.6849221 65.4322479,37.0107652 65.8088773,37.4170172 C66.1855068,37.8232692 66.4732644,38.3078021 66.6721586,38.8706305 C66.8710528,39.4334588 66.9704984,40.053407 66.9704984,40.7304937 L66.9704984,40.7304937 Z" id="SEATS"></path>
            </g>
            <path d="M509.056602,213.115207 C509.056602,214.746487 508.795969,216.160038 508.274695,217.355901 C507.753421,218.551764 507.026715,219.545236 506.094555,220.336345 C505.162395,221.127454 504.049339,221.716178 502.755354,222.102534 C501.461369,222.48889 500.041686,222.682065 498.496263,222.682065 C497.797143,222.682065 497.079636,222.614607 496.34372,222.479689 C495.607804,222.344771 494.878032,222.160795 494.154381,221.927755 C493.430731,221.694715 492.728555,221.418751 492.047833,221.099854 C491.367111,220.780957 490.732393,220.437535 490.14366,220.069577 L490.842777,212.67366 C491.308857,212.992557 491.830123,213.296118 492.40659,213.584351 C492.983058,213.872585 493.58098,214.130152 494.200376,214.357059 C494.819772,214.583966 495.445291,214.764876 496.076952,214.899794 C496.708613,215.034712 497.318801,215.10217 497.907533,215.10217 C498.250961,215.10217 498.603582,215.074574 498.965407,215.01938 C499.327232,214.964186 499.655323,214.862999 499.949689,214.715816 C500.244056,214.568633 500.486291,214.360127 500.676403,214.090291 C500.866514,213.820455 500.961568,213.4709 500.961568,213.041616 C500.961568,212.77178 500.838918,212.520346 500.593612,212.287306 C500.348307,212.054266 500.053945,211.854959 499.710518,211.689378 C499.367091,211.523797 499.011403,211.395013 498.643445,211.303024 C498.275487,211.211034 497.96886,211.16504 497.723555,211.16504 C497.551841,211.16504 497.346401,211.174239 497.107229,211.192637 C496.868056,211.211035 496.625821,211.238631 496.380516,211.275427 C496.13521,211.312223 495.899108,211.36435 495.6722,211.431808 C495.445293,211.499267 495.270515,211.582057 495.147863,211.680179 L495.25825,206.418407 C495.466759,206.442938 495.663,206.461335 495.846979,206.473601 C496.030958,206.485866 496.2272,206.491998 496.435709,206.491998 C496.864993,206.491998 497.331066,206.452137 497.833942,206.372413 C498.336818,206.292689 498.802891,206.15164 499.232175,205.949263 C499.661459,205.746886 500.020213,205.467856 500.308446,205.112163 C500.59668,204.756471 500.740795,204.29653 500.740795,203.732328 C500.740795,203.327574 500.630409,202.999483 500.409634,202.748046 C500.18886,202.496608 499.915962,202.303433 499.590932,202.168515 C499.265903,202.033597 498.913282,201.941609 498.533058,201.892548 C498.152835,201.843487 497.809413,201.818957 497.502782,201.818957 C496.509295,201.818957 495.531155,201.990668 494.568332,202.334095 C493.605509,202.677522 492.756152,203.180391 492.020236,203.842715 L490.474821,197.145915 C491.603225,196.22602 492.887992,195.523844 494.329161,195.039366 C495.770329,194.554888 497.220675,194.312653 498.680241,194.312653 C500.017155,194.312653 501.295789,194.505828 502.516183,194.892184 C503.736576,195.27854 504.812837,195.848866 505.744997,196.603179 C506.677157,197.357493 507.419194,198.286573 507.971131,199.390447 C508.523068,200.49432 508.799032,201.769888 508.799032,203.21719 C508.799032,203.634208 508.737707,204.057354 508.615054,204.486638 C508.492402,204.915922 508.326823,205.332935 508.118314,205.737689 C507.909804,206.142442 507.664503,206.519593 507.382402,206.869153 C507.100301,207.218713 506.799806,207.522274 506.480909,207.779845 C506.99605,208.012885 507.419196,208.325644 507.750358,208.718133 C508.08152,209.110621 508.345219,209.546031 508.541463,210.024377 C508.737707,210.502722 508.872623,211.008656 508.946215,211.542195 C509.019806,212.075734 509.056602,212.600066 509.056602,213.115207 L509.056602,213.115207 Z" id="3" fill="#FFFFFF" sketch:type="MSShapeGroup"></path>
            <path d="M166.387636,118.792884 C166.342957,119.49286 166.302001,120.185379 166.264768,120.870462 C166.227536,121.555545 166.179134,122.248064 166.119561,122.94804 L161.383576,123.193775 L161.271879,124.601167 L164.600472,124.601167 L164.354737,128.063797 L161.003804,128.175495 L160.892106,129.806282 L163.662211,129.806282 L165.628091,129.806282 C165.583412,130.625403 165.536872,131.438927 165.488469,132.246878 C165.440066,133.054829 165.397249,133.86463 165.360017,134.676304 L155.73167,134.8997 L156.089103,118.792884 L166.387636,118.792884 Z M180.215818,119.239675 L175.859605,126.812783 L179.567971,133.40295 L174.899005,134.855021 L172.888445,130.297753 L170.520453,134.87736 L165.69511,133.134875 L169.805587,126.656406 L166.052543,119.842843 L171.1683,118.614167 L173.000143,123.104417 L174.943684,118.614167 L180.215818,119.239675 Z M186.258666,119.172656 L185.029991,134.38589 L180.316346,134.631625 L180.316346,119.48541 L186.258666,119.172656 Z M198.835833,118.926921 L198.724136,123.662906 L195.395543,123.796943 L194.54664,134.38589 L189.832994,134.631625 L189.855334,124.042678 L186.526741,124.221395 L186.660778,118.949261 L198.835833,118.926921 Z" id="EXIT" fill="#292D2C" sketch:type="MSShapeGroup"></path>
        </g>
    </g>
</svg>