<?xml version="1.0" encoding="UTF-8" standalone="no"?>
<svg width="795px" height="378px" viewBox="0 0 795 378" version="1.1" xmlns="http://www.w3.org/2000/svg" xmlns:xlink="http://www.w3.org/1999/xlink" xmlns:sketch="http://www.bohemiancoding.com/sketch/ns">
    <!-- Generator: Sketch 3.3.3 (12072) - http://www.bohemiancoding.com/sketch -->
    <title>Salillustrasjoner</title>
    <desc>Created with Sketch.</desc>
    <defs>
        <path id="path-1" d="M0.153,39.314 L42.416,39.314 L42.416,0.199 L0.153,0.199 L0.153,39.314 Z"></path>
        <path id="path-3" d="M0.153,39.314 L42.416,39.314 L42.416,0.199 L0.153,0.199 L0.153,39.314 Z"></path>
    </defs>
    <g id="Page-4" stroke="none" stroke-width="1" fill="none" fill-rule="evenodd" sketch:type="MSPage">
        <g id="Salillustrasjoner" sketch:type="MSLayerGroup" transform="translate(-113.000000, -36.000000)">
            <g id="Group-521" sketch:type="MSShapeGroup">
                <path d="M113.3858,372.7812 L288.8458,38.9932 L320.6508,199.1062 L120.9288,412.7372 L113.3858,372.7812 Z" id="Fill-518" fill="#B2C1AC"></path>
                <path d="M292.136,36.3937 L325.801,197.7457 L684.068,198.4257 L733.665,37.1337 L292.136,36.3937 Z" id="Fill-520" fill="#E5B44D"></path>
            </g>
            <g id="Group-551" sketch:type="MSShapeGroup">
                <path d="M738.9003,40.853 L688.3613,199.783 L895.3063,408.435 L907.0863,362.304 L739.6373,40.81 C739.5003,40.476 738.9923,40.506 738.9003,40.853" id="Fill-522" fill="#B2C1AC"></path>
                <path d="M478.4134,174.2419 L472.6504,201.6989 L624.5244,201.5639 L603.0394,174.2419 L478.4134,174.2419 Z" id="Fill-524" fill="#B2C1AC"></path>
                <path d="M472.6505,203.5212 L475.1525,220.1372 L620.0835,220.6452 L625.1385,203.5212 L472.6505,203.5212 Z" id="Fill-525" fill="#292D2C"></path>
                <path d="M557.6254,156.605 C557.6254,156.605 550.0594,164.671 553.0454,167.124 C556.0314,169.577 556.1584,169.006 556.1584,169.006" id="Fill-526" fill="#292D2C"></path>
                <path d="M564.3708,188.3575 L561.6068,188.5995 C561.6068,188.5995 561.1368,189.0125 560.5498,189.1655 C559.9628,189.3195 558.5208,189.2575 558.6688,189.6875 C558.8158,190.1195 561.8428,189.8585 562.0728,189.8495 C562.3028,189.8415 563.0558,189.7395 563.0558,189.7395 L563.0688,189.8455 L564.6298,189.8045 C564.6298,189.8045 564.6878,188.6995 564.3708,188.3575" id="Fill-527" fill="#292D2C"></path>
                <path d="M569.6725,188.7304 L567.4075,188.5524 C567.4075,188.5524 566.4385,189.3854 565.8515,189.5384 C565.2645,189.6924 563.8225,189.6304 563.9705,190.0614 C564.1175,190.4914 567.1445,190.2314 567.3745,190.2224 C567.6045,190.2144 568.3575,190.1124 568.3575,190.1124 L568.3705,190.2194 L569.9325,190.1774 C569.9325,190.1774 569.9895,189.0724 569.6725,188.7304" id="Fill-528" fill="#292D2C"></path>
                <path d="M563.9382,177.7458 L567.0072,188.8248 L569.9052,189.4068 L571.2312,170.8018 L561.5412,169.8168 L556.0392,172.0338 L561.4742,188.6308 L564.5562,188.7688 L563.9382,177.7458 Z" id="Fill-529" fill="#A83548"></path>
                <path d="M571.9204,171.9371 C572.2554,169.2291 572.3934,163.9421 570.0074,157.2531 C566.4934,147.3991 557.5654,157.0481 557.5654,157.0481 C557.5654,157.0481 555.1354,163.2471 555.0544,167.9281 C555.0184,169.9891 555.2204,171.7631 555.4584,173.1031 L571.9204,171.9371 Z" id="Fill-530" fill="#292D2C"></path>
                <path d="M562.2804,156.9243 L560.1454,167.7633 L561.7054,170.7203 L564.2514,167.5993 L564.0864,156.7603 L562.2804,156.9243 Z" id="Fill-531" fill="#E5B44D"></path>
                <path d="M557.4224,156.9063 L563.3234,157.6443 L570.0194,157.2683 C570.0194,157.2683 571.0944,139.8443 562.2934,140.8293 C553.4924,141.8153 557.4224,156.9063 557.4224,156.9063" id="Fill-532" fill="#F0D4B1"></path>
                <path d="M571.0667,149.0412 C571.0667,150.2202 570.4967,151.1762 569.7937,151.1762 C569.0907,151.1762 568.5217,150.2202 568.5217,149.0412 C568.5217,147.8622 569.0907,146.9062 569.7937,146.9062 C570.4967,146.9062 571.0667,147.8622 571.0667,149.0412" id="Fill-533" fill="#F0D4B1"></path>
                <path d="M565.5945,143.3297 L554.7055,142.9627 C554.7055,142.9627 558.9955,137.7907 567.9195,140.6617" id="Fill-534" fill="#292D2C"></path>
                <path d="M556.2045,148.6996 C556.0835,148.6996 555.9855,148.7976 555.9855,148.9186 L555.9855,150.2046 C555.9855,150.3256 556.0835,150.4236 556.2045,150.4236 L560.1185,150.4236 C560.2395,150.4236 560.3375,150.3256 560.3375,150.2046 L560.3375,148.9186 C560.3375,148.7976 560.2395,148.6996 560.1185,148.6996 L556.2045,148.6996 Z M560.1185,150.9166 L556.2045,150.9166 C555.8115,150.9166 555.4925,150.5976 555.4925,150.2046 L555.4925,148.9186 C555.4925,148.5266 555.8115,148.2066 556.2045,148.2066 L560.1185,148.2066 C560.5105,148.2066 560.8305,148.5266 560.8305,148.9186 L560.8305,150.2046 C560.8305,150.5976 560.5105,150.9166 560.1185,150.9166 L560.1185,150.9166 Z" id="Fill-535" fill="#1D5768"></path>
                <path d="M561.5281,148.9868 C561.5281,148.9868 557.7231,150.3408 558.4901,152.2718 C558.8881,153.2748 562.6661,151.9068 562.6661,151.9068" id="Fill-536" fill="#BB817B"></path>
                <path d="M562.3632,149.2744 C562.2422,149.2744 562.1442,149.3724 562.1442,149.4934 L562.1442,150.7794 C562.1442,150.9004 562.2422,150.9984 562.3632,150.9984 L566.2772,150.9984 C566.3972,150.9984 566.4962,150.9004 566.4962,150.7794 L566.4962,149.4934 C566.4962,149.3724 566.3972,149.2744 566.2772,149.2744 L562.3632,149.2744 Z M566.2772,151.4914 L562.3632,151.4914 C561.9702,151.4914 561.6512,151.1724 561.6512,150.7794 L561.6512,149.4934 C561.6512,149.1014 561.9702,148.7814 562.3632,148.7814 L566.2772,148.7814 C566.6692,148.7814 566.9892,149.1014 566.9892,149.4934 L566.9892,150.7794 C566.9892,151.1724 566.6692,151.4914 566.2772,151.4914 L566.2772,151.4914 Z" id="Fill-537" fill="#1D5768"></path>
                <path d="M561.9781,149.6285 L560.5001,149.2185 L560.6321,148.7435 L562.1101,149.1535 L561.9781,149.6285 Z" id="Fill-538" fill="#1D5768"></path>
                <path d="M561.8022,153.3665 C561.8022,153.3665 565.4582,151.2225 565.6222,152.0435 C565.7862,152.8645 563.2682,154.2885 563.2682,154.2885" id="Fill-539" fill="#A83548"></path>
                <path d="M557.3717,156.8808 L560.3917,160.6198 L563.0197,157.5808 L557.3717,156.8808 Z" id="Fill-540" fill="#BB817B"></path>
                <path d="M563.0195,157.5813 L564.9905,160.7013 L570.0815,157.2533 L563.0195,157.5813 Z" id="Fill-541" fill="#BB817B"></path>
                <path d="M559.3025,167.043 L559.2885,167.039 C559.4175,166.994 559.5215,166.898 559.5595,166.767 C559.6245,166.544 559.4705,166.309 559.2155,166.243 L558.0535,165.944 C558.0995,165.898 558.1455,165.835 558.2145,165.773 L558.8855,165.163 C559.0585,165.005 559.0715,164.735 558.9135,164.562 C558.7555,164.388 558.4865,164.375 558.3125,164.533 L557.5135,165.26 L555.3005,166.204 C555.2685,166.207 555.2385,166.213 555.2095,166.221 L554.9405,167.528 L557.6085,168.797 L557.8445,168.843 C558.0705,168.902 558.3065,168.768 558.3715,168.544 C558.3835,168.504 558.3865,168.463 558.3865,168.423 L558.5695,168.471 C558.8245,168.537 559.0835,168.409 559.1485,168.185 C559.1815,168.07 559.1565,167.953 559.0915,167.857 C559.3375,167.909 559.5825,167.784 559.6455,167.567 C559.7105,167.343 559.5575,167.109 559.3025,167.043" id="Fill-542" fill="#F0D4B1"></path>
                <path d="M567.0432,163.502 C567.0432,163.502 566.0282,170.908 566.0872,170.908 C566.7452,170.908 576.0512,172.021 576.0512,172.021 L577.4362,165.354 L567.0432,163.502 Z" id="Fill-543" fill="#FFFFFF"></path>
                <path d="M569.7386,172.3347 C569.5606,172.4847 569.2896,172.4647 569.1346,172.2907 C569.1056,172.2597 569.0866,172.2247 569.0696,172.1877 L568.9246,172.3097 C568.7226,172.4787 568.4336,172.4737 568.2786,172.2997 C568.1996,172.2107 568.1706,172.0937 568.1896,171.9787 C567.9896,172.1317 567.7136,172.1247 567.5636,171.9557 C567.4086,171.7817 567.4476,171.5037 567.6496,171.3347 L567.6606,171.3257 C567.5236,171.3397 567.3886,171.2977 567.2986,171.1957 C567.1446,171.0227 567.1816,170.7447 567.3836,170.5747 L568.3046,169.8057 C568.1436,169.7897 568.0076,169.6927 567.9586,169.5387 C567.8906,169.3137 568.0336,169.0577 568.2776,168.9647 L570.9036,168.8587 C570.9336,168.8467 570.9626,168.8397 570.9926,168.8347 L571.7966,169.9007 L569.9316,172.1917 L569.7386,172.3347 Z" id="Fill-544" fill="#E2CBA8"></path>
                <path d="M569.9174,157.8277 C569.9174,157.8277 579.0664,164.4427 575.5844,167.6087 C574.2704,168.8027 571.4034,170.4157 571.4034,170.4157 L569.7904,168.8627 L571.8214,165.9357 L569.9174,157.8277 Z" id="Fill-545" fill="#292D2C"></path>
                <path d="M562.255,173.0169 L562.82,170.5769 L563.602,172.7569 L562.255,173.0169 Z" id="Fill-546" fill="#A83548"></path>
                <path d="M560.4286,146.9176 C560.4286,147.3356 560.0896,147.6756 559.6706,147.6756 C559.2526,147.6756 558.9136,147.3356 558.9136,146.9176 L558.9136,146.4826 C558.9136,146.0646 559.2526,145.7256 559.6706,145.7256 C560.0896,145.7256 560.4286,146.0646 560.4286,146.4826 L560.4286,146.9176 Z" id="Fill-547" fill="#292D2C"></path>
                <path d="M565.434,147.6412 C565.434,148.0592 565.094,148.3992 564.676,148.3992 C564.258,148.3992 563.918,148.0592 563.918,147.6412 L563.918,147.2062 C563.918,146.7882 564.258,146.4492 564.676,146.4492 C565.094,146.4492 565.434,146.7882 565.434,147.2062 L565.434,147.6412 Z" id="Fill-548" fill="#292D2C"></path>
                <path d="M569.6255,146.4478 C569.6255,143.7068 568.5895,141.4648 567.2775,141.2798 C567.0275,141.0568 566.8585,140.9488 566.8585,140.9488 L566.5945,141.3748 C566.2805,141.5078 565.9865,141.7588 565.7265,142.1068 L565.9965,142.3388 L564.7465,144.3548 L567.2405,143.5738 L569.4485,148.3558 C569.5625,147.7648 569.6255,147.1218 569.6255,146.4478" id="Fill-549" fill="#292D2C"></path>
                <path d="M528.5411,198.3962 L527.3231,169.2192 L562.2831,169.7022 L559.4981,198.8462 L528.5411,198.3962 Z" id="Fill-550" fill="#1D5768"></path>
            </g>
            <text id="4" sketch:type="MSTextLayer" font-family="Luckiest Guy" font-size="25.9015" font-weight="normal" fill="#FFFFFF">
                <tspan x="536.6865" y="190.0106">4</tspan>
            </text>
            <path d="M477.2125,47.1497 L624.6325,47.3927 L612.7315,130.1527 L483.8005,130.1527 L477.2125,47.1497 Z" id="Fill-553" fill="#FFFFFF" sketch:type="MSShapeGroup"></path>
            <g id="Group-557" transform="translate(525.000000, 65.000000)">
                <mask id="mask-2" sketch:name="Clip 556" fill="white">
                    <use xlink:href="#path-1"></use>
                </mask>
                <g id="Clip-556"></g>
                <path d="M5.5759,25.1644 C4.7349,25.3594 4.4009,24.9104 4.8289,24.1614 L15.2579,5.8924 L35.5039,0.2544 C36.3359,0.0224 37.0099,0.5354 37.0099,1.3984 L37.0099,16.3074 C37.0099,17.1704 36.3289,18.0284 35.4879,18.2234 L5.5759,25.1644 Z" id="Fill-555" fill="#E87E41" sketch:type="MSShapeGroup" mask="url(#mask-2)"></path>
            </g>
            <path d="M531.0541,67.9768 C530.2311,67.7168 529.8131,68.1608 530.1191,68.9668 L536.9251,86.8728 L546.3551,92.3408 L558.9811,90.8028 L559.3401,90.7598 C560.1971,90.6548 560.4921,89.9958 560.0001,89.2868 L549.1691,73.6958 L531.0541,67.9768 Z" id="Fill-558" fill="#DF4C49" sketch:type="MSShapeGroup"></path>
            <g id="Group-563" transform="translate(525.000000, 65.000000)">
                <mask id="mask-4" sketch:name="Clip 561" fill="white">
                    <use xlink:href="#path-3"></use>
                </mask>
                <g id="Clip-561"></g>
                <path d="M10.414,18.0182 L12.55,23.5392 L17.852,26.7902 C18.588,27.2412 19.879,27.5242 20.736,27.4222 C20.736,27.4222 33.651,25.8832 34.277,25.7782 C34.902,25.6742 35.11,25.4662 35.214,25.1532 L14.738,13.5912 L10.414,18.0182 Z" id="Fill-560" fill="#8F2034" sketch:type="MSShapeGroup" mask="url(#mask-4)"></path>
                <path d="M36.5692,0.4141 C34.1072,2.4201 4.8912,24.9451 4.6832,24.9451 C4.5262,24.6331 4.8392,24.1121 4.8392,24.1121 L15.2512,5.8921 L35.4752,0.2581 C35.4752,0.2581 36.1002,0.0491 36.5692,0.4141" id="Fill-562" fill="#F0AB2B" sketch:type="MSShapeGroup" mask="url(#mask-4)"></path>
            </g>
            <g id="Group-573" fill="#0C0A09" sketch:type="MSShapeGroup">
                <path d="M528.4623,101.905 C528.4623,103.033 528.3863,103.565 527.9193,103.891 C527.5073,104.184 526.9543,104.216 526.2163,104.216 L525.5113,104.216 C525.2503,104.216 525.1533,104.14 525.1533,103.847 L525.1533,103.109 C525.1533,102.784 525.2503,102.719 525.5323,102.719 L526.0533,102.719 C526.2493,102.719 526.4333,102.719 526.5313,102.621 C526.6393,102.513 526.6393,102.372 526.6393,101.851 L526.6393,97.532 C526.6393,97.229 526.6933,97.196 527.0303,97.196 L528.0933,97.196 C528.4293,97.196 528.4623,97.229 528.4623,97.532 L528.4623,101.905 Z" id="Fill-564"></path>
                <path d="M532.3469,102.0786 C532.2279,102.0566 531.9779,102.0456 531.8259,102.0456 L531.7069,102.0456 C531.2079,102.0456 531.0019,102.1326 531.0019,102.5346 L531.0019,102.5776 C531.0019,102.9796 531.2289,103.0766 531.6089,103.0766 L531.6849,103.0766 C531.9349,103.0766 532.0969,103.0006 532.1949,102.9146 C532.3139,102.8056 532.3469,102.6756 532.3469,102.3826 L532.3469,102.0786 Z M532.7159,103.7716 C532.4989,104.0966 531.9779,104.3136 531.2949,104.3136 L531.1319,104.3136 C530.0469,104.3136 529.3739,103.7386 529.3739,102.6426 L529.3739,102.5236 C529.3739,101.3086 530.0579,100.9176 531.5119,100.9176 L531.5879,100.9176 C531.8699,100.9176 532.1839,100.9396 532.3469,100.9606 L532.3469,100.7336 C532.3469,100.5166 532.3139,100.3646 532.1629,100.2556 C532.0319,100.1686 531.8699,100.1366 531.5119,100.1366 C531.1319,100.1366 530.6759,100.2126 530.2529,100.3206 C529.9819,100.3856 529.9169,100.2996 529.8839,100.1146 L529.7969,99.5396 C529.7859,99.4636 529.7759,99.3656 529.7759,99.3226 C529.7759,99.1816 529.8189,99.1056 530.0359,99.0406 C530.4919,98.9106 531.1539,98.8016 531.8909,98.8016 C532.7589,98.8016 533.3239,98.9756 533.6709,99.3336 C533.9529,99.6266 534.0829,100.0496 534.0829,100.6896 L534.0829,103.9126 C534.0829,104.1296 533.9959,104.2166 533.7139,104.2166 L533.2039,104.2166 C532.9549,104.2166 532.8679,104.1616 532.8029,103.9666 L532.7379,103.7716 L532.7159,103.7716 Z" id="Fill-566"></path>
                <path d="M538.217,103.9991 C538.152,104.1401 538.065,104.2161 537.837,104.2161 L536.655,104.2161 C536.438,104.2161 536.329,104.1621 536.253,103.9881 C535.765,102.8601 534.984,100.7221 534.626,99.2141 C534.571,98.9861 534.68,98.8991 534.929,98.8991 L535.938,98.8991 C536.177,98.8991 536.253,98.9321 536.307,99.1491 C536.6,100.2671 537.023,101.7101 537.24,102.3501 L537.284,102.3501 C537.501,101.6881 537.891,100.2771 538.141,99.1921 C538.195,98.9541 538.26,98.8991 538.499,98.8991 L539.53,98.8991 C539.779,98.8991 539.877,98.9861 539.812,99.2141 C539.421,100.6571 538.705,102.8601 538.217,103.9991" id="Fill-567"></path>
                <path d="M543.1757,102.0786 C543.0567,102.0566 542.8067,102.0456 542.6547,102.0456 L542.5357,102.0456 C542.0367,102.0456 541.8307,102.1326 541.8307,102.5346 L541.8307,102.5776 C541.8307,102.9796 542.0577,103.0766 542.4377,103.0766 L542.5137,103.0766 C542.7637,103.0766 542.9257,103.0006 543.0237,102.9146 C543.1427,102.8056 543.1757,102.6756 543.1757,102.3826 L543.1757,102.0786 Z M543.5447,103.7716 C543.3277,104.0966 542.8067,104.3136 542.1237,104.3136 L541.9607,104.3136 C540.8757,104.3136 540.2027,103.7386 540.2027,102.6426 L540.2027,102.5236 C540.2027,101.3086 540.8867,100.9176 542.3407,100.9176 L542.4167,100.9176 C542.6987,100.9176 543.0127,100.9396 543.1757,100.9606 L543.1757,100.7336 C543.1757,100.5166 543.1427,100.3646 542.9917,100.2556 C542.8607,100.1686 542.6987,100.1366 542.3407,100.1366 C541.9607,100.1366 541.5047,100.2126 541.0817,100.3206 C540.8107,100.3856 540.7457,100.2996 540.7127,100.1146 L540.6257,99.5396 C540.6147,99.4636 540.6047,99.3656 540.6047,99.3226 C540.6047,99.1816 540.6477,99.1056 540.8647,99.0406 C541.3207,98.9106 541.9817,98.8016 542.7197,98.8016 C543.5877,98.8016 544.1527,98.9756 544.4997,99.3336 C544.7817,99.6266 544.9117,100.0496 544.9117,100.6896 L544.9117,103.9126 C544.9117,104.1296 544.8247,104.2166 544.5427,104.2166 L544.0327,104.2166 C543.7837,104.2166 543.6967,104.1616 543.6317,103.9666 L543.5667,103.7716 L543.5447,103.7716 Z" id="Fill-568"></path>
                <path d="M550.3696,102.7405 C550.6626,102.7405 550.7496,102.8165 550.7496,103.0875 L550.7496,103.8685 C550.7496,104.1615 550.6626,104.2165 550.3696,104.2165 L546.0616,104.2165 C545.7256,104.2165 545.6496,104.1295 545.6496,103.8475 L545.6496,103.5215 C545.6496,103.2835 545.6826,103.1855 545.8236,102.9575 L548.4056,98.6715 L546.1596,98.6715 C545.8666,98.6715 545.7796,98.5955 545.7796,98.3355 L545.7796,97.5435 C545.7796,97.2615 545.8666,97.1965 546.1596,97.1965 L550.3696,97.1965 C550.6296,97.1965 550.7166,97.2505 550.7166,97.5105 L550.7166,97.8795 C550.7166,98.1075 550.6736,98.2375 550.4996,98.5195 L547.8526,102.7405 L550.3696,102.7405 Z" id="Fill-569"></path>
                <path d="M553.1799,101.981 C553.1799,102.458 553.2129,102.643 553.3749,102.806 C553.4729,102.903 553.6139,102.958 553.8309,102.958 L553.8739,102.958 C554.0909,102.958 554.2319,102.903 554.3299,102.806 C554.4929,102.643 554.5249,102.458 554.5249,101.981 L554.5249,101.135 C554.5249,100.657 554.4929,100.473 554.3299,100.31 C554.2319,100.212 554.0909,100.158 553.8739,100.158 L553.8309,100.158 C553.6139,100.158 553.4729,100.212 553.3749,100.31 C553.2129,100.473 553.1799,100.657 553.1799,101.135 L553.1799,101.981 Z M556.2719,101.905 C556.2719,103.012 556.0449,103.533 555.5889,103.891 C555.2739,104.14 554.6879,104.314 553.9179,104.314 L553.7879,104.314 C553.0169,104.314 552.4309,104.14 552.1169,103.891 C551.6609,103.533 551.4329,103.012 551.4329,101.905 L551.4329,101.211 C551.4329,100.104 551.6609,99.583 552.1169,99.225 C552.4309,98.975 553.0169,98.802 553.7879,98.802 L553.9179,98.802 C554.6879,98.802 555.2739,98.975 555.5889,99.225 C556.0449,99.583 556.2719,100.093 556.2719,101.2 L556.2719,101.905 Z" id="Fill-570"></path>
                <path d="M560.135,98.8018 C560.775,98.8018 561.231,98.9538 561.513,99.2468 C561.806,99.5508 561.914,99.9518 561.914,100.6788 L561.914,103.9018 C561.914,104.1078 561.838,104.2158 561.546,104.2158 L560.547,104.2158 C560.254,104.2158 560.178,104.1078 560.178,103.9018 L560.178,100.8308 C560.178,100.5818 560.146,100.4298 560.059,100.3318 C559.972,100.2338 559.799,100.1908 559.582,100.1908 L559.516,100.1908 C559.299,100.1908 559.126,100.2338 559.039,100.3318 C558.952,100.4298 558.92,100.5708 558.92,100.8308 L558.92,103.9018 C558.92,104.1078 558.844,104.2158 558.551,104.2158 L557.553,104.2158 C557.26,104.2158 557.184,104.1078 557.184,103.9018 L557.184,99.2038 C557.184,98.9868 557.271,98.8998 557.553,98.8998 L558.063,98.8998 C558.312,98.8998 558.399,98.9428 558.464,99.1488 L558.529,99.3548 L558.562,99.3548 C558.909,98.9868 559.408,98.8018 560.048,98.8018 L560.135,98.8018 Z" id="Fill-571"></path>
                <path d="M565.6905,101.0261 C565.7885,101.0261 565.8205,100.9831 565.8205,100.8851 L565.8205,100.7111 C565.8205,100.4941 565.7885,100.3321 565.7125,100.2121 C565.6145,100.0711 565.4515,100.0171 565.2135,100.0171 L565.1155,100.0171 C564.9205,100.0171 564.7575,100.0601 564.6595,100.1691 C564.5515,100.2881 564.4965,100.4731 564.4965,100.7551 L564.4965,101.0261 L565.6905,101.0261 Z M565.6255,102.9141 C565.9725,102.9141 566.5045,102.8381 566.7755,102.7731 C566.8295,102.7621 566.9055,102.7401 566.9815,102.7401 C567.0795,102.7401 567.1555,102.8161 567.1765,102.9251 L567.2635,103.4671 C567.2855,103.5761 567.3075,103.6841 567.3075,103.7601 C567.3075,103.9011 567.2525,103.9771 567.0255,104.0531 C566.5915,104.2051 565.9185,104.3141 565.3865,104.3141 L565.1805,104.3141 C564.3235,104.3141 563.6615,104.1291 563.2925,103.7601 C562.8585,103.3261 562.7505,102.7731 562.7505,101.8941 L562.7505,101.2861 C562.7505,100.2011 563.0325,99.6151 563.4015,99.2901 C563.7595,98.9751 564.3235,98.8021 565.1045,98.8021 L565.2565,98.8021 C566.0375,98.8021 566.6015,99.0191 566.8945,99.3441 C567.2745,99.7671 567.4155,100.3531 567.4155,101.2861 L567.4155,101.8511 C567.4155,102.0791 567.3185,102.1541 567.1015,102.1541 L564.4965,102.1541 L564.4965,102.2411 C564.4965,102.7511 564.7465,102.9141 565.5055,102.9141 L565.6255,102.9141 Z" id="Fill-572"></path>
            </g>
            <g id="Group-583">
                <path d="M726.9393,145.7381 L676.9573,138.5621 L673.3613,234.0371 L702.1963,242.7131 L726.9393,145.7381 Z" id="Fill-574" fill="#FFFFFF" sketch:type="MSShapeGroup"></path>
                <path d="M670.3518,117.9369 L672.6668,145.4709 L729.9118,148.5869 L734.2548,116.5099 L670.3518,117.9369 Z" id="Fill-576" fill="#FFFFFF" sketch:type="MSShapeGroup"></path>
                <path d="M670.3518,117.9369 L672.6668,145.4709 L729.9118,148.5869 L734.2548,116.5099 L670.3518,117.9369 L670.3518,117.9369 Z" id="Stroke-577" stroke="#E5B44D" sketch:type="MSShapeGroup"></path>
                <path d="M694.6129,213.4901 L698.1459,201.6491 L697.7669,201.1751 L685.5139,201.1461 L687.4499,205.2031 L681.7339,208.6861 L686.3219,214.4271 L690.8659,210.3521 L694.6129,213.4901 Z" id="Fill-578" fill="#F0AB2B" sketch:type="MSShapeGroup"></path>
                <path d="M283.4579,145.7381 L333.4399,138.5621 L337.0359,234.0371 L308.2009,242.7131 L283.4579,145.7381 Z" id="Fill-579" fill="#FFFFFF" sketch:type="MSShapeGroup"></path>
                <path d="M340.0453,117.9369 L337.7303,145.4709 L280.4853,148.5869 L276.1423,116.5099 L340.0453,117.9369 Z" id="Fill-580" fill="#FFFFFF" sketch:type="MSShapeGroup"></path>
                <path d="M340.0453,117.9369 L337.7303,145.4709 L280.4853,148.5869 L276.1423,116.5099 L340.0453,117.9369 L340.0453,117.9369 Z" id="Stroke-581" stroke="#E5B44D" sketch:type="MSShapeGroup"></path>
                <text id="EXIT" sketch:type="MSTextLayer" font-family="Luckiest Guy" font-size="22.8757" font-weight="normal" fill="#292D2C">
                    <tspan x="286.2734" y="138.388">EXIT</tspan>
                </text>
                <text id="EXIT" sketch:type="MSTextLayer" font-family="Luckiest Guy" font-size="22.8757" font-weight="normal" fill="#292D2C">
                    <tspan x="680.6047" y="138.388">EXIT</tspan>
                </text>
                <path d="M317.5298,214.4232 L312.7058,203.0472 L313.0288,202.5342 L325.2038,201.1462 L323.7288,205.3922 L329.7968,208.2202 L325.8738,214.4352 L320.9058,210.8892 L317.5298,214.4232 Z" id="Fill-582" fill="#F0AB2B" sketch:type="MSShapeGroup"></path>
            </g>
            <g id="Group-649" fill="#292D2C" sketch:type="MSShapeGroup">
                <path d="M307.2462,413.5351 L256.6892,413.5351 C251.5262,413.5351 247.3402,409.3491 247.3402,404.1861 L247.3402,404.1861 C247.3402,399.0221 251.5262,394.8361 256.6892,394.8361 L307.2462,394.8361 C312.4092,394.8361 316.5952,399.0221 316.5952,404.1861 L316.5952,404.1861 C316.5952,409.3491 312.4092,413.5351 307.2462,413.5351" id="Fill-584"></path>
                <path d="M391.014,413.5351 L340.457,413.5351 C335.294,413.5351 331.108,409.3491 331.108,404.1861 L331.108,404.1861 C331.108,399.0221 335.294,394.8361 340.457,394.8361 L391.014,394.8361 C396.178,394.8361 400.363,399.0221 400.363,404.1861 L400.363,404.1861 C400.363,409.3491 396.178,413.5351 391.014,413.5351" id="Fill-586"></path>
                <path d="M474.7819,413.5351 L424.2249,413.5351 C419.0609,413.5351 414.8759,409.3491 414.8759,404.1861 L414.8759,404.1861 C414.8759,399.0221 419.0609,394.8361 424.2249,394.8361 L474.7819,394.8361 C479.9449,394.8361 484.1309,399.0221 484.1309,404.1861 L484.1309,404.1861 C484.1309,409.3491 479.9449,413.5351 474.7819,413.5351" id="Fill-587"></path>
                <path d="M559.6538,413.5351 L509.0968,413.5351 C503.9338,413.5351 499.7478,409.3491 499.7478,404.1861 L499.7478,404.1861 C499.7478,399.0221 503.9338,394.8361 509.0968,394.8361 L559.6538,394.8361 C564.8178,394.8361 569.0028,399.0221 569.0028,404.1861 L569.0028,404.1861 C569.0028,409.3491 564.8178,413.5351 559.6538,413.5351" id="Fill-588"></path>
                <path d="M673.4798,413.5351 L622.9228,413.5351 C617.7588,413.5351 613.5738,409.3491 613.5738,404.1861 L613.5738,404.1861 C613.5738,399.0221 617.7588,394.8361 622.9228,394.8361 L673.4798,394.8361 C678.6438,394.8361 682.8288,399.0221 682.8288,404.1861 L682.8288,404.1861 C682.8288,409.3491 678.6438,413.5351 673.4798,413.5351" id="Fill-589"></path>
                <path d="M757.2476,413.5351 L706.6906,413.5351 C701.5276,413.5351 697.3416,409.3491 697.3416,404.1861 L697.3416,404.1861 C697.3416,399.0221 701.5276,394.8361 706.6906,394.8361 L757.2476,394.8361 C762.4116,394.8361 766.5966,399.0221 766.5966,404.1861 L766.5966,404.1861 C766.5966,409.3491 762.4116,413.5351 757.2476,413.5351" id="Fill-590"></path>
                <path d="M324.4241,381.2583 L278.5831,381.2583 C273.9021,381.2583 270.1061,377.4633 270.1061,372.7813 L270.1061,372.7813 C270.1061,368.0993 273.9021,364.3043 278.5831,364.3043 L324.4241,364.3043 C329.1061,364.3043 332.9011,368.0993 332.9011,372.7813 L332.9011,372.7813 C332.9011,377.4633 329.1061,381.2583 324.4241,381.2583" id="Fill-591"></path>
                <path d="M400.3775,381.2583 L354.5365,381.2583 C349.8555,381.2583 346.0595,377.4633 346.0595,372.7813 L346.0595,372.7813 C346.0595,368.0993 349.8555,364.3043 354.5365,364.3043 L400.3775,364.3043 C405.0595,364.3043 408.8545,368.0993 408.8545,372.7813 L408.8545,372.7813 C408.8545,377.4633 405.0595,381.2583 400.3775,381.2583" id="Fill-592"></path>
                <path d="M476.331,381.2583 L430.49,381.2583 C425.808,381.2583 422.013,377.4633 422.013,372.7813 L422.013,372.7813 C422.013,368.0993 425.808,364.3043 430.49,364.3043 L476.331,364.3043 C481.013,364.3043 484.808,368.0993 484.808,372.7813 L484.808,372.7813 C484.808,377.4633 481.013,381.2583 476.331,381.2583" id="Fill-593"></path>
                <path d="M553.3884,381.2583 L507.5474,381.2583 C502.8664,381.2583 499.0704,377.4633 499.0704,372.7813 L499.0704,372.7813 C499.0704,368.0993 502.8664,364.3043 507.5474,364.3043 L553.3884,364.3043 C558.0704,364.3043 561.8654,368.0993 561.8654,372.7813 L561.8654,372.7813 C561.8654,377.4633 558.0704,381.2583 553.3884,381.2583" id="Fill-594"></path>
                <path d="M658.4879,381.2583 L612.6469,381.2583 C607.9659,381.2583 604.1699,377.4633 604.1699,372.7813 L604.1699,372.7813 C604.1699,368.0993 607.9659,364.3043 612.6469,364.3043 L658.4879,364.3043 C663.1699,364.3043 666.9649,368.0993 666.9649,372.7813 L666.9649,372.7813 C666.9649,377.4633 663.1699,381.2583 658.4879,381.2583" id="Fill-595"></path>
                <path d="M734.4413,381.2583 L688.6003,381.2583 C683.9183,381.2583 680.1233,377.4633 680.1233,372.7813 L680.1233,372.7813 C680.1233,368.0993 683.9183,364.3043 688.6003,364.3043 L734.4413,364.3043 C739.1233,364.3043 742.9183,368.0993 742.9183,372.7813 L742.9183,372.7813 C742.9183,377.4633 739.1233,381.2583 734.4413,381.2583" id="Fill-596"></path>
                <path d="M340.7956,351.1233 L299.4496,351.1233 C295.2266,351.1233 291.8036,347.7003 291.8036,343.4773 L291.8036,343.4773 C291.8036,339.2543 295.2266,335.8313 299.4496,335.8313 L340.7956,335.8313 C345.0186,335.8313 348.4416,339.2543 348.4416,343.4773 L348.4416,343.4773 C348.4416,347.7003 345.0186,351.1233 340.7956,351.1233" id="Fill-597"></path>
                <path d="M409.3014,351.1233 L367.9554,351.1233 C363.7324,351.1233 360.3094,347.7003 360.3094,343.4773 L360.3094,343.4773 C360.3094,339.2543 363.7324,335.8313 367.9554,335.8313 L409.3014,335.8313 C413.5244,335.8313 416.9474,339.2543 416.9474,343.4773 L416.9474,343.4773 C416.9474,347.7003 413.5244,351.1233 409.3014,351.1233" id="Fill-598"></path>
                <path d="M477.8073,351.1233 L436.4613,351.1233 C432.2383,351.1233 428.8153,347.7003 428.8153,343.4773 L428.8153,343.4773 C428.8153,339.2543 432.2383,335.8313 436.4613,335.8313 L477.8073,335.8313 C482.0303,335.8313 485.4533,339.2543 485.4533,343.4773 L485.4533,343.4773 C485.4533,347.7003 482.0303,351.1233 477.8073,351.1233" id="Fill-599"></path>
                <path d="M547.4172,351.1233 L506.0712,351.1233 C501.8482,351.1233 498.4252,347.7003 498.4252,343.4773 L498.4252,343.4773 C498.4252,339.2543 501.8482,335.8313 506.0712,335.8313 L547.4172,335.8313 C551.6402,335.8313 555.0632,339.2543 555.0632,343.4773 L555.0632,343.4773 C555.0632,347.7003 551.6402,351.1233 547.4172,351.1233" id="Fill-600"></path>
                <path d="M644.157,351.1233 L602.811,351.1233 C598.588,351.1233 595.165,347.7003 595.165,343.4773 L595.165,343.4773 C595.165,339.2543 598.588,335.8313 602.811,335.8313 L644.157,335.8313 C648.38,335.8313 651.803,339.2543 651.803,343.4773 L651.803,343.4773 C651.803,347.7003 648.38,351.1233 644.157,351.1233" id="Fill-601"></path>
                <path d="M712.6629,351.1233 L671.3169,351.1233 C667.0939,351.1233 663.6709,347.7003 663.6709,343.4773 L663.6709,343.4773 C663.6709,339.2543 667.0939,335.8313 671.3169,335.8313 L712.6629,335.8313 C716.8859,335.8313 720.3089,339.2543 720.3089,343.4773 L720.3089,343.4773 C720.3089,347.7003 716.8859,351.1233 712.6629,351.1233" id="Fill-602"></path>
                <path d="M365.1183,299.416 L330.4503,299.416 C326.9093,299.416 324.0393,296.546 324.0393,293.005 L324.0393,293.005 C324.0393,289.464 326.9093,286.594 330.4503,286.594 L365.1183,286.594 C368.6593,286.594 371.5293,289.464 371.5293,293.005 L371.5293,293.005 C371.5293,296.546 368.6593,299.416 365.1183,299.416" id="Fill-603"></path>
                <path d="M422.5594,299.416 L387.8914,299.416 C384.3504,299.416 381.4804,296.546 381.4804,293.005 L381.4804,293.005 C381.4804,289.464 384.3504,286.594 387.8914,286.594 L422.5594,286.594 C426.1004,286.594 428.9704,289.464 428.9704,293.005 L428.9704,293.005 C428.9704,296.546 426.1004,299.416 422.5594,299.416" id="Fill-604"></path>
                <path d="M480.0006,299.416 L445.3326,299.416 C441.7916,299.416 438.9216,296.546 438.9216,293.005 L438.9216,293.005 C438.9216,289.464 441.7916,286.594 445.3326,286.594 L480.0006,286.594 C483.5416,286.594 486.4116,289.464 486.4116,293.005 L486.4116,293.005 C486.4116,296.546 483.5416,299.416 480.0006,299.416" id="Fill-605"></path>
                <path d="M538.5459,299.416 L503.8779,299.416 C500.3369,299.416 497.4669,296.546 497.4669,293.005 L497.4669,293.005 C497.4669,289.464 500.3369,286.594 503.8779,286.594 L538.5459,286.594 C542.0869,286.594 544.9569,289.464 544.9569,293.005 L544.9569,293.005 C544.9569,296.546 542.0869,299.416 538.5459,299.416" id="Fill-606"></path>
                <path d="M622.397,299.416 L587.729,299.416 C584.188,299.416 581.318,296.546 581.318,293.005 L581.318,293.005 C581.318,289.464 584.188,286.594 587.729,286.594 L622.397,286.594 C625.938,286.594 628.808,289.464 628.808,293.005 L628.808,293.005 C628.808,296.546 625.938,299.416 622.397,299.416" id="Fill-607"></path>
                <path d="M679.8381,299.416 L645.1701,299.416 C641.6291,299.416 638.7591,296.546 638.7591,293.005 L638.7591,293.005 C638.7591,289.464 641.6291,286.594 645.1701,286.594 L679.8381,286.594 C683.3791,286.594 686.2491,289.464 686.2491,293.005 L686.2491,293.005 C686.2491,296.546 683.3791,299.416 679.8381,299.416" id="Fill-608"></path>
                <path d="M355.6421,323.7953 L318.3721,323.7953 C314.5661,323.7953 311.4801,320.7093 311.4801,316.9033 L311.4801,316.9033 C311.4801,313.0963 314.5661,310.0113 318.3721,310.0113 L355.6421,310.0113 C359.4481,310.0113 362.5341,313.0963 362.5341,316.9033 L362.5341,316.9033 C362.5341,320.7093 359.4481,323.7953 355.6421,323.7953" id="Fill-609"></path>
                <path d="M417.3941,323.7953 L380.1241,323.7953 C376.3181,323.7953 373.2321,320.7093 373.2321,316.9033 L373.2321,316.9033 C373.2321,313.0963 376.3181,310.0113 380.1241,310.0113 L417.3941,310.0113 C421.2001,310.0113 424.2861,313.0963 424.2861,316.9033 L424.2861,316.9033 C424.2861,320.7093 421.2001,323.7953 417.3941,323.7953" id="Fill-610"></path>
                <path d="M479.1461,323.7953 L441.8761,323.7953 C438.0701,323.7953 434.9841,320.7093 434.9841,316.9033 L434.9841,316.9033 C434.9841,313.0963 438.0701,310.0113 441.8761,310.0113 L479.1461,310.0113 C482.9521,310.0113 486.0381,313.0963 486.0381,316.9033 L486.0381,316.9033 C486.0381,320.7093 482.9521,323.7953 479.1461,323.7953" id="Fill-611"></path>
                <path d="M542.0022,323.7953 L504.7322,323.7953 C500.9262,323.7953 497.8402,320.7093 497.8402,316.9033 L497.8402,316.9033 C497.8402,313.0963 500.9262,310.0113 504.7322,310.0113 L542.0022,310.0113 C545.8082,310.0113 548.8942,313.0963 548.8942,316.9033 L548.8942,316.9033 C548.8942,320.7093 545.8082,323.7953 542.0022,323.7953" id="Fill-612"></path>
                <path d="M631.0761,323.7953 L593.8061,323.7953 C590.0001,323.7953 586.9141,320.7093 586.9141,316.9033 L586.9141,316.9033 C586.9141,313.0963 590.0001,310.0113 593.8061,310.0113 L631.0761,310.0113 C634.8821,310.0113 637.9681,313.0963 637.9681,316.9033 L637.9681,316.9033 C637.9681,320.7093 634.8821,323.7953 631.0761,323.7953" id="Fill-613"></path>
                <path d="M692.8281,323.7953 L655.5581,323.7953 C651.7521,323.7953 648.6661,320.7093 648.6661,316.9033 L648.6661,316.9033 C648.6661,313.0963 651.7521,310.0113 655.5581,310.0113 L692.8281,310.0113 C696.6341,310.0113 699.7201,313.0963 699.7201,316.9033 L699.7201,316.9033 C699.7201,320.7093 696.6341,323.7953 692.8281,323.7953" id="Fill-614"></path>
                <path d="M388.0811,259.905 L359.7181,259.905 C356.8211,259.905 354.4731,257.557 354.4731,254.66 L354.4731,254.66 C354.4731,251.763 356.8211,249.415 359.7181,249.415 L388.0811,249.415 C390.9781,249.415 393.3261,251.763 393.3261,254.66 L393.3261,254.66 C393.3261,257.557 390.9781,259.905 388.0811,259.905" id="Fill-615"></path>
                <path d="M435.0762,259.905 L406.7132,259.905 C403.8162,259.905 401.4682,257.557 401.4682,254.66 L401.4682,254.66 C401.4682,251.763 403.8162,249.415 406.7132,249.415 L435.0762,249.415 C437.9732,249.415 440.3212,251.763 440.3212,254.66 L440.3212,254.66 C440.3212,257.557 437.9732,259.905 435.0762,259.905" id="Fill-616"></path>
                <path d="M601.7515,259.905 L573.3885,259.905 C570.4915,259.905 568.1435,257.557 568.1435,254.66 L568.1435,254.66 C568.1435,251.763 570.4915,249.415 573.3885,249.415 L601.7515,249.415 C604.6485,249.415 606.9965,251.763 606.9965,254.66 L606.9965,254.66 C606.9965,257.557 604.6485,259.905 601.7515,259.905" id="Fill-617"></path>
                <path d="M648.7466,259.905 L620.3836,259.905 C617.4866,259.905 615.1386,257.557 615.1386,254.66 L615.1386,254.66 C615.1386,251.763 617.4866,249.415 620.3836,249.415 L648.7466,249.415 C651.6436,249.415 653.9916,251.763 653.9916,254.66 L653.9916,254.66 C653.9916,257.557 651.6436,259.905 648.7466,259.905" id="Fill-618"></path>
                <path d="M376.4859,278.07 L344.9389,278.07 C341.7169,278.07 339.1049,275.458 339.1049,272.236 L339.1049,272.236 C339.1049,269.014 341.7169,266.402 344.9389,266.402 L376.4859,266.402 C379.7079,266.402 382.3199,269.014 382.3199,272.236 L382.3199,272.236 C382.3199,275.458 379.7079,278.07 376.4859,278.07" id="Fill-619"></path>
                <path d="M428.7558,278.07 L397.2088,278.07 C393.9868,278.07 391.3748,275.458 391.3748,272.236 L391.3748,272.236 C391.3748,269.014 393.9868,266.402 397.2088,266.402 L428.7558,266.402 C431.9778,266.402 434.5898,269.014 434.5898,272.236 L434.5898,272.236 C434.5898,275.458 431.9778,278.07 428.7558,278.07" id="Fill-620"></path>
                <path d="M481.0258,278.07 L449.4788,278.07 C446.2568,278.07 443.6448,275.458 443.6448,272.236 L443.6448,272.236 C443.6448,269.014 446.2568,266.402 449.4788,266.402 L481.0258,266.402 C484.2478,266.402 486.8598,269.014 486.8598,272.236 L486.8598,272.236 C486.8598,275.458 484.2478,278.07 481.0258,278.07" id="Fill-621"></path>
                <path d="M481.6155,259.9054 L453.2475,259.9054 C450.3515,259.9054 448.0035,257.5574 448.0035,254.6614 L448.0035,254.6584 C448.0035,251.7624 450.3515,249.4144 453.2475,249.4144 L481.6155,249.4144 C484.5115,249.4144 486.8595,251.7624 486.8595,254.6584 L486.8595,254.6614 C486.8595,257.5574 484.5115,259.9054 481.6155,259.9054" id="Fill-622"></path>
                <path d="M481.7345,243.8232 L456.3795,243.8232 C453.7965,243.8232 451.7025,241.7292 451.7025,239.1462 L451.7025,239.1292 C451.7025,236.5462 453.7965,234.4522 456.3795,234.4522 L481.7345,234.4522 C484.3175,234.4522 486.4115,236.5462 486.4115,239.1292 L486.4115,239.1462 C486.4115,241.7292 484.3175,243.8232 481.7345,243.8232" id="Fill-623"></path>
                <path d="M530.0454,259.9054 L501.6774,259.9054 C498.7814,259.9054 496.4334,257.5574 496.4334,254.6614 L496.4334,254.6584 C496.4334,251.7624 498.7814,249.4144 501.6774,249.4144 L530.0454,249.4144 C532.9414,249.4144 535.2894,251.7624 535.2894,254.6584 L535.2894,254.6614 C535.2894,257.5574 532.9414,259.9054 530.0454,259.9054" id="Fill-624"></path>
                <path d="M526.3212,243.8232 L500.9662,243.8232 C498.3832,243.8232 496.2892,241.7292 496.2892,239.1462 L496.2892,239.1292 C496.2892,236.5462 498.3832,234.4522 500.9662,234.4522 L526.3212,234.4522 C528.9042,234.4522 530.9982,236.5462 530.9982,239.1292 L530.9982,239.1462 C530.9982,241.7292 528.9042,243.8232 526.3212,243.8232" id="Fill-625"></path>
                <path d="M534.2155,278.07 L502.6685,278.07 C499.4465,278.07 496.8345,275.458 496.8345,272.236 L496.8345,272.236 C496.8345,269.014 499.4465,266.402 502.6685,266.402 L534.2155,266.402 C537.4375,266.402 540.0495,269.014 540.0495,272.236 L540.0495,272.236 C540.0495,275.458 537.4375,278.07 534.2155,278.07" id="Fill-626"></path>
                <path d="M611.2554,278.07 L579.7084,278.07 C576.4864,278.07 573.8744,275.458 573.8744,272.236 L573.8744,272.236 C573.8744,269.014 576.4864,266.402 579.7084,266.402 L611.2554,266.402 C614.4774,266.402 617.0894,269.014 617.0894,272.236 L617.0894,272.236 C617.0894,275.458 614.4774,278.07 611.2554,278.07" id="Fill-627"></path>
                <path d="M663.5253,278.07 L631.9783,278.07 C628.7563,278.07 626.1443,275.458 626.1443,272.236 L626.1443,272.236 C626.1443,269.014 628.7563,266.402 631.9783,266.402 L663.5253,266.402 C666.7473,266.402 669.3593,269.014 669.3593,272.236 L669.3593,272.236 C669.3593,275.458 666.7473,278.07 663.5253,278.07" id="Fill-628"></path>
                <path d="M399.1052,243.823 L373.7682,243.823 C371.1812,243.823 369.0832,241.725 369.0832,239.138 L369.0832,239.138 C369.0832,236.55 371.1812,234.452 373.7682,234.452 L399.1052,234.452 C401.6932,234.452 403.7902,236.55 403.7902,239.138 L403.7902,239.138 C403.7902,241.725 401.6932,243.823 399.1052,243.823" id="Fill-629"></path>
                <path d="M223.5783,413.5351 L173.0213,413.5351 C167.8573,413.5351 163.6723,409.3491 163.6723,404.1861 L163.6723,404.1861 C163.6723,399.0221 167.8573,394.8361 173.0213,394.8361 L223.5783,394.8361 C228.7413,394.8361 232.9273,399.0221 232.9273,404.1861 L232.9273,404.1861 C232.9273,409.3491 228.7413,413.5351 223.5783,413.5351" id="Fill-630"></path>
                <path d="M250.8104,381.2583 L204.9694,381.2583 C200.2884,381.2583 196.4924,377.4633 196.4924,372.7813 L196.4924,372.7813 C196.4924,368.0993 200.2884,364.3043 204.9694,364.3043 L250.8104,364.3043 C255.4924,364.3043 259.2874,368.0993 259.2874,372.7813 L259.2874,372.7813 C259.2874,377.4633 255.4924,381.2583 250.8104,381.2583" id="Fill-631"></path>
                <path d="M274.3217,351.1233 L232.9757,351.1233 C228.7527,351.1233 225.3297,347.7003 225.3297,343.4773 L225.3297,343.4773 C225.3297,339.2543 228.7527,335.8313 232.9757,335.8313 L274.3217,335.8313 C278.5447,335.8313 281.9677,339.2543 281.9677,343.4773 L281.9677,343.4773 C281.9677,347.7003 278.5447,351.1233 274.3217,351.1233" id="Fill-632"></path>
                <path d="M309.1378,299.416 L274.4698,299.416 C270.9288,299.416 268.0588,296.546 268.0588,293.005 L268.0588,293.005 C268.0588,289.464 270.9288,286.594 274.4698,286.594 L309.1378,286.594 C312.6788,286.594 315.5488,289.464 315.5488,293.005 L315.5488,293.005 C315.5488,296.546 312.6788,299.416 309.1378,299.416" id="Fill-633"></path>
                <path d="M294.9676,323.7953 L257.6976,323.7953 C253.8916,323.7953 250.8056,320.7093 250.8056,316.9033 L250.8056,316.9033 C250.8056,313.0963 253.8916,310.0113 257.6976,310.0113 L294.9676,310.0113 C298.7736,310.0113 301.8596,313.0963 301.8596,316.9033 L301.8596,316.9033 C301.8596,320.7093 298.7736,323.7953 294.9676,323.7953" id="Fill-634"></path>
                <path d="M342.8877,259.905 L314.5247,259.905 C311.6277,259.905 309.2797,257.557 309.2797,254.66 L309.2797,254.66 C309.2797,251.763 311.6277,249.415 314.5247,249.415 L342.8877,249.415 C345.7847,249.415 348.1327,251.763 348.1327,254.66 L348.1327,254.66 C348.1327,257.557 345.7847,259.905 342.8877,259.905" id="Fill-635"></path>
                <path d="M324.5331,278.07 L292.9861,278.07 C289.7641,278.07 287.1521,275.458 287.1521,272.236 L287.1521,272.236 C287.1521,269.014 289.7641,266.402 292.9861,266.402 L324.5331,266.402 C327.7551,266.402 330.3671,269.014 330.3671,272.236 L330.3671,272.236 C330.3671,275.458 327.7551,278.07 324.5331,278.07" id="Fill-636"></path>
                <path d="M358.728,243.823 L333.391,243.823 C330.804,243.823 328.706,241.725 328.706,239.138 L328.706,239.138 C328.706,236.55 330.804,234.452 333.391,234.452 L358.728,234.452 C361.316,234.452 363.413,236.55 363.413,239.138 L363.413,239.138 C363.413,241.725 361.316,243.823 358.728,243.823" id="Fill-637"></path>
                <path d="M441.0853,243.823 L415.7483,243.823 C413.1613,243.823 411.0633,241.725 411.0633,239.138 L411.0633,239.138 C411.0633,236.55 413.1613,234.452 415.7483,234.452 L441.0853,234.452 C443.6733,234.452 445.7703,236.55 445.7703,239.138 L445.7703,239.138 C445.7703,241.725 443.6733,243.823 441.0853,243.823" id="Fill-638"></path>
                <path d="M591.8036,243.823 L566.4666,243.823 C563.8796,243.823 561.7816,241.725 561.7816,239.138 L561.7816,239.138 C561.7816,236.55 563.8796,234.452 566.4666,234.452 L591.8036,234.452 C594.3916,234.452 596.4886,236.55 596.4886,239.138 L596.4886,239.138 C596.4886,241.725 594.3916,243.823 591.8036,243.823" id="Fill-639"></path>
                <path d="M633.7838,243.823 L608.4468,243.823 C605.8598,243.823 603.7618,241.725 603.7618,239.138 L603.7618,239.138 C603.7618,236.55 605.8598,234.452 608.4468,234.452 L633.7838,234.452 C636.3718,234.452 638.4688,236.55 638.4688,239.138 L638.4688,239.138 C638.4688,241.725 636.3718,243.823 633.7838,243.823" id="Fill-640"></path>
                <path d="M845.4759,413.5351 L794.9189,413.5351 C789.7549,413.5351 785.5699,409.3491 785.5699,404.1861 L785.5699,404.1861 C785.5699,399.0221 789.7549,394.8361 794.9189,394.8361 L845.4759,394.8361 C850.6399,394.8361 854.8249,398.0221 854.8249,403.1861 L854.8249,403.1861 C854.8249,408.3491 850.6399,413.5351 845.4759,413.5351" id="Fill-641"></path>
                <path d="M811.5272,381.2583 L765.6862,381.2583 C761.0052,381.2583 757.2092,377.4633 757.2092,372.7813 L757.2092,372.7813 C757.2092,368.0993 761.0052,364.3043 765.6862,364.3043 L811.5272,364.3043 C816.2092,364.3043 820.0042,368.0993 820.0042,372.7813 L820.0042,372.7813 C820.0042,377.4633 816.2092,381.2583 811.5272,381.2583" id="Fill-642"></path>
                <path d="M780.9609,351.1233 L739.6149,351.1233 C735.3919,351.1233 731.9689,347.7003 731.9689,343.4773 L731.9689,343.4773 C731.9689,339.2543 735.3919,335.8313 739.6149,335.8313 L780.9609,335.8313 C785.1839,335.8313 788.6069,339.2543 788.6069,343.4773 L788.6069,343.4773 C788.6069,347.7003 785.1839,351.1233 780.9609,351.1233" id="Fill-643"></path>
                <path d="M736.5074,299.416 L701.8394,299.416 C698.2984,299.416 695.4284,296.546 695.4284,293.005 L695.4284,293.005 C695.4284,289.464 698.2984,286.594 701.8394,286.594 L736.5074,286.594 C740.0484,286.594 742.9184,289.464 742.9184,293.005 L742.9184,293.005 C742.9184,296.546 740.0484,299.416 736.5074,299.416" id="Fill-644"></path>
                <path d="M755.6827,323.7953 L718.4127,323.7953 C714.6067,323.7953 711.5207,320.7093 711.5207,316.9033 L711.5207,316.9033 C711.5207,313.0963 714.6067,310.0113 718.4127,310.0113 L755.6827,310.0113 C759.4887,310.0113 762.5747,313.0963 762.5747,316.9033 L762.5747,316.9033 C762.5747,320.7093 759.4887,323.7953 755.6827,323.7953" id="Fill-645"></path>
                <path d="M694.3051,259.905 L665.9421,259.905 C663.0451,259.905 660.6971,257.557 660.6971,254.66 L660.6971,254.66 C660.6971,251.763 663.0451,249.415 665.9421,249.415 L694.3051,249.415 C697.2021,249.415 699.5501,251.763 699.5501,254.66 L699.5501,254.66 C699.5501,257.557 697.2021,259.905 694.3051,259.905" id="Fill-646"></path>
                <path d="M719.1035,278.07 L687.5565,278.07 C684.3345,278.07 681.7225,275.458 681.7225,272.236 L681.7225,272.236 C681.7225,269.014 684.3345,266.402 687.5565,266.402 L719.1035,266.402 C722.3255,266.402 724.9375,269.014 724.9375,272.236 L724.9375,272.236 C724.9375,275.458 722.3255,278.07 719.1035,278.07" id="Fill-647"></path>
                <path d="M675.1725,243.823 L649.8355,243.823 C647.2485,243.823 645.1505,241.725 645.1505,239.138 C645.1505,236.55 647.2485,234.452 649.8355,234.452 L675.1725,234.452 C677.7605,234.452 679.8575,236.55 679.8575,239.138 C679.8575,241.725 677.7605,243.823 675.1725,243.823" id="Fill-648"></path>
            </g>
            <g id="Group-653">
                <path d="M420.587,354.9625 L438.88,282.5405 L624.39,282.5405 L660.445,354.9625 L420.587,354.9625 Z" id="Fill-650" fill="#292D2C" sketch:type="MSShapeGroup"></path>
                <path d="M626.1446,279.7059 L436.6726,279.7059 L416.9476,357.7969 L665.0236,357.7969 L626.1446,279.7059 Z M622.6336,285.3749 L655.8676,352.1279 L424.2266,352.1279 L441.0876,285.3749 L622.6336,285.3749 Z" id="Fill-652" fill="#FFFFFF" sketch:type="MSShapeGroup"></path>
                <text id="407" sketch:type="MSTextLayer" font-family="Luckiest Guy" font-size="26" font-weight="normal" fill="#FFFFFF">
                    <tspan x="509.1875" y="310.2422">407</tspan>
                </text>
                <text id="SEATS" sketch:type="MSTextLayer" font-family="Luckiest Guy" font-size="26" font-weight="normal" fill="#FFFFFF">
                    <tspan x="496.5255" y="338.2442">SE</tspan>
                    <tspan x="522.779406" y="338.2442" letter-spacing="-1.5054">A</tspan>
                    <tspan x="536.05135" y="338.2442">TS</tspan>
                </text>
            </g>
        </g>
    </g>
</svg>