<?xml version="1.0" encoding="UTF-8" standalone="no"?>
<svg width="795px" height="378px" viewBox="0 0 795 378" version="1.1" xmlns="http://www.w3.org/2000/svg" xmlns:xlink="http://www.w3.org/1999/xlink" xmlns:sketch="http://www.bohemiancoding.com/sketch/ns">
    <!-- Generator: Sketch 3.3.3 (12072) - http://www.bohemiancoding.com/sketch -->
    <title>Salillustrasjoner</title>
    <desc>Created with Sketch.</desc>
    <defs>
        <path id="path-1" d="M0.153,39.314 L42.416,39.314 L42.416,0.199 L0.153,0.199 L0.153,39.314 Z"></path>
        <path id="path-3" d="M0.153,39.314 L42.416,39.314 L42.416,0.199 L0.153,0.199 L0.153,39.314 Z"></path>
    </defs>
    <g id="Page-4" stroke="none" stroke-width="1" fill="none" fill-rule="evenodd" sketch:type="MSPage">
        <g id="Salillustrasjoner" sketch:type="MSLayerGroup" transform="translate(-113.000000, -36.000000)">
            <g id="Group-521" sketch:type="MSShapeGroup">
                <path d="M113.3858,372.7812 L288.8458,38.9932 L320.6508,199.1062 L120.9288,412.7372 L113.3858,372.7812 Z" id="Fill-518" fill="#B2C1AC"></path>
                <path d="M292.136,36.3937 L325.801,197.7457 L684.068,198.4257 L733.665,37.1337 L292.136,36.3937 Z" id="Fill-520" fill="#E5B44D"></path>
            </g>
            <g id="Group-551" sketch:type="MSShapeGroup">
                <path d="M738.9003,40.853 L688.3613,199.783 L895.3063,408.435 L907.0863,362.304 L739.6373,40.81 C739.5003,40.476 738.9923,40.506 738.9003,40.853" id="Fill-522" fill="#B2C1AC"></path>
                <path d="M478.4134,174.2419 L472.6504,201.6989 L624.5244,201.5639 L603.0394,174.2419 L478.4134,174.2419 Z" id="Fill-524" fill="#B2C1AC"></path>
                <path d="M472.6505,203.5212 L475.1525,220.1372 L620.0835,220.6452 L625.1385,203.5212 L472.6505,203.5212 Z" id="Fill-525" fill="#292D2C"></path>
                <path d="M557.6254,156.605 C557.6254,156.605 550.0594,164.671 553.0454,167.124 C556.0314,169.577 556.1584,169.006 556.1584,169.006" id="Fill-526" fill="#292D2C"></path>
                <path d="M564.3708,188.3575 L561.6068,188.5995 C561.6068,188.5995 561.1368,189.0125 560.5498,189.1655 C559.9628,189.3195 558.5208,189.2575 558.6688,189.6875 C558.8158,190.1195 561.8428,189.8585 562.0728,189.8495 C562.3028,189.8415 563.0558,189.7395 563.0558,189.7395 L563.0688,189.8455 L564.6298,189.8045 C564.6298,189.8045 564.6878,188.6995 564.3708,188.3575" id="Fill-527" fill="#292D2C"></path>
                <path d="M569.6725,188.7304 L567.4075,188.5524 C567.4075,188.5524 566.4385,189.3854 565.8515,189.5384 C565.2645,189.6924 563.8225,189.6304 563.9705,190.0614 C564.1175,190.4914 567.1445,190.2314 567.3745,190.2224 C567.6045,190.2144 568.3575,190.1124 568.3575,190.1124 L568.3705,190.2194 L569.9325,190.1774 C569.9325,190.1774 569.9895,189.0724 569.6725,188.7304" id="Fill-528" fill="#292D2C"></path>
                <path d="M563.9382,177.7458 L567.0072,188.8248 L569.9052,189.4068 L571.2312,170.8018 L561.5412,169.8168 L556.0392,172.0338 L561.4742,188.6308 L564.5562,188.7688 L563.9382,177.7458 Z" id="Fill-529" fill="#A83548"></path>
                <path d="M571.9204,171.9371 C572.2554,169.2291 572.3934,163.9421 570.0074,157.2531 C566.4934,147.3991 557.5654,157.0481 557.5654,157.0481 C557.5654,157.0481 555.1354,163.2471 555.0544,167.9281 C555.0184,169.9891 555.2204,171.7631 555.4584,173.1031 L571.9204,171.9371 Z" id="Fill-530" fill="#292D2C"></path>
                <path d="M562.2804,156.9243 L560.1454,167.7633 L561.7054,170.7203 L564.2514,167.5993 L564.0864,156.7603 L562.2804,156.9243 Z" id="Fill-531" fill="#E5B44D"></path>
                <path d="M557.4224,156.9063 L563.3234,157.6443 L570.0194,157.2683 C570.0194,157.2683 571.0944,139.8443 562.2934,140.8293 C553.4924,141.8153 557.4224,156.9063 557.4224,156.9063" id="Fill-532" fill="#F0D4B1"></path>
                <path d="M571.0667,149.0412 C571.0667,150.2202 570.4967,151.1762 569.7937,151.1762 C569.0907,151.1762 568.5217,150.2202 568.5217,149.0412 C568.5217,147.8622 569.0907,146.9062 569.7937,146.9062 C570.4967,146.9062 571.0667,147.8622 571.0667,149.0412" id="Fill-533" fill="#F0D4B1"></path>
                <path d="M565.5945,143.3297 L554.7055,142.9627 C554.7055,142.9627 558.9955,137.7907 567.9195,140.6617" id="Fill-534" fill="#292D2C"></path>
                <path d="M556.2045,148.6996 C556.0835,148.6996 555.9855,148.7976 555.9855,148.9186 L555.9855,150.2046 C555.9855,150.3256 556.0835,150.4236 556.2045,150.4236 L560.1185,150.4236 C560.2395,150.4236 560.3375,150.3256 560.3375,150.2046 L560.3375,148.9186 C560.3375,148.7976 560.2395,148.6996 560.1185,148.6996 L556.2045,148.6996 Z M560.1185,150.9166 L556.2045,150.9166 C555.8115,150.9166 555.4925,150.5976 555.4925,150.2046 L555.4925,148.9186 C555.4925,148.5266 555.8115,148.2066 556.2045,148.2066 L560.1185,148.2066 C560.5105,148.2066 560.8305,148.5266 560.8305,148.9186 L560.8305,150.2046 C560.8305,150.5976 560.5105,150.9166 560.1185,150.9166 L560.1185,150.9166 Z" id="Fill-535" fill="#1D5768"></path>
                <path d="M561.5281,148.9868 C561.5281,148.9868 557.7231,150.3408 558.4901,152.2718 C558.8881,153.2748 562.6661,151.9068 562.6661,151.9068" id="Fill-536" fill="#BB817B"></path>
                <path d="M562.3632,149.2744 C562.2422,149.2744 562.1442,149.3724 562.1442,149.4934 L562.1442,150.7794 C562.1442,150.9004 562.2422,150.9984 562.3632,150.9984 L566.2772,150.9984 C566.3972,150.9984 566.4962,150.9004 566.4962,150.7794 L566.4962,149.4934 C566.4962,149.3724 566.3972,149.2744 566.2772,149.2744 L562.3632,149.2744 Z M566.2772,151.4914 L562.3632,151.4914 C561.9702,151.4914 561.6512,151.1724 561.6512,150.7794 L561.6512,149.4934 C561.6512,149.1014 561.9702,148.7814 562.3632,148.7814 L566.2772,148.7814 C566.6692,148.7814 566.9892,149.1014 566.9892,149.4934 L566.9892,150.7794 C566.9892,151.1724 566.6692,151.4914 566.2772,151.4914 L566.2772,151.4914 Z" id="Fill-537" fill="#1D5768"></path>
                <path d="M561.9781,149.6285 L560.5001,149.2185 L560.6321,148.7435 L562.1101,149.1535 L561.9781,149.6285 Z" id="Fill-538" fill="#1D5768"></path>
                <path d="M561.8022,153.3665 C561.8022,153.3665 565.4582,151.2225 565.6222,152.0435 C565.7862,152.8645 563.2682,154.2885 563.2682,154.2885" id="Fill-539" fill="#A83548"></path>
                <path d="M557.3717,156.8808 L560.3917,160.6198 L563.0197,157.5808 L557.3717,156.8808 Z" id="Fill-540" fill="#BB817B"></path>
                <path d="M563.0195,157.5813 L564.9905,160.7013 L570.0815,157.2533 L563.0195,157.5813 Z" id="Fill-541" fill="#BB817B"></path>
                <path d="M559.3025,167.043 L559.2885,167.039 C559.4175,166.994 559.5215,166.898 559.5595,166.767 C559.6245,166.544 559.4705,166.309 559.2155,166.243 L558.0535,165.944 C558.0995,165.898 558.1455,165.835 558.2145,165.773 L558.8855,165.163 C559.0585,165.005 559.0715,164.735 558.9135,164.562 C558.7555,164.388 558.4865,164.375 558.3125,164.533 L557.5135,165.26 L555.3005,166.204 C555.2685,166.207 555.2385,166.213 555.2095,166.221 L554.9405,167.528 L557.6085,168.797 L557.8445,168.843 C558.0705,168.902 558.3065,168.768 558.3715,168.544 C558.3835,168.504 558.3865,168.463 558.3865,168.423 L558.5695,168.471 C558.8245,168.537 559.0835,168.409 559.1485,168.185 C559.1815,168.07 559.1565,167.953 559.0915,167.857 C559.3375,167.909 559.5825,167.784 559.6455,167.567 C559.7105,167.343 559.5575,167.109 559.3025,167.043" id="Fill-542" fill="#F0D4B1"></path>
                <path d="M567.0432,163.502 C567.0432,163.502 566.0282,170.908 566.0872,170.908 C566.7452,170.908 576.0512,172.021 576.0512,172.021 L577.4362,165.354 L567.0432,163.502 Z" id="Fill-543" fill="#FFFFFF"></path>
                <path d="M569.7386,172.3347 C569.5606,172.4847 569.2896,172.4647 569.1346,172.2907 C569.1056,172.2597 569.0866,172.2247 569.0696,172.1877 L568.9246,172.3097 C568.7226,172.4787 568.4336,172.4737 568.2786,172.2997 C568.1996,172.2107 568.1706,172.0937 568.1896,171.9787 C567.9896,172.1317 567.7136,172.1247 567.5636,171.9557 C567.4086,171.7817 567.4476,171.5037 567.6496,171.3347 L567.6606,171.3257 C567.5236,171.3397 567.3886,171.2977 567.2986,171.1957 C567.1446,171.0227 567.1816,170.7447 567.3836,170.5747 L568.3046,169.8057 C568.1436,169.7897 568.0076,169.6927 567.9586,169.5387 C567.8906,169.3137 568.0336,169.0577 568.2776,168.9647 L570.9036,168.8587 C570.9336,168.8467 570.9626,168.8397 570.9926,168.8347 L571.7966,169.9007 L569.9316,172.1917 L569.7386,172.3347 Z" id="Fill-544" fill="#E2CBA8"></path>
                <path d="M569.9174,157.8277 C569.9174,157.8277 579.0664,164.4427 575.5844,167.6087 C574.2704,168.8027 571.4034,170.4157 571.4034,170.4157 L569.7904,168.8627 L571.8214,165.9357 L569.9174,157.8277 Z" id="Fill-545" fill="#292D2C"></path>
                <path d="M562.255,173.0169 L562.82,170.5769 L563.602,172.7569 L562.255,173.0169 Z" id="Fill-546" fill="#A83548"></path>
                <path d="M560.4286,146.9176 C560.4286,147.3356 560.0896,147.6756 559.6706,147.6756 C559.2526,147.6756 558.9136,147.3356 558.9136,146.9176 L558.9136,146.4826 C558.9136,146.0646 559.2526,145.7256 559.6706,145.7256 C560.0896,145.7256 560.4286,146.0646 560.4286,146.4826 L560.4286,146.9176 Z" id="Fill-547" fill="#292D2C"></path>
                <path d="M565.434,147.6412 C565.434,148.0592 565.094,148.3992 564.676,148.3992 C564.258,148.3992 563.918,148.0592 563.918,147.6412 L563.918,147.2062 C563.918,146.7882 564.258,146.4492 564.676,146.4492 C565.094,146.4492 565.434,146.7882 565.434,147.2062 L565.434,147.6412 Z" id="Fill-548" fill="#292D2C"></path>
                <path d="M569.6255,146.4478 C569.6255,143.7068 568.5895,141.4648 567.2775,141.2798 C567.0275,141.0568 566.8585,140.9488 566.8585,140.9488 L566.5945,141.3748 C566.2805,141.5078 565.9865,141.7588 565.7265,142.1068 L565.9965,142.3388 L564.7465,144.3548 L567.2405,143.5738 L569.4485,148.3558 C569.5625,147.7648 569.6255,147.1218 569.6255,146.4478" id="Fill-549" fill="#292D2C"></path>
                <path d="M528.5411,198.3962 L527.3231,169.2192 L562.2831,169.7022 L559.4981,198.8462 L528.5411,198.3962 Z" id="Fill-550" fill="#1D5768"></path>
            </g>
            <path d="M477.2125,47.1497 L624.6325,47.3927 L612.7315,130.1527 L483.8005,130.1527 L477.2125,47.1497 Z" id="Fill-553" fill="#FFFFFF" sketch:type="MSShapeGroup"></path>
            <g id="Group-557" transform="translate(525.000000, 65.000000)">
                <mask id="mask-2" sketch:name="Clip 556" fill="white">
                    <use xlink:href="#path-1"></use>
                </mask>
                <g id="Clip-556"></g>
                <path d="M5.5759,25.1644 C4.7349,25.3594 4.4009,24.9104 4.8289,24.1614 L15.2579,5.8924 L35.5039,0.2544 C36.3359,0.0224 37.0099,0.5354 37.0099,1.3984 L37.0099,16.3074 C37.0099,17.1704 36.3289,18.0284 35.4879,18.2234 L5.5759,25.1644 Z" id="Fill-555" fill="#E87E41" sketch:type="MSShapeGroup" mask="url(#mask-2)"></path>
            </g>
            <path d="M531.0541,67.9768 C530.2311,67.7168 529.8131,68.1608 530.1191,68.9668 L536.9251,86.8728 L546.3551,92.3408 L558.9811,90.8028 L559.3401,90.7598 C560.1971,90.6548 560.4921,89.9958 560.0001,89.2868 L549.1691,73.6958 L531.0541,67.9768 Z" id="Fill-558" fill="#DF4C49" sketch:type="MSShapeGroup"></path>
            <g id="Group-563" transform="translate(525.000000, 65.000000)">
                <mask id="mask-4" sketch:name="Clip 561" fill="white">
                    <use xlink:href="#path-3"></use>
                </mask>
                <g id="Clip-561"></g>
                <path d="M10.414,18.0182 L12.55,23.5392 L17.852,26.7902 C18.588,27.2412 19.879,27.5242 20.736,27.4222 C20.736,27.4222 33.651,25.8832 34.277,25.7782 C34.902,25.6742 35.11,25.4662 35.214,25.1532 L14.738,13.5912 L10.414,18.0182 Z" id="Fill-560" fill="#8F2034" sketch:type="MSShapeGroup" mask="url(#mask-4)"></path>
                <path d="M36.5692,0.4141 C34.1072,2.4201 4.8912,24.9451 4.6832,24.9451 C4.5262,24.6331 4.8392,24.1121 4.8392,24.1121 L15.2512,5.8921 L35.4752,0.2581 C35.4752,0.2581 36.1002,0.0491 36.5692,0.4141" id="Fill-562" fill="#F0AB2B" sketch:type="MSShapeGroup" mask="url(#mask-4)"></path>
            </g>
            <g id="Group-573" fill="#0C0A09" sketch:type="MSShapeGroup">
                <path d="M528.4623,101.905 C528.4623,103.033 528.3863,103.565 527.9193,103.891 C527.5073,104.184 526.9543,104.216 526.2163,104.216 L525.5113,104.216 C525.2503,104.216 525.1533,104.14 525.1533,103.847 L525.1533,103.109 C525.1533,102.784 525.2503,102.719 525.5323,102.719 L526.0533,102.719 C526.2493,102.719 526.4333,102.719 526.5313,102.621 C526.6393,102.513 526.6393,102.372 526.6393,101.851 L526.6393,97.532 C526.6393,97.229 526.6933,97.196 527.0303,97.196 L528.0933,97.196 C528.4293,97.196 528.4623,97.229 528.4623,97.532 L528.4623,101.905 Z" id="Fill-564"></path>
                <path d="M532.3469,102.0786 C532.2279,102.0566 531.9779,102.0456 531.8259,102.0456 L531.7069,102.0456 C531.2079,102.0456 531.0019,102.1326 531.0019,102.5346 L531.0019,102.5776 C531.0019,102.9796 531.2289,103.0766 531.6089,103.0766 L531.6849,103.0766 C531.9349,103.0766 532.0969,103.0006 532.1949,102.9146 C532.3139,102.8056 532.3469,102.6756 532.3469,102.3826 L532.3469,102.0786 Z M532.7159,103.7716 C532.4989,104.0966 531.9779,104.3136 531.2949,104.3136 L531.1319,104.3136 C530.0469,104.3136 529.3739,103.7386 529.3739,102.6426 L529.3739,102.5236 C529.3739,101.3086 530.0579,100.9176 531.5119,100.9176 L531.5879,100.9176 C531.8699,100.9176 532.1839,100.9396 532.3469,100.9606 L532.3469,100.7336 C532.3469,100.5166 532.3139,100.3646 532.1629,100.2556 C532.0319,100.1686 531.8699,100.1366 531.5119,100.1366 C531.1319,100.1366 530.6759,100.2126 530.2529,100.3206 C529.9819,100.3856 529.9169,100.2996 529.8839,100.1146 L529.7969,99.5396 C529.7859,99.4636 529.7759,99.3656 529.7759,99.3226 C529.7759,99.1816 529.8189,99.1056 530.0359,99.0406 C530.4919,98.9106 531.1539,98.8016 531.8909,98.8016 C532.7589,98.8016 533.3239,98.9756 533.6709,99.3336 C533.9529,99.6266 534.0829,100.0496 534.0829,100.6896 L534.0829,103.9126 C534.0829,104.1296 533.9959,104.2166 533.7139,104.2166 L533.2039,104.2166 C532.9549,104.2166 532.8679,104.1616 532.8029,103.9666 L532.7379,103.7716 L532.7159,103.7716 Z" id="Fill-566"></path>
                <path d="M538.217,103.9991 C538.152,104.1401 538.065,104.2161 537.837,104.2161 L536.655,104.2161 C536.438,104.2161 536.329,104.1621 536.253,103.9881 C535.765,102.8601 534.984,100.7221 534.626,99.2141 C534.571,98.9861 534.68,98.8991 534.929,98.8991 L535.938,98.8991 C536.177,98.8991 536.253,98.9321 536.307,99.1491 C536.6,100.2671 537.023,101.7101 537.24,102.3501 L537.284,102.3501 C537.501,101.6881 537.891,100.2771 538.141,99.1921 C538.195,98.9541 538.26,98.8991 538.499,98.8991 L539.53,98.8991 C539.779,98.8991 539.877,98.9861 539.812,99.2141 C539.421,100.6571 538.705,102.8601 538.217,103.9991" id="Fill-567"></path>
                <path d="M543.1757,102.0786 C543.0567,102.0566 542.8067,102.0456 542.6547,102.0456 L542.5357,102.0456 C542.0367,102.0456 541.8307,102.1326 541.8307,102.5346 L541.8307,102.5776 C541.8307,102.9796 542.0577,103.0766 542.4377,103.0766 L542.5137,103.0766 C542.7637,103.0766 542.9257,103.0006 543.0237,102.9146 C543.1427,102.8056 543.1757,102.6756 543.1757,102.3826 L543.1757,102.0786 Z M543.5447,103.7716 C543.3277,104.0966 542.8067,104.3136 542.1237,104.3136 L541.9607,104.3136 C540.8757,104.3136 540.2027,103.7386 540.2027,102.6426 L540.2027,102.5236 C540.2027,101.3086 540.8867,100.9176 542.3407,100.9176 L542.4167,100.9176 C542.6987,100.9176 543.0127,100.9396 543.1757,100.9606 L543.1757,100.7336 C543.1757,100.5166 543.1427,100.3646 542.9917,100.2556 C542.8607,100.1686 542.6987,100.1366 542.3407,100.1366 C541.9607,100.1366 541.5047,100.2126 541.0817,100.3206 C540.8107,100.3856 540.7457,100.2996 540.7127,100.1146 L540.6257,99.5396 C540.6147,99.4636 540.6047,99.3656 540.6047,99.3226 C540.6047,99.1816 540.6477,99.1056 540.8647,99.0406 C541.3207,98.9106 541.9817,98.8016 542.7197,98.8016 C543.5877,98.8016 544.1527,98.9756 544.4997,99.3336 C544.7817,99.6266 544.9117,100.0496 544.9117,100.6896 L544.9117,103.9126 C544.9117,104.1296 544.8247,104.2166 544.5427,104.2166 L544.0327,104.2166 C543.7837,104.2166 543.6967,104.1616 543.6317,103.9666 L543.5667,103.7716 L543.5447,103.7716 Z" id="Fill-568"></path>
                <path d="M550.3696,102.7405 C550.6626,102.7405 550.7496,102.8165 550.7496,103.0875 L550.7496,103.8685 C550.7496,104.1615 550.6626,104.2165 550.3696,104.2165 L546.0616,104.2165 C545.7256,104.2165 545.6496,104.1295 545.6496,103.8475 L545.6496,103.5215 C545.6496,103.2835 545.6826,103.1855 545.8236,102.9575 L548.4056,98.6715 L546.1596,98.6715 C545.8666,98.6715 545.7796,98.5955 545.7796,98.3355 L545.7796,97.5435 C545.7796,97.2615 545.8666,97.1965 546.1596,97.1965 L550.3696,97.1965 C550.6296,97.1965 550.7166,97.2505 550.7166,97.5105 L550.7166,97.8795 C550.7166,98.1075 550.6736,98.2375 550.4996,98.5195 L547.8526,102.7405 L550.3696,102.7405 Z" id="Fill-569"></path>
                <path d="M553.1799,101.981 C553.1799,102.458 553.2129,102.643 553.3749,102.806 C553.4729,102.903 553.6139,102.958 553.8309,102.958 L553.8739,102.958 C554.0909,102.958 554.2319,102.903 554.3299,102.806 C554.4929,102.643 554.5249,102.458 554.5249,101.981 L554.5249,101.135 C554.5249,100.657 554.4929,100.473 554.3299,100.31 C554.2319,100.212 554.0909,100.158 553.8739,100.158 L553.8309,100.158 C553.6139,100.158 553.4729,100.212 553.3749,100.31 C553.2129,100.473 553.1799,100.657 553.1799,101.135 L553.1799,101.981 Z M556.2719,101.905 C556.2719,103.012 556.0449,103.533 555.5889,103.891 C555.2739,104.14 554.6879,104.314 553.9179,104.314 L553.7879,104.314 C553.0169,104.314 552.4309,104.14 552.1169,103.891 C551.6609,103.533 551.4329,103.012 551.4329,101.905 L551.4329,101.211 C551.4329,100.104 551.6609,99.583 552.1169,99.225 C552.4309,98.975 553.0169,98.802 553.7879,98.802 L553.9179,98.802 C554.6879,98.802 555.2739,98.975 555.5889,99.225 C556.0449,99.583 556.2719,100.093 556.2719,101.2 L556.2719,101.905 Z" id="Fill-570"></path>
                <path d="M560.135,98.8018 C560.775,98.8018 561.231,98.9538 561.513,99.2468 C561.806,99.5508 561.914,99.9518 561.914,100.6788 L561.914,103.9018 C561.914,104.1078 561.838,104.2158 561.546,104.2158 L560.547,104.2158 C560.254,104.2158 560.178,104.1078 560.178,103.9018 L560.178,100.8308 C560.178,100.5818 560.146,100.4298 560.059,100.3318 C559.972,100.2338 559.799,100.1908 559.582,100.1908 L559.516,100.1908 C559.299,100.1908 559.126,100.2338 559.039,100.3318 C558.952,100.4298 558.92,100.5708 558.92,100.8308 L558.92,103.9018 C558.92,104.1078 558.844,104.2158 558.551,104.2158 L557.553,104.2158 C557.26,104.2158 557.184,104.1078 557.184,103.9018 L557.184,99.2038 C557.184,98.9868 557.271,98.8998 557.553,98.8998 L558.063,98.8998 C558.312,98.8998 558.399,98.9428 558.464,99.1488 L558.529,99.3548 L558.562,99.3548 C558.909,98.9868 559.408,98.8018 560.048,98.8018 L560.135,98.8018 Z" id="Fill-571"></path>
                <path d="M565.6905,101.0261 C565.7885,101.0261 565.8205,100.9831 565.8205,100.8851 L565.8205,100.7111 C565.8205,100.4941 565.7885,100.3321 565.7125,100.2121 C565.6145,100.0711 565.4515,100.0171 565.2135,100.0171 L565.1155,100.0171 C564.9205,100.0171 564.7575,100.0601 564.6595,100.1691 C564.5515,100.2881 564.4965,100.4731 564.4965,100.7551 L564.4965,101.0261 L565.6905,101.0261 Z M565.6255,102.9141 C565.9725,102.9141 566.5045,102.8381 566.7755,102.7731 C566.8295,102.7621 566.9055,102.7401 566.9815,102.7401 C567.0795,102.7401 567.1555,102.8161 567.1765,102.9251 L567.2635,103.4671 C567.2855,103.5761 567.3075,103.6841 567.3075,103.7601 C567.3075,103.9011 567.2525,103.9771 567.0255,104.0531 C566.5915,104.2051 565.9185,104.3141 565.3865,104.3141 L565.1805,104.3141 C564.3235,104.3141 563.6615,104.1291 563.2925,103.7601 C562.8585,103.3261 562.7505,102.7731 562.7505,101.8941 L562.7505,101.2861 C562.7505,100.2011 563.0325,99.6151 563.4015,99.2901 C563.7595,98.9751 564.3235,98.8021 565.1045,98.8021 L565.2565,98.8021 C566.0375,98.8021 566.6015,99.0191 566.8945,99.3441 C567.2745,99.7671 567.4155,100.3531 567.4155,101.2861 L567.4155,101.8511 C567.4155,102.0791 567.3185,102.1541 567.1015,102.1541 L564.4965,102.1541 L564.4965,102.2411 C564.4965,102.7511 564.7465,102.9141 565.5055,102.9141 L565.6255,102.9141 Z" id="Fill-572"></path>
            </g>
            <g id="Group-583" transform="translate(276.000000, 116.000000)" sketch:type="MSShapeGroup">
                <path d="M450.9393,29.7381 L400.9573,22.5621 L397.3613,118.0371 L426.1963,126.7131 L450.9393,29.7381 Z" id="Fill-574" fill="#FFFFFF"></path>
                <path d="M394.3518,1.9369 L396.6668,29.4709 L453.9118,32.5869 L458.2548,0.5099 L394.3518,1.9369 Z" id="Fill-576" fill="#FFFFFF"></path>
                <path d="M394.3518,1.9369 L396.6668,29.4709 L453.9118,32.5869 L458.2548,0.5099 L394.3518,1.9369 L394.3518,1.9369 Z" id="Stroke-577" stroke="#E5B44D"></path>
                <path d="M418.6129,97.4901 L422.1459,85.6491 L421.7669,85.1751 L409.5139,85.1461 L411.4499,89.2031 L405.7339,92.6861 L410.3219,98.4271 L414.8659,94.3521 L418.6129,97.4901 Z" id="Fill-578" fill="#F0AB2B"></path>
                <path d="M7.4579,29.7381 L57.4399,22.5621 L61.0359,118.0371 L32.2009,126.7131 L7.4579,29.7381 Z" id="Fill-579" fill="#FFFFFF"></path>
                <path d="M64.0453,1.9369 L61.7303,29.4709 L4.4853,32.5869 L0.1423,0.5099 L64.0453,1.9369 Z" id="Fill-580" fill="#FFFFFF"></path>
                <path d="M64.0453,1.9369 L61.7303,29.4709 L4.4853,32.5869 L0.1423,0.5099 L64.0453,1.9369 L64.0453,1.9369 Z" id="Stroke-581" stroke="#E5B44D"></path>
                <path d="M41.5298,98.4232 L36.7058,87.0472 L37.0288,86.5342 L49.2038,85.1462 L47.7288,89.3922 L53.7968,92.2202 L49.8738,98.4352 L44.9058,94.8892 L41.5298,98.4232 Z" id="Fill-582" fill="#F0AB2B"></path>
                <path d="M21.4208358,6.28118389 C21.3761565,6.98115998 21.3352011,7.67367913 21.2979683,8.35876211 C21.2607355,9.04384509 21.2123337,9.73636424 21.1527612,10.4363403 L16.4167765,10.6820754 L16.3050787,12.0894671 L19.6336718,12.0894671 L19.3879367,15.5520975 L16.0370041,15.6637952 L15.9253063,17.2945824 L18.6954106,17.2945824 L20.6612911,17.2945824 C20.6166118,18.1137034 20.5700715,18.9272272 20.5216689,19.7351783 C20.4732663,20.5431295 20.4304493,21.3529301 20.3932165,22.1646045 L10.7648701,22.388 L11.1223029,6.28118389 L21.4208358,6.28118389 Z M35.2490178,6.7279749 L30.8928054,14.3010826 L34.6011708,20.8912501 L29.9322047,22.3433209 L27.9216451,17.7860525 L25.5536527,22.3656604 L20.7283098,20.6231755 L24.8387871,14.1447058 L21.0857426,7.33114277 L26.2014997,6.10246748 L28.0333429,10.5927172 L29.9768838,6.10246748 L35.2490178,6.7279749 Z M41.2918663,6.66095625 L40.063191,21.8741903 L35.3495458,22.1199254 L35.3495458,6.97370996 L41.2918663,6.66095625 Z M53.8690333,6.41522119 L53.7573356,11.151206 L50.4287425,11.2852433 L49.5798396,21.8741903 L44.8661944,22.1199254 L44.8885339,11.5309783 L41.5599409,11.7096947 L41.6939782,6.43756074 L53.8690333,6.41522119 Z" id="EXIT" fill="#292D2C"></path>
                <path d="M415.752136,6.28118389 C415.707457,6.98115998 415.666501,7.67367913 415.629268,8.35876211 C415.592036,9.04384509 415.543634,9.73636424 415.484061,10.4363403 L410.748076,10.6820754 L410.636379,12.0894671 L413.964972,12.0894671 L413.719237,15.5520975 L410.368304,15.6637952 L410.256606,17.2945824 L413.026711,17.2945824 L414.992591,17.2945824 C414.947912,18.1137034 414.901372,18.9272272 414.852969,19.7351783 C414.804566,20.5431295 414.761749,21.3529301 414.724517,22.1646045 L405.09617,22.388 L405.453603,6.28118389 L415.752136,6.28118389 Z M429.580318,6.7279749 L425.224105,14.3010826 L428.932471,20.8912501 L424.263505,22.3433209 L422.252945,17.7860525 L419.884953,22.3656604 L415.05961,20.6231755 L419.170087,14.1447058 L415.417043,7.33114277 L420.5328,6.10246748 L422.364643,10.5927172 L424.308184,6.10246748 L429.580318,6.7279749 Z M435.623166,6.66095625 L434.394491,21.8741903 L429.680846,22.1199254 L429.680846,6.97370996 L435.623166,6.66095625 Z M448.200333,6.41522119 L448.088636,11.151206 L444.760043,11.2852433 L443.91114,21.8741903 L439.197494,22.1199254 L439.219834,11.5309783 L435.891241,11.7096947 L436.025278,6.43756074 L448.200333,6.41522119 Z" id="EXIT" fill="#292D2C"></path>
            </g>
            <g id="Group-649" fill="#292D2C" sketch:type="MSShapeGroup">
                <path d="M307.2462,413.5351 L256.6892,413.5351 C251.5262,413.5351 247.3402,409.3491 247.3402,404.1861 L247.3402,404.1861 C247.3402,399.0221 251.5262,394.8361 256.6892,394.8361 L307.2462,394.8361 C312.4092,394.8361 316.5952,399.0221 316.5952,404.1861 L316.5952,404.1861 C316.5952,409.3491 312.4092,413.5351 307.2462,413.5351" id="Fill-584"></path>
                <path d="M391.014,413.5351 L340.457,413.5351 C335.294,413.5351 331.108,409.3491 331.108,404.1861 L331.108,404.1861 C331.108,399.0221 335.294,394.8361 340.457,394.8361 L391.014,394.8361 C396.178,394.8361 400.363,399.0221 400.363,404.1861 L400.363,404.1861 C400.363,409.3491 396.178,413.5351 391.014,413.5351" id="Fill-586"></path>
                <path d="M474.7819,413.5351 L424.2249,413.5351 C419.0609,413.5351 414.8759,409.3491 414.8759,404.1861 L414.8759,404.1861 C414.8759,399.0221 419.0609,394.8361 424.2249,394.8361 L474.7819,394.8361 C479.9449,394.8361 484.1309,399.0221 484.1309,404.1861 L484.1309,404.1861 C484.1309,409.3491 479.9449,413.5351 474.7819,413.5351" id="Fill-587"></path>
                <path d="M559.6538,413.5351 L509.0968,413.5351 C503.9338,413.5351 499.7478,409.3491 499.7478,404.1861 L499.7478,404.1861 C499.7478,399.0221 503.9338,394.8361 509.0968,394.8361 L559.6538,394.8361 C564.8178,394.8361 569.0028,399.0221 569.0028,404.1861 L569.0028,404.1861 C569.0028,409.3491 564.8178,413.5351 559.6538,413.5351" id="Fill-588"></path>
                <path d="M673.4798,413.5351 L622.9228,413.5351 C617.7588,413.5351 613.5738,409.3491 613.5738,404.1861 L613.5738,404.1861 C613.5738,399.0221 617.7588,394.8361 622.9228,394.8361 L673.4798,394.8361 C678.6438,394.8361 682.8288,399.0221 682.8288,404.1861 L682.8288,404.1861 C682.8288,409.3491 678.6438,413.5351 673.4798,413.5351" id="Fill-589"></path>
                <path d="M757.2476,413.5351 L706.6906,413.5351 C701.5276,413.5351 697.3416,409.3491 697.3416,404.1861 L697.3416,404.1861 C697.3416,399.0221 701.5276,394.8361 706.6906,394.8361 L757.2476,394.8361 C762.4116,394.8361 766.5966,399.0221 766.5966,404.1861 L766.5966,404.1861 C766.5966,409.3491 762.4116,413.5351 757.2476,413.5351" id="Fill-590"></path>
                <path d="M324.4241,381.2583 L278.5831,381.2583 C273.9021,381.2583 270.1061,377.4633 270.1061,372.7813 L270.1061,372.7813 C270.1061,368.0993 273.9021,364.3043 278.5831,364.3043 L324.4241,364.3043 C329.1061,364.3043 332.9011,368.0993 332.9011,372.7813 L332.9011,372.7813 C332.9011,377.4633 329.1061,381.2583 324.4241,381.2583" id="Fill-591"></path>
                <path d="M400.3775,381.2583 L354.5365,381.2583 C349.8555,381.2583 346.0595,377.4633 346.0595,372.7813 L346.0595,372.7813 C346.0595,368.0993 349.8555,364.3043 354.5365,364.3043 L400.3775,364.3043 C405.0595,364.3043 408.8545,368.0993 408.8545,372.7813 L408.8545,372.7813 C408.8545,377.4633 405.0595,381.2583 400.3775,381.2583" id="Fill-592"></path>
                <path d="M476.331,381.2583 L430.49,381.2583 C425.808,381.2583 422.013,377.4633 422.013,372.7813 L422.013,372.7813 C422.013,368.0993 425.808,364.3043 430.49,364.3043 L476.331,364.3043 C481.013,364.3043 484.808,368.0993 484.808,372.7813 L484.808,372.7813 C484.808,377.4633 481.013,381.2583 476.331,381.2583" id="Fill-593"></path>
                <path d="M553.3884,381.2583 L507.5474,381.2583 C502.8664,381.2583 499.0704,377.4633 499.0704,372.7813 L499.0704,372.7813 C499.0704,368.0993 502.8664,364.3043 507.5474,364.3043 L553.3884,364.3043 C558.0704,364.3043 561.8654,368.0993 561.8654,372.7813 L561.8654,372.7813 C561.8654,377.4633 558.0704,381.2583 553.3884,381.2583" id="Fill-594"></path>
                <path d="M658.4879,381.2583 L612.6469,381.2583 C607.9659,381.2583 604.1699,377.4633 604.1699,372.7813 L604.1699,372.7813 C604.1699,368.0993 607.9659,364.3043 612.6469,364.3043 L658.4879,364.3043 C663.1699,364.3043 666.9649,368.0993 666.9649,372.7813 L666.9649,372.7813 C666.9649,377.4633 663.1699,381.2583 658.4879,381.2583" id="Fill-595"></path>
                <path d="M734.4413,381.2583 L688.6003,381.2583 C683.9183,381.2583 680.1233,377.4633 680.1233,372.7813 L680.1233,372.7813 C680.1233,368.0993 683.9183,364.3043 688.6003,364.3043 L734.4413,364.3043 C739.1233,364.3043 742.9183,368.0993 742.9183,372.7813 L742.9183,372.7813 C742.9183,377.4633 739.1233,381.2583 734.4413,381.2583" id="Fill-596"></path>
                <path d="M340.7956,351.1233 L299.4496,351.1233 C295.2266,351.1233 291.8036,347.7003 291.8036,343.4773 L291.8036,343.4773 C291.8036,339.2543 295.2266,335.8313 299.4496,335.8313 L340.7956,335.8313 C345.0186,335.8313 348.4416,339.2543 348.4416,343.4773 L348.4416,343.4773 C348.4416,347.7003 345.0186,351.1233 340.7956,351.1233" id="Fill-597"></path>
                <path d="M409.3014,351.1233 L367.9554,351.1233 C363.7324,351.1233 360.3094,347.7003 360.3094,343.4773 L360.3094,343.4773 C360.3094,339.2543 363.7324,335.8313 367.9554,335.8313 L409.3014,335.8313 C413.5244,335.8313 416.9474,339.2543 416.9474,343.4773 L416.9474,343.4773 C416.9474,347.7003 413.5244,351.1233 409.3014,351.1233" id="Fill-598"></path>
                <path d="M477.8073,351.1233 L436.4613,351.1233 C432.2383,351.1233 428.8153,347.7003 428.8153,343.4773 L428.8153,343.4773 C428.8153,339.2543 432.2383,335.8313 436.4613,335.8313 L477.8073,335.8313 C482.0303,335.8313 485.4533,339.2543 485.4533,343.4773 L485.4533,343.4773 C485.4533,347.7003 482.0303,351.1233 477.8073,351.1233" id="Fill-599"></path>
                <path d="M547.4172,351.1233 L506.0712,351.1233 C501.8482,351.1233 498.4252,347.7003 498.4252,343.4773 L498.4252,343.4773 C498.4252,339.2543 501.8482,335.8313 506.0712,335.8313 L547.4172,335.8313 C551.6402,335.8313 555.0632,339.2543 555.0632,343.4773 L555.0632,343.4773 C555.0632,347.7003 551.6402,351.1233 547.4172,351.1233" id="Fill-600"></path>
                <path d="M644.157,351.1233 L602.811,351.1233 C598.588,351.1233 595.165,347.7003 595.165,343.4773 L595.165,343.4773 C595.165,339.2543 598.588,335.8313 602.811,335.8313 L644.157,335.8313 C648.38,335.8313 651.803,339.2543 651.803,343.4773 L651.803,343.4773 C651.803,347.7003 648.38,351.1233 644.157,351.1233" id="Fill-601"></path>
                <path d="M712.6629,351.1233 L671.3169,351.1233 C667.0939,351.1233 663.6709,347.7003 663.6709,343.4773 L663.6709,343.4773 C663.6709,339.2543 667.0939,335.8313 671.3169,335.8313 L712.6629,335.8313 C716.8859,335.8313 720.3089,339.2543 720.3089,343.4773 L720.3089,343.4773 C720.3089,347.7003 716.8859,351.1233 712.6629,351.1233" id="Fill-602"></path>
                <path d="M365.1183,299.416 L330.4503,299.416 C326.9093,299.416 324.0393,296.546 324.0393,293.005 L324.0393,293.005 C324.0393,289.464 326.9093,286.594 330.4503,286.594 L365.1183,286.594 C368.6593,286.594 371.5293,289.464 371.5293,293.005 L371.5293,293.005 C371.5293,296.546 368.6593,299.416 365.1183,299.416" id="Fill-603"></path>
                <path d="M422.5594,299.416 L387.8914,299.416 C384.3504,299.416 381.4804,296.546 381.4804,293.005 L381.4804,293.005 C381.4804,289.464 384.3504,286.594 387.8914,286.594 L422.5594,286.594 C426.1004,286.594 428.9704,289.464 428.9704,293.005 L428.9704,293.005 C428.9704,296.546 426.1004,299.416 422.5594,299.416" id="Fill-604"></path>
                <path d="M480.0006,299.416 L445.3326,299.416 C441.7916,299.416 438.9216,296.546 438.9216,293.005 L438.9216,293.005 C438.9216,289.464 441.7916,286.594 445.3326,286.594 L480.0006,286.594 C483.5416,286.594 486.4116,289.464 486.4116,293.005 L486.4116,293.005 C486.4116,296.546 483.5416,299.416 480.0006,299.416" id="Fill-605"></path>
                <path d="M538.5459,299.416 L503.8779,299.416 C500.3369,299.416 497.4669,296.546 497.4669,293.005 L497.4669,293.005 C497.4669,289.464 500.3369,286.594 503.8779,286.594 L538.5459,286.594 C542.0869,286.594 544.9569,289.464 544.9569,293.005 L544.9569,293.005 C544.9569,296.546 542.0869,299.416 538.5459,299.416" id="Fill-606"></path>
                <path d="M622.397,299.416 L587.729,299.416 C584.188,299.416 581.318,296.546 581.318,293.005 L581.318,293.005 C581.318,289.464 584.188,286.594 587.729,286.594 L622.397,286.594 C625.938,286.594 628.808,289.464 628.808,293.005 L628.808,293.005 C628.808,296.546 625.938,299.416 622.397,299.416" id="Fill-607"></path>
                <path d="M679.8381,299.416 L645.1701,299.416 C641.6291,299.416 638.7591,296.546 638.7591,293.005 L638.7591,293.005 C638.7591,289.464 641.6291,286.594 645.1701,286.594 L679.8381,286.594 C683.3791,286.594 686.2491,289.464 686.2491,293.005 L686.2491,293.005 C686.2491,296.546 683.3791,299.416 679.8381,299.416" id="Fill-608"></path>
                <path d="M355.6421,323.7953 L318.3721,323.7953 C314.5661,323.7953 311.4801,320.7093 311.4801,316.9033 L311.4801,316.9033 C311.4801,313.0963 314.5661,310.0113 318.3721,310.0113 L355.6421,310.0113 C359.4481,310.0113 362.5341,313.0963 362.5341,316.9033 L362.5341,316.9033 C362.5341,320.7093 359.4481,323.7953 355.6421,323.7953" id="Fill-609"></path>
                <path d="M417.3941,323.7953 L380.1241,323.7953 C376.3181,323.7953 373.2321,320.7093 373.2321,316.9033 L373.2321,316.9033 C373.2321,313.0963 376.3181,310.0113 380.1241,310.0113 L417.3941,310.0113 C421.2001,310.0113 424.2861,313.0963 424.2861,316.9033 L424.2861,316.9033 C424.2861,320.7093 421.2001,323.7953 417.3941,323.7953" id="Fill-610"></path>
                <path d="M479.1461,323.7953 L441.8761,323.7953 C438.0701,323.7953 434.9841,320.7093 434.9841,316.9033 L434.9841,316.9033 C434.9841,313.0963 438.0701,310.0113 441.8761,310.0113 L479.1461,310.0113 C482.9521,310.0113 486.0381,313.0963 486.0381,316.9033 L486.0381,316.9033 C486.0381,320.7093 482.9521,323.7953 479.1461,323.7953" id="Fill-611"></path>
                <path d="M542.0022,323.7953 L504.7322,323.7953 C500.9262,323.7953 497.8402,320.7093 497.8402,316.9033 L497.8402,316.9033 C497.8402,313.0963 500.9262,310.0113 504.7322,310.0113 L542.0022,310.0113 C545.8082,310.0113 548.8942,313.0963 548.8942,316.9033 L548.8942,316.9033 C548.8942,320.7093 545.8082,323.7953 542.0022,323.7953" id="Fill-612"></path>
                <path d="M631.0761,323.7953 L593.8061,323.7953 C590.0001,323.7953 586.9141,320.7093 586.9141,316.9033 L586.9141,316.9033 C586.9141,313.0963 590.0001,310.0113 593.8061,310.0113 L631.0761,310.0113 C634.8821,310.0113 637.9681,313.0963 637.9681,316.9033 L637.9681,316.9033 C637.9681,320.7093 634.8821,323.7953 631.0761,323.7953" id="Fill-613"></path>
                <path d="M692.8281,323.7953 L655.5581,323.7953 C651.7521,323.7953 648.6661,320.7093 648.6661,316.9033 L648.6661,316.9033 C648.6661,313.0963 651.7521,310.0113 655.5581,310.0113 L692.8281,310.0113 C696.6341,310.0113 699.7201,313.0963 699.7201,316.9033 L699.7201,316.9033 C699.7201,320.7093 696.6341,323.7953 692.8281,323.7953" id="Fill-614"></path>
                <path d="M388.0811,259.905 L359.7181,259.905 C356.8211,259.905 354.4731,257.557 354.4731,254.66 L354.4731,254.66 C354.4731,251.763 356.8211,249.415 359.7181,249.415 L388.0811,249.415 C390.9781,249.415 393.3261,251.763 393.3261,254.66 L393.3261,254.66 C393.3261,257.557 390.9781,259.905 388.0811,259.905" id="Fill-615"></path>
                <path d="M435.0762,259.905 L406.7132,259.905 C403.8162,259.905 401.4682,257.557 401.4682,254.66 L401.4682,254.66 C401.4682,251.763 403.8162,249.415 406.7132,249.415 L435.0762,249.415 C437.9732,249.415 440.3212,251.763 440.3212,254.66 L440.3212,254.66 C440.3212,257.557 437.9732,259.905 435.0762,259.905" id="Fill-616"></path>
                <path d="M601.7515,259.905 L573.3885,259.905 C570.4915,259.905 568.1435,257.557 568.1435,254.66 L568.1435,254.66 C568.1435,251.763 570.4915,249.415 573.3885,249.415 L601.7515,249.415 C604.6485,249.415 606.9965,251.763 606.9965,254.66 L606.9965,254.66 C606.9965,257.557 604.6485,259.905 601.7515,259.905" id="Fill-617"></path>
                <path d="M648.7466,259.905 L620.3836,259.905 C617.4866,259.905 615.1386,257.557 615.1386,254.66 L615.1386,254.66 C615.1386,251.763 617.4866,249.415 620.3836,249.415 L648.7466,249.415 C651.6436,249.415 653.9916,251.763 653.9916,254.66 L653.9916,254.66 C653.9916,257.557 651.6436,259.905 648.7466,259.905" id="Fill-618"></path>
                <path d="M376.4859,278.07 L344.9389,278.07 C341.7169,278.07 339.1049,275.458 339.1049,272.236 L339.1049,272.236 C339.1049,269.014 341.7169,266.402 344.9389,266.402 L376.4859,266.402 C379.7079,266.402 382.3199,269.014 382.3199,272.236 L382.3199,272.236 C382.3199,275.458 379.7079,278.07 376.4859,278.07" id="Fill-619"></path>
                <path d="M428.7558,278.07 L397.2088,278.07 C393.9868,278.07 391.3748,275.458 391.3748,272.236 L391.3748,272.236 C391.3748,269.014 393.9868,266.402 397.2088,266.402 L428.7558,266.402 C431.9778,266.402 434.5898,269.014 434.5898,272.236 L434.5898,272.236 C434.5898,275.458 431.9778,278.07 428.7558,278.07" id="Fill-620"></path>
                <path d="M481.0258,278.07 L449.4788,278.07 C446.2568,278.07 443.6448,275.458 443.6448,272.236 L443.6448,272.236 C443.6448,269.014 446.2568,266.402 449.4788,266.402 L481.0258,266.402 C484.2478,266.402 486.8598,269.014 486.8598,272.236 L486.8598,272.236 C486.8598,275.458 484.2478,278.07 481.0258,278.07" id="Fill-621"></path>
                <path d="M481.6155,259.9054 L453.2475,259.9054 C450.3515,259.9054 448.0035,257.5574 448.0035,254.6614 L448.0035,254.6584 C448.0035,251.7624 450.3515,249.4144 453.2475,249.4144 L481.6155,249.4144 C484.5115,249.4144 486.8595,251.7624 486.8595,254.6584 L486.8595,254.6614 C486.8595,257.5574 484.5115,259.9054 481.6155,259.9054" id="Fill-622"></path>
                <path d="M481.7345,243.8232 L456.3795,243.8232 C453.7965,243.8232 451.7025,241.7292 451.7025,239.1462 L451.7025,239.1292 C451.7025,236.5462 453.7965,234.4522 456.3795,234.4522 L481.7345,234.4522 C484.3175,234.4522 486.4115,236.5462 486.4115,239.1292 L486.4115,239.1462 C486.4115,241.7292 484.3175,243.8232 481.7345,243.8232" id="Fill-623"></path>
                <path d="M530.0454,259.9054 L501.6774,259.9054 C498.7814,259.9054 496.4334,257.5574 496.4334,254.6614 L496.4334,254.6584 C496.4334,251.7624 498.7814,249.4144 501.6774,249.4144 L530.0454,249.4144 C532.9414,249.4144 535.2894,251.7624 535.2894,254.6584 L535.2894,254.6614 C535.2894,257.5574 532.9414,259.9054 530.0454,259.9054" id="Fill-624"></path>
                <path d="M526.3212,243.8232 L500.9662,243.8232 C498.3832,243.8232 496.2892,241.7292 496.2892,239.1462 L496.2892,239.1292 C496.2892,236.5462 498.3832,234.4522 500.9662,234.4522 L526.3212,234.4522 C528.9042,234.4522 530.9982,236.5462 530.9982,239.1292 L530.9982,239.1462 C530.9982,241.7292 528.9042,243.8232 526.3212,243.8232" id="Fill-625"></path>
                <path d="M534.2155,278.07 L502.6685,278.07 C499.4465,278.07 496.8345,275.458 496.8345,272.236 L496.8345,272.236 C496.8345,269.014 499.4465,266.402 502.6685,266.402 L534.2155,266.402 C537.4375,266.402 540.0495,269.014 540.0495,272.236 L540.0495,272.236 C540.0495,275.458 537.4375,278.07 534.2155,278.07" id="Fill-626"></path>
                <path d="M611.2554,278.07 L579.7084,278.07 C576.4864,278.07 573.8744,275.458 573.8744,272.236 L573.8744,272.236 C573.8744,269.014 576.4864,266.402 579.7084,266.402 L611.2554,266.402 C614.4774,266.402 617.0894,269.014 617.0894,272.236 L617.0894,272.236 C617.0894,275.458 614.4774,278.07 611.2554,278.07" id="Fill-627"></path>
                <path d="M663.5253,278.07 L631.9783,278.07 C628.7563,278.07 626.1443,275.458 626.1443,272.236 L626.1443,272.236 C626.1443,269.014 628.7563,266.402 631.9783,266.402 L663.5253,266.402 C666.7473,266.402 669.3593,269.014 669.3593,272.236 L669.3593,272.236 C669.3593,275.458 666.7473,278.07 663.5253,278.07" id="Fill-628"></path>
                <path d="M399.1052,243.823 L373.7682,243.823 C371.1812,243.823 369.0832,241.725 369.0832,239.138 L369.0832,239.138 C369.0832,236.55 371.1812,234.452 373.7682,234.452 L399.1052,234.452 C401.6932,234.452 403.7902,236.55 403.7902,239.138 L403.7902,239.138 C403.7902,241.725 401.6932,243.823 399.1052,243.823" id="Fill-629"></path>
                <path d="M223.5783,413.5351 L173.0213,413.5351 C167.8573,413.5351 163.6723,409.3491 163.6723,404.1861 L163.6723,404.1861 C163.6723,399.0221 167.8573,394.8361 173.0213,394.8361 L223.5783,394.8361 C228.7413,394.8361 232.9273,399.0221 232.9273,404.1861 L232.9273,404.1861 C232.9273,409.3491 228.7413,413.5351 223.5783,413.5351" id="Fill-630"></path>
                <path d="M250.8104,381.2583 L204.9694,381.2583 C200.2884,381.2583 196.4924,377.4633 196.4924,372.7813 L196.4924,372.7813 C196.4924,368.0993 200.2884,364.3043 204.9694,364.3043 L250.8104,364.3043 C255.4924,364.3043 259.2874,368.0993 259.2874,372.7813 L259.2874,372.7813 C259.2874,377.4633 255.4924,381.2583 250.8104,381.2583" id="Fill-631"></path>
                <path d="M274.3217,351.1233 L232.9757,351.1233 C228.7527,351.1233 225.3297,347.7003 225.3297,343.4773 L225.3297,343.4773 C225.3297,339.2543 228.7527,335.8313 232.9757,335.8313 L274.3217,335.8313 C278.5447,335.8313 281.9677,339.2543 281.9677,343.4773 L281.9677,343.4773 C281.9677,347.7003 278.5447,351.1233 274.3217,351.1233" id="Fill-632"></path>
                <path d="M309.1378,299.416 L274.4698,299.416 C270.9288,299.416 268.0588,296.546 268.0588,293.005 L268.0588,293.005 C268.0588,289.464 270.9288,286.594 274.4698,286.594 L309.1378,286.594 C312.6788,286.594 315.5488,289.464 315.5488,293.005 L315.5488,293.005 C315.5488,296.546 312.6788,299.416 309.1378,299.416" id="Fill-633"></path>
                <path d="M294.9676,323.7953 L257.6976,323.7953 C253.8916,323.7953 250.8056,320.7093 250.8056,316.9033 L250.8056,316.9033 C250.8056,313.0963 253.8916,310.0113 257.6976,310.0113 L294.9676,310.0113 C298.7736,310.0113 301.8596,313.0963 301.8596,316.9033 L301.8596,316.9033 C301.8596,320.7093 298.7736,323.7953 294.9676,323.7953" id="Fill-634"></path>
                <path d="M342.8877,259.905 L314.5247,259.905 C311.6277,259.905 309.2797,257.557 309.2797,254.66 L309.2797,254.66 C309.2797,251.763 311.6277,249.415 314.5247,249.415 L342.8877,249.415 C345.7847,249.415 348.1327,251.763 348.1327,254.66 L348.1327,254.66 C348.1327,257.557 345.7847,259.905 342.8877,259.905" id="Fill-635"></path>
                <path d="M324.5331,278.07 L292.9861,278.07 C289.7641,278.07 287.1521,275.458 287.1521,272.236 L287.1521,272.236 C287.1521,269.014 289.7641,266.402 292.9861,266.402 L324.5331,266.402 C327.7551,266.402 330.3671,269.014 330.3671,272.236 L330.3671,272.236 C330.3671,275.458 327.7551,278.07 324.5331,278.07" id="Fill-636"></path>
                <path d="M358.728,243.823 L333.391,243.823 C330.804,243.823 328.706,241.725 328.706,239.138 L328.706,239.138 C328.706,236.55 330.804,234.452 333.391,234.452 L358.728,234.452 C361.316,234.452 363.413,236.55 363.413,239.138 L363.413,239.138 C363.413,241.725 361.316,243.823 358.728,243.823" id="Fill-637"></path>
                <path d="M441.0853,243.823 L415.7483,243.823 C413.1613,243.823 411.0633,241.725 411.0633,239.138 L411.0633,239.138 C411.0633,236.55 413.1613,234.452 415.7483,234.452 L441.0853,234.452 C443.6733,234.452 445.7703,236.55 445.7703,239.138 L445.7703,239.138 C445.7703,241.725 443.6733,243.823 441.0853,243.823" id="Fill-638"></path>
                <path d="M591.8036,243.823 L566.4666,243.823 C563.8796,243.823 561.7816,241.725 561.7816,239.138 L561.7816,239.138 C561.7816,236.55 563.8796,234.452 566.4666,234.452 L591.8036,234.452 C594.3916,234.452 596.4886,236.55 596.4886,239.138 L596.4886,239.138 C596.4886,241.725 594.3916,243.823 591.8036,243.823" id="Fill-639"></path>
                <path d="M633.7838,243.823 L608.4468,243.823 C605.8598,243.823 603.7618,241.725 603.7618,239.138 L603.7618,239.138 C603.7618,236.55 605.8598,234.452 608.4468,234.452 L633.7838,234.452 C636.3718,234.452 638.4688,236.55 638.4688,239.138 L638.4688,239.138 C638.4688,241.725 636.3718,243.823 633.7838,243.823" id="Fill-640"></path>
                <path d="M845.4759,413.5351 L794.9189,413.5351 C789.7549,413.5351 785.5699,409.3491 785.5699,404.1861 L785.5699,404.1861 C785.5699,399.0221 789.7549,394.8361 794.9189,394.8361 L845.4759,394.8361 C850.6399,394.8361 854.8249,398.0221 854.8249,403.1861 L854.8249,403.1861 C854.8249,408.3491 850.6399,413.5351 845.4759,413.5351" id="Fill-641"></path>
                <path d="M811.5272,381.2583 L765.6862,381.2583 C761.0052,381.2583 757.2092,377.4633 757.2092,372.7813 L757.2092,372.7813 C757.2092,368.0993 761.0052,364.3043 765.6862,364.3043 L811.5272,364.3043 C816.2092,364.3043 820.0042,368.0993 820.0042,372.7813 L820.0042,372.7813 C820.0042,377.4633 816.2092,381.2583 811.5272,381.2583" id="Fill-642"></path>
                <path d="M780.9609,351.1233 L739.6149,351.1233 C735.3919,351.1233 731.9689,347.7003 731.9689,343.4773 L731.9689,343.4773 C731.9689,339.2543 735.3919,335.8313 739.6149,335.8313 L780.9609,335.8313 C785.1839,335.8313 788.6069,339.2543 788.6069,343.4773 L788.6069,343.4773 C788.6069,347.7003 785.1839,351.1233 780.9609,351.1233" id="Fill-643"></path>
                <path d="M736.5074,299.416 L701.8394,299.416 C698.2984,299.416 695.4284,296.546 695.4284,293.005 L695.4284,293.005 C695.4284,289.464 698.2984,286.594 701.8394,286.594 L736.5074,286.594 C740.0484,286.594 742.9184,289.464 742.9184,293.005 L742.9184,293.005 C742.9184,296.546 740.0484,299.416 736.5074,299.416" id="Fill-644"></path>
                <path d="M755.6827,323.7953 L718.4127,323.7953 C714.6067,323.7953 711.5207,320.7093 711.5207,316.9033 L711.5207,316.9033 C711.5207,313.0963 714.6067,310.0113 718.4127,310.0113 L755.6827,310.0113 C759.4887,310.0113 762.5747,313.0963 762.5747,316.9033 L762.5747,316.9033 C762.5747,320.7093 759.4887,323.7953 755.6827,323.7953" id="Fill-645"></path>
                <path d="M694.3051,259.905 L665.9421,259.905 C663.0451,259.905 660.6971,257.557 660.6971,254.66 L660.6971,254.66 C660.6971,251.763 663.0451,249.415 665.9421,249.415 L694.3051,249.415 C697.2021,249.415 699.5501,251.763 699.5501,254.66 L699.5501,254.66 C699.5501,257.557 697.2021,259.905 694.3051,259.905" id="Fill-646"></path>
                <path d="M719.1035,278.07 L687.5565,278.07 C684.3345,278.07 681.7225,275.458 681.7225,272.236 L681.7225,272.236 C681.7225,269.014 684.3345,266.402 687.5565,266.402 L719.1035,266.402 C722.3255,266.402 724.9375,269.014 724.9375,272.236 L724.9375,272.236 C724.9375,275.458 722.3255,278.07 719.1035,278.07" id="Fill-647"></path>
                <path d="M675.1725,243.823 L649.8355,243.823 C647.2485,243.823 645.1505,241.725 645.1505,239.138 C645.1505,236.55 647.2485,234.452 649.8355,234.452 L675.1725,234.452 C677.7605,234.452 679.8575,236.55 679.8575,239.138 C679.8575,241.725 677.7605,243.823 675.1725,243.823" id="Fill-648"></path>
            </g>
            <g id="Group-653" transform="translate(416.000000, 279.000000)" sketch:type="MSShapeGroup">
                <path d="M4.587,75.9625 L22.88,3.5405 L208.39,3.5405 L244.445,75.9625 L4.587,75.9625 Z" id="Fill-650" fill="#292D2C"></path>
                <path d="M210.1446,0.7059 L20.6726,0.7059 L0.9476,78.7969 L249.0236,78.7969 L210.1446,0.7059 Z M206.6336,6.3749 L239.8676,73.1279 L8.2266,73.1279 L25.0876,6.3749 L206.6336,6.3749 Z" id="Fill-652" fill="#FFFFFF"></path>
                <path d="M106.746094,25.14845 L105.628906,25.1738406 L105.400391,30.6582156 L99.6621094,31.1660281 L99.9667969,25.3007938 L93.1875,25.4531375 L95.0664062,14.3066531 L99.8652344,14.3066531 L98.46875,22.0761844 L100.144531,22.0254031 L100.626953,12.4023563 L106.136719,12.4023563 L105.755859,21.8222781 L106.746094,21.7714969 L106.746094,25.14845 Z M123.288086,22.1523563 C123.288086,22.8971516 123.205567,23.6377041 123.040527,24.3740359 C122.875487,25.1103677 122.636395,25.8170664 122.323242,26.4941531 C122.01009,27.1712398 121.627118,27.8017674 121.174316,28.3857547 C120.721515,28.969742 120.203128,29.4775494 119.619141,29.9091922 C119.035153,30.340835 118.394046,30.6793733 117.695801,30.9248172 C116.997555,31.1702611 116.246423,31.2929813 115.442383,31.2929813 C114.629879,31.2929813 113.872399,31.1702611 113.169922,30.9248172 C112.467444,30.6793733 111.826338,30.340835 111.246582,29.9091922 C110.666827,29.4775494 110.14844,28.969742 109.691406,28.3857547 C109.234373,27.8017674 108.849285,27.1712398 108.536133,26.4941531 C108.22298,25.8170664 107.983888,25.1082519 107.818848,24.3676883 C107.653808,23.6271247 107.571289,22.8886881 107.571289,22.1523563 C107.571289,21.4160244 107.653808,20.675472 107.818848,19.9306766 C107.983888,19.1858812 108.22298,18.4749508 108.536133,17.7978641 C108.849285,17.1207773 109.234373,16.4881339 109.691406,15.8999148 C110.14844,15.3116958 110.666827,14.8017725 111.246582,14.3701297 C111.826338,13.9384869 112.46956,13.5999486 113.17627,13.3545047 C113.882979,13.1090608 114.638342,12.9863406 115.442383,12.9863406 C116.246423,12.9863406 116.997555,13.1090608 117.695801,13.3545047 C118.394046,13.5999486 119.035153,13.9384869 119.619141,14.3701297 C120.203128,14.8017725 120.721515,15.3116958 121.174316,15.8999148 C121.627118,16.4881339 122.01009,17.1207773 122.323242,17.7978641 C122.636395,18.4749508 122.875487,19.1858812 123.040527,19.9306766 C123.205567,20.675472 123.288086,21.4160244 123.288086,22.1523563 L123.288086,22.1523563 Z M117.930664,22.5332156 C117.930664,22.1608179 117.879883,21.7461085 117.77832,21.289075 C117.676757,20.8320415 117.520183,20.4046369 117.308594,20.0068484 C117.097004,19.60906 116.826174,19.2747534 116.496094,19.0039188 C116.166014,18.7330841 115.772463,18.5976688 115.31543,18.5976688 C114.849933,18.5976688 114.45215,18.7330841 114.12207,19.0039188 C113.791991,19.2747534 113.519044,19.60906 113.303223,20.0068484 C113.087401,20.4046369 112.928711,20.8320415 112.827148,21.289075 C112.725585,21.7461085 112.674805,22.1608179 112.674805,22.5332156 C112.674805,22.9056133 112.725585,23.3203227 112.827148,23.7773563 C112.928711,24.2343898 113.087401,24.6617944 113.303223,25.0595828 C113.519044,25.4573713 113.791991,25.7916778 114.12207,26.0625125 C114.45215,26.3333472 114.849933,26.4687625 115.31543,26.4687625 C115.772463,26.4687625 116.166014,26.3333472 116.496094,26.0625125 C116.826174,25.7916778 117.097004,25.4573713 117.308594,25.0595828 C117.520183,24.6617944 117.676757,24.2343898 117.77832,23.7773563 C117.879883,23.3203227 117.930664,22.9056133 117.930664,22.5332156 L117.930664,22.5332156 Z M136.478516,17.2773563 C135.623694,19.6725505 134.849287,21.8434272 134.155273,23.7900516 C133.859048,24.6194828 133.567059,25.4383223 133.279297,26.2465945 C132.991535,27.0548668 132.727052,27.7911876 132.48584,28.4555789 C132.244628,29.1199702 132.043621,29.6806743 131.882812,30.1377078 C131.722004,30.5947413 131.620443,30.8782672 131.578125,30.9882938 L124.925781,30.6074344 L130.791016,17.9882938 L123.884766,18.3691531 L123.884766,12.8847781 L136.478516,12.6562625 L136.478516,17.2773563 Z" id="407" fill="#FFFFFF"></path>
                <path d="M94.1729609,52.4902937 C94.1729609,53.6498048 93.9719538,54.6633037 93.5699336,55.5308211 C93.1679134,56.3983385 92.6177886,57.1198482 91.919543,57.6953719 C91.2212973,58.2708956 90.4045737,58.7025319 89.4693477,58.9902937 C88.5341216,59.2780556 87.5290861,59.4219344 86.4542109,59.4219344 C86.0394953,59.4219344 85.5845845,59.3669219 85.0894648,59.2568953 C84.5943452,59.1468687 84.0928854,59.0093375 83.5850703,58.8442977 C83.0772553,58.6792578 82.5884906,58.5015252 82.1187617,58.3110945 C81.6490328,58.1206639 81.2322075,57.9408154 80.8682734,57.7715437 L81.4268672,52.541075 C82.1462718,52.9727178 82.9439527,53.3006767 83.8199336,53.5249617 C84.6959145,53.7492467 85.5570713,53.8613875 86.4034297,53.8613875 C86.5642378,53.8613875 86.7588973,53.8550399 86.9874141,53.8423445 C87.2159308,53.8296492 87.4338648,53.7915636 87.6412227,53.7280867 C87.8485805,53.6646098 88.0241972,53.5693959 88.1680781,53.4424422 C88.3119591,53.3154884 88.3838984,53.1335241 88.3838984,52.8965437 C88.3838984,52.7357357 88.3331177,52.5982045 88.2315547,52.4839461 C88.1299917,52.3696877 87.9988081,52.2765897 87.838,52.2046492 C87.6771919,52.1327088 87.4952276,52.0776963 87.2921016,52.0396102 C87.0889755,52.001524 86.8900843,51.9740178 86.6954219,51.9570906 C86.5007594,51.9401635 86.3187951,51.9317 86.1495234,51.9317 L85.7432734,51.9317 C85.0154052,51.9317 84.3531397,51.8047481 83.756457,51.5508406 C83.1597744,51.2969331 82.6477352,50.9435838 82.2203242,50.490782 C81.7929132,50.0379803 81.4607225,49.5005508 81.2237422,48.8784773 C80.9867618,48.2564039 80.8682734,47.5814432 80.8682734,46.853575 C80.8682734,45.8548721 81.0692805,44.9598615 81.4713008,44.1685164 C81.873321,43.3771713 82.4107505,42.7043265 83.0836055,42.1499617 C83.7564604,41.595597 84.5287508,41.1703083 85.4005,40.8740828 C86.2722492,40.5778574 87.1736073,40.4297469 88.1046016,40.4297469 C88.5193172,40.4297469 88.9467218,40.4445579 89.3868281,40.4741805 C89.8269345,40.503803 90.2649184,40.5566996 90.700793,40.6328719 C91.1366675,40.7090441 91.5619563,40.8063739 91.9766719,40.9248641 C92.3913875,41.0433542 92.7849382,41.1914647 93.1573359,41.3692 L92.6749141,46.5234969 C92.0993904,46.3288344 91.496369,46.1659129 90.865832,46.0347273 C90.235295,45.9035418 89.6195785,45.83795 89.0186641,45.83795 C88.9086375,45.83795 88.7668746,45.8400659 88.5933711,45.8442977 C88.4198676,45.8485294 88.2379033,45.8612246 88.0474727,45.8823836 C87.857042,45.9035426 87.6644984,45.9352805 87.4698359,45.9775984 C87.2751735,46.0199164 87.1016726,46.0770447 86.9493281,46.1489852 C86.7969836,46.2209256 86.6742635,46.3161395 86.5811641,46.4346297 C86.4880646,46.5531199 86.4457474,46.6927669 86.4542109,46.853575 C86.4626745,47.0397738 86.532498,47.1900002 86.6636836,47.3042586 C86.7948691,47.418517 86.9641383,47.5073833 87.1714961,47.5708602 C87.3788539,47.634337 87.6073672,47.6787702 87.857043,47.7041609 C88.1067187,47.7295517 88.3542748,47.7443627 88.5997188,47.7485945 C88.8451627,47.7528263 89.073676,47.7528263 89.2852656,47.7485945 C89.4968552,47.7443627 89.6703561,47.7507103 89.8057734,47.7676375 C90.4828602,47.8099554 91.0922291,47.9538342 91.6338984,48.1992781 C92.1755678,48.4447221 92.6347104,48.7705652 93.0113398,49.1768172 C93.3879693,49.5830692 93.6757269,50.0676021 93.8746211,50.6304305 C94.0735153,51.1932588 94.1729609,51.813207 94.1729609,52.4902937 L94.1729609,52.4902937 Z M106.995227,40.9375594 C106.944445,41.7331363 106.897896,42.5202378 106.855578,43.2988875 C106.81326,44.0775372 106.758248,44.8646387 106.690539,45.6602156 L101.307727,45.9395125 L101.180773,47.5391219 L104.963977,47.5391219 L104.68468,51.4746687 L100.876086,51.6016219 L100.749133,53.4551375 L103.89757,53.4551375 L106.131945,53.4551375 C106.081164,54.3861317 106.028267,55.3107644 105.973254,56.2290633 C105.918241,57.1473621 105.869576,58.0677631 105.827258,58.9902937 L94.8838984,59.2442 L95.2901484,40.9375594 L106.995227,40.9375594 Z M123.435656,58.1524031 L117.138781,58.9649031 L116.377062,56.0957625 L113.482531,56.0957625 L112.847766,58.9649031 L106.373156,58.3301375 L111.425891,41.4199812 L118.484484,41.0645125 L123.435656,58.1524031 Z M115.920031,52.2109969 L114.955187,47.7930281 L114.015734,52.2109969 L115.920031,52.2109969 Z M134.117756,41.0899031 L133.990803,46.4727156 L130.2076,46.6250594 L129.242756,58.6602156 L123.885334,58.9395125 L123.910725,46.9043562 L120.127522,47.1074812 L120.279866,41.1152937 L134.117756,41.0899031 Z M147.815998,52.4902937 C147.815998,53.6498048 147.614991,54.6633037 147.212971,55.5308211 C146.810951,56.3983385 146.260826,57.1198482 145.56258,57.6953719 C144.864335,58.2708956 144.047611,58.7025319 143.112385,58.9902937 C142.177159,59.2780556 141.172124,59.4219344 140.097248,59.4219344 C139.682533,59.4219344 139.227622,59.3669219 138.732502,59.2568953 C138.237383,59.1468687 137.735923,59.0093375 137.228108,58.8442977 C136.720293,58.6792578 136.231528,58.5015252 135.761799,58.3110945 C135.29207,58.1206639 134.875245,57.9408154 134.511311,57.7715437 L135.069905,52.541075 C135.789309,52.9727178 136.58699,53.3006767 137.462971,53.5249617 C138.338952,53.7492467 139.200109,53.8613875 140.046467,53.8613875 C140.207275,53.8613875 140.401935,53.8550399 140.630452,53.8423445 C140.858968,53.8296492 141.076902,53.7915636 141.28426,53.7280867 C141.491618,53.6646098 141.667235,53.5693959 141.811116,53.4424422 C141.954997,53.3154884 142.026936,53.1335241 142.026936,52.8965437 C142.026936,52.7357357 141.976155,52.5982045 141.874592,52.4839461 C141.773029,52.3696877 141.641846,52.2765897 141.481038,52.2046492 C141.320229,52.1327088 141.138265,52.0776963 140.935139,52.0396102 C140.732013,52.001524 140.533122,51.9740178 140.338459,51.9570906 C140.143797,51.9401635 139.961833,51.9317 139.792561,51.9317 L139.386311,51.9317 C138.658443,51.9317 137.996177,51.8047481 137.399495,51.5508406 C136.802812,51.2969331 136.290773,50.9435838 135.863362,50.490782 C135.435951,50.0379803 135.10376,49.5005508 134.86678,48.8784773 C134.629799,48.2564039 134.511311,47.5814432 134.511311,46.853575 C134.511311,45.8548721 134.712318,44.9598615 135.114338,44.1685164 C135.516359,43.3771713 136.053788,42.7043265 136.726643,42.1499617 C137.399498,41.595597 138.171788,41.1703083 139.043538,40.8740828 C139.915287,40.5778574 140.816645,40.4297469 141.747639,40.4297469 C142.162355,40.4297469 142.589759,40.4445579 143.029866,40.4741805 C143.469972,40.503803 143.907956,40.5566996 144.34383,40.6328719 C144.779705,40.7090441 145.204994,40.8063739 145.619709,40.9248641 C146.034425,41.0433542 146.427976,41.1914647 146.800373,41.3692 L146.317952,46.5234969 C145.742428,46.3288344 145.139407,46.1659129 144.50887,46.0347273 C143.878333,45.9035418 143.262616,45.83795 142.661702,45.83795 C142.551675,45.83795 142.409912,45.8400659 142.236409,45.8442977 C142.062905,45.8485294 141.880941,45.8612246 141.69051,45.8823836 C141.50008,45.9035426 141.307536,45.9352805 141.112873,45.9775984 C140.918211,46.0199164 140.74471,46.0770447 140.592366,46.1489852 C140.440021,46.2209256 140.317301,46.3161395 140.224202,46.4346297 C140.131102,46.5531199 140.088785,46.6927669 140.097248,46.853575 C140.105712,47.0397738 140.175536,47.1900002 140.306721,47.3042586 C140.437907,47.418517 140.607176,47.5073833 140.814534,47.5708602 C141.021891,47.634337 141.250405,47.6787702 141.50008,47.7041609 C141.749756,47.7295517 141.997312,47.7443627 142.242756,47.7485945 C142.4882,47.7528263 142.716714,47.7528263 142.928303,47.7485945 C143.139893,47.7443627 143.313394,47.7507103 143.448811,47.7676375 C144.125898,47.8099554 144.735267,47.9538342 145.276936,48.1992781 C145.818605,48.4447221 146.277748,48.7705652 146.654377,49.1768172 C147.031007,49.5830692 147.318764,50.0676021 147.517659,50.6304305 C147.716553,51.1932588 147.815998,51.813207 147.815998,52.4902937 L147.815998,52.4902937 Z" id="SEATS" fill="#FFFFFF"></path>
            </g>
            <path d="M550.193728,183.939936 L549.080772,183.96523 L548.853123,189.428828 L543.136581,189.934717 L543.440114,184.091703 L536.6865,184.243469 L538.558288,173.139213 L543.338936,173.139213 L541.947742,180.879309 L543.617175,180.828721 L544.097769,171.24213 L549.586661,171.24213 L549.207245,180.626365 L550.193728,180.575776 L550.193728,183.939936 Z" id="4" fill="#FFFFFF" sketch:type="MSShapeGroup"></path>
        </g>
    </g>
</svg>