<?xml version="1.0" encoding="UTF-8" standalone="no"?>
<svg width="681px" height="378px" viewBox="0 0 681 378" version="1.1" xmlns="http://www.w3.org/2000/svg" xmlns:xlink="http://www.w3.org/1999/xlink" xmlns:sketch="http://www.bohemiancoding.com/sketch/ns">
    <!-- Generator: Sketch 3.3.3 (12072) - http://www.bohemiancoding.com/sketch -->
    <title>Salillustrasjoner</title>
    <desc>Created with Sketch.</desc>
    <defs>
        <path id="path-1" d="M0.089,39.314 L42.352,39.314 L42.352,0.199 L0.089,0.199 L0.089,39.314 Z"></path>
        <path id="path-3" d="M0.089,39.314 L42.352,39.314 L42.352,0.199 L0.089,0.199 L0.089,39.314 Z"></path>
    </defs>
    <g id="Page-5" stroke="none" stroke-width="1" fill="none" fill-rule="evenodd" sketch:type="MSPage">
        <g id="Salillustrasjoner" sketch:type="MSLayerGroup" transform="translate(-170.000000, -36.000000)">
            <g id="Group-658" sketch:type="MSShapeGroup">
                <path d="M170.0787,362.3043 L334.0197,41.1353 L373.2587,199.1063 L190.6677,408.4353 L170.0787,362.3043 Z" id="Fill-655" fill="#B2C1AC"></path>
                <path d="M337.4677,38.5353 L378.6577,197.7453 L644.7887,198.4263 L699.3237,36.3933 L337.4677,38.5353 Z" id="Fill-657" fill="#E5B44D"></path>
            </g>
            <g id="Group-688" sketch:type="MSShapeGroup">
                <path d="M704.8112,40.1129 L649.2882,199.7829 L832.1442,408.4349 L850.3932,362.3039 L705.5832,40.0699 C705.4402,39.7359 704.9082,39.7659 704.8112,40.1129" id="Fill-659" fill="#B2C1AC"></path>
                <path d="M449.863,174.2419 L438.949,201.6989 L590.822,201.5639 L581.891,174.4349 L449.863,174.2419 Z" id="Fill-661" fill="#B2C1AC"></path>
                <path d="M438.9489,203.5212 L444.1469,220.6452 L586.3819,220.6452 L591.4369,203.5212 L438.9489,203.5212 Z" id="Fill-662" fill="#292D2C"></path>
                <path d="M526.3919,156.605 C526.3919,156.605 518.8259,164.671 521.8119,167.124 C524.7979,169.577 524.9249,169.006 524.9249,169.006" id="Fill-663" fill="#292D2C"></path>
                <path d="M533.1374,188.3575 L530.3734,188.5995 C530.3734,188.5995 529.9034,189.0125 529.3164,189.1655 C528.7294,189.3195 527.2874,189.2575 527.4354,189.6875 C527.5824,190.1195 530.6094,189.8585 530.8394,189.8495 C531.0694,189.8415 531.8224,189.7395 531.8224,189.7395 L531.8354,189.8455 L533.3964,189.8045 C533.3964,189.8045 533.4544,188.6995 533.1374,188.3575" id="Fill-664" fill="#292D2C"></path>
                <path d="M538.439,188.7304 L536.174,188.5524 C536.174,188.5524 535.205,189.3854 534.618,189.5384 C534.031,189.6924 532.589,189.6304 532.737,190.0614 C532.884,190.4914 535.911,190.2314 536.141,190.2224 C536.371,190.2144 537.124,190.1124 537.124,190.1124 L537.137,190.2194 L538.699,190.1774 C538.699,190.1774 538.756,189.0724 538.439,188.7304" id="Fill-665" fill="#292D2C"></path>
                <path d="M532.7048,177.7458 L535.7738,188.8248 L538.6718,189.4068 L539.9978,170.8018 L530.3078,169.8168 L524.8058,172.0338 L530.2408,188.6308 L533.3228,188.7688 L532.7048,177.7458 Z" id="Fill-666" fill="#A83548"></path>
                <path d="M540.687,171.9371 C541.022,169.2291 541.16,163.9421 538.774,157.2531 C535.26,147.3991 526.332,157.0481 526.332,157.0481 C526.332,157.0481 523.902,163.2471 523.821,167.9281 C523.785,169.9891 523.987,171.7631 524.225,173.1031 L540.687,171.9371 Z" id="Fill-667" fill="#292D2C"></path>
                <path d="M531.0469,156.9243 L528.9119,167.7633 L530.4719,170.7203 L533.0179,167.5993 L532.8529,156.7603 L531.0469,156.9243 Z" id="Fill-668" fill="#E5B44D"></path>
                <path d="M526.189,156.9063 L532.09,157.6443 L538.786,157.2683 C538.786,157.2683 539.861,139.8443 531.06,140.8293 C522.259,141.8153 526.189,156.9063 526.189,156.9063" id="Fill-669" fill="#F0D4B1"></path>
                <path d="M539.8333,149.0412 C539.8333,150.2202 539.2633,151.1762 538.5603,151.1762 C537.8573,151.1762 537.2883,150.2202 537.2883,149.0412 C537.2883,147.8622 537.8573,146.9062 538.5603,146.9062 C539.2633,146.9062 539.8333,147.8622 539.8333,149.0412" id="Fill-670" fill="#F0D4B1"></path>
                <path d="M534.3611,143.3297 L523.4721,142.9627 C523.4721,142.9627 527.7621,137.7907 536.6861,140.6617" id="Fill-671" fill="#292D2C"></path>
                <path d="M524.9711,148.6996 C524.8501,148.6996 524.7521,148.7976 524.7521,148.9186 L524.7521,150.2046 C524.7521,150.3256 524.8501,150.4236 524.9711,150.4236 L528.8851,150.4236 C529.0061,150.4236 529.1041,150.3256 529.1041,150.2046 L529.1041,148.9186 C529.1041,148.7976 529.0061,148.6996 528.8851,148.6996 L524.9711,148.6996 Z M528.8851,150.9166 L524.9711,150.9166 C524.5781,150.9166 524.2591,150.5976 524.2591,150.2046 L524.2591,148.9186 C524.2591,148.5266 524.5781,148.2066 524.9711,148.2066 L528.8851,148.2066 C529.2771,148.2066 529.5971,148.5266 529.5971,148.9186 L529.5971,150.2046 C529.5971,150.5976 529.2771,150.9166 528.8851,150.9166 L528.8851,150.9166 Z" id="Fill-672" fill="#1D5768"></path>
                <path d="M530.2946,148.9868 C530.2946,148.9868 526.4896,150.3408 527.2566,152.2718 C527.6546,153.2748 531.4326,151.9068 531.4326,151.9068" id="Fill-673" fill="#BB817B"></path>
                <path d="M531.1298,149.2744 C531.0088,149.2744 530.9108,149.3724 530.9108,149.4934 L530.9108,150.7794 C530.9108,150.9004 531.0088,150.9984 531.1298,150.9984 L535.0438,150.9984 C535.1638,150.9984 535.2628,150.9004 535.2628,150.7794 L535.2628,149.4934 C535.2628,149.3724 535.1638,149.2744 535.0438,149.2744 L531.1298,149.2744 Z M535.0438,151.4914 L531.1298,151.4914 C530.7368,151.4914 530.4178,151.1724 530.4178,150.7794 L530.4178,149.4934 C530.4178,149.1014 530.7368,148.7814 531.1298,148.7814 L535.0438,148.7814 C535.4358,148.7814 535.7558,149.1014 535.7558,149.4934 L535.7558,150.7794 C535.7558,151.1724 535.4358,151.4914 535.0438,151.4914 L535.0438,151.4914 Z" id="Fill-674" fill="#1D5768"></path>
                <path d="M530.7448,149.6285 L529.2668,149.2185 L529.3988,148.7435 L530.8768,149.1535 L530.7448,149.6285 Z" id="Fill-675" fill="#1D5768"></path>
                <path d="M530.5687,153.3665 C530.5687,153.3665 534.2247,151.2225 534.3887,152.0435 C534.5527,152.8645 532.0347,154.2885 532.0347,154.2885" id="Fill-676" fill="#A83548"></path>
                <path d="M526.1382,156.8808 L529.1582,160.6198 L531.7862,157.5808 L526.1382,156.8808 Z" id="Fill-677" fill="#BB817B"></path>
                <path d="M531.786,157.5813 L533.757,160.7013 L538.848,157.2533 L531.786,157.5813 Z" id="Fill-678" fill="#BB817B"></path>
                <path d="M528.069,167.043 L528.055,167.039 C528.184,166.994 528.288,166.898 528.326,166.767 C528.391,166.544 528.237,166.309 527.982,166.243 L526.82,165.944 C526.866,165.898 526.912,165.835 526.981,165.773 L527.652,165.163 C527.825,165.005 527.838,164.735 527.681,164.562 C527.522,164.388 527.253,164.375 527.079,164.533 L526.28,165.26 L524.067,166.204 C524.035,166.207 524.005,166.213 523.976,166.221 L523.707,167.528 L526.375,168.797 L526.611,168.843 C526.837,168.902 527.073,168.768 527.138,168.544 C527.15,168.504 527.153,168.463 527.153,168.423 L527.336,168.471 C527.591,168.537 527.85,168.409 527.915,168.185 C527.948,168.07 527.923,167.953 527.858,167.857 C528.104,167.909 528.35,167.784 528.412,167.567 C528.477,167.343 528.324,167.109 528.069,167.043" id="Fill-679" fill="#F0D4B1"></path>
                <path d="M535.8097,163.502 C535.8097,163.502 534.7947,170.908 534.8537,170.908 C535.5117,170.908 544.8177,172.021 544.8177,172.021 L546.2027,165.354 L535.8097,163.502 Z" id="Fill-680" fill="#FFFFFF"></path>
                <path d="M538.5051,172.3347 C538.3271,172.4847 538.0561,172.4647 537.9011,172.2907 C537.8721,172.2597 537.8531,172.2247 537.8361,172.1877 L537.6911,172.3097 C537.4891,172.4787 537.2001,172.4737 537.0451,172.2997 C536.9661,172.2107 536.9371,172.0937 536.9561,171.9787 C536.7561,172.1317 536.4801,172.1247 536.3301,171.9557 C536.1751,171.7817 536.2141,171.5037 536.4161,171.3347 L536.4271,171.3257 C536.2901,171.3397 536.1551,171.2977 536.0651,171.1957 C535.9111,171.0227 535.9481,170.7447 536.1501,170.5747 L537.0711,169.8057 C536.9101,169.7897 536.7741,169.6927 536.7251,169.5387 C536.6571,169.3137 536.8001,169.0577 537.0441,168.9647 L539.6701,168.8587 C539.7001,168.8467 539.7291,168.8397 539.7591,168.8347 L540.5631,169.9007 L538.6981,172.1917 L538.5051,172.3347 Z" id="Fill-681" fill="#E2CBA8"></path>
                <path d="M538.6839,157.8277 C538.6839,157.8277 547.8329,164.4427 544.3509,167.6087 C543.0369,168.8027 540.1699,170.4157 540.1699,170.4157 L538.5569,168.8627 L540.5879,165.9357 L538.6839,157.8277 Z" id="Fill-682" fill="#292D2C"></path>
                <path d="M531.0215,173.0169 L531.5865,170.5769 L532.3685,172.7569 L531.0215,173.0169 Z" id="Fill-683" fill="#A83548"></path>
                <path d="M529.1951,146.9176 C529.1951,147.3356 528.8561,147.6756 528.4371,147.6756 C528.0191,147.6756 527.6801,147.3356 527.6801,146.9176 L527.6801,146.4826 C527.6801,146.0646 528.0191,145.7256 528.4371,145.7256 C528.8561,145.7256 529.1951,146.0646 529.1951,146.4826 L529.1951,146.9176 Z" id="Fill-684" fill="#292D2C"></path>
                <path d="M534.2005,147.6412 C534.2005,148.0592 533.8605,148.3992 533.4425,148.3992 C533.0245,148.3992 532.6845,148.0592 532.6845,147.6412 L532.6845,147.2062 C532.6845,146.7882 533.0245,146.4492 533.4425,146.4492 C533.8605,146.4492 534.2005,146.7882 534.2005,147.2062 L534.2005,147.6412 Z" id="Fill-685" fill="#292D2C"></path>
                <path d="M538.392,146.4478 C538.392,143.7068 537.356,141.4648 536.044,141.2798 C535.794,141.0568 535.625,140.9488 535.625,140.9488 L535.361,141.3748 C535.047,141.5078 534.753,141.7588 534.493,142.1068 L534.763,142.3388 L533.513,144.3548 L536.007,143.5738 L538.215,148.3558 C538.329,147.7648 538.392,147.1218 538.392,146.4478" id="Fill-686" fill="#292D2C"></path>
                <path d="M497.3076,198.3962 L496.0896,169.2192 L531.0496,169.7022 L528.2646,198.8462 L497.3076,198.3962 Z" id="Fill-687" fill="#1D5768"></path>
            </g>
            <text id="5" sketch:type="MSTextLayer" font-family="Luckiest Guy" font-size="25.9015" font-weight="normal" fill="#FFFFFF">
                <tspan x="505.5605" y="190.0106">5</tspan>
            </text>
            <path d="M439.2898,47.135 L595.5688,47.393 L583.6678,130.153 L450.1178,129.551 L439.2898,47.135 Z" id="Fill-690" fill="#FFFFFF" sketch:type="MSShapeGroup"></path>
            <g id="Group-694" transform="translate(496.000000, 65.000000)">
                <mask id="mask-2" sketch:name="Clip 693" fill="white">
                    <use xlink:href="#path-1"></use>
                </mask>
                <g id="Clip-693"></g>
                <path d="M5.5123,25.1644 C4.6713,25.3594 4.3373,24.9104 4.7643,24.1614 L15.1943,5.8924 L35.4403,0.2544 C36.2723,0.0224 36.9463,0.5354 36.9463,1.3984 L36.9463,16.3074 C36.9463,17.1704 36.2653,18.0284 35.4243,18.2234 L5.5123,25.1644 Z" id="Fill-692" fill="#E87E41" sketch:type="MSShapeGroup" mask="url(#mask-2)"></path>
            </g>
            <path d="M501.9905,67.9768 C501.1675,67.7168 500.7495,68.1608 501.0555,68.9668 L507.8615,86.8728 L517.2915,92.3408 L529.9175,90.8028 L530.2765,90.7598 C531.1335,90.6548 531.4285,89.9958 530.9365,89.2868 L520.1055,73.6958 L501.9905,67.9768 Z" id="Fill-695" fill="#DF4C49" sketch:type="MSShapeGroup"></path>
            <g id="Group-700" transform="translate(496.000000, 65.000000)">
                <mask id="mask-4" sketch:name="Clip 698" fill="white">
                    <use xlink:href="#path-3"></use>
                </mask>
                <g id="Clip-698"></g>
                <path d="M10.3504,18.0182 L12.4864,23.5392 L17.7884,26.7902 C18.5244,27.2412 19.8154,27.5242 20.6724,27.4222 C20.6724,27.4222 33.5874,25.8832 34.2134,25.7782 C34.8384,25.6742 35.0464,25.4662 35.1514,25.1532 L14.6744,13.5912 L10.3504,18.0182 Z" id="Fill-697" fill="#8F2034" sketch:type="MSShapeGroup" mask="url(#mask-4)"></path>
                <path d="M36.5056,0.4141 C34.0436,2.4201 4.8276,24.9451 4.6196,24.9451 C4.4626,24.6331 4.7756,24.1121 4.7756,24.1121 L15.1876,5.8921 L35.4116,0.2581 C35.4116,0.2581 36.0366,0.0491 36.5056,0.4141" id="Fill-699" fill="#F0AB2B" sketch:type="MSShapeGroup" mask="url(#mask-4)"></path>
            </g>
            <g id="Group-710" fill="#0C0A09" sketch:type="MSShapeGroup">
                <path d="M499.3987,101.905 C499.3987,103.033 499.3227,103.565 498.8557,103.891 C498.4437,104.184 497.8907,104.216 497.1527,104.216 L496.4477,104.216 C496.1867,104.216 496.0897,104.14 496.0897,103.847 L496.0897,103.109 C496.0897,102.784 496.1867,102.719 496.4687,102.719 L496.9897,102.719 C497.1857,102.719 497.3697,102.719 497.4677,102.621 C497.5757,102.513 497.5757,102.372 497.5757,101.851 L497.5757,97.532 C497.5757,97.229 497.6297,97.196 497.9667,97.196 L499.0297,97.196 C499.3657,97.196 499.3987,97.229 499.3987,97.532 L499.3987,101.905 Z" id="Fill-701"></path>
                <path d="M503.2833,102.0786 C503.1643,102.0566 502.9143,102.0456 502.7623,102.0456 L502.6433,102.0456 C502.1443,102.0456 501.9383,102.1326 501.9383,102.5346 L501.9383,102.5776 C501.9383,102.9796 502.1653,103.0766 502.5453,103.0766 L502.6213,103.0766 C502.8713,103.0766 503.0333,103.0006 503.1313,102.9146 C503.2503,102.8056 503.2833,102.6756 503.2833,102.3826 L503.2833,102.0786 Z M503.6523,103.7716 C503.4353,104.0966 502.9143,104.3136 502.2313,104.3136 L502.0683,104.3136 C500.9833,104.3136 500.3103,103.7386 500.3103,102.6426 L500.3103,102.5236 C500.3103,101.3086 500.9943,100.9176 502.4483,100.9176 L502.5233,100.9176 C502.8063,100.9176 503.1203,100.9396 503.2833,100.9606 L503.2833,100.7336 C503.2833,100.5166 503.2503,100.3646 503.0993,100.2556 C502.9683,100.1686 502.8063,100.1366 502.4483,100.1366 C502.0683,100.1366 501.6123,100.2126 501.1893,100.3206 C500.9183,100.3856 500.8533,100.2996 500.8203,100.1146 L500.7333,99.5396 C500.7223,99.4636 500.7113,99.3656 500.7113,99.3226 C500.7113,99.1816 500.7553,99.1056 500.9723,99.0406 C501.4283,98.9106 502.0893,98.8016 502.8273,98.8016 C503.6953,98.8016 504.2603,98.9756 504.6073,99.3336 C504.8893,99.6266 505.0193,100.0496 505.0193,100.6896 L505.0193,103.9126 C505.0193,104.1296 504.9323,104.2166 504.6503,104.2166 L504.1403,104.2166 C503.8913,104.2166 503.8043,104.1616 503.7393,103.9666 L503.6743,103.7716 L503.6523,103.7716 Z" id="Fill-703"></path>
                <path d="M509.1534,103.9991 C509.0884,104.1401 509.0014,104.2161 508.7734,104.2161 L507.5914,104.2161 C507.3744,104.2161 507.2654,104.1621 507.1894,103.9881 C506.7014,102.8601 505.9204,100.7221 505.5624,99.2141 C505.5074,98.9861 505.6164,98.8991 505.8654,98.8991 L506.8744,98.8991 C507.1134,98.8991 507.1894,98.9321 507.2434,99.1491 C507.5364,100.2671 507.9594,101.7101 508.1764,102.3501 L508.2204,102.3501 C508.4374,101.6881 508.8274,100.2771 509.0774,99.1921 C509.1314,98.9541 509.1964,98.8991 509.4354,98.8991 L510.4664,98.8991 C510.7154,98.8991 510.8134,98.9861 510.7484,99.2141 C510.3574,100.6571 509.6414,102.8601 509.1534,103.9991" id="Fill-704"></path>
                <path d="M514.112,102.0786 C513.993,102.0566 513.743,102.0456 513.591,102.0456 L513.472,102.0456 C512.973,102.0456 512.767,102.1326 512.767,102.5346 L512.767,102.5776 C512.767,102.9796 512.994,103.0766 513.374,103.0766 L513.45,103.0766 C513.7,103.0766 513.863,103.0006 513.96,102.9146 C514.079,102.8056 514.112,102.6756 514.112,102.3826 L514.112,102.0786 Z M514.481,103.7716 C514.264,104.0966 513.743,104.3136 513.06,104.3136 L512.897,104.3136 C511.812,104.3136 511.139,103.7386 511.139,102.6426 L511.139,102.5236 C511.139,101.3086 511.823,100.9176 513.277,100.9176 L513.353,100.9176 C513.635,100.9176 513.949,100.9396 514.112,100.9606 L514.112,100.7336 C514.112,100.5166 514.079,100.3646 513.928,100.2556 C513.797,100.1686 513.635,100.1366 513.277,100.1366 C512.897,100.1366 512.441,100.2126 512.018,100.3206 C511.747,100.3856 511.682,100.2996 511.649,100.1146 L511.562,99.5396 C511.551,99.4636 511.541,99.3656 511.541,99.3226 C511.541,99.1816 511.584,99.1056 511.801,99.0406 C512.257,98.9106 512.919,98.8016 513.656,98.8016 C514.524,98.8016 515.089,98.9756 515.436,99.3336 C515.718,99.6266 515.848,100.0496 515.848,100.6896 L515.848,103.9126 C515.848,104.1296 515.761,104.2166 515.479,104.2166 L514.969,104.2166 C514.72,104.2166 514.633,104.1616 514.568,103.9666 L514.503,103.7716 L514.481,103.7716 Z" id="Fill-705"></path>
                <path d="M521.306,102.7405 C521.599,102.7405 521.686,102.8165 521.686,103.0875 L521.686,103.8685 C521.686,104.1615 521.599,104.2165 521.306,104.2165 L516.998,104.2165 C516.662,104.2165 516.586,104.1295 516.586,103.8475 L516.586,103.5215 C516.586,103.2835 516.619,103.1855 516.76,102.9575 L519.342,98.6715 L517.096,98.6715 C516.803,98.6715 516.716,98.5955 516.716,98.3355 L516.716,97.5435 C516.716,97.2615 516.803,97.1965 517.096,97.1965 L521.306,97.1965 C521.566,97.1965 521.653,97.2505 521.653,97.5105 L521.653,97.8795 C521.653,98.1075 521.61,98.2375 521.436,98.5195 L518.789,102.7405 L521.306,102.7405 Z" id="Fill-706"></path>
                <path d="M524.1162,101.981 C524.1162,102.458 524.1492,102.643 524.3112,102.806 C524.4092,102.903 524.5502,102.958 524.7672,102.958 L524.8102,102.958 C525.0272,102.958 525.1682,102.903 525.2662,102.806 C525.4292,102.643 525.4612,102.458 525.4612,101.981 L525.4612,101.135 C525.4612,100.657 525.4292,100.473 525.2662,100.31 C525.1682,100.212 525.0272,100.158 524.8102,100.158 L524.7672,100.158 C524.5502,100.158 524.4092,100.212 524.3112,100.31 C524.1492,100.473 524.1162,100.657 524.1162,101.135 L524.1162,101.981 Z M527.2082,101.905 C527.2082,103.012 526.9812,103.533 526.5252,103.891 C526.2102,104.14 525.6242,104.314 524.8542,104.314 L524.7242,104.314 C523.9532,104.314 523.3672,104.14 523.0532,103.891 C522.5972,103.533 522.3692,103.012 522.3692,101.905 L522.3692,101.211 C522.3692,100.104 522.5972,99.583 523.0532,99.225 C523.3672,98.975 523.9532,98.802 524.7242,98.802 L524.8542,98.802 C525.6242,98.802 526.2102,98.975 526.5252,99.225 C526.9812,99.583 527.2082,100.093 527.2082,101.2 L527.2082,101.905 Z" id="Fill-707"></path>
                <path d="M531.0714,98.8018 C531.7114,98.8018 532.1674,98.9538 532.4494,99.2468 C532.7424,99.5508 532.8504,99.9518 532.8504,100.6788 L532.8504,103.9018 C532.8504,104.1078 532.7744,104.2158 532.4824,104.2158 L531.4834,104.2158 C531.1904,104.2158 531.1144,104.1078 531.1144,103.9018 L531.1144,100.8308 C531.1144,100.5818 531.0824,100.4298 530.9954,100.3318 C530.9084,100.2338 530.7354,100.1908 530.5184,100.1908 L530.4534,100.1908 C530.2354,100.1908 530.0624,100.2338 529.9754,100.3318 C529.8884,100.4298 529.8564,100.5708 529.8564,100.8308 L529.8564,103.9018 C529.8564,104.1078 529.7804,104.2158 529.4874,104.2158 L528.4894,104.2158 C528.1964,104.2158 528.1204,104.1078 528.1204,103.9018 L528.1204,99.2038 C528.1204,98.9868 528.2074,98.8998 528.4894,98.8998 L528.9994,98.8998 C529.2484,98.8998 529.3354,98.9428 529.4004,99.1488 L529.4654,99.3548 L529.4984,99.3548 C529.8454,98.9868 530.3444,98.8018 530.9844,98.8018 L531.0714,98.8018 Z" id="Fill-708"></path>
                <path d="M536.6268,101.0261 C536.7248,101.0261 536.7568,100.9831 536.7568,100.8851 L536.7568,100.7111 C536.7568,100.4941 536.7248,100.3321 536.6488,100.2121 C536.5508,100.0711 536.3878,100.0171 536.1498,100.0171 L536.0518,100.0171 C535.8568,100.0171 535.6938,100.0601 535.5958,100.1691 C535.4878,100.2881 535.4328,100.4731 535.4328,100.7551 L535.4328,101.0261 L536.6268,101.0261 Z M536.5618,102.9141 C536.9088,102.9141 537.4408,102.8381 537.7118,102.7731 C537.7658,102.7621 537.8418,102.7401 537.9178,102.7401 C538.0158,102.7401 538.0918,102.8161 538.1138,102.9251 L538.1998,103.4671 C538.2218,103.5761 538.2438,103.6841 538.2438,103.7601 C538.2438,103.9011 538.1888,103.9771 537.9618,104.0531 C537.5278,104.2051 536.8548,104.3141 536.3228,104.3141 L536.1168,104.3141 C535.2598,104.3141 534.5978,104.1291 534.2288,103.7601 C533.7948,103.3261 533.6868,102.7731 533.6868,101.8941 L533.6868,101.2861 C533.6868,100.2011 533.9688,99.6151 534.3378,99.2901 C534.6958,98.9751 535.2598,98.8021 536.0408,98.8021 L536.1928,98.8021 C536.9738,98.8021 537.5378,99.0191 537.8308,99.3441 C538.2108,99.7671 538.3518,100.3531 538.3518,101.2861 L538.3518,101.8511 C538.3518,102.0791 538.2548,102.1541 538.0378,102.1541 L535.4328,102.1541 L535.4328,102.2411 C535.4328,102.7511 535.6828,102.9141 536.4428,102.9141 L536.5618,102.9141 Z" id="Fill-709"></path>
            </g>
            <g id="Group-715">
                <path d="M538.848,225.0457 L533.901,249.4787 L483.266,250.0647 L480.438,224.3557 L538.848,225.0457 Z" id="Fill-711" fill="#FFFFFF" sketch:type="MSShapeGroup"></path>
                <path d="M538.848,225.0457 L533.901,249.4787 L483.266,250.0647 L480.438,224.3557 L538.848,225.0457 L538.848,225.0457 Z" id="Stroke-713" stroke="#E5B44D" sketch:type="MSShapeGroup"></path>
                <text id="EXIT" sketch:type="MSTextLayer" font-family="Luckiest Guy" font-size="21.7963" font-weight="normal" fill="#292D2C">
                    <tspan x="488.3159" y="242.1578">EXIT</tspan>
                </text>
                <path d="M503.1945,257.7373 L507.9375,264.5723 L508.3455,264.5723 L513.5115,258.1393 L510.5635,257.4533 L511.1345,252.9823 L506.1865,252.9823 L506.4195,257.0853 L503.1945,257.7373 Z" id="Fill-714" fill="#F0AB2B" sketch:type="MSShapeGroup"></path>
            </g>
            <g id="Group-761" fill="#292D2C" sketch:type="MSShapeGroup">
                <path d="M308.1,413.5351 L250.866,413.5351 C245.703,413.5351 241.517,409.3491 241.517,404.1861 L241.517,404.1861 C241.517,399.0221 245.703,394.8361 250.866,394.8361 L308.1,394.8361 C313.263,394.8361 317.449,399.0221 317.449,404.1861 L317.449,404.1861 C317.449,409.3491 313.263,413.5351 308.1,413.5351" id="Fill-716"></path>
                <path d="M399.9438,413.5351 L342.7098,413.5351 C337.5468,413.5351 333.3608,409.3491 333.3608,404.1861 L333.3608,404.1861 C333.3608,399.0221 337.5468,394.8361 342.7098,394.8361 L399.9438,394.8361 C405.1078,394.8361 409.2928,399.0221 409.2928,404.1861 L409.2928,404.1861 C409.2928,409.3491 405.1078,413.5351 399.9438,413.5351" id="Fill-718"></path>
                <path d="M491.7877,413.5351 L434.5537,413.5351 C429.3907,413.5351 425.2047,409.3491 425.2047,404.1861 L425.2047,404.1861 C425.2047,399.0221 429.3907,394.8361 434.5537,394.8361 L491.7877,394.8361 C496.9507,394.8361 501.1367,399.0221 501.1367,404.1861 L501.1367,404.1861 C501.1367,409.3491 496.9507,413.5351 491.7877,413.5351" id="Fill-719"></path>
                <path d="M583.6315,413.5351 L526.3975,413.5351 C521.2345,413.5351 517.0485,409.3491 517.0485,404.1861 L517.0485,404.1861 C517.0485,399.0221 521.2345,394.8361 526.3975,394.8361 L583.6315,394.8361 C588.7955,394.8361 592.9805,399.0221 592.9805,404.1861 L592.9805,404.1861 C592.9805,409.3491 588.7955,413.5351 583.6315,413.5351" id="Fill-720"></path>
                <path d="M675.4754,413.5351 L618.2414,413.5351 C613.0784,413.5351 608.8924,409.3491 608.8924,404.1861 L608.8924,404.1861 C608.8924,399.0221 613.0784,394.8361 618.2414,394.8361 L675.4754,394.8361 C680.6394,394.8361 684.8244,399.0221 684.8244,404.1861 L684.8244,404.1861 C684.8244,409.3491 680.6394,413.5351 675.4754,413.5351" id="Fill-721"></path>
                <path d="M767.3193,413.5351 L710.0853,413.5351 C704.9223,413.5351 700.7363,409.3491 700.7363,404.1861 L700.7363,404.1861 C700.7363,399.0221 704.9223,394.8361 710.0853,394.8361 L767.3193,394.8361 C772.4833,394.8361 776.6683,399.0221 776.6683,404.1861 L776.6683,404.1861 C776.6683,409.3491 772.4833,413.5351 767.3193,413.5351" id="Fill-722"></path>
                <path d="M326.85,381.2583 L274.955,381.2583 C270.273,381.2583 266.478,377.4633 266.478,372.7813 L266.478,372.7813 C266.478,368.0993 270.273,364.3043 274.955,364.3043 L326.85,364.3043 C331.532,364.3043 335.327,368.0993 335.327,372.7813 L335.327,372.7813 C335.327,377.4633 331.532,381.2583 326.85,381.2583" id="Fill-723"></path>
                <path d="M410.126,381.2583 L358.231,381.2583 C353.549,381.2583 349.754,377.4633 349.754,372.7813 L349.754,372.7813 C349.754,368.0993 353.549,364.3043 358.231,364.3043 L410.126,364.3043 C414.808,364.3043 418.603,368.0993 418.603,372.7813 L418.603,372.7813 C418.603,377.4633 414.808,381.2583 410.126,381.2583" id="Fill-724"></path>
                <path d="M493.402,381.2583 L441.507,381.2583 C436.825,381.2583 433.03,377.4633 433.03,372.7813 L433.03,372.7813 C433.03,368.0993 436.825,364.3043 441.507,364.3043 L493.402,364.3043 C498.084,364.3043 501.879,368.0993 501.879,372.7813 L501.879,372.7813 C501.879,377.4633 498.084,381.2583 493.402,381.2583" id="Fill-725"></path>
                <path d="M576.678,381.2583 L524.783,381.2583 C520.101,381.2583 516.306,377.4633 516.306,372.7813 L516.306,372.7813 C516.306,368.0993 520.101,364.3043 524.783,364.3043 L576.678,364.3043 C581.36,364.3043 585.155,368.0993 585.155,372.7813 L585.155,372.7813 C585.155,377.4633 581.36,381.2583 576.678,381.2583" id="Fill-726"></path>
                <path d="M659.954,381.2583 L608.059,381.2583 C603.378,381.2583 599.582,377.4633 599.582,372.7813 L599.582,372.7813 C599.582,368.0993 603.378,364.3043 608.059,364.3043 L659.954,364.3043 C664.636,364.3043 668.431,368.0993 668.431,372.7813 L668.431,372.7813 C668.431,377.4633 664.636,381.2583 659.954,381.2583" id="Fill-727"></path>
                <path d="M743.2301,381.2583 L691.3351,381.2583 C686.6531,381.2583 682.8581,377.4633 682.8581,372.7813 L682.8581,372.7813 C682.8581,368.0993 686.6531,364.3043 691.3351,364.3043 L743.2301,364.3043 C747.9121,364.3043 751.7071,368.0993 751.7071,372.7813 L751.7071,372.7813 C751.7071,377.4633 747.9121,381.2583 743.2301,381.2583" id="Fill-728"></path>
                <path d="M344.7196,351.1233 L297.9136,351.1233 C293.6906,351.1233 290.2676,347.7003 290.2676,343.4773 L290.2676,343.4773 C290.2676,339.2543 293.6906,335.8313 297.9136,335.8313 L344.7196,335.8313 C348.9426,335.8313 352.3656,339.2543 352.3656,343.4773 L352.3656,343.4773 C352.3656,347.7003 348.9426,351.1233 344.7196,351.1233" id="Fill-729"></path>
                <path d="M419.8301,351.1233 L373.0241,351.1233 C368.8011,351.1233 365.3781,347.7003 365.3781,343.4773 L365.3781,343.4773 C365.3781,339.2543 368.8011,335.8313 373.0241,335.8313 L419.8301,335.8313 C424.0531,335.8313 427.4761,339.2543 427.4761,343.4773 L427.4761,343.4773 C427.4761,347.7003 424.0531,351.1233 419.8301,351.1233" id="Fill-730"></path>
                <path d="M494.9406,351.1233 L448.1346,351.1233 C443.9116,351.1233 440.4886,347.7003 440.4886,343.4773 L440.4886,343.4773 C440.4886,339.2543 443.9116,335.8313 448.1346,335.8313 L494.9406,335.8313 C499.1636,335.8313 502.5866,339.2543 502.5866,343.4773 L502.5866,343.4773 C502.5866,347.7003 499.1636,351.1233 494.9406,351.1233" id="Fill-731"></path>
                <path d="M570.051,351.1233 L523.245,351.1233 C519.022,351.1233 515.599,347.7003 515.599,343.4773 L515.599,343.4773 C515.599,339.2543 519.022,335.8313 523.245,335.8313 L570.051,335.8313 C574.274,335.8313 577.697,339.2543 577.697,343.4773 L577.697,343.4773 C577.697,347.7003 574.274,351.1233 570.051,351.1233" id="Fill-732"></path>
                <path d="M645.1615,351.1233 L598.3555,351.1233 C594.1325,351.1233 590.7095,347.7003 590.7095,343.4773 L590.7095,343.4773 C590.7095,339.2543 594.1325,335.8313 598.3555,335.8313 L645.1615,335.8313 C649.3845,335.8313 652.8075,339.2543 652.8075,343.4773 L652.8075,343.4773 C652.8075,347.7003 649.3845,351.1233 645.1615,351.1233" id="Fill-733"></path>
                <path d="M720.2719,351.1233 L673.4659,351.1233 C669.2429,351.1233 665.8199,347.7003 665.8199,343.4773 L665.8199,343.4773 C665.8199,339.2543 669.2429,335.8313 673.4659,335.8313 L720.2719,335.8313 C724.4949,335.8313 727.9179,339.2543 727.9179,343.4773 L727.9179,343.4773 C727.9179,347.7003 724.4949,351.1233 720.2719,351.1233" id="Fill-734"></path>
                <path d="M371.2682,299.416 L332.0222,299.416 C328.4812,299.416 325.6112,296.546 325.6112,293.005 L325.6112,293.005 C325.6112,289.464 328.4812,286.594 332.0222,286.594 L371.2682,286.594 C374.8092,286.594 377.6792,289.464 377.6792,293.005 L377.6792,293.005 C377.6792,296.546 374.8092,299.416 371.2682,299.416" id="Fill-735"></path>
                <path d="M434.2473,299.416 L395.0013,299.416 C391.4603,299.416 388.5903,296.546 388.5903,293.005 L388.5903,293.005 C388.5903,289.464 391.4603,286.594 395.0013,286.594 L434.2473,286.594 C437.7883,286.594 440.6583,289.464 440.6583,293.005 L440.6583,293.005 C440.6583,296.546 437.7883,299.416 434.2473,299.416" id="Fill-736"></path>
                <path d="M497.2263,299.416 L457.9803,299.416 C454.4393,299.416 451.5693,296.546 451.5693,293.005 L451.5693,293.005 C451.5693,289.464 454.4393,286.594 457.9803,286.594 L497.2263,286.594 C500.7673,286.594 503.6373,289.464 503.6373,293.005 L503.6373,293.005 C503.6373,296.546 500.7673,299.416 497.2263,299.416" id="Fill-737"></path>
                <path d="M560.2054,299.416 L520.9594,299.416 C517.4184,299.416 514.5484,296.546 514.5484,293.005 L514.5484,293.005 C514.5484,289.464 517.4184,286.594 520.9594,286.594 L560.2054,286.594 C563.7464,286.594 566.6164,289.464 566.6164,293.005 L566.6164,293.005 C566.6164,296.546 563.7464,299.416 560.2054,299.416" id="Fill-738"></path>
                <path d="M623.1844,299.416 L583.9384,299.416 C580.3974,299.416 577.5274,296.546 577.5274,293.005 L577.5274,293.005 C577.5274,289.464 580.3974,286.594 583.9384,286.594 L623.1844,286.594 C626.7254,286.594 629.5954,289.464 629.5954,293.005 L629.5954,293.005 C629.5954,296.546 626.7254,299.416 623.1844,299.416" id="Fill-739"></path>
                <path d="M686.1635,299.416 L646.9175,299.416 C643.3765,299.416 640.5065,296.546 640.5065,293.005 L640.5065,293.005 C640.5065,289.464 643.3765,286.594 646.9175,286.594 L686.1635,286.594 C689.7045,286.594 692.5745,289.464 692.5745,293.005 L692.5745,293.005 C692.5745,296.546 689.7045,299.416 686.1635,299.416" id="Fill-740"></path>
                <path d="M360.9249,323.7953 L318.7329,323.7953 C314.9269,323.7953 311.8409,320.7093 311.8409,316.9033 L311.8409,316.9033 C311.8409,313.0963 314.9269,310.0113 318.7329,310.0113 L360.9249,310.0113 C364.7309,310.0113 367.8169,313.0963 367.8169,316.9033 L367.8169,316.9033 C367.8169,320.7093 364.7309,323.7953 360.9249,323.7953" id="Fill-741"></path>
                <path d="M428.6303,323.7953 L386.4383,323.7953 C382.6323,323.7953 379.5463,320.7093 379.5463,316.9033 L379.5463,316.9033 C379.5463,313.0963 382.6323,310.0113 386.4383,310.0113 L428.6303,310.0113 C432.4363,310.0113 435.5223,313.0963 435.5223,316.9033 L435.5223,316.9033 C435.5223,320.7093 432.4363,323.7953 428.6303,323.7953" id="Fill-742"></path>
                <path d="M496.3358,323.7953 L454.1438,323.7953 C450.3378,323.7953 447.2518,320.7093 447.2518,316.9033 L447.2518,316.9033 C447.2518,313.0963 450.3378,310.0113 454.1438,310.0113 L496.3358,310.0113 C500.1418,310.0113 503.2278,313.0963 503.2278,316.9033 L503.2278,316.9033 C503.2278,320.7093 500.1418,323.7953 496.3358,323.7953" id="Fill-743"></path>
                <path d="M564.0413,323.7953 L521.8493,323.7953 C518.0433,323.7953 514.9573,320.7093 514.9573,316.9033 L514.9573,316.9033 C514.9573,313.0963 518.0433,310.0113 521.8493,310.0113 L564.0413,310.0113 C567.8473,310.0113 570.9333,313.0963 570.9333,316.9033 L570.9333,316.9033 C570.9333,320.7093 567.8473,323.7953 564.0413,323.7953" id="Fill-744"></path>
                <path d="M631.7467,323.7953 L589.5547,323.7953 C585.7487,323.7953 582.6627,320.7093 582.6627,316.9033 L582.6627,316.9033 C582.6627,313.0963 585.7487,310.0113 589.5547,310.0113 L631.7467,310.0113 C635.5527,310.0113 638.6387,313.0963 638.6387,316.9033 L638.6387,316.9033 C638.6387,320.7093 635.5527,323.7953 631.7467,323.7953" id="Fill-745"></path>
                <path d="M699.4521,323.7953 L657.2601,323.7953 C653.4541,323.7953 650.3681,320.7093 650.3681,316.9033 L650.3681,316.9033 C650.3681,313.0963 653.4541,310.0113 657.2601,310.0113 L699.4521,310.0113 C703.2581,310.0113 706.3441,313.0963 706.3441,316.9033 L706.3441,316.9033 C706.3441,320.7093 703.2581,323.7953 699.4521,323.7953" id="Fill-746"></path>
                <path d="M396.3324,259.905 L364.2234,259.905 C361.3264,259.905 358.9784,257.557 358.9784,254.66 L358.9784,254.66 C358.9784,251.763 361.3264,249.415 364.2234,249.415 L396.3324,249.415 C399.2294,249.415 401.5774,251.763 401.5774,254.66 L401.5774,254.66 C401.5774,257.557 399.2294,259.905 396.3324,259.905" id="Fill-747"></path>
                <path d="M447.8584,259.905 L415.7494,259.905 C412.8524,259.905 410.5044,257.557 410.5044,254.66 L410.5044,254.66 C410.5044,251.763 412.8524,249.415 415.7494,249.415 L447.8584,249.415 C450.7554,249.415 453.1034,251.763 453.1034,254.66 L453.1034,254.66 C453.1034,257.557 450.7554,259.905 447.8584,259.905" id="Fill-748"></path>
                <path d="M602.4362,259.905 L570.3272,259.905 C567.4302,259.905 565.0822,257.557 565.0822,254.66 L565.0822,254.66 C565.0822,251.763 567.4302,249.415 570.3272,249.415 L602.4362,249.415 C605.3332,249.415 607.6812,251.763 607.6812,254.66 L607.6812,254.66 C607.6812,257.557 605.3332,259.905 602.4362,259.905" id="Fill-749"></path>
                <path d="M653.9621,259.905 L621.8531,259.905 C618.9561,259.905 616.6081,257.557 616.6081,254.66 L616.6081,254.66 C616.6081,251.763 618.9561,249.415 621.8531,249.415 L653.9621,249.415 C656.8591,249.415 659.2071,251.763 659.2071,254.66 L659.2071,254.66 C659.2071,257.557 656.8591,259.905 653.9621,259.905" id="Fill-750"></path>
                <path d="M383.6761,278.07 L347.9631,278.07 C344.7411,278.07 342.1291,275.458 342.1291,272.236 L342.1291,272.236 C342.1291,269.014 344.7411,266.402 347.9631,266.402 L383.6761,266.402 C386.8981,266.402 389.5101,269.014 389.5101,272.236 L389.5101,272.236 C389.5101,275.458 386.8981,278.07 383.6761,278.07" id="Fill-751"></path>
                <path d="M440.9854,278.07 L405.2724,278.07 C402.0504,278.07 399.4384,275.458 399.4384,272.236 L399.4384,272.236 C399.4384,269.014 402.0504,266.402 405.2724,266.402 L440.9854,266.402 C444.2074,266.402 446.8194,269.014 446.8194,272.236 L446.8194,272.236 C446.8194,275.458 444.2074,278.07 440.9854,278.07" id="Fill-752"></path>
                <path d="M498.2946,278.07 L462.5816,278.07 C459.3596,278.07 456.7476,275.458 456.7476,272.236 L456.7476,272.236 C456.7476,269.014 459.3596,266.402 462.5816,266.402 L498.2946,266.402 C501.5166,266.402 504.1286,269.014 504.1286,272.236 L504.1286,272.236 C504.1286,275.458 501.5166,278.07 498.2946,278.07" id="Fill-753"></path>
                <path d="M555.6038,278.07 L519.8908,278.07 C516.6688,278.07 514.0568,275.458 514.0568,272.236 L514.0568,272.236 C514.0568,269.014 516.6688,266.402 519.8908,266.402 L555.6038,266.402 C558.8258,266.402 561.4378,269.014 561.4378,272.236 L561.4378,272.236 C561.4378,275.458 558.8258,278.07 555.6038,278.07" id="Fill-754"></path>
                <path d="M612.9131,278.07 L577.2001,278.07 C573.9781,278.07 571.3661,275.458 571.3661,272.236 L571.3661,272.236 C571.3661,269.014 573.9781,266.402 577.2001,266.402 L612.9131,266.402 C616.1351,266.402 618.7471,269.014 618.7471,272.236 L618.7471,272.236 C618.7471,275.458 616.1351,278.07 612.9131,278.07" id="Fill-755"></path>
                <path d="M670.2223,278.07 L634.5093,278.07 C631.2873,278.07 628.6753,275.458 628.6753,272.236 L628.6753,272.236 C628.6753,269.014 631.2873,266.402 634.5093,266.402 L670.2223,266.402 C673.4443,266.402 676.0563,269.014 676.0563,272.236 L676.0563,272.236 C676.0563,275.458 673.4443,278.07 670.2223,278.07" id="Fill-756"></path>
                <path d="M408.3654,243.823 L379.6824,243.823 C377.0954,243.823 374.9974,241.725 374.9974,239.138 C374.9974,236.55 377.0954,234.452 379.6824,234.452 L408.3654,234.452 C410.9534,234.452 413.0504,236.55 413.0504,239.138 C413.0504,241.725 410.9534,243.823 408.3654,243.823" id="Fill-757"></path>
                <path d="M454.3929,243.823 L425.7099,243.823 C423.1229,243.823 421.0249,241.725 421.0249,239.138 C421.0249,236.55 423.1229,234.452 425.7099,234.452 L454.3929,234.452 C456.9809,234.452 459.0779,236.55 459.0779,239.138 C459.0779,241.725 456.9809,243.823 454.3929,243.823" id="Fill-758"></path>
                <path d="M592.4752,243.823 L563.7922,243.823 C561.2052,243.823 559.1072,241.725 559.1072,239.138 C559.1072,236.55 561.2052,234.452 563.7922,234.452 L592.4752,234.452 C595.0632,234.452 597.1602,236.55 597.1602,239.138 C597.1602,241.725 595.0632,243.823 592.4752,243.823" id="Fill-759"></path>
                <path d="M638.5027,243.823 L609.8197,243.823 C607.2327,243.823 605.1347,241.725 605.1347,239.138 C605.1347,236.55 607.2327,234.452 609.8197,234.452 L638.5027,234.452 C641.0907,234.452 643.1877,236.55 643.1877,239.138 C643.1877,241.725 641.0907,243.823 638.5027,243.823" id="Fill-760"></path>
            </g>
            <g id="Group-765">
                <path d="M357.3351,354.9625 L395.2831,282.5405 L622.4521,282.5405 L661.3651,354.9625 L357.3351,354.9625 Z" id="Fill-762" fill="#292D2C" sketch:type="MSShapeGroup"></path>
                <path d="M624.1471,279.7059 L393.5681,279.7059 L352.6491,357.7969 L666.1061,357.7969 L624.1471,279.7059 Z M620.7571,285.3749 L656.6251,352.1279 L362.0211,352.1279 L396.9981,285.3749 L620.7571,285.3749 Z" id="Fill-764" fill="#FFFFFF" sketch:type="MSShapeGroup"></path>
                <text id="450" sketch:type="MSTextLayer" font-family="Luckiest Guy" font-size="26" font-weight="normal" fill="#FFFFFF">
                    <tspan x="484.937" y="310.2422">450</tspan>
                </text>
                <text id="SEATS" sketch:type="MSTextLayer" font-family="Luckiest Guy" font-size="26" font-weight="normal" fill="#FFFFFF">
                    <tspan x="472.587" y="338.2442">SE</tspan>
                    <tspan x="498.840906" y="338.2442" letter-spacing="-1.5054">A</tspan>
                    <tspan x="512.11285" y="338.2442">TS</tspan>
                </text>
            </g>
        </g>
    </g>
</svg>