<?xml version="1.0" encoding="UTF-8" standalone="no"?>
<svg width="681px" height="378px" viewBox="0 0 681 378" version="1.1" xmlns="http://www.w3.org/2000/svg" xmlns:xlink="http://www.w3.org/1999/xlink" xmlns:sketch="http://www.bohemiancoding.com/sketch/ns">
    <!-- Generator: Sketch 3.3.3 (12072) - http://www.bohemiancoding.com/sketch -->
    <title>Salillustrasjoner</title>
    <desc>Created with Sketch.</desc>
    <defs>
        <path id="path-1" d="M0.089,39.314 L42.352,39.314 L42.352,0.199 L0.089,0.199 L0.089,39.314 Z"></path>
        <path id="path-3" d="M0.089,39.314 L42.352,39.314 L42.352,0.199 L0.089,0.199 L0.089,39.314 Z"></path>
    </defs>
    <g id="Page-5" stroke="none" stroke-width="1" fill="none" fill-rule="evenodd" sketch:type="MSPage">
        <g id="Salillustrasjoner" sketch:type="MSLayerGroup" transform="translate(-170.000000, -36.000000)">
            <g id="Group-658" sketch:type="MSShapeGroup">
                <path d="M170.0787,362.3043 L334.0197,41.1353 L373.2587,199.1063 L190.6677,408.4353 L170.0787,362.3043 Z" id="Fill-655" fill="#B2C1AC"></path>
                <path d="M337.4677,38.5353 L378.6577,197.7453 L644.7887,198.4263 L699.3237,36.3933 L337.4677,38.5353 Z" id="Fill-657" fill="#E5B44D"></path>
            </g>
            <g id="Group-688" transform="translate(438.000000, 39.000000)" sketch:type="MSShapeGroup">
                <path d="M266.8112,1.1129 L211.2882,160.7829 L394.1442,369.4349 L412.3932,323.3039 L267.5832,1.0699 C267.4402,0.7359 266.9082,0.7659 266.8112,1.1129" id="Fill-659" fill="#B2C1AC"></path>
                <path d="M11.863,135.2419 L0.949,162.6989 L152.822,162.5639 L143.891,135.4349 L11.863,135.2419 Z" id="Fill-661" fill="#B2C1AC"></path>
                <path d="M0.9489,164.5212 L6.1469,181.6452 L148.3819,181.6452 L153.4369,164.5212 L0.9489,164.5212 Z" id="Fill-662" fill="#292D2C"></path>
                <path d="M88.3919,117.605 C88.3919,117.605 80.8259,125.671 83.8119,128.124 C86.7979,130.577 86.9249,130.006 86.9249,130.006" id="Fill-663" fill="#292D2C"></path>
                <path d="M95.1374,149.3575 L92.3734,149.5995 C92.3734,149.5995 91.9034,150.0125 91.3164,150.1655 C90.7294,150.3195 89.2874,150.2575 89.4354,150.6875 C89.5824,151.1195 92.6094,150.8585 92.8394,150.8495 C93.0694,150.8415 93.8224,150.7395 93.8224,150.7395 L93.8354,150.8455 L95.3964,150.8045 C95.3964,150.8045 95.4544,149.6995 95.1374,149.3575" id="Fill-664" fill="#292D2C"></path>
                <path d="M100.439,149.7304 L98.174,149.5524 C98.174,149.5524 97.205,150.3854 96.618,150.5384 C96.031,150.6924 94.589,150.6304 94.737,151.0614 C94.884,151.4914 97.911,151.2314 98.141,151.2224 C98.371,151.2144 99.124,151.1124 99.124,151.1124 L99.137,151.2194 L100.699,151.1774 C100.699,151.1774 100.756,150.0724 100.439,149.7304" id="Fill-665" fill="#292D2C"></path>
                <path d="M94.7048,138.7458 L97.7738,149.8248 L100.6718,150.4068 L101.9978,131.8018 L92.3078,130.8168 L86.8058,133.0338 L92.2408,149.6308 L95.3228,149.7688 L94.7048,138.7458 Z" id="Fill-666" fill="#A83548"></path>
                <path d="M102.687,132.9371 C103.022,130.2291 103.16,124.9421 100.774,118.2531 C97.26,108.3991 88.332,118.0481 88.332,118.0481 C88.332,118.0481 85.902,124.2471 85.821,128.9281 C85.785,130.9891 85.987,132.7631 86.225,134.1031 L102.687,132.9371 Z" id="Fill-667" fill="#292D2C"></path>
                <path d="M93.0469,117.9243 L90.9119,128.7633 L92.4719,131.7203 L95.0179,128.5993 L94.8529,117.7603 L93.0469,117.9243 Z" id="Fill-668" fill="#E5B44D"></path>
                <path d="M88.189,117.9063 L94.09,118.6443 L100.786,118.2683 C100.786,118.2683 101.861,100.8443 93.06,101.8293 C84.259,102.8153 88.189,117.9063 88.189,117.9063" id="Fill-669" fill="#F0D4B1"></path>
                <path d="M101.8333,110.0412 C101.8333,111.2202 101.2633,112.1762 100.5603,112.1762 C99.8573,112.1762 99.2883,111.2202 99.2883,110.0412 C99.2883,108.8622 99.8573,107.9062 100.5603,107.9062 C101.2633,107.9062 101.8333,108.8622 101.8333,110.0412" id="Fill-670" fill="#F0D4B1"></path>
                <path d="M96.3611,104.3297 L85.4721,103.9627 C85.4721,103.9627 89.7621,98.7907 98.6861,101.6617" id="Fill-671" fill="#292D2C"></path>
                <path d="M86.9711,109.6996 C86.8501,109.6996 86.7521,109.7976 86.7521,109.9186 L86.7521,111.2046 C86.7521,111.3256 86.8501,111.4236 86.9711,111.4236 L90.8851,111.4236 C91.0061,111.4236 91.1041,111.3256 91.1041,111.2046 L91.1041,109.9186 C91.1041,109.7976 91.0061,109.6996 90.8851,109.6996 L86.9711,109.6996 Z M90.8851,111.9166 L86.9711,111.9166 C86.5781,111.9166 86.2591,111.5976 86.2591,111.2046 L86.2591,109.9186 C86.2591,109.5266 86.5781,109.2066 86.9711,109.2066 L90.8851,109.2066 C91.2771,109.2066 91.5971,109.5266 91.5971,109.9186 L91.5971,111.2046 C91.5971,111.5976 91.2771,111.9166 90.8851,111.9166 L90.8851,111.9166 Z" id="Fill-672" fill="#1D5768"></path>
                <path d="M92.2946,109.9868 C92.2946,109.9868 88.4896,111.3408 89.2566,113.2718 C89.6546,114.2748 93.4326,112.9068 93.4326,112.9068" id="Fill-673" fill="#BB817B"></path>
                <path d="M93.1298,110.2744 C93.0088,110.2744 92.9108,110.3724 92.9108,110.4934 L92.9108,111.7794 C92.9108,111.9004 93.0088,111.9984 93.1298,111.9984 L97.0438,111.9984 C97.1638,111.9984 97.2628,111.9004 97.2628,111.7794 L97.2628,110.4934 C97.2628,110.3724 97.1638,110.2744 97.0438,110.2744 L93.1298,110.2744 Z M97.0438,112.4914 L93.1298,112.4914 C92.7368,112.4914 92.4178,112.1724 92.4178,111.7794 L92.4178,110.4934 C92.4178,110.1014 92.7368,109.7814 93.1298,109.7814 L97.0438,109.7814 C97.4358,109.7814 97.7558,110.1014 97.7558,110.4934 L97.7558,111.7794 C97.7558,112.1724 97.4358,112.4914 97.0438,112.4914 L97.0438,112.4914 Z" id="Fill-674" fill="#1D5768"></path>
                <path d="M92.7448,110.6285 L91.2668,110.2185 L91.3988,109.7435 L92.8768,110.1535 L92.7448,110.6285 Z" id="Fill-675" fill="#1D5768"></path>
                <path d="M92.5687,114.3665 C92.5687,114.3665 96.2247,112.2225 96.3887,113.0435 C96.5527,113.8645 94.0347,115.2885 94.0347,115.2885" id="Fill-676" fill="#A83548"></path>
                <path d="M88.1382,117.8808 L91.1582,121.6198 L93.7862,118.5808 L88.1382,117.8808 Z" id="Fill-677" fill="#BB817B"></path>
                <path d="M93.786,118.5813 L95.757,121.7013 L100.848,118.2533 L93.786,118.5813 Z" id="Fill-678" fill="#BB817B"></path>
                <path d="M90.069,128.043 L90.055,128.039 C90.184,127.994 90.288,127.898 90.326,127.767 C90.391,127.544 90.237,127.309 89.982,127.243 L88.82,126.944 C88.866,126.898 88.912,126.835 88.981,126.773 L89.652,126.163 C89.825,126.005 89.838,125.735 89.681,125.562 C89.522,125.388 89.253,125.375 89.079,125.533 L88.28,126.26 L86.067,127.204 C86.035,127.207 86.005,127.213 85.976,127.221 L85.707,128.528 L88.375,129.797 L88.611,129.843 C88.837,129.902 89.073,129.768 89.138,129.544 C89.15,129.504 89.153,129.463 89.153,129.423 L89.336,129.471 C89.591,129.537 89.85,129.409 89.915,129.185 C89.948,129.07 89.923,128.953 89.858,128.857 C90.104,128.909 90.35,128.784 90.412,128.567 C90.477,128.343 90.324,128.109 90.069,128.043" id="Fill-679" fill="#F0D4B1"></path>
                <path d="M97.8097,124.502 C97.8097,124.502 96.7947,131.908 96.8537,131.908 C97.5117,131.908 106.8177,133.021 106.8177,133.021 L108.2027,126.354 L97.8097,124.502 Z" id="Fill-680" fill="#FFFFFF"></path>
                <path d="M100.5051,133.3347 C100.3271,133.4847 100.0561,133.4647 99.9011,133.2907 C99.8721,133.2597 99.8531,133.2247 99.8361,133.1877 L99.6911,133.3097 C99.4891,133.4787 99.2001,133.4737 99.0451,133.2997 C98.9661,133.2107 98.9371,133.0937 98.9561,132.9787 C98.7561,133.1317 98.4801,133.1247 98.3301,132.9557 C98.1751,132.7817 98.2141,132.5037 98.4161,132.3347 L98.4271,132.3257 C98.2901,132.3397 98.1551,132.2977 98.0651,132.1957 C97.9111,132.0227 97.9481,131.7447 98.1501,131.5747 L99.0711,130.8057 C98.9101,130.7897 98.7741,130.6927 98.7251,130.5387 C98.6571,130.3137 98.8001,130.0577 99.0441,129.9647 L101.6701,129.8587 C101.7001,129.8467 101.7291,129.8397 101.7591,129.8347 L102.5631,130.9007 L100.6981,133.1917 L100.5051,133.3347 Z" id="Fill-681" fill="#E2CBA8"></path>
                <path d="M100.6839,118.8277 C100.6839,118.8277 109.8329,125.4427 106.3509,128.6087 C105.0369,129.8027 102.1699,131.4157 102.1699,131.4157 L100.5569,129.8627 L102.5879,126.9357 L100.6839,118.8277 Z" id="Fill-682" fill="#292D2C"></path>
                <path d="M93.0215,134.0169 L93.5865,131.5769 L94.3685,133.7569 L93.0215,134.0169 Z" id="Fill-683" fill="#A83548"></path>
                <path d="M91.1951,107.9176 C91.1951,108.3356 90.8561,108.6756 90.4371,108.6756 C90.0191,108.6756 89.6801,108.3356 89.6801,107.9176 L89.6801,107.4826 C89.6801,107.0646 90.0191,106.7256 90.4371,106.7256 C90.8561,106.7256 91.1951,107.0646 91.1951,107.4826 L91.1951,107.9176 Z" id="Fill-684" fill="#292D2C"></path>
                <path d="M96.2005,108.6412 C96.2005,109.0592 95.8605,109.3992 95.4425,109.3992 C95.0245,109.3992 94.6845,109.0592 94.6845,108.6412 L94.6845,108.2062 C94.6845,107.7882 95.0245,107.4492 95.4425,107.4492 C95.8605,107.4492 96.2005,107.7882 96.2005,108.2062 L96.2005,108.6412 Z" id="Fill-685" fill="#292D2C"></path>
                <path d="M100.392,107.4478 C100.392,104.7068 99.356,102.4648 98.044,102.2798 C97.794,102.0568 97.625,101.9488 97.625,101.9488 L97.361,102.3748 C97.047,102.5078 96.753,102.7588 96.493,103.1068 L96.763,103.3388 L95.513,105.3548 L98.007,104.5738 L100.215,109.3558 C100.329,108.7648 100.392,108.1218 100.392,107.4478" id="Fill-686" fill="#292D2C"></path>
                <path d="M59.3076,159.3962 L58.0896,130.2192 L93.0496,130.7022 L90.2646,159.8462 L59.3076,159.3962 Z" id="Fill-687" fill="#1D5768"></path>
            </g>
            <path d="M439.2898,47.135 L595.5688,47.393 L583.6678,130.153 L450.1178,129.551 L439.2898,47.135 Z" id="Fill-690" fill="#FFFFFF" sketch:type="MSShapeGroup"></path>
            <g id="Group-694" transform="translate(496.000000, 65.000000)">
                <mask id="mask-2" sketch:name="Clip 693" fill="white">
                    <use xlink:href="#path-1"></use>
                </mask>
                <g id="Clip-693"></g>
                <path d="M5.5123,25.1644 C4.6713,25.3594 4.3373,24.9104 4.7643,24.1614 L15.1943,5.8924 L35.4403,0.2544 C36.2723,0.0224 36.9463,0.5354 36.9463,1.3984 L36.9463,16.3074 C36.9463,17.1704 36.2653,18.0284 35.4243,18.2234 L5.5123,25.1644 Z" id="Fill-692" fill="#E87E41" sketch:type="MSShapeGroup" mask="url(#mask-2)"></path>
            </g>
            <path d="M501.9905,67.9768 C501.1675,67.7168 500.7495,68.1608 501.0555,68.9668 L507.8615,86.8728 L517.2915,92.3408 L529.9175,90.8028 L530.2765,90.7598 C531.1335,90.6548 531.4285,89.9958 530.9365,89.2868 L520.1055,73.6958 L501.9905,67.9768 Z" id="Fill-695" fill="#DF4C49" sketch:type="MSShapeGroup"></path>
            <g id="Group-700" transform="translate(496.000000, 65.000000)">
                <mask id="mask-4" sketch:name="Clip 698" fill="white">
                    <use xlink:href="#path-3"></use>
                </mask>
                <g id="Clip-698"></g>
                <path d="M10.3504,18.0182 L12.4864,23.5392 L17.7884,26.7902 C18.5244,27.2412 19.8154,27.5242 20.6724,27.4222 C20.6724,27.4222 33.5874,25.8832 34.2134,25.7782 C34.8384,25.6742 35.0464,25.4662 35.1514,25.1532 L14.6744,13.5912 L10.3504,18.0182 Z" id="Fill-697" fill="#8F2034" sketch:type="MSShapeGroup" mask="url(#mask-4)"></path>
                <path d="M36.5056,0.4141 C34.0436,2.4201 4.8276,24.9451 4.6196,24.9451 C4.4626,24.6331 4.7756,24.1121 4.7756,24.1121 L15.1876,5.8921 L35.4116,0.2581 C35.4116,0.2581 36.0366,0.0491 36.5056,0.4141" id="Fill-699" fill="#F0AB2B" sketch:type="MSShapeGroup" mask="url(#mask-4)"></path>
            </g>
            <g id="Group-710" fill="#0C0A09" sketch:type="MSShapeGroup">
                <path d="M499.3987,101.905 C499.3987,103.033 499.3227,103.565 498.8557,103.891 C498.4437,104.184 497.8907,104.216 497.1527,104.216 L496.4477,104.216 C496.1867,104.216 496.0897,104.14 496.0897,103.847 L496.0897,103.109 C496.0897,102.784 496.1867,102.719 496.4687,102.719 L496.9897,102.719 C497.1857,102.719 497.3697,102.719 497.4677,102.621 C497.5757,102.513 497.5757,102.372 497.5757,101.851 L497.5757,97.532 C497.5757,97.229 497.6297,97.196 497.9667,97.196 L499.0297,97.196 C499.3657,97.196 499.3987,97.229 499.3987,97.532 L499.3987,101.905 Z" id="Fill-701"></path>
                <path d="M503.2833,102.0786 C503.1643,102.0566 502.9143,102.0456 502.7623,102.0456 L502.6433,102.0456 C502.1443,102.0456 501.9383,102.1326 501.9383,102.5346 L501.9383,102.5776 C501.9383,102.9796 502.1653,103.0766 502.5453,103.0766 L502.6213,103.0766 C502.8713,103.0766 503.0333,103.0006 503.1313,102.9146 C503.2503,102.8056 503.2833,102.6756 503.2833,102.3826 L503.2833,102.0786 Z M503.6523,103.7716 C503.4353,104.0966 502.9143,104.3136 502.2313,104.3136 L502.0683,104.3136 C500.9833,104.3136 500.3103,103.7386 500.3103,102.6426 L500.3103,102.5236 C500.3103,101.3086 500.9943,100.9176 502.4483,100.9176 L502.5233,100.9176 C502.8063,100.9176 503.1203,100.9396 503.2833,100.9606 L503.2833,100.7336 C503.2833,100.5166 503.2503,100.3646 503.0993,100.2556 C502.9683,100.1686 502.8063,100.1366 502.4483,100.1366 C502.0683,100.1366 501.6123,100.2126 501.1893,100.3206 C500.9183,100.3856 500.8533,100.2996 500.8203,100.1146 L500.7333,99.5396 C500.7223,99.4636 500.7113,99.3656 500.7113,99.3226 C500.7113,99.1816 500.7553,99.1056 500.9723,99.0406 C501.4283,98.9106 502.0893,98.8016 502.8273,98.8016 C503.6953,98.8016 504.2603,98.9756 504.6073,99.3336 C504.8893,99.6266 505.0193,100.0496 505.0193,100.6896 L505.0193,103.9126 C505.0193,104.1296 504.9323,104.2166 504.6503,104.2166 L504.1403,104.2166 C503.8913,104.2166 503.8043,104.1616 503.7393,103.9666 L503.6743,103.7716 L503.6523,103.7716 Z" id="Fill-703"></path>
                <path d="M509.1534,103.9991 C509.0884,104.1401 509.0014,104.2161 508.7734,104.2161 L507.5914,104.2161 C507.3744,104.2161 507.2654,104.1621 507.1894,103.9881 C506.7014,102.8601 505.9204,100.7221 505.5624,99.2141 C505.5074,98.9861 505.6164,98.8991 505.8654,98.8991 L506.8744,98.8991 C507.1134,98.8991 507.1894,98.9321 507.2434,99.1491 C507.5364,100.2671 507.9594,101.7101 508.1764,102.3501 L508.2204,102.3501 C508.4374,101.6881 508.8274,100.2771 509.0774,99.1921 C509.1314,98.9541 509.1964,98.8991 509.4354,98.8991 L510.4664,98.8991 C510.7154,98.8991 510.8134,98.9861 510.7484,99.2141 C510.3574,100.6571 509.6414,102.8601 509.1534,103.9991" id="Fill-704"></path>
                <path d="M514.112,102.0786 C513.993,102.0566 513.743,102.0456 513.591,102.0456 L513.472,102.0456 C512.973,102.0456 512.767,102.1326 512.767,102.5346 L512.767,102.5776 C512.767,102.9796 512.994,103.0766 513.374,103.0766 L513.45,103.0766 C513.7,103.0766 513.863,103.0006 513.96,102.9146 C514.079,102.8056 514.112,102.6756 514.112,102.3826 L514.112,102.0786 Z M514.481,103.7716 C514.264,104.0966 513.743,104.3136 513.06,104.3136 L512.897,104.3136 C511.812,104.3136 511.139,103.7386 511.139,102.6426 L511.139,102.5236 C511.139,101.3086 511.823,100.9176 513.277,100.9176 L513.353,100.9176 C513.635,100.9176 513.949,100.9396 514.112,100.9606 L514.112,100.7336 C514.112,100.5166 514.079,100.3646 513.928,100.2556 C513.797,100.1686 513.635,100.1366 513.277,100.1366 C512.897,100.1366 512.441,100.2126 512.018,100.3206 C511.747,100.3856 511.682,100.2996 511.649,100.1146 L511.562,99.5396 C511.551,99.4636 511.541,99.3656 511.541,99.3226 C511.541,99.1816 511.584,99.1056 511.801,99.0406 C512.257,98.9106 512.919,98.8016 513.656,98.8016 C514.524,98.8016 515.089,98.9756 515.436,99.3336 C515.718,99.6266 515.848,100.0496 515.848,100.6896 L515.848,103.9126 C515.848,104.1296 515.761,104.2166 515.479,104.2166 L514.969,104.2166 C514.72,104.2166 514.633,104.1616 514.568,103.9666 L514.503,103.7716 L514.481,103.7716 Z" id="Fill-705"></path>
                <path d="M521.306,102.7405 C521.599,102.7405 521.686,102.8165 521.686,103.0875 L521.686,103.8685 C521.686,104.1615 521.599,104.2165 521.306,104.2165 L516.998,104.2165 C516.662,104.2165 516.586,104.1295 516.586,103.8475 L516.586,103.5215 C516.586,103.2835 516.619,103.1855 516.76,102.9575 L519.342,98.6715 L517.096,98.6715 C516.803,98.6715 516.716,98.5955 516.716,98.3355 L516.716,97.5435 C516.716,97.2615 516.803,97.1965 517.096,97.1965 L521.306,97.1965 C521.566,97.1965 521.653,97.2505 521.653,97.5105 L521.653,97.8795 C521.653,98.1075 521.61,98.2375 521.436,98.5195 L518.789,102.7405 L521.306,102.7405 Z" id="Fill-706"></path>
                <path d="M524.1162,101.981 C524.1162,102.458 524.1492,102.643 524.3112,102.806 C524.4092,102.903 524.5502,102.958 524.7672,102.958 L524.8102,102.958 C525.0272,102.958 525.1682,102.903 525.2662,102.806 C525.4292,102.643 525.4612,102.458 525.4612,101.981 L525.4612,101.135 C525.4612,100.657 525.4292,100.473 525.2662,100.31 C525.1682,100.212 525.0272,100.158 524.8102,100.158 L524.7672,100.158 C524.5502,100.158 524.4092,100.212 524.3112,100.31 C524.1492,100.473 524.1162,100.657 524.1162,101.135 L524.1162,101.981 Z M527.2082,101.905 C527.2082,103.012 526.9812,103.533 526.5252,103.891 C526.2102,104.14 525.6242,104.314 524.8542,104.314 L524.7242,104.314 C523.9532,104.314 523.3672,104.14 523.0532,103.891 C522.5972,103.533 522.3692,103.012 522.3692,101.905 L522.3692,101.211 C522.3692,100.104 522.5972,99.583 523.0532,99.225 C523.3672,98.975 523.9532,98.802 524.7242,98.802 L524.8542,98.802 C525.6242,98.802 526.2102,98.975 526.5252,99.225 C526.9812,99.583 527.2082,100.093 527.2082,101.2 L527.2082,101.905 Z" id="Fill-707"></path>
                <path d="M531.0714,98.8018 C531.7114,98.8018 532.1674,98.9538 532.4494,99.2468 C532.7424,99.5508 532.8504,99.9518 532.8504,100.6788 L532.8504,103.9018 C532.8504,104.1078 532.7744,104.2158 532.4824,104.2158 L531.4834,104.2158 C531.1904,104.2158 531.1144,104.1078 531.1144,103.9018 L531.1144,100.8308 C531.1144,100.5818 531.0824,100.4298 530.9954,100.3318 C530.9084,100.2338 530.7354,100.1908 530.5184,100.1908 L530.4534,100.1908 C530.2354,100.1908 530.0624,100.2338 529.9754,100.3318 C529.8884,100.4298 529.8564,100.5708 529.8564,100.8308 L529.8564,103.9018 C529.8564,104.1078 529.7804,104.2158 529.4874,104.2158 L528.4894,104.2158 C528.1964,104.2158 528.1204,104.1078 528.1204,103.9018 L528.1204,99.2038 C528.1204,98.9868 528.2074,98.8998 528.4894,98.8998 L528.9994,98.8998 C529.2484,98.8998 529.3354,98.9428 529.4004,99.1488 L529.4654,99.3548 L529.4984,99.3548 C529.8454,98.9868 530.3444,98.8018 530.9844,98.8018 L531.0714,98.8018 Z" id="Fill-708"></path>
                <path d="M536.6268,101.0261 C536.7248,101.0261 536.7568,100.9831 536.7568,100.8851 L536.7568,100.7111 C536.7568,100.4941 536.7248,100.3321 536.6488,100.2121 C536.5508,100.0711 536.3878,100.0171 536.1498,100.0171 L536.0518,100.0171 C535.8568,100.0171 535.6938,100.0601 535.5958,100.1691 C535.4878,100.2881 535.4328,100.4731 535.4328,100.7551 L535.4328,101.0261 L536.6268,101.0261 Z M536.5618,102.9141 C536.9088,102.9141 537.4408,102.8381 537.7118,102.7731 C537.7658,102.7621 537.8418,102.7401 537.9178,102.7401 C538.0158,102.7401 538.0918,102.8161 538.1138,102.9251 L538.1998,103.4671 C538.2218,103.5761 538.2438,103.6841 538.2438,103.7601 C538.2438,103.9011 538.1888,103.9771 537.9618,104.0531 C537.5278,104.2051 536.8548,104.3141 536.3228,104.3141 L536.1168,104.3141 C535.2598,104.3141 534.5978,104.1291 534.2288,103.7601 C533.7948,103.3261 533.6868,102.7731 533.6868,101.8941 L533.6868,101.2861 C533.6868,100.2011 533.9688,99.6151 534.3378,99.2901 C534.6958,98.9751 535.2598,98.8021 536.0408,98.8021 L536.1928,98.8021 C536.9738,98.8021 537.5378,99.0191 537.8308,99.3441 C538.2108,99.7671 538.3518,100.3531 538.3518,101.2861 L538.3518,101.8511 C538.3518,102.0791 538.2548,102.1541 538.0378,102.1541 L535.4328,102.1541 L535.4328,102.2411 C535.4328,102.7511 535.6828,102.9141 536.4428,102.9141 L536.5618,102.9141 Z" id="Fill-709"></path>
            </g>
            <g id="Group-715" transform="translate(480.000000, 224.000000)" sketch:type="MSShapeGroup">
                <path d="M58.848,1.0457 L53.901,25.4787 L3.266,26.0647 L0.438,0.3557 L58.848,1.0457 Z" id="Fill-711" fill="#FFFFFF"></path>
                <path d="M58.848,1.0457 L53.901,25.4787 L3.266,26.0647 L0.438,0.3557 L58.848,1.0457 L58.848,1.0457 Z" id="Stroke-713" stroke="#E5B44D"></path>
                <path d="M23.1945,33.7373 L27.9375,40.5723 L28.3455,40.5723 L33.5115,34.1393 L30.5635,33.4533 L31.1345,28.9823 L26.1865,28.9823 L26.4195,33.0853 L23.1945,33.7373 Z" id="Fill-714" fill="#F0AB2B"></path>
                <path d="M18.9373392,2.81099111 C18.894768,3.47793852 18.8557451,4.13778085 18.8202692,4.79053789 C18.7847933,5.44329493 18.7386753,6.10313726 18.6819138,6.77008467 L14.1693985,7.00422461 L14.0629713,8.34520791 L17.2345032,8.34520791 L17.0003633,11.6444525 L13.8075459,11.7508798 L13.7011187,13.3047176 L16.3405144,13.3047176 L18.2136339,13.3047176 C18.1710628,14.085188 18.1267185,14.8603253 18.0805998,15.6301529 C18.0344811,16.3999805 17.9936844,17.1715703 17.9582085,17.9449455 L8.78417988,18.1578 L9.12474707,2.81099111 L18.9373392,2.81099111 Z M32.1130322,3.2367001 L27.9623696,10.4524674 L31.4957542,16.7316749 L27.0470953,18.1152291 L25.1314049,13.7729975 L22.8751473,18.1365146 L18.2774902,16.4762495 L22.1940129,10.3034692 L18.6180574,3.81140723 L23.4924253,2.64070752 L25.2378321,6.91908281 L27.0896662,2.64070752 L32.1130322,3.2367001 Z M37.8707462,3.17284375 L36.7000465,17.6682347 L32.2088167,17.9023746 L32.2088167,3.47084004 L37.8707462,3.17284375 Z M49.8544542,2.93870381 L49.7480269,7.45121904 L46.576495,7.57893174 L45.7676479,17.6682347 L41.2764181,17.9023746 L41.2977036,7.81307168 L38.1261716,7.98335527 L38.2538843,2.95998926 L49.8544542,2.93870381 Z" id="EXIT" fill="#292D2C"></path>
            </g>
            <g id="Group-761" fill="#292D2C" sketch:type="MSShapeGroup">
                <path d="M308.1,413.5351 L250.866,413.5351 C245.703,413.5351 241.517,409.3491 241.517,404.1861 L241.517,404.1861 C241.517,399.0221 245.703,394.8361 250.866,394.8361 L308.1,394.8361 C313.263,394.8361 317.449,399.0221 317.449,404.1861 L317.449,404.1861 C317.449,409.3491 313.263,413.5351 308.1,413.5351" id="Fill-716"></path>
                <path d="M399.9438,413.5351 L342.7098,413.5351 C337.5468,413.5351 333.3608,409.3491 333.3608,404.1861 L333.3608,404.1861 C333.3608,399.0221 337.5468,394.8361 342.7098,394.8361 L399.9438,394.8361 C405.1078,394.8361 409.2928,399.0221 409.2928,404.1861 L409.2928,404.1861 C409.2928,409.3491 405.1078,413.5351 399.9438,413.5351" id="Fill-718"></path>
                <path d="M491.7877,413.5351 L434.5537,413.5351 C429.3907,413.5351 425.2047,409.3491 425.2047,404.1861 L425.2047,404.1861 C425.2047,399.0221 429.3907,394.8361 434.5537,394.8361 L491.7877,394.8361 C496.9507,394.8361 501.1367,399.0221 501.1367,404.1861 L501.1367,404.1861 C501.1367,409.3491 496.9507,413.5351 491.7877,413.5351" id="Fill-719"></path>
                <path d="M583.6315,413.5351 L526.3975,413.5351 C521.2345,413.5351 517.0485,409.3491 517.0485,404.1861 L517.0485,404.1861 C517.0485,399.0221 521.2345,394.8361 526.3975,394.8361 L583.6315,394.8361 C588.7955,394.8361 592.9805,399.0221 592.9805,404.1861 L592.9805,404.1861 C592.9805,409.3491 588.7955,413.5351 583.6315,413.5351" id="Fill-720"></path>
                <path d="M675.4754,413.5351 L618.2414,413.5351 C613.0784,413.5351 608.8924,409.3491 608.8924,404.1861 L608.8924,404.1861 C608.8924,399.0221 613.0784,394.8361 618.2414,394.8361 L675.4754,394.8361 C680.6394,394.8361 684.8244,399.0221 684.8244,404.1861 L684.8244,404.1861 C684.8244,409.3491 680.6394,413.5351 675.4754,413.5351" id="Fill-721"></path>
                <path d="M767.3193,413.5351 L710.0853,413.5351 C704.9223,413.5351 700.7363,409.3491 700.7363,404.1861 L700.7363,404.1861 C700.7363,399.0221 704.9223,394.8361 710.0853,394.8361 L767.3193,394.8361 C772.4833,394.8361 776.6683,399.0221 776.6683,404.1861 L776.6683,404.1861 C776.6683,409.3491 772.4833,413.5351 767.3193,413.5351" id="Fill-722"></path>
                <path d="M326.85,381.2583 L274.955,381.2583 C270.273,381.2583 266.478,377.4633 266.478,372.7813 L266.478,372.7813 C266.478,368.0993 270.273,364.3043 274.955,364.3043 L326.85,364.3043 C331.532,364.3043 335.327,368.0993 335.327,372.7813 L335.327,372.7813 C335.327,377.4633 331.532,381.2583 326.85,381.2583" id="Fill-723"></path>
                <path d="M410.126,381.2583 L358.231,381.2583 C353.549,381.2583 349.754,377.4633 349.754,372.7813 L349.754,372.7813 C349.754,368.0993 353.549,364.3043 358.231,364.3043 L410.126,364.3043 C414.808,364.3043 418.603,368.0993 418.603,372.7813 L418.603,372.7813 C418.603,377.4633 414.808,381.2583 410.126,381.2583" id="Fill-724"></path>
                <path d="M493.402,381.2583 L441.507,381.2583 C436.825,381.2583 433.03,377.4633 433.03,372.7813 L433.03,372.7813 C433.03,368.0993 436.825,364.3043 441.507,364.3043 L493.402,364.3043 C498.084,364.3043 501.879,368.0993 501.879,372.7813 L501.879,372.7813 C501.879,377.4633 498.084,381.2583 493.402,381.2583" id="Fill-725"></path>
                <path d="M576.678,381.2583 L524.783,381.2583 C520.101,381.2583 516.306,377.4633 516.306,372.7813 L516.306,372.7813 C516.306,368.0993 520.101,364.3043 524.783,364.3043 L576.678,364.3043 C581.36,364.3043 585.155,368.0993 585.155,372.7813 L585.155,372.7813 C585.155,377.4633 581.36,381.2583 576.678,381.2583" id="Fill-726"></path>
                <path d="M659.954,381.2583 L608.059,381.2583 C603.378,381.2583 599.582,377.4633 599.582,372.7813 L599.582,372.7813 C599.582,368.0993 603.378,364.3043 608.059,364.3043 L659.954,364.3043 C664.636,364.3043 668.431,368.0993 668.431,372.7813 L668.431,372.7813 C668.431,377.4633 664.636,381.2583 659.954,381.2583" id="Fill-727"></path>
                <path d="M743.2301,381.2583 L691.3351,381.2583 C686.6531,381.2583 682.8581,377.4633 682.8581,372.7813 L682.8581,372.7813 C682.8581,368.0993 686.6531,364.3043 691.3351,364.3043 L743.2301,364.3043 C747.9121,364.3043 751.7071,368.0993 751.7071,372.7813 L751.7071,372.7813 C751.7071,377.4633 747.9121,381.2583 743.2301,381.2583" id="Fill-728"></path>
                <path d="M344.7196,351.1233 L297.9136,351.1233 C293.6906,351.1233 290.2676,347.7003 290.2676,343.4773 L290.2676,343.4773 C290.2676,339.2543 293.6906,335.8313 297.9136,335.8313 L344.7196,335.8313 C348.9426,335.8313 352.3656,339.2543 352.3656,343.4773 L352.3656,343.4773 C352.3656,347.7003 348.9426,351.1233 344.7196,351.1233" id="Fill-729"></path>
                <path d="M419.8301,351.1233 L373.0241,351.1233 C368.8011,351.1233 365.3781,347.7003 365.3781,343.4773 L365.3781,343.4773 C365.3781,339.2543 368.8011,335.8313 373.0241,335.8313 L419.8301,335.8313 C424.0531,335.8313 427.4761,339.2543 427.4761,343.4773 L427.4761,343.4773 C427.4761,347.7003 424.0531,351.1233 419.8301,351.1233" id="Fill-730"></path>
                <path d="M494.9406,351.1233 L448.1346,351.1233 C443.9116,351.1233 440.4886,347.7003 440.4886,343.4773 L440.4886,343.4773 C440.4886,339.2543 443.9116,335.8313 448.1346,335.8313 L494.9406,335.8313 C499.1636,335.8313 502.5866,339.2543 502.5866,343.4773 L502.5866,343.4773 C502.5866,347.7003 499.1636,351.1233 494.9406,351.1233" id="Fill-731"></path>
                <path d="M570.051,351.1233 L523.245,351.1233 C519.022,351.1233 515.599,347.7003 515.599,343.4773 L515.599,343.4773 C515.599,339.2543 519.022,335.8313 523.245,335.8313 L570.051,335.8313 C574.274,335.8313 577.697,339.2543 577.697,343.4773 L577.697,343.4773 C577.697,347.7003 574.274,351.1233 570.051,351.1233" id="Fill-732"></path>
                <path d="M645.1615,351.1233 L598.3555,351.1233 C594.1325,351.1233 590.7095,347.7003 590.7095,343.4773 L590.7095,343.4773 C590.7095,339.2543 594.1325,335.8313 598.3555,335.8313 L645.1615,335.8313 C649.3845,335.8313 652.8075,339.2543 652.8075,343.4773 L652.8075,343.4773 C652.8075,347.7003 649.3845,351.1233 645.1615,351.1233" id="Fill-733"></path>
                <path d="M720.2719,351.1233 L673.4659,351.1233 C669.2429,351.1233 665.8199,347.7003 665.8199,343.4773 L665.8199,343.4773 C665.8199,339.2543 669.2429,335.8313 673.4659,335.8313 L720.2719,335.8313 C724.4949,335.8313 727.9179,339.2543 727.9179,343.4773 L727.9179,343.4773 C727.9179,347.7003 724.4949,351.1233 720.2719,351.1233" id="Fill-734"></path>
                <path d="M371.2682,299.416 L332.0222,299.416 C328.4812,299.416 325.6112,296.546 325.6112,293.005 L325.6112,293.005 C325.6112,289.464 328.4812,286.594 332.0222,286.594 L371.2682,286.594 C374.8092,286.594 377.6792,289.464 377.6792,293.005 L377.6792,293.005 C377.6792,296.546 374.8092,299.416 371.2682,299.416" id="Fill-735"></path>
                <path d="M434.2473,299.416 L395.0013,299.416 C391.4603,299.416 388.5903,296.546 388.5903,293.005 L388.5903,293.005 C388.5903,289.464 391.4603,286.594 395.0013,286.594 L434.2473,286.594 C437.7883,286.594 440.6583,289.464 440.6583,293.005 L440.6583,293.005 C440.6583,296.546 437.7883,299.416 434.2473,299.416" id="Fill-736"></path>
                <path d="M497.2263,299.416 L457.9803,299.416 C454.4393,299.416 451.5693,296.546 451.5693,293.005 L451.5693,293.005 C451.5693,289.464 454.4393,286.594 457.9803,286.594 L497.2263,286.594 C500.7673,286.594 503.6373,289.464 503.6373,293.005 L503.6373,293.005 C503.6373,296.546 500.7673,299.416 497.2263,299.416" id="Fill-737"></path>
                <path d="M560.2054,299.416 L520.9594,299.416 C517.4184,299.416 514.5484,296.546 514.5484,293.005 L514.5484,293.005 C514.5484,289.464 517.4184,286.594 520.9594,286.594 L560.2054,286.594 C563.7464,286.594 566.6164,289.464 566.6164,293.005 L566.6164,293.005 C566.6164,296.546 563.7464,299.416 560.2054,299.416" id="Fill-738"></path>
                <path d="M623.1844,299.416 L583.9384,299.416 C580.3974,299.416 577.5274,296.546 577.5274,293.005 L577.5274,293.005 C577.5274,289.464 580.3974,286.594 583.9384,286.594 L623.1844,286.594 C626.7254,286.594 629.5954,289.464 629.5954,293.005 L629.5954,293.005 C629.5954,296.546 626.7254,299.416 623.1844,299.416" id="Fill-739"></path>
                <path d="M686.1635,299.416 L646.9175,299.416 C643.3765,299.416 640.5065,296.546 640.5065,293.005 L640.5065,293.005 C640.5065,289.464 643.3765,286.594 646.9175,286.594 L686.1635,286.594 C689.7045,286.594 692.5745,289.464 692.5745,293.005 L692.5745,293.005 C692.5745,296.546 689.7045,299.416 686.1635,299.416" id="Fill-740"></path>
                <path d="M360.9249,323.7953 L318.7329,323.7953 C314.9269,323.7953 311.8409,320.7093 311.8409,316.9033 L311.8409,316.9033 C311.8409,313.0963 314.9269,310.0113 318.7329,310.0113 L360.9249,310.0113 C364.7309,310.0113 367.8169,313.0963 367.8169,316.9033 L367.8169,316.9033 C367.8169,320.7093 364.7309,323.7953 360.9249,323.7953" id="Fill-741"></path>
                <path d="M428.6303,323.7953 L386.4383,323.7953 C382.6323,323.7953 379.5463,320.7093 379.5463,316.9033 L379.5463,316.9033 C379.5463,313.0963 382.6323,310.0113 386.4383,310.0113 L428.6303,310.0113 C432.4363,310.0113 435.5223,313.0963 435.5223,316.9033 L435.5223,316.9033 C435.5223,320.7093 432.4363,323.7953 428.6303,323.7953" id="Fill-742"></path>
                <path d="M496.3358,323.7953 L454.1438,323.7953 C450.3378,323.7953 447.2518,320.7093 447.2518,316.9033 L447.2518,316.9033 C447.2518,313.0963 450.3378,310.0113 454.1438,310.0113 L496.3358,310.0113 C500.1418,310.0113 503.2278,313.0963 503.2278,316.9033 L503.2278,316.9033 C503.2278,320.7093 500.1418,323.7953 496.3358,323.7953" id="Fill-743"></path>
                <path d="M564.0413,323.7953 L521.8493,323.7953 C518.0433,323.7953 514.9573,320.7093 514.9573,316.9033 L514.9573,316.9033 C514.9573,313.0963 518.0433,310.0113 521.8493,310.0113 L564.0413,310.0113 C567.8473,310.0113 570.9333,313.0963 570.9333,316.9033 L570.9333,316.9033 C570.9333,320.7093 567.8473,323.7953 564.0413,323.7953" id="Fill-744"></path>
                <path d="M631.7467,323.7953 L589.5547,323.7953 C585.7487,323.7953 582.6627,320.7093 582.6627,316.9033 L582.6627,316.9033 C582.6627,313.0963 585.7487,310.0113 589.5547,310.0113 L631.7467,310.0113 C635.5527,310.0113 638.6387,313.0963 638.6387,316.9033 L638.6387,316.9033 C638.6387,320.7093 635.5527,323.7953 631.7467,323.7953" id="Fill-745"></path>
                <path d="M699.4521,323.7953 L657.2601,323.7953 C653.4541,323.7953 650.3681,320.7093 650.3681,316.9033 L650.3681,316.9033 C650.3681,313.0963 653.4541,310.0113 657.2601,310.0113 L699.4521,310.0113 C703.2581,310.0113 706.3441,313.0963 706.3441,316.9033 L706.3441,316.9033 C706.3441,320.7093 703.2581,323.7953 699.4521,323.7953" id="Fill-746"></path>
                <path d="M396.3324,259.905 L364.2234,259.905 C361.3264,259.905 358.9784,257.557 358.9784,254.66 L358.9784,254.66 C358.9784,251.763 361.3264,249.415 364.2234,249.415 L396.3324,249.415 C399.2294,249.415 401.5774,251.763 401.5774,254.66 L401.5774,254.66 C401.5774,257.557 399.2294,259.905 396.3324,259.905" id="Fill-747"></path>
                <path d="M447.8584,259.905 L415.7494,259.905 C412.8524,259.905 410.5044,257.557 410.5044,254.66 L410.5044,254.66 C410.5044,251.763 412.8524,249.415 415.7494,249.415 L447.8584,249.415 C450.7554,249.415 453.1034,251.763 453.1034,254.66 L453.1034,254.66 C453.1034,257.557 450.7554,259.905 447.8584,259.905" id="Fill-748"></path>
                <path d="M602.4362,259.905 L570.3272,259.905 C567.4302,259.905 565.0822,257.557 565.0822,254.66 L565.0822,254.66 C565.0822,251.763 567.4302,249.415 570.3272,249.415 L602.4362,249.415 C605.3332,249.415 607.6812,251.763 607.6812,254.66 L607.6812,254.66 C607.6812,257.557 605.3332,259.905 602.4362,259.905" id="Fill-749"></path>
                <path d="M653.9621,259.905 L621.8531,259.905 C618.9561,259.905 616.6081,257.557 616.6081,254.66 L616.6081,254.66 C616.6081,251.763 618.9561,249.415 621.8531,249.415 L653.9621,249.415 C656.8591,249.415 659.2071,251.763 659.2071,254.66 L659.2071,254.66 C659.2071,257.557 656.8591,259.905 653.9621,259.905" id="Fill-750"></path>
                <path d="M383.6761,278.07 L347.9631,278.07 C344.7411,278.07 342.1291,275.458 342.1291,272.236 L342.1291,272.236 C342.1291,269.014 344.7411,266.402 347.9631,266.402 L383.6761,266.402 C386.8981,266.402 389.5101,269.014 389.5101,272.236 L389.5101,272.236 C389.5101,275.458 386.8981,278.07 383.6761,278.07" id="Fill-751"></path>
                <path d="M440.9854,278.07 L405.2724,278.07 C402.0504,278.07 399.4384,275.458 399.4384,272.236 L399.4384,272.236 C399.4384,269.014 402.0504,266.402 405.2724,266.402 L440.9854,266.402 C444.2074,266.402 446.8194,269.014 446.8194,272.236 L446.8194,272.236 C446.8194,275.458 444.2074,278.07 440.9854,278.07" id="Fill-752"></path>
                <path d="M498.2946,278.07 L462.5816,278.07 C459.3596,278.07 456.7476,275.458 456.7476,272.236 L456.7476,272.236 C456.7476,269.014 459.3596,266.402 462.5816,266.402 L498.2946,266.402 C501.5166,266.402 504.1286,269.014 504.1286,272.236 L504.1286,272.236 C504.1286,275.458 501.5166,278.07 498.2946,278.07" id="Fill-753"></path>
                <path d="M555.6038,278.07 L519.8908,278.07 C516.6688,278.07 514.0568,275.458 514.0568,272.236 L514.0568,272.236 C514.0568,269.014 516.6688,266.402 519.8908,266.402 L555.6038,266.402 C558.8258,266.402 561.4378,269.014 561.4378,272.236 L561.4378,272.236 C561.4378,275.458 558.8258,278.07 555.6038,278.07" id="Fill-754"></path>
                <path d="M612.9131,278.07 L577.2001,278.07 C573.9781,278.07 571.3661,275.458 571.3661,272.236 L571.3661,272.236 C571.3661,269.014 573.9781,266.402 577.2001,266.402 L612.9131,266.402 C616.1351,266.402 618.7471,269.014 618.7471,272.236 L618.7471,272.236 C618.7471,275.458 616.1351,278.07 612.9131,278.07" id="Fill-755"></path>
                <path d="M670.2223,278.07 L634.5093,278.07 C631.2873,278.07 628.6753,275.458 628.6753,272.236 L628.6753,272.236 C628.6753,269.014 631.2873,266.402 634.5093,266.402 L670.2223,266.402 C673.4443,266.402 676.0563,269.014 676.0563,272.236 L676.0563,272.236 C676.0563,275.458 673.4443,278.07 670.2223,278.07" id="Fill-756"></path>
                <path d="M408.3654,243.823 L379.6824,243.823 C377.0954,243.823 374.9974,241.725 374.9974,239.138 C374.9974,236.55 377.0954,234.452 379.6824,234.452 L408.3654,234.452 C410.9534,234.452 413.0504,236.55 413.0504,239.138 C413.0504,241.725 410.9534,243.823 408.3654,243.823" id="Fill-757"></path>
                <path d="M454.3929,243.823 L425.7099,243.823 C423.1229,243.823 421.0249,241.725 421.0249,239.138 C421.0249,236.55 423.1229,234.452 425.7099,234.452 L454.3929,234.452 C456.9809,234.452 459.0779,236.55 459.0779,239.138 C459.0779,241.725 456.9809,243.823 454.3929,243.823" id="Fill-758"></path>
                <path d="M592.4752,243.823 L563.7922,243.823 C561.2052,243.823 559.1072,241.725 559.1072,239.138 C559.1072,236.55 561.2052,234.452 563.7922,234.452 L592.4752,234.452 C595.0632,234.452 597.1602,236.55 597.1602,239.138 C597.1602,241.725 595.0632,243.823 592.4752,243.823" id="Fill-759"></path>
                <path d="M638.5027,243.823 L609.8197,243.823 C607.2327,243.823 605.1347,241.725 605.1347,239.138 C605.1347,236.55 607.2327,234.452 609.8197,234.452 L638.5027,234.452 C641.0907,234.452 643.1877,236.55 643.1877,239.138 C643.1877,241.725 641.0907,243.823 638.5027,243.823" id="Fill-760"></path>
            </g>
            <g id="Group-765" transform="translate(352.000000, 279.000000)" sketch:type="MSShapeGroup">
                <path d="M5.3351,75.9625 L43.2831,3.5405 L270.4521,3.5405 L309.3651,75.9625 L5.3351,75.9625 Z" id="Fill-762" fill="#292D2C"></path>
                <path d="M272.1471,0.7059 L41.5681,0.7059 L0.6491,78.7969 L314.1061,78.7969 L272.1471,0.7059 Z M268.7571,6.3749 L304.6251,73.1279 L10.0211,73.1279 L44.9981,6.3749 L268.7571,6.3749 Z" id="Fill-764" fill="#FFFFFF"></path>
                <path d="M146.495594,25.14845 L145.378406,25.1738406 L145.149891,30.6582156 L139.411609,31.1660281 L139.716297,25.3007938 L132.937,25.4531375 L134.815906,14.3066531 L139.614734,14.3066531 L138.21825,22.0761844 L139.894031,22.0254031 L140.376453,12.4023563 L145.886219,12.4023563 L145.505359,21.8222781 L146.495594,21.7714969 L146.495594,25.14845 Z M160.485828,24.8437625 C160.485828,25.9440284 160.289053,26.9003991 159.895496,27.7129031 C159.501939,28.5254072 158.966626,29.198252 158.289539,29.7314578 C157.612452,30.2646636 156.816887,30.6624461 155.90282,30.9248172 C154.988753,31.1871883 154.011224,31.3183719 152.970203,31.3183719 C152.470852,31.3183719 151.979971,31.2824022 151.497547,31.2104617 C151.015123,31.1385213 150.539053,31.0411915 150.069324,30.9184695 C149.599595,30.7957476 149.134105,30.6539847 148.67284,30.4931766 C148.211575,30.3323685 147.7482,30.1588676 147.282703,29.9726688 L147.765125,24.9199344 C148.069814,25.0892061 148.395657,25.24578 148.742664,25.3896609 C149.089671,25.5335419 149.447252,25.656262 149.815418,25.757825 C150.183584,25.859388 150.555976,25.9397908 150.932605,25.9990359 C151.309235,26.058281 151.675279,26.0879031 152.03075,26.0879031 C152.24234,26.0879031 152.500475,26.0688603 152.805164,26.0307742 C153.109853,25.9926881 153.401842,25.9207487 153.681141,25.8149539 C153.960439,25.7091591 154.199532,25.5652803 154.398426,25.3833133 C154.59732,25.2013462 154.696766,24.9622536 154.696766,24.6660281 C154.696766,24.3867299 154.618479,24.1455213 154.461902,23.9423953 C154.305326,23.7392693 154.102203,23.572116 153.852527,23.4409305 C153.602852,23.3097449 153.321442,23.2060676 153.008289,23.1298953 C152.695136,23.0537231 152.379873,22.9944789 152.062488,22.9521609 C151.745104,22.909843 151.444651,22.8844526 151.161121,22.8759891 C150.877591,22.8675255 150.64273,22.8632938 150.456531,22.8632938 C150.07567,22.8632938 149.688467,22.8802207 149.29491,22.914075 C148.901354,22.9479293 148.518382,23.015637 148.145984,23.1172 L148.653797,12.8593875 L158.937,12.5800906 L159.216297,17.8867313 L152.84325,17.5312625 L152.716297,19.7910281 C153.097158,19.6979287 153.478014,19.6281052 153.858875,19.5815555 C154.239736,19.5350058 154.620592,19.5117313 155.001453,19.5117313 C155.771639,19.5117313 156.488917,19.6365672 157.153309,19.886243 C157.8177,20.1359187 158.397447,20.4934998 158.892566,20.9589969 C159.387686,21.424494 159.777005,21.985198 160.060535,22.6411258 C160.344065,23.2970535 160.485828,24.0312584 160.485828,24.8437625 L160.485828,24.8437625 Z M176.837391,22.1523563 C176.837391,22.8971516 176.754872,23.6377041 176.589832,24.3740359 C176.424792,25.1103677 176.185699,25.8170664 175.872547,26.4941531 C175.559394,27.1712398 175.176423,27.8017674 174.723621,28.3857547 C174.270819,28.969742 173.752433,29.4775494 173.168445,29.9091922 C172.584458,30.340835 171.943351,30.6793733 171.245105,30.9248172 C170.54686,31.1702611 169.795728,31.2929813 168.991688,31.2929813 C168.179183,31.2929813 167.421704,31.1702611 166.719227,30.9248172 C166.016749,30.6793733 165.375642,30.340835 164.795887,29.9091922 C164.216131,29.4775494 163.697744,28.969742 163.240711,28.3857547 C162.783677,27.8017674 162.39859,27.1712398 162.085438,26.4941531 C161.772285,25.8170664 161.533192,25.1082519 161.368152,24.3676883 C161.203112,23.6271247 161.120594,22.8886881 161.120594,22.1523563 C161.120594,21.4160244 161.203112,20.675472 161.368152,19.9306766 C161.533192,19.1858812 161.772285,18.4749508 162.085438,17.7978641 C162.39859,17.1207773 162.783677,16.4881339 163.240711,15.8999148 C163.697744,15.3116958 164.216131,14.8017725 164.795887,14.3701297 C165.375642,13.9384869 166.018865,13.5999486 166.725574,13.3545047 C167.432283,13.1090608 168.187647,12.9863406 168.991688,12.9863406 C169.795728,12.9863406 170.54686,13.1090608 171.245105,13.3545047 C171.943351,13.5999486 172.584458,13.9384869 173.168445,14.3701297 C173.752433,14.8017725 174.270819,15.3116958 174.723621,15.8999148 C175.176423,16.4881339 175.559394,17.1207773 175.872547,17.7978641 C176.185699,18.4749508 176.424792,19.1858812 176.589832,19.9306766 C176.754872,20.675472 176.837391,21.4160244 176.837391,22.1523563 L176.837391,22.1523563 Z M171.479969,22.5332156 C171.479969,22.1608179 171.429188,21.7461085 171.327625,21.289075 C171.226062,20.8320415 171.069488,20.4046369 170.857898,20.0068484 C170.646309,19.60906 170.375478,19.2747534 170.045398,19.0039188 C169.715319,18.7330841 169.321768,18.5976688 168.864734,18.5976688 C168.399237,18.5976688 168.001455,18.7330841 167.671375,19.0039188 C167.341295,19.2747534 167.068349,19.60906 166.852527,20.0068484 C166.636706,20.4046369 166.478016,20.8320415 166.376453,21.289075 C166.27489,21.7461085 166.224109,22.1608179 166.224109,22.5332156 C166.224109,22.9056133 166.27489,23.3203227 166.376453,23.7773563 C166.478016,24.2343898 166.636706,24.6617944 166.852527,25.0595828 C167.068349,25.4573713 167.341295,25.7916778 167.671375,26.0625125 C168.001455,26.3333472 168.399237,26.4687625 168.864734,26.4687625 C169.321768,26.4687625 169.715319,26.3333472 170.045398,26.0625125 C170.375478,25.7916778 170.646309,25.4573713 170.857898,25.0595828 C171.069488,24.6617944 171.226062,24.2343898 171.327625,23.7773563 C171.429188,23.3203227 171.479969,22.9056133 171.479969,22.5332156 L171.479969,22.5332156 Z" id="450" fill="#FFFFFF"></path>
                <path d="M134.234461,52.4902937 C134.234461,53.6498048 134.033454,54.6633037 133.631434,55.5308211 C133.229413,56.3983385 132.679289,57.1198482 131.981043,57.6953719 C131.282797,58.2708956 130.466074,58.7025319 129.530848,58.9902937 C128.595622,59.2780556 127.590586,59.4219344 126.515711,59.4219344 C126.100995,59.4219344 125.646085,59.3669219 125.150965,59.2568953 C124.655845,59.1468687 124.154385,59.0093375 123.64657,58.8442977 C123.138755,58.6792578 122.649991,58.5015252 122.180262,58.3110945 C121.710533,58.1206639 121.293708,57.9408154 120.929773,57.7715437 L121.488367,52.541075 C122.207772,52.9727178 123.005453,53.3006767 123.881434,53.5249617 C124.757415,53.7492467 125.618571,53.8613875 126.46493,53.8613875 C126.625738,53.8613875 126.820397,53.8550399 127.048914,53.8423445 C127.277431,53.8296492 127.495365,53.7915636 127.702723,53.7280867 C127.91008,53.6646098 128.085697,53.5693959 128.229578,53.4424422 C128.373459,53.3154884 128.445398,53.1335241 128.445398,52.8965437 C128.445398,52.7357357 128.394618,52.5982045 128.293055,52.4839461 C128.191492,52.3696877 128.060308,52.2765897 127.8995,52.2046492 C127.738692,52.1327088 127.556728,52.0776963 127.353602,52.0396102 C127.150476,52.001524 126.951584,51.9740178 126.756922,51.9570906 C126.562259,51.9401635 126.380295,51.9317 126.211023,51.9317 L125.804773,51.9317 C125.076905,51.9317 124.41464,51.8047481 123.817957,51.5508406 C123.221274,51.2969331 122.709235,50.9435838 122.281824,50.490782 C121.854413,50.0379803 121.522223,49.5005508 121.285242,48.8784773 C121.048262,48.2564039 120.929773,47.5814432 120.929773,46.853575 C120.929773,45.8548721 121.130781,44.9598615 121.532801,44.1685164 C121.934821,43.3771713 122.472251,42.7043265 123.145105,42.1499617 C123.81796,41.595597 124.590251,41.1703083 125.462,40.8740828 C126.333749,40.5778574 127.235107,40.4297469 128.166102,40.4297469 C128.580817,40.4297469 129.008222,40.4445579 129.448328,40.4741805 C129.888434,40.503803 130.326418,40.5566996 130.762293,40.6328719 C131.198168,40.7090441 131.623456,40.8063739 132.038172,40.9248641 C132.452887,41.0433542 132.846438,41.1914647 133.218836,41.3692 L132.736414,46.5234969 C132.16089,46.3288344 131.557869,46.1659129 130.927332,46.0347273 C130.296795,45.9035418 129.681079,45.83795 129.080164,45.83795 C128.970137,45.83795 128.828375,45.8400659 128.654871,45.8442977 C128.481368,45.8485294 128.299403,45.8612246 128.108973,45.8823836 C127.918542,45.9035426 127.725998,45.9352805 127.531336,45.9775984 C127.336674,46.0199164 127.163173,46.0770447 127.010828,46.1489852 C126.858484,46.2209256 126.735763,46.3161395 126.642664,46.4346297 C126.549565,46.5531199 126.507247,46.6927669 126.515711,46.853575 C126.524175,47.0397738 126.593998,47.1900002 126.725184,47.3042586 C126.856369,47.418517 127.025638,47.5073833 127.232996,47.5708602 C127.440354,47.634337 127.668867,47.6787702 127.918543,47.7041609 C128.168219,47.7295517 128.415775,47.7443627 128.661219,47.7485945 C128.906663,47.7528263 129.135176,47.7528263 129.346766,47.7485945 C129.558355,47.7443627 129.731856,47.7507103 129.867273,47.7676375 C130.54436,47.8099554 131.153729,47.9538342 131.695398,48.1992781 C132.237068,48.4447221 132.69621,48.7705652 133.07284,49.1768172 C133.449469,49.5830692 133.737227,50.0676021 133.936121,50.6304305 C134.135015,51.1932588 134.234461,51.813207 134.234461,52.4902937 L134.234461,52.4902937 Z M147.056727,40.9375594 C147.005945,41.7331363 146.959396,42.5202378 146.917078,43.2988875 C146.87476,44.0775372 146.819748,44.8646387 146.752039,45.6602156 L141.369227,45.9395125 L141.242273,47.5391219 L145.025477,47.5391219 L144.74618,51.4746687 L140.937586,51.6016219 L140.810633,53.4551375 L143.95907,53.4551375 L146.193445,53.4551375 C146.142664,54.3861317 146.089767,55.3107644 146.034754,56.2290633 C145.979741,57.1473621 145.931076,58.0677631 145.888758,58.9902937 L134.945398,59.2442 L135.351648,40.9375594 L147.056727,40.9375594 Z M163.497156,58.1524031 L157.200281,58.9649031 L156.438562,56.0957625 L153.544031,56.0957625 L152.909266,58.9649031 L146.434656,58.3301375 L151.487391,41.4199812 L158.545984,41.0645125 L163.497156,58.1524031 Z M155.981531,52.2109969 L155.016687,47.7930281 L154.077234,52.2109969 L155.981531,52.2109969 Z M174.179256,41.0899031 L174.052303,46.4727156 L170.2691,46.6250594 L169.304256,58.6602156 L163.946834,58.9395125 L163.972225,46.9043562 L160.189022,47.1074812 L160.341366,41.1152937 L174.179256,41.0899031 Z M187.877498,52.4902937 C187.877498,53.6498048 187.676491,54.6633037 187.274471,55.5308211 C186.872451,56.3983385 186.322326,57.1198482 185.62408,57.6953719 C184.925835,58.2708956 184.109111,58.7025319 183.173885,58.9902937 C182.238659,59.2780556 181.233624,59.4219344 180.158748,59.4219344 C179.744033,59.4219344 179.289122,59.3669219 178.794002,59.2568953 C178.298883,59.1468687 177.797423,59.0093375 177.289608,58.8442977 C176.781793,58.6792578 176.293028,58.5015252 175.823299,58.3110945 C175.35357,58.1206639 174.936745,57.9408154 174.572811,57.7715437 L175.131405,52.541075 C175.850809,52.9727178 176.64849,53.3006767 177.524471,53.5249617 C178.400452,53.7492467 179.261609,53.8613875 180.107967,53.8613875 C180.268775,53.8613875 180.463435,53.8550399 180.691952,53.8423445 C180.920468,53.8296492 181.138402,53.7915636 181.34576,53.7280867 C181.553118,53.6646098 181.728735,53.5693959 181.872616,53.4424422 C182.016497,53.3154884 182.088436,53.1335241 182.088436,52.8965437 C182.088436,52.7357357 182.037655,52.5982045 181.936092,52.4839461 C181.834529,52.3696877 181.703346,52.2765897 181.542537,52.2046492 C181.381729,52.1327088 181.199765,52.0776963 180.996639,52.0396102 C180.793513,52.001524 180.594622,51.9740178 180.399959,51.9570906 C180.205297,51.9401635 180.023333,51.9317 179.854061,51.9317 L179.447811,51.9317 C178.719943,51.9317 178.057677,51.8047481 177.460995,51.5508406 C176.864312,51.2969331 176.352273,50.9435838 175.924862,50.490782 C175.497451,50.0379803 175.16526,49.5005508 174.92828,48.8784773 C174.691299,48.2564039 174.572811,47.5814432 174.572811,46.853575 C174.572811,45.8548721 174.773818,44.9598615 175.175838,44.1685164 C175.577859,43.3771713 176.115288,42.7043265 176.788143,42.1499617 C177.460998,41.595597 178.233288,41.1703083 179.105037,40.8740828 C179.976787,40.5778574 180.878145,40.4297469 181.809139,40.4297469 C182.223855,40.4297469 182.651259,40.4445579 183.091366,40.4741805 C183.531472,40.503803 183.969456,40.5566996 184.40533,40.6328719 C184.841205,40.7090441 185.266494,40.8063739 185.681209,40.9248641 C186.095925,41.0433542 186.489476,41.1914647 186.861873,41.3692 L186.379452,46.5234969 C185.803928,46.3288344 185.200907,46.1659129 184.57037,46.0347273 C183.939833,45.9035418 183.324116,45.83795 182.723202,45.83795 C182.613175,45.83795 182.471412,45.8400659 182.297909,45.8442977 C182.124405,45.8485294 181.942441,45.8612246 181.75201,45.8823836 C181.56158,45.9035426 181.369036,45.9352805 181.174373,45.9775984 C180.979711,46.0199164 180.80621,46.0770447 180.653866,46.1489852 C180.501521,46.2209256 180.378801,46.3161395 180.285702,46.4346297 C180.192602,46.5531199 180.150285,46.6927669 180.158748,46.853575 C180.167212,47.0397738 180.237036,47.1900002 180.368221,47.3042586 C180.499407,47.418517 180.668676,47.5073833 180.876034,47.5708602 C181.083391,47.634337 181.311905,47.6787702 181.56158,47.7041609 C181.811256,47.7295517 182.058812,47.7443627 182.304256,47.7485945 C182.5497,47.7528263 182.778214,47.7528263 182.989803,47.7485945 C183.201393,47.7443627 183.374894,47.7507103 183.510311,47.7676375 C184.187398,47.8099554 184.796767,47.9538342 185.338436,48.1992781 C185.880105,48.4447221 186.339248,48.7705652 186.715877,49.1768172 C187.092507,49.5830692 187.380264,50.0676021 187.579159,50.6304305 C187.778053,51.1932588 187.877498,51.813207 187.877498,52.4902937 L187.877498,52.4902937 Z" id="SEATS" fill="#FFFFFF"></path>
            </g>
            <path d="M519.042433,183.636403 C519.042433,184.7325 518.846403,185.685248 518.454338,186.494674 C518.062272,187.3041 517.528986,187.974395 516.854465,188.505581 C516.179943,189.036767 515.387392,189.433042 514.476788,189.69442 C513.566184,189.955797 512.592358,190.086483 511.555281,190.086483 C511.057821,190.086483 510.5688,190.05065 510.088204,189.978982 C509.607607,189.907314 509.133341,189.810353 508.665392,189.688096 C508.197442,189.565839 507.733716,189.424613 507.274198,189.264414 C506.81468,189.104215 506.353061,188.931372 505.889328,188.745878 L506.369922,183.712286 C506.673457,183.880916 506.998065,184.036897 507.343758,184.180233 C507.68945,184.323569 508.045676,184.445824 508.412447,184.547002 C508.779219,184.648181 509.1502,184.728279 509.525402,184.787299 C509.900605,184.84632 510.265263,184.87583 510.619387,184.87583 C510.830175,184.87583 511.087332,184.856859 511.390867,184.818918 C511.694402,184.780976 511.985285,184.709309 512.263525,184.603915 C512.541765,184.498521 512.779952,184.355187 512.978093,184.173909 C513.176233,183.992632 513.275302,183.754445 513.275302,183.459342 C513.275302,183.181102 513.197312,182.940807 513.041329,182.73845 C512.885346,182.536094 512.682992,182.369574 512.434262,182.238885 C512.185532,182.108197 511.905189,182.004912 511.593222,181.929028 C511.281256,181.853145 510.967187,181.794125 510.651005,181.751967 C510.334823,181.70981 510.035508,181.684516 509.753052,181.676084 C509.470596,181.667653 509.236625,181.663437 509.051132,181.663437 C508.671713,181.663437 508.285977,181.6803 507.893911,181.714026 C507.501846,181.747752 507.120325,181.815203 506.749338,181.916381 L507.255227,171.69743 L517.499473,171.419191 L517.777711,176.705728 L511.428809,176.351606 L511.302336,178.60281 C511.681755,178.510064 512.061168,178.440505 512.440586,178.394131 C512.820004,178.347758 513.199417,178.324572 513.578835,178.324572 C514.346104,178.324572 515.060664,178.448935 515.722539,178.697665 C516.384413,178.946394 516.961963,179.302621 517.455207,179.766354 C517.948451,180.230088 518.336295,180.788668 518.618751,181.442111 C518.901207,182.095553 519.042433,182.826977 519.042433,183.636403 L519.042433,183.636403 Z" id="5" fill="#FFFFFF" sketch:type="MSShapeGroup"></path>
        </g>
    </g>
</svg>