<?xml version="1.0" encoding="UTF-8" standalone="no"?>
<svg width="795px" height="378px" viewBox="0 0 795 378" version="1.1" xmlns="http://www.w3.org/2000/svg" xmlns:xlink="http://www.w3.org/1999/xlink" xmlns:sketch="http://www.bohemiancoding.com/sketch/ns">
    <!-- Generator: Sketch 3.3.3 (12072) - http://www.bohemiancoding.com/sketch -->
    <title>Salillustrasjoner</title>
    <desc>Created with Sketch.</desc>
    <defs>
        <path id="path-1" d="M0.056,39.314 L42.319,39.314 L42.319,0.199 L0.056,0.199 L0.056,39.314 Z"></path>
        <path id="path-3" d="M0.056,39.314 L42.319,39.314 L42.319,0.199 L0.056,0.199 L0.056,39.314 Z"></path>
    </defs>
    <g id="Page-6" stroke="none" stroke-width="1" fill="none" fill-rule="evenodd" sketch:type="MSPage">
        <g id="Salillustrasjoner" sketch:type="MSLayerGroup" transform="translate(-113.000000, -36.000000)">
            <g id="Group-770" sketch:type="MSShapeGroup">
                <path d="M907.0866,372.7812 L731.6266,38.9932 L699.8216,199.1062 L899.5436,412.7372 L907.0866,372.7812 Z" id="Fill-767" fill="#B2C1AC"></path>
                <path d="M728.3364,36.3937 L694.6704,197.7457 L336.4044,198.4257 L286.8074,37.1337 L728.3364,36.3937 Z" id="Fill-769" fill="#E5B44D"></path>
            </g>
            <g id="Group-800" sketch:type="MSShapeGroup">
                <path d="M281.5721,40.853 L332.1111,199.783 L125.1661,408.435 L113.3861,362.304 L280.8351,40.81 C280.9721,40.476 281.4801,40.506 281.5721,40.853" id="Fill-771" fill="#B2C1AC"></path>
                <path d="M542.0591,174.2419 L547.8221,201.6989 L395.9481,201.5639 L417.4331,174.2419 L542.0591,174.2419 Z" id="Fill-773" fill="#B2C1AC"></path>
                <path d="M547.8219,203.5212 L545.3199,220.1372 L400.3889,220.6452 L395.3339,203.5212 L547.8219,203.5212 Z" id="Fill-774" fill="#292D2C"></path>
                <path d="M489.2233,156.6049 C489.2233,156.6049 481.6573,164.6709 484.6433,167.1239 C487.6293,169.5769 487.7563,169.0059 487.7563,169.0059" id="Fill-775" fill="#292D2C"></path>
                <path d="M495.9687,188.3575 L493.2047,188.5995 C493.2047,188.5995 492.7347,189.0125 492.1477,189.1655 C491.5607,189.3195 490.1187,189.2575 490.2667,189.6875 C490.4137,190.1195 493.4407,189.8585 493.6707,189.8495 C493.9007,189.8415 494.6537,189.7395 494.6537,189.7395 L494.6667,189.8455 L496.2277,189.8045 C496.2277,189.8045 496.2857,188.6995 495.9687,188.3575" id="Fill-776" fill="#292D2C"></path>
                <path d="M501.2704,188.7304 L499.0054,188.5524 C499.0054,188.5524 498.0364,189.3854 497.4494,189.5384 C496.8624,189.6924 495.4204,189.6304 495.5684,190.0614 C495.7154,190.4914 498.7424,190.2314 498.9724,190.2224 C499.2024,190.2144 499.9554,190.1124 499.9554,190.1124 L499.9684,190.2194 L501.5304,190.1774 C501.5304,190.1774 501.5874,189.0724 501.2704,188.7304" id="Fill-777" fill="#292D2C"></path>
                <path d="M495.5361,177.7458 L498.6051,188.8248 L501.5031,189.4068 L502.8291,170.8018 L493.1391,169.8168 L487.6371,172.0338 L493.0721,188.6308 L496.1541,188.7688 L495.5361,177.7458 Z" id="Fill-778" fill="#A83548"></path>
                <path d="M503.5183,171.9371 C503.8533,169.2291 503.9913,163.9421 501.6053,157.2531 C498.0913,147.3991 489.1633,157.0481 489.1633,157.0481 C489.1633,157.0481 486.7333,163.2471 486.6523,167.9281 C486.6163,169.9891 486.8183,171.7631 487.0563,173.1031 L503.5183,171.9371 Z" id="Fill-779" fill="#292D2C"></path>
                <path d="M493.8783,156.9243 L491.7433,167.7633 L493.3033,170.7203 L495.8493,167.5993 L495.6843,156.7603 L493.8783,156.9243 Z" id="Fill-780" fill="#E5B44D"></path>
                <path d="M489.0203,156.9063 L494.9213,157.6443 L501.6173,157.2683 C501.6173,157.2683 502.6923,139.8443 493.8913,140.8293 C485.0903,141.8153 489.0203,156.9063 489.0203,156.9063" id="Fill-781" fill="#F0D4B1"></path>
                <path d="M502.6646,149.0412 C502.6646,150.2202 502.0946,151.1762 501.3916,151.1762 C500.6886,151.1762 500.1196,150.2202 500.1196,149.0412 C500.1196,147.8622 500.6886,146.9062 501.3916,146.9062 C502.0946,146.9062 502.6646,147.8622 502.6646,149.0412" id="Fill-782" fill="#F0D4B1"></path>
                <path d="M497.1924,143.3297 L486.3034,142.9627 C486.3034,142.9627 490.5934,137.7907 499.5174,140.6617" id="Fill-783" fill="#292D2C"></path>
                <path d="M487.8024,148.6996 C487.6814,148.6996 487.5834,148.7976 487.5834,148.9186 L487.5834,150.2046 C487.5834,150.3256 487.6814,150.4236 487.8024,150.4236 L491.7164,150.4236 C491.8374,150.4236 491.9354,150.3256 491.9354,150.2046 L491.9354,148.9186 C491.9354,148.7976 491.8374,148.6996 491.7164,148.6996 L487.8024,148.6996 Z M491.7164,150.9166 L487.8024,150.9166 C487.4094,150.9166 487.0904,150.5976 487.0904,150.2046 L487.0904,148.9186 C487.0904,148.5266 487.4094,148.2066 487.8024,148.2066 L491.7164,148.2066 C492.1084,148.2066 492.4284,148.5266 492.4284,148.9186 L492.4284,150.2046 C492.4284,150.5976 492.1084,150.9166 491.7164,150.9166 L491.7164,150.9166 Z" id="Fill-784" fill="#1D5768"></path>
                <path d="M493.126,148.9868 C493.126,148.9868 489.321,150.3408 490.088,152.2718 C490.486,153.2748 494.264,151.9068 494.264,151.9068" id="Fill-785" fill="#BB817B"></path>
                <path d="M493.9611,149.2744 C493.8401,149.2744 493.7421,149.3724 493.7421,149.4934 L493.7421,150.7794 C493.7421,150.9004 493.8401,150.9984 493.9611,150.9984 L497.8751,150.9984 C497.9961,150.9984 498.0941,150.9004 498.0941,150.7794 L498.0941,149.4934 C498.0941,149.3724 497.9961,149.2744 497.8751,149.2744 L493.9611,149.2744 Z M497.8751,151.4914 L493.9611,151.4914 C493.5681,151.4914 493.2491,151.1724 493.2491,150.7794 L493.2491,149.4934 C493.2491,149.1014 493.5681,148.7814 493.9611,148.7814 L497.8751,148.7814 C498.2671,148.7814 498.5871,149.1014 498.5871,149.4934 L498.5871,150.7794 C498.5871,151.1724 498.2671,151.4914 497.8751,151.4914 L497.8751,151.4914 Z" id="Fill-786" fill="#1D5768"></path>
                <path d="M493.576,149.6285 L492.098,149.2185 L492.23,148.7435 L493.708,149.1535 L493.576,149.6285 Z" id="Fill-787" fill="#1D5768"></path>
                <path d="M493.4,153.3665 C493.4,153.3665 497.056,151.2225 497.22,152.0435 C497.384,152.8645 494.866,154.2885 494.866,154.2885" id="Fill-788" fill="#A83548"></path>
                <path d="M488.9695,156.8808 L491.9895,160.6198 L494.6175,157.5808 L488.9695,156.8808 Z" id="Fill-789" fill="#BB817B"></path>
                <path d="M494.6173,157.5812 L496.5883,160.7012 L501.6793,157.2532 L494.6173,157.5812 Z" id="Fill-790" fill="#BB817B"></path>
                <path d="M490.9004,167.043 L490.8864,167.039 C491.0154,166.994 491.1194,166.898 491.1574,166.767 C491.2224,166.544 491.0684,166.309 490.8134,166.243 L489.6514,165.944 C489.6974,165.898 489.7434,165.835 489.8124,165.773 L490.4834,165.163 C490.6564,165.005 490.6694,164.735 490.5114,164.562 C490.3534,164.388 490.0844,164.375 489.9104,164.533 L489.1114,165.26 L486.8984,166.204 C486.8664,166.207 486.8364,166.213 486.8074,166.221 L486.5384,167.528 L489.2064,168.797 L489.4424,168.843 C489.6684,168.902 489.9044,168.768 489.9694,168.544 C489.9814,168.504 489.9844,168.463 489.9844,168.423 L490.1674,168.471 C490.4224,168.537 490.6814,168.409 490.7464,168.185 C490.7794,168.07 490.7544,167.953 490.6894,167.857 C490.9354,167.909 491.1804,167.784 491.2434,167.567 C491.3084,167.343 491.1544,167.109 490.9004,167.043" id="Fill-791" fill="#F0D4B1"></path>
                <path d="M498.641,163.502 C498.641,163.502 497.626,170.908 497.685,170.908 C498.343,170.908 507.649,172.021 507.649,172.021 L509.034,165.354 L498.641,163.502 Z" id="Fill-792" fill="#FFFFFF"></path>
                <path d="M501.3365,172.3347 C501.1585,172.4847 500.8875,172.4647 500.7325,172.2907 C500.7035,172.2597 500.6845,172.2247 500.6675,172.1877 L500.5225,172.3097 C500.3205,172.4787 500.0315,172.4737 499.8765,172.2997 C499.7975,172.2107 499.7685,172.0937 499.7875,171.9787 C499.5875,172.1317 499.3115,172.1247 499.1615,171.9557 C499.0065,171.7817 499.0455,171.5037 499.2475,171.3347 L499.2585,171.3257 C499.1215,171.3397 498.9865,171.2977 498.8965,171.1957 C498.7415,171.0227 498.7795,170.7447 498.9815,170.5747 L499.9025,169.8057 C499.7415,169.7897 499.6055,169.6927 499.5565,169.5387 C499.4885,169.3137 499.6315,169.0577 499.8755,168.9647 L502.5015,168.8587 C502.5315,168.8467 502.5605,168.8397 502.5905,168.8347 L503.3945,169.9007 L501.5295,172.1917 L501.3365,172.3347 Z" id="Fill-793" fill="#E2CBA8"></path>
                <path d="M501.5153,157.8277 C501.5153,157.8277 510.6643,164.4427 507.1823,167.6087 C505.8683,168.8027 503.0013,170.4157 503.0013,170.4157 L501.3883,168.8627 L503.4193,165.9357 L501.5153,157.8277 Z" id="Fill-794" fill="#292D2C"></path>
                <path d="M493.8529,173.0169 L494.4179,170.5769 L495.1999,172.7569 L493.8529,173.0169 Z" id="Fill-795" fill="#A83548"></path>
                <path d="M492.0265,146.9176 C492.0265,147.3356 491.6875,147.6756 491.2685,147.6756 C490.8505,147.6756 490.5115,147.3356 490.5115,146.9176 L490.5115,146.4826 C490.5115,146.0646 490.8505,145.7256 491.2685,145.7256 C491.6875,145.7256 492.0265,146.0646 492.0265,146.4826 L492.0265,146.9176 Z" id="Fill-796" fill="#292D2C"></path>
                <path d="M497.0319,147.6412 C497.0319,148.0592 496.6919,148.3992 496.2739,148.3992 C495.8559,148.3992 495.5159,148.0592 495.5159,147.6412 L495.5159,147.2062 C495.5159,146.7882 495.8559,146.4492 496.2739,146.4492 C496.6919,146.4492 497.0319,146.7882 497.0319,147.2062 L497.0319,147.6412 Z" id="Fill-797" fill="#292D2C"></path>
                <path d="M501.2234,146.4477 C501.2234,143.7067 500.1874,141.4647 498.8754,141.2797 C498.6254,141.0567 498.4564,140.9487 498.4564,140.9487 L498.1924,141.3747 C497.8784,141.5077 497.5844,141.7587 497.3244,142.1077 L497.5944,142.3387 L496.3444,144.3547 L498.8384,143.5737 L501.0464,148.3557 C501.1604,147.7647 501.2234,147.1217 501.2234,146.4477" id="Fill-798" fill="#292D2C"></path>
                <path d="M491.9313,198.3962 L493.1493,169.2192 L458.1893,169.7022 L460.9743,198.8462 L491.9313,198.3962 Z" id="Fill-799" fill="#1D5768"></path>
            </g>
            <text id="6" sketch:type="MSTextLayer" font-family="Luckiest Guy" font-size="25.9015" font-weight="normal" fill="#FFFFFF">
                <tspan x="467.8418" y="190.0106">6</tspan>
            </text>
            <path d="M543.2599,47.1497 L395.8399,47.3927 L407.7409,130.1527 L536.6719,130.1527 L543.2599,47.1497 Z" id="Fill-802" fill="#FFFFFF" sketch:type="MSShapeGroup"></path>
            <g id="Group-806" transform="translate(453.000000, 65.000000)">
                <mask id="mask-2" sketch:name="Clip 805" fill="white">
                    <use xlink:href="#path-1"></use>
                </mask>
                <g id="Clip-805"></g>
                <path d="M5.4797,25.1644 C4.6387,25.3594 4.3047,24.9104 4.7317,24.1614 L15.1617,5.8924 L35.4077,0.2544 C36.2397,0.0224 36.9137,0.5354 36.9137,1.3984 L36.9137,16.3074 C36.9137,17.1704 36.2327,18.0284 35.3917,18.2234 L5.4797,25.1644 Z" id="Fill-804" fill="#E87E41" sketch:type="MSShapeGroup" mask="url(#mask-2)"></path>
            </g>
            <path d="M458.9579,67.9768 C458.1349,67.7168 457.7169,68.1608 458.0229,68.9668 L464.8289,86.8728 L474.2589,92.3408 L486.8849,90.8028 L487.2439,90.7598 C488.1009,90.6548 488.3959,89.9958 487.9039,89.2868 L477.0729,73.6958 L458.9579,67.9768 Z" id="Fill-807" fill="#DF4C49" sketch:type="MSShapeGroup"></path>
            <g id="Group-812" transform="translate(453.000000, 65.000000)">
                <mask id="mask-4" sketch:name="Clip 810" fill="white">
                    <use xlink:href="#path-3"></use>
                </mask>
                <g id="Clip-810"></g>
                <path d="M10.3178,18.0182 L12.4538,23.5392 L17.7558,26.7902 C18.4918,27.2412 19.7828,27.5242 20.6398,27.4222 C20.6398,27.4222 33.5548,25.8832 34.1808,25.7782 C34.8058,25.6742 35.0138,25.4662 35.1188,25.1532 L14.6418,13.5912 L10.3178,18.0182 Z" id="Fill-809" fill="#8F2034" sketch:type="MSShapeGroup" mask="url(#mask-4)"></path>
                <path d="M36.4729,0.4141 C34.0109,2.4201 4.7949,24.9451 4.5869,24.9451 C4.4299,24.6331 4.7429,24.1121 4.7429,24.1121 L15.1549,5.8921 L35.3789,0.2581 C35.3789,0.2581 36.0039,0.0491 36.4729,0.4141" id="Fill-811" fill="#F0AB2B" sketch:type="MSShapeGroup" mask="url(#mask-4)"></path>
            </g>
            <g id="Group-822" fill="#0C0A09" sketch:type="MSShapeGroup">
                <path d="M456.3661,101.905 C456.3661,103.033 456.2901,103.565 455.8231,103.891 C455.4111,104.184 454.8581,104.216 454.1201,104.216 L453.4151,104.216 C453.1541,104.216 453.0571,104.14 453.0571,103.847 L453.0571,103.109 C453.0571,102.784 453.1541,102.719 453.4361,102.719 L453.9571,102.719 C454.1531,102.719 454.3371,102.719 454.4351,102.621 C454.5431,102.513 454.5431,102.372 454.5431,101.851 L454.5431,97.532 C454.5431,97.229 454.5971,97.196 454.9341,97.196 L455.9971,97.196 C456.3331,97.196 456.3661,97.229 456.3661,97.532 L456.3661,101.905 Z" id="Fill-813"></path>
                <path d="M460.2507,102.0786 C460.1317,102.0566 459.8817,102.0456 459.7297,102.0456 L459.6107,102.0456 C459.1117,102.0456 458.9057,102.1326 458.9057,102.5346 L458.9057,102.5776 C458.9057,102.9796 459.1327,103.0766 459.5127,103.0766 L459.5887,103.0766 C459.8387,103.0766 460.0007,103.0006 460.0987,102.9146 C460.2177,102.8056 460.2507,102.6756 460.2507,102.3826 L460.2507,102.0786 Z M460.6197,103.7716 C460.4027,104.0966 459.8817,104.3136 459.1987,104.3136 L459.0357,104.3136 C457.9507,104.3136 457.2777,103.7386 457.2777,102.6426 L457.2777,102.5236 C457.2777,101.3086 457.9617,100.9176 459.4157,100.9176 L459.4907,100.9176 C459.7737,100.9176 460.0877,100.9396 460.2507,100.9606 L460.2507,100.7336 C460.2507,100.5166 460.2177,100.3646 460.0667,100.2556 C459.9357,100.1686 459.7737,100.1366 459.4157,100.1366 C459.0357,100.1366 458.5797,100.2126 458.1567,100.3206 C457.8857,100.3856 457.8207,100.2996 457.7877,100.1146 L457.7007,99.5396 C457.6897,99.4636 457.6787,99.3656 457.6787,99.3226 C457.6787,99.1816 457.7227,99.1056 457.9397,99.0406 C458.3957,98.9106 459.0567,98.8016 459.7947,98.8016 C460.6627,98.8016 461.2277,98.9756 461.5747,99.3336 C461.8567,99.6266 461.9867,100.0496 461.9867,100.6896 L461.9867,103.9126 C461.9867,104.1296 461.8997,104.2166 461.6177,104.2166 L461.1077,104.2166 C460.8587,104.2166 460.7717,104.1616 460.7067,103.9666 L460.6417,103.7716 L460.6197,103.7716 Z" id="Fill-815"></path>
                <path d="M466.1208,103.9991 C466.0558,104.1401 465.9688,104.2161 465.7408,104.2161 L464.5588,104.2161 C464.3418,104.2161 464.2328,104.1621 464.1568,103.9881 C463.6688,102.8601 462.8878,100.7221 462.5298,99.2141 C462.4748,98.9861 462.5838,98.8991 462.8328,98.8991 L463.8418,98.8991 C464.0808,98.8991 464.1568,98.9321 464.2108,99.1491 C464.5038,100.2671 464.9268,101.7101 465.1438,102.3501 L465.1878,102.3501 C465.4048,101.6881 465.7948,100.2771 466.0448,99.1921 C466.0988,98.9541 466.1638,98.8991 466.4028,98.8991 L467.4338,98.8991 C467.6828,98.8991 467.7808,98.9861 467.7158,99.2141 C467.3248,100.6571 466.6088,102.8601 466.1208,103.9991" id="Fill-816"></path>
                <path d="M471.0794,102.0786 C470.9604,102.0566 470.7104,102.0456 470.5584,102.0456 L470.4394,102.0456 C469.9404,102.0456 469.7344,102.1326 469.7344,102.5346 L469.7344,102.5776 C469.7344,102.9796 469.9614,103.0766 470.3414,103.0766 L470.4174,103.0766 C470.6674,103.0766 470.8294,103.0006 470.9274,102.9146 C471.0464,102.8056 471.0794,102.6756 471.0794,102.3826 L471.0794,102.0786 Z M471.4484,103.7716 C471.2314,104.0966 470.7104,104.3136 470.0274,104.3136 L469.8644,104.3136 C468.7794,104.3136 468.1064,103.7386 468.1064,102.6426 L468.1064,102.5236 C468.1064,101.3086 468.7904,100.9176 470.2444,100.9176 L470.3204,100.9176 C470.6024,100.9176 470.9164,100.9396 471.0794,100.9606 L471.0794,100.7336 C471.0794,100.5166 471.0464,100.3646 470.8954,100.2556 C470.7644,100.1686 470.6024,100.1366 470.2444,100.1366 C469.8644,100.1366 469.4084,100.2126 468.9854,100.3206 C468.7144,100.3856 468.6494,100.2996 468.6164,100.1146 L468.5294,99.5396 C468.5184,99.4636 468.5084,99.3656 468.5084,99.3226 C468.5084,99.1816 468.5514,99.1056 468.7684,99.0406 C469.2244,98.9106 469.8854,98.8016 470.6234,98.8016 C471.4914,98.8016 472.0564,98.9756 472.4034,99.3336 C472.6854,99.6266 472.8154,100.0496 472.8154,100.6896 L472.8154,103.9126 C472.8154,104.1296 472.7284,104.2166 472.4464,104.2166 L471.9364,104.2166 C471.6874,104.2166 471.6004,104.1616 471.5354,103.9666 L471.4704,103.7716 L471.4484,103.7716 Z" id="Fill-817"></path>
                <path d="M478.2734,102.7405 C478.5664,102.7405 478.6534,102.8165 478.6534,103.0875 L478.6534,103.8685 C478.6534,104.1615 478.5664,104.2165 478.2734,104.2165 L473.9654,104.2165 C473.6294,104.2165 473.5534,104.1295 473.5534,103.8475 L473.5534,103.5215 C473.5534,103.2835 473.5864,103.1855 473.7274,102.9575 L476.3094,98.6715 L474.0634,98.6715 C473.7704,98.6715 473.6834,98.5955 473.6834,98.3355 L473.6834,97.5435 C473.6834,97.2615 473.7704,97.1965 474.0634,97.1965 L478.2734,97.1965 C478.5334,97.1965 478.6204,97.2505 478.6204,97.5105 L478.6204,97.8795 C478.6204,98.1075 478.5774,98.2375 478.4034,98.5195 L475.7564,102.7405 L478.2734,102.7405 Z" id="Fill-818"></path>
                <path d="M481.0836,101.981 C481.0836,102.458 481.1166,102.643 481.2786,102.806 C481.3766,102.903 481.5176,102.958 481.7346,102.958 L481.7776,102.958 C481.9946,102.958 482.1366,102.903 482.2336,102.806 C482.3966,102.643 482.4286,102.458 482.4286,101.981 L482.4286,101.135 C482.4286,100.657 482.3966,100.473 482.2336,100.31 C482.1366,100.212 481.9946,100.158 481.7776,100.158 L481.7346,100.158 C481.5176,100.158 481.3766,100.212 481.2786,100.31 C481.1166,100.473 481.0836,100.657 481.0836,101.135 L481.0836,101.981 Z M484.1756,101.905 C484.1756,103.012 483.9486,103.533 483.4926,103.891 C483.1776,104.14 482.5916,104.314 481.8216,104.314 L481.6916,104.314 C480.9206,104.314 480.3346,104.14 480.0206,103.891 C479.5646,103.533 479.3366,103.012 479.3366,101.905 L479.3366,101.211 C479.3366,100.104 479.5646,99.583 480.0206,99.225 C480.3346,98.975 480.9206,98.802 481.6916,98.802 L481.8216,98.802 C482.5916,98.802 483.1776,98.975 483.4926,99.225 C483.9486,99.583 484.1756,100.093 484.1756,101.2 L484.1756,101.905 Z" id="Fill-819"></path>
                <path d="M488.0388,98.8018 C488.6788,98.8018 489.1348,98.9538 489.4168,99.2468 C489.7098,99.5508 489.8178,99.9518 489.8178,100.6788 L489.8178,103.9018 C489.8178,104.1078 489.7418,104.2158 489.4498,104.2158 L488.4508,104.2158 C488.1578,104.2158 488.0818,104.1078 488.0818,103.9018 L488.0818,100.8308 C488.0818,100.5818 488.0498,100.4298 487.9628,100.3318 C487.8758,100.2338 487.7028,100.1908 487.4858,100.1908 L487.4208,100.1908 C487.2038,100.1908 487.0298,100.2338 486.9428,100.3318 C486.8558,100.4298 486.8238,100.5708 486.8238,100.8308 L486.8238,103.9018 C486.8238,104.1078 486.7478,104.2158 486.4548,104.2158 L485.4568,104.2158 C485.1638,104.2158 485.0878,104.1078 485.0878,103.9018 L485.0878,99.2038 C485.0878,98.9868 485.1748,98.8998 485.4568,98.8998 L485.9668,98.8998 C486.2158,98.8998 486.3028,98.9428 486.3678,99.1488 L486.4328,99.3548 L486.4658,99.3548 C486.8128,98.9868 487.3118,98.8018 487.9518,98.8018 L488.0388,98.8018 Z" id="Fill-820"></path>
                <path d="M493.5942,101.0261 C493.6922,101.0261 493.7242,100.9831 493.7242,100.8851 L493.7242,100.7111 C493.7242,100.4941 493.6922,100.3321 493.6162,100.2121 C493.5182,100.0711 493.3552,100.0171 493.1172,100.0171 L493.0192,100.0171 C492.8242,100.0171 492.6612,100.0601 492.5632,100.1691 C492.4552,100.2881 492.4002,100.4731 492.4002,100.7551 L492.4002,101.0261 L493.5942,101.0261 Z M493.5292,102.9141 C493.8762,102.9141 494.4082,102.8381 494.6792,102.7731 C494.7332,102.7621 494.8092,102.7401 494.8852,102.7401 C494.9832,102.7401 495.0592,102.8161 495.0802,102.9251 L495.1672,103.4671 C495.1892,103.5761 495.2112,103.6841 495.2112,103.7601 C495.2112,103.9011 495.1562,103.9771 494.9292,104.0531 C494.4952,104.2051 493.8222,104.3141 493.2902,104.3141 L493.0842,104.3141 C492.2272,104.3141 491.5652,104.1291 491.1962,103.7601 C490.7622,103.3261 490.6542,102.7731 490.6542,101.8941 L490.6542,101.2861 C490.6542,100.2011 490.9362,99.6151 491.3052,99.2901 C491.6632,98.9751 492.2272,98.8021 493.0082,98.8021 L493.1602,98.8021 C493.9412,98.8021 494.5052,99.0191 494.7982,99.3441 C495.1782,99.7671 495.3192,100.3531 495.3192,101.2861 L495.3192,101.8511 C495.3192,102.0791 495.2222,102.1541 495.0052,102.1541 L492.4002,102.1541 L492.4002,102.2411 C492.4002,102.7511 492.6502,102.9141 493.4102,102.9141 L493.5292,102.9141 Z" id="Fill-821"></path>
            </g>
            <g id="Group-832">
                <path d="M737.3822,145.7381 L687.4002,138.5621 L683.8042,234.0371 L712.6392,242.7131 L737.3822,145.7381 Z" id="Fill-823" fill="#FFFFFF" sketch:type="MSShapeGroup"></path>
                <path d="M680.7947,117.9369 L683.1097,145.4709 L740.3547,148.5869 L744.6977,116.5099 L680.7947,117.9369 Z" id="Fill-825" fill="#FFFFFF" sketch:type="MSShapeGroup"></path>
                <path d="M680.7947,117.9369 L683.1097,145.4709 L740.3547,148.5869 L744.6977,116.5099 L680.7947,117.9369 L680.7947,117.9369 Z" id="Stroke-826" stroke="#E5B44D" sketch:type="MSShapeGroup"></path>
                <path d="M705.0558,213.4901 L708.5888,201.6491 L708.2098,201.1751 L695.9568,201.1461 L697.8928,205.2031 L692.1768,208.6861 L696.7648,214.4271 L701.3088,210.3521 L705.0558,213.4901 Z" id="Fill-827" fill="#F0AB2B" sketch:type="MSShapeGroup"></path>
                <path d="M293.6773,145.7381 L343.6593,138.5621 L347.2553,234.0371 L318.4203,242.7131 L293.6773,145.7381 Z" id="Fill-828" fill="#FFFFFF" sketch:type="MSShapeGroup"></path>
                <path d="M350.2648,117.9369 L347.9498,145.4709 L290.7048,148.5869 L286.3618,116.5099 L350.2648,117.9369 Z" id="Fill-829" fill="#FFFFFF" sketch:type="MSShapeGroup"></path>
                <path d="M350.2648,117.9369 L347.9498,145.4709 L290.7048,148.5869 L286.3618,116.5099 L350.2648,117.9369 L350.2648,117.9369 Z" id="Stroke-830" stroke="#E5B44D" sketch:type="MSShapeGroup"></path>
                <text id="EXIT" sketch:type="MSTextLayer" font-family="Luckiest Guy" font-size="22.8757" font-weight="normal" fill="#292D2C">
                    <tspan x="296.4932" y="138.388">EXIT</tspan>
                </text>
                <text id="EXIT" sketch:type="MSTextLayer" font-family="Luckiest Guy" font-size="22.8757" font-weight="normal" fill="#292D2C">
                    <tspan x="690.1611" y="138.388">EXIT</tspan>
                </text>
                <path d="M327.7493,214.4232 L322.9253,203.0472 L323.2483,202.5342 L335.4233,201.1462 L333.9483,205.3922 L340.0163,208.2202 L336.0933,214.4352 L331.1253,210.8892 L327.7493,214.4232 Z" id="Fill-831" fill="#F0AB2B" sketch:type="MSShapeGroup"></path>
            </g>
            <g id="Group-898" fill="#292D2C" sketch:type="MSShapeGroup">
                <path d="M713.2263,413.5351 L763.7833,413.5351 C768.9473,413.5351 773.1323,409.3491 773.1323,404.1861 L773.1323,404.1861 C773.1323,399.0221 768.9473,394.8361 763.7833,394.8361 L713.2263,394.8361 C708.0633,394.8361 703.8773,399.0221 703.8773,404.1861 L703.8773,404.1861 C703.8773,409.3491 708.0633,413.5351 713.2263,413.5351" id="Fill-833"></path>
                <path d="M629.4584,413.5351 L680.0154,413.5351 C685.1784,413.5351 689.3644,409.3491 689.3644,404.1861 L689.3644,404.1861 C689.3644,399.0221 685.1784,394.8361 680.0154,394.8361 L629.4584,394.8361 C624.2944,394.8361 620.1094,399.0221 620.1094,404.1861 L620.1094,404.1861 C620.1094,409.3491 624.2944,413.5351 629.4584,413.5351" id="Fill-835"></path>
                <path d="M545.6906,413.5351 L596.2476,413.5351 C601.4116,413.5351 605.5966,409.3491 605.5966,404.1861 L605.5966,404.1861 C605.5966,399.0221 601.4116,394.8361 596.2476,394.8361 L545.6906,394.8361 C540.5276,394.8361 536.3416,399.0221 536.3416,404.1861 L536.3416,404.1861 C536.3416,409.3491 540.5276,413.5351 545.6906,413.5351" id="Fill-836"></path>
                <path d="M460.8186,413.5351 L511.3756,413.5351 C516.5386,413.5351 520.7246,409.3491 520.7246,404.1861 L520.7246,404.1861 C520.7246,399.0221 516.5386,394.8361 511.3756,394.8361 L460.8186,394.8361 C455.6556,394.8361 451.4696,399.0221 451.4696,404.1861 L451.4696,404.1861 C451.4696,409.3491 455.6556,413.5351 460.8186,413.5351" id="Fill-837"></path>
                <path d="M346.9926,413.5351 L397.5496,413.5351 C402.7126,413.5351 406.8986,409.3491 406.8986,404.1861 L406.8986,404.1861 C406.8986,399.0221 402.7126,394.8361 397.5496,394.8361 L346.9926,394.8361 C341.8296,394.8361 337.6436,399.0221 337.6436,404.1861 L337.6436,404.1861 C337.6436,409.3491 341.8296,413.5351 346.9926,413.5351" id="Fill-838"></path>
                <path d="M263.2248,413.5351 L313.7818,413.5351 C318.9448,413.5351 323.1308,409.3491 323.1308,404.1861 L323.1308,404.1861 C323.1308,399.0221 318.9448,394.8361 313.7818,394.8361 L263.2248,394.8361 C258.0618,394.8361 253.8758,399.0221 253.8758,404.1861 L253.8758,404.1861 C253.8758,409.3491 258.0618,413.5351 263.2248,413.5351" id="Fill-839"></path>
                <path d="M696.0483,381.2583 L741.8893,381.2583 C746.5713,381.2583 750.3663,377.4633 750.3663,372.7813 L750.3663,372.7813 C750.3663,368.0993 746.5713,364.3043 741.8893,364.3043 L696.0483,364.3043 C691.3663,364.3043 687.5713,368.0993 687.5713,372.7813 L687.5713,372.7813 C687.5713,377.4633 691.3663,381.2583 696.0483,381.2583" id="Fill-840"></path>
                <path d="M620.0949,381.2583 L665.9359,381.2583 C670.6169,381.2583 674.4129,377.4633 674.4129,372.7813 L674.4129,372.7813 C674.4129,368.0993 670.6169,364.3043 665.9359,364.3043 L620.0949,364.3043 C615.4129,364.3043 611.6179,368.0993 611.6179,372.7813 L611.6179,372.7813 C611.6179,377.4633 615.4129,381.2583 620.0949,381.2583" id="Fill-841"></path>
                <path d="M544.1415,381.2583 L589.9825,381.2583 C594.6645,381.2583 598.4595,377.4633 598.4595,372.7813 L598.4595,372.7813 C598.4595,368.0993 594.6645,364.3043 589.9825,364.3043 L544.1415,364.3043 C539.4595,364.3043 535.6645,368.0993 535.6645,372.7813 L535.6645,372.7813 C535.6645,377.4633 539.4595,381.2583 544.1415,381.2583" id="Fill-842"></path>
                <path d="M467.084,381.2583 L512.925,381.2583 C517.606,381.2583 521.402,377.4633 521.402,372.7813 L521.402,372.7813 C521.402,368.0993 517.606,364.3043 512.925,364.3043 L467.084,364.3043 C462.402,364.3043 458.607,368.0993 458.607,372.7813 L458.607,372.7813 C458.607,377.4633 462.402,381.2583 467.084,381.2583" id="Fill-843"></path>
                <path d="M361.9846,381.2583 L407.8256,381.2583 C412.5066,381.2583 416.3026,377.4633 416.3026,372.7813 L416.3026,372.7813 C416.3026,368.0993 412.5066,364.3043 407.8256,364.3043 L361.9846,364.3043 C357.3026,364.3043 353.5076,368.0993 353.5076,372.7813 L353.5076,372.7813 C353.5076,377.4633 357.3026,381.2583 361.9846,381.2583" id="Fill-844"></path>
                <path d="M286.0312,381.2583 L331.8722,381.2583 C336.5532,381.2583 340.3492,377.4633 340.3492,372.7813 L340.3492,372.7813 C340.3492,368.0993 336.5532,364.3043 331.8722,364.3043 L286.0312,364.3043 C281.3492,364.3043 277.5542,368.0993 277.5542,372.7813 L277.5542,372.7813 C277.5542,377.4633 281.3492,381.2583 286.0312,381.2583" id="Fill-845"></path>
                <path d="M679.6769,351.1233 L721.0229,351.1233 C725.2459,351.1233 728.6689,347.7003 728.6689,343.4773 L728.6689,343.4773 C728.6689,339.2543 725.2459,335.8313 721.0229,335.8313 L679.6769,335.8313 C675.4539,335.8313 672.0309,339.2543 672.0309,343.4773 L672.0309,343.4773 C672.0309,347.7003 675.4539,351.1233 679.6769,351.1233" id="Fill-846"></path>
                <path d="M611.171,351.1233 L652.517,351.1233 C656.74,351.1233 660.163,347.7003 660.163,343.4773 L660.163,343.4773 C660.163,339.2543 656.74,335.8313 652.517,335.8313 L611.171,335.8313 C606.948,335.8313 603.525,339.2543 603.525,343.4773 L603.525,343.4773 C603.525,347.7003 606.948,351.1233 611.171,351.1233" id="Fill-847"></path>
                <path d="M542.6652,351.1233 L584.0112,351.1233 C588.2342,351.1233 591.6572,347.7003 591.6572,343.4773 L591.6572,343.4773 C591.6572,339.2543 588.2342,335.8313 584.0112,335.8313 L542.6652,335.8313 C538.4422,335.8313 535.0192,339.2543 535.0192,343.4773 L535.0192,343.4773 C535.0192,347.7003 538.4422,351.1233 542.6652,351.1233" id="Fill-848"></path>
                <path d="M473.0552,351.1233 L514.4012,351.1233 C518.6242,351.1233 522.0472,347.7003 522.0472,343.4773 L522.0472,343.4773 C522.0472,339.2543 518.6242,335.8313 514.4012,335.8313 L473.0552,335.8313 C468.8322,335.8313 465.4092,339.2543 465.4092,343.4773 L465.4092,343.4773 C465.4092,347.7003 468.8322,351.1233 473.0552,351.1233" id="Fill-849"></path>
                <path d="M376.3154,351.1233 L417.6614,351.1233 C421.8844,351.1233 425.3074,347.7003 425.3074,343.4773 L425.3074,343.4773 C425.3074,339.2543 421.8844,335.8313 417.6614,335.8313 L376.3154,335.8313 C372.0924,335.8313 368.6694,339.2543 368.6694,343.4773 L368.6694,343.4773 C368.6694,347.7003 372.0924,351.1233 376.3154,351.1233" id="Fill-850"></path>
                <path d="M307.8095,351.1233 L349.1555,351.1233 C353.3785,351.1233 356.8015,347.7003 356.8015,343.4773 L356.8015,343.4773 C356.8015,339.2543 353.3785,335.8313 349.1555,335.8313 L307.8095,335.8313 C303.5865,335.8313 300.1635,339.2543 300.1635,343.4773 L300.1635,343.4773 C300.1635,347.7003 303.5865,351.1233 307.8095,351.1233" id="Fill-851"></path>
                <path d="M655.3542,299.416 L690.0222,299.416 C693.5632,299.416 696.4332,296.546 696.4332,293.005 L696.4332,293.005 C696.4332,289.464 693.5632,286.594 690.0222,286.594 L655.3542,286.594 C651.8132,286.594 648.9432,289.464 648.9432,293.005 L648.9432,293.005 C648.9432,296.546 651.8132,299.416 655.3542,299.416" id="Fill-852"></path>
                <path d="M597.913,299.416 L632.581,299.416 C636.122,299.416 638.992,296.546 638.992,293.005 L638.992,293.005 C638.992,289.464 636.122,286.594 632.581,286.594 L597.913,286.594 C594.372,286.594 591.502,289.464 591.502,293.005 L591.502,293.005 C591.502,296.546 594.372,299.416 597.913,299.416" id="Fill-853"></path>
                <path d="M540.4718,299.416 L575.1398,299.416 C578.6808,299.416 581.5508,296.546 581.5508,293.005 L581.5508,293.005 C581.5508,289.464 578.6808,286.594 575.1398,286.594 L540.4718,286.594 C536.9308,286.594 534.0608,289.464 534.0608,293.005 L534.0608,293.005 C534.0608,296.546 536.9308,299.416 540.4718,299.416" id="Fill-854"></path>
                <path d="M481.9265,299.416 L516.5945,299.416 C520.1355,299.416 523.0055,296.546 523.0055,293.005 L523.0055,293.005 C523.0055,289.464 520.1355,286.594 516.5945,286.594 L481.9265,286.594 C478.3855,286.594 475.5155,289.464 475.5155,293.005 L475.5155,293.005 C475.5155,296.546 478.3855,299.416 481.9265,299.416" id="Fill-855"></path>
                <path d="M398.0755,299.416 L432.7435,299.416 C436.2845,299.416 439.1545,296.546 439.1545,293.005 L439.1545,293.005 C439.1545,289.464 436.2845,286.594 432.7435,286.594 L398.0755,286.594 C394.5345,286.594 391.6645,289.464 391.6645,293.005 L391.6645,293.005 C391.6645,296.546 394.5345,299.416 398.0755,299.416" id="Fill-856"></path>
                <path d="M340.6343,299.416 L375.3023,299.416 C378.8433,299.416 381.7133,296.546 381.7133,293.005 L381.7133,293.005 C381.7133,289.464 378.8433,286.594 375.3023,286.594 L340.6343,286.594 C337.0933,286.594 334.2233,289.464 334.2233,293.005 L334.2233,293.005 C334.2233,296.546 337.0933,299.416 340.6343,299.416" id="Fill-857"></path>
                <path d="M664.8303,323.7953 L702.1003,323.7953 C705.9063,323.7953 708.9923,320.7093 708.9923,316.9033 L708.9923,316.9033 C708.9923,313.0963 705.9063,310.0113 702.1003,310.0113 L664.8303,310.0113 C661.0243,310.0113 657.9383,313.0963 657.9383,316.9033 L657.9383,316.9033 C657.9383,320.7093 661.0243,323.7953 664.8303,323.7953" id="Fill-858"></path>
                <path d="M603.0783,323.7953 L640.3483,323.7953 C644.1543,323.7953 647.2403,320.7093 647.2403,316.9033 L647.2403,316.9033 C647.2403,313.0963 644.1543,310.0113 640.3483,310.0113 L603.0783,310.0113 C599.2723,310.0113 596.1863,313.0963 596.1863,316.9033 L596.1863,316.9033 C596.1863,320.7093 599.2723,323.7953 603.0783,323.7953" id="Fill-859"></path>
                <path d="M541.3264,323.7953 L578.5964,323.7953 C582.4024,323.7953 585.4884,320.7093 585.4884,316.9033 L585.4884,316.9033 C585.4884,313.0963 582.4024,310.0113 578.5964,310.0113 L541.3264,310.0113 C537.5204,310.0113 534.4344,313.0963 534.4344,316.9033 L534.4344,316.9033 C534.4344,320.7093 537.5204,323.7953 541.3264,323.7953" id="Fill-860"></path>
                <path d="M478.4703,323.7953 L515.7403,323.7953 C519.5463,323.7953 522.6323,320.7093 522.6323,316.9033 L522.6323,316.9033 C522.6323,313.0963 519.5463,310.0113 515.7403,310.0113 L478.4703,310.0113 C474.6643,310.0113 471.5783,313.0963 471.5783,316.9033 L471.5783,316.9033 C471.5783,320.7093 474.6643,323.7953 478.4703,323.7953" id="Fill-861"></path>
                <path d="M389.3964,323.7953 L426.6664,323.7953 C430.4724,323.7953 433.5584,320.7093 433.5584,316.9033 L433.5584,316.9033 C433.5584,313.0963 430.4724,310.0113 426.6664,310.0113 L389.3964,310.0113 C385.5904,310.0113 382.5044,313.0963 382.5044,316.9033 L382.5044,316.9033 C382.5044,320.7093 385.5904,323.7953 389.3964,323.7953" id="Fill-862"></path>
                <path d="M327.6443,323.7953 L364.9143,323.7953 C368.7203,323.7953 371.8063,320.7093 371.8063,316.9033 L371.8063,316.9033 C371.8063,313.0963 368.7203,310.0113 364.9143,310.0113 L327.6443,310.0113 C323.8383,310.0113 320.7523,313.0963 320.7523,316.9033 L320.7523,316.9033 C320.7523,320.7093 323.8383,323.7953 327.6443,323.7953" id="Fill-863"></path>
                <path d="M632.3914,259.905 L660.7544,259.905 C663.6514,259.905 665.9994,257.557 665.9994,254.66 L665.9994,254.66 C665.9994,251.763 663.6514,249.415 660.7544,249.415 L632.3914,249.415 C629.4944,249.415 627.1464,251.763 627.1464,254.66 L627.1464,254.66 C627.1464,257.557 629.4944,259.905 632.3914,259.905" id="Fill-864"></path>
                <path d="M585.3962,259.905 L613.7592,259.905 C616.6562,259.905 619.0042,257.557 619.0042,254.66 L619.0042,254.66 C619.0042,251.763 616.6562,249.415 613.7592,249.415 L585.3962,249.415 C582.4992,249.415 580.1512,251.763 580.1512,254.66 L580.1512,254.66 C580.1512,257.557 582.4992,259.905 585.3962,259.905" id="Fill-865"></path>
                <path d="M418.7209,259.905 L447.0839,259.905 C449.9809,259.905 452.3289,257.557 452.3289,254.66 L452.3289,254.66 C452.3289,251.763 449.9809,249.415 447.0839,249.415 L418.7209,249.415 C415.8239,249.415 413.4759,251.763 413.4759,254.66 L413.4759,254.66 C413.4759,257.557 415.8239,259.905 418.7209,259.905" id="Fill-866"></path>
                <path d="M371.7258,259.905 L400.0888,259.905 C402.9858,259.905 405.3338,257.557 405.3338,254.66 L405.3338,254.66 C405.3338,251.763 402.9858,249.415 400.0888,249.415 L371.7258,249.415 C368.8288,249.415 366.4808,251.763 366.4808,254.66 L366.4808,254.66 C366.4808,257.557 368.8288,259.905 371.7258,259.905" id="Fill-867"></path>
                <path d="M643.9865,278.07 L675.5335,278.07 C678.7555,278.07 681.3675,275.458 681.3675,272.236 L681.3675,272.236 C681.3675,269.014 678.7555,266.402 675.5335,266.402 L643.9865,266.402 C640.7645,266.402 638.1525,269.014 638.1525,272.236 L638.1525,272.236 C638.1525,275.458 640.7645,278.07 643.9865,278.07" id="Fill-868"></path>
                <path d="M591.7166,278.07 L623.2636,278.07 C626.4856,278.07 629.0976,275.458 629.0976,272.236 L629.0976,272.236 C629.0976,269.014 626.4856,266.402 623.2636,266.402 L591.7166,266.402 C588.4946,266.402 585.8826,269.014 585.8826,272.236 L585.8826,272.236 C585.8826,275.458 588.4946,278.07 591.7166,278.07" id="Fill-869"></path>
                <path d="M539.4467,278.07 L570.9937,278.07 C574.2157,278.07 576.8277,275.458 576.8277,272.236 L576.8277,272.236 C576.8277,269.014 574.2157,266.402 570.9937,266.402 L539.4467,266.402 C536.2247,266.402 533.6127,269.014 533.6127,272.236 L533.6127,272.236 C533.6127,275.458 536.2247,278.07 539.4467,278.07" id="Fill-870"></path>
                <path d="M538.8569,259.9054 L567.2249,259.9054 C570.1209,259.9054 572.4689,257.5574 572.4689,254.6614 L572.4689,254.6584 C572.4689,251.7624 570.1209,249.4144 567.2249,249.4144 L538.8569,249.4144 C535.9609,249.4144 533.6129,251.7624 533.6129,254.6584 L533.6129,254.6614 C533.6129,257.5574 535.9609,259.9054 538.8569,259.9054" id="Fill-871"></path>
                <path d="M538.7379,243.8232 L564.0929,243.8232 C566.6759,243.8232 568.7699,241.7292 568.7699,239.1462 L568.7699,239.1292 C568.7699,236.5462 566.6759,234.4522 564.0929,234.4522 L538.7379,234.4522 C536.1549,234.4522 534.0609,236.5462 534.0609,239.1292 L534.0609,239.1462 C534.0609,241.7292 536.1549,243.8232 538.7379,243.8232" id="Fill-872"></path>
                <path d="M490.427,259.9054 L518.795,259.9054 C521.691,259.9054 524.039,257.5574 524.039,254.6614 L524.039,254.6584 C524.039,251.7624 521.691,249.4144 518.795,249.4144 L490.427,249.4144 C487.531,249.4144 485.183,251.7624 485.183,254.6584 L485.183,254.6614 C485.183,257.5574 487.531,259.9054 490.427,259.9054" id="Fill-873"></path>
                <path d="M494.1513,243.8232 L519.5063,243.8232 C522.0893,243.8232 524.1833,241.7292 524.1833,239.1462 L524.1833,239.1292 C524.1833,236.5462 522.0893,234.4522 519.5063,234.4522 L494.1513,234.4522 C491.5683,234.4522 489.4743,236.5462 489.4743,239.1292 L489.4743,239.1462 C489.4743,241.7292 491.5683,243.8232 494.1513,243.8232" id="Fill-874"></path>
                <path d="M486.257,278.07 L517.804,278.07 C521.026,278.07 523.638,275.458 523.638,272.236 L523.638,272.236 C523.638,269.014 521.026,266.402 517.804,266.402 L486.257,266.402 C483.035,266.402 480.423,269.014 480.423,272.236 L480.423,272.236 C480.423,275.458 483.035,278.07 486.257,278.07" id="Fill-875"></path>
                <path d="M409.217,278.07 L440.764,278.07 C443.986,278.07 446.598,275.458 446.598,272.236 L446.598,272.236 C446.598,269.014 443.986,266.402 440.764,266.402 L409.217,266.402 C405.995,266.402 403.383,269.014 403.383,272.236 L403.383,272.236 C403.383,275.458 405.995,278.07 409.217,278.07" id="Fill-876"></path>
                <path d="M356.9471,278.07 L388.4941,278.07 C391.7161,278.07 394.3281,275.458 394.3281,272.236 L394.3281,272.236 C394.3281,269.014 391.7161,266.402 388.4941,266.402 L356.9471,266.402 C353.7251,266.402 351.1131,269.014 351.1131,272.236 L351.1131,272.236 C351.1131,275.458 353.7251,278.07 356.9471,278.07" id="Fill-877"></path>
                <path d="M621.3673,243.823 L646.7043,243.823 C649.2913,243.823 651.3893,241.725 651.3893,239.138 L651.3893,239.138 C651.3893,236.55 649.2913,234.452 646.7043,234.452 L621.3673,234.452 C618.7793,234.452 616.6823,236.55 616.6823,239.138 L616.6823,239.138 C616.6823,241.725 618.7793,243.823 621.3673,243.823" id="Fill-878"></path>
                <path d="M796.8942,413.5351 L847.4512,413.5351 C852.6152,413.5351 856.8002,409.3491 856.8002,404.1861 L856.8002,404.1861 C856.8002,399.0221 852.6152,394.8361 847.4512,394.8361 L796.8942,394.8361 C791.7312,394.8361 787.5452,399.0221 787.5452,404.1861 L787.5452,404.1861 C787.5452,409.3491 791.7312,413.5351 796.8942,413.5351" id="Fill-879"></path>
                <path d="M769.662,381.2583 L815.503,381.2583 C820.185,381.2583 823.98,377.4633 823.98,372.7813 L823.98,372.7813 C823.98,368.0993 820.185,364.3043 815.503,364.3043 L769.662,364.3043 C764.98,364.3043 761.185,368.0993 761.185,372.7813 L761.185,372.7813 C761.185,377.4633 764.98,381.2583 769.662,381.2583" id="Fill-880"></path>
                <path d="M746.1507,351.1233 L787.4967,351.1233 C791.7197,351.1233 795.1427,347.7003 795.1427,343.4773 L795.1427,343.4773 C795.1427,339.2543 791.7197,335.8313 787.4967,335.8313 L746.1507,335.8313 C741.9277,335.8313 738.5047,339.2543 738.5047,343.4773 L738.5047,343.4773 C738.5047,347.7003 741.9277,351.1233 746.1507,351.1233" id="Fill-881"></path>
                <path d="M711.3347,299.416 L746.0027,299.416 C749.5437,299.416 752.4137,296.546 752.4137,293.005 L752.4137,293.005 C752.4137,289.464 749.5437,286.594 746.0027,286.594 L711.3347,286.594 C707.7937,286.594 704.9237,289.464 704.9237,293.005 L704.9237,293.005 C704.9237,296.546 707.7937,299.416 711.3347,299.416" id="Fill-882"></path>
                <path d="M725.5049,323.7953 L762.7749,323.7953 C766.5809,323.7953 769.6669,320.7093 769.6669,316.9033 L769.6669,316.9033 C769.6669,313.0963 766.5809,310.0113 762.7749,310.0113 L725.5049,310.0113 C721.6989,310.0113 718.6129,313.0963 718.6129,316.9033 L718.6129,316.9033 C718.6129,320.7093 721.6989,323.7953 725.5049,323.7953" id="Fill-883"></path>
                <path d="M677.5848,259.905 L705.9478,259.905 C708.8448,259.905 711.1928,257.557 711.1928,254.66 L711.1928,254.66 C711.1928,251.763 708.8448,249.415 705.9478,249.415 L677.5848,249.415 C674.6878,249.415 672.3398,251.763 672.3398,254.66 L672.3398,254.66 C672.3398,257.557 674.6878,259.905 677.5848,259.905" id="Fill-884"></path>
                <path d="M695.9394,278.07 L727.4864,278.07 C730.7084,278.07 733.3204,275.458 733.3204,272.236 L733.3204,272.236 C733.3204,269.014 730.7084,266.402 727.4864,266.402 L695.9394,266.402 C692.7174,266.402 690.1054,269.014 690.1054,272.236 L690.1054,272.236 C690.1054,275.458 692.7174,278.07 695.9394,278.07" id="Fill-885"></path>
                <path d="M661.7444,243.823 L687.0814,243.823 C689.6684,243.823 691.7664,241.725 691.7664,239.138 L691.7664,239.138 C691.7664,236.55 689.6684,234.452 687.0814,234.452 L661.7444,234.452 C659.1564,234.452 657.0594,236.55 657.0594,239.138 L657.0594,239.138 C657.0594,241.725 659.1564,243.823 661.7444,243.823" id="Fill-886"></path>
                <path d="M579.3871,243.823 L604.7241,243.823 C607.3111,243.823 609.4091,241.725 609.4091,239.138 L609.4091,239.138 C609.4091,236.55 607.3111,234.452 604.7241,234.452 L579.3871,234.452 C576.7991,234.452 574.7021,236.55 574.7021,239.138 L574.7021,239.138 C574.7021,241.725 576.7991,243.823 579.3871,243.823" id="Fill-887"></path>
                <path d="M428.6689,243.823 L454.0059,243.823 C456.5929,243.823 458.6909,241.725 458.6909,239.138 L458.6909,239.138 C458.6909,236.55 456.5929,234.452 454.0059,234.452 L428.6689,234.452 C426.0809,234.452 423.9839,236.55 423.9839,239.138 L423.9839,239.138 C423.9839,241.725 426.0809,243.823 428.6689,243.823" id="Fill-888"></path>
                <path d="M386.6887,243.823 L412.0257,243.823 C414.6127,243.823 416.7107,241.725 416.7107,239.138 L416.7107,239.138 C416.7107,236.55 414.6127,234.452 412.0257,234.452 L386.6887,234.452 C384.1007,234.452 382.0037,236.55 382.0037,239.138 L382.0037,239.138 C382.0037,241.725 384.1007,243.823 386.6887,243.823" id="Fill-889"></path>
                <path d="M175.9966,413.5351 L225.5536,413.5351 C230.7176,413.5351 234.9026,409.3491 234.9026,404.1861 L234.9026,404.1861 C234.9026,399.0221 230.7176,394.8361 225.5536,394.8361 L173.9966,394.8361 C169.3856,394.8361 165.6476,398.5741 165.6476,403.1861 L165.6476,403.1861 C165.6476,408.8781 170.3046,413.5351 175.9966,413.5351" id="Fill-890"></path>
                <path d="M208.9453,381.2583 L254.7863,381.2583 C259.4673,381.2583 263.2633,377.4633 263.2633,372.7813 L263.2633,372.7813 C263.2633,368.0993 259.4673,364.3043 254.7863,364.3043 L208.9453,364.3043 C204.2633,364.3043 200.4683,368.0993 200.4683,372.7813 L200.4683,372.7813 C200.4683,377.4633 204.2633,381.2583 208.9453,381.2583" id="Fill-891"></path>
                <path d="M239.5115,351.1233 L280.8575,351.1233 C285.0805,351.1233 288.5035,347.7003 288.5035,343.4773 L288.5035,343.4773 C288.5035,339.2543 285.0805,335.8313 280.8575,335.8313 L239.5115,335.8313 C235.2885,335.8313 231.8655,339.2543 231.8655,343.4773 L231.8655,343.4773 C231.8655,347.7003 235.2885,351.1233 239.5115,351.1233" id="Fill-892"></path>
                <path d="M283.965,299.416 L318.633,299.416 C322.174,299.416 325.044,296.546 325.044,293.005 L325.044,293.005 C325.044,289.464 322.174,286.594 318.633,286.594 L283.965,286.594 C280.424,286.594 277.554,289.464 277.554,293.005 L277.554,293.005 C277.554,296.546 280.424,299.416 283.965,299.416" id="Fill-893"></path>
                <path d="M264.7898,323.7953 L302.0598,323.7953 C305.8658,323.7953 308.9518,320.7093 308.9518,316.9033 L308.9518,316.9033 C308.9518,313.0963 305.8658,310.0113 302.0598,310.0113 L264.7898,310.0113 C260.9838,310.0113 257.8978,313.0963 257.8978,316.9033 L257.8978,316.9033 C257.8978,320.7093 260.9838,323.7953 264.7898,323.7953" id="Fill-894"></path>
                <path d="M326.1674,259.905 L354.5304,259.905 C357.4274,259.905 359.7754,257.557 359.7754,254.66 L359.7754,254.66 C359.7754,251.763 357.4274,249.415 354.5304,249.415 L326.1674,249.415 C323.2704,249.415 320.9224,251.763 320.9224,254.66 L320.9224,254.66 C320.9224,257.557 323.2704,259.905 326.1674,259.905" id="Fill-895"></path>
                <path d="M301.369,278.07 L332.916,278.07 C336.138,278.07 338.75,275.458 338.75,272.236 L338.75,272.236 C338.75,269.014 336.138,266.402 332.916,266.402 L301.369,266.402 C298.147,266.402 295.535,269.014 295.535,272.236 L295.535,272.236 C295.535,275.458 298.147,278.07 301.369,278.07" id="Fill-896"></path>
                <path d="M345.2999,243.823 L370.6369,243.823 C373.2239,243.823 375.3219,241.725 375.3219,239.138 L375.3219,239.138 C375.3219,236.55 373.2239,234.452 370.6369,234.452 L345.2999,234.452 C342.7119,234.452 340.6149,236.55 340.6149,239.138 L340.6149,239.138 C340.6149,241.725 342.7119,243.823 345.2999,243.823" id="Fill-897"></path>
            </g>
            <g id="Group-902">
                <path d="M360.0275,354.9625 L396.0835,282.5405 L581.5915,282.5405 L599.8845,354.9625 L360.0275,354.9625 Z" id="Fill-899" fill="#292D2C" sketch:type="MSShapeGroup"></path>
                <path d="M583.8,279.7059 L394.328,279.7059 L355.449,357.7969 L603.525,357.7969 L583.8,279.7059 Z M579.384,285.3749 L596.246,352.1279 L364.605,352.1279 L397.839,285.3749 L579.384,285.3749 Z" id="Fill-901" fill="#FFFFFF" sketch:type="MSShapeGroup"></path>
                <text id="407" sketch:type="MSTextLayer" font-family="Luckiest Guy" font-size="26" font-weight="normal" fill="#FFFFFF">
                    <tspan x="457.6763" y="310.2422">407</tspan>
                </text>
                <text id="SEATS" sketch:type="MSTextLayer" font-family="Luckiest Guy" font-size="26" font-weight="normal" fill="#FFFFFF">
                    <tspan x="445.0143" y="338.2442">SE</tspan>
                    <tspan x="471.268206" y="338.2442" letter-spacing="-1.5054">A</tspan>
                    <tspan x="484.54015" y="338.2442">TS</tspan>
                </text>
            </g>
        </g>
    </g>
</svg>