<?xml version="1.0" encoding="UTF-8" standalone="no"?>
<svg width="842px" height="370px" viewBox="0 0 842 370" version="1.1" xmlns="http://www.w3.org/2000/svg" xmlns:xlink="http://www.w3.org/1999/xlink" xmlns:sketch="http://www.bohemiancoding.com/sketch/ns">
    <!-- Generator: Sketch 3.3.3 (12072) - http://www.bohemiancoding.com/sketch -->
    <title>Salillustrasjoner</title>
    <desc>Created with Sketch.</desc>
    <defs></defs>
    <g id="Page-7" stroke="none" stroke-width="1" fill="none" fill-rule="evenodd" sketch:type="MSPage">
        <g id="Salillustrasjoner" sketch:type="MSLayerGroup" transform="translate(-78.000000, -31.000000)">
            <g id="Group-979" sketch:type="MSShapeGroup">
                <path d="M296.1953,282.5824 L271.7923,271.1514 C269.5043,270.0794 268.4353,267.4224 269.3413,265.0644 L269.3413,265.0644 C270.3443,262.4584 273.3463,261.2494 275.8753,262.4344 L300.2783,273.8654 C302.5653,274.9374 303.6353,277.5944 302.7293,279.9514 L302.7293,279.9514 C301.7263,282.5584 298.7243,283.7664 296.1953,282.5824" id="Fill-904" fill="#292D2C"></path>
                <path d="M265.2264,327.5939 L235.1964,313.5269 C232.3814,312.2079 231.0644,308.9379 232.1804,306.0369 L232.1804,306.0369 C233.4144,302.8299 237.1094,301.3419 240.2204,302.7999 L270.2514,316.8669 C273.0654,318.1859 274.3824,321.4559 273.2664,324.3569 L273.2664,324.3569 C272.0334,327.5639 268.3384,329.0519 265.2264,327.5939" id="Fill-906" fill="#292D2C"></path>
                <path d="M282.2112,304.9227 L255.0692,292.2087 C252.5252,291.0167 251.3352,288.0607 252.3432,285.4387 L252.3432,285.4387 C253.4582,282.5407 256.7982,281.1957 259.6102,282.5127 L286.7532,295.2277 C289.2962,296.4197 290.4862,299.3747 289.4782,301.9967 L289.4782,301.9967 C288.3632,304.8957 285.0232,306.2397 282.2112,304.9227" id="Fill-907" fill="#292D2C"></path>
                <path d="M256.0062,263.539 L233.5232,253.007 C231.4162,252.02 230.4312,249.572 231.2662,247.4 L231.2662,247.4 C232.1902,244.999 234.9562,243.886 237.2852,244.977 L259.7682,255.508 C261.8752,256.496 262.8612,258.944 262.0252,261.116 C261.1022,263.517 258.3362,264.63 256.0062,263.539" id="Fill-908" fill="#292D2C"></path>
                <path d="M217.0137,302.0784 L189.3467,289.1184 C186.7537,287.9034 185.5407,284.8914 186.5687,282.2184 C187.7057,279.2634 191.1097,277.8934 193.9767,279.2364 L221.6427,292.1964 C224.2357,293.4104 225.4487,296.4234 224.4207,299.0964 L224.4207,299.0964 C223.2847,302.0504 219.8807,303.4214 217.0137,302.0784" id="Fill-909" fill="#292D2C"></path>
                <path d="M196.8389,326.4521 L167.2969,312.6131 C164.5279,311.3161 163.2329,308.0991 164.3299,305.2461 L164.3299,305.2461 C165.5439,302.0911 169.1789,300.6271 172.2399,302.0611 L201.7819,315.9001 C204.5509,317.1971 205.8459,320.4141 204.7479,323.2681 L204.7479,323.2681 C203.5349,326.4221 199.8999,327.8861 196.8389,326.4521" id="Fill-910" fill="#292D2C"></path>
                <path d="M237.8045,283.3255 L212.7985,271.6115 C210.4545,270.5135 209.3585,267.7905 210.2875,265.3755 L210.2875,265.3755 C211.3145,262.7045 214.3915,261.4665 216.9825,262.6795 L241.9885,274.3935 C244.3325,275.4915 245.4285,278.2145 244.4995,280.6295 L244.4995,280.6305 C243.4725,283.3005 240.3955,284.5395 237.8045,283.3255" id="Fill-911" fill="#292D2C"></path>
                <path d="M173.0853,280.5589 L145.4183,267.5989 C142.8253,266.3839 141.6123,263.3719 142.6403,260.6989 C143.7773,257.7439 147.1813,256.3739 150.0483,257.7169 L177.7143,270.6769 C180.3073,271.8909 181.5203,274.9039 180.4923,277.5769 L180.4923,277.5769 C179.3563,280.5309 175.9523,281.9019 173.0853,280.5589" id="Fill-912" fill="#292D2C"></path>
                <path d="M148.1728,301.3367 L118.6308,287.4977 C115.8618,286.2007 114.5668,282.9837 115.6638,280.1307 L115.6638,280.1307 C116.8778,276.9757 120.5128,275.5117 123.5738,276.9457 L153.1158,290.7847 C155.8848,292.0817 157.1798,295.2987 156.0818,298.1527 C154.8688,301.3067 151.2338,302.7707 148.1728,301.3367" id="Fill-913" fill="#292D2C"></path>
                <path d="M195.6001,261.7932 L170.5941,250.0792 C168.2501,248.9812 167.1541,246.2582 168.0831,243.8432 L168.0831,243.8432 C169.1101,241.1722 172.1871,239.9342 174.7781,241.1472 L199.7841,252.8612 C202.1281,253.9592 203.2241,256.6822 202.2951,259.0972 L202.2951,259.0982 C201.2681,261.7682 198.1911,263.0072 195.6001,261.7932" id="Fill-914" fill="#292D2C"></path>
                <path d="M146.3217,334.9633 L116.7797,321.1243 C114.0107,319.8273 112.7157,316.6103 113.8127,313.7573 L113.8127,313.7573 C115.0267,310.6023 118.6617,309.1383 121.7227,310.5723 L151.2647,324.4113 C154.0337,325.7083 155.3287,328.9253 154.2307,331.7793 L154.2307,331.7793 C153.0177,334.9333 149.3827,336.3973 146.3217,334.9633" id="Fill-915" fill="#292D2C"></path>
                <path d="M724.2771,282.5824 L748.6801,271.1514 C750.9681,270.0794 752.0371,267.4224 751.1311,265.0644 L751.1311,265.0644 C750.1281,262.4584 747.1261,261.2494 744.5971,262.4344 L720.1941,273.8654 C717.9071,274.9374 716.8371,277.5944 717.7431,279.9514 L717.7431,279.9514 C718.7461,282.5584 721.7481,283.7664 724.2771,282.5824" id="Fill-916" fill="#292D2C"></path>
                <path d="M755.246,327.5939 L785.276,313.5269 C788.091,312.2079 789.408,308.9379 788.292,306.0369 L788.292,306.0369 C787.058,302.8299 783.363,301.3419 780.252,302.7999 L750.221,316.8669 C747.407,318.1859 746.09,321.4559 747.206,324.3569 L747.206,324.3569 C748.439,327.5639 752.134,329.0519 755.246,327.5939" id="Fill-917" fill="#292D2C"></path>
                <path d="M738.2612,304.9227 L765.4032,292.2087 C767.9472,291.0167 769.1372,288.0607 768.1292,285.4387 C767.0142,282.5407 763.6742,281.1957 760.8622,282.5127 L733.7192,295.2277 C731.1752,296.4197 729.9862,299.3747 730.9942,301.9967 L730.9942,301.9967 C732.1092,304.8957 735.4492,306.2397 738.2612,304.9227" id="Fill-918" fill="#292D2C"></path>
                <path d="M764.4662,263.539 L786.9482,253.007 C789.0562,252.02 790.0412,249.572 789.2062,247.4 L789.2062,247.4 C788.2822,244.999 785.5162,243.886 783.1872,244.977 L760.7042,255.508 C758.5972,256.496 757.6112,258.944 758.4472,261.116 C759.3702,263.517 762.1362,264.63 764.4662,263.539" id="Fill-919" fill="#292D2C"></path>
                <path d="M803.4587,302.0784 L831.1257,289.1184 C833.7187,287.9034 834.9317,284.8914 833.9037,282.2184 C832.7667,279.2634 829.3627,277.8934 826.4957,279.2364 L798.8297,292.1964 C796.2367,293.4104 795.0237,296.4234 796.0517,299.0964 L796.0517,299.0964 C797.1877,302.0504 800.5917,303.4214 803.4587,302.0784" id="Fill-920" fill="#292D2C"></path>
                <path d="M823.6335,326.4521 L853.1755,312.6131 C855.9445,311.3161 857.2395,308.0991 856.1425,305.2461 L856.1425,305.2461 C854.9285,302.0911 851.2935,300.6271 848.2325,302.0611 L818.6905,315.9001 C815.9215,317.1971 814.6265,320.4141 815.7245,323.2681 L815.7245,323.2681 C816.9375,326.4221 820.5725,327.8861 823.6335,326.4521" id="Fill-921" fill="#292D2C"></path>
                <path d="M782.6678,283.3255 L807.6738,271.6115 C810.0178,270.5135 811.1138,267.7905 810.1848,265.3755 L810.1848,265.3755 C809.1578,262.7045 806.0808,261.4665 803.4898,262.6795 L778.4838,274.3935 C776.1398,275.4915 775.0438,278.2145 775.9728,280.6295 L775.9728,280.6305 C776.9998,283.3005 780.0768,284.5395 782.6678,283.3255" id="Fill-922" fill="#292D2C"></path>
                <path d="M847.387,280.5589 L875.054,267.5989 C877.647,266.3839 878.86,263.3719 877.832,260.6989 L877.832,260.6989 C876.695,257.7439 873.291,256.3739 870.424,257.7169 L842.758,270.6769 C840.165,271.8909 838.952,274.9039 839.98,277.5769 L839.98,277.5769 C841.116,280.5309 844.52,281.9019 847.387,280.5589" id="Fill-923" fill="#292D2C"></path>
                <path d="M872.2996,301.3367 L901.8416,287.4977 C904.6106,286.2007 905.9056,282.9837 904.8086,280.1307 L904.8086,280.1307 C903.5946,276.9757 899.9596,275.5117 896.8986,276.9457 L867.3566,290.7847 C864.5876,292.0817 863.2926,295.2987 864.3906,298.1527 C865.6036,301.3067 869.2386,302.7707 872.2996,301.3367" id="Fill-924" fill="#292D2C"></path>
                <path d="M824.8722,261.7932 L849.8782,250.0792 C852.2222,248.9812 853.3182,246.2582 852.3892,243.8432 L852.3892,243.8432 C851.3622,241.1722 848.2852,239.9342 845.6942,241.1472 L820.6882,252.8612 C818.3442,253.9592 817.2482,256.6822 818.1772,259.0972 L818.1772,259.0982 C819.2042,261.7682 822.2812,263.0072 824.8722,261.7932" id="Fill-925" fill="#292D2C"></path>
                <path d="M874.1506,334.9633 L903.6926,321.1243 C906.4616,319.8273 907.7566,316.6103 906.6596,313.7573 L906.6596,313.7573 C905.4456,310.6023 901.8106,309.1383 898.7496,310.5723 L869.2076,324.4113 C866.4386,325.7083 865.1436,328.9253 866.2416,331.7793 L866.2416,331.7793 C867.4546,334.9333 871.0896,336.3973 874.1506,334.9633" id="Fill-926" fill="#292D2C"></path>
                <path d="M391.4329,338.6634 L357.6879,338.6634 C354.2109,338.6634 351.3919,335.8444 351.3919,332.3674 L351.3919,332.3674 C351.3919,328.8894 354.2109,326.0704 357.6879,326.0704 L391.4329,326.0704 C394.9099,326.0704 397.7289,328.8894 397.7289,332.3674 L397.7289,332.3674 C397.7289,335.8444 394.9099,338.6634 391.4329,338.6634" id="Fill-927" fill="#292D2C"></path>
                <path d="M337.1626,338.6634 L303.4176,338.6634 C299.9406,338.6634 297.1216,335.8444 297.1216,332.3674 L297.1216,332.3674 C297.1216,328.8894 299.9406,326.0704 303.4176,326.0704 L337.1626,326.0704 C340.6396,326.0704 343.4586,328.8894 343.4586,332.3674 L343.4586,332.3674 C343.4586,335.8444 340.6396,338.6634 337.1626,338.6634" id="Fill-928" fill="#292D2C"></path>
                <path d="M445.7032,339.4486 L411.9582,339.4486 C408.4812,339.4486 405.6622,336.6296 405.6622,333.1526 L405.6622,333.1526 C405.6622,329.6746 408.4812,326.8556 411.9582,326.8556 L445.7032,326.8556 C449.1802,326.8556 451.9992,329.6746 451.9992,333.1526 L451.9992,333.1526 C451.9992,336.6296 449.1802,339.4486 445.7032,339.4486" id="Fill-929" fill="#292D2C"></path>
                <path d="M499.9735,339.4486 L466.2285,339.4486 C462.7515,339.4486 459.9325,336.6296 459.9325,333.1526 L459.9325,333.1526 C459.9325,329.6746 462.7515,326.8556 466.2285,326.8556 L499.9735,326.8556 C503.4505,326.8556 506.2695,329.6746 506.2695,333.1526 L506.2695,333.1526 C506.2695,336.6296 503.4505,339.4486 499.9735,339.4486" id="Fill-930" fill="#292D2C"></path>
                <path d="M554.2438,339.4486 L520.4988,339.4486 C517.0218,339.4486 514.2028,336.6296 514.2028,333.1526 L514.2028,333.1526 C514.2028,329.6746 517.0218,326.8556 520.4988,326.8556 L554.2438,326.8556 C557.7208,326.8556 560.5398,329.6746 560.5398,333.1526 L560.5398,333.1526 C560.5398,336.6296 557.7208,339.4486 554.2438,339.4486" id="Fill-931" fill="#292D2C"></path>
                <path d="M608.514,339.4486 L574.769,339.4486 C571.292,339.4486 568.473,336.6296 568.473,333.1526 L568.473,333.1526 C568.473,329.6746 571.292,326.8556 574.769,326.8556 L608.514,326.8556 C611.991,326.8556 614.81,329.6746 614.81,333.1526 L614.81,333.1526 C614.81,336.6296 611.991,339.4486 608.514,339.4486" id="Fill-932" fill="#292D2C"></path>
                <path d="M662.7843,339.4486 L629.0393,339.4486 C625.5623,339.4486 622.7433,336.6296 622.7433,333.1526 L622.7433,333.1526 C622.7433,329.6746 625.5623,326.8556 629.0393,326.8556 L662.7843,326.8556 C666.2613,326.8556 669.0803,329.6746 669.0803,333.1526 L669.0803,333.1526 C669.0803,336.6296 666.2613,339.4486 662.7843,339.4486" id="Fill-933" fill="#292D2C"></path>
                <path d="M717.0546,339.4486 L683.3096,339.4486 C679.8326,339.4486 677.0136,336.6296 677.0136,333.1526 L677.0136,333.1526 C677.0136,329.6746 679.8326,326.8556 683.3096,326.8556 L717.0546,326.8556 C720.5316,326.8556 723.3506,329.6746 723.3506,333.1526 L723.3506,333.1526 C723.3506,336.6296 720.5316,339.4486 717.0546,339.4486" id="Fill-934" fill="#292D2C"></path>
                <path d="M409.9779,284.2811 L382.5559,284.2811 C379.7299,284.2811 377.4399,281.9901 377.4399,279.1651 L377.4399,279.1641 C377.4399,276.3391 379.7299,274.0481 382.5559,274.0481 L409.9779,274.0481 C412.8039,274.0481 415.0939,276.3391 415.0939,279.1641 L415.0939,279.1651 C415.0939,281.9901 412.8039,284.2811 409.9779,284.2811" id="Fill-935" fill="#292D2C"></path>
                <path d="M364.3902,284.2811 L336.9682,284.2811 C334.1422,284.2811 331.8522,281.9901 331.8522,279.1651 L331.8522,279.1641 C331.8522,276.3391 334.1422,274.0481 336.9682,274.0481 L364.3902,274.0481 C367.2162,274.0481 369.5072,276.3391 369.5072,279.1641 L369.5072,279.1651 C369.5072,281.9901 367.2162,284.2811 364.3902,284.2811" id="Fill-936" fill="#292D2C"></path>
                <path d="M455.5656,284.2811 L428.1436,284.2811 C425.3176,284.2811 423.0276,281.9901 423.0276,279.1651 L423.0276,279.1641 C423.0276,276.3391 425.3176,274.0481 428.1436,274.0481 L455.5656,274.0481 C458.3916,274.0481 460.6816,276.3391 460.6816,279.1641 L460.6816,279.1651 C460.6816,281.9901 458.3916,284.2811 455.5656,284.2811" id="Fill-937" fill="#292D2C"></path>
                <path d="M501.1533,284.2811 L473.7313,284.2811 C470.9053,284.2811 468.6153,281.9901 468.6153,279.1651 L468.6153,279.1641 C468.6153,276.3391 470.9053,274.0481 473.7313,274.0481 L501.1533,274.0481 C503.9793,274.0481 506.2693,276.3391 506.2693,279.1641 L506.2693,279.1651 C506.2693,281.9901 503.9793,284.2811 501.1533,284.2811" id="Fill-938" fill="#292D2C"></path>
                <path d="M546.7409,284.2811 L519.3189,284.2811 C516.4929,284.2811 514.2029,281.9901 514.2029,279.1651 L514.2029,279.1641 C514.2029,276.3391 516.4929,274.0481 519.3189,274.0481 L546.7409,274.0481 C549.5669,274.0481 551.8579,276.3391 551.8579,279.1641 L551.8579,279.1651 C551.8579,281.9901 549.5669,284.2811 546.7409,284.2811" id="Fill-939" fill="#292D2C"></path>
                <path d="M592.3286,284.2811 L564.9066,284.2811 C562.0806,284.2811 559.7906,281.9901 559.7906,279.1651 L559.7906,279.1641 C559.7906,276.3391 562.0806,274.0481 564.9066,274.0481 L592.3286,274.0481 C595.1546,274.0481 597.4446,276.3391 597.4446,279.1641 L597.4446,279.1651 C597.4446,281.9901 595.1546,284.2811 592.3286,284.2811" id="Fill-940" fill="#292D2C"></path>
                <path d="M637.9163,284.2811 L610.4943,284.2811 C607.6683,284.2811 605.3783,281.9901 605.3783,279.1651 L605.3783,279.1641 C605.3783,276.3391 607.6683,274.0481 610.4943,274.0481 L637.9163,274.0481 C640.7423,274.0481 643.0333,276.3391 643.0333,279.1641 L643.0333,279.1651 C643.0333,281.9901 640.7423,284.2811 637.9163,284.2811" id="Fill-941" fill="#292D2C"></path>
                <path d="M683.5039,284.2811 L656.0819,284.2811 C653.2559,284.2811 650.9659,281.9901 650.9659,279.1651 L650.9659,279.1641 C650.9659,276.3391 653.2559,274.0481 656.0819,274.0481 L683.5039,274.0481 C686.3299,274.0481 688.6209,276.3391 688.6209,279.1641 L688.6209,279.1651 C688.6209,281.9901 686.3299,284.2811 683.5039,284.2811" id="Fill-942" fill="#292D2C"></path>
                <path d="M400.9508,309.9947 L370.4508,309.9947 C367.3078,309.9947 364.7608,307.4467 364.7608,304.3037 L364.7608,304.3037 C364.7608,301.1607 367.3078,298.6127 370.4508,298.6127 L400.9508,298.6127 C404.0938,298.6127 406.6418,301.1607 406.6418,304.3037 L406.6418,304.3037 C406.6418,307.4467 404.0938,309.9947 400.9508,309.9947" id="Fill-943" fill="#292D2C"></path>
                <path d="M351.1368,309.9947 L320.6368,309.9947 C317.4938,309.9947 314.9468,307.4467 314.9468,304.3037 L314.9468,304.3037 C314.9468,301.1607 317.4938,298.6127 320.6368,298.6127 L351.1368,298.6127 C354.2798,298.6127 356.8278,301.1607 356.8278,304.3037 L356.8278,304.3037 C356.8278,307.4467 354.2798,309.9947 351.1368,309.9947" id="Fill-944" fill="#292D2C"></path>
                <path d="M450.7649,310.7799 L420.2649,310.7799 C417.1219,310.7799 414.5749,308.2319 414.5749,305.0889 L414.5749,305.0889 C414.5749,301.9459 417.1219,299.3979 420.2649,299.3979 L450.7649,299.3979 C453.9079,299.3979 456.4559,301.9459 456.4559,305.0889 L456.4559,305.0889 C456.4559,308.2319 453.9079,310.7799 450.7649,310.7799" id="Fill-945" fill="#292D2C"></path>
                <path d="M500.579,310.7799 L470.079,310.7799 C466.936,310.7799 464.389,308.2319 464.389,305.0889 L464.389,305.0889 C464.389,301.9459 466.936,299.3979 470.079,299.3979 L500.579,299.3979 C503.722,299.3979 506.27,301.9459 506.27,305.0889 L506.27,305.0889 C506.27,308.2319 503.722,310.7799 500.579,310.7799" id="Fill-946" fill="#292D2C"></path>
                <path d="M550.3931,310.7799 L519.8931,310.7799 C516.7501,310.7799 514.2031,308.2319 514.2031,305.0889 L514.2031,305.0889 C514.2031,301.9459 516.7501,299.3979 519.8931,299.3979 L550.3931,299.3979 C553.5361,299.3979 556.0841,301.9459 556.0841,305.0889 L556.0841,305.0889 C556.0841,308.2319 553.5361,310.7799 550.3931,310.7799" id="Fill-947" fill="#292D2C"></path>
                <path d="M600.2071,310.7799 L569.7071,310.7799 C566.5641,310.7799 564.0171,308.2319 564.0171,305.0889 L564.0171,305.0889 C564.0171,301.9459 566.5641,299.3979 569.7071,299.3979 L600.2071,299.3979 C603.3501,299.3979 605.8981,301.9459 605.8981,305.0889 L605.8981,305.0889 C605.8981,308.2319 603.3501,310.7799 600.2071,310.7799" id="Fill-948" fill="#292D2C"></path>
                <path d="M650.0212,310.7799 L619.5212,310.7799 C616.3782,310.7799 613.8312,308.2319 613.8312,305.0889 L613.8312,305.0889 C613.8312,301.9459 616.3782,299.3979 619.5212,299.3979 L650.0212,299.3979 C653.1642,299.3979 655.7122,301.9459 655.7122,305.0889 L655.7122,305.0889 C655.7122,308.2319 653.1642,310.7799 650.0212,310.7799" id="Fill-949" fill="#292D2C"></path>
                <path d="M699.8352,310.7799 L669.3352,310.7799 C666.1922,310.7799 663.6452,308.2319 663.6452,305.0889 L663.6452,305.0889 C663.6452,301.9459 666.1922,299.3979 669.3352,299.3979 L699.8352,299.3979 C702.9782,299.3979 705.5262,301.9459 705.5262,305.0889 L705.5262,305.0889 C705.5262,308.2319 702.9782,310.7799 699.8352,310.7799" id="Fill-950" fill="#292D2C"></path>
                <path d="M101.3261,180.711 C172.6731,154.633 302.0381,123.544 513.3531,123.544 C718.6521,123.544 846.6011,151.669 919.1461,176.192 L919.1461,97.153 C848.2951,68.431 722.4821,35.667 513.3531,32.07 C297.9461,28.364 170.9311,64.009 101.3261,95.562 L101.3261,180.711 Z" id="Fill-951" fill="#B2C1AC"></path>
                <path d="M439.1084,201.6816 L425.4914,235.9386 L594.9814,235.7716 L583.8374,201.9216 L439.1084,201.6816 Z" id="Fill-952" fill="#B2C1AC"></path>
                <path d="M425.491,246.169 L595.748,246.169 L595.748,238.212 L425.491,238.212 L425.491,246.169 Z" id="Fill-953" fill="#292D2C"></path>
                <path d="M527.1194,162.2604 C527.1194,162.2604 516.1134,173.9944 520.4564,177.5624 C524.8004,181.1314 524.9854,180.3004 524.9854,180.3004" id="Fill-954" fill="#292D2C"></path>
                <path d="M536.932,208.4506 L532.911,208.8036 C532.911,208.8036 532.227,209.4036 531.373,209.6266 C530.52,209.8496 528.422,209.7596 528.637,210.3856 C528.851,211.0126 533.254,210.6336 533.589,210.6216 C533.924,210.6096 535.02,210.4606 535.02,210.4606 L535.037,210.6156 L537.309,210.5556 C537.309,210.5556 537.393,208.9476 536.932,208.4506" id="Fill-955" fill="#292D2C"></path>
                <path d="M544.6442,208.993 L541.3492,208.733 C541.3492,208.733 539.9402,209.945 539.0862,210.169 C538.2322,210.392 536.1342,210.302 536.3492,210.929 C536.5642,211.555 540.9672,211.177 541.3022,211.164 C541.6362,211.151 542.7322,211.003 542.7322,211.003 L542.7502,211.158 L545.0222,211.097 C545.0222,211.097 545.1062,209.49 544.6442,208.993" id="Fill-956" fill="#292D2C"></path>
                <path d="M536.3027,193.0139 L540.7677,209.1299 L544.9827,209.9769 L546.9117,182.9129 L532.8157,181.4799 L524.8127,184.7049 L532.7187,208.8479 L537.2007,209.0479 L536.3027,193.0139 Z" id="Fill-957" fill="#A83548"></path>
                <path d="M547.9143,184.5639 C548.4013,180.6249 548.6013,172.9329 545.1313,163.2029 C540.0203,148.8679 527.0323,162.9049 527.0323,162.9049 C527.0323,162.9049 523.4973,171.9229 523.3793,178.7319 C523.3263,181.7299 523.6213,184.3099 523.9673,186.2599 L547.9143,184.5639 Z" id="Fill-958" fill="#292D2C"></path>
                <path d="M533.8911,162.725 L530.7851,178.493 L533.0551,182.794 L536.7581,178.254 L536.5191,162.486 L533.8911,162.725 Z" id="Fill-959" fill="#E5B44D"></path>
                <path d="M526.8242,162.6987 L535.4082,163.7717 L545.1492,163.2247 C545.1492,163.2247 546.7132,137.8787 533.9102,139.3117 C521.1082,140.7457 526.8242,162.6987 526.8242,162.6987" id="Fill-960" fill="#F0D4B1"></path>
                <path d="M546.6725,151.2574 C546.6725,152.9724 545.8435,154.3634 544.8215,154.3634 C543.7985,154.3634 542.9695,152.9724 542.9695,151.2574 C542.9695,149.5424 543.7985,148.1514 544.8215,148.1514 C545.8435,148.1514 546.6725,149.5424 546.6725,151.2574" id="Fill-961" fill="#F0D4B1"></path>
                <path d="M538.7121,142.949 L522.8711,142.415 C522.8711,142.415 529.1131,134.892 542.0941,139.069" id="Fill-962" fill="#292D2C"></path>
                <path d="M525.0526,150.7605 C524.8766,150.7605 524.7336,150.9035 524.7336,151.0795 L524.7336,152.9505 C524.7336,153.1255 524.8766,153.2685 525.0526,153.2685 L530.7456,153.2685 C530.9216,153.2685 531.0646,153.1255 531.0646,152.9505 L531.0646,151.0795 C531.0646,150.9035 530.9216,150.7605 530.7456,150.7605 L525.0526,150.7605 Z M530.7456,153.9855 L525.0526,153.9855 C524.4816,153.9855 524.0166,153.5205 524.0166,152.9505 L524.0166,151.0795 C524.0166,150.5085 524.4816,150.0435 525.0526,150.0435 L530.7456,150.0435 C531.3166,150.0435 531.7816,150.5085 531.7816,151.0795 L531.7816,152.9505 C531.7816,153.5205 531.3166,153.9855 530.7456,153.9855 L530.7456,153.9855 Z" id="Fill-963" fill="#1D5768"></path>
                <path d="M532.7967,151.1784 C532.7967,151.1784 527.2617,153.1484 528.3767,155.9564 C528.9567,157.4164 534.4517,155.4254 534.4517,155.4254" id="Fill-964" fill="#BB817B"></path>
                <path d="M534.0115,151.5966 C533.8355,151.5966 533.6925,151.7396 533.6925,151.9156 L533.6925,153.7866 C533.6925,153.9616 533.8355,154.1046 534.0115,154.1046 L539.7045,154.1046 C539.8805,154.1046 540.0235,153.9616 540.0235,153.7866 L540.0235,151.9156 C540.0235,151.7396 539.8805,151.5966 539.7045,151.5966 L534.0115,151.5966 Z M539.7045,154.8216 L534.0115,154.8216 C533.4405,154.8216 532.9755,154.3576 532.9755,153.7866 L532.9755,151.9156 C532.9755,151.3446 533.4405,150.8796 534.0115,150.8796 L539.7045,150.8796 C540.2755,150.8796 540.7405,151.3446 540.7405,151.9156 L540.7405,153.7866 C540.7405,154.3576 540.2755,154.8216 539.7045,154.8216 L539.7045,154.8216 Z" id="Fill-965" fill="#1D5768"></path>
                <path d="M533.4514,152.1118 L531.3014,151.5148 L531.4934,150.8238 L533.6434,151.4208 L533.4514,152.1118 Z" id="Fill-966" fill="#1D5768"></path>
                <path d="M533.1954,157.5495 C533.1954,157.5495 538.5134,154.4305 538.7524,155.6255 C538.9914,156.8195 535.3274,158.8905 535.3274,158.8905" id="Fill-967" fill="#A83548"></path>
                <path d="M526.7504,162.6617 L531.1434,168.1007 L534.9664,163.6807 L526.7504,162.6617 Z" id="Fill-968" fill="#BB817B"></path>
                <path d="M534.9662,163.6806 L537.8332,168.2196 L545.2392,163.2026 L534.9662,163.6806 Z" id="Fill-969" fill="#BB817B"></path>
                <path d="M529.5591,177.4446 L529.5391,177.4396 C529.7261,177.3726 529.8781,177.2326 529.9331,177.0436 C530.0281,176.7186 529.8041,176.3776 529.4331,176.2806 L527.7431,175.8456 C527.8091,175.7786 527.8761,175.6866 527.9761,175.5966 L528.9521,174.7096 C529.2051,174.4796 529.2241,174.0876 528.9941,173.8346 C528.7641,173.5816 528.3721,173.5636 528.1191,173.7936 L526.9571,174.8506 L523.7371,176.2246 C523.6901,176.2276 523.6471,176.2366 523.6051,176.2486 L523.2141,178.1506 L527.0951,179.9966 L527.4381,180.0636 C527.7661,180.1486 528.1111,179.9536 528.2041,179.6286 C528.2221,179.5696 528.2271,179.5106 528.2261,179.4526 L528.4931,179.5216 C528.8631,179.6176 529.2401,179.4316 529.3351,179.1056 C529.3831,178.9386 529.3471,178.7686 529.2511,178.6286 C529.6101,178.7046 529.9671,178.5226 530.0581,178.2066 C530.1531,177.8816 529.9291,177.5396 529.5591,177.4446" id="Fill-970" fill="#F0D4B1"></path>
                <path d="M540.8194,172.2935 C540.8194,172.2935 539.3424,183.0675 539.4294,183.0675 C540.3854,183.0675 553.9224,184.6855 553.9224,184.6855 L555.9374,174.9865 L540.8194,172.2935 Z" id="Fill-971" fill="#FFFFFF"></path>
                <path d="M544.7404,185.1423 C544.4804,185.3603 544.0864,185.3313 543.8614,185.0783 C543.8204,185.0323 543.7914,184.9813 543.7674,184.9293 L543.5554,185.1053 C543.2624,185.3513 542.8414,185.3453 542.6164,185.0913 C542.5014,184.9613 542.4604,184.7923 542.4864,184.6243 C542.1954,184.8473 541.7944,184.8363 541.5774,184.5903 C541.3514,184.3383 541.4074,183.9333 541.7014,183.6883 L541.7174,183.6743 C541.5184,183.6943 541.3224,183.6343 541.1904,183.4863 C540.9664,183.2343 541.0214,182.8293 541.3144,182.5823 L542.6544,181.4633 C542.4204,181.4403 542.2224,181.2993 542.1514,181.0753 C542.0524,180.7483 542.2594,180.3743 542.6154,180.2403 L546.4344,180.0853 C546.4784,180.0683 546.5214,180.0583 546.5644,180.0513 L547.7334,181.6013 L545.0214,184.9343 L544.7404,185.1423 Z" id="Fill-972" fill="#E2CBA8"></path>
                <path d="M545.0005,164.0391 C545.0005,164.0391 558.3095,173.6621 553.2445,178.2671 C551.3325,180.0041 547.1615,182.3501 547.1615,182.3501 L544.8165,180.0911 L547.7705,175.8331 L545.0005,164.0391 Z" id="Fill-973" fill="#292D2C"></path>
                <path d="M533.8541,186.1347 L534.6751,182.5847 L535.8131,185.7557 L533.8541,186.1347 Z" id="Fill-974" fill="#A83548"></path>
                <path d="M531.1973,148.1682 C531.1973,148.7772 530.7033,149.2702 530.0953,149.2702 C529.4863,149.2702 528.9933,148.7772 528.9933,148.1682 L528.9933,147.5362 C528.9933,146.9272 529.4863,146.4342 530.0953,146.4342 C530.7033,146.4342 531.1973,146.9272 531.1973,147.5362 L531.1973,148.1682 Z" id="Fill-975" fill="#292D2C"></path>
                <path d="M538.4786,149.2208 C538.4786,149.8288 537.9846,150.3228 537.3766,150.3228 C536.7676,150.3228 536.2736,149.8288 536.2736,149.2208 L536.2736,148.5878 C536.2736,147.9798 536.7676,147.4868 537.3766,147.4868 C537.9846,147.4868 538.4786,147.9798 538.4786,148.5878 L538.4786,149.2208 Z" id="Fill-976" fill="#292D2C"></path>
                <path d="M544.5759,147.4848 C544.5759,143.4978 543.0679,140.2358 541.1599,139.9678 C540.7959,139.6428 540.5509,139.4848 540.5509,139.4848 L540.1669,140.1058 C539.7089,140.2988 539.2819,140.6638 538.9039,141.1708 L539.2969,141.5078 L537.4779,144.4408 L541.1069,143.3038 L544.3179,150.2608 C544.4839,149.4008 544.5759,148.4658 544.5759,147.4848" id="Fill-977" fill="#292D2C"></path>
                <path d="M481.2368,223.6271 L480.4188,181.3211 L531.2758,182.0231 L528.6008,224.2821 L481.2368,223.6271 Z" id="Fill-978" fill="#1D5768"></path>
            </g>
            <text id="7" sketch:type="MSTextLayer" font-family="Luckiest Guy" font-size="37.6787" font-weight="normal" fill="#FFFFFF">
                <tspan x="496.3174" y="210.3965">7</tspan>
            </text>
            <g id="Group-992" sketch:type="MSShapeGroup">
                <path d="M234.0072,222.8005 L230.1622,223.0335 L222.5002,96.6195 C222.4352,95.5575 223.2442,94.6445 224.3062,94.5805 C225.3682,94.5165 226.2802,95.3245 226.3452,96.3865 L234.0072,222.8005 Z" id="Fill-981" fill="#292D2C"></path>
                <path d="M263.4387,222.8005 L259.5937,223.0335 L251.9317,96.6195 C251.8667,95.5575 252.6757,94.6445 253.7377,94.5805 L253.7377,94.5805 C254.7997,94.5165 255.7117,95.3245 255.7767,96.3865 L263.4387,222.8005 Z" id="Fill-983" fill="#292D2C"></path>
                <path d="M786.4651,222.8005 L790.3101,223.0335 L797.9721,96.6195 C798.0371,95.5575 797.2281,94.6445 796.1661,94.5805 L796.1661,94.5805 C795.1041,94.5165 794.1921,95.3245 794.1271,96.3865 L786.4651,222.8005 Z" id="Fill-984" fill="#292D2C"></path>
                <path d="M757.0336,222.8005 L760.8786,223.0335 L768.5406,96.6195 C768.6056,95.5575 767.7966,94.6445 766.7346,94.5805 C765.6726,94.5165 764.7606,95.3245 764.6956,96.3865 L757.0336,222.8005 Z" id="Fill-985" fill="#292D2C"></path>
                <path d="M386.866,222.8106 L383.059,223.0416 L375.474,97.8886 C375.41,96.8376 376.21,95.9336 377.262,95.8706 C378.313,95.8066 379.217,96.6066 379.28,97.6586 L386.866,222.8106 Z" id="Fill-986" fill="#292D2C"></path>
                <path d="M416.0039,222.8106 L412.1969,223.0416 L404.6119,97.8886 C404.5479,96.8376 405.3479,95.9336 406.3999,95.8706 C407.4509,95.8066 408.3549,96.6066 408.4179,97.6586 L416.0039,222.8106 Z" id="Fill-987" fill="#292D2C"></path>
                <path d="M633.6063,222.8106 L637.4133,223.0416 L644.9983,97.8886 C645.0623,96.8376 644.2623,95.9336 643.2103,95.8706 C642.1593,95.8066 641.2553,96.6066 641.1923,97.6586 L633.6063,222.8106 Z" id="Fill-988" fill="#292D2C"></path>
                <path d="M604.4684,222.8106 L608.2754,223.0416 L615.8604,97.8886 C615.9244,96.8376 615.1244,95.9336 614.0724,95.8706 C613.0214,95.8066 612.1174,96.6066 612.0544,97.6586 L604.4684,222.8106 Z" id="Fill-989" fill="#292D2C"></path>
                <path d="M351.3134,104.3134 L435.5884,105.0054 L435.3594,158.8924 L353.2374,158.8924 L351.3134,104.3134 Z" id="Fill-990" fill="#FFFFFF"></path>
                <path d="M351.3134,104.3134 L435.5884,105.0054 L435.3594,158.8924 L353.2374,158.8924 L351.3134,104.3134 L351.3134,104.3134 Z" id="Stroke-991" stroke="#B2C1AC"></path>
            </g>
            <path d="M384.0124,132.8214 C383.4384,132.9544 383.2094,132.6474 383.5014,132.1354 L390.6274,119.6544 L404.4594,115.8034 C405.0274,115.6444 405.4884,115.9944 405.4884,116.5844 L405.4884,126.7704 C405.4884,127.3604 405.0224,127.9464 404.4484,128.0794 L384.0124,132.8214 Z" id="Fill-993" fill="#E87E41" sketch:type="MSShapeGroup"></path>
            <path d="M384.3391,117.663 C383.7771,117.486 383.4911,117.789 383.7011,118.34 L388.3501,130.572 L394.7931,134.309 L403.4191,133.258 L403.6641,133.228 C404.2491,133.157 404.4511,132.706 404.1151,132.222 L396.7151,121.57 L384.3391,117.663 Z" id="Fill-995" fill="#DF4C49" sketch:type="MSShapeGroup"></path>
            <g id="Group-1000" transform="translate(380.000000, 115.000000)" sketch:type="MSShapeGroup">
                <path d="M7.3177,12.9392 L8.7767,16.7112 L12.3987,18.9322 C12.9017,19.2402 13.7837,19.4342 14.3697,19.3642 C14.3697,19.3642 23.1937,18.3122 23.6207,18.2412 C24.0477,18.1702 24.1897,18.0272 24.2617,17.8142 L10.2717,9.9142 L7.3177,12.9392 Z" id="Fill-997" fill="#8F2034"></path>
                <path d="M25.1868,0.9121 C23.5048,2.2821 3.5448,17.6721 3.4018,17.6721 C3.2958,17.4581 3.5088,17.1021 3.5088,17.1021 L10.6228,4.6541 L24.4388,0.8051 C24.4388,0.8051 24.8668,0.6631 25.1868,0.9121" id="Fill-999" fill="#F0AB2B"></path>
            </g>
            <g id="Group-1012" sketch:type="MSShapeGroup">
                <path d="M382.5684,140.8426 C382.5684,141.6136 382.5164,141.9766 382.1974,142.1996 C381.9164,142.3996 381.5384,142.4216 381.0344,142.4216 L380.5524,142.4216 C380.3744,142.4216 380.3074,142.3696 380.3074,142.1696 L380.3074,141.6656 C380.3074,141.4426 380.3744,141.3986 380.5674,141.3986 L380.9224,141.3986 C381.0564,141.3986 381.1824,141.3986 381.2494,141.3316 C381.3234,141.2576 381.3234,141.1616 381.3234,140.8056 L381.3234,137.8556 C381.3234,137.6476 381.3604,137.6256 381.5904,137.6256 L382.3164,137.6256 C382.5464,137.6256 382.5684,137.6476 382.5684,137.8556 L382.5684,140.8426 Z" id="Fill-1001" fill="#0C0A09"></path>
                <path d="M385.2223,140.9612 C385.1403,140.9462 384.9703,140.9392 384.8663,140.9392 L384.7853,140.9392 C384.4443,140.9392 384.3033,140.9982 384.3033,141.2722 L384.3033,141.3022 C384.3033,141.5762 384.4583,141.6432 384.7183,141.6432 L384.7703,141.6432 C384.9403,141.6432 385.0513,141.5912 385.1183,141.5322 C385.2003,141.4582 385.2223,141.3692 385.2223,141.1692 L385.2223,140.9612 Z M385.4743,142.1172 C385.3263,142.3402 384.9703,142.4882 384.5033,142.4882 L384.3923,142.4882 C383.6503,142.4882 383.1913,142.0952 383.1913,141.3462 L383.1913,141.2652 C383.1913,140.4352 383.6583,140.1682 384.6513,140.1682 L384.7033,140.1682 C384.8963,140.1682 385.1113,140.1832 385.2223,140.1972 L385.2223,140.0422 C385.2223,139.8942 385.2003,139.7902 385.0963,139.7162 C385.0073,139.6562 384.8963,139.6342 384.6513,139.6342 C384.3923,139.6342 384.0803,139.6862 383.7913,139.7602 C383.6063,139.8052 383.5623,139.7452 383.5393,139.6192 L383.4803,139.2262 C383.4733,139.1742 383.4653,139.1082 383.4653,139.0782 C383.4653,138.9822 383.4953,138.9302 383.6433,138.8852 C383.9543,138.7962 384.4073,138.7222 384.9113,138.7222 C385.5043,138.7222 385.8893,138.8412 386.1263,139.0862 C386.3193,139.2862 386.4083,139.5752 386.4083,140.0122 L386.4083,142.2142 C386.4083,142.3622 386.3493,142.4212 386.1563,142.4212 L385.8083,142.4212 C385.6373,142.4212 385.5783,142.3842 385.5333,142.2512 L385.4893,142.1172 L385.4743,142.1172 Z" id="Fill-1003" fill="#0C0A09"></path>
                <path d="M389.2328,142.2733 C389.1888,142.3693 389.1288,142.4213 388.9738,142.4213 L388.1658,142.4213 C388.0168,142.4213 387.9428,142.3843 387.8908,142.2663 C387.5578,141.4953 387.0238,140.0343 386.7788,139.0043 C386.7418,138.8483 386.8158,138.7893 386.9868,138.7893 L387.6758,138.7893 C387.8388,138.7893 387.8908,138.8113 387.9278,138.9593 C388.1288,139.7233 388.4178,140.7093 388.5658,141.1463 L388.5948,141.1463 C388.7438,140.6943 389.0108,139.7303 389.1808,138.9893 C389.2178,138.8263 389.2628,138.7893 389.4258,138.7893 L390.1298,138.7893 C390.2998,138.7893 390.3668,138.8483 390.3228,139.0043 C390.0558,139.9903 389.5668,141.4953 389.2328,142.2733" id="Fill-1004" fill="#0C0A09"></path>
                <path d="M392.6205,140.9612 C392.5385,140.9462 392.3685,140.9392 392.2645,140.9392 L392.1835,140.9392 C391.8425,140.9392 391.7015,140.9982 391.7015,141.2722 L391.7015,141.3022 C391.7015,141.5762 391.8565,141.6432 392.1165,141.6432 L392.1685,141.6432 C392.3385,141.6432 392.4505,141.5912 392.5165,141.5322 C392.5985,141.4582 392.6205,141.3692 392.6205,141.1692 L392.6205,140.9612 Z M392.8725,142.1172 C392.7245,142.3402 392.3685,142.4882 391.9015,142.4882 L391.7905,142.4882 C391.0485,142.4882 390.5895,142.0952 390.5895,141.3462 L390.5895,141.2652 C390.5895,140.4352 391.0565,140.1682 392.0495,140.1682 L392.1015,140.1682 C392.2945,140.1682 392.5095,140.1832 392.6205,140.1972 L392.6205,140.0422 C392.6205,139.8942 392.5985,139.7902 392.4945,139.7162 C392.4055,139.6562 392.2945,139.6342 392.0495,139.6342 C391.7905,139.6342 391.4785,139.6862 391.1895,139.7602 C391.0045,139.8052 390.9605,139.7452 390.9375,139.6192 L390.8785,139.2262 C390.8715,139.1742 390.8635,139.1082 390.8635,139.0782 C390.8635,138.9822 390.8935,138.9302 391.0415,138.8852 C391.3525,138.7962 391.8055,138.7222 392.3095,138.7222 C392.9025,138.7222 393.2875,138.8412 393.5245,139.0862 C393.7175,139.2862 393.8065,139.5752 393.8065,140.0122 L393.8065,142.2142 C393.8065,142.3622 393.7475,142.4212 393.5545,142.4212 L393.2065,142.4212 C393.0355,142.4212 392.9765,142.3842 392.9315,142.2512 L392.8875,142.1172 L392.8725,142.1172 Z" id="Fill-1005" fill="#0C0A09"></path>
                <path d="M397.5353,141.4133 C397.7353,141.4133 397.7943,141.4653 397.7943,141.6503 L397.7943,142.1843 C397.7943,142.3843 397.7353,142.4213 397.5353,142.4213 L394.5923,142.4213 C394.3623,142.4213 394.3103,142.3623 394.3103,142.1693 L394.3103,141.9473 C394.3103,141.7843 394.3333,141.7173 394.4293,141.5613 L396.1933,138.6333 L394.6593,138.6333 C394.4593,138.6333 394.3993,138.5813 394.3993,138.4033 L394.3993,137.8623 C394.3993,137.6703 394.4593,137.6253 394.6593,137.6253 L397.5353,137.6253 C397.7133,137.6253 397.7723,137.6623 397.7723,137.8403 L397.7723,138.0923 C397.7723,138.2483 397.7433,138.3373 397.6243,138.5293 L395.8153,141.4133 L397.5353,141.4133 Z" id="Fill-1006" fill="#0C0A09"></path>
                <path d="M399.4553,140.8945 C399.4553,141.2205 399.4773,141.3465 399.5883,141.4575 C399.6553,141.5245 399.7523,141.5615 399.9003,141.5615 L399.9293,141.5615 C400.0783,141.5615 400.1743,141.5245 400.2413,141.4575 C400.3523,141.3465 400.3743,141.2205 400.3743,140.8945 L400.3743,140.3165 C400.3743,139.9905 400.3523,139.8645 400.2413,139.7525 C400.1743,139.6865 400.0783,139.6495 399.9293,139.6495 L399.9003,139.6495 C399.7523,139.6495 399.6553,139.6865 399.5883,139.7525 C399.4773,139.8645 399.4553,139.9905 399.4553,140.3165 L399.4553,140.8945 Z M401.5683,140.8425 C401.5683,141.5985 401.4123,141.9545 401.1013,142.1995 C400.8863,142.3695 400.4853,142.4885 399.9593,142.4885 L399.8703,142.4885 C399.3443,142.4885 398.9433,142.3695 398.7293,142.1995 C398.4173,141.9545 398.2623,141.5985 398.2623,140.8425 L398.2623,140.3685 C398.2623,139.6125 398.4173,139.2565 398.7293,139.0115 C398.9433,138.8415 399.3443,138.7225 399.8703,138.7225 L399.9593,138.7225 C400.4853,138.7225 400.8863,138.8415 401.1013,139.0115 C401.4123,139.2565 401.5683,139.6045 401.5683,140.3605 L401.5683,140.8425 Z" id="Fill-1007" fill="#0C0A09"></path>
                <path d="M404.207,138.7225 C404.644,138.7225 404.956,138.8265 405.148,139.0265 C405.349,139.2345 405.423,139.5085 405.423,140.0045 L405.423,142.2065 C405.423,142.3475 405.371,142.4215 405.171,142.4215 L404.489,142.4215 C404.289,142.4215 404.237,142.3475 404.237,142.2065 L404.237,140.1085 C404.237,139.9385 404.214,139.8345 404.155,139.7675 C404.096,139.7015 403.977,139.6715 403.829,139.6715 L403.784,139.6715 C403.636,139.6715 403.518,139.7015 403.458,139.7675 C403.399,139.8345 403.377,139.9305 403.377,140.1085 L403.377,142.2065 C403.377,142.3475 403.325,142.4215 403.125,142.4215 L402.443,142.4215 C402.243,142.4215 402.191,142.3475 402.191,142.2065 L402.191,138.9965 C402.191,138.8485 402.25,138.7895 402.443,138.7895 L402.791,138.7895 C402.962,138.7895 403.021,138.8185 403.065,138.9595 L403.11,139.1005 L403.132,139.1005 C403.369,138.8485 403.71,138.7225 404.148,138.7225 L404.207,138.7225 Z" id="Fill-1008" fill="#0C0A09"></path>
                <path d="M408.0025,140.2421 C408.0695,140.2421 408.0915,140.2121 408.0915,140.1461 L408.0915,140.0271 C408.0915,139.8791 408.0695,139.7681 408.0175,139.6861 C407.9505,139.5901 407.8395,139.5531 407.6765,139.5531 L407.6095,139.5531 C407.4765,139.5531 407.3655,139.5821 407.2985,139.6561 C407.2245,139.7381 407.1875,139.8641 407.1875,140.0571 L407.1875,140.2421 L408.0025,140.2421 Z M407.9585,141.5321 C408.1955,141.5321 408.5585,141.4801 408.7435,141.4361 C408.7805,141.4281 408.8325,141.4131 408.8845,141.4131 C408.9515,141.4131 409.0035,141.4651 409.0185,141.5391 L409.0775,141.9101 C409.0925,141.9841 409.1065,142.0581 409.1065,142.1101 C409.1065,142.2061 409.0695,142.2581 408.9145,142.3101 C408.6175,142.4141 408.1585,142.4881 407.7945,142.4881 L407.6545,142.4881 C407.0685,142.4881 406.6165,142.3621 406.3645,142.1101 C406.0675,141.8141 405.9935,141.4361 405.9935,140.8351 L405.9935,140.4201 C405.9935,139.6791 406.1865,139.2781 406.4385,139.0561 C406.6835,138.8411 407.0685,138.7221 407.6025,138.7221 L407.7055,138.7221 C408.2395,138.7221 408.6255,138.8711 408.8255,139.0931 C409.0845,139.3821 409.1815,139.7821 409.1815,140.4201 L409.1815,140.8051 C409.1815,140.9611 409.1145,141.0131 408.9665,141.0131 L407.1875,141.0131 L407.1875,141.0721 C407.1875,141.4211 407.3575,141.5321 407.8765,141.5321 L407.9585,141.5321 Z" id="Fill-1009" fill="#0C0A09"></path>
                <path d="M669.1589,104.3134 L584.8839,105.0054 L585.1129,158.8924 L667.2349,158.8924 L669.1589,104.3134 Z" id="Fill-1010" fill="#FFFFFF"></path>
                <path d="M669.1589,104.3134 L584.8839,105.0054 L585.1129,158.8924 L667.2349,158.8924 L669.1589,104.3134 L669.1589,104.3134 Z" id="Stroke-1011" stroke="#B2C1AC"></path>
            </g>
            <path d="M614.9961,132.8214 C614.4221,132.9544 614.1931,132.6474 614.4851,132.1354 L621.6111,119.6544 L635.4431,115.8034 C636.0111,115.6444 636.4721,115.9944 636.4721,116.5844 L636.4721,126.7704 C636.4721,127.3604 636.0061,127.9464 635.4321,128.0794 L614.9961,132.8214 Z" id="Fill-1013" fill="#E87E41" sketch:type="MSShapeGroup"></path>
            <path d="M615.3228,117.663 C614.7608,117.486 614.4748,117.789 614.6848,118.34 L619.3338,130.572 L625.7768,134.309 L634.4028,133.258 L634.6478,133.228 C635.2328,133.157 635.4348,132.706 635.0988,132.222 L627.6988,121.57 L615.3228,117.663 Z" id="Fill-1015" fill="#DF4C49" sketch:type="MSShapeGroup"></path>
            <g id="Group-1020" transform="translate(611.000000, 115.000000)" sketch:type="MSShapeGroup">
                <path d="M7.3015,12.9392 L8.7605,16.7112 L12.3825,18.9322 C12.8855,19.2402 13.7675,19.4342 14.3535,19.3642 C14.3535,19.3642 23.1775,18.3122 23.6045,18.2412 C24.0315,18.1702 24.1735,18.0272 24.2455,17.8142 L10.2555,9.9142 L7.3015,12.9392 Z" id="Fill-1017" fill="#8F2034"></path>
                <path d="M25.1705,0.9121 C23.4885,2.2821 3.5285,17.6721 3.3855,17.6721 C3.2795,17.4581 3.4925,17.1021 3.4925,17.1021 L10.6065,4.6541 L24.4225,0.8051 C24.4225,0.8051 24.8505,0.6631 25.1705,0.9121" id="Fill-1019" fill="#F0AB2B"></path>
            </g>
            <g id="Group-1032" sketch:type="MSShapeGroup">
                <path d="M613.5521,140.8426 C613.5521,141.6136 613.5001,141.9766 613.1811,142.1996 C612.9001,142.3996 612.5221,142.4216 612.0181,142.4216 L611.5361,142.4216 C611.3581,142.4216 611.2911,142.3696 611.2911,142.1696 L611.2911,141.6656 C611.2911,141.4426 611.3581,141.3986 611.5511,141.3986 L611.9061,141.3986 C612.0401,141.3986 612.1661,141.3986 612.2321,141.3316 C612.3071,141.2576 612.3071,141.1616 612.3071,140.8056 L612.3071,137.8556 C612.3071,137.6476 612.3441,137.6256 612.5731,137.6256 L613.3001,137.6256 C613.5301,137.6256 613.5521,137.6476 613.5521,137.8556 L613.5521,140.8426 Z" id="Fill-1021" fill="#0C0A09"></path>
                <path d="M616.206,140.9612 C616.125,140.9462 615.954,140.9392 615.85,140.9392 L615.769,140.9392 C615.428,140.9392 615.287,140.9982 615.287,141.2722 L615.287,141.3022 C615.287,141.5762 615.443,141.6432 615.702,141.6432 L615.754,141.6432 C615.924,141.6432 616.036,141.5912 616.102,141.5322 C616.184,141.4582 616.206,141.3692 616.206,141.1692 L616.206,140.9612 Z M616.458,142.1172 C616.31,142.3402 615.954,142.4882 615.487,142.4882 L615.376,142.4882 C614.635,142.4882 614.175,142.0952 614.175,141.3462 L614.175,141.2652 C614.175,140.4352 614.642,140.1682 615.635,140.1682 L615.687,140.1682 C615.88,140.1682 616.095,140.1832 616.206,140.1972 L616.206,140.0422 C616.206,139.8942 616.184,139.7902 616.08,139.7162 C615.991,139.6562 615.88,139.6342 615.635,139.6342 C615.376,139.6342 615.064,139.6862 614.775,139.7602 C614.59,139.8052 614.546,139.7452 614.523,139.6192 L614.464,139.2262 C614.457,139.1742 614.449,139.1082 614.449,139.0782 C614.449,138.9822 614.479,138.9302 614.627,138.8852 C614.938,138.7962 615.391,138.7222 615.895,138.7222 C616.488,138.7222 616.873,138.8412 617.11,139.0862 C617.303,139.2862 617.392,139.5752 617.392,140.0122 L617.392,142.2142 C617.392,142.3622 617.333,142.4212 617.14,142.4212 L616.792,142.4212 C616.621,142.4212 616.562,142.3842 616.517,142.2512 L616.473,142.1172 L616.458,142.1172 Z" id="Fill-1023" fill="#0C0A09"></path>
                <path d="M620.2165,142.2733 C620.1725,142.3693 620.1125,142.4213 619.9575,142.4213 L619.1495,142.4213 C619.0005,142.4213 618.9265,142.3843 618.8745,142.2663 C618.5415,141.4953 618.0075,140.0343 617.7625,139.0043 C617.7255,138.8483 617.7995,138.7893 617.9705,138.7893 L618.6595,138.7893 C618.8225,138.7893 618.8745,138.8113 618.9115,138.9593 C619.1115,139.7233 619.4015,140.7093 619.5495,141.1463 L619.5785,141.1463 C619.7275,140.6943 619.9945,139.7303 620.1645,138.9893 C620.2015,138.8263 620.2465,138.7893 620.4095,138.7893 L621.1135,138.7893 C621.2835,138.7893 621.3505,138.8483 621.3065,139.0043 C621.0395,139.9903 620.5505,141.4953 620.2165,142.2733" id="Fill-1024" fill="#0C0A09"></path>
                <path d="M623.6042,140.9612 C623.5232,140.9462 623.3522,140.9392 623.2482,140.9392 L623.1672,140.9392 C622.8262,140.9392 622.6852,140.9982 622.6852,141.2722 L622.6852,141.3022 C622.6852,141.5762 622.8412,141.6432 623.1002,141.6432 L623.1522,141.6432 C623.3222,141.6432 623.4342,141.5912 623.5002,141.5322 C623.5822,141.4582 623.6042,141.3692 623.6042,141.1692 L623.6042,140.9612 Z M623.8562,142.1172 C623.7082,142.3402 623.3522,142.4882 622.8852,142.4882 L622.7742,142.4882 C622.0332,142.4882 621.5732,142.0952 621.5732,141.3462 L621.5732,141.2652 C621.5732,140.4352 622.0402,140.1682 623.0332,140.1682 L623.0852,140.1682 C623.2782,140.1682 623.4932,140.1832 623.6042,140.1972 L623.6042,140.0422 C623.6042,139.8942 623.5822,139.7902 623.4782,139.7162 C623.3892,139.6562 623.2782,139.6342 623.0332,139.6342 C622.7742,139.6342 622.4622,139.6862 622.1732,139.7602 C621.9882,139.8052 621.9442,139.7452 621.9212,139.6192 L621.8622,139.2262 C621.8552,139.1742 621.8472,139.1082 621.8472,139.0782 C621.8472,138.9822 621.8772,138.9302 622.0252,138.8852 C622.3362,138.7962 622.7892,138.7222 623.2932,138.7222 C623.8862,138.7222 624.2712,138.8412 624.5082,139.0862 C624.7012,139.2862 624.7902,139.5752 624.7902,140.0122 L624.7902,142.2142 C624.7902,142.3622 624.7312,142.4212 624.5382,142.4212 L624.1902,142.4212 C624.0192,142.4212 623.9602,142.3842 623.9152,142.2512 L623.8712,142.1172 L623.8562,142.1172 Z" id="Fill-1025" fill="#0C0A09"></path>
                <path d="M628.519,141.4133 C628.719,141.4133 628.778,141.4653 628.778,141.6503 L628.778,142.1843 C628.778,142.3843 628.719,142.4213 628.519,142.4213 L625.576,142.4213 C625.346,142.4213 625.294,142.3623 625.294,142.1693 L625.294,141.9473 C625.294,141.7843 625.317,141.7173 625.413,141.5613 L627.177,138.6333 L625.643,138.6333 C625.443,138.6333 625.383,138.5813 625.383,138.4033 L625.383,137.8623 C625.383,137.6703 625.443,137.6253 625.643,137.6253 L628.519,137.6253 C628.697,137.6253 628.756,137.6623 628.756,137.8403 L628.756,138.0923 C628.756,138.2483 628.727,138.3373 628.608,138.5293 L626.799,141.4133 L628.519,141.4133 Z" id="Fill-1026" fill="#0C0A09"></path>
                <path d="M630.439,140.8945 C630.439,141.2205 630.461,141.3465 630.572,141.4575 C630.639,141.5245 630.736,141.5615 630.884,141.5615 L630.913,141.5615 C631.062,141.5615 631.158,141.5245 631.225,141.4575 C631.336,141.3465 631.358,141.2205 631.358,140.8945 L631.358,140.3165 C631.358,139.9905 631.336,139.8645 631.225,139.7525 C631.158,139.6865 631.062,139.6495 630.913,139.6495 L630.884,139.6495 C630.736,139.6495 630.639,139.6865 630.572,139.7525 C630.461,139.8645 630.439,139.9905 630.439,140.3165 L630.439,140.8945 Z M632.552,140.8425 C632.552,141.5985 632.396,141.9545 632.085,142.1995 C631.87,142.3695 631.469,142.4885 630.943,142.4885 L630.854,142.4885 C630.328,142.4885 629.927,142.3695 629.713,142.1995 C629.401,141.9545 629.246,141.5985 629.246,140.8425 L629.246,140.3685 C629.246,139.6125 629.401,139.2565 629.713,139.0115 C629.927,138.8415 630.328,138.7225 630.854,138.7225 L630.943,138.7225 C631.469,138.7225 631.87,138.8415 632.085,139.0115 C632.396,139.2565 632.552,139.6045 632.552,140.3605 L632.552,140.8425 Z" id="Fill-1027" fill="#0C0A09"></path>
                <path d="M635.1907,138.7225 C635.6277,138.7225 635.9397,138.8265 636.1317,139.0265 C636.3327,139.2345 636.4067,139.5085 636.4067,140.0045 L636.4067,142.2065 C636.4067,142.3475 636.3547,142.4215 636.1547,142.4215 L635.4727,142.4215 C635.2727,142.4215 635.2207,142.3475 635.2207,142.2065 L635.2207,140.1085 C635.2207,139.9385 635.1977,139.8345 635.1387,139.7675 C635.0797,139.7015 634.9607,139.6715 634.8127,139.6715 L634.7677,139.6715 C634.6197,139.6715 634.5017,139.7015 634.4417,139.7675 C634.3827,139.8345 634.3607,139.9305 634.3607,140.1085 L634.3607,142.2065 C634.3607,142.3475 634.3087,142.4215 634.1087,142.4215 L633.4267,142.4215 C633.2267,142.4215 633.1747,142.3475 633.1747,142.2065 L633.1747,138.9965 C633.1747,138.8485 633.2337,138.7895 633.4267,138.7895 L633.7747,138.7895 C633.9457,138.7895 634.0047,138.8185 634.0487,138.9595 L634.0937,139.1005 L634.1157,139.1005 C634.3527,138.8485 634.6937,138.7225 635.1317,138.7225 L635.1907,138.7225 Z" id="Fill-1028" fill="#0C0A09"></path>
                <path d="M638.9862,140.2421 C639.0532,140.2421 639.0752,140.2121 639.0752,140.1461 L639.0752,140.0271 C639.0752,139.8791 639.0532,139.7681 639.0012,139.6861 C638.9342,139.5901 638.8232,139.5531 638.6602,139.5531 L638.5932,139.5531 C638.4602,139.5531 638.3492,139.5821 638.2822,139.6561 C638.2082,139.7381 638.1712,139.8641 638.1712,140.0571 L638.1712,140.2421 L638.9862,140.2421 Z M638.9422,141.5321 C639.1792,141.5321 639.5422,141.4801 639.7272,141.4361 C639.7642,141.4281 639.8162,141.4131 639.8682,141.4131 C639.9352,141.4131 639.9872,141.4651 640.0022,141.5391 L640.0612,141.9101 C640.0762,141.9841 640.0902,142.0581 640.0902,142.1101 C640.0902,142.2061 640.0532,142.2581 639.8982,142.3101 C639.6012,142.4141 639.1422,142.4881 638.7782,142.4881 L638.6382,142.4881 C638.0522,142.4881 637.6002,142.3621 637.3482,142.1101 C637.0512,141.8141 636.9772,141.4361 636.9772,140.8351 L636.9772,140.4201 C636.9772,139.6791 637.1702,139.2781 637.4222,139.0561 C637.6662,138.8411 638.0522,138.7221 638.5862,138.7221 L638.6892,138.7221 C639.2232,138.7221 639.6092,138.8711 639.8092,139.0931 C640.0682,139.3821 640.1652,139.7821 640.1652,140.4201 L640.1652,140.8051 C640.1652,140.9611 640.0982,141.0131 639.9502,141.0131 L638.1712,141.0131 L638.1712,141.0721 C638.1712,141.4211 638.3412,141.5321 638.8602,141.5321 L638.9422,141.5321 Z" id="Fill-1029" fill="#0C0A09"></path>
                <path d="M195.0389,102.6787 L286.5529,103.3577 L289.4069,158.8927 L198.7789,160.2747 L195.0389,102.6787 Z" id="Fill-1030" fill="#FFFFFF"></path>
                <path d="M195.0389,102.6787 L286.5529,103.3577 L289.4069,158.8927 L198.7789,160.2747 L195.0389,102.6787 L195.0389,102.6787 Z" id="Stroke-1031" stroke="#B2C1AC"></path>
            </g>
            <path d="M230.7399,132.8214 C230.1659,132.9544 229.9369,132.6474 230.2289,132.1354 L237.3549,119.6544 L251.1869,115.8034 C251.7549,115.6444 252.2159,115.9944 252.2159,116.5844 L252.2159,126.7704 C252.2159,127.3604 251.7499,127.9464 251.1759,128.0794 L230.7399,132.8214 Z" id="Fill-1033" fill="#E87E41" sketch:type="MSShapeGroup"></path>
            <path d="M231.0666,117.663 C230.5046,117.486 230.2186,117.789 230.4286,118.34 L235.0776,130.572 L241.5206,134.309 L250.1466,133.258 L250.3916,133.228 C250.9766,133.157 251.1786,132.706 250.8426,132.222 L243.4426,121.57 L231.0666,117.663 Z" id="Fill-1035" fill="#DF4C49" sketch:type="MSShapeGroup"></path>
            <g id="Group-1040" transform="translate(227.000000, 115.000000)" sketch:type="MSShapeGroup">
                <path d="M7.0453,12.9392 L8.5043,16.7112 L12.1263,18.9322 C12.6293,19.2402 13.5113,19.4342 14.0973,19.3642 C14.0973,19.3642 22.9213,18.3122 23.3483,18.2412 C23.7753,18.1702 23.9173,18.0272 23.9893,17.8142 L9.9993,9.9142 L7.0453,12.9392 Z" id="Fill-1037" fill="#8F2034"></path>
                <path d="M24.9143,0.9121 C23.2323,2.2821 3.2723,17.6721 3.1293,17.6721 C3.0233,17.4581 3.2363,17.1021 3.2363,17.1021 L10.3503,4.6541 L24.1663,0.8051 C24.1663,0.8051 24.5943,0.6631 24.9143,0.9121" id="Fill-1039" fill="#F0AB2B"></path>
            </g>
            <g id="Group-1052" sketch:type="MSShapeGroup">
                <path d="M229.2959,140.8426 C229.2959,141.6136 229.2439,141.9766 228.9249,142.1996 C228.6439,142.3996 228.2659,142.4216 227.7619,142.4216 L227.2799,142.4216 C227.1019,142.4216 227.0349,142.3696 227.0349,142.1696 L227.0349,141.6656 C227.0349,141.4426 227.1019,141.3986 227.2949,141.3986 L227.6499,141.3986 C227.7839,141.3986 227.9099,141.3986 227.9759,141.3316 C228.0509,141.2576 228.0509,141.1616 228.0509,140.8056 L228.0509,137.8556 C228.0509,137.6476 228.0879,137.6256 228.3169,137.6256 L229.0439,137.6256 C229.2739,137.6256 229.2959,137.6476 229.2959,137.8556 L229.2959,140.8426 Z" id="Fill-1041" fill="#0C0A09"></path>
                <path d="M231.9498,140.9612 C231.8678,140.9462 231.6978,140.9392 231.5938,140.9392 L231.5128,140.9392 C231.1718,140.9392 231.0308,140.9982 231.0308,141.2722 L231.0308,141.3022 C231.0308,141.5762 231.1858,141.6432 231.4458,141.6432 L231.4978,141.6432 C231.6678,141.6432 231.7798,141.5912 231.8458,141.5322 C231.9278,141.4582 231.9498,141.3692 231.9498,141.1692 L231.9498,140.9612 Z M232.2018,142.1172 C232.0538,142.3402 231.6978,142.4882 231.2308,142.4882 L231.1198,142.4882 C230.3778,142.4882 229.9188,142.0952 229.9188,141.3462 L229.9188,141.2652 C229.9188,140.4352 230.3858,140.1682 231.3788,140.1682 L231.4308,140.1682 C231.6238,140.1682 231.8388,140.1832 231.9498,140.1972 L231.9498,140.0422 C231.9498,139.8942 231.9278,139.7902 231.8238,139.7162 C231.7348,139.6562 231.6238,139.6342 231.3788,139.6342 C231.1198,139.6342 230.8078,139.6862 230.5188,139.7602 C230.3338,139.8052 230.2898,139.7452 230.2668,139.6192 L230.2078,139.2262 C230.2008,139.1742 230.1928,139.1082 230.1928,139.0782 C230.1928,138.9822 230.2228,138.9302 230.3708,138.8852 C230.6818,138.7962 231.1348,138.7222 231.6388,138.7222 C232.2318,138.7222 232.6168,138.8412 232.8538,139.0862 C233.0468,139.2862 233.1358,139.5752 233.1358,140.0122 L233.1358,142.2142 C233.1358,142.3622 233.0768,142.4212 232.8838,142.4212 L232.5358,142.4212 C232.3648,142.4212 232.3058,142.3842 232.2608,142.2512 L232.2168,142.1172 L232.2018,142.1172 Z" id="Fill-1043" fill="#0C0A09"></path>
                <path d="M235.9603,142.2733 C235.9163,142.3693 235.8563,142.4213 235.7013,142.4213 L234.8933,142.4213 C234.7443,142.4213 234.6703,142.3843 234.6183,142.2663 C234.2853,141.4953 233.7513,140.0343 233.5063,139.0043 C233.4693,138.8483 233.5433,138.7893 233.7143,138.7893 L234.4033,138.7893 C234.5663,138.7893 234.6183,138.8113 234.6553,138.9593 C234.8553,139.7233 235.1453,140.7093 235.2933,141.1463 L235.3223,141.1463 C235.4713,140.6943 235.7383,139.7303 235.9083,138.9893 C235.9453,138.8263 235.9903,138.7893 236.1533,138.7893 L236.8573,138.7893 C237.0273,138.7893 237.0943,138.8483 237.0503,139.0043 C236.7833,139.9903 236.2943,141.4953 235.9603,142.2733" id="Fill-1044" fill="#0C0A09"></path>
                <path d="M239.348,140.9612 C239.267,140.9462 239.096,140.9392 238.992,140.9392 L238.911,140.9392 C238.57,140.9392 238.429,140.9982 238.429,141.2722 L238.429,141.3022 C238.429,141.5762 238.584,141.6432 238.844,141.6432 L238.896,141.6432 C239.066,141.6432 239.178,141.5912 239.244,141.5322 C239.326,141.4582 239.348,141.3692 239.348,141.1692 L239.348,140.9612 Z M239.6,142.1172 C239.452,142.3402 239.096,142.4882 238.629,142.4882 L238.518,142.4882 C237.777,142.4882 237.317,142.0952 237.317,141.3462 L237.317,141.2652 C237.317,140.4352 237.784,140.1682 238.777,140.1682 L238.829,140.1682 C239.022,140.1682 239.237,140.1832 239.348,140.1972 L239.348,140.0422 C239.348,139.8942 239.326,139.7902 239.222,139.7162 C239.133,139.6562 239.022,139.6342 238.777,139.6342 C238.518,139.6342 238.206,139.6862 237.917,139.7602 C237.732,139.8052 237.688,139.7452 237.665,139.6192 L237.606,139.2262 C237.599,139.1742 237.591,139.1082 237.591,139.0782 C237.591,138.9822 237.621,138.9302 237.769,138.8852 C238.08,138.7962 238.533,138.7222 239.037,138.7222 C239.63,138.7222 240.015,138.8412 240.252,139.0862 C240.445,139.2862 240.534,139.5752 240.534,140.0122 L240.534,142.2142 C240.534,142.3622 240.475,142.4212 240.282,142.4212 L239.934,142.4212 C239.763,142.4212 239.704,142.3842 239.659,142.2512 L239.615,142.1172 L239.6,142.1172 Z" id="Fill-1045" fill="#0C0A09"></path>
                <path d="M244.2628,141.4133 C244.4628,141.4133 244.5218,141.4653 244.5218,141.6503 L244.5218,142.1843 C244.5218,142.3843 244.4628,142.4213 244.2628,142.4213 L241.3198,142.4213 C241.0898,142.4213 241.0378,142.3623 241.0378,142.1693 L241.0378,141.9473 C241.0378,141.7843 241.0608,141.7173 241.1568,141.5613 L242.9208,138.6333 L241.3868,138.6333 C241.1868,138.6333 241.1268,138.5813 241.1268,138.4033 L241.1268,137.8623 C241.1268,137.6703 241.1868,137.6253 241.3868,137.6253 L244.2628,137.6253 C244.4408,137.6253 244.4998,137.6623 244.4998,137.8403 L244.4998,138.0923 C244.4998,138.2483 244.4708,138.3373 244.3518,138.5293 L242.5428,141.4133 L244.2628,141.4133 Z" id="Fill-1046" fill="#0C0A09"></path>
                <path d="M246.1828,140.8945 C246.1828,141.2205 246.2048,141.3465 246.3158,141.4575 C246.3828,141.5245 246.4798,141.5615 246.6278,141.5615 L246.6568,141.5615 C246.8058,141.5615 246.9018,141.5245 246.9688,141.4575 C247.0798,141.3465 247.1018,141.2205 247.1018,140.8945 L247.1018,140.3165 C247.1018,139.9905 247.0798,139.8645 246.9688,139.7525 C246.9018,139.6865 246.8058,139.6495 246.6568,139.6495 L246.6278,139.6495 C246.4798,139.6495 246.3828,139.6865 246.3158,139.7525 C246.2048,139.8645 246.1828,139.9905 246.1828,140.3165 L246.1828,140.8945 Z M248.2958,140.8425 C248.2958,141.5985 248.1398,141.9545 247.8288,142.1995 C247.6138,142.3695 247.2128,142.4885 246.6868,142.4885 L246.5978,142.4885 C246.0718,142.4885 245.6708,142.3695 245.4568,142.1995 C245.1448,141.9545 244.9898,141.5985 244.9898,140.8425 L244.9898,140.3685 C244.9898,139.6125 245.1448,139.2565 245.4568,139.0115 C245.6708,138.8415 246.0718,138.7225 246.5978,138.7225 L246.6868,138.7225 C247.2128,138.7225 247.6138,138.8415 247.8288,139.0115 C248.1398,139.2565 248.2958,139.6045 248.2958,140.3605 L248.2958,140.8425 Z" id="Fill-1047" fill="#0C0A09"></path>
                <path d="M250.9345,138.7225 C251.3715,138.7225 251.6835,138.8265 251.8755,139.0265 C252.0765,139.2345 252.1505,139.5085 252.1505,140.0045 L252.1505,142.2065 C252.1505,142.3475 252.0985,142.4215 251.8985,142.4215 L251.2165,142.4215 C251.0165,142.4215 250.9645,142.3475 250.9645,142.2065 L250.9645,140.1085 C250.9645,139.9385 250.9415,139.8345 250.8825,139.7675 C250.8235,139.7015 250.7045,139.6715 250.5565,139.6715 L250.5115,139.6715 C250.3635,139.6715 250.2455,139.7015 250.1855,139.7675 C250.1265,139.8345 250.1045,139.9305 250.1045,140.1085 L250.1045,142.2065 C250.1045,142.3475 250.0525,142.4215 249.8525,142.4215 L249.1705,142.4215 C248.9705,142.4215 248.9185,142.3475 248.9185,142.2065 L248.9185,138.9965 C248.9185,138.8485 248.9775,138.7895 249.1705,138.7895 L249.5185,138.7895 C249.6895,138.7895 249.7485,138.8185 249.7925,138.9595 L249.8375,139.1005 L249.8595,139.1005 C250.0965,138.8485 250.4375,138.7225 250.8755,138.7225 L250.9345,138.7225 Z" id="Fill-1048" fill="#0C0A09"></path>
                <path d="M254.73,140.2421 C254.797,140.2421 254.819,140.2121 254.819,140.1461 L254.819,140.0271 C254.819,139.8791 254.797,139.7681 254.745,139.6861 C254.678,139.5901 254.567,139.5531 254.404,139.5531 L254.337,139.5531 C254.204,139.5531 254.093,139.5821 254.026,139.6561 C253.952,139.7381 253.915,139.8641 253.915,140.0571 L253.915,140.2421 L254.73,140.2421 Z M254.686,141.5321 C254.923,141.5321 255.286,141.4801 255.471,141.4361 C255.508,141.4281 255.56,141.4131 255.612,141.4131 C255.679,141.4131 255.731,141.4651 255.746,141.5391 L255.805,141.9101 C255.82,141.9841 255.835,142.0581 255.835,142.1101 C255.835,142.2061 255.797,142.2581 255.642,142.3101 C255.345,142.4141 254.886,142.4881 254.522,142.4881 L254.382,142.4881 C253.796,142.4881 253.344,142.3621 253.092,142.1101 C252.795,141.8141 252.721,141.4361 252.721,140.8351 L252.721,140.4201 C252.721,139.6791 252.914,139.2781 253.166,139.0561 C253.411,138.8411 253.796,138.7221 254.33,138.7221 L254.433,138.7221 C254.967,138.7221 255.353,138.8711 255.553,139.0931 C255.812,139.3821 255.909,139.7821 255.909,140.4201 L255.909,140.8051 C255.909,140.9611 255.842,141.0131 255.694,141.0131 L253.915,141.0131 L253.915,141.0721 C253.915,141.4211 254.085,141.5321 254.604,141.5321 L254.686,141.5321 Z" id="Fill-1049" fill="#0C0A09"></path>
                <path d="M827.6356,102.5122 L733.9196,103.3572 L731.0656,158.8922 L822.5656,159.9752 L827.6356,102.5122 Z" id="Fill-1050" fill="#FFFFFF"></path>
                <path d="M827.6356,102.5122 L733.9196,103.3572 L731.0656,158.8922 L822.5656,159.9752 L827.6356,102.5122 L827.6356,102.5122 Z" id="Stroke-1051" stroke="#B2C1AC"></path>
            </g>
            <path d="M768.2686,132.8214 C767.6946,132.9544 767.4656,132.6474 767.7576,132.1354 L774.8836,119.6544 L788.7156,115.8034 C789.2836,115.6444 789.7446,115.9944 789.7446,116.5844 L789.7446,126.7704 C789.7446,127.3604 789.2786,127.9464 788.7046,128.0794 L768.2686,132.8214 Z" id="Fill-1053" fill="#E87E41" sketch:type="MSShapeGroup"></path>
            <path d="M768.5953,117.663 C768.0333,117.486 767.7473,117.789 767.9573,118.34 L772.6063,130.572 L779.0493,134.309 L787.6753,133.258 L787.9203,133.228 C788.5053,133.157 788.7073,132.706 788.3713,132.222 L780.9713,121.57 L768.5953,117.663 Z" id="Fill-1055" fill="#DF4C49" sketch:type="MSShapeGroup"></path>
            <g id="Group-1060" transform="translate(764.000000, 115.000000)" sketch:type="MSShapeGroup">
                <path d="M7.574,12.9392 L9.033,16.7112 L12.655,18.9322 C13.158,19.2402 14.04,19.4342 14.626,19.3642 C14.626,19.3642 23.45,18.3122 23.877,18.2412 C24.304,18.1702 24.446,18.0272 24.518,17.8142 L10.528,9.9142 L7.574,12.9392 Z" id="Fill-1057" fill="#8F2034"></path>
                <path d="M25.4431,0.9121 C23.7611,2.2821 3.8011,17.6721 3.6581,17.6721 C3.5521,17.4581 3.7651,17.1021 3.7651,17.1021 L10.8791,4.6541 L24.6951,0.8051 C24.6951,0.8051 25.1231,0.6631 25.4431,0.9121" id="Fill-1059" fill="#F0AB2B"></path>
            </g>
            <g id="Group-1070" fill="#0C0A09" sketch:type="MSShapeGroup">
                <path d="M766.8246,140.8426 C766.8246,141.6136 766.7726,141.9766 766.4536,142.1996 C766.1726,142.3996 765.7946,142.4216 765.2906,142.4216 L764.8086,142.4216 C764.6306,142.4216 764.5636,142.3696 764.5636,142.1696 L764.5636,141.6656 C764.5636,141.4426 764.6306,141.3986 764.8236,141.3986 L765.1786,141.3986 C765.3126,141.3986 765.4386,141.3986 765.5046,141.3316 C765.5796,141.2576 765.5796,141.1616 765.5796,140.8056 L765.5796,137.8556 C765.5796,137.6476 765.6166,137.6256 765.8456,137.6256 L766.5726,137.6256 C766.8026,137.6256 766.8246,137.6476 766.8246,137.8556 L766.8246,140.8426 Z" id="Fill-1061"></path>
                <path d="M769.4785,140.9612 C769.3975,140.9462 769.2265,140.9392 769.1225,140.9392 L769.0415,140.9392 C768.7005,140.9392 768.5595,140.9982 768.5595,141.2722 L768.5595,141.3022 C768.5595,141.5762 768.7155,141.6432 768.9745,141.6432 L769.0265,141.6432 C769.1965,141.6432 769.3085,141.5912 769.3745,141.5322 C769.4565,141.4582 769.4785,141.3692 769.4785,141.1692 L769.4785,140.9612 Z M769.7305,142.1172 C769.5825,142.3402 769.2265,142.4882 768.7595,142.4882 L768.6485,142.4882 C767.9075,142.4882 767.4475,142.0952 767.4475,141.3462 L767.4475,141.2652 C767.4475,140.4352 767.9145,140.1682 768.9075,140.1682 L768.9595,140.1682 C769.1525,140.1682 769.3675,140.1832 769.4785,140.1972 L769.4785,140.0422 C769.4785,139.8942 769.4565,139.7902 769.3525,139.7162 C769.2635,139.6562 769.1525,139.6342 768.9075,139.6342 C768.6485,139.6342 768.3365,139.6862 768.0475,139.7602 C767.8625,139.8052 767.8185,139.7452 767.7955,139.6192 L767.7365,139.2262 C767.7295,139.1742 767.7215,139.1082 767.7215,139.0782 C767.7215,138.9822 767.7515,138.9302 767.8995,138.8852 C768.2105,138.7962 768.6635,138.7222 769.1675,138.7222 C769.7605,138.7222 770.1455,138.8412 770.3825,139.0862 C770.5755,139.2862 770.6645,139.5752 770.6645,140.0122 L770.6645,142.2142 C770.6645,142.3622 770.6055,142.4212 770.4125,142.4212 L770.0645,142.4212 C769.8935,142.4212 769.8345,142.3842 769.7895,142.2512 L769.7455,142.1172 L769.7305,142.1172 Z" id="Fill-1063"></path>
                <path d="M773.489,142.2733 C773.445,142.3693 773.385,142.4213 773.23,142.4213 L772.422,142.4213 C772.273,142.4213 772.199,142.3843 772.147,142.2663 C771.814,141.4953 771.28,140.0343 771.035,139.0043 C770.998,138.8483 771.072,138.7893 771.243,138.7893 L771.932,138.7893 C772.095,138.7893 772.147,138.8113 772.184,138.9593 C772.384,139.7233 772.674,140.7093 772.822,141.1463 L772.851,141.1463 C773,140.6943 773.267,139.7303 773.437,138.9893 C773.474,138.8263 773.519,138.7893 773.682,138.7893 L774.386,138.7893 C774.556,138.7893 774.623,138.8483 774.579,139.0043 C774.312,139.9903 773.823,141.4953 773.489,142.2733" id="Fill-1064"></path>
                <path d="M776.8767,140.9612 C776.7957,140.9462 776.6247,140.9392 776.5207,140.9392 L776.4397,140.9392 C776.0987,140.9392 775.9577,140.9982 775.9577,141.2722 L775.9577,141.3022 C775.9577,141.5762 776.1137,141.6432 776.3727,141.6432 L776.4247,141.6432 C776.5947,141.6432 776.7067,141.5912 776.7727,141.5322 C776.8547,141.4582 776.8767,141.3692 776.8767,141.1692 L776.8767,140.9612 Z M777.1287,142.1172 C776.9807,142.3402 776.6247,142.4882 776.1577,142.4882 L776.0467,142.4882 C775.3057,142.4882 774.8457,142.0952 774.8457,141.3462 L774.8457,141.2652 C774.8457,140.4352 775.3127,140.1682 776.3057,140.1682 L776.3577,140.1682 C776.5507,140.1682 776.7657,140.1832 776.8767,140.1972 L776.8767,140.0422 C776.8767,139.8942 776.8547,139.7902 776.7507,139.7162 C776.6617,139.6562 776.5507,139.6342 776.3057,139.6342 C776.0467,139.6342 775.7347,139.6862 775.4457,139.7602 C775.2607,139.8052 775.2167,139.7452 775.1937,139.6192 L775.1347,139.2262 C775.1277,139.1742 775.1197,139.1082 775.1197,139.0782 C775.1197,138.9822 775.1497,138.9302 775.2977,138.8852 C775.6087,138.7962 776.0617,138.7222 776.5657,138.7222 C777.1587,138.7222 777.5437,138.8412 777.7807,139.0862 C777.9737,139.2862 778.0627,139.5752 778.0627,140.0122 L778.0627,142.2142 C778.0627,142.3622 778.0037,142.4212 777.8107,142.4212 L777.4627,142.4212 C777.2917,142.4212 777.2327,142.3842 777.1877,142.2512 L777.1437,142.1172 L777.1287,142.1172 Z" id="Fill-1065"></path>
                <path d="M781.7916,141.4133 C781.9916,141.4133 782.0506,141.4653 782.0506,141.6503 L782.0506,142.1843 C782.0506,142.3843 781.9916,142.4213 781.7916,142.4213 L778.8486,142.4213 C778.6186,142.4213 778.5666,142.3623 778.5666,142.1693 L778.5666,141.9473 C778.5666,141.7843 778.5896,141.7173 778.6856,141.5613 L780.4496,138.6333 L778.9156,138.6333 C778.7156,138.6333 778.6556,138.5813 778.6556,138.4033 L778.6556,137.8623 C778.6556,137.6703 778.7156,137.6253 778.9156,137.6253 L781.7916,137.6253 C781.9696,137.6253 782.0286,137.6623 782.0286,137.8403 L782.0286,138.0923 C782.0286,138.2483 781.9996,138.3373 781.8806,138.5293 L780.0716,141.4133 L781.7916,141.4133 Z" id="Fill-1066"></path>
                <path d="M783.7115,140.8945 C783.7115,141.2205 783.7335,141.3465 783.8445,141.4575 C783.9115,141.5245 784.0085,141.5615 784.1565,141.5615 L784.1855,141.5615 C784.3345,141.5615 784.4305,141.5245 784.4975,141.4575 C784.6085,141.3465 784.6305,141.2205 784.6305,140.8945 L784.6305,140.3165 C784.6305,139.9905 784.6085,139.8645 784.4975,139.7525 C784.4305,139.6865 784.3345,139.6495 784.1855,139.6495 L784.1565,139.6495 C784.0085,139.6495 783.9115,139.6865 783.8445,139.7525 C783.7335,139.8645 783.7115,139.9905 783.7115,140.3165 L783.7115,140.8945 Z M785.8245,140.8425 C785.8245,141.5985 785.6685,141.9545 785.3575,142.1995 C785.1425,142.3695 784.7415,142.4885 784.2155,142.4885 L784.1265,142.4885 C783.6005,142.4885 783.1995,142.3695 782.9855,142.1995 C782.6735,141.9545 782.5185,141.5985 782.5185,140.8425 L782.5185,140.3685 C782.5185,139.6125 782.6735,139.2565 782.9855,139.0115 C783.1995,138.8415 783.6005,138.7225 784.1265,138.7225 L784.2155,138.7225 C784.7415,138.7225 785.1425,138.8415 785.3575,139.0115 C785.6685,139.2565 785.8245,139.6045 785.8245,140.3605 L785.8245,140.8425 Z" id="Fill-1067"></path>
                <path d="M788.4633,138.7225 C788.9003,138.7225 789.2123,138.8265 789.4043,139.0265 C789.6053,139.2345 789.6793,139.5085 789.6793,140.0045 L789.6793,142.2065 C789.6793,142.3475 789.6273,142.4215 789.4273,142.4215 L788.7453,142.4215 C788.5453,142.4215 788.4933,142.3475 788.4933,142.2065 L788.4933,140.1085 C788.4933,139.9385 788.4703,139.8345 788.4113,139.7675 C788.3523,139.7015 788.2333,139.6715 788.0853,139.6715 L788.0403,139.6715 C787.8923,139.6715 787.7743,139.7015 787.7143,139.7675 C787.6553,139.8345 787.6333,139.9305 787.6333,140.1085 L787.6333,142.2065 C787.6333,142.3475 787.5813,142.4215 787.3813,142.4215 L786.6993,142.4215 C786.4993,142.4215 786.4473,142.3475 786.4473,142.2065 L786.4473,138.9965 C786.4473,138.8485 786.5063,138.7895 786.6993,138.7895 L787.0473,138.7895 C787.2183,138.7895 787.2773,138.8185 787.3213,138.9595 L787.3663,139.1005 L787.3883,139.1005 C787.6253,138.8485 787.9663,138.7225 788.4043,138.7225 L788.4633,138.7225 Z" id="Fill-1068"></path>
                <path d="M792.2587,140.2421 C792.3257,140.2421 792.3477,140.2121 792.3477,140.1461 L792.3477,140.0271 C792.3477,139.8791 792.3257,139.7681 792.2737,139.6861 C792.2067,139.5901 792.0957,139.5531 791.9327,139.5531 L791.8657,139.5531 C791.7327,139.5531 791.6207,139.5821 791.5547,139.6561 C791.4807,139.7381 791.4437,139.8641 791.4437,140.0571 L791.4437,140.2421 L792.2587,140.2421 Z M792.2147,141.5321 C792.4517,141.5321 792.8147,141.4801 792.9997,141.4361 C793.0367,141.4281 793.0887,141.4131 793.1407,141.4131 C793.2077,141.4131 793.2597,141.4651 793.2747,141.5391 L793.3337,141.9101 C793.3487,141.9841 793.3627,142.0581 793.3627,142.1101 C793.3627,142.2061 793.3257,142.2581 793.1707,142.3101 C792.8737,142.4141 792.4147,142.4881 792.0507,142.4881 L791.9107,142.4881 C791.3247,142.4881 790.8727,142.3621 790.6207,142.1101 C790.3237,141.8141 790.2497,141.4361 790.2497,140.8351 L790.2497,140.4201 C790.2497,139.6791 790.4427,139.2781 790.6947,139.0561 C790.9387,138.8411 791.3247,138.7221 791.8587,138.7221 L791.9617,138.7221 C792.4957,138.7221 792.8817,138.8711 793.0817,139.0931 C793.3407,139.3821 793.4377,139.7821 793.4377,140.4201 L793.4377,140.8051 C793.4377,140.9611 793.3707,141.0131 793.2227,141.0131 L791.4437,141.0131 L791.4437,141.0721 C791.4437,141.4211 791.6137,141.5321 792.1327,141.5321 L792.2147,141.5321 Z" id="Fill-1069"></path>
            </g>
            <g id="Group-1078">
                <text id="EXIT" sketch:type="MSTextLayer" font-family="Luckiest Guy" font-size="19.5066" font-weight="normal" fill="#292D2C">
                    <tspan x="675.5635" y="177.969">EXIT</tspan>
                </text>
                <path d="M658.2153,187.2818 L647.2193,187.6248 L647.0413,187.4338 L649.8183,176.8358 L652.8133,179.3778 L657.0333,175.3268 L660.8593,180.4858 L656.4013,183.4148 L658.2153,187.2818 Z" id="Fill-1072" fill="#292D2C" sketch:type="MSShapeGroup"></path>
                <path d="M721.1759,182.8148 L670.1279,182.7948 L670.1279,189.5228 L663.2219,189.5228 L663.2219,196.2748 L655.5249,196.2748 L655.5249,204.9808 L647.3369,204.9808 L647.3369,209.2118 L660.3749,209.2118 L660.3749,205.4268 L660.3819,205.4268 L660.3819,200.8468 L668.0789,200.8468 L668.0789,194.0948 L674.9859,194.0948 L674.9859,187.3658 L721.7889,187.3848 L721.1759,182.8148 Z" id="Fill-1073" fill="#E5B44D" sketch:type="MSShapeGroup"></path>
                <text id="EXIT" sketch:type="MSTextLayer" font-family="Luckiest Guy" font-size="19.5066" font-weight="normal" fill="#292D2C">
                    <tspan x="106.707" y="238.8547">EXIT</tspan>
                </text>
                <path d="M89.3587,248.1674 L78.3627,248.5104 L78.1847,248.3194 L80.9617,237.7214 L83.9567,240.2634 L88.1767,236.2124 L92.0027,241.3714 L87.5447,244.3004 L89.3587,248.1674 Z" id="Fill-1074" fill="#292D2C" sketch:type="MSShapeGroup"></path>
                <path d="M152.3193,243.7004 L101.2713,243.6804 L101.2713,250.4084 L94.3653,250.4084 L94.3653,257.1604 L86.6683,257.1604 L86.6683,265.8664 L78.4803,265.8664 L78.4803,270.0974 L91.5183,270.0974 L91.5183,266.3124 L91.5253,266.3124 L91.5253,261.7324 L99.2223,261.7324 L99.2223,254.9804 L106.1293,254.9804 L106.1293,248.2514 L152.9323,248.2704 L152.3193,243.7004 Z" id="Fill-1075" fill="#E5B44D" sketch:type="MSShapeGroup"></path>
                <path d="M381.422,397.5789 L394.437,353.9709 L621.327,354.4619 L638.659,397.5789 L381.422,397.5789 Z" id="Fill-1076" fill="#292D2C" sketch:type="MSShapeGroup"></path>
                <path d="M392.3263,351.1311 L377.6183,400.4141 L642.8533,400.4141 L623.2443,351.6321 L392.3263,351.1311 Z M396.5483,356.8101 L619.4093,357.2931 L634.4643,394.7441 L385.2273,394.7441 L396.5483,356.8101 Z" id="Fill-1077" fill="#FFFFFF" sketch:type="MSShapeGroup"></path>
                <text id="123-SEATS" sketch:type="MSTextLayer" font-family="Luckiest Guy" font-size="26" font-weight="normal" fill="#FFFFFF">
                    <tspan x="454.8843" y="382.4854">123 SE</tspan>
                    <tspan x="523.273948" y="382.4854" letter-spacing="-1.4898">A</tspan>
                    <tspan x="536.561492" y="382.4854">TS</tspan>
                </text>
            </g>
        </g>
    </g>
</svg>