<?xml version="1.0" encoding="UTF-8" standalone="no"?>
<svg width="34px" height="34px" viewBox="0 0 34 34" version="1.1" xmlns="http://www.w3.org/2000/svg" xmlns:xlink="http://www.w3.org/1999/xlink" xmlns:sketch="http://www.bohemiancoding.com/sketch/ns">
    <!-- Generator: Sketch 3.3 (11970) - http://www.bohemiancoding.com/sketch -->
    <title>earth</title>
    <desc>Created with Sketch.</desc>
    <defs></defs>
    <g id="Page-1" stroke="none" stroke-width="1" fill="none" fill-rule="evenodd" sketch:type="MSPage">
        <g id="earth" sketch:type="MSLayerGroup" fill="#000000">
            <path d="M28.8875333,4.85897778 L28.7919556,4.75131111 L28.7983778,4.77246667 C26.7908667,2.83446667 24.3069778,1.38455556 21.5435333,0.616911111 L21.5877333,0.603311111 L21.1060667,0.502444444 C19.7906444,0.174533333 18.4151556,0.000755555556 17,0.000755555556 C7.6262,0.000755555556 0,7.62657778 0,17 C0,26.3738 7.6262,33.9992444 17,33.9992444 C26.3738,33.9992444 34,26.3738 34,17 C34,12.2483111 32.0408444,7.94655556 28.8875333,4.85897778 L28.8875333,4.85897778 Z M30.8927778,8.2144 L30.2694444,8.11051111 L28.8138667,7.91973333 L29.9989556,6.94242222 C30.3166667,7.35193333 30.6151111,7.77542222 30.8927778,8.2144 L30.8927778,8.2144 Z M29.1417778,5.95453333 L29.3699556,6.73842222 L29.1840889,6.8918 L27.2374,5.4978 L25.0028444,7.46148889 L24.3772444,6.08977778 L25.5302222,5.17895556 L26.9533111,3.95306667 C27.7458889,4.55864444 28.4791556,5.2292 29.1417778,5.95453333 L29.1417778,5.95453333 Z M28.6261111,7.1672 L28.6261111,7.89517778 L28.1255556,7.82982222 L27.7300222,7.05311111 L26.1645111,7.18231111 L27.2736667,6.20764444 L28.6261111,7.1672 L28.6261111,7.1672 Z M25.1354444,3.03242222 L25.1872,2.75324444 C25.4841333,2.92513333 25.7803111,3.10911111 26.0723333,3.30404444 L26.1252222,3.417 L25.4221778,3.81291111 L24.888,3.5938 L25.1354444,3.03242222 L25.1354444,3.03242222 Z M18.1692222,0.626355556 C18.5549333,0.652044444 18.921,0.687933333 19.2730889,0.732888889 L18.581,1.67582222 L18.0955556,1.56324444 L18.1692222,0.626355556 L18.1692222,0.626355556 Z M9.64542222,2.3222 L10.999,3.37506667 L12.8293333,2.05888889 L14.7699778,2.05888889 L15.4424222,3.68068889 L10.2328667,7.08937778 L8.65488889,8.72704444 L8.60275556,9.81315556 L6.49777778,8.88533333 L4.50877778,9.87926667 L5.21748889,12.2698444 L6.81208889,11.6170444 L8.57442222,14.3604667 L5.61037778,12.5577111 L3.3796,11.6744667 L2.32786667,9.63748889 C3.93342222,6.44904444 6.49286667,3.90282222 9.64542222,2.3222 L9.64542222,2.3222 Z M8.78446667,14.4881556 L10.7893333,13.5890444 L14.9414889,15.7982889 L18.1556222,18.4227111 L16.8587111,21.6678222 C15.9554444,22.9904222 14.5289556,25.0500667 14.1198222,25.5725333 C13.9475556,25.6205111 13.7428,26.01 12.9082889,27.6306667 L12.8557778,27.7315333 L13.3555778,29.3325556 L12.0220222,28.4886 L10.7175556,21.4876222 L8.45806667,17.9965778 L8.95635556,14.5924222 L8.78446667,14.4881556 L8.78446667,14.4881556 Z M15.3215333,33.337 L16.3932889,32.0423556 L16.9380444,33.4371111 C16.4352222,33.4348444 15.9112444,33.4027333 15.3215333,33.337 L15.3215333,33.337 Z M17.5341778,33.4333333 L16.5678222,30.9573778 L14.6490889,33.2746667 C6.69308889,32.1303778 0.5576,25.2680444 0.5576,17 C0.5576,14.5916667 1.0778,12.3034667 2.01204444,10.2404222 L2.98028889,12.1160889 L5.3414,13.0458 L8.35191111,14.8772667 L7.87666667,18.1235111 L10.1909333,21.6988 L11.5195778,28.8297333 L14.3408222,30.6162444 L13.4568222,27.7851778 C13.8168444,27.0889333 14.2101111,26.3515111 14.3536667,26.1172889 C14.6434222,25.8842 15.2792222,24.9737556 17.3377333,21.9575778 L18.8261778,18.2504444 L15.2739333,15.3491111 L10.8112444,12.9691111 L8.89628889,13.8278 L7.03195556,10.9253333 L5.57788889,11.5207111 L5.17744444,10.1694 L6.51402222,9.50148889 L9.1222,10.6510667 L9.20304444,8.9624 L10.5668222,7.53817778 L13.1697111,5.8242 L16.1352667,3.89602222 L15.1432222,1.50204444 L12.6506444,1.50204444 L11.0133556,2.67957778 L10.2804667,2.10951111 L11.2891333,1.60668889 L11.2800667,1.58515556 C13.0620444,0.921022222 14.9890889,0.558355556 17,0.558355556 C17.2062667,0.558355556 17.4098889,0.562133333 17.6138889,0.569688889 L17.5020667,1.99806667 L18.8125778,2.30142222 L19.6293333,1.18848889 L20.4899111,0.931222222 C21.9647556,1.2512 23.3655556,1.76988889 24.6647333,2.45706667 L24.6095778,2.8424 L24.1456667,3.89262222 L25.4588222,4.43133333 L25.7032444,4.29306667 L25.1751111,4.7498 L23.6881778,5.92393333 L24.4660222,7.62846667 L21.777,10.9419556 L23.4849333,15.5519778 L23.6606,15.5674667 C25.0874667,15.6940222 27.1667556,15.9074667 27.5683333,15.9932222 C27.7387111,16.6256222 28.0379111,20.2284889 27.9940889,20.6051333 C27.9589556,20.7097778 27.8932222,20.9058444 29.4526889,25.2223333 L29.5380667,25.4573111 L31.3555556,25.0160667 C28.6185556,29.8939333 23.4690667,33.2429333 17.5341778,33.4333333 L17.5341778,33.4333333 Z M29.8909111,24.7962 C29.2316889,22.9624667 28.5520667,20.9662889 28.5331778,20.7067556 L28.5214667,20.706 C28.5112667,20.0800222 28.3446667,15.8213333 27.9294889,15.5432889 C27.8645111,15.4994667 27.6695778,15.3672444 23.8846222,15.0264889 L22.4097778,11.0454667 L25.0062444,7.84455556 L27.4028667,7.63942222 L27.7617556,8.34435556 L30.1859556,8.66168889 L31.2403333,8.83811111 C32.6770222,11.3329556 33.4356,14.1526889 33.4356,17.0003778 C33.4356,19.5662444 32.8432444,22.0422 31.6751556,24.3628889 L29.8909111,24.7962 L29.8909111,24.7962 Z" id="Shape" sketch:type="MSShapeGroup"></path>
            <path d="M10.0938444,11.8456 L8.09313333,10.7492889 L7.82566667,11.2385111 L10.1218,12.4968889 L11.3000889,11.7111111 L10.9906889,11.2475778 L10.0938444,11.8456 Z" id="Shape" sketch:type="MSShapeGroup"></path>
        </g>
    </g>
</svg>