<?xml version="1.0" encoding="UTF-8" standalone="no"?>
<svg width="50px" height="43px" viewBox="0 0 50 43" version="1.1" xmlns="http://www.w3.org/2000/svg" xmlns:xlink="http://www.w3.org/1999/xlink" xmlns:sketch="http://www.bohemiancoding.com/sketch/ns">
    <!-- Generator: Sketch 3.2.2 (9983) - http://www.bohemiancoding.com/sketch -->
    <title>javazone.bw</title>
    <desc>Created with Sketch.</desc>
    <defs></defs>
    <g id="Page-1" stroke="none" stroke-width="1" fill="none" fill-rule="evenodd" sketch:type="MSPage">
        <g id="javazone.bw" sketch:type="MSLayerGroup">
            <path d="M1.45825893,39.3311217 C0.161272321,39.6378095 -0.354910714,38.9311534 0.304910714,37.7529762 L16.3966518,9.02408466 L47.6332589,0.15823545 C48.9162946,-0.206013228 49.9564732,0.599724868 49.9564732,1.95684127 L49.9564732,25.4025344 C49.9564732,26.7601058 48.9061384,28.1090317 47.6081473,28.4160608 L1.45825893,39.3311217 L1.45825893,39.3311217 Z" id="Fill-1" fill="#DEDEDE" sketch:type="MSShapeGroup"></path>
            <path d="M2.19620536,4.43957937 C0.926897321,4.03119312 0.281473214,4.72863492 0.754352679,5.99690741 L11.2540179,34.1542857 L25.8039063,42.7542857 L45.8376116,40.2667698 C47.1597098,40.102619 47.6154018,39.0656138 46.85625,37.9518228 L30.1446429,13.432381 L2.19620536,4.43957937 L2.19620536,4.43957937 Z" id="Fill-2" fill="#999999" sketch:type="MSShapeGroup"></path>
            <path d="M8.92276786,28.0933333 L12.2186384,36.7752381 L20.3981027,41.8880291 C21.5335938,42.5977566 23.5253348,43.0427725 24.8482143,42.8818069 C24.8482143,42.8818069 44.7748884,40.4609524 45.7395089,40.2971429 C46.7041295,40.1333333 47.0256696,39.8057143 47.1864955,39.3142857 L15.5948661,21.1314286 L8.92276786,28.0933333 L8.92276786,28.0933333 Z" id="Fill-3" fill="#4A4A4A" sketch:type="MSShapeGroup"></path>
            <path d="M49.2765625,0.40952381 C45.4782366,3.56410847 0.401897321,38.9866667 0.0803571429,38.9866667 C-0.160825893,38.4952381 0.321540179,37.6761905 0.321540179,37.6761905 L16.3864955,9.0239709 L47.5883929,0.163809524 C47.5883929,0.163809524 48.5530134,-0.163809524 49.2765625,0.40952381 L49.2765625,0.40952381 Z" id="Fill-4" fill="#EFEFEF" sketch:type="MSShapeGroup"></path>
        </g>
    </g>
</svg>