<?xml version="1.0" encoding="UTF-8" standalone="no"?>
<svg width="34px" height="33px" viewBox="0 0 34 33" version="1.1" xmlns="http://www.w3.org/2000/svg" xmlns:xlink="http://www.w3.org/1999/xlink" xmlns:sketch="http://www.bohemiancoding.com/sketch/ns">
    <!-- Generator: Sketch 3.3 (11970) - http://www.bohemiancoding.com/sketch -->
    <title>Shape</title>
    <desc>Created with Sketch.</desc>
    <defs></defs>
    <g id="Page-1" stroke="none" stroke-width="1" fill="none" fill-rule="evenodd" sketch:type="MSPage">
        <g id="Captions" sketch:type="MSLayerGroup" transform="translate(0.000000, -1.000000)" fill="#000000">
            <path d="M33.3052513,16.2813757 L13.4166359,16.2813757 L7.99120311,1.30380441 C7.99120311,1.30009376 7.98749246,1.37105992 7.98563714,1.36734927 C7.84787929,1.00834397 7.44481003,0.867339306 7.08626856,1.00556099 C6.72679943,1.14331883 6.54729678,1.40955791 6.68505463,1.76902704 L12.3071519,16.2813757 L8.70735839,16.2813757 L1.29719212,3.98706754 C1.29348147,3.9833569 1.28977082,4.05432306 1.286524,4.05061241 C1.08336597,3.72407529 0.651539175,3.6647049 0.326857378,3.8701821 C0.00217558089,4.07473163 -0.0956927894,4.36833674 0.107001418,4.69301854 L7.47913354,16.2813757 L2.09173486,16.2813757 C1.70721885,16.2813757 1.39506049,16.7493813 1.39506049,17.1338973 C1.39506049,26.1229448 8.70967755,33.5154855 17.6982612,33.5154855 C26.6868448,33.5154855 34.0014619,26.083983 34.0014619,17.0949355 C34.0019257,16.7104195 33.6893035,16.2813757 33.3052513,16.2813757 L33.3052513,16.2813757 Z M17.6982612,31.8865105 C9.71108897,31.8865105 3.1692146,25.5579985 2.80649865,17.6728691 L8.35531056,17.6728691 L12.4282118,24.3075097 C12.5478802,24.4967528 12.7964937,24.6368298 12.990839,24.5208721 C13.1865757,24.4039866 13.2515121,24.0329217 13.1355543,23.8367211 L9.5371523,17.6728691 L12.842413,17.6728691 L14.9788192,23.3970092 C15.0660195,23.6191843 15.3127776,23.8130657 15.5377357,23.7337506 C15.7659407,23.6493333 15.8860729,23.2819791 15.8025833,23.0533103 L13.9161821,17.6728691 L32.5904875,17.6728691 C32.2273078,25.5579985 25.6854334,31.8865105 17.6982612,31.8865105 L17.6982612,31.8865105 Z" id="Shape" sketch:type="MSShapeGroup"></path>
        </g>
    </g>
</svg>