<?xml version="1.0" encoding="UTF-8" standalone="no"?>
<svg width="34px" height="29px" viewBox="0 0 34 29" version="1.1" xmlns="http://www.w3.org/2000/svg" xmlns:xlink="http://www.w3.org/1999/xlink" xmlns:sketch="http://www.bohemiancoding.com/sketch/ns">
    <!-- Generator: Sketch 3.3 (11970) - http://www.bohemiancoding.com/sketch -->
    <title>sleep</title>
    <desc>Created with Sketch.</desc>
    <defs></defs>
    <g id="Page-1" stroke="none" stroke-width="1" fill="none" fill-rule="evenodd" sketch:type="MSPage">
        <g id="sleep" sketch:type="MSLayerGroup" fill="#000000">
            <path d="M22.6381154,13.4463462 L19.4911538,13.4463462 C19.1890769,13.4463462 18.9177308,13.3306154 18.7065385,13.1115769 C18.5025385,12.9049615 18.3926923,12.6355769 18.3926923,12.3393846 C18.3926923,12.1157692 18.4685385,11.8895385 18.6123846,11.6868462 C18.6346154,11.6554615 18.6588077,11.6266923 18.6862692,11.5998846 L21.6861154,8.62946154 L19.0465385,8.62946154 C18.6849615,8.62946154 18.3926923,8.33719231 18.3926923,7.97561538 C18.3926923,7.61403846 18.6849615,7.32176923 19.0465385,7.32176923 L22.2000385,7.32176923 C22.5008077,7.32176923 22.78,7.44273077 22.9866154,7.66176923 C23.1866923,7.87296154 23.2926154,8.13842308 23.2926154,8.42938462 C23.2926154,8.65103846 23.2298462,8.86223077 23.1121538,9.04007692 C23.0879615,9.07669231 23.0598462,9.11003846 23.0278077,9.14142308 L20.0005,12.1386538 L22.6387692,12.1386538 C23.0003462,12.1386538 23.2926154,12.4315769 23.2926154,12.7925 C23.2926154,13.1534231 22.9996923,13.4463462 22.6381154,13.4463462 L22.6381154,13.4463462 Z" id="Shape" sketch:type="MSShapeGroup"></path>
            <path d="M28.3010769,9.88746154 L25.7837692,9.88746154 C25.5111154,9.88746154 25.2554615,9.77892308 25.0632308,9.58146154 C24.8749231,9.38988462 24.7742308,9.14338462 24.7742308,8.87073077 C24.7742308,8.66607692 24.8422308,8.46011538 24.9703846,8.27638462 C24.9932692,8.24434615 25.0187692,8.21361538 25.0468846,8.1855 L27.2202692,6.03369231 L25.4280769,6.03369231 C25.0665,6.03369231 24.7742308,5.74142308 24.7742308,5.37984615 C24.7742308,5.01892308 25.0665,4.726 25.4280769,4.726 L27.9506154,4.726 C28.2252308,4.726 28.4815385,4.8365 28.6724615,5.03657692 C28.8575,5.23076923 28.9549231,5.47465385 28.9549231,5.74273077 C28.9549231,5.94673077 28.8973846,6.14026923 28.7888462,6.30307692 C28.7646538,6.34034615 28.7365385,6.37369231 28.7045,6.40507692 L26.5082308,8.57911538 L28.3010769,8.57911538 C28.6626538,8.57911538 28.9549231,8.87203846 28.9549231,9.23296154 C28.9549231,9.59388462 28.6626538,9.88746154 28.3010769,9.88746154 L28.3010769,9.88746154 Z" id="Shape" sketch:type="MSShapeGroup"></path>
            <path d="M33.2134231,6.52080769 L31.1995769,6.52080769 C30.9452308,6.52080769 30.7072308,6.42011538 30.5293846,6.23442308 C30.3587308,6.06311538 30.2619615,5.82773077 30.2619615,5.57665385 C30.2619615,5.38246154 30.3260385,5.19088462 30.4463462,5.02088462 C30.4679231,4.99015385 30.4921154,4.96203846 30.5182692,4.93588462 L32.0306154,3.43792308 L30.9151538,3.43792308 C30.5535769,3.43792308 30.2613077,3.145 30.2613077,2.78407692 C30.2613077,2.42315385 30.5535769,2.13023077 30.9151538,2.13023077 L32.9335769,2.13023077 C33.1905385,2.13023077 33.4291923,2.23288462 33.6063846,2.41923077 C33.7770385,2.60034615 33.8666154,2.82657692 33.8666154,3.07307692 C33.8666154,3.26530769 33.8116923,3.44707692 33.7077308,3.60007692 C33.6841923,3.63473077 33.6573846,3.66742308 33.6279615,3.69619231 L32.0966538,5.21180769 L33.2127692,5.21180769 C33.5743462,5.21180769 33.8666154,5.50473077 33.8666154,5.86565385 C33.8672692,6.22788462 33.575,6.52080769 33.2134231,6.52080769 L33.2134231,6.52080769 Z" id="Shape" sketch:type="MSShapeGroup"></path>
            <path d="M14.0361154,28.2768846 L14.0361154,28.2768846 C8.67588462,28.2762308 3.73803846,25.1449615 1.45611538,20.2993077 C-1.80788462,13.3672308 1.17496154,5.07253846 8.10573077,1.80723077 C10.3203077,0.765 12.7401923,0.334769231 15.1908077,0.542692308 C15.4229231,0.562307692 15.6275769,0.704846154 15.7263077,0.915384615 C15.8250385,1.12592308 15.8047692,1.37373077 15.6720385,1.56596154 C13.1194231,5.25496154 12.7146923,10.0561538 14.6186923,14.0982308 C16.5207308,18.1376923 20.4810769,20.8858077 24.9546923,21.2696154 C25.1861538,21.2892308 25.3908077,21.4311154 25.4895385,21.6423077 C25.5889231,21.8528462 25.5686538,22.1006538 25.4359231,22.2922308 C24.0478077,24.3001923 22.1503462,25.9106154 19.9481923,26.9489231 C18.0762308,27.8303077 16.0878846,28.2768846 14.0361154,28.2768846 L14.0361154,28.2768846 Z M13.9792308,1.79938462 C12.1268846,1.80069231 10.3386154,2.2015 8.66280769,2.99069231 C2.38392308,5.94738462 -0.317769231,13.4626923 2.63892308,19.7422308 C4.70573077,24.1321538 9.17934615,26.9685385 14.0354615,26.9691923 L14.0361154,26.9691923 C15.8943462,26.9691923 17.6956923,26.5644615 19.3904615,25.7667692 C21.0525385,24.9828077 22.5236923,23.8385769 23.6953846,22.4262692 C19.2368077,21.6658462 15.3712692,18.7666923 13.4345769,14.6553077 C11.4978846,10.5432692 11.7247692,5.71723077 13.9792308,1.79938462 L13.9792308,1.79938462 Z" id="Shape" sketch:type="MSShapeGroup"></path>
        </g>
    </g>
</svg>