<?xml version="1.0" encoding="UTF-8" standalone="no"?>
<svg width="20px" height="17px" viewBox="0 0 20 17" version="1.1" xmlns="http://www.w3.org/2000/svg" xmlns:xlink="http://www.w3.org/1999/xlink" xmlns:sketch="http://www.bohemiancoding.com/sketch/ns">
    <!-- Generator: Sketch 3.1.1 (8761) - http://www.bohemiancoding.com/sketch -->
    <title>Shape</title>
    <desc>Created with Sketch.</desc>
    <defs></defs>
    <g stroke="none" stroke-width="1" fill="none" fill-rule="evenodd" sketch:type="MSPage">
        <path d="M20,2.01235419 C19.2642,2.35374317 18.4732999,2.584369 17.6433999,2.68812448 C18.4903999,2.15700522 19.1411,1.31597923 19.4475,0.31377664 C18.6545999,0.80567382 17.7764999,1.16275164 16.8417998,1.35520131 C16.0933998,0.521078407 15.0269998,0 13.8467997,0 C11.5807996,0 9.74351949,1.92146355 9.74351949,4.29152311 C9.74351949,4.62789167 9.77979949,4.95547448 9.84976949,5.2695649 C6.43960932,5.09060762 3.41608917,3.38198922 1.39237907,0.785487523 C1.03913905,1.41931634 0.836796042,2.15658685 0.836796042,2.94312029 C0.836796042,4.43209504 1.56116908,5.74566865 2.66222913,6.51525816 C1.9896091,6.49298002 1.35687907,6.29990279 0.80371004,5.97849092 C0.80332004,5.99637619 0.80332004,6.01426146 0.80332004,6.0324605 C0.80332004,8.11178508 2.21773011,9.84625868 4.0947702,10.2406445 C3.75051019,10.3386997 3.38801017,10.391205 3.01379015,10.391205 C2.74938014,10.391205 2.49234012,10.3642412 2.24176011,10.3141833 C2.76391014,12.0191201 4.27926021,13.2600126 6.0748003,13.2944966 C4.67051023,14.4456594 2.90129015,15.1317634 0.978828049,15.1317634 C0.647617032,15.1317634 0.320977016,15.1113784 2.84217094e-14,15.0717484 C1.81586009,16.2893859 3.9727002,17 6.28988031,17 C13.8372007,17 17.9645009,10.4604974 17.9645009,4.78917286 C17.9645009,4.60310331 17.9604009,4.41807969 17.9525009,4.23399739 C18.7542999,3.62882684 19.4499,2.87304351 20,2.01235419" id="Shape"></path>
    </g>
</svg>