<?xml version="1.0" encoding="UTF-8" standalone="no"?>
<svg width="726px" height="318px" viewBox="0 0 726 318" version="1.1" xmlns="http://www.w3.org/2000/svg" xmlns:xlink="http://www.w3.org/1999/xlink" xmlns:sketch="http://www.bohemiancoding.com/sketch/ns">
    <!-- Generator: Sketch 3.2.2 (9983) - http://www.bohemiancoding.com/sketch -->
    <title>ears</title>
    <desc>Created with Sketch.</desc>
    <defs></defs>
    <g id="Page-1" stroke="none" stroke-width="1" fill="none" fill-rule="evenodd" sketch:type="MSPage">
        <g id="ears" sketch:type="MSLayerGroup">
            <path d="M257.240089,119 C257.240089,119 226.155089,159.4 241.031089,169.48 C247.773089,174.04 273.871089,163.61 273.871089,163.61" id="Fill-223" fill="#BD837D" sketch:type="MSShapeGroup"></path>
            <path d="M265.694367,203.48706 L363.589367,203.48706 C363.589367,203.48706 390.929367,30.6270602 307.145367,51.7970602 C223.361367,72.9570602 265.694367,203.48706 265.694367,203.48706" id="Fill-224" fill="#F4DAB9" sketch:type="MSShapeGroup"></path>
            <path d="M358.564,70.21 C358.564,83.03 334.71,93.42 305.283,93.42 C275.855,93.42 252,83.03 252,70.21 C252,57.39 275.855,47 305.283,47 C334.71,47 358.564,57.39 358.564,70.21" id="Fill-225" fill="#BDC7B1" sketch:type="MSShapeGroup"></path>
            <path d="M284.761,92 L277,157.54 L305.488,180.75 L364.819,193.42 C364.819,193.42 386.375,87.56 353.495,61" id="Fill-226" fill="#BDC7B1" sketch:type="MSShapeGroup"></path>
            <path d="M354.746,151.79 C354.746,175.97 338.685,195.57 318.873,195.57 C299.061,195.57 283,175.97 283,151.79 C283,127.61 299.061,108 318.873,108 C338.685,108 354.746,127.61 354.746,151.79" id="Fill-227" fill="#F4DAB9" sketch:type="MSShapeGroup"></path>
            <path d="M271.737,112.66 C271.737,115.35 269.557,117.53 266.869,117.53 C264.18,117.53 262,115.35 262,112.66 L262,109.87 C262,107.18 264.18,105 266.869,105 C269.557,105 271.737,107.18 271.737,109.87 L271.737,112.66" id="Fill-228" fill="#2F312E" sketch:type="MSShapeGroup"></path>
            <path d="M267,185 L269.855,188.33" id="Stroke-229" stroke="#2F312E" stroke-width="4.043" stroke-linecap="round" sketch:type="MSShapeGroup"></path>
            <path d="M328.344,125.7 L318.466,132.24 L301.047,122 L304.982,144.67 L295,157.1 L310.837,163.96 L315.926,175.13 L327.94,163.46 L341.512,153.59 L332.655,143.86 L328.344,125.7" id="Fill-230" fill="#2F312E" sketch:type="MSShapeGroup"></path>
            <path d="M346.346,159.58 L340.838,153.53 L321.321,157.43 L315.142,174.97 L319.377,184.43 L327.322,163.47 L346.346,159.58 L346.346,159.58 Z M291,161.21 L310.219,163.97 L304.537,158.01 L294.45,156.94 L291,161.21 L291,161.21 Z M332.225,144.07 L334.635,121 L327.614,125.71 L326.466,135.38 L332.225,144.07 L332.225,144.07 Z" id="Fill-231" fill="#1C5466" sketch:type="MSShapeGroup"></path>
            <path d="M481.239563,119 C481.239563,119 450.154563,159.4 465.031563,169.48 C471.772563,174.04 497.869563,163.61 497.869563,163.61" id="Fill-232" fill="#BD837D" sketch:type="MSShapeGroup"></path>
            <path d="M488.693737,203.48706 L586.589737,203.48706 C586.589737,203.48706 613.930737,30.6270602 530.146737,51.7970602 C446.361737,72.9570602 488.693737,203.48706 488.693737,203.48706" id="Fill-233" fill="#F4DAB9" sketch:type="MSShapeGroup"></path>
            <path d="M581.565,70.21 C581.565,83.03 557.71,93.42 528.281,93.42 C498.855,93.42 475,83.03 475,70.21 C475,57.39 498.855,47 528.281,47 C557.71,47 581.565,57.39 581.565,70.21" id="Fill-234" fill="#BDC7B1" sketch:type="MSShapeGroup"></path>
            <path d="M508.76,92 L501,157.54 L529.487,180.75 L588.818,193.42 C588.818,193.42 610.374,87.56 577.495,61" id="Fill-235" fill="#BDC7B1" sketch:type="MSShapeGroup"></path>
            <path d="M581.747,151.79 C581.747,175.97 565.685,195.57 545.873,195.57 C526.061,195.57 510,175.97 510,151.79 C510,127.61 526.061,108 545.873,108 C565.685,108 581.747,127.61 581.747,151.79" id="Fill-236" fill="#F4DAB9" sketch:type="MSShapeGroup"></path>
            <path d="M494.737,112.66 C494.737,115.35 492.557,117.53 489.871,117.53 C487.18,117.53 485,115.35 485,112.66 L485,109.87 C485,107.18 487.18,105 489.871,105 C492.557,105 494.737,107.18 494.737,109.87 L494.737,112.66" id="Fill-237" fill="#2F312E" sketch:type="MSShapeGroup"></path>
            <path d="M485,186.95 L495.613,184" id="Stroke-238" stroke="#2F312E" stroke-width="4.043" sketch:type="MSShapeGroup"></path>
            <path d="M535,176.8 L571.738,153.53 L535.811,130 L535,176.8" id="Fill-239" fill="#2F312E" sketch:type="MSShapeGroup"></path>
            <path d="M559.846,152.69 L534.213,174.84 L534,186.61 L572.453,153.39 L535.207,120 L535.018,130.44 L559.846,152.69" id="Fill-240" fill="#1C5466" sketch:type="MSShapeGroup"></path>
            <path d="M610.240089,205 C610.240089,205 579.155089,245.4 594.031089,255.48 C600.773089,260.04 626.870089,249.6 626.870089,249.6" id="Fill-241" fill="#BD837D" sketch:type="MSShapeGroup"></path>
            <path d="M618.694367,289.495427 L716.589367,289.495427 C716.589367,289.495427 743.929367,116.635427 660.145367,137.795427 C576.361367,158.965427 618.694367,289.495427 618.694367,289.495427" id="Fill-242" fill="#F4DAB9" sketch:type="MSShapeGroup"></path>
            <path d="M711.562,157.22 C711.562,170.04 687.712,180.43 658.283,180.43 C628.855,180.43 605,170.04 605,157.22 C605,144.4 628.855,134 658.283,134 C687.712,134 711.562,144.4 711.562,157.22" id="Fill-243" fill="#BDC7B1" sketch:type="MSShapeGroup"></path>
            <path d="M638.761,179 L631,244.54 L659.489,267.75 L718.82,280.41 C718.82,280.41 740.38,174.56 707.49,148" id="Fill-244" fill="#BDC7B1" sketch:type="MSShapeGroup"></path>
            <path d="M711.744,238.79 C711.744,262.97 695.684,282.57 675.873,282.57 C656.062,282.57 640,262.97 640,238.79 C640,214.6 656.062,195 675.873,195 C695.684,195 711.744,214.6 711.744,238.79" id="Fill-245" fill="#F4DAB9" sketch:type="MSShapeGroup"></path>
            <path d="M624.736,199.66 C624.736,202.35 622.556,204.53 619.869,204.53 C617.179,204.53 615,202.35 615,199.66 L615,196.87 C615,194.18 617.179,192 619.869,192 C622.556,192 624.736,194.18 624.736,196.87 L624.736,199.66" id="Fill-246" fill="#2F312E" sketch:type="MSShapeGroup"></path>
            <path d="M656.593803,224.161372 C654.791803,228.541372 653.848803,233.531372 654.019803,238.801372 C654.562803,255.461372 666.030803,268.601372 679.633803,268.151372 C693.237803,267.701372 703.827803,253.831372 703.287803,237.171372 C702.737803,220.521372 690.757803,207.561372 677.153803,208.011372 C667.855803,208.321372 660.480803,214.711372 656.593803,224.161372" id="Fill-247" fill="#2F312E" sketch:type="MSShapeGroup"></path>
            <path d="M694.285,237.421205 C694.785,252.401205 686.263,265.121205 674.637,267.891205 C676.388,268.311205 678.202,268.501205 680.055,268.441205 C693.705,267.991205 704.335,254.101205 703.785,237.421205 C703.235,220.721205 691.725,207.561205 678.076,208.011205 C676.682,208.051205 675.323,208.251205 674,208.561205 C685.154,211.211205 693.815,222.991205 694.285,237.421205" id="Fill-248" fill="#1C5466" sketch:type="MSShapeGroup"></path>
            <path d="M625.612,269 C625.612,269 623.233,272.33 618,274.23" id="Stroke-249" stroke="#2F312E" stroke-width="4.043" stroke-linecap="round" sketch:type="MSShapeGroup"></path>
            <path d="M388.239186,205 C388.239186,205 357.155186,245.4 372.031186,255.48 C378.773186,260.04 404.869186,249.6 404.869186,249.6" id="Fill-250" fill="#BD837D" sketch:type="MSShapeGroup"></path>
            <path d="M396.694617,289.495427 L494.589617,289.495427 C494.589617,289.495427 521.930617,116.635427 438.146617,137.795427 C354.360617,158.965427 396.694617,289.495427 396.694617,289.495427" id="Fill-251" fill="#F4DAB9" sketch:type="MSShapeGroup"></path>
            <path d="M489.565,157.22 C489.565,170.04 465.709,180.43 436.283,180.43 C406.855,180.43 383,170.04 383,157.22 C383,144.4 406.855,134 436.283,134 C465.709,134 489.565,144.4 489.565,157.22" id="Fill-252" fill="#BDC7B1" sketch:type="MSShapeGroup"></path>
            <path d="M415.76,179 L408,244.54 L436.487,267.75 L495.818,280.41 C495.818,280.41 517.374,174.56 484.494,148" id="Fill-253" fill="#BDC7B1" sketch:type="MSShapeGroup"></path>
            <path d="M488.747,238.79 C488.747,262.97 472.686,282.57 452.873,282.57 C433.061,282.57 417,262.97 417,238.79 C417,214.6 433.061,195 452.873,195 C472.686,195 488.747,214.6 488.747,238.79" id="Fill-254" fill="#F4DAB9" sketch:type="MSShapeGroup"></path>
            <path d="M401.737,199.66 C401.737,202.35 399.557,204.53 396.869,204.53 C394.18,204.53 392,202.35 392,199.66 L392,196.87 C392,194.18 394.18,192 396.869,192 C399.557,192 401.737,194.18 401.737,196.87 L401.737,199.66" id="Fill-255" fill="#2F312E" sketch:type="MSShapeGroup"></path>
            <path d="M397,271 L401.419,272.91" id="Stroke-256" stroke="#2F312E" stroke-width="4.043" stroke-linecap="round" sketch:type="MSShapeGroup"></path>
            <path d="M464.961,265.48 L429,262.05 L446.848,210 L475.677,216.21 L464.961,265.48" id="Fill-257" fill="#2F312E" sketch:type="MSShapeGroup"></path>
            <path d="M436.969,259.45 L447.516,210.69 L439.713,209 L428,263.14 L464.094,270.95 L465.258,265.57 L436.969,259.45" id="Fill-258" fill="#1C5466" sketch:type="MSShapeGroup"></path>
            <path d="M141.867083,58.4615674 L196.110083,23.4315674 C196.110083,23.4315674 60.6670828,-8.91843263 58.6460828,35.2215674 C56.6240828,79.3615674 59.9940828,96.5415674 59.9940828,96.5415674 L141.867083,58.4615674" id="Fill-259" fill="#2F312E" sketch:type="MSShapeGroup"></path>
            <path d="M66.8178951,83.0419015 C66.8178951,83.0419015 43.9058951,69.5719015 41.2118951,91.8119015 C38.5158951,114.041902 62.4368951,119.771902 62.4368951,119.771902" id="Fill-260" fill="#BD837D" sketch:type="MSShapeGroup"></path>
            <path d="M133.391,180.436728 L162.495,193.006728 L183.335,162.466728 C183.335,162.466728 193.036,154.206728 200.583,163.186728 C208.128,172.166728 213.159,180.796728 206.332,180.436728 C199.505,180.076728 190.881,170.726728 190.881,170.726728 C190.881,170.726728 196.093,182.626728 190.704,182.686728 C186.772,182.726728 185.132,174.326728 185.132,174.326728 C185.132,174.326728 186.57,206.666728 173.633,209.896728 C160.698,213.126728 128,196.606728 128,196.606728" id="Fill-261" fill="#F4DAB9" sketch:type="MSShapeGroup"></path>
            <path d="M93.187,167.188525 L134.606,178.998525 L130.642,203.058525 C130.642,203.058525 116.4,195.148525 115.907,206.288525 C115.837,207.878525 116.919,279.058525 116.919,279.058525 L36.214,279.028525 L36.741,210.448525 L29.354,220.468525 L13,205.168525 C13,205.168525 20.048,183.918525 31.465,176.678525 C53.095,162.968525 61.535,164.018525 61.535,164.018525" id="Fill-262" fill="#1C5466" sketch:type="MSShapeGroup"></path>
            <path d="M154.076,126.07 C154.076,126.07 159.594,156.66 148.723,162.18 C137.853,167.71 101.012,151.87 101.012,151.87 L97.141,179.13 L59,166.97 L68.397,45 L146.889,46.29 L154.076,126.07" id="Fill-263" fill="#F4DAB9" sketch:type="MSShapeGroup"></path>
            <path d="M141.038,131.706169 C141.038,131.706169 122.574,128.016169 102,137.506169" id="Stroke-264" stroke="#2F312E" stroke-width="4.043" stroke-linecap="round" sketch:type="MSShapeGroup"></path>
            <path d="M132,83.96 C132,95.53 138.188,104.91 145.82,104.91 C153.454,104.91 159.64,95.53 159.64,83.96 C159.64,72.39 153.454,63 145.82,63 C138.188,63 132,72.39 132,83.96 L132,83.96 Z" id="Stroke-265" stroke="#2F312E" stroke-width="5.559" sketch:type="MSShapeGroup"></path>
            <path d="M128.633466,88.05 C128.633466,88.05 160.692466,102.6 154.611466,113.84 C148.532466,125.08 125.078466,111.29 125.078466,111.29 C125.078466,111.29 116.473466,109.05 117.025466,104.63 C117.577466,100.21 120.940466,88 120.940466,88 L128.633466,88.05" id="Fill-266" fill="#BD837D" sketch:type="MSShapeGroup"></path>
            <path d="M89,89.75 C89,102.87 96.014,113.5 104.666,113.5 C113.32,113.5 120.334,102.87 120.334,89.75 C120.334,76.63 113.32,66 104.666,66 C96.014,66 89,76.63 89,89.75 L89,89.75 Z M132.269,86.96 C132.269,86.96 128.675,86.61 120.334,89.75 L132.269,86.96 Z" id="Stroke-267" stroke="#2F312E" stroke-width="5.559" sketch:type="MSShapeGroup"></path>
            <path d="M157.201832,20.22 L176.406832,5.56 L132.438832,13.65 L144.566832,0 L112.222832,10.11 L113.738832,2.02 C113.738832,2.02 67.2438321,16.68 62.1898321,25.27 C57.1358321,33.86 154.675832,29.31 154.675832,29.31" id="Fill-268" fill="#2F312E" sketch:type="MSShapeGroup"></path>
            <path d="M78.492,187 L78.388,191.43 L75.28,191.55 L74.488,201.44 L70.087,201.67 L70.108,191.78 L67,191.95 L67.125,187.02 L78.492,187" id="Fill-269" fill="#BDC7B1" sketch:type="MSShapeGroup"></path>
            <path d="M91.473,202 L86.258,202.25 L86.217,197.43 L83.818,197.43 L83.672,202 L79,202 L79.397,187.33 L84.36,187.56 L84.048,195.05 L86.363,195.05 L86.384,187 L91.139,187.13 L91.473,202" id="Fill-270" fill="#BDC7B1" sketch:type="MSShapeGroup"></path>
            <path d="M102.948,187 C102.907,187.65 102.868,188.3 102.833,188.94 C102.799,189.58 102.753,190.22 102.698,190.88 L98.276,191.11 L98.172,192.42 L101.28,192.42 L101.05,195.65 L97.922,195.76 L97.817,197.28 L102.239,197.28 C102.197,198.05 102.154,198.81 102.109,199.56 C102.064,200.31 102.023,201.07 101.989,201.83 L93,202.04 L93.333,187 L102.948,187" id="Fill-271" fill="#BDC7B1" sketch:type="MSShapeGroup"></path>
            <path d="M77.57,246.81 C77.279,247.18 76.922,247.5 76.496,247.77 C76.07,248.04 75.614,248.26 75.126,248.44 C74.638,248.62 74.139,248.76 73.627,248.85 C73.114,248.93 72.627,248.98 72.164,248.98 C71.27,248.98 70.446,248.82 69.693,248.5 C68.94,248.18 68.291,247.74 67.745,247.17 C67.198,246.61 66.771,245.94 66.463,245.18 C66.154,244.41 66,243.59 66,242.7 C66,242.03 66.077,241.37 66.232,240.73 C66.386,240.08 66.606,239.48 66.893,238.91 C67.18,238.33 67.53,237.81 67.944,237.33 C68.357,236.85 68.826,236.44 69.351,236.1 C69.875,235.75 70.449,235.48 71.072,235.29 C71.696,235.1 72.362,235 73.071,235 C73.337,235 73.62,235.01 73.923,235.04 C74.225,235.06 74.526,235.09 74.825,235.15 C75.125,235.2 75.416,235.27 75.7,235.36 C75.984,235.46 76.243,235.57 76.477,235.71 L76.218,239.24 C75.873,239.11 75.516,239.03 75.149,238.98 C74.782,238.93 74.423,238.91 74.071,238.91 C73.577,238.91 73.116,238.99 72.687,239.14 C72.259,239.29 71.885,239.51 71.567,239.79 C71.249,240.07 70.998,240.42 70.813,240.83 C70.628,241.23 70.535,241.69 70.535,242.21 C70.535,242.53 70.578,242.84 70.665,243.13 C70.751,243.43 70.883,243.7 71.058,243.93 C71.234,244.16 71.453,244.35 71.716,244.49 C71.978,244.63 72.281,244.7 72.627,244.7 C72.862,244.7 73.104,244.67 73.354,244.61 C73.604,244.55 73.818,244.44 73.997,244.3 L74.034,243.57 L71.813,243.54 L71.924,240.76 C72.843,240.73 73.762,240.7 74.682,240.68 C75.601,240.66 76.527,240.63 77.459,240.59 L77.57,246.81" id="Fill-272" fill="#BDC7B1" sketch:type="MSShapeGroup"></path>
            <path d="M89.236,238.59 C89.236,239.05 89.215,239.55 89.172,240.1 C89.128,240.65 89.057,241.22 88.959,241.8 C88.86,242.39 88.732,242.98 88.574,243.58 C88.417,244.19 88.221,244.76 87.987,245.32 C87.752,245.87 87.479,246.39 87.168,246.88 C86.856,247.36 86.498,247.79 86.094,248.15 C85.69,248.51 85.238,248.79 84.738,249 C84.238,249.2 83.683,249.31 83.072,249.31 C82.356,249.31 81.734,249.19 81.207,248.96 C80.679,248.73 80.227,248.42 79.851,248.03 C79.475,247.63 79.166,247.18 78.925,246.66 C78.685,246.14 78.497,245.58 78.361,245 C78.225,244.42 78.131,243.82 78.079,243.21 C78.026,242.61 78,242.02 78,241.46 C78,240.6 78.043,239.73 78.129,238.87 C78.216,238.01 78.339,237.15 78.5,236.29 L82.831,236.46 C82.665,237.43 82.521,238.4 82.401,239.38 C82.281,240.36 82.22,241.34 82.22,242.33 C82.22,242.43 82.225,242.59 82.234,242.8 C82.244,243 82.26,243.23 82.285,243.49 C82.31,243.75 82.345,244.01 82.392,244.28 C82.438,244.55 82.501,244.79 82.582,245.01 C82.662,245.24 82.759,245.42 82.873,245.56 C82.987,245.7 83.121,245.77 83.275,245.77 C83.455,245.77 83.615,245.69 83.757,245.52 C83.899,245.35 84.024,245.12 84.132,244.84 C84.24,244.55 84.334,244.23 84.414,243.86 C84.494,243.49 84.562,243.1 84.618,242.7 C84.673,242.3 84.718,241.9 84.752,241.5 C84.786,241.1 84.814,240.72 84.835,240.38 C84.857,240.03 84.871,239.73 84.877,239.46 C84.883,239.19 84.886,239 84.886,238.87 C84.886,238.39 84.879,237.91 84.863,237.43 C84.847,236.95 84.824,236.47 84.794,236 L89.125,236 C89.199,236.85 89.236,237.71 89.236,238.59" id="Fill-273" fill="#BDC7B1" sketch:type="MSShapeGroup"></path>
            <path d="M102.255,236.31 L97.164,243.42 L96.923,249.21 L92.536,249.21 L92.647,243.46 L90,236.59 L94.72,236 L95.461,239.99 L97.812,236 L102.255,236.31" id="Fill-274" fill="#BDC7B1" sketch:type="MSShapeGroup"></path>
            <path d="M78.362,205 L76.013,234.09 L67,234.56 L67,205.6 L78.362,205" id="Fill-275" fill="#BD837D" sketch:type="MSShapeGroup"></path>
            <path d="M103.535,204 L103.322,213.06 L96.958,213.31 L95.334,233.56 L86.321,234.03 L86.364,213.78 L80,214.13 L80.256,204.04 L103.535,204" id="Fill-276" fill="#BD837D" sketch:type="MSShapeGroup"></path>
            <path d="M153.736,91.65 C153.736,94.34 151.556,96.52 148.869,96.52 C146.18,96.52 144,94.34 144,91.65 L144,88.86 C144,86.17 146.18,84 148.869,84 C151.556,84 153.736,86.17 153.736,88.86 L153.736,91.65" id="Fill-277" fill="#2F312E" sketch:type="MSShapeGroup"></path>
            <path d="M113.78,97.05 C113.78,100.58 110.918,103.44 107.391,103.44 C103.862,103.44 101,100.58 101,97.05 L101,93.39 C101,89.86 103.862,87 107.391,87 C110.918,87 113.78,89.86 113.78,93.39 L113.78,97.05" id="Fill-278" fill="#2F312E" sketch:type="MSShapeGroup"></path>
            <path d="M199,161 C199,161 212.577,162.69 212.533,165.06 C212.49,167.43 201.114,166.33 201.114,166.33" id="Fill-279" fill="#F4DAB9" sketch:type="MSShapeGroup"></path>
            <path d="M88.486,87.72 L61,77" id="Stroke-280" stroke="#2F312E" stroke-width="5.559" sketch:type="MSShapeGroup"></path>
            <path id="Fill-281" fill="#F6DFC1" sketch:type="MSShapeGroup"></path>
            <path id="Fill-282" fill="#F6DFC1" sketch:type="MSShapeGroup"></path>
            <path id="Fill-283" fill="#F6DFC1" sketch:type="MSShapeGroup"></path>
            <path id="Fill-284" fill="#F6DFC1" sketch:type="MSShapeGroup"></path>
            <path id="Fill-285" fill="#F6DFC1" sketch:type="MSShapeGroup"></path>
            <path id="Fill-286" fill="#F6DFC1" sketch:type="MSShapeGroup"></path>
            <path id="Fill-287" fill="#F6DFC1" sketch:type="MSShapeGroup"></path>
            <path id="Fill-288" fill="#F6DFC1" sketch:type="MSShapeGroup"></path>
            <path id="Fill-289" fill="#F6DFC1" sketch:type="MSShapeGroup"></path>
            <path id="Fill-290" fill="#F6DFC1" sketch:type="MSShapeGroup"></path>
            <path id="Fill-291" fill="#F6DFC1" sketch:type="MSShapeGroup"></path>
            <path id="Fill-292" fill="#F6DFC1" sketch:type="MSShapeGroup"></path>
            <path d="M185,191.2 L209.368,131 L222.165,140.52 L232.679,198.48 L185,191.2" id="Fill-293" fill="#AA2F41" sketch:type="MSShapeGroup"></path>
            <path d="M176,188.56 L209.178,131 L219.395,191.63 L176,188.56" id="Fill-294" fill="#E7B640" sketch:type="MSShapeGroup"></path>
            <path d="M219.277,190.89 L232.544,197.97 L183.579,193.72 L176,188 L219.277,190.89" id="Fill-295" fill="#AA2F41" sketch:type="MSShapeGroup"></path>
            <path d="M185.692,167.255685 C185.692,167.255685 196.771,165.665685 196.771,170.415685 C196.771,175.165685 182,176.485685 182,176.485685" id="Fill-296" fill="#F4DAB9" sketch:type="MSShapeGroup"></path>
            <path d="M117.189,133 C117.189,133 117.189,149.88 110.858,149.88 C104.528,149.88 104,136.69 104,136.69" id="Fill-297" fill="#BD837D" sketch:type="MSShapeGroup"></path>
            <path d="M30.8027077,215.49 L23.7237077,231.5 L56.1617077,259.41 L47.2337077,270.11 C47.2337077,270.11 -1.48229229,240.3 0.0347077062,231.99 C1.55470771,223.69 14.4487077,206 14.4487077,206" id="Fill-298" fill="#F4DAB9" sketch:type="MSShapeGroup"></path>
            <path d="M37,260.61733 L44.738,259.34733 C44.738,259.34733 76.388,253.32733 79.319,266.73733 C80.967,274.27733 68.894,266.56733 68.894,266.56733 C68.894,266.56733 77.825,296.61733 70.276,296.35733 C68.553,296.29733 67.082,291.55733 65.977,286.32733 C65.968,286.35733 65.96,286.38733 65.952,286.42733 C66.465,292.67733 66.099,298.66733 62.775,298.57733 C55.838,298.37733 58.12,280.02733 58.12,280.02733 C58.12,280.02733 55.226,298.80733 50.839,296.38733 C46.453,293.98733 52.222,280.01733 52.222,280.01733 C52.222,280.01733 48.345,289.50733 44.997,287.27733 C41.647,285.05733 45.052,278.17733 45.052,278.17733 L37,260.61733" id="Fill-299" fill="#F4DAB9" sketch:type="MSShapeGroup"></path>
            <path d="M257.316,293.13 L248.271,298.09 L249.157,309.9 L270.886,306.62 L286.941,317.61 L290.49,300.23 L308.76,292.6 L310.204,280.38 L262.372,278.41 L248,270 L249.157,283.11 L257.316,293.13" id="Fill-300" fill="#AA2F41" sketch:type="MSShapeGroup"></path>
            <path d="M248,269.82 L258.657,283.02 L248.271,297.91 L270.918,293.88 L286.915,304.21 L290.213,288.36 L310.204,280.2 L289.875,274.08 L285.369,259 L270.372,270.78 L248,269.82" id="Fill-301" fill="#E7B640" sketch:type="MSShapeGroup"></path>
            <path d="M178.923,304.38 L125,289.96 L129.804,272 L183.728,286.42 L178.923,304.38" id="Fill-302" fill="#AA2F41" sketch:type="MSShapeGroup"></path>
            <path d="M179,304.11 L190.667,289.96 L195.472,272 L183.805,286.15 L179,304.11" id="Fill-303" fill="#AA2F41" sketch:type="MSShapeGroup"></path>
            <path d="M183.924,285.92 L130,271.5 L141.756,257 L195.681,271.43 L183.924,285.92" id="Fill-304" fill="#E7B640" sketch:type="MSShapeGroup"></path>
            <path d="M252.19489,242.581773 C252.19489,242.581773 251.51889,251.561773 251.32989,256.481773 C250.99489,265.111773 236.49089,271.281773 218.53589,270.581773 C200.58289,269.891773 186.67189,262.891773 187.00589,254.251773 C187.13589,250.911773 187.26489,239.021773 187.26489,239.021773 C187.26489,239.021773 208.73489,238.881773 219.74589,239.311773 C227.48789,239.601773 252.19489,242.581773 252.19489,242.581773" id="Fill-305" fill="#AA2F41" sketch:type="MSShapeGroup"></path>
            <path d="M252.02174,241.942068 C251.68774,250.582068 236.86174,257.022068 218.90774,256.332068 C200.95474,255.632068 186.67174,248.072068 187.00574,239.432068 C187.33974,230.792068 202.16474,224.352068 220.11674,225.052068 C238.07174,225.742068 252.35474,233.312068 252.02174,241.942068" id="Fill-306" fill="#E7B640" sketch:type="MSShapeGroup"></path>
        </g>
    </g>
</svg>