<?xml version="1.0" encoding="UTF-8" standalone="no"?>
<svg width="900px" height="467px" viewBox="0 0 900 467" version="1.1" xmlns="http://www.w3.org/2000/svg" xmlns:xlink="http://www.w3.org/1999/xlink" xmlns:sketch="http://www.bohemiancoding.com/sketch/ns">
    <!-- Generator: Sketch 3.3 (11970) - http://www.bohemiancoding.com/sketch -->
    <title>web-info-3</title>
    <desc>Created with Sketch.</desc>
    <defs>
        <path id="path-1" d="M0,466.13348 L899.528406,466.13348 L899.528406,0.186651958 L0,0.186651958 L0,466.13348 Z"></path>
    </defs>
    <g id="Page-1" stroke="none" stroke-width="1" fill="none" fill-rule="evenodd" sketch:type="MSPage">
        <g id="web-info-3" sketch:type="MSLayerGroup">
            <path d="M26.1908439,0.206508549 L881.101489,0.206508549 L881.101489,332.341258 L26.1908439,332.341258 L26.1908439,0.206508549 Z" id="Fill-1" fill="#BD837D" sketch:type="MSShapeGroup"></path>
            <path d="M398.754109,0.186651958 L198.069994,276.552179 L379.757805,276.552179 L420.527358,0.186651958 L398.754109,0.186651958" id="Fill-2" fill="#BDC7B1" sketch:type="MSShapeGroup"></path>
            <path d="M95.6427468,0.245228902 L161.335301,284.773304 L360.894043,284.773304 L120.29818,0.245228902 L95.6427468,0.245228902" id="Fill-3" fill="#E7B640" sketch:type="MSShapeGroup"></path>
            <path d="M524.288472,267.033425 L546.215113,246.502703 L548.240485,247.472201 C546.269719,256.326255 544.899614,266.113072 543.941533,275.395532 L538.684501,275.935632 L524.288472,267.033425 L524.288472,267.033425 Z M614.640927,251.598897 L614.581357,251.603861 C615.008274,251.266299 615.271373,250.774352 615.246553,250.241202 C615.196911,249.321842 614.323221,248.64225 613.285714,248.724655 L610.912852,248.915775 L611.498621,244.008218 L611.861004,243.349972 C612.168781,242.787038 612.114175,242.128296 611.781577,241.625924 L612.188638,238.236404 L594.412024,238.410149 L596.129619,254.698014 L582.125758,262.692774 L585.238279,247.645946 L589.854937,248.207887 C589.854937,248.207887 584.166023,227.471153 581.266961,225.367843 L587.457253,210.213789 L595.712631,209.624545 L594.044677,194.087259 L604.360177,168.842581 L604.519029,168.836624 L629.667402,151.469057 L607.51241,150.869388 L612.903475,140.691892 L596.134584,150.869388 L597.330943,141.889244 L582.359073,153.864755 L576.372311,148.475179 L567.392168,161.049862 L562.001103,148.475179 L557.811362,167.038114 L547.034197,163.444071 L554.162714,203.241644 C553.606729,215.049862 555.939879,224.313955 555.939879,224.313955 L556.619967,224.34225 C556.619967,224.345229 556.619967,224.348207 556.615003,224.351186 C556.391616,224.338776 556.168229,224.327854 555.939879,224.313955 C543.122449,223.535576 537.880309,236.419526 536.549917,240.488638 C529.044126,248.174131 514.613348,263.463707 515.581357,266.419857 C516.728075,269.917099 532.583563,279.036238 536.435742,281.210535 L542.908991,287.179426 C541.797022,302.373194 541.74738,313.992278 541.74738,313.992278 L541.960838,313.981357 L539.985108,362.472146 L538.639823,366.811804 L543.425262,366.811804 L544.085494,366.423111 L549.089355,366.824214 L556.972421,366.613238 C556.972421,361.499669 550.593491,363.360232 548.935466,363.09465 C547.942637,362.934804 546.11583,362.166354 544.805295,361.573635 L553.432984,336.628792 L562.755654,362.493491 L563.058467,362.493491 L561.325979,368.089575 L566.106453,368.089575 L566.771649,367.696911 L571.770546,368.099504 L579.653613,367.890017 C579.653613,362.776448 573.279647,364.635025 571.621622,364.370436 C570.271373,364.153502 567.382239,362.814672 566.344732,362.318753 L565.490899,312.803365 L565.699393,312.79294 C565.699393,312.79294 571.83508,293.164699 575.930502,271.677386 C582.03144,274.365472 591.011583,267.712521 596.933811,262.292664 L597.122449,264.074793 L609.021511,264.768285 L609.567568,260.215168 L610.580254,260.328847 L611.518478,260.195808 C612.436845,260.123828 613.146718,259.319636 613.102041,258.401269 C613.092113,258.234473 613.052399,258.079592 612.997794,257.932157 L613.742416,257.874076 C614.779923,257.788693 615.579151,256.978544 615.534473,256.060177 C615.509653,255.589575 615.266409,255.182515 614.899062,254.908991 C615.886928,254.78588 616.641478,254.002537 616.596801,253.112466 C616.552124,252.193105 615.673469,251.515996 614.640927,251.598897 L614.640927,251.598897 Z" id="Fill-4" fill="#BDC7B1" sketch:type="MSShapeGroup"></path>
            <path d="M0,270.87369 L508.825152,270.87369 L508.825152,370.156646 L0,370.156646 L0,270.87369 Z" id="Fill-5" fill="#2F312E" sketch:type="MSShapeGroup"></path>
            <path d="M322.762438,163.408825 L324.003971,163.408825 L324.003971,178.560397 L322.762438,178.560397 L322.762438,163.408825 Z" id="Fill-6" fill="#2F312E" sketch:type="MSShapeGroup"></path>
            <path d="M321.883784,178.560894 L324.639382,178.560894 L324.639382,273.533977 L321.883784,273.533977 L321.883784,178.560894 Z" id="Fill-7" fill="#2F312E" sketch:type="MSShapeGroup"></path>
            <path d="M294.308439,273.69283 L293.077827,271.227137 L323.281191,256.153006 L324.511307,258.618698 L294.308439,273.69283" id="Fill-8" fill="#2F312E" sketch:type="MSShapeGroup"></path>
            <path d="M352.049421,273.69283 L353.279537,271.227137 L323.076172,256.153006 L321.846056,258.618698 L352.049421,273.69283" id="Fill-9" fill="#2F312E" sketch:type="MSShapeGroup"></path>
            <path d="M323.164534,187.998731 C334.449035,187.998731 343.930557,186.415168 346.618643,184.273138 L299.710425,184.273138 C302.398511,186.415168 311.880033,187.998731 323.164534,187.998731 L323.164534,187.998731 Z M323.164534,178.063486 C311.448649,178.063486 301.676724,179.77016 299.432432,182.037783 L346.896635,182.037783 C344.652344,179.77016 334.880419,178.063486 323.164534,178.063486 L323.164534,178.063486 Z" id="Fill-10" fill="#AA2F41" sketch:type="MSShapeGroup"></path>
            <path d="M274.939327,215.569112 L277.694926,215.569112 L277.694926,277.507777 L274.939327,277.507777 L274.939327,215.569112 Z" id="Fill-11" fill="#2F312E" sketch:type="MSShapeGroup"></path>
            <path d="M247.364479,277.667126 L246.133867,275.201434 L276.336735,260.126806 L277.567347,262.592499 L247.364479,277.667126" id="Fill-12" fill="#2F312E" sketch:type="MSShapeGroup"></path>
            <path d="M305.104964,277.667126 L306.335576,275.201434 L276.132212,260.126806 L274.902096,262.592499 L305.104964,277.667126" id="Fill-13" fill="#2F312E" sketch:type="MSShapeGroup"></path>
            <path d="M249.271208,192.967347 L296.462879,192.967347 L296.462879,216.06652 L249.271208,216.06652 L249.271208,192.967347 Z" id="Fill-14" fill="#2F312E" sketch:type="MSShapeGroup"></path>
            <path d="M291.155212,199.654054 L243.979923,205.474517 L240.183839,174.708218 L287.360121,168.887259 L291.155212,199.654054" id="Fill-15" fill="#1C5466" sketch:type="MSShapeGroup"></path>
            <path d="M158.434749,194.503254 L208.034528,194.503254 L208.034528,255.125924 L158.434749,255.125924 L158.434749,194.503254 Z" id="Fill-16" fill="#1C5466" sketch:type="MSShapeGroup"></path>
            <path d="M272.790347,236.87027 C272.790347,260.268781 253.822339,279.23679 230.423828,279.23679 C207.024821,279.23679 188.056812,260.268781 188.056812,236.87027 C188.056812,213.47176 207.024821,194.503254 230.423828,194.503254 C253.822339,194.503254 272.790347,213.47176 272.790347,236.87027" id="Fill-17" fill="#2F312E" sketch:type="MSShapeGroup"></path>
            <path d="M269.345725,236.87027 C269.345725,258.36652 251.919581,275.792664 230.423828,275.792664 C208.927579,275.792664 191.501434,258.36652 191.501434,236.87027 C191.501434,215.374021 208.927579,197.947876 230.423828,197.947876 C251.919581,197.947876 269.345725,215.374021 269.345725,236.87027" id="Fill-18" fill="#F4DAB9" sketch:type="MSShapeGroup"></path>
            <path d="M207.482019,161.510535 C206.793988,166.984004 188.945891,169.247159 167.617926,166.56503 C146.289465,163.883398 129.557805,157.272146 130.245836,151.798676 C130.934363,146.325207 148.781964,144.061555 170.109928,146.743188 C191.438389,149.425317 208.170546,156.036569 207.482019,161.510535" id="Fill-19" fill="#F4DAB9" sketch:type="MSShapeGroup"></path>
            <path d="M167.390072,155.925869 L170.14567,155.925869 L170.14567,273.037562 L167.390072,273.037562 L167.390072,155.925869 Z" id="Fill-20" fill="#2F312E" sketch:type="MSShapeGroup"></path>
            <path d="M139.815223,273.195918 L138.584611,270.730226 L168.787479,255.656095 L170.018092,258.121787 L139.815223,273.195918" id="Fill-21" fill="#2F312E" sketch:type="MSShapeGroup"></path>
            <path d="M197.555709,273.195918 L198.786321,270.730226 L168.583453,255.656095 L167.352841,258.121787 L197.555709,273.195918" id="Fill-22" fill="#2F312E" sketch:type="MSShapeGroup"></path>
            <path d="M330.014562,141.392333 C330.778544,147.962383 316.519029,155.019912 298.165085,157.156481 C279.810645,159.29305 264.311087,155.699504 263.546608,149.129454 C262.781633,142.559404 277.040651,135.501875 295.395587,133.365306 C313.750028,131.228737 329.249586,134.822284 330.014562,141.392333" id="Fill-23" fill="#AA2F41" sketch:type="MSShapeGroup"></path>
            <path d="M295.306233,144.532157 L298.061831,144.532157 L298.061831,273.037562 L295.306233,273.037562 L295.306233,144.532157 Z" id="Fill-24" fill="#2F312E" sketch:type="MSShapeGroup"></path>
            <path d="M267.731384,273.195918 L266.500772,270.730226 L296.70364,255.656095 L297.934253,258.121787 L267.731384,273.195918" id="Fill-25" fill="#2F312E" sketch:type="MSShapeGroup"></path>
            <path d="M325.472366,273.195918 L326.702482,270.730226 L296.499614,255.656095 L295.269002,258.121787 L325.472366,273.195918" id="Fill-26" fill="#2F312E" sketch:type="MSShapeGroup"></path>
            <path d="M131.356315,270.755047 C131.356315,271.532432 130.726365,272.162383 129.949476,272.162383 L76.9194705,272.162383 C76.1425814,272.162383 75.512631,271.532432 75.512631,270.755047 L75.512631,209.53519 C75.512631,208.757805 76.1425814,208.127854 76.9194705,208.127854 L129.949476,208.127854 C130.726365,208.127854 131.356315,208.757805 131.356315,209.53519 L131.356315,270.755047" id="Fill-27" fill="#2F312E" sketch:type="MSShapeGroup"></path>
            <path d="M70.3002758,269.502096 C70.3002758,270.534142 69.803861,271.369608 69.1907887,271.369608 L10.3537231,271.369608 C9.74114727,271.369608 9.24473249,270.534142 9.24473249,269.502096 L9.24473249,101.238334 C9.24473249,100.206784 9.74114727,99.3703254 10.3537231,99.3703254 L69.1907887,99.3703254 C69.803861,99.3703254 70.3002758,100.206784 70.3002758,101.238334 L70.3002758,269.502096" id="Fill-28" fill="#2F312E" sketch:type="MSShapeGroup"></path>
            <path d="M59.8760618,133.621456 C59.8760618,144.724766 50.8750689,153.725262 39.7722559,153.725262 C28.6694429,153.725262 19.6684501,144.724766 19.6684501,133.621456 C19.6684501,122.518147 28.6694429,113.51765 39.7722559,113.51765 C50.8750689,113.51765 59.8760618,122.518147 59.8760618,133.621456" id="Fill-29" fill="#1C5466" sketch:type="MSShapeGroup"></path>
            <path d="M49.4518478,133.621456 C49.4518478,138.967347 45.1181467,143.301048 39.7722559,143.301048 C34.4263651,143.301048 30.0926641,138.967347 30.0926641,133.621456 C30.0926641,128.275565 34.4263651,123.941864 39.7722559,123.941864 C45.1181467,123.941864 49.4518478,128.275565 49.4518478,133.621456" id="Fill-30" fill="#2F312E" sketch:type="MSShapeGroup"></path>
            <path d="M59.8760618,180.530667 C59.8760618,191.63348 50.8750689,200.634473 39.7722559,200.634473 C28.6694429,200.634473 19.6684501,191.63348 19.6684501,180.530667 C19.6684501,169.427358 28.6694429,160.426365 39.7722559,160.426365 C50.8750689,160.426365 59.8760618,169.427358 59.8760618,180.530667" id="Fill-31" fill="#1C5466" sketch:type="MSShapeGroup"></path>
            <path d="M49.4518478,180.530667 C49.4518478,185.876062 45.1181467,190.210259 39.7722559,190.210259 C34.4263651,190.210259 30.0926641,185.876062 30.0926641,180.530667 C30.0926641,175.18428 34.4263651,170.850579 39.7722559,170.850579 C45.1181467,170.850579 49.4518478,175.18428 49.4518478,180.530667" id="Fill-32" fill="#2F312E" sketch:type="MSShapeGroup"></path>
            <path d="M59.8760618,227.439382 C59.8760618,238.542692 50.8750689,247.543188 39.7722559,247.543188 C28.6694429,247.543188 19.6684501,238.542692 19.6684501,227.439382 C19.6684501,216.336073 28.6694429,207.335576 39.7722559,207.335576 C50.8750689,207.335576 59.8760618,216.336073 59.8760618,227.439382" id="Fill-33" fill="#1C5466" sketch:type="MSShapeGroup"></path>
            <path d="M49.4518478,227.439382 C49.4518478,232.785273 45.1181467,237.118974 39.7722559,237.118974 C34.4263651,237.118974 30.0926641,232.785273 30.0926641,227.439382 C30.0926641,222.093491 34.4263651,217.75979 39.7722559,217.75979 C45.1181467,217.75979 49.4518478,222.093491 49.4518478,227.439382" id="Fill-34" fill="#2F312E" sketch:type="MSShapeGroup"></path>
            <path d="M499.924435,269.502096 C499.924435,270.534142 499.42802,271.369608 498.81743,271.369608 L439.979371,271.369608 C439.366299,271.369608 438.869884,270.534142 438.869884,269.502096 L438.869884,101.238334 C438.869884,100.206784 439.366299,99.3703254 439.979371,99.3703254 L498.81743,99.3703254 C499.42802,99.3703254 499.924435,100.206784 499.924435,101.238334 L499.924435,269.502096" id="Fill-35" fill="#2F312E" sketch:type="MSShapeGroup"></path>
            <path d="M489.501213,133.621456 C489.501213,144.724766 480.500717,153.725262 469.397408,153.725262 C458.295091,153.725262 449.293602,144.724766 449.293602,133.621456 C449.293602,122.518147 458.295091,113.51765 469.397408,113.51765 C480.500717,113.51765 489.501213,122.518147 489.501213,133.621456" id="Fill-36" fill="#1C5466" sketch:type="MSShapeGroup"></path>
            <path d="M479.077496,133.621456 C479.077496,138.967347 474.743795,143.301048 469.397408,143.301048 C464.052013,143.301048 459.718312,138.967347 459.718312,133.621456 C459.718312,128.275565 464.052013,123.941864 469.397408,123.941864 C474.743795,123.941864 479.077496,128.275565 479.077496,133.621456" id="Fill-37" fill="#2F312E" sketch:type="MSShapeGroup"></path>
            <path d="M489.501213,180.530667 C489.501213,191.63348 480.500717,200.634473 469.397408,200.634473 C458.295091,200.634473 449.293602,191.63348 449.293602,180.530667 C449.293602,169.427358 458.295091,160.426365 469.397408,160.426365 C480.500717,160.426365 489.501213,169.427358 489.501213,180.530667" id="Fill-38" fill="#1C5466" sketch:type="MSShapeGroup"></path>
            <path d="M479.077496,180.530667 C479.077496,185.876062 474.743795,190.210259 469.397408,190.210259 C464.052013,190.210259 459.718312,185.876062 459.718312,180.530667 C459.718312,175.18428 464.052013,170.850579 469.397408,170.850579 C474.743795,170.850579 479.077496,175.18428 479.077496,180.530667" id="Fill-39" fill="#2F312E" sketch:type="MSShapeGroup"></path>
            <path d="M489.501213,227.439382 C489.501213,238.542692 480.500717,247.543188 469.397408,247.543188 C458.295091,247.543188 449.293602,238.542692 449.293602,227.439382 C449.293602,216.336073 458.295091,207.335576 469.397408,207.335576 C480.500717,207.335576 489.501213,216.336073 489.501213,227.439382" id="Fill-40" fill="#1C5466" sketch:type="MSShapeGroup"></path>
            <path d="M479.077496,227.439382 C479.077496,232.785273 474.743795,237.118974 469.397408,237.118974 C464.052013,237.118974 459.718312,232.785273 459.718312,227.439382 C459.718312,222.093491 464.052013,217.75979 469.397408,217.75979 C474.743795,217.75979 479.077496,222.093491 479.077496,227.439382" id="Fill-41" fill="#2F312E" sketch:type="MSShapeGroup"></path>
            <path d="M426.956922,270.755047 C426.956922,271.531936 426.326972,272.161886 425.549586,272.161886 L372.520077,272.161886 C371.742195,272.161886 371.112741,271.531936 371.112741,270.755047 L371.112741,183.474407 C371.112741,182.697022 371.742195,182.067071 372.520077,182.067071 L425.549586,182.067071 C426.326972,182.067071 426.956922,182.697022 426.956922,183.474407 L426.956922,270.755047" id="Fill-42" fill="#2F312E" sketch:type="MSShapeGroup"></path>
            <path d="M388.230612,256.483618 C379.526972,248.584666 377.100496,244.264865 385.133977,238.330226 C393.166464,232.395587 400.088969,220.690623 380.750634,228.003309 C378.305295,228.928627 376.106674,229.440927 374.127468,229.61914 L374.187038,177.408715 L375.871373,178.311693 L376.256095,175.403199 C370.9385,171.327137 378.091837,160.408991 376.129013,155.119691 C374.166189,149.829895 365.593105,173.489024 365.593105,173.489024 L368.476282,174.729564 L365.645229,227.893105 C358.952565,223.952565 356.88053,214.552951 355.758136,210.077772 C354.040541,203.227744 347.42631,204.101434 350.019084,217.565196 C352.610866,231.028461 357.350634,242.046884 357.350634,242.046884 C357.350634,242.046884 330.025979,262.903751 355.698069,271.922118 C381.370656,280.941975 396.932267,264.38257 388.230612,256.483618" id="Fill-43" fill="#1C5466" sketch:type="MSShapeGroup"></path>
            <path d="M121.630557,254.249752 C112.92642,246.3508 110.499945,242.030998 118.533425,236.09636 C126.565913,230.161721 133.488417,218.456757 114.150083,225.769443 C111.704744,226.69476 109.506619,227.20706 107.527413,227.385273 L107.586983,175.174848 L109.270822,176.077827 L109.655543,173.169333 C104.338445,169.093271 111.491285,158.175124 109.528958,152.885825 C107.566133,147.596029 98.9925538,171.255157 98.9925538,171.255157 L101.876227,172.495698 L99.0446773,225.659239 C92.3525097,221.718698 90.2804744,212.319084 89.1580805,207.843905 C87.4404854,200.993878 80.8257584,201.867568 83.4185328,215.331329 C86.0108108,228.794595 90.7500827,239.813017 90.7500827,239.813017 C90.7500827,239.813017 63.4259239,260.669884 89.0975179,269.688252 C114.770105,278.708108 130.331715,262.148704 121.630557,254.249752" id="Fill-44" fill="#AA2F41" sketch:type="MSShapeGroup"></path>
            <path d="M378.031274,293.849752 L393.001158,279.96503 L447.277165,275.245119 L464.306674,285.550193 L467.571098,303.092002 L433.167568,300.274848 L388.952399,311.432267 L378.031274,293.849752" id="Fill-45" fill="#AA2F41" sketch:type="MSShapeGroup"></path>
            <path d="M420.372973,340.376724 C421.9615,346.148538 432.022835,419.517154 432.022835,419.517154 L439.375731,419.995698 L454.709983,343.209266" id="Fill-46" fill="#1C5466" sketch:type="MSShapeGroup"></path>
            <path d="M389.876724,343.012686 C391.462769,348.783508 412.302261,419.605516 412.302261,419.605516 L419.780254,419.423828 L423.623497,342.116161" id="Fill-47" fill="#1C5466" sketch:type="MSShapeGroup"></path>
            <path d="M390.759349,286.100717 L388.62824,350.58053 L456.945836,344.916933 L453.760342,279.430392 L390.759349,286.100717" id="Fill-48" fill="#AA2F41" sketch:type="MSShapeGroup"></path>
            <path d="M411.497573,426.542416 L414.917375,425.552565 L414.990844,426.355764 L420.051793,426.355764 L419.714727,418.771042 L412.280916,419.102151 C412.280916,419.102151 409.399724,421.383177 407.531219,421.682019 C405.66321,421.98086 399.743464,420.376944 399.743464,426.131384 L411.497573,426.542416" id="Fill-49" fill="#AA2F41" sketch:type="MSShapeGroup"></path>
            <path d="M442.428682,421.950579 L438.914562,422.523442 L439.194043,423.280474 L434.62107,425.451793 L431.672366,418.455323 L438.581964,415.540871 C438.581964,415.540871 442.109983,416.390237 443.926365,415.859073 C445.742747,415.32642 450.4016,411.33872 452.869774,416.537176 L442.428682,421.950579" id="Fill-50" fill="#AA2F41" sketch:type="MSShapeGroup"></path>
            <path d="M454.59283,223.505792 C454.59283,241.589189 439.932708,256.248318 421.849311,256.248318 C403.766409,256.248318 389.106784,241.589189 389.106784,223.505792 C389.106784,205.422394 403.766409,190.762272 421.849311,190.762272 C439.932708,190.762272 454.59283,205.422394 454.59283,223.505792" id="Fill-51" fill="#E7B640" sketch:type="MSShapeGroup"></path>
            <path d="M458.912631,243.44032 C457.931715,249.716988 454.005571,254.317761 450.142967,253.71412 C446.279371,253.110976 443.942747,247.532763 444.923166,241.254606 C445.904082,234.978434 449.82973,230.377661 453.69283,230.980805 C457.556426,231.583453 459.89305,237.162659 458.912631,243.44032" id="Fill-52" fill="#F4DAB9" sketch:type="MSShapeGroup"></path>
            <path d="M397.837728,244.204302 C398.517319,250.52118 396.233811,255.94898 392.734584,256.325262 C389.236349,256.701048 385.848814,251.886321 385.167733,245.569443 C384.487148,239.251572 386.772642,233.825758 390.270877,233.448483 C393.769608,233.072697 397.157143,237.886928 397.837728,244.204302" id="Fill-53" fill="#F4DAB9" sketch:type="MSShapeGroup"></path>
            <path d="M421.194043,282.615885 L393.001158,281.380309 L394.409983,216.252675 L401.725648,201.555819 L447.742306,209.697022 L450.927799,233.767678 L447.159515,275.362272 L421.194043,282.615885" id="Fill-54" fill="#F4DAB9" sketch:type="MSShapeGroup"></path>
            <path d="M419.548428,234.655764 L425.356977,258.804357 L413.669884,260.201765 L419.548428,234.655764" id="Fill-55" fill="#BD837D" sketch:type="MSShapeGroup"></path>
            <path d="M408.098125,200.847435 C408.098125,200.847435 404.281191,202.385825 413.646056,200.809708 C427.247821,198.518753 448.096746,209.697022 448.096746,209.697022 L445.264699,190.582074 C445.264699,190.582074 419.424324,182.085935 400.663817,199.078213" id="Fill-56" fill="#E7B640" sketch:type="MSShapeGroup"></path>
            <path d="M416.593767,234.738169 C416.593767,240.143133 412.2139,244.523993 406.809432,244.523993 C401.405461,244.523993 397.0246,240.143133 397.0246,234.738169 C397.0246,229.334197 401.405461,224.954826 406.809432,224.954826 C412.2139,224.954826 416.593767,229.334197 416.593767,234.738169 L416.593767,234.738169 Z M441.968505,233.245946 C441.968505,238.650414 437.586652,243.030778 432.183177,243.030778 C426.779206,243.030778 422.398842,238.650414 422.398842,233.245946 C422.398842,227.842471 426.779206,223.462107 432.183177,223.462107 C437.586652,223.462107 441.968505,227.842471 441.968505,233.245946 L441.968505,233.245946 Z M416.262659,233.577551 L421.569333,232.914341 L416.262659,233.577551 Z" id="Stroke-57" stroke="#1C5466" stroke-width="2.4" sketch:type="MSShapeGroup"></path>
            <path d="M430.557419,261.752565 C420.157529,269.000717 411.018036,266.479923 411.018036,266.479923" id="Stroke-58" stroke="#BD837D" stroke-width="2" stroke-linecap="round" sketch:type="MSShapeGroup"></path>
            <path d="M410.817485,237.162162 C410.817485,238.965141 409.355047,240.428571 407.552068,240.428571 C405.746608,240.428571 404.284666,238.965141 404.284666,237.162162 L404.284666,235.2877 C404.284666,233.485218 405.746608,232.02278 407.552068,232.02278 C409.355047,232.02278 410.817485,233.485218 410.817485,235.2877 L410.817485,237.162162" id="Fill-59" fill="#2F312E" sketch:type="MSShapeGroup"></path>
            <path d="M434.769498,236.532212 C434.769498,238.334694 433.306564,239.797628 431.502592,239.797628 C429.698125,239.797628 428.23668,238.334694 428.23668,236.532212 L428.23668,234.658246 C428.23668,232.854771 429.698125,231.392333 431.502592,231.392333 C433.306564,231.392333 434.769498,232.854771 434.769498,234.658246 L434.769498,236.532212" id="Fill-60" fill="#2F312E" sketch:type="MSShapeGroup"></path>
            <path d="M392.884004,326.176282 C392.884004,326.176282 387.997297,324.78086 386.658963,319.951241 C385.40353,315.418974 388.844181,311.214341 388.844181,311.214341 L378.004468,293.895422 C378.004468,293.895422 357.718478,315.691506 366.127744,326.448318 C366.061224,326.362438 373.424545,335.199117 390.590072,341.246442" id="Fill-61" fill="#F4DAB9" sketch:type="MSShapeGroup"></path>
            <path d="M388.596966,327.250524 C387.48053,328.034859 387.21048,329.576227 387.996304,330.692664 L388.329399,331.16674 C389.113238,332.284666 390.656095,332.552234 391.772035,331.768395 L399.858136,326.085935 C400.971594,325.300607 401.243133,323.759239 400.457308,322.642306 L400.122725,322.167733 C399.339382,321.051296 397.797022,320.782736 396.679592,321.567071 L388.596966,327.250524" id="Fill-62" fill="#F4DAB9" sketch:type="MSShapeGroup"></path>
            <path d="M446.945063,333.606122 C446.945063,333.606122 456.18235,324.261114 455.010314,315.11765 C453.83679,305.974186 453.451076,303.460342 453.451076,303.460342 L464.399007,286.032212 C464.399007,286.032212 478.87893,309.150745 469.95091,324.781853 C461.023387,340.413955 458.290127,339.909597 458.290127,339.909597" id="Fill-63" fill="#F4DAB9" sketch:type="MSShapeGroup"></path>
            <path d="M455.017264,351.317705 C454.541699,352.404854 453.266409,352.928571 452.170325,352.489244 C451.97027,352.408825 451.797022,352.293657 451.638665,352.167568 L451.254937,353.049697 C450.719305,354.275841 449.395367,354.910259 448.300276,354.470436 C447.738334,354.244071 447.34567,353.776944 447.165472,353.213514 C446.601048,354.364203 445.331715,354.952454 444.267402,354.525538 C443.170325,354.084225 442.713624,352.734473 443.248263,351.509322 L443.278544,351.441313 C442.688307,351.815609 441.978434,351.930778 441.340044,351.676117 C440.244457,351.234804 439.787259,349.883563 440.320408,348.657915 L445.558081,335.915444 C445.668781,335.796801 453.173083,335.367899 453.296194,335.278544 L461.504909,337.245339 L455.569774,350.230557 L455.017264,351.317705" id="Fill-64" fill="#F4DAB9" sketch:type="MSShapeGroup"></path>
            <path d="M448.615996,330.900165 C449.818809,330.257805 451.316492,330.711528 451.958853,331.915334 L452.232874,332.425648 C452.877716,333.629454 452.422504,335.12813 451.219195,335.770987 L442.503144,340.430833 C441.30182,341.072697 439.80364,340.620463 439.159294,339.415665 L438.887259,338.903365 C438.242912,337.700552 438.697628,336.202372 439.900938,335.559515 L448.615996,330.900165" id="Fill-65" fill="#F4DAB9" sketch:type="MSShapeGroup"></path>
            <path d="M416.232874,345.833315 L398.365913,345.833315 L396.160342,306.129068 L418.438941,306.129068 L416.232874,345.833315" id="Fill-66" fill="#FFFFFF" sketch:type="MSShapeGroup"></path>
            <path d="M414.83497,344.195146 L399.427248,343.475345 L398.453778,319.295477 L415.490237,319.623111 L414.83497,344.195146" id="Fill-67" fill="#E7B640" sketch:type="MSShapeGroup"></path>
            <path d="M403.942637,342.161335 C405.127082,342.226862 406.169553,341.323883 406.270325,340.145891 C406.288196,339.931936 406.263376,339.725924 406.223166,339.527358 L407.183729,339.58246 C408.520077,339.655929 409.682681,338.759901 409.781964,337.583398 C409.833094,336.98075 409.592333,336.419801 409.171373,336.003309 C410.452124,336.018698 411.549697,335.150469 411.647987,334.008715 C411.747766,332.830226 410.748483,331.813569 409.413127,331.740099 L409.339162,331.736128 C409.939327,331.377716 410.360783,330.795918 410.422339,330.111362 C410.521125,328.933867 409.520353,327.917209 408.18599,327.841258 L394.450689,326.779923 C394.294319,326.825097 390.531991,333.331109 390.395974,333.400607 L390.535962,341.246442 L402.723442,342.165803 L403.942637,342.161335" id="Fill-68" fill="#F4DAB9" sketch:type="MSShapeGroup"></path>
            <g id="Group-72">
                <mask id="mask-2" sketch:name="Clip 70" fill="white">
                    <use xlink:href="#path-1"></use>
                </mask>
                <g id="Clip-70"></g>
                <path d="M759.6139,270.892554 L759.474903,270.549035 C759.370656,270.537617 759.256481,270.534142 759.137341,270.544567 L757.28075,270.110204 C756.392168,260.919084 755.06674,251.061776 753.095974,242.210204 L753.52289,242.005681 L772.545505,265.015996 L759.6139,270.892554 L759.6139,270.892554 Z M763.113624,237.412852 L764.27027,236.85786 C764.27027,236.85786 760.060673,219.880474 745.952565,220.73679 C745.744071,220.7492 745.535576,220.759625 745.327082,220.771042 C745.302261,220.725869 745.272477,220.681688 745.242692,220.636514 C746.369553,217.890844 747.665196,214.282901 748.712631,210.122449 C748.772201,210.143298 748.826806,210.17209 748.886376,210.188472 C751.408163,210.859625 754.505792,207.440816 755.806398,202.551627 C757.107005,197.662438 756.124104,193.155488 753.602317,192.484335 C752.82791,192.277827 752.003861,192.461004 751.184777,192.951462 C751.239382,174.235632 742.100386,163.314506 742.100386,163.314506 L739.538886,165.994153 C736.113624,162.420463 731.750138,159.105902 726.230006,156.209818 C719.384446,152.621732 708.076117,162.147435 711.114175,172.897297 L714.931605,194.377165 L712.692774,208.61583 L717.503034,208.86652 L719.687259,221.155764 L722.41754,221.762879 C719.717044,223.92278 714.509653,242.890789 714.509653,242.890789 L719.364589,243.879647 C717.413679,268.342967 722.040265,298.901269 722.040265,298.901269 L724.343629,299.211528 L718.441258,348.563596 C717.403751,349.005902 716.271925,349.438776 715.576944,349.550469 C714.038058,349.797187 708.125758,348.071153 708.125758,352.81241 L715.432984,353.008991 L720.069498,352.635687 L720.685052,352.99658 L725.118036,352.99658 L723.360728,347.324545 L722.333149,347.385604 L741.375621,301.501489 L742.353558,301.632543 L751.740761,350.218147 C750.623828,350.74385 748.255929,351.812631 747.104247,351.996801 C745.565361,352.244015 739.658025,350.520463 739.658025,355.260232 L746.965251,355.456315 L751.601765,355.083012 L752.217319,355.445394 L756.650303,355.445394 L755.041919,350.257363 L755.076669,350.257363 L758.045229,303.742306 L759.112521,303.886266 C759.112521,303.886266 759.062879,292.313844 757.921125,277.471042 L758.794815,276.850524 L758.874242,276.960232 C758.874242,276.960232 778.959184,268.987314 780.627137,265.477661 C782.180916,262.207281 765.397132,240.364534 763.113624,237.412852 L763.113624,237.412852 Z" id="Fill-69" fill="#1C5466" sketch:type="MSShapeGroup" mask="url(#mask-2)"></path>
                <path d="M877.83508,278.97369 L877.696084,278.621732 C877.581908,278.608825 877.467733,278.605847 877.348593,278.616768 L875.437397,278.170491 C874.523993,268.727192 873.158853,258.599835 871.138445,249.505516 L871.580254,249.295036 L891.124104,272.93679 L877.83508,278.97369 L877.83508,278.97369 Z M881.429123,244.576613 L882.620518,244.00524 C882.620518,244.00524 878.291782,226.562714 863.801434,227.442361 C863.583012,227.455268 863.374517,227.466189 863.161059,227.478103 C863.156095,227.475124 863.156095,227.472146 863.151131,227.469664 L863.801434,227.442361 C863.801434,227.442361 866.01048,218.663762 865.499173,207.457694 C867.400441,206.180419 868.765582,202.690623 868.765582,198.572863 C868.765582,193.373911 866.591285,189.160342 863.915609,189.160342 C863.503585,189.160342 863.101489,189.271042 862.71925,189.459184 C858.460011,175.920463 850.57198,168.343685 847.707667,165.941533 L848.27358,165.297683 C835.937672,155.018919 811.682846,157.692113 811.682846,157.692113 L803.050193,172.080695 L817.565361,174.326972 L824.396029,191.050689 C823.532267,191.598731 822.921677,192.527027 822.827358,193.6246 C822.668505,195.494098 824.053502,197.134749 825.924986,197.292609 C826.267512,197.321897 826.60011,197.297573 826.917816,197.229564 L828.72973,201.655598 L826.619967,213.588417 L833.813017,214.102703 L839.670712,228.446608 C836.915609,230.450634 831.489796,250.204468 831.489796,250.204468 L831.693326,250.24567 L824.932157,262.561224 L810.809156,254.205571 L809.776613,246.239603 L809.071704,246.099117 C809.255378,245.236349 808.897959,246.280309 808.034197,246.099117 C807.170436,245.917926 807.324324,245.381798 807.145615,246.247546 L806.500276,246.275345 L803.41754,243.185659 C802.717595,242.485714 801.660232,242.436569 801.05957,243.074462 C800.712079,243.444788 800.597904,243.965527 800.697187,244.470381 L800.657474,244.432653 C799.957529,243.732708 798.90513,243.682074 798.304468,244.31947 C797.718698,244.936514 797.783232,245.972035 798.423607,246.670987 C797.986762,246.641202 797.559846,246.786652 797.252068,247.113293 C796.651407,247.7492 796.730833,248.834363 797.430778,249.534308 L797.932157,250.038665 C797.803089,250.112135 797.678985,250.199504 797.569774,250.314672 C796.969112,250.950579 796.984004,251.974683 797.604523,252.595201 L798.205185,253.269829 L805.864865,258.450414 C807.503034,260.70364 815.232212,270.754054 824.15775,272.987921 C828.372311,274.041313 832.552124,269.7369 835.987314,264.375124 C835.952565,286.108163 839.228902,307.751351 839.228902,307.751351 L841.596801,308.070546 L835.530612,358.77733 C834.468285,359.23155 833.30171,359.676834 832.586873,359.791009 C831.008274,360.044181 824.937121,358.270987 824.937121,363.142802 L832.442912,363.344843 L837.208494,362.960618 L837.838941,363.330943 L842.396029,363.330943 L840.589079,357.505019 L839.531715,357.567071 L859.095422,310.422559 L860.09818,310.558577 L869.743519,360.476558 C868.596801,361.017154 866.169333,362.11572 864.982901,362.30535 C863.404302,362.559018 857.328185,360.786817 857.328185,365.658136 L864.838941,365.85968 L869.604523,365.475455 L870.23497,365.847766 L874.787093,365.847766 L873.138996,360.518257 L873.173745,360.518257 L876.221732,312.72642 L877.323773,312.873855 C877.323773,312.873855 877.269167,300.984225 876.092664,285.734363 L876.991175,285.09647 L877.075565,285.20866 C877.075565,285.20866 897.706564,277.017816 899.424159,273.411362 C901.022614,270.051131 883.777165,247.608715 881.429123,244.576613 L881.429123,244.576613 Z" id="Fill-71" fill="#2F312E" sketch:type="MSShapeGroup" mask="url(#mask-2)"></path>
            </g>
            <path d="M813.549366,245.586321 C811.39989,244.343298 808.883067,244.299117 806.500276,244.777165 C805.313844,241.629895 804.330943,239.661611 804.330943,239.661611 L800.846111,228.454054 C802.553778,223.588693 800.230557,219.003309 796.432984,215.963265 C788.202427,209.379812 750.678434,237.35775 750.678434,237.35775 L751.993933,265.007557 C751.993933,265.007557 752.15775,265.004578 752.455598,264.991671 C752.475455,268.126531 752.981798,270.272035 752.981798,270.272035 C753.11583,270.292885 753.244898,270.313734 753.373966,270.33508 C739.633205,281.620574 728.295091,321.292057 728.295091,321.292057 L730.86652,321.863927 L725.599559,381.417319 L729.521236,381.332432 L729.640375,385.201489 C729.640375,385.201489 751.333701,386.479261 753.091009,385.314672 C754.123552,384.630116 748.86652,382.580916 744.369002,381.010259 L751.437948,380.857363 L751.993933,382.843519 L761.381136,382.368946 L761.872587,386.464865 C761.872587,386.464865 783.595698,385.805626 785.238831,384.490623 C786.082736,383.816988 782.096525,382.539713 778.006067,381.453558 L782.434087,333.356922 L782.935466,333.469608 L794.62107,277.331054 C805.08053,278.481743 809.180916,276.808329 810.258136,269.28417 C811.01765,263.959625 810.312741,258.344677 809.156095,253.449531 C812.21401,251.963762 818.379482,248.383122 813.549366,245.586321" id="Fill-73" fill="#AA2F41" sketch:type="MSShapeGroup"></path>
            <path d="M683.980143,258.904137 C683.717044,253.981191 683.846111,249.356095 684.521236,245.344567 L687.534473,258.16845 L683.980143,258.904137 L683.980143,258.904137 Z M637.376724,258.844567 L638.597904,268.888527 L632.799779,257.172146 L644.366244,243.628958 L646.471042,246.477386 L648.665196,242.025041 C649.459459,245.122173 650.228902,247.82118 650.506895,249.695146 C650.76503,251.423662 650.506895,254.653833 649.926089,258.737838 L637.376724,258.844567 L637.376724,258.844567 Z M693.565913,241.574793 C693.565913,241.574793 690.200221,228.555323 688.378378,222.524379 C687.703254,217.64214 684.570877,214.871153 677.35797,213.593381 L677.814672,204.684225 C678.201875,204.750248 678.594043,204.791947 679.001103,204.791947 C682.86321,204.791947 685.995587,201.660066 685.995587,197.793988 C685.995587,197.065747 685.881412,196.362824 685.677882,195.702096 C686.348042,195.1615 687.033094,194.429288 687.718147,193.453337 C688.001103,193.097408 688.358522,192.505185 688.686156,191.911969 C689.56481,190.35422 690.433536,188.3631 691.267512,185.82642 C693.148924,180.102758 692.65251,177.577992 691.158301,176.749972 C693.521236,175.779978 695.189189,173.455764 695.189189,170.740871 C695.189189,169.566354 694.876448,168.466795 694.330392,167.515665 C697.51241,167.099669 699.974628,164.379316 699.974628,161.081136 C699.974628,157.491065 697.070601,154.585052 693.481522,154.585052 C693.238279,154.585052 693,154.600938 692.761721,154.626751 C693.72973,153.49294 694.315499,152.025538 694.315499,150.41914 C694.315499,146.83155 691.406509,143.922559 687.81743,143.922559 C685.881412,143.922559 684.148924,144.7754 682.957529,146.120188 C682.639823,142.830447 679.864865,140.259018 676.489244,140.259018 C673.401544,140.259018 670.820188,142.418423 670.159956,145.309542 C669.504688,142.418423 666.923331,140.259018 663.830667,140.259018 C660.991175,140.259018 658.583563,142.08235 657.699945,144.619029 C656.518478,143.381467 654.855488,142.60706 653.008825,142.60706 C649.697739,142.60706 646.972421,145.086156 646.570325,148.287534 C645.7016,147.853668 644.723662,147.603475 643.681191,147.603475 C640.092113,147.603475 637.188086,150.512466 637.188086,154.100055 C637.188086,155.885163 637.907887,157.500993 639.074462,158.676007 C635.932157,159.133701 633.519581,161.828737 633.519581,165.093657 C633.519581,166.600772 634.040816,167.98428 634.899614,169.086321 L634.239382,169.184611 C634.239382,169.184611 605.377827,201.078764 627.170436,211.385328 C645.205185,219.912741 659.199117,207.419967 659.199117,207.419967 L659.650855,213.005626 C653.475455,213.853999 649.970767,216.510314 648.153889,220.075565 L638.53337,235.729013 L638.786542,236.074517 C635.252068,240.341699 621.804192,256.986486 624.3508,260.096029 C627.071153,263.424986 633.057915,275.737562 633.867071,277.410976 L633.787645,277.605571 L637.773855,279.457198 L638.538334,279.789796 C638.985108,280.014175 639.501379,279.99134 639.918367,279.774407 L640.553778,284.999173 L644.758411,285.212135 C641.998345,297.533149 639.297849,308.189189 639.297849,308.189189 L650.993381,309.466464 L657.640375,354.323993 L658.097077,354.424269 C657.416988,356.166685 655.77882,359.993547 654.354109,360.219912 C652.507446,360.515279 645.413679,358.446222 645.413679,364.136624 L656.642581,364.652399 L660.191947,363.027634 L660.489796,364.358522 L665.806398,364.358522 L665.031991,355.938831 L665.260342,355.988472 L666.595698,311.169664 L669.241589,311.459073 L675.799228,359.83668 L675.426917,359.960783 C675.426917,359.960783 673.207943,366.315389 671.36128,366.610259 C669.514617,366.905626 662.420849,364.836569 662.420849,370.523993 L673.649752,371.041754 L677.194153,369.416988 L677.492002,370.748373 L682.813569,370.748373 L682.059018,362.545615 L683.141202,362.846442 L684.635411,313.14043 L695.839493,314.363596 C695.839493,314.363596 687.534473,289.792057 684.749586,267.367016 C691.560397,266.856205 698.023718,266.161224 698.703806,265.330723 C700.024269,263.722835 694.176503,245.929344 692.801434,241.821015 L693.565913,241.574793 L693.565913,241.574793 Z" id="Fill-74" fill="#2F312E" sketch:type="MSShapeGroup"></path>
            <path d="M351.958577,409.869829 C351.958577,425.222945 295.951076,437.669057 226.862052,437.669057 C157.773028,437.669057 101.765527,425.222945 101.765527,409.869829 C101.765527,394.517209 157.773028,382.070601 226.862052,382.070601 C295.951076,382.070601 351.958577,394.517209 351.958577,409.869829" id="Fill-75" fill="#BDC7B1" sketch:type="MSShapeGroup"></path>
            <path d="M679.184777,408.370656 C679.184777,420.164975 636.160507,429.72642 583.083839,429.72642 C530.00717,429.72642 486.983398,420.164975 486.983398,408.370656 C486.983398,396.576338 530.00717,387.014396 583.083839,387.014396 C636.160507,387.014396 679.184777,396.576338 679.184777,408.370656" id="Fill-76" fill="#E7B640" sketch:type="MSShapeGroup"></path>
            <path d="M537.696635,451.893822 C537.696635,459.758025 509.003861,466.13348 473.614948,466.13348 C438.224545,466.13348 409.534749,459.758025 409.534749,451.893822 C409.534749,444.029619 438.224545,437.653668 473.614948,437.653668 C509.003861,437.653668 537.696635,444.029619 537.696635,451.893822" id="Fill-77" fill="#AA2F41" sketch:type="MSShapeGroup"></path>
            <path d="M826.034197,409.78941 C826.034197,417.654109 797.341423,424.029564 761.952013,424.029564 C726.562603,424.029564 697.874793,417.654109 697.874793,409.78941 C697.874793,401.925207 726.562603,395.549752 761.952013,395.549752 C797.341423,395.549752 826.034197,401.925207 826.034197,409.78941" id="Fill-78" fill="#F4DAB9" sketch:type="MSShapeGroup"></path>
            <path d="M582.140651,263.049697 C582.140651,263.049697 613.429675,296.407281 601.083839,306.553006 C588.733039,316.696249 588.206839,314.335301 588.206839,314.335301" id="Fill-79" fill="#1C5466" sketch:type="MSShapeGroup"></path>
            <path d="M582.215113,377.28963 L590.9123,384.774573 C590.9123,384.774573 591.498069,387.292885 593.096525,389.225427 C594.699945,391.154495 599.688913,394.427854 598.154992,395.516988 C596.62107,396.609101 587.084942,388.433149 586.330392,387.846387 C585.580805,387.262107 583.292333,385.102703 583.292333,385.102703 L582.999448,385.430336 L577.851627,381.522559 C577.851627,381.522559 580.323773,377.672366 582.215113,377.28963" id="Fill-80" fill="#1C5466" sketch:type="MSShapeGroup"></path>
            <path d="M536.123001,386.462383 L544.025924,391.548649 C544.025924,391.548649 545.127965,396.719305 546.671815,398.692057 C548.220629,400.666795 553.120243,404.078158 551.556536,405.125593 C549.99283,406.173028 540.685052,397.732488 539.950359,397.128351 C539.215665,396.522228 536.991726,394.300276 536.991726,394.300276 L536.683949,394.621953 L531.645339,390.573194 C531.645339,390.573194 534.221732,386.792995 536.123001,386.462383" id="Fill-81" fill="#1C5466" sketch:type="MSShapeGroup"></path>
            <path d="M556.029233,350.476779 L547.51572,390.701269 L532.702703,387.738169 L525.872035,321.762659 L565.947601,317.68759 L588.69829,326.855378 L607.269167,351.195587 L593.439051,385.762934 L576.650303,377.120849 L586.28075,359.837176 L571.710976,350.454937 L556.029233,350.476779" id="Fill-82" fill="#1C5466" sketch:type="MSShapeGroup"></path>
            <path d="M523.022614,326.456757 C521.637617,315.257639 521.06674,293.391561 530.930502,265.728351 C545.465527,224.977661 582.383894,264.88246 582.383894,264.88246 C582.383894,264.88246 592.431329,290.519801 592.773855,309.876007 C592.92278,318.398952 592.083839,325.733977 591.095974,331.279426 L523.022614,326.456757" id="Fill-83" fill="#1C5466" sketch:type="MSShapeGroup"></path>
            <path d="M562.884721,264.369664 L571.720905,309.197408 L565.262548,321.4246 L554.738555,308.519801 L555.418643,263.690072 L562.884721,264.369664" id="Fill-84" fill="#1C5466" sketch:type="MSShapeGroup"></path>
            <path d="M582.979592,264.293712 L558.575841,267.344181 L530.88086,265.790403 C530.88086,265.790403 526.437948,193.735301 562.830116,197.809873 C599.227248,201.884446 582.979592,264.293712 582.979592,264.293712" id="Fill-85" fill="#1C5466" sketch:type="MSShapeGroup"></path>
            <path d="M526.552124,231.76663 C526.552124,236.64738 528.910094,240.598842 531.81412,240.598842 C534.723111,240.598842 537.081081,236.64738 537.081081,231.76663 C537.081081,226.890844 534.723111,222.9369 531.81412,222.9369 C528.910094,222.9369 526.552124,226.890844 526.552124,231.76663" id="Fill-86" fill="#1C5466" sketch:type="MSShapeGroup"></path>
            <path d="M549.178709,208.145725 L594.213458,206.630667 C594.213458,206.630667 576.471594,185.245119 539.568119,197.116382" id="Fill-87" fill="#1C5466" sketch:type="MSShapeGroup"></path>
            <path d="M571.830116,237.485328 L588.013238,237.485328 C588.514617,237.484335 588.921677,237.077275 588.921677,236.579371 L588.921677,231.26128 C588.921677,230.759404 588.514617,230.35433 588.013238,230.353337 L571.830116,230.353337 C571.328737,230.35433 570.926641,230.759404 570.921677,231.26128 L570.921677,236.579371 C570.926641,237.078764 571.328737,237.484335 571.830116,237.485328 L571.830116,237.485328 Z M571.830116,239.523111 C570.201875,239.521622 568.886376,238.202648 568.886376,236.579371 L568.886376,231.26128 C568.886376,229.636514 570.201875,228.316051 571.830116,228.314562 L588.013238,228.314562 C589.646442,228.316051 590.956977,229.636514 590.956977,231.26128 L590.956977,236.579371 C590.956977,238.203144 589.646442,239.521622 588.013238,239.523111 L571.830116,239.523111 L571.830116,239.523111 Z" id="Fill-88" fill="#1C5466" sketch:type="MSShapeGroup"></path>
            <path d="M565.997242,231.54374 C565.997242,231.54374 581.733591,237.141809 578.5615,245.127634 C576.918367,249.279151 561.29123,243.619526 561.29123,243.619526" id="Fill-89" fill="#1C5466" sketch:type="MSShapeGroup"></path>
            <path d="M546.359073,239.862162 L562.547159,239.862162 C563.043574,239.862162 563.450634,239.459073 563.450634,238.956205 L563.450634,233.639106 C563.450634,233.135742 563.043574,232.733149 562.547159,232.73166 L546.359073,232.73166 C545.857694,232.733149 545.450634,233.137231 545.450634,233.639106 L545.450634,238.956205 C545.450634,239.457088 545.857694,239.860673 546.359073,239.862162 L546.359073,239.862162 Z M546.359073,241.899945 C544.735797,241.898952 543.415334,240.585438 543.415334,238.956205 L543.415334,233.639106 C543.415334,232.01037 544.730833,230.69487 546.359073,230.693878 L562.547159,230.693878 C564.170436,230.693878 565.485935,232.011859 565.485935,233.639106 L565.485935,238.956205 C565.485935,240.583453 564.170436,241.89647 562.547159,241.899945 L546.359073,241.899945 L546.359073,241.899945 Z" id="Fill-90" fill="#1C5466" sketch:type="MSShapeGroup"></path>
            <path d="M563.58963,232.236735 L569.705461,230.536018 L570.251517,232.499835 L564.135687,234.201048 L563.58963,232.236735" id="Fill-91" fill="#1C5466" sketch:type="MSShapeGroup"></path>
            <path d="M566.2107,247.307391 C566.2107,247.307391 556.068946,243.979923 556.610039,247.398731 C557.151131,250.820518 562.264203,250.930226 562.264203,250.930226" id="Fill-92" fill="#1C5466" sketch:type="MSShapeGroup"></path>
            <path d="M583.188086,264.190954 L570.69829,279.6508 L559.831771,267.086045 L583.188086,264.190954" id="Fill-93" fill="#1C5466" sketch:type="MSShapeGroup"></path>
            <path d="M559.831771,267.086045 L551.68064,279.990844 L530.627689,265.728351 L559.831771,267.086045" id="Fill-94" fill="#1C5466" sketch:type="MSShapeGroup"></path>
            <path d="M530.061776,335.186211 C530.220629,336.135356 531.124104,336.804026 532.07722,336.672477 C532.250965,336.652124 532.404854,336.593547 532.558742,336.527027 L532.68781,337.29647 C532.86652,338.370712 533.784887,339.135687 534.738003,339.00364 C535.229454,338.936624 535.63155,338.650193 535.879757,338.237672 C536.09818,339.259294 536.986762,339.974628 537.910094,339.847546 C538.86321,339.719967 539.488693,338.741533 539.314948,337.67027 L539.300055,337.609708 C539.692223,338.023718 540.228351,338.253558 540.7893,338.177606 C541.742416,338.048538 542.367899,337.072587 542.189189,335.998842 L541.370105,331.105185 C541.921125,331.489906 542.606178,331.551958 543.177055,331.194539 C543.996139,330.674793 544.234418,329.485383 543.718147,328.537728 L535.760618,321.133701 C535.701048,321.019526 535.626586,320.916271 535.547159,320.819967 L526.939327,323.227579 L529.838389,334.215223 L530.061776,335.186211" id="Fill-95" fill="#1C5466" sketch:type="MSShapeGroup"></path>
            <path d="M562.993933,330.919029 L560.655819,320.828902 L557.419195,329.842306 L562.993933,330.919029" id="Fill-96" fill="#1C5466" sketch:type="MSShapeGroup"></path>
            <path d="M573.840596,221.336955 C573.840596,223.068946 575.24545,224.469333 576.972973,224.469333 C578.710425,224.469333 580.110314,223.068946 580.110314,221.336955 L580.110314,219.539934 C580.110314,217.810425 578.710425,216.409542 576.972973,216.409542 C575.24545,216.409542 573.840596,217.810425 573.840596,219.539934 L573.840596,221.336955" id="Fill-97" fill="#1C5466" sketch:type="MSShapeGroup"></path>
            <path d="M553.140099,224.330336 C553.140099,226.058356 554.544953,227.463707 556.272477,227.463707 C558.009928,227.463707 559.409818,226.058356 559.409818,224.330336 L559.409818,222.533811 C559.409818,220.802317 558.009928,219.401434 556.272477,219.401434 C554.544953,219.401434 553.140099,220.802317 553.140099,222.533811 L553.140099,224.330336" id="Fill-98" fill="#1C5466" sketch:type="MSShapeGroup"></path>
            <path d="M532.509101,221.041092 C532.509101,209.707943 536.798125,200.434418 542.223938,199.674407 C543.256481,198.752068 543.951462,198.30182 543.951462,198.30182 L545.043574,200.063596 C546.344181,200.61412 547.560397,201.652124 548.637617,203.093216 L547.520684,204.0508 L552.688362,212.388582 L542.372863,209.154937 L533.243795,228.934087 C532.772201,226.492223 532.509101,223.829454 532.509101,221.041092" id="Fill-99" fill="#1C5466" sketch:type="MSShapeGroup"></path>
            <path d="M577.777165,317.293436 L577.821842,317.255709 C577.255929,317.326696 576.694981,317.163376 576.312741,316.754826 C575.657474,316.047435 575.791506,314.89476 576.61059,314.176944 L580.348593,310.909542 C580.006067,310.884721 579.688362,310.768064 579.43519,310.578434 L575.826255,309.568726 C574.888031,309.309597 574.341975,308.341092 574.60011,307.403365 C574.86321,306.467623 575.836183,305.921566 576.769443,306.180695 L581.073359,307.380033 L591.001655,306.758522 C591.125758,306.706895 591.249862,306.673635 591.373966,306.651296 L594.7893,310.98599 L587.293436,320.627854 L586.509101,321.236459 C585.784335,321.872366 584.657474,321.815279 584.002206,321.109377 C583.883067,320.982295 583.798676,320.838334 583.724214,320.690403 L583.138445,321.20717 C582.31936,321.923497 581.118036,321.934915 580.462769,321.225041 C580.130171,320.860177 580.001103,320.383618 580.065637,319.905074 C579.256481,320.558853 578.114727,320.551407 577.479316,319.864865 C576.824049,319.162438 576.958081,318.007281 577.777165,317.293436" id="Fill-100" fill="#1C5466" sketch:type="MSShapeGroup"></path>
            <path d="M584.399338,307.212741 L594.054606,311.453116 C594.054606,311.453116 608.18257,298.499173 599.470491,286.726696 C590.753447,274.951737 590.048538,284.84032 590.048538,284.84032 L584.399338,307.212741" id="Fill-101" fill="#1C5466" sketch:type="MSShapeGroup"></path>
            <path d="M895.467733,73.637176 C894.916713,45.6751241 814.467733,24.5829564 715.77551,26.5274131 C617.088252,28.470877 537.532819,52.7137893 538.083839,80.6763376 C538.634859,108.637893 619.083839,129.730061 717.771098,127.7861 C728.970215,127.565692 739.916161,127.056867 750.534473,126.28941 C756.004964,147.776227 775.42471,163.716602 798.632101,163.834749 C798.880309,163.835742 799.13348,163.831771 799.381688,163.828792 C786.157198,156.981743 777.142306,143.151131 777.221732,127.236073 C777.226696,126.049145 777.296194,124.878103 777.400441,123.717485 C846.605626,115.391616 895.899614,95.6690568 895.467733,73.637176" id="Fill-102" fill="#BDC7B1" sketch:type="MSShapeGroup"></path>
            <path d="M597.196911,67.8112521 L596.243795,63.4388307 L595.315499,67.8112521 L597.196911,67.8112521 L597.196911,67.8112521 Z M604.638169,73.6907887 L598.403199,74.4954771 L597.653613,71.6554881 L594.784335,71.6554881 L594.158853,74.4954771 L587.750138,73.867016 L592.749035,57.1313844 L599.738555,56.7794264 L604.638169,73.6907887 L604.638169,73.6907887 Z" id="Fill-103" fill="#2F312E" sketch:type="MSShapeGroup"></path>
            <path d="M611.94043,57.0812466 L610.560397,74.1936569 L605.258687,74.47016 L605.258687,57.4327082 L611.94043,57.0812466" id="Fill-104" fill="#2F312E" sketch:type="MSShapeGroup"></path>
            <path d="M630.153889,56.7546056 L629.250414,73.7915609 L622.667954,74.3947049 L619.148373,65.2730833 L618.597352,74.5704357 L612.943188,74.5704357 L613.394926,56.7546056 L619.674573,56.4527854 L624.023166,65.498952 L624.221732,56.9551572 L630.153889,56.7546056" id="Fill-105" fill="#2F312E" sketch:type="MSShapeGroup"></path>
            <path d="M636.190292,58.9154992 C636.180364,59.3091561 636.095974,59.7450083 635.932157,60.2220629 C635.76834,60.6996139 635.539989,61.1707115 635.237176,61.6358522 C634.934363,62.1004964 634.57198,62.5403199 634.150028,62.9548263 C633.728075,63.3693326 633.251517,63.7153337 632.725317,63.9913403 C632.725317,63.9833977 632.720353,63.8846111 632.710425,63.6964699 C632.700496,63.5078323 632.690568,63.2774959 632.68064,63.0054606 C632.665747,62.7329288 632.650855,62.4420298 632.635962,62.1317705 C632.62107,61.8220077 632.606178,61.5455047 632.596249,61.3027579 C632.079978,61.1101489 631.667954,60.7874793 631.365141,60.3352454 C631.067292,59.8830116 630.913403,59.3846111 630.913403,58.8400441 C630.913403,58.4801434 630.982901,58.1410921 631.121897,57.8223938 C631.260894,57.5041919 631.449531,57.2257033 631.68781,56.9869277 C631.926089,56.7481522 632.204082,56.5580254 632.521787,56.4155543 C632.839493,56.2725869 633.182019,56.2015996 633.55433,56.2015996 C633.911748,56.2015996 634.254275,56.2725869 634.576944,56.4155543 C634.899614,56.5580254 635.177606,56.7481522 635.420849,56.9869277 C635.659129,57.2257033 635.847766,57.5041919 635.991726,57.8223938 C636.130723,58.1410921 636.200221,58.4801434 636.190292,58.8400441 L636.190292,58.9154992" id="Fill-106" fill="#2F312E" sketch:type="MSShapeGroup"></path>
            <path d="M650.844457,56.8047435 L650.720353,62.1317705 L646.977386,62.2826806 L646.024269,74.1936569 L640.722559,74.47016 L640.74738,62.5591837 L636.999448,62.7602317 L637.153337,56.8295643 L650.844457,56.8047435" id="Fill-107" fill="#2F312E" sketch:type="MSShapeGroup"></path>
            <path d="M674.166023,56.7546056 L673.262548,73.7915609 L666.675124,74.3947049 L663.160507,65.2730833 L662.604523,74.5704357 L656.950359,74.5704357 L657.40706,56.7546056 L663.686707,56.4527854 L668.035301,65.498952 L668.233867,56.9551572 L674.166023,56.7546056" id="Fill-108" fill="#2F312E" sketch:type="MSShapeGroup"></path>
            <path d="M685.226145,66.2276889 C685.226145,65.8677882 685.176503,65.5183122 685.072256,65.1787645 C684.968009,64.8397132 684.81412,64.537893 684.61059,64.2742967 C684.412024,64.0102041 684.163817,63.7967457 683.865968,63.6334253 C683.568119,63.4701048 683.225593,63.3881964 682.838389,63.3881964 C682.446222,63.3881964 682.093767,63.4596801 681.78599,63.6021511 C681.473249,63.7446222 681.210149,63.9392168 680.986762,64.1859349 C680.763376,64.4331495 680.594595,64.7220629 680.480419,65.0531715 C680.36128,65.3842802 680.30171,65.7337562 680.30171,66.102096 C680.30171,66.4540541 680.351351,66.8060121 680.455598,67.1574738 C680.554881,67.5094319 680.703806,67.8276338 680.907336,68.1125758 C681.105902,68.3975179 681.354109,68.6278544 681.651958,68.8035852 C681.949807,68.9793161 682.297297,69.0671815 682.689465,69.0671815 C683.081633,69.0671815 683.439051,68.9902372 683.751793,68.8348593 C684.064534,68.6799779 684.332598,68.4704909 684.55102,68.2068946 C684.769443,67.942802 684.93326,67.6394926 685.052399,67.2959735 C685.171539,66.9524545 685.226145,66.5965251 685.226145,66.2276889 L685.226145,66.2276889 Z M690.805847,65.901048 C690.805847,66.6635411 690.716492,67.3987314 690.542747,68.1061224 C690.369002,68.8140099 690.11583,69.4777165 689.783232,70.0977386 C689.450634,70.7177606 689.048538,71.2851627 688.576944,71.7999448 C688.10535,72.3152234 687.569222,72.7570325 686.978489,73.1258687 C686.392719,73.4942085 685.74738,73.7811362 685.052399,73.9861555 C684.357419,74.1916713 683.617761,74.2939327 682.838389,74.2939327 C682.088803,74.2939327 681.369002,74.1976282 680.683949,74.0050193 C680.003861,73.8129068 679.363486,73.5423607 678.767788,73.1948704 C678.177055,72.84738 677.635962,72.428406 677.15444,71.9384446 C676.672918,71.4484832 676.260894,70.9039162 675.923331,70.3047435 C675.585769,69.7065637 675.32267,69.0632101 675.134032,68.3761721 C674.945394,67.6896304 674.851076,66.9733039 674.851076,66.2276889 C674.851076,65.498952 674.94043,64.7851076 675.114175,64.0856591 C675.287921,63.3867071 675.541092,62.7264755 675.87369,62.1069498 C676.206288,61.4869277 676.60342,60.91754 677.075014,60.3982901 C677.541644,59.8790403 678.067843,59.4307777 678.648649,59.0539989 C679.234418,58.6767237 679.864865,58.3838389 680.539989,58.1743519 C681.220077,57.9648649 681.934915,57.8601213 682.689465,57.8601213 C683.905681,57.8601213 685.012686,58.048759 686.015444,58.4255378 C687.013238,58.8023166 687.867071,59.3409266 688.576944,60.0398787 C689.281853,60.7393271 689.832874,61.5857143 690.220077,62.5780474 C690.612245,63.5703806 690.805847,64.6783784 690.805847,65.901048 L690.805847,65.901048 Z" id="Fill-109" fill="#2F312E" sketch:type="MSShapeGroup"></path>
            <path d="M706.28406,63.1116933 C706.28406,62.5676227 706.120243,62.1426917 705.787645,61.8364038 C705.460011,61.5311087 705.02813,61.3782129 704.501931,61.3782129 C704.323221,61.3782129 704.144512,61.3926089 703.955874,61.4218974 C703.767237,61.4516823 703.588527,61.4869277 703.419746,61.5286266 L703.270822,65.1976282 C703.384997,65.2145063 703.499173,65.2229454 703.608384,65.2229454 L703.95091,65.2229454 C704.248759,65.2229454 704.541644,65.1723111 704.819636,65.0720353 C705.102592,64.9712631 705.3508,64.8268064 705.569222,64.6386652 C705.787645,64.4500276 705.96139,64.2281302 706.090458,63.9724766 C706.219526,63.7173194 706.28406,63.4303916 706.28406,63.1116933 L706.28406,63.1116933 Z M711.863762,62.6847766 C711.863762,63.4974076 711.744622,64.2177055 711.501379,64.8461666 C711.258136,65.4741313 710.925538,66.0226696 710.498621,66.4917816 C710.076669,66.9608935 709.580254,67.3585218 709.009377,67.6851627 C708.443464,68.0118036 707.832874,68.277882 707.18257,68.4833977 C706.532267,68.688417 705.862107,68.8393271 705.167126,68.9356315 C704.472146,69.031936 703.787093,69.084556 703.116933,69.0924986 L703.116933,74.947711 L697.264203,74.947711 C697.264203,73.0295643 697.269167,71.1198566 697.279095,69.2180916 C697.28406,67.3168229 697.298952,65.3986762 697.313844,63.4636514 C697.333701,62.4420298 697.333701,61.4204082 697.328737,60.3982901 C697.318809,59.3761721 697.338665,58.3461114 697.388307,57.3071153 C698.460563,56.9889134 699.532819,56.7501379 700.605074,56.5912852 C701.67733,56.431936 702.784335,56.3525097 703.921125,56.3525097 C704.566464,56.3525097 705.211804,56.4051296 705.857143,56.5093767 C706.502482,56.6141202 707.123001,56.7794264 707.713734,57.0057915 C708.299504,57.2321566 708.850524,57.5146167 709.356867,57.8541644 C709.86321,58.1932157 710.300055,58.5972973 710.672366,59.0664093 C711.039713,59.5355212 711.327634,60.0691671 711.546056,60.6683398 C711.75455,61.2675124 711.863762,61.9391616 711.863762,62.6847766 L711.863762,62.6847766 Z" id="Fill-110" fill="#2F312E" sketch:type="MSShapeGroup"></path>
            <path d="M719.885825,67.8112521 L718.932708,63.4388307 L717.999448,67.8112521 L719.885825,67.8112521 L719.885825,67.8112521 Z M727.322118,73.6907887 L721.092113,74.4954771 L720.337562,71.6554881 L717.473249,71.6554881 L716.842802,74.4954771 L710.439051,73.867016 L715.437948,57.1313844 L722.422504,56.7794264 L727.322118,73.6907887 L727.322118,73.6907887 Z" id="Fill-111" fill="#2F312E" sketch:type="MSShapeGroup"></path>
            <path d="M736.942637,63.0615554 C736.942637,62.7100938 736.892995,62.3874242 736.798676,62.0945394 C736.699393,61.8011583 736.555433,61.5474903 736.37176,61.334032 C736.183122,61.1205736 735.944843,60.9532819 735.666851,60.8316602 C735.383894,60.7100386 735.05626,60.649476 734.678985,60.649476 C734.510204,60.649476 734.346387,60.6599007 734.187534,60.6807501 C734.028682,60.7015996 733.874793,60.7333701 733.725869,60.7750689 L733.522339,65.4488141 L733.825152,65.4488141 C734.187534,65.4488141 734.549917,65.4026475 734.922228,65.3108108 C735.299504,65.2184777 735.632101,65.0760066 735.92995,64.8833977 C736.227799,64.6912852 736.471042,64.4435742 736.65968,64.1422504 C736.848318,63.8409266 736.942637,63.4805295 736.942637,63.0615554 L736.942637,63.0615554 Z M742.57198,62.6594595 C742.57198,63.3132377 742.51241,63.9054606 742.398235,64.4376172 C742.289024,64.9692774 742.110314,65.4572532 741.867071,65.901048 C741.623828,66.3453392 741.311087,66.7553778 740.923883,67.1326531 C740.53668,67.5094319 740.075014,67.869829 739.528958,68.2128516 L742.517375,73.5403751 L736.868174,74.6458908 L734.932157,69.2935466 L733.373414,69.3436845 L733.145063,74.5704357 L727.744071,74.5704357 C727.783784,72.6607281 727.828461,70.7594595 727.86321,68.8666299 C727.902923,66.9733039 727.947601,65.0720353 727.997242,63.1623276 C728.012135,62.1987865 728.027027,61.2441809 728.046884,60.2975179 C728.061776,59.3513514 728.096525,58.3962493 728.146167,57.4327082 C728.731936,57.2152785 729.312741,57.03508 729.878654,56.8926089 C730.449531,56.7501379 731.020408,56.6394374 731.596249,56.560011 C732.167126,56.4800883 732.752896,56.425979 733.343629,56.3961942 C733.934363,56.3669057 734.535025,56.3525097 735.155543,56.3525097 C736.113624,56.3525097 737.036955,56.484556 737.925538,56.7481522 C738.819084,57.0122449 739.608384,57.4078875 740.2984,57.9355764 C740.983453,58.4632653 741.534473,59.1210149 741.946498,59.9083287 C742.363486,60.6956426 742.57198,61.6125207 742.57198,62.6594595 L742.57198,62.6594595 Z" id="Fill-112" fill="#2F312E" sketch:type="MSShapeGroup"></path>
            <path d="M756.972973,56.8047435 L756.848869,62.1317705 L753.105902,62.2826806 L752.147821,74.1936569 L746.846111,74.47016 L746.870932,62.5591837 L743.127965,62.7602317 L743.281853,56.8295643 L756.972973,56.8047435" id="Fill-113" fill="#2F312E" sketch:type="MSShapeGroup"></path>
            <path d="M774.069498,57.7598456 L767.159404,67.4091561 L766.831771,75.2738555 L760.874793,75.2738555 L761.023718,67.459294 L757.434639,58.1366244 L763.838389,57.3324324 L764.846111,62.7602317 L768.038058,57.3324324 L774.069498,57.7598456" id="Fill-114" fill="#2F312E" sketch:type="MSShapeGroup"></path>
            <path d="M790.123552,67.6097077 L789.597352,73.188417 L779.018753,74.0179261 C779.068395,71.0945394 779.123001,68.1880309 779.187534,65.2984004 C779.252068,62.4082736 779.326531,59.501765 779.420849,56.5783784 L785.953668,56.5783784 C785.760066,58.4131274 785.576393,60.2453944 785.402648,62.0751793 C785.223938,63.9054606 785.099835,65.7506343 785.025372,67.6097077 C785.41754,67.6270822 785.804744,67.6350248 786.191947,67.6350248 L787.358522,67.6350248 C787.830116,67.6350248 788.291782,67.6310535 788.743519,67.6226145 C789.195256,67.6141754 789.656922,67.6097077 790.123552,67.6097077" id="Fill-115" fill="#2F312E" sketch:type="MSShapeGroup"></path>
            <path d="M797.758411,57.0812466 L796.373414,74.1936569 L791.071704,74.47016 L791.071704,57.4327082 L797.758411,57.0812466" id="Fill-116" fill="#2F312E" sketch:type="MSShapeGroup"></path>
            <path d="M814.815223,56.7794264 L808.758963,65.1474903 L813.857143,74.0427468 L808.029233,75.0733039 L804.206839,69.6450083 L804.008274,75.3244898 L798.781026,75.5255378 L799.183122,56.2770546 L805.035852,56.6036955 L804.584115,62.2826806 L808.480971,56.2770546 L814.815223,56.7794264" id="Fill-117" fill="#2F312E" sketch:type="MSShapeGroup"></path>
            <path d="M826.843354,56.6538334 C826.793712,57.4416437 826.744071,58.2205185 826.704357,58.9909542 C826.664644,59.76139 826.610039,60.5407612 826.540541,61.328075 L821.21401,61.6040816 L821.089906,63.1871484 L824.832874,63.1871484 L824.554881,67.0820188 L820.787093,67.2081081 L820.66299,69.0423607 L825.98952,69.0423607 C825.939879,69.9637066 825.885273,70.878599 825.830667,71.7875345 C825.776062,72.6964699 825.72642,73.6073911 825.686707,74.5202978 L814.854937,74.7714837 L815.257033,56.6538334 L826.843354,56.6538334" id="Fill-118" fill="#2F312E" sketch:type="MSShapeGroup"></path>
            <path d="M841.214562,67.8112521 L840.261445,63.4388307 L839.333149,67.8112521 L841.214562,67.8112521 L841.214562,67.8112521 Z M848.655819,73.6907887 L842.420849,74.4954771 L841.666299,71.6554881 L838.801986,71.6554881 L838.176503,74.4954771 L831.767788,73.867016 L836.766685,57.1313844 L843.756205,56.7794264 L848.655819,73.6907887 L848.655819,73.6907887 Z" id="Fill-119" fill="#2F312E" sketch:type="MSShapeGroup"></path>
            <path d="M629.031991,91.1918919 L629.031991,92.6622725 C629.031991,93.1477661 629.00717,93.6382239 628.957529,94.1321566 C628.86321,95.1790954 628.639823,96.1699393 628.277441,97.1031991 C627.920022,98.0374517 627.428571,98.8560397 626.813017,99.5599559 C626.197463,100.263376 625.452841,100.820353 624.574186,101.230888 C623.690568,101.640927 622.682846,101.846442 621.546056,101.846442 C621.099283,101.846442 620.637617,101.808715 620.156095,101.733756 C619.674573,101.658301 619.198014,101.545119 618.721456,101.394208 C618.249862,101.243298 617.798125,101.057143 617.366244,100.835245 C616.934363,100.613348 616.552124,100.355709 616.214562,100.062328 L616.993933,94.8608935 C617.490347,95.3384446 618.036404,95.7256481 618.64203,96.0230006 C619.242692,96.320353 619.902923,96.4692774 620.612796,96.4692774 C621.074462,96.4692774 621.46663,96.4022614 621.784335,96.267733 C622.102041,96.1341975 622.365141,95.9500276 622.573635,95.7152234 C622.782129,95.4809156 622.95091,95.2063982 623.07005,94.8921677 C623.194153,94.5779371 623.278544,94.2433536 623.333149,93.8869277 C623.387755,93.5309983 623.422504,93.1646442 623.437397,92.7878654 C623.447325,92.4105902 623.452289,92.0382791 623.452289,91.6694429 C623.452289,90.3375621 623.387755,89.0121346 623.253723,87.6926641 C623.119691,86.37369 623.000552,85.0527303 622.901269,83.7287921 L628.654716,83.3520132 C628.907887,85.9651407 629.031991,88.5787645 629.031991,91.1918919" id="Fill-120" fill="#2F312E" sketch:type="MSShapeGroup"></path>
            <path d="M638.285163,94.5843905 L637.332046,90.2119691 L636.403751,94.5843905 L638.285163,94.5843905 L638.285163,94.5843905 Z M645.72642,100.464424 L639.491451,101.268616 L638.7369,98.429123 L635.872587,98.429123 L635.247104,101.268616 L628.838389,100.640154 L633.837286,83.9045229 L640.821842,83.5530612 L645.72642,100.464424 L645.72642,100.464424 Z" id="Fill-121" fill="#2F312E" sketch:type="MSShapeGroup"></path>
            <path d="M660.23166,83.92984 L655.629895,101.419526 L649.39989,101.770987 L643.745725,84.1055709 L649.702703,83.5530612 L652.110314,93.8556536 L654.448428,83.5530612 L660.23166,83.92984" id="Fill-122" fill="#2F312E" sketch:type="MSShapeGroup"></path>
            <path d="M668.000552,94.5843905 L667.042471,90.2119691 L666.114175,94.5843905 L668.000552,94.5843905 L668.000552,94.5843905 Z M675.436845,100.464424 L669.206839,101.268616 L668.452289,98.429123 L665.587976,98.429123 L664.957529,101.268616 L658.553778,100.640154 L663.552675,83.9045229 L670.537231,83.5530612 L675.436845,100.464424 L675.436845,100.464424 Z" id="Fill-123" fill="#2F312E" sketch:type="MSShapeGroup"></path>
            <path d="M687.455047,87.7497518 L681.7016,95.5141754 L687.251517,95.5141754 L687.177055,100.841202 L675.972973,101.293436 L675.46663,96.3685052 L682.029233,87.8247104 L676.022614,88.2774407 L675.972973,83.2264203 L687.226696,83.2264203 L687.455047,87.7497518" id="Fill-124" fill="#2F312E" sketch:type="MSShapeGroup"></path>
            <path d="M698.276889,93.0013238 C698.276889,92.6414231 698.227248,92.2914506 698.123001,91.9523993 C698.018753,91.6128516 697.864865,91.3115279 697.661335,91.0474352 C697.462769,90.7838389 697.214562,90.5698842 696.916713,90.4070601 C696.618864,90.2437397 696.276338,90.1618312 695.889134,90.1618312 C695.496966,90.1618312 695.144512,90.2333149 694.836735,90.3752896 C694.523993,90.5177606 694.260894,90.7123552 694.037507,90.9595698 C693.81412,91.2067843 693.645339,91.4956977 693.531164,91.8268064 C693.412024,92.1574186 693.352454,92.5073911 693.352454,92.8757308 C693.352454,93.2271925 693.402096,93.5791506 693.506343,93.9311087 C693.605626,94.2830667 693.75455,94.6012686 693.958081,94.8862107 C694.156646,95.1706564 694.404854,95.4009928 694.702703,95.5772201 C695.000552,95.7529509 695.348042,95.8408163 695.74021,95.8408163 C696.132377,95.8408163 696.489796,95.7633756 696.802537,95.6084942 C697.115279,95.4536128 697.383343,95.2441258 697.601765,94.9800331 C697.820188,94.7164368 697.984004,94.4131274 698.103144,94.069112 C698.222284,93.7260894 698.276889,93.3696635 698.276889,93.0013238 L698.276889,93.0013238 Z M703.856591,92.6746828 C703.856591,93.437176 703.767237,94.1718698 703.593491,94.8797573 C703.419746,95.5876448 703.166575,96.2513514 702.833977,96.8713734 C702.501379,97.4908991 702.099283,98.0583012 701.627689,98.5735797 C701.156095,99.0883618 700.619967,99.5306674 700.029233,99.8990072 C699.443464,100.267843 698.798125,100.554771 698.103144,100.75979 C697.408163,100.965306 696.668505,101.067568 695.889134,101.067568 C695.139548,101.067568 694.419746,100.971263 693.734694,100.778654 C693.054606,100.586045 692.414231,100.315996 691.818533,99.9680088 C691.227799,99.6205185 690.686707,99.2015444 690.205185,98.711583 C689.723662,98.2216216 689.311638,97.677551 688.974076,97.0783784 C688.636514,96.4797022 688.373414,95.836845 688.184777,95.1498069 C687.996139,94.4632653 687.90182,93.7469388 687.90182,93.0013238 C687.90182,92.2725869 687.991175,91.5587424 688.16492,90.859294 C688.338665,90.1598456 688.591837,89.5001103 688.924435,88.8805847 C689.257033,88.2605626 689.654164,87.6911748 690.125758,87.1714286 C690.592388,86.6521787 691.118588,86.2039162 691.699393,85.8271373 C692.285163,85.4503585 692.915609,85.1574738 693.590734,84.9474903 C694.270822,84.7384997 694.985659,84.6337562 695.74021,84.6337562 C696.956426,84.6337562 698.063431,84.8218974 699.066189,85.1991726 C700.063982,85.5759515 700.917816,86.1140651 701.627689,86.8135135 C702.332598,87.5129619 702.883618,88.3588527 703.270822,89.3511859 C703.66299,90.3440154 703.856591,91.4520132 703.856591,92.6746828 L703.856591,92.6746828 Z" id="Fill-125" fill="#2F312E" sketch:type="MSShapeGroup"></path>
            <path d="M722.079978,83.5277441 L721.176503,100.565196 L714.594043,101.167843 L711.074462,92.0462217 L710.523442,101.344071 L704.869277,101.344071 L705.321015,83.5277441 L711.600662,83.2264203 L715.949255,92.2725869 L716.152785,83.7287921 L722.079978,83.5277441" id="Fill-126" fill="#2F312E" sketch:type="MSShapeGroup"></path>
            <path d="M735.254826,83.4274683 C735.205185,84.2147821 735.160507,84.9936569 735.11583,85.7645891 C735.076117,86.5350248 735.021511,87.3138996 734.952013,88.1012135 L729.625483,88.3777165 L729.501379,89.9607832 L733.244346,89.9607832 L732.966354,93.8556536 L729.198566,93.9812466 L729.074462,95.8154992 L734.400993,95.8154992 C734.351351,96.7373414 734.296746,97.6522339 734.24214,98.5606729 C734.187534,99.4701048 734.142857,100.38053 734.09818,101.293436 L723.266409,101.545119 L723.668505,83.4274683 L735.254826,83.4274683" id="Fill-127" fill="#2F312E" sketch:type="MSShapeGroup"></path>
            <path d="M750.281302,89.8853282 C750.281302,89.3412576 750.117485,88.9158301 749.784887,88.6100386 C749.452289,88.3042471 749.025372,88.1513514 748.499173,88.1513514 C748.320463,88.1513514 748.13679,88.1662438 747.953116,88.1955323 C747.764479,88.2248207 747.585769,88.2605626 747.416988,88.3022614 L747.268064,91.9712631 C747.382239,91.9881412 747.496415,91.9960838 747.605626,91.9960838 L747.943188,91.9960838 C748.246001,91.9960838 748.538886,91.9459459 748.816878,91.8456702 C749.099835,91.744898 749.348042,91.6004413 749.566464,91.4118036 C749.784887,91.2236624 749.958632,91.001765 750.0877,90.7461114 C750.216768,90.4904578 750.281302,90.2040265 750.281302,89.8853282 L750.281302,89.8853282 Z M755.861004,89.4584115 C755.861004,90.2705461 755.7369,90.9908439 755.493657,91.619305 C755.250414,92.2472697 754.917816,92.7963045 754.495863,93.26492 C754.073911,93.7345284 753.577496,94.1321566 753.006619,94.4587976 C752.435742,94.7854385 751.830116,95.0515168 751.179812,95.2565361 C750.529509,95.4620518 749.859349,95.6124655 749.164368,95.70877 C748.469388,95.8050745 747.784335,95.8576944 747.114175,95.8661335 L747.114175,101.720849 L741.261445,101.720849 C741.261445,99.8027027 741.266409,97.892995 741.271373,95.9917264 C741.281302,94.0904578 741.29123,92.1718147 741.311087,90.2372863 C741.325979,89.2151682 741.330943,88.1935466 741.321015,87.1714286 C741.316051,86.1498069 741.335907,85.1192499 741.385549,84.0807501 C742.457805,83.7625483 743.530061,83.5237728 744.602317,83.3644236 C745.674573,83.2055709 746.781577,83.1256481 747.918367,83.1256481 C748.563707,83.1256481 749.209046,83.1782681 749.854385,83.2830116 C750.499724,83.3877551 751.115279,83.5530612 751.706012,83.7794264 C752.296746,84.0052951 752.847766,84.2877551 753.354109,84.6273028 C753.860452,84.9663541 754.297297,85.3709322 754.664644,85.8400441 C755.031991,86.3086597 755.324876,86.842802 755.538334,87.4414782 C755.751793,88.0406509 755.861004,88.7127965 755.861004,89.4584115 L755.861004,89.4584115 Z" id="Fill-128" fill="#2F312E" sketch:type="MSShapeGroup"></path>
            <path d="M763.883067,94.5843905 L762.924986,90.2119691 L761.996691,94.5843905 L763.883067,94.5843905 L763.883067,94.5843905 Z M771.31936,100.464424 L765.089355,101.268616 L764.334804,98.429123 L761.470491,98.429123 L760.840044,101.268616 L754.431329,100.640154 L759.43519,83.9045229 L766.419746,83.5530612 L771.31936,100.464424 L771.31936,100.464424 Z" id="Fill-129" fill="#2F312E" sketch:type="MSShapeGroup"></path>
            <path d="M780.934915,89.8351903 C780.934915,89.4832322 780.890237,89.161059 780.790954,88.8676779 C780.696635,88.5747932 780.552675,88.3211252 780.364038,88.1076669 C780.1754,87.8942085 779.942085,87.7264203 779.659129,87.6047987 C779.381136,87.4836735 779.053502,87.4226145 778.676227,87.4226145 C778.507446,87.4226145 778.343629,87.4335356 778.184777,87.4538886 C778.025924,87.4752344 777.872035,87.5065085 777.718147,87.5482074 L777.519581,92.222449 L777.822394,92.222449 C778.179812,92.222449 778.547159,92.1762824 778.91947,92.0839493 C779.291782,91.9921125 779.629344,91.8496415 779.927192,91.6570325 C780.225041,91.4644236 780.468285,91.217209 780.651958,90.9158853 C780.840596,90.6140651 780.934915,90.2541644 780.934915,89.8351903 L780.934915,89.8351903 Z M786.564258,89.4330943 C786.564258,90.0863762 786.509653,90.6790954 786.395477,91.2107557 C786.281302,91.7429123 786.102592,92.230888 785.864313,92.6746828 C785.62107,93.1189741 785.303365,93.5290127 784.921125,93.9057915 C784.533922,94.2830667 784.067292,94.6429675 783.5262,94.9864865 L786.514617,100.313514 L780.860452,101.419526 L778.924435,96.0666851 L777.370656,96.1173194 L777.142306,101.344071 L771.741313,101.344071 C771.781026,99.4343629 771.820739,97.5330943 771.860452,95.6397683 C771.895201,93.7469388 771.939879,91.8456702 771.98952,89.9354661 C772.009377,88.9724214 772.024269,88.0178158 772.039162,87.0706564 C772.059018,86.1244898 772.093767,85.1693878 772.143409,84.2063431 C772.729178,83.988417 773.305019,83.8087148 773.875896,83.6662438 C774.446773,83.5237728 775.01765,83.4125758 775.588527,83.3331495 C776.164368,83.2537231 776.745174,83.1991175 777.335907,83.169829 C777.926641,83.1405405 778.532267,83.1256481 779.152785,83.1256481 C780.105902,83.1256481 781.029233,83.2576944 781.92278,83.5217871 C782.816327,83.7853833 783.605626,84.1810259 784.290678,84.7092113 C784.975731,85.2369002 785.531715,85.8941533 785.94374,86.6814672 C786.360728,87.468781 786.564258,88.3861555 786.564258,89.4330943 L786.564258,89.4330943 Z" id="Fill-130" fill="#2F312E" sketch:type="MSShapeGroup"></path>
            <path d="M800.970215,83.577882 L800.846111,88.9054054 L797.103144,89.0563155 L796.145063,100.967292 L790.843354,101.243298 L790.868174,89.3328185 L787.125207,89.5333701 L787.274131,83.6031991 L800.970215,83.577882" id="Fill-131" fill="#2F312E" sketch:type="MSShapeGroup"></path>
            <path d="M818.06674,84.532984 L811.151682,94.1822945 L810.829013,102.04749 L804.872035,102.04749 L805.02096,94.2324324 L801.426917,84.9097628 L807.835632,84.1055709 L808.843354,89.5333701 L812.035301,84.1055709 L818.06674,84.532984" id="Fill-132" fill="#2F312E" sketch:type="MSShapeGroup"></path>
            <path d="M824.103144,99.9620518 C824.103144,100.330392 824.028682,100.673911 823.884721,100.992113 C823.745725,101.310314 823.552124,101.588803 823.313844,101.827579 C823.075565,102.066354 822.797573,102.254992 822.479868,102.392995 C822.162162,102.530998 821.8246,102.600496 821.462217,102.600496 C821.09487,102.600496 820.752344,102.530998 820.429675,102.392995 C820.111969,102.254992 819.833977,102.066354 819.595698,101.827579 C819.357419,101.588803 819.168781,101.310314 819.029785,100.992113 C818.890789,100.673911 818.821291,100.330392 818.821291,99.9620518 C818.821291,99.6016547 818.890789,99.2581357 819.029785,98.9314948 C819.168781,98.6048538 819.357419,98.3223938 819.595698,98.0836183 C819.833977,97.8448428 820.111969,97.6542195 820.429675,97.5117485 C820.752344,97.3697739 821.09487,97.2982901 821.462217,97.2982901 C821.8246,97.2982901 822.162162,97.3697739 822.479868,97.5117485 C822.797573,97.6542195 823.075565,97.8448428 823.313844,98.0836183 C823.552124,98.3223938 823.745725,98.6048538 823.884721,98.9314948 C824.028682,99.2581357 824.103144,99.6016547 824.103144,99.9620518 L824.103144,99.9620518 Z M824.932157,82.8744622 L823.899614,96.0920022 L819.253172,96.0920022 L818.771649,82.8744622 L824.932157,82.8744622 L824.932157,82.8744622 Z" id="Fill-133" fill="#2F312E" sketch:type="MSShapeGroup"></path>
        </g>
    </g>
</svg>