<?xml version="1.0" encoding="UTF-8" standalone="no"?>
<svg width="860px" height="218px" viewBox="0 0 860 218" version="1.1" xmlns="http://www.w3.org/2000/svg" xmlns:xlink="http://www.w3.org/1999/xlink" xmlns:sketch="http://www.bohemiancoding.com/sketch/ns">
    <!-- Generator: Sketch 3.3 (11970) - http://www.bohemiancoding.com/sketch -->
    <title>web-info-2</title>
    <desc>Created with Sketch.</desc>
    <defs>
        <path id="path-1" d="M0.0217446271,0.114884113 L859.648462,0.114884113 L859.648462,217.786936 L0.0217446271,217.786936 L0.0217446271,0.114884113 Z"></path>
    </defs>
    <g id="Page-1" stroke="none" stroke-width="1" fill="none" fill-rule="evenodd" sketch:type="MSPage">
        <g id="web-info-2" sketch:type="MSLayerGroup">
            <path d="M0.0217446271,0.114884113 L215.996629,0.114884113 L215.996629,216.111513 L0.0217446271,216.111513 L0.0217446271,0.114884113 Z" id="Fill-1" fill="#1C5466" sketch:type="MSShapeGroup"></path>
            <path d="M179.122815,182.587459 C179.122815,182.587459 178.682486,162.332701 165.252642,155.287804 C151.823161,148.242545 144.840236,148.635761 144.840236,148.635761 L69.7245091,155.167484 L62.3345976,158.990552 C62.3345976,158.990552 55.9318921,161.165015 51.9453772,169.862866 C47.9588622,178.560716 50.0126422,185.084105 50.0126422,185.084105 L51.5416519,216.214075 L157.402832,216.214075 L155.642604,185.914387 L179.122815,182.587459" id="Fill-3" fill="#2F312E" sketch:type="MSShapeGroup"></path>
            <path d="M154.964534,77.0310662 C154.964534,102.058045 134.67716,122.345782 109.651993,122.345782 C84.6257396,122.345782 64.3361905,102.058045 64.3361905,77.0310662 C64.3361905,52.0058997 84.6257396,31.7178003 109.651993,31.7178003 C134.67716,31.7178003 154.964534,52.0058997 154.964534,77.0310662" id="Fill-4" fill="#E7B640" sketch:type="MSShapeGroup"></path>
            <path d="M74.8073156,86.3348673 C75.748858,95.0765697 72.5868268,102.586439 67.7461104,103.109035 C62.903582,103.630544 58.2143531,96.9650906 57.2728108,88.2241129 C56.3316308,79.4809608 59.4932996,71.9700042 64.3354657,71.4499452 C69.1765445,70.9280742 73.8657733,77.5938896 74.8073156,86.3348673" id="Fill-5" fill="#F4DAB9" sketch:type="MSShapeGroup"></path>
            <path d="M108.744517,158.83834 L69.7245091,157.126675 L71.6757269,66.9926591 L81.8007501,46.6538222 L145.485327,57.9211631 L149.892962,91.2339317 L144.678963,148.798483 L108.744517,158.83834" id="Fill-6" fill="#F4DAB9" sketch:type="MSShapeGroup"></path>
            <path d="M122.391808,102.285276 L126.448268,137.177429 L109.812903,135.618702 L122.391808,102.285276" id="Fill-7" fill="#BD837D" sketch:type="MSShapeGroup"></path>
            <path d="M90.6189212,45.6735019 C90.6189212,45.6735019 85.3378761,47.8041129 98.2973114,45.6216772 C117.12236,42.4505858 145.974943,57.9211631 145.974943,57.9211631 L142.056924,31.4680995 C142.056924,31.4680995 106.293898,19.7107796 80.3304509,43.2257817" id="Fill-8" fill="#E7B640" sketch:type="MSShapeGroup"></path>
            <path d="M102.41067,90.3924147 C98.6089844,96.8335356 90.3065234,98.9724821 83.8654024,95.1715213 C77.4257311,91.3712853 75.2856974,83.0688243 79.0873831,76.6269785 C82.8887063,70.1865824 91.1900801,68.0479983 97.6304762,71.8485967 C104.071235,75.6495575 106.211631,83.9516561 102.41067,90.3924147 L102.41067,90.3924147 Z M133.701913,106.462056 C129.900952,112.902815 121.598129,115.042486 115.158095,111.241525 C108.717337,107.440565 106.576941,99.1373788 110.378264,92.6969827 C114.179949,86.2558618 122.482048,84.1172777 128.922444,87.9182385 C135.362478,91.7195617 137.502874,100.020936 133.701913,106.462056 L133.701913,106.462056 Z M102.831791,88.7764265 L109.622638,91.7188369 L102.831791,88.7764265 Z" id="Stroke-9" stroke="#1C5466" stroke-width="3" sketch:type="MSShapeGroup"></path>
            <path d="M153.584838,216.315188 L179.122815,216.315188 L179.122815,181.808276 L153.584838,184.229903 L153.584838,216.315188" id="Fill-10" fill="#F4DAB9" sketch:type="MSShapeGroup"></path>
            <path d="M49.6940834,216.315188 L75.2316983,216.315188 L75.2316983,186.775112 L49.6940834,184.229903 L49.6940834,216.315188" id="Fill-11" fill="#F4DAB9" sketch:type="MSShapeGroup"></path>
            <path d="M87.9809355,71.1810367 C87.9809355,73.6903666 85.9441888,75.7267509 83.4344964,75.7267509 C80.922992,75.7267509 78.889507,73.6903666 78.889507,71.1810367 L78.889507,68.5720438 C78.889507,66.0627139 80.922992,64.0277792 83.4344964,64.0277792 C85.9441888,64.0277792 87.9809355,66.0627139 87.9809355,68.5720438 L87.9809355,71.1810367" id="Fill-12" fill="#2F312E" sketch:type="MSShapeGroup"></path>
            <path d="M139.852381,124.593089 C139.852381,127.102419 137.815272,129.138803 135.306304,129.138803 C132.794075,129.138803 130.76059,127.102419 130.76059,124.593089 L130.76059,121.983734 C130.76059,119.474766 132.794075,117.439469 135.306304,117.439469 C137.815272,117.439469 139.852381,119.474766 139.852381,121.983734 L139.852381,124.593089" id="Fill-13" fill="#2F312E" sketch:type="MSShapeGroup"></path>
            <path d="M173.708765,101.948234 C171.961222,101.675702 170.205343,102.17619 168.584644,103.271395 L168.320084,133.315221 C168.475921,133.352187 168.634294,133.383717 168.794117,133.409448 C174.139309,134.244442 179.573291,127.87834 180.931606,119.190274 C182.28847,110.502571 179.055044,102.782866 173.708765,101.948234" id="Fill-14" fill="#F4DAB9" sketch:type="MSShapeGroup"></path>
            <path d="M67.4521955,61.5213485 L78.6869195,24.9175306 L79.7741509,34.3405647 L94.2705689,25.279941 L83.0358449,43.0380531" id="Fill-15" fill="#E7B640" sketch:type="MSShapeGroup"></path>
            <path d="M107.820371,116.622233 C107.820371,119.330527 102.367181,121.525647 95.6408428,121.525647 C88.9141424,121.525647 83.4609524,119.330527 83.4609524,116.622233 C83.4609524,113.914303 88.9141424,111.718458 95.6408428,111.718458 C102.367181,111.718458 107.820371,113.914303 107.820371,116.622233" id="Fill-16" fill="#FFFFFF" sketch:type="MSShapeGroup"></path>
            <path d="M79.7705268,115.303784 L112.777421,116.569322 M86.4142351,110.347459 L88.7343869,122.580261 M90.9487147,109.609229 L94.0070965,123.107568 M97.1705773,108.449878 L98.8579604,123.21303 M102.232002,109.609229 L104.868538,121.947493" id="Stroke-17" stroke="#F4DAB9" stroke-width="1.5" sketch:type="MSShapeGroup"></path>
            <path d="M107.820733,116.411311 C107.820733,119.119604 102.367543,121.314724 95.6408428,121.314724 C88.9141424,121.314724 83.4609524,119.119604 83.4609524,116.411311 C83.4609524,113.70338 88.9141424,111.507535 95.6408428,111.507535 C102.367543,111.507535 107.820733,113.70338 107.820733,116.411311 L107.820733,116.411311 Z" id="Stroke-18" stroke="#BD837D" stroke-width="2" stroke-linecap="round" sketch:type="MSShapeGroup"></path>
            <path d="M377.167804,76.6679309 L377.167804,81.119056 C377.167804,82.5904425 377.091698,84.0741509 376.939486,85.5701812 C376.66043,88.7409102 375.975474,91.7398567 374.888243,94.5677455 C373.797387,97.3956342 372.318753,99.8745217 370.455963,102.005133 C368.589549,104.135381 366.328108,105.822402 363.664391,107.064745 C361.001037,108.30745 357.944467,108.928984 354.495407,108.928984 C353.150864,108.928984 351.749785,108.814825 350.291808,108.586507 C348.833106,108.358188 347.38745,108.016072 345.954842,107.559435 C344.521871,107.102798 343.15196,106.538887 341.846195,105.866254 C340.539343,105.194707 339.379267,104.4148 338.36488,103.526894 L340.72381,87.776536 C342.21984,89.2221913 343.881492,90.3960388 345.707678,91.2959039 C347.533502,92.1964939 349.524223,92.6466077 351.680565,92.6466077 C353.074758,92.6466077 354.254041,92.4436578 355.218416,92.0377581 C356.181702,91.6322208 356.98118,91.0741087 357.615398,90.3637842 C358.248892,89.6541846 358.749743,88.8231774 359.117952,87.87185 C359.485436,86.920885 359.751445,85.9064981 359.916705,84.8286894 C360.081239,83.7508807 360.183076,82.6408175 360.221129,81.499587 C360.259545,80.3583565 360.278028,79.2298104 360.278028,78.1135862 C360.278028,74.0810451 360.075078,70.0673493 359.669541,66.0732238 C359.263279,62.0783734 358.908841,58.0777244 358.604416,54.0701896 L376.029836,52.9289591 C376.787273,60.8418289 377.167804,68.7550611 377.167804,76.6679309" id="Fill-19" fill="#1C5466" sketch:type="MSShapeGroup"></path>
            <path d="M405.189381,86.9400927 L402.297345,73.7005141 L399.481416,86.9400927 L405.189381,86.9400927 L405.189381,86.9400927 Z M427.709566,104.744231 L408.838854,107.178904 L406.555668,98.5810788 L397.883186,98.5810788 L395.980531,107.178904 L376.5807,105.276612 L391.722208,54.602933 L412.872482,53.5378087 L427.709566,104.744231 L427.709566,104.744231 Z" id="Fill-20" fill="#1C5466" sketch:type="MSShapeGroup"></path>
            <path d="M471.630088,54.6786768 L457.706279,107.635542 L438.835567,108.701028 L421.715297,55.2114201 L439.748841,53.5378087 L447.055036,84.7333755 L454.129288,53.5378087 L471.630088,54.6786768" id="Fill-21" fill="#1C5466" sketch:type="MSShapeGroup"></path>
            <path d="M495.157775,86.9400927 L492.269364,73.7005141 L489.453434,86.9400927 L495.157775,86.9400927 L495.157775,86.9400927 Z M517.681584,104.744231 L498.810872,107.178904 L496.527686,98.5810788 L487.855204,98.5810788 L485.95255,107.178904 L466.549094,105.276612 L481.690603,54.602933 L502.844501,53.5378087 L517.681584,104.744231 L517.681584,104.744231 Z" id="Fill-22" fill="#1C5466" sketch:type="MSShapeGroup"></path>
            <path d="M374.051075,129.708512 L356.626018,153.219528 L373.442225,153.219528 L373.213906,169.350055 L339.278154,170.719604 L337.756393,155.806414 L357.615398,129.936831 L339.430367,131.306743 L339.278154,116.012659 L373.366119,116.012659 L374.051075,129.708512" id="Fill-23" fill="#1C5466" sketch:type="MSShapeGroup"></path>
            <path d="M406.823852,145.610721 C406.823852,144.520952 406.664391,143.461627 406.349094,142.434193 C406.030173,141.407122 405.566287,140.493847 404.957438,139.695095 C404.352212,138.89598 403.594775,138.24944 402.695997,137.755112 C401.793595,137.260059 400.760725,137.013257 399.593763,137.013257 C398.401433,137.013257 397.33957,137.228529 396.400927,137.659798 C395.462284,138.091066 394.654109,138.680708 393.983649,139.428723 C393.31319,140.177101 392.798567,141.05196 392.443405,142.053662 C392.088243,143.056089 391.910662,144.114328 391.910662,145.230552 C391.910662,146.295676 392.062874,147.360801 392.367299,148.425925 C392.671724,149.491049 393.128361,150.455786 393.73721,151.317236 C394.34606,152.179772 395.099874,152.87705 395.998651,153.409794 C396.901054,153.942537 397.944796,154.208546 399.137126,154.208546 C400.329456,154.208546 401.402191,153.974429 402.351707,153.505107 C403.304846,153.036148 404.109397,152.401568 404.768984,151.602453 C405.428571,150.8037 405.935946,149.884627 406.291108,148.844509 C406.646271,147.804753 406.823852,146.726945 406.823852,145.610721 L406.823852,145.610721 Z M423.715803,144.621702 C423.715803,146.929895 423.447619,149.155457 422.914876,151.29839 C422.382132,153.442048 421.617446,155.451614 420.613569,157.328175 C419.613316,159.205461 418.395617,160.923287 416.964096,162.483102 C415.528951,164.042916 413.919848,165.380936 412.129541,166.496797 C410.342857,167.613021 408.396713,168.481719 406.291108,169.102891 C404.185504,169.724425 401.953055,170.035011 399.593763,170.035011 C397.310577,170.035011 395.136115,169.743633 393.070375,169.159789 C391.004635,168.576671 389.069364,167.75871 387.268184,166.705908 C385.467004,165.653831 383.839781,164.385394 382.379267,162.901686 C380.922377,161.417615 379.679309,159.769735 378.653687,157.95587 C377.624442,156.143093 376.827139,154.196224 376.25453,152.116351 C375.685546,150.036839 375.399241,147.868538 375.399241,145.610721 C375.399241,143.404366 375.667425,141.242587 376.200169,139.124298 C376.729288,137.007097 377.497598,135.00949 378.501475,133.132566 C379.501728,131.256005 380.712179,129.531294 382.132828,127.958432 C383.553477,126.386296 385.144458,125.029069 386.909397,123.887838 C388.670712,122.74697 390.576991,121.859064 392.631858,121.224846 C394.686726,120.59099 396.857564,120.273881 399.137126,120.273881 C402.815592,120.273881 406.171513,120.844315 409.201264,121.985908 C412.231016,123.127139 414.818626,124.756898 416.964096,126.874463 C419.105942,128.992389 420.765782,131.553544 421.94724,134.559014 C423.125074,137.564484 423.715803,140.918955 423.715803,144.621702 L423.715803,144.621702 Z" id="Fill-24" fill="#1C5466" sketch:type="MSShapeGroup"></path>
            <path d="M478.896418,116.925933 L476.156595,168.513249 L456.22402,170.339073 L445.569153,142.71941 L443.894817,170.871454 L426.778171,170.871454 L428.144458,116.925933 L447.167383,116.012659 L460.330131,143.404366 L460.93898,117.534783 L478.896418,116.925933" id="Fill-25" fill="#1C5466" sketch:type="MSShapeGroup"></path>
            <path d="M518.783312,116.621509 C518.6311,119.005807 518.493384,121.364737 518.36654,123.697935 C518.239697,126.031496 518.072988,128.390426 517.870038,130.773999 L501.739149,131.610805 L501.358618,136.404408 L512.698441,136.404408 L511.861273,148.197606 L500.445343,148.578137 L500.064812,154.13244 L516.195702,154.13244 C516.043489,156.922638 515.887653,159.693628 515.720944,162.445048 C515.557859,165.197193 515.409271,167.955499 515.286051,170.719604 L482.49153,171.480303 L483.709229,116.621509 L518.783312,116.621509" id="Fill-26" fill="#1C5466" sketch:type="MSShapeGroup"></path>
            <path d="M310.111361,101.709406 L289.260801,101.709406 L289.260801,80.8584829 L266.202436,80.8584829 L266.202436,101.709406 L245.351875,101.709406 L245.351875,124.767771 L266.202436,124.767771 L266.202436,145.618331 L289.260801,145.618331 L289.260801,124.767771 L310.111361,124.767771 L310.111361,101.709406" id="Fill-27" fill="#AA2F41" sketch:type="MSShapeGroup"></path>
            <path d="M553.150695,97.3604804 L617.909819,97.3604804 L617.909819,111.691277 L553.150695,111.691277 L553.150695,97.3604804 Z" id="Fill-28" fill="#AA2F41" sketch:type="MSShapeGroup"></path>
            <path d="M553.150695,119.92343 L617.909819,119.92343 L617.909819,134.253864 L553.150695,134.253864 L553.150695,119.92343 Z" id="Fill-29" fill="#AA2F41" sketch:type="MSShapeGroup"></path>
            <path d="M643.651833,1.16949853 L859.648462,1.16949853 L859.648462,217.166127 L643.651833,217.166127 L643.651833,1.16949853 Z" id="Fill-30" fill="#1C5466" sketch:type="MSShapeGroup"></path>
            <path d="M809.726422,156.781298 C796.295491,149.736401 789.311842,150.129254 789.311842,150.129254 L714.195027,156.660978 L715.731648,157.241559 C715.731648,157.241559 700.54665,160.990695 696.560135,169.688546 C692.57362,178.386397 692.251075,193.838129 692.251075,193.838129 L704.051159,197.290088 L709.93308,208.703843 L715.731648,207.616612 L716.094058,217.707568 L801.876612,217.707568 L800.115297,187.40788 L823.59587,184.081315 C823.59587,184.081315 823.153729,163.826195 809.726422,156.781298" id="Fill-31" fill="#2F312E" sketch:type="MSShapeGroup"></path>
            <path d="M799.43759,78.524922 C799.43759,103.551538 779.149853,123.839638 754.125411,123.839638 C729.097345,123.839638 708.809608,103.551538 708.809608,78.524922 C708.809608,53.4993932 729.097345,33.2112937 754.125411,33.2112937 C779.149853,33.2112937 799.43759,53.4993932 799.43759,78.524922" id="Fill-32" fill="#E7B640" sketch:type="MSShapeGroup"></path>
            <path d="M805.417362,106.11233 C804.058323,114.800396 798.622166,121.166861 793.276612,120.331504 C787.931058,119.496148 784.698357,111.776443 786.053772,103.089465 C787.412811,94.4013991 792.845343,88.0367467 798.194522,88.8702908 C803.540076,89.704922 806.772777,97.4246271 805.417362,106.11233" id="Fill-33" fill="#F4DAB9" sketch:type="MSShapeGroup"></path>
            <path d="M720.892373,107.170569 C721.83464,115.912634 718.670796,123.422503 713.828993,123.945099 C708.987189,124.466608 704.301222,117.801155 703.358955,109.059815 C702.416688,100.316662 705.576907,92.8060683 710.41871,92.2856469 C715.260514,91.7641382 719.950105,98.4295912 720.892373,107.170569" id="Fill-34" fill="#F4DAB9" sketch:type="MSShapeGroup"></path>
            <path d="M753.215761,160.331833 L714.195027,158.620169 L716.14842,68.4861525 L726.274168,48.1473156 L789.956932,59.4146566 L794.363843,92.7274252 L789.152381,150.291976 L753.215761,160.331833" id="Fill-35" fill="#F4DAB9" sketch:type="MSShapeGroup"></path>
            <path d="M750.939823,93.9570839 L754.995196,128.848875 L738.360556,127.290147 L750.939823,93.9570839" id="Fill-36" fill="#BD837D" sketch:type="MSShapeGroup"></path>
            <path d="M735.091614,47.1669954 C735.091614,47.1669954 729.811294,49.2976064 742.771091,47.1155331 C761.59469,43.9440792 790.446186,59.4146566 790.446186,59.4146566 L786.528529,32.9615929 C786.528529,32.9615929 750.765866,21.2042731 724.802781,44.7192752" id="Fill-37" fill="#E7B640" sketch:type="MSShapeGroup"></path>
            <g id="Group-42">
                <mask id="mask-2" sketch:name="Clip 39" fill="white">
                    <use xlink:href="#path-1"></use>
                </mask>
                <g id="Clip-39"></g>
                <path d="M746.848209,94.0701559 C746.848209,101.549945 740.785082,107.612347 733.308555,107.612347 C725.828403,107.612347 719.765276,101.549945 719.765276,94.0701559 C719.765276,86.5918163 725.828403,80.5301391 733.308555,80.5301391 C740.785082,80.5301391 746.848209,86.5918163 746.848209,94.0701559 L746.848209,94.0701559 Z M781.965782,92.0055036 C781.965782,99.4842056 775.902655,105.54697 768.426127,105.54697 C760.945976,105.54697 754.882849,99.4842056 754.882849,92.0055036 C754.882849,84.5264391 760.945976,78.4651243 768.426127,78.4651243 C775.902655,78.4651243 781.965782,84.5264391 781.965782,92.0055036 L781.965782,92.0055036 Z M746.391572,92.4646776 L753.734008,91.5474168 L746.391572,92.4646776 Z" id="Stroke-38" stroke="#1C5466" stroke-width="3" sketch:type="MSShapeGroup" mask="url(#mask-2)"></path>
                <path d="M798.056806,217.808681 L823.59587,217.808681 L823.59587,183.30177 L798.056806,185.723397 L798.056806,217.808681" id="Fill-40" fill="#F4DAB9" sketch:type="MSShapeGroup" mask="url(#mask-2)"></path>
                <path d="M692.403287,217.808681 L717.942351,217.808681 L717.942351,195.994109 L692.403287,193.699326 L692.403287,217.808681" id="Fill-41" fill="#F4DAB9" sketch:type="MSShapeGroup" mask="url(#mask-2)"></path>
            </g>
            <path d="M738.161231,95.5419048 C738.161231,98.0508723 736.124484,100.087257 733.616603,100.087257 C731.101475,100.087257 729.068352,98.0508723 729.068352,95.5419048 L729.068352,92.9325495 C729.068352,90.4243068 731.101475,88.3890097 733.616603,88.3890097 C736.124484,88.3890097 738.161231,90.4243068 738.161231,92.9325495 L738.161231,95.5419048" id="Fill-43" fill="#2F312E" sketch:type="MSShapeGroup"></path>
            <path d="M771.937885,93.5370501 C771.937885,96.0463801 769.901138,98.0827644 767.393257,98.0827644 C764.881753,98.0827644 762.84863,96.0463801 762.84863,93.5370501 L762.84863,90.9280573 C762.84863,88.4187273 764.881753,86.3837927 767.393257,86.3837927 C769.901138,86.3837927 771.937885,88.4187273 771.937885,90.9280573 L771.937885,93.5370501" id="Fill-44" fill="#2F312E" sketch:type="MSShapeGroup"></path>
            <path d="M734.62048,132.624467 C734.62048,132.624467 750.928951,141.684728 766.5126,130.087594 C766.5126,130.087594 758.956342,141.543388 749.301728,141.346237 C740.574884,141.167931 737.016013,135.368639 734.62048,132.624467 L734.62048,132.624467 Z" id="Stroke-45" stroke="#BD837D" stroke-width="2" stroke-linecap="round" stroke-linejoin="round" sketch:type="MSShapeGroup"></path>
        </g>
    </g>
</svg>