<?xml version="1.0" encoding="UTF-8" standalone="no"?>
<svg width="900px" height="227px" viewBox="0 0 900 227" version="1.1" xmlns="http://www.w3.org/2000/svg" xmlns:xlink="http://www.w3.org/1999/xlink" xmlns:sketch="http://www.bohemiancoding.com/sketch/ns">
    <!-- Generator: Sketch 3.3 (11970) - http://www.bohemiancoding.com/sketch -->
    <title>web-info-2</title>
    <desc>Created with Sketch.</desc>
    <defs></defs>
    <g id="Page-1" stroke="none" stroke-width="1" fill="none" fill-rule="evenodd" sketch:type="MSPage">
        <g id="web-info-2" sketch:type="MSLayerGroup">
            <path d="M0.0227655987,0.0861298482 L226.13828,0.0861298482 L226.13828,226.22441 L0.0227655987,226.22441 L0.0227655987,0.0861298482 Z" id="Fill-1" fill="#1C5466" sketch:type="MSShapeGroup"></path>
            <path d="M187.533137,191.126307 C187.533137,191.126307 187.072133,169.920531 173.01172,162.544857 C158.951686,155.168803 151.640894,155.580481 151.640894,155.580481 L72.9982715,162.418887 L65.2613828,166.421459 C65.2613828,166.421459 58.5580523,168.698019 54.3843592,177.804258 C50.2106661,186.910497 52.3608769,193.740177 52.3608769,193.740177 L53.9616779,226.331788 L164.793339,226.331788 L162.950464,194.609444 L187.533137,191.126307" id="Fill-3" fill="#2F312E" sketch:type="MSShapeGroup"></path>
            <path d="M162.240556,80.6137437 C162.240556,106.815809 141.000632,128.056113 114.800464,128.056113 C88.5991568,128.056113 67.3569562,106.815809 67.3569562,80.6137437 C67.3569562,54.413575 88.5991568,33.1728921 114.800464,33.1728921 C141.000632,33.1728921 162.240556,54.413575 162.240556,80.6137437" id="Fill-4" fill="#E7B640" sketch:type="MSShapeGroup"></path>
            <path d="M78.3197302,90.3543845 C79.3054806,99.5065346 75.9949831,107.369013 70.9269815,107.916147 C65.8570826,108.462142 60.9476813,101.483727 59.9619309,92.3323356 C58.9765599,83.1786678 62.2866779,75.3150506 67.3561973,74.7705734 C72.4245784,74.224199 77.3339798,81.2029933 78.3197302,90.3543845" id="Fill-5" fill="#F4DAB9" sketch:type="MSShapeGroup"></path>
            <path d="M113.850379,166.262099 L72.9982715,164.470067 L75.0411046,70.1040051 L85.6415261,48.8102024 L152.316273,60.6065767 L156.93086,95.4834739 L151.472049,155.750843 L113.850379,166.262099" id="Fill-6" fill="#F4DAB9" sketch:type="MSShapeGroup"></path>
            <path d="M128.138449,107.05371 L132.385371,143.584148 L114.968929,141.952234 L128.138449,107.05371" id="Fill-7" fill="#BD837D" sketch:type="MSShapeGroup"></path>
            <path d="M94.8737352,47.7838533 C94.8737352,47.7838533 89.3447302,50.0145025 102.912648,47.7295953 C122.621585,44.4096121 152.828879,60.6065767 152.828879,60.6065767 L148.726897,32.9114671 C148.726897,32.9114671 111.284696,20.6021079 84.1021922,45.2212057" id="Fill-8" fill="#E7B640" sketch:type="MSShapeGroup"></path>
            <path d="M107.21914,94.6024452 C103.238954,101.345995 94.5466695,103.585371 87.8031197,99.6059444 C81.0610877,95.6272766 78.8205734,86.9349916 82.8007589,80.190683 C86.7805649,73.4478921 95.4717116,71.2088954 102.214503,75.1879427 C108.957673,79.1673693 111.198567,87.8592749 107.21914,94.6024452 L107.21914,94.6024452 Z M139.979595,111.426602 C136.000169,118.169772 127.307504,120.409907 120.565093,116.430481 C113.821922,112.451054 111.581029,103.75801 115.560835,97.0152192 C119.54102,90.2716695 128.232926,88.0326728 134.975717,92.0120995 C141.718128,95.9919056 143.959022,104.683052 139.979595,111.426602 L139.979595,111.426602 Z M107.660034,92.9105818 L114.76973,95.9911467 L107.660034,92.9105818 Z" id="Stroke-9" stroke="#1C5466" stroke-width="2.4" sketch:type="MSShapeGroup"></path>
            <path d="M160.796079,226.437648 L187.533137,226.437648 L187.533137,190.31054 L160.796079,192.845868 L160.796079,226.437648" id="Fill-10" fill="#F4DAB9" sketch:type="MSShapeGroup"></path>
            <path d="M52.0273609,226.437648 L78.7640388,226.437648 L78.7640388,195.510582 L52.0273609,192.845868 L52.0273609,226.437648" id="Fill-11" fill="#F4DAB9" sketch:type="MSShapeGroup"></path>
            <path d="M92.1118887,74.4890388 C92.1118887,77.1161889 89.979511,79.2481872 87.3519815,79.2481872 C84.7225548,79.2481872 82.5935919,77.1161889 82.5935919,74.4890388 L82.5935919,71.7575464 C82.5935919,69.1303963 84.7225548,66.9999157 87.3519815,66.9999157 C89.979511,66.9999157 92.1118887,69.1303963 92.1118887,71.7575464 L92.1118887,74.4890388" id="Fill-12" fill="#2F312E" sketch:type="MSShapeGroup"></path>
            <path d="M146.418845,130.408938 C146.418845,133.036088 144.286088,135.168086 141.659317,135.168086 C139.029132,135.168086 136.900169,133.036088 136.900169,130.408938 L136.900169,127.677066 C136.900169,125.050295 139.029132,122.919435 141.659317,122.919435 C144.286088,122.919435 146.418845,125.050295 146.418845,127.677066 L146.418845,130.408938" id="Fill-13" fill="#2F312E" sketch:type="MSShapeGroup"></path>
            <path d="M181.864882,106.700843 C180.035287,106.415514 178.196965,106.939503 176.500169,108.08613 L176.223187,139.540599 C176.386341,139.5793 176.55215,139.61231 176.719477,139.63925 C182.315641,140.513449 188.004764,133.84844 189.426855,124.752445 C190.847428,115.65683 187.462184,107.574663 181.864882,106.700843" id="Fill-14" fill="#F4DAB9" sketch:type="MSShapeGroup"></path>
            <path d="M70.6192664,64.375801 L82.3814924,26.0537099 L83.5197723,35.9188027 L98.6968381,26.4331366 L86.9346121,45.0246627" id="Fill-15" fill="#E7B640" sketch:type="MSShapeGroup"></path>
            <path d="M112.882841,122.063828 C112.882841,124.899283 107.173609,127.19747 100.13145,127.19747 C93.0889123,127.19747 87.3796796,124.899283 87.3796796,122.063828 C87.3796796,119.228752 93.0889123,116.929806 100.13145,116.929806 C107.173609,116.929806 112.882841,119.228752 112.882841,122.063828" id="Fill-16" fill="#FFFFFF" sketch:type="MSShapeGroup"></path>
            <path d="M83.5159781,120.683474 L118.072639,122.008432 M90.4716273,115.494435 L92.9007167,128.301602 M95.2190135,114.721543 L98.4209949,128.853668 M101.73301,113.507757 L103.499621,128.964081 M107.032083,114.721543 L109.792411,127.639123" id="Stroke-17" stroke="#F4DAB9" stroke-width="4" sketch:type="MSShapeGroup"></path>
            <path d="M112.883221,121.843002 C112.883221,124.678457 107.173988,126.976644 100.13145,126.976644 C93.0889123,126.976644 87.3796796,124.678457 87.3796796,121.843002 C87.3796796,119.007926 93.0889123,116.70898 100.13145,116.70898 C107.173988,116.70898 112.883221,119.007926 112.883221,121.843002 L112.883221,121.843002 Z" id="Stroke-18" stroke="#BD837D" stroke-width="2" stroke-linecap="round" sketch:type="MSShapeGroup"></path>
            <path d="M394.876897,80.2335582 L394.876897,84.8936762 C394.876897,86.4341484 394.797218,87.9875211 394.637858,89.5537943 C394.3457,92.873398 393.628583,96.0131535 392.490304,98.9738196 C391.348229,101.934486 389.800169,104.529764 387.849916,106.760413 C385.895868,108.990683 383.528246,110.756914 380.73946,112.057589 C377.951054,113.358642 374.75097,114.009359 371.139966,114.009359 C369.732293,114.009359 368.26543,113.88984 366.738997,113.650801 C365.211804,113.411762 363.698272,113.053583 362.198398,112.575506 C360.698145,112.097428 359.263912,111.50704 357.896838,110.802825 C356.528626,110.099747 355.314081,109.283221 354.252066,108.353626 L356.721754,91.8637437 C358.288027,93.3772766 360.027698,94.6062395 361.939629,95.5483558 C363.85118,96.491231 365.935371,96.9624789 368.19296,96.9624789 C369.652614,96.9624789 370.887268,96.75 371.896922,96.3250422 C372.905438,95.9004637 373.742454,95.3161467 374.40645,94.5724705 C375.069688,93.8295531 375.594056,92.9595278 375.979553,91.9635329 C376.364292,90.9679174 376.642791,89.9059022 376.815809,88.7774874 C376.988069,87.6490725 377.094688,86.4868887 377.134528,85.2920742 C377.174747,84.0972597 377.194098,82.9157251 377.194098,81.7470911 C377.194098,77.5252108 376.981619,73.3230607 376.55704,69.1413997 C376.131703,64.9589798 375.760624,60.770489 375.441906,56.5747892 L393.685497,55.3799747 C394.478499,63.6643761 394.876897,71.9491568 394.876897,80.2335582" id="Fill-19" fill="#1C5466" sketch:type="MSShapeGroup"></path>
            <path d="M424.214165,90.988027 L421.186341,77.1268128 L418.238196,90.988027 L424.214165,90.988027 L424.214165,90.988027 Z M447.791737,109.62812 L428.034992,112.177108 L425.644604,103.17559 L416.564924,103.17559 L414.572934,112.177108 L394.262226,110.185497 L410.114671,57.1325464 L432.25801,56.0174115 L447.791737,109.62812 L447.791737,109.62812 Z" id="Fill-20" fill="#1C5466" sketch:type="MSShapeGroup"></path>
            <path d="M493.774452,57.2118465 L479.19688,112.655185 L459.440135,113.7707 L441.51602,57.7696037 L460.39629,56.0174115 L468.045531,88.6776981 L475.451939,56.0174115 L493.774452,57.2118465" id="Fill-21" fill="#1C5466" sketch:type="MSShapeGroup"></path>
            <path d="M518.40683,90.988027 L515.382799,77.1268128 L512.434654,90.988027 L518.40683,90.988027 L518.40683,90.988027 Z M541.988196,109.62812 L522.23145,112.177108 L519.841062,103.17559 L510.761383,103.17559 L508.769393,112.177108 L488.45489,110.185497 L504.307336,57.1325464 L526.454469,56.0174115 L541.988196,109.62812 L541.988196,109.62812 Z" id="Fill-22" fill="#1C5466" sketch:type="MSShapeGroup"></path>
            <path d="M391.613828,135.764545 L373.370616,160.379469 L390.976391,160.379469 L390.737352,177.267369 L355.208221,178.701223 L353.615008,163.087816 L374.40645,136.003583 L355.36758,137.437816 L355.208221,121.425632 L390.896712,121.425632 L391.613828,135.764545" id="Fill-23" fill="#1C5466" sketch:type="MSShapeGroup"></path>
            <path d="M425.925379,152.413406 C425.925379,151.27247 425.758432,150.163406 425.428331,149.087732 C425.094435,148.012437 424.608769,147.056282 423.971332,146.220025 C423.33769,145.38339 422.544688,144.706492 421.60371,144.188954 C420.658938,143.670658 419.577572,143.412268 418.355818,143.412268 C417.107504,143.412268 415.995784,143.637648 415.013069,144.089165 C414.030354,144.540683 413.184233,145.15801 412.482293,145.941147 C411.780354,146.724663 411.241568,147.640599 410.86973,148.689334 C410.497892,149.738828 410.311973,150.846754 410.311973,152.015388 C410.311973,153.130523 410.471332,154.245658 410.790051,155.360793 C411.108769,156.475927 411.586847,157.485961 412.224283,158.387858 C412.86172,159.290894 413.650927,160.020911 414.591906,160.578668 C415.536678,161.136425 416.629427,161.414924 417.87774,161.414924 C419.126054,161.414924 420.249157,161.169815 421.243255,160.678457 C422.241147,160.187479 423.083474,159.523103 423.77403,158.686467 C424.464587,157.850211 424.995784,156.887985 425.367622,155.79903 C425.73946,154.710455 425.925379,153.58204 425.925379,152.413406 L425.925379,152.413406 Z M443.610455,151.377951 C443.610455,153.794519 443.32968,156.124578 442.771922,158.368128 C442.214165,160.612437 441.413575,162.716358 440.362563,164.681029 C439.315346,166.646459 438.040472,168.444941 436.541737,170.077993 C435.039207,171.711046 433.354553,173.111889 431.480185,174.280143 C429.609612,175.448777 427.572091,176.358263 425.367622,177.0086 C423.163153,177.659317 420.825885,177.984486 418.355818,177.984486 C415.96543,177.984486 413.68887,177.679427 411.526138,177.06817 C409.363406,176.457673 407.337268,175.601307 405.451518,174.499073 C403.565767,173.397597 401.862142,172.069604 400.333052,170.516231 C398.807757,168.962479 397.506324,167.237226 396.432546,165.338196 C395.354975,163.440304 394.520236,161.402024 393.920742,159.224494 C393.325042,157.047344 393.025295,154.777234 393.025295,152.413406 C393.025295,150.103457 393.306071,147.840177 393.863828,145.622428 C394.417791,143.405818 395.222175,141.314418 396.273187,139.349368 C397.320405,137.384696 398.58769,135.579005 400.075042,133.932293 C401.562395,132.286341 403.228078,130.865388 405.075885,129.670573 C406.919899,128.476138 408.915683,127.546543 411.067032,126.882546 C413.218381,126.218929 415.491147,125.886931 417.87774,125.886931 C421.728921,125.886931 425.242411,126.484148 428.414418,127.679342 C431.586425,128.874157 434.295531,130.580438 436.541737,132.797428 C438.784148,135.014798 440.521922,137.696206 441.758853,140.842791 C442.99199,143.989376 443.610455,147.501349 443.610455,151.377951 L443.610455,151.377951 Z" id="Fill-24" fill="#1C5466" sketch:type="MSShapeGroup"></path>
            <path d="M501.381956,122.381788 L498.513491,176.391273 L477.645025,178.302825 L466.489882,149.386341 L464.736931,178.860202 L446.81661,178.860202 L448.247049,122.381788 L468.163153,121.425632 L481.943929,150.103457 L482.581366,123.019224 L501.381956,122.381788" id="Fill-25" fill="#1C5466" sketch:type="MSShapeGroup"></path>
            <path d="M543.141653,122.063069 C542.982293,124.559317 542.838111,127.029005 542.705312,129.471754 C542.572513,131.914882 542.397976,134.38457 542.185497,136.880059 L525.297218,137.756155 L524.89882,142.774831 L536.771079,142.774831 L535.894604,155.121754 L523.942664,155.520152 L523.544266,161.335245 L540.432546,161.335245 C540.273187,164.25645 540.110034,167.157546 539.935497,170.038153 C539.764755,172.919519 539.609191,175.807336 539.480185,178.701223 L505.145868,179.497639 L506.420742,122.063069 L543.141653,122.063069" id="Fill-26" fill="#1C5466" sketch:type="MSShapeGroup"></path>
            <path d="M673.86172,0.0861298482 L900,0.0861298482 L900,226.22441 L673.86172,226.22441 L673.86172,0.0861298482 Z" id="Fill-27" fill="#1C5466" sketch:type="MSShapeGroup"></path>
            <path d="M847.73398,163.004342 C833.672428,155.628288 826.360877,156.039587 826.360877,156.039587 L747.717116,162.878373 L749.325885,163.485835 C749.325885,163.485835 733.427909,167.411383 729.254216,176.517622 C725.080523,185.623862 724.742833,201.800717 724.742833,201.800717 L737.096965,205.415135 L743.255059,217.364798 L749.325885,216.226518 L749.705312,226.791273 L839.515599,226.791273 L837.671585,195.068929 L862.254637,191.585793 C862.254637,191.585793 861.791737,170.380017 847.73398,163.004342" id="Fill-28" fill="#2F312E" sketch:type="MSShapeGroup"></path>
            <path d="M836.962057,81.0732293 C836.962057,107.275295 815.721754,128.515599 789.522344,128.515599 C763.31914,128.515599 742.078836,107.275295 742.078836,81.0732293 C742.078836,54.8726813 763.31914,33.6323777 789.522344,33.6323777 C815.721754,33.6323777 836.962057,54.8726813 836.962057,81.0732293" id="Fill-29" fill="#E7B640" sketch:type="MSShapeGroup"></path>
            <path d="M843.222597,109.956324 C841.799747,119.052319 836.112142,125.717327 830.515599,124.842749 C824.915261,123.96855 821.530776,115.886383 822.953626,106.791147 C824.372681,97.6951518 830.060287,91.031661 835.660624,91.9047218 C841.257167,92.7781619 844.641653,100.860329 843.222597,109.956324" id="Fill-30" fill="#F4DAB9" sketch:type="MSShapeGroup"></path>
            <path d="M754.728921,111.06425 C755.71543,120.2164 752.403035,128.079258 747.333895,128.626012 C742.26855,129.172007 737.358769,122.193592 736.37226,113.042201 C735.38575,103.888533 738.698145,96.0249157 743.763491,95.4804384 C748.832631,94.9340641 753.742411,101.912858 754.728921,111.06425" id="Fill-31" fill="#F4DAB9" sketch:type="MSShapeGroup"></path>
            <path d="M788.569983,166.721585 L747.717116,164.929553 L749.762226,70.5634907 L760.363406,49.269688 L827.036256,61.065683 L831.650084,95.9425801 L826.193929,156.209949 L788.569983,166.721585" id="Fill-32" fill="#F4DAB9" sketch:type="MSShapeGroup"></path>
            <path d="M786.187184,97.2299747 L790.432968,133.760034 L773.017285,132.12812 L786.187184,97.2299747" id="Fill-33" fill="#BD837D" sketch:type="MSShapeGroup"></path>
            <path d="M769.594857,48.2429595 C769.594857,48.2429595 764.06661,50.4736088 777.634907,48.1890809 C797.342327,44.8690978 827.548482,61.065683 827.548482,61.065683 L823.44688,33.3705734 C823.44688,33.3705734 786.005059,21.0615936 758.822934,45.680312" id="Fill-34" fill="#E7B640" sketch:type="MSShapeGroup"></path>
            <path d="M781.903457,97.3483558 C781.903457,105.179342 775.559444,111.526771 767.728078,111.526771 C759.896712,111.526771 753.552698,105.179342 753.552698,97.3483558 C753.552698,89.5192664 759.896712,83.172597 767.728078,83.172597 C775.559444,83.172597 781.903457,89.5192664 781.903457,97.3483558 L781.903457,97.3483558 Z M818.669899,95.1867622 C818.669899,103.01699 812.322091,109.364039 804.494519,109.364039 C796.663153,109.364039 790.315346,103.01699 790.315346,95.1867622 C790.315346,87.3565346 796.663153,81.0110034 804.494519,81.0110034 C812.322091,81.0110034 818.669899,87.3565346 818.669899,95.1867622 L818.669899,95.1867622 Z M781.425379,95.6678752 L789.112563,94.7071669 L781.425379,95.6678752 Z" id="Stroke-35" stroke="#1C5466" stroke-width="2.4" sketch:type="MSShapeGroup"></path>
            <path d="M835.516442,226.897133 L862.254637,226.897133 L862.254637,190.770025 L835.516442,193.305354 L835.516442,226.897133" id="Fill-36" fill="#F4DAB9" sketch:type="MSShapeGroup"></path>
            <path d="M724.902192,226.897133 L751.640388,226.897133 L751.640388,204.058305 L724.902192,201.655776 L724.902192,226.897133" id="Fill-37" fill="#F4DAB9" sketch:type="MSShapeGroup"></path>
            <path d="M772.8086,98.8892074 C772.8086,101.516358 770.676223,103.648356 768.05059,103.648356 C765.417369,103.648356 763.288786,101.516358 763.288786,98.8892074 L763.288786,96.157715 C763.288786,93.5313238 765.417369,91.4008432 768.05059,91.4008432 C770.676223,91.4008432 772.8086,93.5313238 772.8086,96.157715 L772.8086,98.8892074" id="Fill-38" fill="#2F312E" sketch:type="MSShapeGroup"></path>
            <path d="M808.171164,96.7905987 C808.171164,99.4177487 806.04258,101.549747 803.413153,101.549747 C800.783727,101.549747 798.655143,99.4177487 798.655143,96.7905987 L798.655143,94.0591062 C798.655143,91.4319562 800.783727,89.3014755 803.413153,89.3014755 C806.04258,89.3014755 808.171164,91.4319562 808.171164,94.0591062 L808.171164,96.7905987" id="Fill-39" fill="#2F312E" sketch:type="MSShapeGroup"></path>
            <path d="M756.576728,138.849663 C756.576728,138.849663 789.20742,147.197049 816.526138,132.019983" id="Stroke-40" stroke="#BD837D" stroke-width="2" stroke-linecap="round" stroke-linejoin="round" sketch:type="MSShapeGroup"></path>
            <path d="M324.671965,106.450801 L302.842411,106.450801 L302.842411,84.6208685 L278.701391,84.6208685 L278.701391,106.450801 L256.871838,106.450801 L256.871838,130.591821 L278.701391,130.591821 L278.701391,152.421374 L302.842411,152.421374 L302.842411,130.591821 L324.671965,130.591821 L324.671965,106.450801" id="Fill-41" fill="#AA2F41" sketch:type="MSShapeGroup"></path>
            <path d="M579.122681,101.897681 L646.922428,101.897681 L646.922428,116.901349 L579.122681,116.901349 L579.122681,101.897681 Z" id="Fill-42" fill="#AA2F41" sketch:type="MSShapeGroup"></path>
            <path d="M579.122681,125.520025 L646.922428,125.520025 L646.922428,140.523314 L579.122681,140.523314 L579.122681,125.520025 Z" id="Fill-43" fill="#AA2F41" sketch:type="MSShapeGroup"></path>
        </g>
    </g>
</svg>