<?xml version="1.0" encoding="UTF-8" standalone="no"?>
<svg width="200px" height="200px" viewBox="0 0 200 200" version="1.1" xmlns="http://www.w3.org/2000/svg" xmlns:xlink="http://www.w3.org/1999/xlink" xmlns:sketch="http://www.bohemiancoding.com/sketch/ns">
    <!-- Generator: Sketch 3.2.2 (9983) - http://www.bohemiancoding.com/sketch -->
    <title>javabin_ticket</title>
    <desc>Created with Sketch.</desc>
    <defs></defs>
    <g id="Page-1" stroke="none" stroke-width="1" fill="none" fill-rule="evenodd" sketch:type="MSPage">
        <g id="javabin_ticket" sketch:type="MSLayerGroup">
            <path d="M199.904509,99.9522546 C199.904509,155.156499 155.154377,199.904509 99.9522546,199.904509 C44.7496021,199.904509 0,155.156499 0,99.9522546 C0,44.7480106 44.7496021,0 99.9522546,0 C155.154377,0 199.904509,44.7480106 199.904509,99.9522546" id="Fill-173" fill="#BD837D" sketch:type="MSShapeGroup"></path>
            <path d="M171.295593,141.629342 C172.870128,160.833587 144.010181,178.876027 106.832463,181.926425 C69.6558048,184.976823 38.2398897,171.878679 36.6664149,152.674435 C35.0897571,133.470191 63.951826,115.427751 101.129014,112.377353 C138.304611,109.326955 169.720526,122.425098 171.295593,141.629342" id="Fill-174" fill="#2F312E" sketch:type="MSShapeGroup"></path>
            <path d="M4.24403183,129.740053 C14.261008,161.782493 39.9713528,186.891247 72.3771883,196.068966 L121.659416,95.4058355 L57.8498674,80.1061008 L4.24403183,129.740053" id="Fill-175" fill="#AA2F41" sketch:type="MSShapeGroup"></path>
            <path d="M59.264191,153.97878 L84.4525199,118.01061 L49.1718833,98.6737401 L20.1591512,133.718833 L59.264191,153.97878" id="Fill-176" fill="#2F312E" sketch:type="MSShapeGroup"></path>
            <path d="M97.2350133,121.3687 L76.668435,117.241379 L70.5570292,126.748011 L89.5623342,131.798408" id="Fill-177" fill="#F4DAB9" sketch:type="MSShapeGroup"></path>
            <path d="M178.531077,143.790246 C178.401634,141.376453 178.095003,138.946745 177.582005,136.506426 C172.279618,111.201386 147.695533,94.9414395 122.670069,100.188124 C97.6440743,105.429503 81.6557454,130.193429 86.9565412,155.498469 C87.4684775,157.933482 88.1623767,160.283615 89.0154271,162.548867 L178.531077,143.790246" id="Fill-178" fill="#1C5466" sketch:type="MSShapeGroup"></path>
            <path d="M51.7888594,103.931034 L48.8594164,68.9655172 L6.36604775,103.718833 L26.6106101,134.376658 L51.7888594,103.931034" id="Fill-179" fill="#2F312E" sketch:type="MSShapeGroup"></path>
            <path d="M45.2259947,76.9230769 L49.4387268,102.70557 L27.0981432,129.782493 L11.6710875,104.334218 L45.2259947,76.9230769" id="Fill-180" fill="#FFFFFF" sketch:type="MSShapeGroup"></path>
            <path d="M170.642615,99.4000678 C167.248981,114.699803 145.63731,125.71837 122.372588,124.010147 C99.1078669,122.30723 82.9985831,108.519431 86.393278,93.2196965 C89.7853205,77.9199617 111.398053,66.9013941 134.663305,68.6096169 C157.928026,70.3178397 174.03784,84.1003331 170.642615,99.4000678" id="Fill-181" fill="#F4DAB9" sketch:type="MSShapeGroup"></path>
            <path d="M108.227056,89.1246684 L93.8992042,108.811671 L102.753316,114.334218 L108.227056,89.1246684" id="Fill-182" fill="#BD837D" sketch:type="MSShapeGroup"></path>
            <path d="M64.9159529,142.512098 C63.2114436,146.188491 58.8528229,147.785308 55.1785523,146.08239 C51.5042818,144.379472 49.9074648,140.01873 51.6098521,136.342337 C53.3138309,132.671249 57.6745736,131.074432 61.3488441,132.77735 C65.0215232,134.480268 66.6188706,138.841011 64.9159529,142.512098" id="Fill-183" fill="#F4DAB9" sketch:type="MSShapeGroup"></path>
            <path d="M77.6486491,125.010772 C75.9441398,128.68186 71.5849886,130.278677 67.909657,128.575759 C64.2364475,126.872841 62.6385695,122.512098 64.3430788,118.835706 C66.045466,115.164618 70.4051477,113.567801 74.0788878,115.270719 C77.7531584,116.973637 79.3515668,121.334379 77.6486491,125.010772" id="Fill-184" fill="#F4DAB9" sketch:type="MSShapeGroup"></path>
            <path d="M103.97878,117.085098 C107.643501,118.862286 111.944297,120.140801 116.686472,120.766796 C126.29443,114.63417 126.150133,103.817194 117.195225,111.291995 C112.719363,115.026743 108.046154,116.586424 103.97878,117.085098" id="Fill-185" fill="#2F312E" sketch:type="MSShapeGroup"></path>
            <path d="M90.1856764,92.2440318 C90.1856764,94.0795756 91.6790451,95.5755968 93.5161804,95.5755968 C95.3580902,95.5755968 96.8503979,94.0795756 96.8503979,92.2440318 L96.8503979,90.3289125 C96.8503979,88.4933687 95.3580902,87.0026525 93.5161804,87.0026525 C91.6790451,87.0026525 90.1856764,88.4933687 90.1856764,90.3289125 L90.1856764,92.2440318" id="Fill-186" fill="#2F312E" sketch:type="MSShapeGroup"></path>
            <path d="M114.058355,96.4880637 C114.058355,98.3289125 115.549602,99.8196286 117.38992,99.8196286 C119.230239,99.8196286 120.722016,98.3289125 120.722016,96.4880637 L120.722016,94.5782493 C120.722016,92.7374005 119.230239,91.2466844 117.38992,91.2466844 C115.549602,91.2466844 114.058355,92.7374005 114.058355,94.5782493 L114.058355,96.4880637" id="Fill-187" fill="#2F312E" sketch:type="MSShapeGroup"></path>
            <path d="M138.468966,134.748011 L63.404244,135.814324 L57.2944297,145.320955 L117.571883,157.135279 L145.185146,151.167109" id="Fill-188" fill="#F4DAB9" sketch:type="MSShapeGroup"></path>
            <path d="M171.441395,89.1621269 C170.464737,85.3478033 165.947495,78.90218 160.829193,74.7271137 C162.439273,73.1939572 164.063145,71.2629227 163.338477,70.2496601 C162.398424,68.9340102 159.519379,71.2363975 157.94166,72.6634532 C157.937946,72.6634532 157.935294,72.6634532 157.93158,72.6581482 C159.675877,70.8862649 162.788344,67.300058 160.833968,66.0321535 C158.960228,64.8172994 155.292854,68.3186256 153.324153,70.4512516 C146.455188,67.7669015 136.167124,65.8040368 124.829724,65.8040368 C110.47906,65.8040368 113.203729,72.4035063 113.203729,72.4035063 C114.179856,75.2257874 119.787814,75.9631879 125.449883,76.0268484 C121.463676,77.5440898 117.537946,79.6289704 121.012747,81.0666362 C124.220705,82.3875911 131.519909,80.8756548 137.687018,79.1515169 C136.104525,81.6183604 134.911952,84.1966097 136.176143,85.0188909 C137.879591,86.1276442 142.221766,82.7801641 145.083835,80.2708803 C145.820175,81.968493 145.918848,84.1541694 144.83662,86.8597397 C141.694445,94.7165036 149.550679,102.992366 152.274286,102.992366 C152.767124,102.992366 153.249883,102.705894 153.71036,102.244355 C155.497098,104.366371 162.990997,112.567962 167.671103,106.971146 C173.013278,100.583878 172.59471,93.6661057 171.441395,89.1621269" id="Fill-189" fill="#E7B640" sketch:type="MSShapeGroup"></path>
            <path d="M158.75767,104.896178 C155.919474,108.991669 151.195336,110.625621 148.210721,108.55135 C145.222922,106.482385 145.101968,101.485037 147.942816,97.3948515 C150.782604,93.2993608 155.50409,91.6654086 158.490296,93.7343741 C161.478095,95.8086446 161.597989,100.811297 158.75767,104.896178" id="Fill-190" fill="#F4DAB9" sketch:type="MSShapeGroup"></path>
            <path d="M24.1672909,108.021906 C24.1211371,107.873365 24.0633122,107.751349 23.9932856,107.639943 C23.9227286,107.533842 23.8447445,107.459572 23.7588029,107.406521 C23.6739222,107.358776 23.5816145,107.342861 23.4845323,107.364081 C23.3863891,107.385301 23.2877153,107.448961 23.1879806,107.560367 C23.0861238,107.677078 23.0038957,107.804399 22.9418267,107.95294 C22.8797578,108.096176 22.8357259,108.255327 22.8097313,108.419784 C22.7837366,108.578935 22.77684,108.748696 22.7885111,108.913152 C22.8007127,109.082914 22.8293599,109.242065 22.8760442,109.390606 C22.9206066,109.533842 22.978962,109.661163 23.049519,109.772569 C23.1206066,109.88928 23.2001822,109.97416 23.2882458,110.027211 C23.37684,110.085566 23.4702087,110.106786 23.5699435,110.096176 C23.6686172,110.080261 23.7699435,110.016601 23.8718002,109.89989 C23.973657,109.788484 24.0553546,109.655858 24.1163625,109.502012 C24.1784315,109.348166 24.2203413,109.189014 24.243153,109.019253 C24.2659647,108.849492 24.2707392,108.679731 24.2574766,108.504664 C24.2436835,108.329598 24.2139753,108.170447 24.1672909,108.021906 L24.1672909,108.021906 Z M25.5694129,106.281853 C25.6664952,106.589545 25.7370522,106.913152 25.7816145,107.24737 C25.8261769,107.586892 25.845275,107.926415 25.8383785,108.276548 C25.8314819,108.621375 25.8001822,108.966203 25.7428877,109.31103 C25.6861238,109.655858 25.6044262,109.990075 25.4988559,110.308378 C25.3927551,110.62668 25.2622511,110.929068 25.1089355,111.210235 C24.9550893,111.496707 24.7773705,111.746044 24.5752485,111.97416 C24.3805535,112.191667 24.1826755,112.356123 23.981084,112.478139 C23.7794925,112.59485 23.580023,112.669121 23.3816145,112.700951 C23.1837366,112.732781 22.9911636,112.716866 22.8044262,112.65851 C22.6171583,112.600155 22.442092,112.499359 22.2781663,112.350818 C22.11371,112.207582 21.9630469,112.021906 21.8277684,111.799094 C21.6914289,111.576282 21.575779,111.316335 21.4802883,111.013948 C21.3879806,110.716866 21.3200761,110.403869 21.2765748,110.069651 C21.2330734,109.735434 21.2150363,109.395911 21.2214023,109.051083 C21.2282989,108.700951 21.2590681,108.356123 21.314771,108.011296 C21.3699435,107.666468 21.449519,107.332251 21.5519063,107.013948 C21.6542936,106.695646 21.7805535,106.393259 21.9290946,106.112091 C22.0781663,105.830924 22.2500496,105.586892 22.445275,105.369386 C22.7598639,105.019253 23.0707392,104.775221 23.3773705,104.63729 C23.6845323,104.504664 23.9741875,104.472834 24.246336,104.55241 C24.5184846,104.631985 24.7683519,104.817662 24.9948771,105.104134 C25.2229938,105.395911 25.4139753,105.788484 25.5694129,106.281853 L25.5694129,106.281853 Z" id="Fill-191" fill="#AA2F41" sketch:type="MSShapeGroup"></path>
            <path d="M27.9262599,102.246409 C27.8816976,102.103173 27.8275862,101.986462 27.7655172,101.896276 C27.7034483,101.80609 27.6344828,101.74243 27.5580902,101.7106 C27.4827586,101.678769 27.401061,101.678769 27.3129973,101.7106 C27.2249337,101.74243 27.131565,101.811395 27.0339523,101.922801 C26.9904509,101.970547 26.9496021,102.018292 26.9108753,102.071342 C26.8721485,102.129698 26.8360743,102.182748 26.803183,102.246409 L27.3458886,104.193358 L27.4238727,104.108478 C27.5167109,104.002377 27.6058355,103.880361 27.6907162,103.737125 C27.7755968,103.588584 27.8445623,103.434738 27.8960212,103.275586 C27.9490716,103.11113 27.9798408,102.941369 27.9909814,102.760997 C28.001061,102.585931 27.9798408,102.41617 27.9262599,102.246409 L27.9262599,102.246409 Z M29.3320955,100.45861 C29.4148541,100.723862 29.4763926,100.978504 29.5145889,101.227841 C29.5527851,101.477178 29.5692308,101.726515 29.5623342,101.975852 C29.5559682,102.225188 29.5267905,102.47983 29.4753316,102.745082 C29.4233422,103.005029 29.3485411,103.286196 29.2519894,103.583279 L30.7039788,104.877708 L29.3809019,106.951979 L28.198939,105.344552 L27.8015915,105.8167 L28.4090186,107.991767 L27.0100796,109.551448 C26.7782493,108.766302 26.5464191,107.986462 26.3156499,107.206621 C26.0843501,106.432085 25.8541114,105.652244 25.6238727,104.861793 C25.5055703,104.46922 25.3888594,104.076647 25.272679,103.689379 C25.1564987,103.302112 25.0429708,102.904234 24.933687,102.501051 C25.0583554,102.246409 25.1846154,102.002377 25.3140584,101.78487 C25.4429708,101.562058 25.5766578,101.349857 25.7151194,101.15357 C25.8541114,100.957284 25.9973475,100.766302 26.1464191,100.585931 C26.2954907,100.40556 26.4509284,100.225188 26.6106101,100.044817 C26.8578249,99.768955 27.1140584,99.5567534 27.3782493,99.4082123 C27.6429708,99.2543662 27.8976127,99.1907057 28.1427056,99.2066208 C28.3872679,99.2172309 28.6132626,99.3286367 28.8212202,99.5249232 C29.0286472,99.7265147 29.1984085,100.034207 29.3320955,100.45861 L29.3320955,100.45861 Z" id="Fill-192" fill="#AA2F41" sketch:type="MSShapeGroup"></path>
            <path d="M32.467374,98.4885749 C32.4122016,98.3028985 32.3437666,98.1384423 32.264191,98.0005113 C32.1835544,97.8625802 32.0917772,97.7617845 31.9888594,97.698124 C31.8859416,97.6397686 31.7745358,97.6238534 31.6541114,97.6450736 C31.533687,97.6715988 31.406366,97.7564794 31.271618,97.8997155 L32.1331565,101.194145 C32.2535809,101.019079 32.3501326,100.822792 32.4249337,100.599981 C32.4981432,100.377169 32.5496021,100.149052 32.5793103,99.9103256 C32.6090186,99.6769038 32.6153846,99.4434821 32.6,99.2100603 C32.5840849,98.9766386 32.5469496,98.759132 32.4901857,98.5575404 L32.467374,98.4885749 L32.467374,98.4885749 Z M33.6986737,96.6795564 C33.8477454,97.1517049 33.9432361,97.6238534 33.9851459,98.0906969 C34.0265252,98.5628455 34.0244032,99.0190789 33.9777188,99.4753123 C33.931565,99.9262407 33.8450928,100.366559 33.7193634,100.790962 C33.593634,101.22067 33.4371353,101.634464 33.2503979,102.027036 C33.064191,102.419609 32.8514589,102.790962 32.6132626,103.1464 C32.3750663,103.501838 32.1193634,103.83075 31.8461538,104.133137 C31.7437666,104.249848 31.6435013,104.355949 31.5432361,104.456745 C31.4424403,104.55754 31.338992,104.653031 31.2323607,104.748522 L29.1777188,97.825445 C29.3782493,97.4434821 29.597878,97.0880444 29.8344828,96.7538269 C30.071618,96.4249144 30.3151194,96.1225272 30.5644562,95.8466651 C30.8748011,95.5018375 31.1824934,95.2525007 31.4885942,95.1092646 C31.794695,94.9660285 32.0848806,94.9235882 32.3596817,94.9925537 C32.6350133,95.0562142 32.8875332,95.2259755 33.1167109,95.5071426 C33.3469496,95.7883097 33.5405836,96.1755776 33.6986737,96.6795564 L33.6986737,96.6795564 Z" id="Fill-193" fill="#AA2F41" sketch:type="MSShapeGroup"></path>
            <path d="M35.8896552,89.6551724 C35.9777188,89.9893899 36.0647215,90.3129973 36.1517241,90.6366048 C36.2387268,90.9655172 36.3236074,91.2944297 36.406366,91.6339523 L35.0625995,93.2785146 L35.2318302,93.9575597 L36.201061,92.8753316 L36.6254642,94.530504 L35.665252,95.6657825 L35.866313,96.4456233 L36.672679,95.5490716 L37.2456233,94.9124668 C37.3496021,95.2997347 37.4519894,95.6816976 37.5538462,96.0689655 C37.6551724,96.4509284 37.7586207,96.8328912 37.8647215,97.2148541 L35.0928382,100.435013 L32.8912467,92.9920424 L35.8896552,89.6551724" id="Fill-194" fill="#AA2F41" sketch:type="MSShapeGroup"></path>
            <path d="M39.0668435,89.5141788 C39.0217507,89.3709427 38.9687003,89.2542318 38.9066313,89.1640462 C38.8440318,89.0738605 38.7750663,89.0102 38.6992042,88.9783698 C38.6228117,88.9465395 38.5405836,88.9465395 38.4525199,88.9783698 C38.3644562,89.0102 38.2721485,89.0844706 38.1745358,89.1905714 C38.131565,89.2383167 38.0901857,89.2913671 38.0514589,89.3444175 C38.0132626,89.3974679 37.9771883,89.4558234 37.9432361,89.5141788 L38.4859416,91.4664334 L38.5639257,91.3762478 C38.6572944,91.275452 38.7464191,91.148131 38.8307692,91.004895 C38.9156499,90.8616589 38.9840849,90.7078127 39.0371353,90.5433565 C39.0891247,90.3789003 39.1209549,90.209139 39.1310345,90.0340727 C39.1416446,89.8590064 39.1198939,89.6839401 39.0668435,89.5141788 L39.0668435,89.5141788 Z M40.472679,87.7316854 C40.5559682,87.9916324 40.6164456,88.2515793 40.6551724,88.5009162 C40.6933687,88.744948 40.7092838,88.9942849 40.7029178,89.2436218 C40.6970822,89.4929586 40.6679045,89.7476005 40.6159151,90.0128525 C40.5644562,90.2781045 40.4896552,90.5592716 40.3920424,90.8510488 L41.8440318,92.1454785 L40.5220159,94.2250541 L39.3395225,92.612322 L38.9427056,93.0844706 L39.5496021,95.2648419 L38.1511936,96.8192186 C37.9183024,96.0340727 37.6870027,95.2542318 37.4557029,94.479696 C37.2249337,93.6998552 36.993634,92.9200143 36.7644562,92.1348684 C36.6456233,91.7369905 36.5289125,91.3497226 36.4122016,90.9624547 C36.2965517,90.5698817 36.1835544,90.1773088 36.0742706,89.7741257 C36.197878,89.5141788 36.3246684,89.275452 36.4541114,89.0526403 C36.5835544,88.8298287 36.7172414,88.6229321 36.8557029,88.4266456 C36.993634,88.2303592 37.137931,88.0393777 37.2870027,87.8537013 C37.4360743,87.67333 37.5904509,87.4929586 37.7511936,87.3125873 C37.9984085,87.0420303 38.2541114,86.8245236 38.5188329,86.6759825 C38.7830239,86.5274414 39.0381963,86.4584759 39.2827586,86.474391 C39.5278515,86.4903061 39.7538462,86.5964069 39.9612732,86.7979984 C40.1687003,86.9942849 40.3395225,87.3072822 40.472679,87.7316854 L40.472679,87.7316854 Z" id="Fill-195" fill="#AA2F41" sketch:type="MSShapeGroup"></path>
            <path d="M25.2917772,112.997347 L25.9374005,115.188329 L24.9872679,116.328912 L26.2557029,121.421751 L24.9183024,123.061008 L23.4095491,118.238727 L22.4657825,119.395225 L21.7506631,116.954907 L25.2917772,112.997347" id="Fill-196" fill="#AA2F41" sketch:type="MSShapeGroup"></path>
            <path d="M27.1496021,110.875332 L28.9692308,118.196286 L27.6312997,119.835544 L25.464191,112.944297 L27.1496021,110.875332" id="Fill-197" fill="#AA2F41" sketch:type="MSShapeGroup"></path>
            <path d="M30.5985648,107.161804 L31.091403,109.511936 C31.0197849,109.554377 30.9513499,109.607427 30.8850369,109.665782 C30.8187239,109.724138 30.754533,109.787798 30.6919335,109.862069 C30.5311908,110.037135 30.3884852,110.238727 30.2643473,110.466844 C30.1402093,110.69496 30.0431271,110.938992 29.9741616,111.198939 C29.9046656,111.458886 29.8696523,111.729443 29.8675303,112.005305 C29.8648778,112.281167 29.9067876,112.557029 29.9932597,112.832891 C30.0489627,113.007958 30.1152757,113.140584 30.1906072,113.230769 C30.2675303,113.320955 30.3513499,113.3687 30.4425966,113.37931 C30.5349043,113.395225 30.6309255,113.374005 30.7333128,113.310345 C30.8346391,113.257294 30.9386178,113.167109 31.0447186,113.050398 C31.1248247,112.960212 31.2038698,112.854111 31.2823844,112.72679 C31.3603685,112.604775 31.4351696,112.472149 31.5057266,112.334218 C31.5768141,112.196286 31.6431271,112.05305 31.7051961,111.909814 C31.7667345,111.761273 31.821907,111.618037 31.8701828,111.485411 L32.491403,114.015915 C32.428273,114.180371 32.3550635,114.344828 32.2733658,114.503979 C32.1916682,114.668435 32.1046656,114.827586 32.0123579,114.981432 C31.9205807,115.135279 31.8256205,115.278515 31.7285383,115.416446 C31.630395,115.554377 31.5343738,115.676393 31.4388831,115.782493 C31.1635515,116.084881 30.8813234,116.291777 30.5927292,116.397878 C30.3041351,116.503979 30.0288035,116.514589 29.7656735,116.435013 C29.5025436,116.355438 29.2611643,116.180371 29.0415356,115.915119 C28.821907,115.649867 28.6431271,115.29443 28.5057266,114.859416 C28.3237637,114.281167 28.2044003,113.676393 28.1497584,113.045093 C28.0940555,112.408488 28.1089096,111.787798 28.1932597,111.172414 C28.2781404,110.557029 28.4378221,109.96817 28.6717743,109.405836 C28.9057266,108.843501 29.220846,108.339523 29.6176629,107.899204 C29.767265,107.729443 29.9264162,107.580902 30.0961775,107.442971 C30.2643473,107.30504 30.4319865,107.209549 30.5985648,107.161804" id="Fill-198" fill="#AA2F41" sketch:type="MSShapeGroup"></path>
            <path d="M34.8785146,101.856764 L34.3761273,106.986737 L36.8286472,109.114058 L35.4503979,111.214854 L33.7708223,110.116711 L34.4419098,112.472149 L33.1145889,114.058355 L30.7692308,106.159151 L32.3262599,104.604775 L32.9320955,107.029178 L33.1761273,103.480106 L34.8785146,101.856764" id="Fill-199" fill="#AA2F41" sketch:type="MSShapeGroup"></path>
            <path d="M38.0122016,98.6737401 C38.0992042,99.0079576 38.1867374,99.33687 38.2737401,99.6604775 C38.3612732,99.9840849 38.4461538,100.312997 38.5289125,100.65252 L37.1851459,102.297082 L37.3538462,102.976127 L38.3236074,101.893899 L38.7480106,103.549072 L37.7877984,104.689655 L37.9888594,105.464191 L38.7952255,104.567639 L39.3671088,103.931034 C39.471618,104.318302 39.5745358,104.70557 39.6763926,105.087533 C39.7777188,105.469496 39.8811671,105.851459 39.9867374,106.233422 L37.2153846,109.458886 L35.0132626,102.01061 L38.0122016,98.6737401" id="Fill-200" fill="#AA2F41" sketch:type="MSShapeGroup"></path>
            <path d="M41.7374005,94.4297082 L42.3830239,96.6206897 L41.4334218,97.7612732 L42.7023873,102.854111 L41.3644562,104.493369 L39.8551724,99.6657825 L38.9119363,100.827586 L38.1962865,98.3872679 L41.7374005,94.4297082" id="Fill-201" fill="#AA2F41" sketch:type="MSShapeGroup"></path>
            <path d="M46.742823,94.8806366 C46.8887116,95.3421751 46.9645736,95.8090186 46.9709397,96.270557 C46.9773057,96.7320955 46.9269079,97.1777188 46.8208071,97.6074271 C46.7147063,98.0371353 46.5597991,98.4403183 46.3560856,98.8222812 C46.1529026,99.204244 45.9136453,99.5490716 45.6383137,99.8567639 C45.5322129,99.9734748 45.4086055,100.084881 45.2674914,100.180371 C45.1274384,100.275862 44.9810193,100.366048 44.8308866,100.445623 C44.679693,100.519894 44.5322129,100.588859 44.3879158,100.647215 C44.2436187,100.70557 44.1141758,100.753316 44.0001174,100.790451 L43.483937,98.535809 C43.7221333,98.5039788 43.9682872,98.4084881 44.2208071,98.2493369 C44.473327,98.0848806 44.7083402,97.8885942 44.9253163,97.6445623 C44.9656346,97.596817 45.015502,97.5384615 45.0722659,97.469496 C45.1295604,97.4005305 45.1799583,97.3209549 45.2255816,97.2360743 C45.2701439,97.1511936 45.3035657,97.066313 45.3242553,96.9761273 C45.344945,96.8806366 45.340701,96.7904509 45.3104622,96.6949602 C45.2908336,96.6312997 45.2600644,96.5888594 45.2197461,96.5729443 C45.1788972,96.5570292 45.1338044,96.5570292 45.083937,96.5729443 C45.0340697,96.5888594 44.9799583,96.6206897 44.9231943,96.66313 C44.8658999,96.7055703 44.812319,96.7480106 44.7597991,96.801061 C44.7083402,96.8488064 44.6600644,96.8965517 44.6170935,96.9442971 C44.5735922,96.9920424 44.5385789,97.0291777 44.5125843,97.061008 C44.3263774,97.2679045 44.140701,97.4058355 43.9560856,97.4748011 C43.7709397,97.5437666 43.5953429,97.5490716 43.4292951,97.4907162 C43.2621864,97.4270557 43.1099317,97.3103448 42.9704092,97.1246684 C42.8314171,96.9442971 42.7162978,96.7108753 42.6250511,96.4190981 C42.4987911,96.0159151 42.4372527,95.602122 42.4404357,95.1724138 C42.4436187,94.7374005 42.4971996,94.3183024 42.6001174,93.9045093 C42.7019742,93.4907162 42.8468018,93.0981432 43.0324781,92.7320955 C43.218685,92.3660477 43.4308866,92.0477454 43.6696134,91.7824934 C43.7757142,91.6657825 43.8871201,91.5490716 44.0033004,91.4323607 C44.1200113,91.3209549 44.2383137,91.2148541 44.3592686,91.1246684 C44.480754,91.0291777 44.6022394,90.9496021 44.7231943,90.8753316 C44.8441492,90.806366 44.9640431,90.7533156 45.081815,90.7161804 L45.6075445,92.9177719 C45.4361917,93.0026525 45.2605949,93.1140584 45.082876,93.2360743 C44.9046267,93.3633952 44.7385789,93.5172414 44.5842023,93.6870027 C44.5566161,93.7188329 44.5200113,93.7612732 44.47651,93.8090186 C44.4324781,93.862069 44.3873853,93.9204244 44.3412315,93.9840849 C44.2950776,94.0424403 44.2494543,94.1114058 44.2048919,94.1856764 C44.1608601,94.2546419 44.1231943,94.3289125 44.0934861,94.403183 C44.0637779,94.4721485 44.0441492,94.5464191 44.0351307,94.6206897 C44.0261121,94.6949602 44.0330087,94.7639257 44.0558203,94.8222812 C44.080754,94.8965517 44.1178893,94.938992 44.1656346,94.9442971 C44.2139105,94.9549072 44.2685524,94.938992 44.3295604,94.9071618 C44.3905683,94.8753316 44.4547593,94.8275862 44.5221333,94.7639257 C44.5889768,94.7055703 44.6547593,94.6419098 44.7178893,94.5729443 C44.7810193,94.5039788 44.8399052,94.4350133 44.8929556,94.3766578 C44.947067,94.3129973 44.9926904,94.265252 45.0292951,94.2334218 C45.208075,94.0583554 45.3820803,93.9416446 45.5518415,93.8885942 C45.7216028,93.8302387 45.880754,93.8302387 46.0277036,93.8832891 C46.1751837,93.9416446 46.3104622,94.0530504 46.4319476,94.2228117 C46.5539636,94.3872679 46.6579423,94.6100796 46.742823,94.8806366" id="Fill-202" fill="#AA2F41" sketch:type="MSShapeGroup"></path>
        </g>
    </g>
</svg>