<?xml version="1.0" encoding="UTF-8" standalone="no"?>
<svg width="377px" height="452px" viewBox="0 0 377 452" version="1.1" xmlns="http://www.w3.org/2000/svg" xmlns:xlink="http://www.w3.org/1999/xlink" xmlns:sketch="http://www.bohemiancoding.com/sketch/ns">
    <!-- Generator: Sketch 3.2.2 (9983) - http://www.bohemiancoding.com/sketch -->
    <title>Group</title>
    <desc>Created with Sketch.</desc>
    <defs></defs>
    <g id="Page-1" stroke="none" stroke-width="1" fill="none" fill-rule="evenodd" sketch:type="MSPage">
        <g id="Group" sketch:type="MSLayerGroup">
            <path d="M376.821,188.41 C376.821,292.466 292.466,376.826 188.411,376.826 C84.354,376.826 0,292.466 0,188.41 C0,84.355 84.354,0 188.411,0 C292.466,0 376.821,84.355 376.821,188.41" id="Fill-3" fill="#BDC7B1" sketch:type="MSShapeGroup"></path>
            <path d="M195.706,442.999267 L195,451.949267 L221.142,451.949267 L222.32,448.649267 C222.32,448.649267 227.265,451.949267 234.094,451.949267 L254.819,451.949267 C254.819,451.949267 258.587,449.829267 257.41,445.349267 C256.233,440.879267 246.341,442.289267 243.75,441.819267 C241.159,441.349267 233.624,441.349267 231.033,437.579267 C228.443,433.809267 196.413,430.039267 195.706,442.999267" id="Fill-132" fill="#E7B640" sketch:type="MSShapeGroup"></path>
            <path d="M169,341 L184.273,438.15 L234.804,438.72 L255.084,345.31" id="Fill-133" fill="#1C5466" sketch:type="MSShapeGroup"></path>
            <path d="M103.706,442.995716 L103,451.945716 L129.142,451.945716 L130.32,448.645716 C130.32,448.645716 135.265,451.945716 142.094,451.945716 L162.82,451.945716 C162.82,451.945716 166.588,449.825716 165.411,445.345716 C164.233,440.875716 154.342,442.285716 151.751,441.815716 C149.161,441.345716 141.624,441.345716 139.033,437.575716 C136.443,433.805716 104.413,430.045716 103.706,442.995716" id="Fill-134" fill="#E7B640" sketch:type="MSShapeGroup"></path>
            <path d="M74,385.58 C74,385.58 88.73,432.86 176.992,420.1 C254.842,408.84 259.766,380 259.766,380" id="Fill-135" fill="#1C5466" sketch:type="MSShapeGroup"></path>
            <path d="M98,372 L104.534,438.49 L155.066,438.49 L166.295,385.71" id="Fill-136" fill="#1C5466" sketch:type="MSShapeGroup"></path>
            <path d="M180.619809,260.45 L210.201809,256 L228.874809,291.74 L292.901809,285.35 L295.613809,305.88 C295.613809,305.88 221.867809,327.3 191.042809,333.26 C160.219809,339.22 180.619809,260.45 180.619809,260.45" id="Fill-137" fill="#F4DAB9" sketch:type="MSShapeGroup"></path>
            <path d="M307.706,314.542712 C310.17,314.762712 312.422,313.122712 312.718,310.892712 C312.778,310.482712 312.738,310.092712 312.665,309.712712 L314.669,309.892712 C317.456,310.132712 319.957,308.522712 320.25,306.292712 C320.406,305.142712 319.945,304.062712 319.09,303.242712 C321.763,303.372712 324.124,301.802712 324.411,299.632712 C324.713,297.412712 322.693,295.392712 319.912,295.152712 L319.758,295.132712 C321.039,294.502712 321.962,293.432712 322.142,292.132712 C322.435,289.902712 320.42,287.892712 317.635,287.632712 L304.929,286.522712 C301.252,286.232712 296.58,286.112712 295.003,286.022712 C290.213,285.742712 287.56,288.132712 284.866,288.732712 L276.495,293.152712 C276.161,293.222712 275.862,293.332712 275.573,293.452712 L275,306.342712 L305.151,314.452712 L307.706,314.542712" id="Fill-138" fill="#F4DAB9" sketch:type="MSShapeGroup"></path>
            <path d="M71,394.227051 L263.836,384.547051 C263.836,384.547051 255.164,181.860051 163.151,203.637051 C71.137,225.417051 71,394.227051 71,394.227051" id="Fill-139" fill="#2F312E" sketch:type="MSShapeGroup"></path>
            <path d="M136.097808,215.586 C136.097808,215.586 157.689808,208.386 180.481808,215.586 C203.271808,222.786 232.268808,244.626 232.268808,244.626 C232.268808,244.626 258.451808,222.786 245.255808,187.999 C232.060808,153.213 234.460808,131.62 234.460808,131.62 L153.786808,127 C153.786808,127 146.893808,149.614 140.896808,168.807 C134.898808,187.999 136.097808,215.586 136.097808,215.586" id="Fill-140" fill="#F4DAB9" sketch:type="MSShapeGroup"></path>
            <path d="M233.136444,140.336653 L196.628444,180.802653 L201.466444,153.971653 L185.796444,193.518653 L182.113444,172.885653 L178.624444,185.989653 L166.077444,182.761653 L146.695444,207.603653 L147.575444,185.614653 L136.368444,208.513653 C136.368444,208.513653 133.289444,198.833653 136.368444,181.681653 C139.447444,164.528653 153.522444,123.620653 153.522444,123.620653 C153.522444,123.620653 237.365444,119.423653 239.734444,132.857653 C241.053444,140.336653 233.136444,140.336653 233.136444,140.336653" id="Fill-141" fill="#AA2F41" sketch:type="MSShapeGroup"></path>
            <path d="M173.730849,188.734772 C175.047849,195.611772 171.761849,202.021772 166.393849,203.051772 C161.025849,204.081772 155.606849,199.331772 154.290849,192.454772 C152.972849,185.577772 156.258849,179.167772 161.626849,178.139772 C166.994849,177.112772 172.413849,181.855772 173.730849,188.734772" id="Fill-142" fill="#F4DAB9" sketch:type="MSShapeGroup"></path>
            <path d="M214,176.659 C214,179.347 216.181,181.527 218.867,181.527 C221.557,181.527 223.736,179.347 223.736,176.659 L223.736,173.867 C223.736,171.179 221.557,169 218.867,169 C216.181,169 214,171.179 214,173.867 L214,176.659" id="Fill-143" fill="#2F312E" sketch:type="MSShapeGroup"></path>
            <path d="M229,166.658 C229,169.346 231.179,171.526 233.868,171.526 C236.555,171.526 238.736,169.346 238.736,166.658 L238.736,163.866 C238.736,161.179 236.555,159 233.868,159 C231.179,159 229,161.179 229,163.866 L229,166.658" id="Fill-144" fill="#2F312E" sketch:type="MSShapeGroup"></path>
            <path d="M239.107484,202 C239.107484,202 246.240484,203.14 249.079484,208.82 C251.917484,214.5 251.504484,232.23 251.504484,232.23 L246.344484,232.23 L242.474484,236.36 L239.378484,233.26 L234.218484,236.88 L230.863484,232.49 L226.478484,235.59 L222.608484,228.62 C222.608484,228.62 214.352484,208.75 235.249484,204.63" id="Fill-145" fill="#AA2F41" sketch:type="MSShapeGroup"></path>
            <path d="M231.225,174 C231.225,174 235.332,178.357 237.822,180.598 C244.745,186.82 253.622,195.986 246.144,199.936 C238.666,203.896 231.225,205.226 231.225,205.226 L229,177.2" id="Fill-146" fill="#BD837D" sketch:type="MSShapeGroup"></path>
            <path d="M244.42,212 L237,215.84" id="Stroke-147" stroke="#BD837D" stroke-width="2.399" stroke-linecap="round" sketch:type="MSShapeGroup"></path>
            <path d="M300.217219,294.664217 C299.439219,297.134217 300.817219,299.774217 303.294219,300.554217 L308.743219,302.264217 C311.220219,303.044217 313.860219,301.664217 314.638219,299.194217 L321.663219,276.824217 C322.441219,274.344217 321.063219,271.704217 318.587219,270.934217 L313.137219,269.214217 C310.659219,268.444217 308.020219,269.814217 307.241219,272.294217 L300.217219,294.664217" id="Fill-148" fill="#2F312E" sketch:type="MSShapeGroup"></path>
            <path d="M300.681416,293.142651 C298.673416,295.122651 295.441416,295.092651 293.465416,293.092651 C291.489416,291.072651 291.514416,287.842651 293.524416,285.872651 L302.063416,277.462651 C304.072416,275.492651 307.303416,275.512651 309.279416,277.522651 C311.258416,279.532651 311.230416,282.762651 309.220416,284.742651 L300.681416,293.142651" id="Fill-149" fill="#F4DAB9" sketch:type="MSShapeGroup"></path>
            <path d="M321.683,291.34 C321.683,293.74 319.739,295.68 317.342,295.68 C314.943,295.68 313,293.74 313,291.34 C313,288.94 314.943,287 317.342,287 C319.739,287 321.683,288.94 321.683,291.34" id="Fill-150" fill="#F4DAB9" sketch:type="MSShapeGroup"></path>
            <path d="M214.516991,352.523317 C215.254991,344.443317 219.292991,340.143317 220.645991,333.823317 C221.999991,327.503317 219.646991,324.233317 219.350991,321.223317 C219.054991,318.213317 220.931991,309.213317 220.931991,309.213317 C220.931991,309.213317 220.894991,308.873317 221.567991,306.143317 L221.738991,306.183317 C222.131991,306.283317 222.530991,306.053317 222.631991,305.663317 L223.613991,301.823317 C223.715991,301.433317 223.479991,301.033317 223.087991,300.933317 L215.628991,299.023317 C215.235991,298.923317 214.837991,299.153317 214.736991,299.553317 L213.753991,303.383317 C213.654991,303.773317 213.889991,304.173317 214.281991,304.273317 L214.451991,304.323317 C213.847991,306.603317 213.607991,307.333317 213.607991,307.333317 C213.607991,307.333317 211.113991,316.293317 209.407991,318.793317 C207.699991,321.293317 203.935991,322.873317 202.080991,329.063317 C200.225991,335.253317 201.695991,340.963317 198.452991,348.403317 C195.211991,355.843317 186.508991,364.813317 193.890991,367.243317 C197.960991,368.573317 199.233991,368.793317 199.557991,368.713317 C201.799991,369.453317 205.238991,370.443317 209.451991,371.233317 C217.089991,372.653317 213.778991,360.603317 214.516991,352.523317" id="Fill-151" fill="#BDC7B1" sketch:type="MSShapeGroup"></path>
            <path d="M219.231078,333.43 C220.358078,328.32 219.218078,325.39 218.769078,322.88 L208.748078,322 C207.131078,323.98 205.743078,324.49 204.251078,329.59 C202.521078,335.48 203.522078,340.82 200.619078,347.94 C197.716078,355.06 190.305078,363.82 196.240078,365.85 C199.515078,366.97 200.545078,367.13 200.814078,367.04 C202.615078,367.66 205.388078,368.48 208.797078,369.07 C214.978078,370.15 212.695078,358.9 213.579078,351.26 C214.463078,343.62 217.906078,339.43 219.231078,333.43" id="Fill-152" fill="#2F312E" sketch:type="MSShapeGroup"></path>
            <path d="M213.598574,322.792888 C212.765574,325.142888 211.426574,326.802888 210.607574,326.502888 C209.787574,326.212888 209.799574,324.082888 210.631574,321.742888 C211.464574,319.402888 212.804574,317.742888 213.622574,318.032888 C214.441574,318.322888 214.431574,320.452888 213.598574,322.792888" id="Fill-153" fill="#FFFFFF" sketch:type="MSShapeGroup"></path>
            <path d="M203.014775,358.693399 C202.102775,360.863399 200.615775,362.313399 199.695775,361.923399 C198.773775,361.533399 198.767775,359.463399 199.679775,357.293399 C200.591775,355.123399 202.078775,353.673399 202.998775,354.063399 C203.920775,354.453399 203.927775,356.523399 203.014775,358.693399" id="Fill-154" fill="#BDC7B1" sketch:type="MSShapeGroup"></path>
            <path d="M218.810821,349.33 L218.667821,349.27 C220.081821,349.05 221.285821,348.31 221.849821,347.12 C222.798821,345.08 221.483821,342.56 218.904821,341.47 L207.124821,336.59 C208.682821,336.02 209.711821,334.76 209.674821,333.18 C209.599821,330.88 207.316821,328.83 204.566821,328.59 L188.998821,331.96 L136.212821,316.09 L151.476821,286.73 L96.3868214,278 C96.3868214,278 71.5288214,340.52 102.716821,344.12 C127.816821,347.01 167.436821,351 181.953821,352.44 L198.919821,363.29 L201.331821,364.14 C203.612821,365.09 206.255821,364.21 207.208821,362.17 C207.390821,361.8 207.467821,361.42 207.513821,361.03 L209.371821,361.8 C211.954821,362.88 214.826821,362.09 215.776821,360.05 C216.272821,359 216.159821,357.83 215.592821,356.79 C218.100821,357.72 220.823821,356.94 221.751821,354.96 C222.707821,352.93 221.390821,350.4 218.810821,349.33" id="Fill-155" fill="#F4DAB9" sketch:type="MSShapeGroup"></path>
            <path d="M202.613,328 L206.332,328.34 L209.56,332.4 L210.148,338.17 L201,334.85 C201,334.85 202.125,329.47 202.613,328" id="Fill-156" fill="#BDC7B1" sketch:type="MSShapeGroup"></path>
            <path d="M206.228,326 C206.228,326 204.907,327.76 204.858,328.11 C204.809,328.45 203,335.35 203,335.35 L213.078,339.16 L210.142,332.07 C210.142,332.07 209.115,331.82 209.017,329.52 C208.919,327.22 206.228,326 206.228,326" id="Fill-157" fill="#2F312E" sketch:type="MSShapeGroup"></path>
            <path d="M240,144.078682 C240,144.078682 253.985,143.113682 251.364,147.942682 C248.742,152.770682 240,144.078682 240,144.078682" id="Fill-158" fill="#FFFFFF" sketch:type="MSShapeGroup"></path>
            <path d="M252,170 C252,170 264.728,175.879 260.107,178.851 C255.485,181.824 252,170 252,170" id="Fill-159" fill="#FFFFFF" sketch:type="MSShapeGroup"></path>
            <path d="M127.284559,199 C127.284559,199 128.310559,212.98 123.470559,210.38 C118.631559,207.78 127.284559,199 127.284559,199" id="Fill-160" fill="#FFFFFF" sketch:type="MSShapeGroup"></path>
            <path d="M258,159 C258,159 268.761,160.216 267.319,163.911 C265.877,167.606 258,159 258,159" id="Fill-161" fill="#FFFFFF" sketch:type="MSShapeGroup"></path>
            <path d="M131.726788,174 C131.726788,174 129.285788,184.55 125.779788,182.693 C122.273788,180.836 131.726788,174 131.726788,174" id="Fill-162" fill="#FFFFFF" sketch:type="MSShapeGroup"></path>
            <path d="M219,265.8 L220.6,284.42 L232.609,282.01 L228.206,310.63 L237.813,308.63 L235.812,331.25 L248.62,302.43 L236.612,302.63 L242.416,273.81 L228.806,275.01 L232.409,257 L219,265.8" id="Fill-163" fill="#E7B640" sketch:type="MSShapeGroup"></path>
            <path d="M136.403,81 L134.417,112.676 L124.578,113.108 L124.664,96.407 L120.219,109.871 L116.422,109.871 L113.013,97.831 L112.969,111.813 L103,112.115 L103.432,82.295 L114.523,81.863 L118.925,96.148 L124.794,81 L136.403,81" id="Fill-177" fill="#BD837D" sketch:type="MSShapeGroup"></path>
            <path d="M150.48,82 L148.106,111.389 L139,111.863 L139,82.604 L150.48,82" id="Fill-178" fill="#BD837D" sketch:type="MSShapeGroup"></path>
            <path d="M181.561,81.518 L180.008,110.777 L168.702,111.813 L162.66,96.148 L161.71,112.115 L152,112.115 L152.777,81.518 L163.566,81 L171.032,96.536 L171.377,81.863 L181.561,81.518" id="Fill-179" fill="#BD837D" sketch:type="MSShapeGroup"></path>
            <path d="M209.195,88.042 C209.195,89.107 209.144,90.279 209.044,91.559 C208.943,92.84 208.778,94.163 208.548,95.529 C208.318,96.896 208.019,98.28 207.652,99.683 C207.286,101.086 206.829,102.434 206.282,103.729 C205.735,105.024 205.099,106.236 204.372,107.365 C203.646,108.494 202.812,109.479 201.87,110.321 C200.927,111.162 199.874,111.824 198.708,112.306 C197.542,112.788 196.249,113.029 194.824,113.029 C193.155,113.029 191.706,112.759 190.476,112.22 C189.247,111.68 188.193,110.954 187.315,110.04 C186.438,109.127 185.718,108.063 185.157,106.847 C184.596,105.632 184.157,104.344 183.841,102.985 C183.525,101.625 183.305,100.237 183.183,98.82 C183.061,97.404 183,96.04 183,94.731 C183,92.717 183.1,90.707 183.302,88.7 C183.503,86.694 183.791,84.691 184.165,82.691 L194.263,83.079 C193.875,85.338 193.541,87.607 193.26,89.887 C192.98,92.167 192.839,94.458 192.839,96.759 C192.839,97.004 192.85,97.367 192.872,97.849 C192.893,98.331 192.933,98.871 192.99,99.467 C193.048,100.065 193.131,100.676 193.239,101.302 C193.346,101.928 193.494,102.499 193.681,103.017 C193.867,103.535 194.094,103.959 194.36,104.29 C194.627,104.621 194.939,104.786 195.3,104.786 C195.716,104.786 196.089,104.589 196.421,104.193 C196.751,103.798 197.042,103.269 197.294,102.607 C197.546,101.946 197.767,101.183 197.952,100.32 C198.14,99.457 198.298,98.558 198.427,97.622 C198.558,96.688 198.661,95.753 198.741,94.818 C198.82,93.883 198.884,93.012 198.935,92.207 C198.985,91.401 199.017,90.689 199.032,90.071 C199.046,89.452 199.054,88.991 199.054,88.689 C199.054,87.568 199.036,86.449 198.999,85.334 C198.964,84.219 198.909,83.108 198.837,82 L208.937,82 C209.109,83.986 209.195,86 209.195,88.042" id="Fill-180" fill="#BD837D" sketch:type="MSShapeGroup"></path>
            <path d="M234.778,82 L234.562,91.149 L228.132,91.408 L226.492,111.864 L217.386,112.338 L217.429,91.883 L211,92.228 L211.259,82.043 L234.778,82" id="Fill-181" fill="#BD837D" sketch:type="MSShapeGroup"></path>
            <path d="M256.585,81 C256.499,82.352 256.42,83.69 256.347,85.013 C256.275,86.336 256.182,87.674 256.067,89.027 L246.918,89.501 L246.703,92.22 L253.132,92.22 L252.658,98.909 L246.184,99.125 L245.968,102.275 L255.118,102.275 C255.031,103.857 254.941,105.429 254.848,106.99 C254.754,108.551 254.671,110.115 254.599,111.683 L236,112.114 L236.69,81 L256.585,81" id="Fill-182" fill="#BD837D" sketch:type="MSShapeGroup"></path>
            <path d="M279.613,100.499 C279.613,102.47 279.271,104.193 278.588,105.667 C277.904,107.141 276.969,108.368 275.783,109.346 C274.595,110.324 273.208,111.058 271.618,111.547 C270.028,112.036 268.32,112.281 266.494,112.281 C265.789,112.281 265.015,112.187 264.174,112 C263.333,111.813 262.48,111.579 261.617,111.299 C260.754,111.018 259.924,110.716 259.125,110.392 C258.326,110.069 257.618,109.763 257,109.475 L257.949,100.585 C259.172,101.319 260.527,101.877 262.016,102.258 C263.505,102.639 264.968,102.829 266.407,102.829 C266.68,102.829 267.011,102.819 267.4,102.797 C267.788,102.776 268.158,102.711 268.511,102.603 C268.863,102.495 269.162,102.333 269.406,102.117 C269.651,101.902 269.773,101.593 269.773,101.19 C269.773,100.916 269.687,100.682 269.514,100.488 C269.342,100.294 269.119,100.136 268.845,100.013 C268.572,99.891 268.262,99.798 267.918,99.733 C267.572,99.668 267.234,99.622 266.903,99.593 C266.572,99.564 266.263,99.55 265.975,99.55 L265.285,99.55 C264.048,99.55 262.923,99.334 261.908,98.902 C260.894,98.471 260.023,97.87 259.298,97.1 C258.571,96.331 258.006,95.418 257.603,94.36 C257.201,93.303 257,92.156 257,90.919 C257,89.221 257.341,87.7 258.024,86.355 C258.708,85.01 259.621,83.867 260.764,82.924 C261.908,81.982 263.22,81.259 264.703,80.756 C266.184,80.252 267.716,80 269.299,80 C270.004,80 270.73,80.026 271.478,80.076 C272.225,80.126 272.97,80.216 273.711,80.346 C274.452,80.475 275.175,80.641 275.88,80.842 C276.585,81.043 277.254,81.295 277.886,81.597 L277.066,90.358 C276.088,90.027 275.063,89.75 273.992,89.527 C272.92,89.304 271.874,89.192 270.852,89.192 C270.665,89.192 270.424,89.196 270.13,89.203 C269.835,89.211 269.525,89.232 269.202,89.268 C268.878,89.304 268.551,89.358 268.219,89.43 C267.888,89.502 267.593,89.599 267.335,89.721 C267.076,89.844 266.867,90.005 266.71,90.206 C266.551,90.408 266.479,90.645 266.494,90.919 C266.508,91.235 266.627,91.491 266.849,91.684 C267.072,91.879 267.36,92.03 267.713,92.138 C268.065,92.245 268.453,92.321 268.878,92.364 C269.302,92.408 269.722,92.433 270.14,92.44 C270.557,92.447 270.945,92.447 271.305,92.44 C271.665,92.433 271.96,92.444 272.19,92.472 C273.341,92.544 274.377,92.789 275.298,93.206 C276.218,93.623 276.998,94.177 277.638,94.867 C278.278,95.558 278.767,96.382 279.105,97.338 C279.443,98.295 279.613,99.349 279.613,100.499" id="Fill-183" fill="#BD837D" sketch:type="MSShapeGroup"></path>
            <path d="M181.775,29.636 L179.932,74.801 L166.084,74.166 L166.847,44.119 L161.764,47.613 L157,36.75 L167.354,29 L181.775,29.636" id="Fill-217" fill="#2F312E" sketch:type="MSShapeGroup"></path>
            <path d="M210.919,53.885 C210.919,52.953 210.792,51.916 210.538,50.772 C210.284,49.629 209.891,48.56 209.362,47.564 C208.833,46.569 208.155,45.733 207.329,45.055 C206.503,44.378 205.518,44.038 204.376,44.038 C203.21,44.038 202.215,44.378 201.389,45.055 C200.563,45.733 199.882,46.569 199.34,47.564 C198.801,48.56 198.403,49.629 198.149,50.772 C197.895,51.916 197.768,52.953 197.768,53.885 C197.768,54.817 197.895,55.854 198.149,56.997 C198.403,58.141 198.801,59.21 199.34,60.205 C199.882,61.201 200.563,62.037 201.389,62.715 C202.215,63.393 203.21,63.731 204.376,63.731 C205.518,63.731 206.503,63.393 207.329,62.715 C208.155,62.037 208.833,61.201 209.362,60.205 C209.891,59.21 210.284,58.141 210.538,56.997 C210.792,55.854 210.919,54.817 210.919,53.885 L210.919,53.885 Z M224.321,52.932 C224.321,54.796 224.116,56.648 223.702,58.491 C223.29,60.332 222.69,62.101 221.909,63.795 C221.124,65.489 220.167,67.066 219.034,68.527 C217.901,69.988 216.604,71.259 215.143,72.339 C213.682,73.419 212.077,74.266 210.331,74.88 C208.585,75.494 206.704,75.801 204.692,75.801 C202.661,75.801 200.764,75.494 199.007,74.88 C197.249,74.266 195.646,73.419 194.195,72.339 C192.745,71.259 191.448,69.988 190.305,68.527 C189.161,67.066 188.197,65.489 187.414,63.795 C186.631,62.101 186.032,60.327 185.62,58.474 C185.207,56.622 185,54.774 185,52.932 C185,51.09 185.207,49.237 185.62,47.374 C186.032,45.51 186.631,43.732 187.414,42.037 C188.197,40.343 189.161,38.761 190.305,37.289 C191.448,35.818 192.745,34.542 194.195,33.462 C195.646,32.382 197.255,31.535 199.024,30.921 C200.792,30.307 202.68,30 204.692,30 C206.704,30 208.585,30.307 210.331,30.921 C212.077,31.535 213.682,32.382 215.143,33.462 C216.604,34.542 217.901,35.818 219.034,37.289 C220.167,38.761 221.124,40.343 221.909,42.037 C222.69,43.732 223.29,45.51 223.702,47.374 C224.116,49.237 224.321,51.09 224.321,52.932 L224.321,52.932 Z" id="Fill-218" fill="#2F312E" sketch:type="MSShapeGroup"></path>
        </g>
    </g>
</svg>