<?xml version="1.0" encoding="UTF-8" standalone="no"?>
<svg width="166px" height="172px" viewBox="0 0 166 172" version="1.1" xmlns="http://www.w3.org/2000/svg" xmlns:xlink="http://www.w3.org/1999/xlink" xmlns:sketch="http://www.bohemiancoding.com/sketch/ns">
    <!-- Generator: Sketch 3.2.2 (9983) - http://www.bohemiancoding.com/sketch -->
    <title>presentations</title>
    <desc>Created with Sketch.</desc>
    <defs>
        <ellipse id="path-1" cx="83" cy="86" rx="83" ry="86"></ellipse>
    </defs>
    <g id="Page-1" stroke="none" stroke-width="1" fill="none" fill-rule="evenodd" sketch:type="MSPage">
        <g id="presentations" sketch:type="MSLayerGroup">
            <mask id="mask-2" sketch:name="Oval 1" fill="white">
                <use xlink:href="#path-1"></use>
            </mask>
            <use id="Oval-1" fill="#E6B641" sketch:type="MSShapeGroup" xlink:href="#path-1"></use>
            <path d="M49.9044166,129 C49.9044166,129 1.29441662,180.82 20.4844166,196.58 C39.6644166,212.34 40.4844166,208.67 40.4844166,208.67" id="Fill-109" fill="#2F312E" sketch:type="MSShapeGroup" mask="url(#mask-2)"></path>
            <path d="M141.386512,227.817026 C143.536512,210.427026 144.416512,176.447026 129.096512,133.477026 C106.516512,70.177026 49.1665117,132.167026 49.1665117,132.167026 C49.1665117,132.167026 33.5565117,171.987026 33.0265117,202.067026 C32.7965117,215.297026 34.0965117,226.697026 35.6265117,235.307026 L141.386512,227.817026" id="Fill-113" fill="#2F312E" sketch:type="MSShapeGroup" mask="url(#mask-2)"></path>
            <path d="M79.72,131.05 L66,200.69 L76.02,219.68 L92.38,199.63 L91.32,130 L79.72,131.05" id="Fill-114" fill="#E7B640" sketch:type="MSShapeGroup" mask="url(#mask-2)"></path>
            <path d="M48.6202022,131.543855 L86.5302022,136.273855 L129.540202,133.863855 C129.540202,133.863855 136.450202,21.9268548 79.9102022,28.2588548 C23.3702022,34.5888548 48.6202022,131.543855 48.6202022,131.543855" id="Fill-115" fill="#F4DAB9" sketch:type="MSShapeGroup" mask="url(#mask-2)"></path>
            <path d="M136.35,80.72 C136.35,88.29 132.69,94.43 128.18,94.43 C123.66,94.43 120,88.29 120,80.72 C120,73.14 123.66,67 128.18,67 C132.69,67 136.35,73.14 136.35,80.72" id="Fill-116" fill="#F4DAB9" sketch:type="MSShapeGroup" mask="url(#mask-2)"></path>
            <path d="M100.96,43.7130411 L31,41.3550411 C31,41.3550411 58.57,8.13104108 115.89,26.5760411" id="Fill-117" fill="#2F312E" sketch:type="MSShapeGroup" mask="url(#mask-2)"></path>
            <path d="M69.13,88.25 C69.13,89.91 67.79,91.24 66.14,91.24 L40.99,91.24 C39.34,91.24 38,89.91 38,88.25 L38,79.99 C38,78.34 39.34,77 40.99,77 L66.14,77 C67.79,77 69.13,78.34 69.13,79.99 L69.13,88.25 L69.13,88.25 Z" id="Stroke-118" stroke="#1C5466" stroke-width="3.165" sketch:type="MSShapeGroup" mask="url(#mask-2)"></path>
            <path d="M75.1743265,80 C75.1743265,80 50.7343265,88.7 55.6543265,101.1 C58.2243265,107.55 82.4843265,98.76 82.4843265,98.76" id="Fill-119" fill="#BD837D" sketch:type="MSShapeGroup" mask="url(#mask-2)"></path>
            <path d="M108.68,91.56 C108.68,93.21 107.34,94.55 105.69,94.55 L80.55,94.55 C78.9,94.55 77.56,93.21 77.56,91.56 L77.56,83.29 C77.56,81.64 78.9,80.3 80.55,80.3 L105.69,80.3 C107.34,80.3 108.68,81.64 108.68,83.29 L108.68,91.56 L108.68,91.56 Z M69,80 L78.5,82.64 L69,80 Z" id="Stroke-120" stroke="#1C5466" stroke-width="3.165" sketch:type="MSShapeGroup" mask="url(#mask-2)"></path>
            <path d="M77,108.70513 C77,108.70513 100.49,94.9251298 101.55,100.20513 C102.6,105.47513 86.42,114.62513 86.42,114.62513" id="Fill-121" fill="#AA2F41" sketch:type="MSShapeGroup" mask="url(#mask-2)"></path>
            <path d="M48,131 L67.4,155.02 L84.28,135.5 L48,131" id="Fill-122" fill="#BD837D" sketch:type="MSShapeGroup" mask="url(#mask-2)"></path>
            <path d="M85,135.11 L97.67,155.16 L130.37,133 L85,135.11" id="Fill-123" fill="#BD837D" sketch:type="MSShapeGroup" mask="url(#mask-2)"></path>
            <path d="M128.81,137 C128.81,137 187.58,179.49 165.22,199.83 C156.77,207.5 138.35,217.86 138.35,217.86 L128,207.89 L141.04,189.08 L128.81,137" id="Fill-127" fill="#2F312E" sketch:type="MSShapeGroup" mask="url(#mask-2)"></path>
            <path d="M67.74,66.662 C67.74,69.342 65.56,71.522 62.87,71.522 C60.18,71.522 58,69.342 58,66.662 L58,63.866 C58,61.178 60.18,59 62.87,59 C65.56,59 67.74,61.178 67.74,63.866 L67.74,66.662" id="Fill-129" fill="#2F312E" sketch:type="MSShapeGroup" mask="url(#mask-2)"></path>
            <path d="M99.74,71.655 C99.74,74.345 97.55,76.525 94.87,76.525 C92.18,76.525 90,74.345 90,71.655 L90,68.865 C90,66.185 92.18,64 94.87,64 C97.55,64 99.74,66.185 99.74,68.865 L99.74,71.655" id="Fill-130" fill="#2F312E" sketch:type="MSShapeGroup" mask="url(#mask-2)"></path>
            <path d="M127.34,64.329 C127.34,46.719 120.69,32.313 112.26,31.131 C110.65,29.698 109.57,29 109.57,29 L107.87,31.74 C105.85,32.594 103.97,34.204 102.3,36.444 L104.03,37.933 L96,50.885 L112.02,45.864 L126.21,76.591 C126.94,72.791 127.34,68.661 127.34,64.329" id="Fill-131" fill="#2F312E" sketch:type="MSShapeGroup" mask="url(#mask-2)"></path>
        </g>
    </g>
</svg>