<?xml version="1.0" encoding="UTF-8" standalone="no"?>
<svg width="251px" height="251px" viewBox="0 0 251 251" version="1.1" xmlns="http://www.w3.org/2000/svg" xmlns:xlink="http://www.w3.org/1999/xlink" xmlns:sketch="http://www.bohemiancoding.com/sketch/ns">
    <!-- Generator: Sketch 3.2.2 (9983) - http://www.bohemiancoding.com/sketch -->
    <title>questions</title>
    <desc>Created with Sketch.</desc>
    <defs></defs>
    <g id="Page-1" stroke="none" stroke-width="1" fill="none" fill-rule="evenodd" sketch:type="MSPage">
        <g id="questions" sketch:type="MSLayerGroup">
            <path d="M250.119565,125.315217 C250.119565,194.25 194.25,250.130435 125.309783,250.130435 C56.3695652,250.130435 0.5,194.25 0.5,125.315217 C0.5,56.3804348 56.3695652,0.5 125.309783,0.5 C194.25,0.5 250.119565,56.3804348 250.119565,125.315217" id="Fill-161" fill="#0A0B09" sketch:type="MSShapeGroup"></path>
            <path d="M207.853261,110.369565 C207.853261,155.766304 171.059783,192.567935 125.679348,192.567935 C80.2717391,192.567935 43.4782609,155.766304 43.4782609,110.369565 C43.4782609,64.9755435 80.2717391,28.173913 125.679348,28.173913 C171.059783,28.173913 207.853261,64.9755435 207.853261,110.369565" id="Fill-162" fill="#E7B640" sketch:type="MSShapeGroup"></path>
            <path d="M217.766474,160.127877 C215.293647,175.886029 205.429517,187.434942 195.72843,185.918638 C186.027343,184.405051 180.157778,170.399616 182.630604,154.644182 C185.10343,138.886029 194.967561,127.337116 204.641474,128.850703 C214.342561,130.36429 220.212126,144.367008 217.766474,160.127877" id="Fill-163" fill="#F4DAB9" sketch:type="MSShapeGroup"></path>
            <path d="M64.7044477,163.921468 C66.4164042,179.777447 60.6827085,193.402447 51.9055346,194.350816 C43.1283607,195.296468 34.6229259,183.204077 32.9109694,167.348099 C31.1990129,151.489403 36.9327085,137.864403 45.7098824,136.921468 C54.4870563,135.975816 62.9924911,148.06549 64.7044477,163.921468" id="Fill-164" fill="#F4DAB9" sketch:type="MSShapeGroup"></path>
            <path d="M75.5163043,55.3478261 L57.173913,92.2418478 L54.3478261,228.220109 C74.4836957,242.182065 98.9402174,250.372283 125.326087,250.372283 C149.130435,250.372283 171.358696,243.706522 190.298913,232.146739 L199.048913,136.214674 L191.059783,75.7853261 L75.5163043,55.3478261" id="Fill-165" fill="#F4DAB9" sketch:type="MSShapeGroup"></path>
            <path d="M120.733696,139.586957 L135.326087,200.211957 L105.978261,203.717391 L120.733696,139.586957" id="Fill-166" fill="#BD837D" sketch:type="MSShapeGroup"></path>
            <path d="M92.0380435,53.8393343 C92.0380435,53.8393343 82.4728261,57.7034647 105.978261,53.7442256 C140.108696,47.9942256 192.445652,76.0540082 192.445652,76.0540082 L185.353261,28.0703125 C185.353261,28.0703125 120.48913,6.74422556 73.3695652,49.3991169" id="Fill-167" fill="#E7B640" sketch:type="MSShapeGroup"></path>
            <path d="M111.630435,138.002717 C111.630435,151.570652 100.625,162.567935 87.0652174,162.567935 C73.5054348,162.567935 62.5,151.570652 62.5,138.002717 C62.5,124.4375 73.5054348,113.442935 87.0652174,113.442935 C100.625,113.442935 111.630435,124.4375 111.630435,138.002717 L111.630435,138.002717 Z M175.326087,134.258152 C175.326087,147.82337 164.320652,158.820652 150.76087,158.820652 C137.201087,158.820652 126.195652,147.82337 126.195652,134.258152 C126.195652,120.692935 137.201087,109.695652 150.76087,109.695652 C164.320652,109.695652 175.326087,120.692935 175.326087,134.258152 L175.326087,134.258152 Z M110.788043,135.092391 L124.130435,133.423913 L110.788043,135.092391 Z" id="Stroke-168" stroke="#1C5466" stroke-width="1.962" sketch:type="MSShapeGroup"></path>
            <path d="M84.2391304,207.752717 C84.2391304,207.752717 126.005435,224.63587 158.315217,196.652174" id="Stroke-169" stroke="#BD837D" stroke-width="1.308" stroke-linecap="round" sketch:type="MSShapeGroup"></path>
            <path d="M106.086957,141.622283 C106.086957,146.146739 102.418478,149.817935 97.8804348,149.817935 C93.3423913,149.817935 89.673913,146.146739 89.673913,141.622283 L89.673913,136.915761 C89.673913,132.388587 93.3423913,128.717391 97.8804348,128.717391 C102.418478,128.717391 106.086957,132.388587 106.086957,136.915761 L106.086957,141.622283" id="Fill-170" fill="#2F312E" sketch:type="MSShapeGroup"></path>
            <path d="M171.277174,136.184783 C171.277174,140.709239 167.608696,144.380435 163.070652,144.380435 C158.559783,144.380435 154.891304,140.709239 154.891304,136.184783 L154.891304,131.480978 C154.891304,126.953804 158.559783,123.282609 163.070652,123.282609 C167.608696,123.282609 171.277174,126.953804 171.277174,131.480978 L171.277174,136.184783" id="Fill-171" fill="#2F312E" sketch:type="MSShapeGroup"></path>
        </g>
    </g>
</svg>