<?xml version="1.0" encoding="UTF-8" standalone="no"?>
<svg width="251px" height="251px" viewBox="0 0 251 251" version="1.1" xmlns="http://www.w3.org/2000/svg" xmlns:xlink="http://www.w3.org/1999/xlink" xmlns:sketch="http://www.bohemiancoding.com/sketch/ns">
    <!-- Generator: Sketch 3.2.2 (9983) - http://www.bohemiancoding.com/sketch -->
    <title>Group</title>
    <desc>Created with Sketch.</desc>
    <defs></defs>
    <g id="Page-1" stroke="none" stroke-width="1" fill="none" fill-rule="evenodd" sketch:type="MSPage">
        <g id="Group" sketch:type="MSLayerGroup">
            <path d="M250.133152,125.415223 C250.133152,194.350006 194.25,250.230441 125.315217,250.230441 C56.3804348,250.230441 0.5,194.350006 0.5,125.415223 C0.5,56.4804409 56.3804348,0.600006104 125.315217,0.600006104 C194.25,0.600006104 250.133152,56.4804409 250.133152,125.415223" id="Fill-36" fill="#0A0B09" sketch:type="MSShapeGroup"></path>
            <path d="M207.872283,110.369565 C207.872283,155.766304 171.070652,192.567935 125.67663,192.567935 C80.2798913,192.567935 43.4782609,155.766304 43.4782609,110.369565 C43.4782609,64.9755435 80.2798913,28.173913 125.67663,28.173913 C171.070652,28.173913 207.872283,64.9755435 207.872283,110.369565" id="Fill-37" fill="#E7B640" sketch:type="MSShapeGroup"></path>
            <path d="M217.746219,160.127877 C215.284263,175.886029 205.428284,187.432225 195.729915,185.918638 C186.028828,184.405051 180.164697,170.399616 182.626654,154.644182 C185.08861,138.886029 194.944589,127.337116 204.642958,128.850703 C214.341328,130.36429 220.208176,144.367008 217.746219,160.127877" id="Fill-38" fill="#F4DAB9" sketch:type="MSShapeGroup"></path>
            <path d="M64.7170548,163.921468 C66.4235766,179.777447 60.6898809,193.402447 51.9072722,194.348099 C43.1246635,195.296468 34.6192287,183.204077 32.9099896,167.348099 C31.2007505,151.489403 36.9371635,137.864403 45.7224896,136.921468 C54.5023809,135.975816 63.0078157,148.06549 64.7170548,163.921468" id="Fill-39" fill="#F4DAB9" sketch:type="MSShapeGroup"></path>
            <path d="M75.5407609,55.3478261 L57.1766304,92.2418478 L54.3478261,228.220109 C74.5027174,242.184783 98.9646739,250.372283 125.339674,250.372283 C149.141304,250.372283 171.383152,243.706522 190.309783,232.146739 L199.057065,136.214674 L191.0625,75.7853261 L75.5407609,55.3478261" id="Fill-40" fill="#F4DAB9" sketch:type="MSShapeGroup"></path>
            <path d="M120.73913,139.586957 L135.315217,200.209239 L105.978261,203.714674 L120.73913,139.586957" id="Fill-41" fill="#BD837D" sketch:type="MSShapeGroup"></path>
            <path d="M92.0326087,53.8420516 C92.0326087,53.8420516 82.451087,57.7034647 105.959239,53.7442256 C140.108696,47.9942256 192.445652,76.0540082 192.445652,76.0540082 L185.336957,28.0703125 C185.336957,28.0703125 120.467391,6.74422556 73.3695652,49.3991169" id="Fill-42" fill="#E7B640" sketch:type="MSShapeGroup"></path>
            <path d="M111.627717,138.002717 C111.627717,151.570652 100.630435,162.567935 87.0652174,162.567935 C73.5,162.567935 62.5,151.570652 62.5,138.002717 C62.5,124.4375 73.5,113.442935 87.0652174,113.442935 C100.630435,113.442935 111.627717,124.4375 111.627717,138.002717 L111.627717,138.002717 Z M175.326087,134.258152 C175.326087,147.82337 164.328804,158.820652 150.763587,158.820652 C137.195652,158.820652 126.19837,147.82337 126.19837,134.258152 C126.19837,120.690217 137.195652,109.695652 150.763587,109.695652 C164.328804,109.695652 175.326087,120.690217 175.326087,134.258152 L175.326087,134.258152 Z M110.796196,135.092391 L124.116848,133.423913 L110.796196,135.092391 Z" id="Stroke-43" stroke="#1C5466" stroke-width="4.562" sketch:type="MSShapeGroup"></path>
            <path d="M84.2391304,207.752717 C84.2391304,207.752717 126,224.63587 158.307065,196.652174" id="Stroke-44" stroke="#BD837D" stroke-width="3.30800009" stroke-linecap="round" sketch:type="MSShapeGroup"></path>
            <path d="M106.070652,141.619565 C106.070652,146.146739 102.396739,149.817935 97.875,149.817935 C93.3451087,149.817935 89.673913,146.146739 89.673913,141.619565 L89.673913,136.915761 C89.673913,132.388587 93.3451087,128.717391 97.875,128.717391 C102.396739,128.717391 106.070652,132.388587 106.070652,136.915761 L106.070652,141.619565" id="Fill-45" fill="#2F312E" sketch:type="MSShapeGroup"></path>
            <path d="M171.290761,136.184783 C171.290761,140.711957 167.616848,144.380435 163.092391,144.380435 C158.559783,144.380435 154.891304,140.711957 154.891304,136.184783 L154.891304,131.483696 C154.891304,126.953804 158.559783,123.282609 163.092391,123.282609 C167.616848,123.282609 171.290761,126.953804 171.290761,131.483696 L171.290761,136.184783" id="Fill-46" fill="#2F312E" sketch:type="MSShapeGroup"></path>
        </g>
    </g>
</svg>