<?xml version="1.0" encoding="UTF-8" standalone="no"?>
<svg width="377px" height="377px" viewBox="0 0 377 377" version="1.1" xmlns="http://www.w3.org/2000/svg" xmlns:xlink="http://www.w3.org/1999/xlink" xmlns:sketch="http://www.bohemiancoding.com/sketch/ns">
    <!-- Generator: Sketch 3.2.2 (9983) - http://www.bohemiancoding.com/sketch -->
    <title>regular_ticket</title>
    <desc>Created with Sketch.</desc>
    <defs></defs>
    <g id="Page-1" stroke="none" stroke-width="1" fill="none" fill-rule="evenodd" sketch:type="MSPage">
        <g id="regular_ticket" sketch:type="MSLayerGroup">
            <path d="M376.82,188.41 C376.82,292.47 292.47,376.82 188.41,376.82 C84.36,376.82 0,292.47 0,188.41 C0,84.35 84.36,0 188.41,0 C292.47,0 376.82,84.35 376.82,188.41" id="Fill-203" fill="#BDC7B1" sketch:type="MSShapeGroup"></path>
            <path d="M238.07,311.57 L167,222.84 L254.93,167 L335.72,252.71 L238.07,311.57" id="Fill-204" fill="#2F312E" sketch:type="MSShapeGroup"></path>
            <path d="M239,184.51 L250.67,90 L366.23,172.7 L319.04,255.28 L239,184.51" id="Fill-205" fill="#2F312E" sketch:type="MSShapeGroup"></path>
            <path d="M260.49,110 L249,183.84 L316.13,243.53 L351.75,175.22 L260.49,110" id="Fill-206" fill="#FFFFFF" sketch:type="MSShapeGroup"></path>
            <path d="M279.71,151.922671 C279.84,151.542671 279.94,151.152671 280,150.742671 C280.06,150.332671 280.07,149.932671 280.04,149.552671 C280.01,149.182671 279.93,148.832671 279.79,148.512671 C279.66,148.192671 279.46,147.932671 279.21,147.742671 C278.95,147.542671 278.69,147.442671 278.43,147.442671 C278.17,147.432671 277.92,147.512671 277.68,147.662671 C277.44,147.812671 277.22,148.032671 277.01,148.322671 C276.81,148.612671 276.64,148.952671 276.5,149.342671 C276.36,149.712671 276.26,150.112671 276.2,150.532671 C276.13,150.952671 276.11,151.362671 276.13,151.762671 C276.16,152.162671 276.23,152.532671 276.36,152.862671 C276.49,153.202671 276.69,153.462671 276.95,153.662671 C277.21,153.852671 277.47,153.952671 277.74,153.942671 C278,153.932671 278.26,153.842671 278.5,153.682671 C278.75,153.502671 278.97,153.272671 279.18,152.962671 C279.39,152.662671 279.57,152.312671 279.71,151.922671 L279.71,151.922671 Z M283.52,154.362671 C283.23,155.162671 282.89,155.892671 282.5,156.552671 C282.12,157.212671 281.7,157.792671 281.24,158.282671 C280.79,158.772671 280.31,159.162671 279.8,159.472671 C279.29,159.782671 278.77,159.982671 278.24,160.082671 C277.71,160.172671 277.17,160.162671 276.64,160.032671 C276.1,159.902671 275.57,159.642671 275.06,159.252671 C274.56,158.872671 274.12,158.412671 273.74,157.872671 C273.36,157.332671 273.05,156.732671 272.78,156.062671 C272.52,155.402671 272.33,154.692671 272.2,153.932671 C272.06,153.172671 272,152.402671 272,151.592671 C272.01,150.792671 272.08,149.982671 272.22,149.162671 C272.35,148.352671 272.56,147.542671 272.85,146.762671 C273.12,145.992671 273.45,145.282671 273.84,144.632671 C274.22,143.982671 274.64,143.402671 275.09,142.922671 C275.55,142.432671 276.03,142.022671 276.54,141.712671 C277.04,141.392671 277.56,141.182671 278.09,141.072671 C278.62,140.972671 279.15,140.972671 279.68,141.092671 C280.2,141.202671 280.72,141.452671 281.21,141.832671 C282.02,142.432671 282.68,143.182671 283.19,144.082671 C283.71,144.972671 284.07,145.972671 284.27,147.062671 C284.48,148.152671 284.52,149.322671 284.4,150.562671 C284.28,151.802671 283.98,153.072671 283.52,154.362671 L283.52,154.362671 Z" id="Fill-207" fill="#E7B640" sketch:type="MSShapeGroup"></path>
            <path d="M291.46,156.32 C291.6,155.95 291.69,155.59 291.74,155.23 C291.78,154.87 291.79,154.54 291.74,154.22 C291.7,153.9 291.61,153.6 291.47,153.34 C291.33,153.07 291.13,152.84 290.89,152.65 C290.77,152.57 290.66,152.5 290.55,152.44 C290.44,152.38 290.32,152.34 290.21,152.31 L288.29,157.14 L288.49,157.29 C288.73,157.47 288.99,157.61 289.27,157.69 C289.55,157.78 289.83,157.8 290.1,157.74 C290.37,157.69 290.62,157.55 290.86,157.32 C291.1,157.1 291.3,156.77 291.46,156.32 L291.46,156.32 Z M295.34,158.7 C295.09,159.39 294.82,159.99 294.55,160.5 C294.27,161 293.97,161.43 293.64,161.77 C293.31,162.12 292.94,162.4 292.55,162.61 C292.15,162.81 291.7,162.96 291.21,163.05 L291.16,170.16 L287,168.52 L287.76,161.9 L286.71,161.18 L284.57,166.58 L281,163.89 C281.76,161.9 282.51,159.91 283.25,157.93 C284,155.95 284.75,153.97 285.51,151.98 C285.89,150.97 286.26,149.97 286.64,148.98 C287.01,147.99 287.39,147 287.79,146 C288.26,146.07 288.71,146.16 289.14,146.3 C289.57,146.43 289.99,146.6 290.4,146.8 C290.81,147 291.22,147.23 291.62,147.5 C292.02,147.76 292.43,148.05 292.84,148.35 C293.47,148.83 294.03,149.43 294.52,150.15 C295.01,150.87 295.38,151.69 295.63,152.58 C295.88,153.48 296,154.45 295.97,155.49 C295.95,156.53 295.74,157.6 295.34,158.7 L295.34,158.7 Z" id="Fill-208" fill="#E7B640" sketch:type="MSShapeGroup"></path>
            <path d="M301.47,167.75 C301.65,167.28 301.78,166.79 301.88,166.3 C301.97,165.8 301.99,165.33 301.96,164.87 C301.92,164.41 301.82,163.98 301.65,163.59 C301.48,163.2 301.23,162.87 300.9,162.6 L297.6,170.57 C297.96,170.74 298.33,170.79 298.7,170.73 C299.07,170.66 299.42,170.51 299.76,170.26 C300.1,170.02 300.41,169.69 300.69,169.29 C300.97,168.89 301.21,168.44 301.41,167.94 L301.47,167.75 L301.47,167.75 Z M305.18,169.47 C304.74,170.7 304.24,171.75 303.68,172.59 C303.12,173.43 302.52,174.11 301.89,174.61 C301.25,175.12 300.58,175.46 299.89,175.65 C299.2,175.84 298.49,175.89 297.78,175.8 C297.06,175.72 296.34,175.51 295.62,175.19 C294.89,174.86 294.18,174.44 293.49,173.91 C293.22,173.71 292.97,173.51 292.73,173.3 C292.49,173.09 292.25,172.87 292,172.63 L298.66,155 C299.38,155.15 300.08,155.41 300.78,155.76 C301.47,156.12 302.13,156.54 302.77,157.02 C303.56,157.62 304.22,158.35 304.75,159.23 C305.27,160.12 305.65,161.1 305.87,162.18 C306.09,163.25 306.15,164.41 306.05,165.65 C305.94,166.88 305.66,168.16 305.18,169.47 L305.18,169.47 Z" id="Fill-209" fill="#E7B640" sketch:type="MSShapeGroup"></path>
            <path d="M316.82,166.77 C316.48,167.58 316.16,168.38 315.84,169.17 C315.51,169.96 315.18,170.76 314.84,171.56 L311.21,169.19 L310.53,170.8 L313,172.67 L311.33,176.64 L308.8,174.9 L308.01,176.77 L310.07,178.32 L311.54,179.42 C311.15,180.37 310.77,181.31 310.39,182.24 C310,183.18 309.63,184.11 309.25,185.06 L302,179.93 L309.16,161 L316.82,166.77" id="Fill-210" fill="#E7B640" sketch:type="MSShapeGroup"></path>
            <path d="M320.46,178.33 C320.6,177.95 320.69,177.59 320.73,177.23 C320.78,176.88 320.79,176.54 320.74,176.22 C320.7,175.9 320.61,175.61 320.47,175.34 C320.33,175.07 320.13,174.84 319.89,174.65 C319.77,174.57 319.66,174.5 319.55,174.44 C319.44,174.39 319.32,174.34 319.21,174.31 L317.29,179.14 L317.49,179.29 C317.73,179.47 317.99,179.61 318.27,179.7 C318.55,179.78 318.83,179.8 319.1,179.75 C319.37,179.69 319.62,179.55 319.86,179.33 C320.1,179.1 320.3,178.77 320.46,178.33 L320.46,178.33 Z M324.34,180.7 C324.09,181.39 323.82,181.99 323.55,182.5 C323.27,183 322.97,183.43 322.64,183.78 C322.31,184.12 321.94,184.4 321.54,184.61 C321.15,184.81 320.7,184.96 320.21,185.05 L320.16,192.17 L316,190.52 L316.76,183.9 L315.71,183.18 L313.57,188.58 L310,185.9 C310.76,183.9 311.51,181.91 312.25,179.93 C313,177.95 313.75,175.97 314.51,173.98 C314.89,172.97 315.26,171.97 315.63,170.98 C316.01,169.99 316.39,169 316.79,168 C317.26,168.07 317.71,168.16 318.14,168.3 C318.58,168.43 319,168.6 319.4,168.8 C319.81,169 320.22,169.23 320.62,169.5 C321.02,169.76 321.43,170.05 321.84,170.36 C322.47,170.83 323.03,171.43 323.52,172.15 C324.01,172.87 324.38,173.69 324.63,174.59 C324.88,175.48 325,176.45 324.97,177.49 C324.95,178.53 324.73,179.6 324.34,180.7 L324.34,180.7 Z" id="Fill-211" fill="#E7B640" sketch:type="MSShapeGroup"></path>
            <path d="M272.42,161.8 L270.31,167.36 L267.77,165.65 L262.61,177.75 L259,175.4 L263.55,162.84 L261,161.19 L263.36,155 L272.42,161.8" id="Fill-212" fill="#E7B640" sketch:type="MSShapeGroup"></path>
            <path d="M278.04,165.96 L270.61,183.33 L267,180.99 L273.49,163 L278.04,165.96" id="Fill-213" fill="#E7B640" sketch:type="MSShapeGroup"></path>
            <path d="M287.090377,172.57 L284.610377,177.81 C284.480377,177.62 284.330377,177.45 284.180377,177.3 C284.030377,177.16 283.870377,177.02 283.710377,176.9 C283.300377,176.59 282.880377,176.39 282.450377,176.28 C282.020377,176.17 281.590377,176.19 281.180377,176.33 C280.770377,176.47 280.380377,176.74 280.020377,177.14 C279.660377,177.54 279.350377,178.1 279.090377,178.82 C278.930377,179.28 278.830377,179.71 278.800377,180.12 C278.770377,180.52 278.800377,180.9 278.890377,181.24 C278.970377,181.59 279.110377,181.9 279.300377,182.18 C279.490377,182.45 279.720377,182.7 279.990377,182.9 C280.190377,183.05 280.420377,183.18 280.660377,183.27 C280.910377,183.37 281.170377,183.44 281.420377,183.49 C281.680377,183.54 281.940377,183.56 282.200377,183.57 C282.460377,183.57 282.700377,183.56 282.930377,183.53 L280.350377,189.51 C280.070377,189.53 279.780377,189.51 279.480377,189.46 C279.180377,189.4 278.870377,189.33 278.570377,189.23 C278.270377,189.13 277.980377,189.01 277.690377,188.86 C277.410377,188.71 277.140377,188.55 276.900377,188.36 C276.190377,187.83 275.610377,187.13 275.150377,186.26 C274.700377,185.38 274.370377,184.42 274.190377,183.35 C274.000377,182.29 273.950377,181.17 274.050377,179.99 C274.150377,178.81 274.410377,177.65 274.820377,176.51 C275.360377,174.99 276.010377,173.67 276.770377,172.54 C277.520377,171.4 278.340377,170.53 279.230377,169.92 C280.120377,169.3 281.060377,169 282.050377,169 C283.040377,169 284.040377,169.39 285.050377,170.15 C285.430377,170.44 285.810377,170.78 286.170377,171.18 C286.540377,171.58 286.850377,172.04 287.090377,172.57" id="Fill-214" fill="#E7B640" sketch:type="MSShapeGroup"></path>
            <path d="M297.73,180.32 L290.54,186.14 L290.53,198.07 L286.28,196.25 L285.82,188.62 L283.53,194.51 L280,192.12 L287.59,172 L291.34,175.26 L288.88,181.03 L293.74,176.63 L297.73,180.32" id="Fill-215" fill="#E7B640" sketch:type="MSShapeGroup"></path>
            <path d="M305.82,185.77 C305.49,186.57 305.16,187.37 304.84,188.16 C304.52,188.96 304.19,189.75 303.84,190.55 L300.22,188.19 L299.53,189.8 L302,191.66 L300.34,195.64 L297.8,193.89 L297.02,195.76 L299.08,197.32 L300.54,198.42 C300.16,199.37 299.77,200.31 299.39,201.24 C299.01,202.17 298.63,203.11 298.25,204.05 L291,198.92 L298.16,180 L305.82,185.77" id="Fill-216" fill="#E7B640" sketch:type="MSShapeGroup"></path>
            <path d="M315.41,192.79 L313.3,198.35 L310.77,196.65 L305.6,208.74 L302,206.39 L306.55,193.83 L304,192.18 L306.35,186 L315.41,192.79" id="Fill-217" fill="#E7B640" sketch:type="MSShapeGroup"></path>
            <path d="M319.69,212.519635 C319.25,213.729635 318.74,214.689635 318.15,215.399635 C317.56,216.109635 316.93,216.589635 316.25,216.849635 C315.58,217.099635 314.88,217.149635 314.16,216.989635 C313.44,216.829635 312.73,216.489635 312.03,215.959635 C311.76,215.749635 311.48,215.469635 311.2,215.109635 C310.91,214.749635 310.64,214.359635 310.37,213.939635 C310.1,213.519635 309.85,213.089635 309.61,212.659635 C309.37,212.229635 309.17,211.839635 309,211.479635 L311.33,206.289635 C311.64,207.089635 312.04,207.829635 312.53,208.499635 C313.02,209.159635 313.54,209.709635 314.09,210.119635 C314.19,210.199635 314.32,210.289635 314.48,210.389635 C314.63,210.489635 314.79,210.559635 314.95,210.589635 C315.11,210.629635 315.26,210.619635 315.4,210.549635 C315.54,210.489635 315.66,210.339635 315.75,210.089635 C315.81,209.919635 315.83,209.749635 315.81,209.579635 C315.78,209.409635 315.73,209.249635 315.65,209.099635 C315.57,208.939635 315.48,208.799635 315.36,208.659635 C315.24,208.519635 315.12,208.389635 315,208.279635 C314.88,208.159635 314.76,208.059635 314.65,207.979635 C314.54,207.899635 314.45,207.829635 314.39,207.779635 C313.91,207.419635 313.52,206.959635 313.23,206.399635 C312.93,205.839635 312.73,205.219635 312.62,204.539635 C312.52,203.849635 312.5,203.129635 312.58,202.359635 C312.66,201.599635 312.84,200.829635 313.11,200.069635 C313.49,199.029635 313.95,198.189635 314.52,197.559635 C315.08,196.939635 315.68,196.499635 316.33,196.249635 C316.98,195.999635 317.65,195.939635 318.33,196.059635 C319.01,196.179635 319.65,196.469635 320.26,196.929635 C320.53,197.129635 320.81,197.359635 321.09,197.609635 C321.36,197.849635 321.63,198.129635 321.89,198.419635 C322.14,198.709635 322.38,199.019635 322.61,199.349635 C322.84,199.679635 323.04,200.029635 323.22,200.399635 L320.96,205.549635 C320.65,205.059635 320.32,204.589635 319.96,204.139635 C319.6,203.699635 319.22,203.319635 318.82,203.029635 C318.75,202.969635 318.66,202.909635 318.54,202.829635 C318.43,202.739635 318.3,202.669635 318.17,202.599635 C318.04,202.519635 317.9,202.459635 317.76,202.409635 C317.61,202.359635 317.48,202.329635 317.35,202.329635 C317.23,202.329635 317.11,202.369635 317,202.449635 C316.9,202.529635 316.82,202.649635 316.76,202.829635 C316.7,203.019635 316.69,203.219635 316.73,203.399635 C316.77,203.579635 316.85,203.759635 316.96,203.929635 C317.07,204.099635 317.21,204.259635 317.36,204.409635 C317.52,204.549635 317.67,204.689635 317.83,204.819635 C317.99,204.939635 318.14,205.059635 318.28,205.159635 C318.42,205.259635 318.53,205.349635 318.61,205.429635 C319.04,205.809635 319.38,206.259635 319.64,206.779635 C319.91,207.309635 320.08,207.869635 320.18,208.479635 C320.27,209.089635 320.28,209.739635 320.2,210.429635 C320.11,211.109635 319.95,211.809635 319.69,212.519635" id="Fill-218" fill="#E7B640" sketch:type="MSShapeGroup"></path>
            <path d="M224.09,221.82 L217.59,221 L171.08,254.11 L145.57,236.17 L136,253.71 C136,253.71 161.91,275.63 170.68,275.23 C179.45,274.84 227.68,228.99 227.68,228.99" id="Fill-219" fill="#F4DAB9" sketch:type="MSShapeGroup"></path>
            <path d="M150.95,282.31 L192.44,302.02 L229.74,271 L240.03,283 C240.03,283 197.54,331.84 188.55,328.59 C179.56,325.33 135,305.03 135,305.03" id="Fill-220" fill="#F4DAB9" sketch:type="MSShapeGroup"></path>
            <path d="M227,292.16124 L227.04,283.26124 C227.04,283.26124 226.26,246.76124 241.8,246.01124 C250.54,245.58124 239.65,257.63124 239.65,257.63124 C239.65,257.63124 274.91,253.29124 273.2,261.68124 C272.82,263.59124 267.25,264.35124 261.18,264.60124 C261.22,264.61124 261.25,264.63124 261.29,264.64124 C268.39,265.25124 275,266.78124 274.28,270.48124 C272.76,278.20124 252.67,272.20124 252.67,272.20124 C252.67,272.20124 273.12,278.96124 269.6,283.41124 C266.08,287.86124 251.56,278.79124 251.56,278.79124 C251.56,278.79124 261.42,284.90124 258.31,288.23124 C255.2,291.55124 248.15,286.45124 248.15,286.45124 L227,292.16124" id="Fill-221" fill="#F4DAB9" sketch:type="MSShapeGroup"></path>
            <path d="M217.78,221.035269 L214,225.665269 L219.67,228.175269 C219.67,228.175269 242.69,239.085269 247.6,229.405269 C250.36,223.965269 239.59,227.455269 239.59,227.455269 C239.59,227.455269 252.4,206.245269 246.58,204.945269 C245.25,204.645269 243.18,207.975269 241.29,211.765269 L241.29,211.685269 C242.93,206.995269 243.84,202.345269 241.28,201.745269 C235.93,200.515269 234.03,215.015269 234.03,215.015269 C234.03,215.015269 235.55,200.075269 231.71,201.045269 C227.87,202.015269 229.51,213.845269 229.51,213.845269 C229.51,213.845269 228.43,205.815269 225.43,206.855269 C222.42,207.885269 223.66,213.835269 223.66,213.835269 L217.78,221.035269" id="Fill-222" fill="#F4DAB9" sketch:type="MSShapeGroup"></path>
            <path d="M138.15,256.106718 L140.95,258.096718 L150.51,238.166718 C150.51,238.166718 113.44,212.256718 86.34,211.056718 C59.23,209.866718 51.66,227.796718 51.66,227.796718 L51.26,229.396718 C46.45,244.346718 41.65,280.376718 39,302.556718 C60.13,330.376718 88.81,352.136718 121.98,364.796718 L125.4,306.726718 L139.75,307.926718 L155.3,284.006718 L135.36,264.476718 L138.15,256.106718" id="Fill-223" fill="#1C5466" sketch:type="MSShapeGroup"></path>
            <path d="M158.051266,95.4382481 L223.421266,65.9182481 C223.421266,65.9182481 66.0212656,19.0582481 63.7312656,69.0882481 C61.4412656,119.108248 65.2612656,138.588248 65.2612656,138.588248 L158.051266,95.4382481" id="Fill-224" fill="#2F312E" sketch:type="MSShapeGroup"></path>
            <path d="M73.2593232,122.583985 C73.2593232,122.583985 47.2993232,107.313985 44.2393232,132.513985 C41.1893232,157.713985 68.2993232,164.203985 68.2993232,164.203985" id="Fill-225" fill="#BD837D" sketch:type="MSShapeGroup"></path>
            <path d="M171.76,170.88 C171.76,170.88 178.01,205.55 165.69,211.81 C153.37,218.07 111.62,200.12 111.62,200.12 L107.23,231.02 L64,217.24 L74.65,79 L163.61,80.46 L171.76,170.88" id="Fill-226" fill="#F4DAB9" sketch:type="MSShapeGroup"></path>
            <path d="M165,131.75 C165,144.87 172.01,155.5 180.66,155.5 C189.31,155.5 196.32,144.87 196.32,131.75 C196.32,118.63 189.31,108 180.66,108 C172.01,108 165,118.63 165,131.75 L165,131.75 Z" id="Stroke-227" stroke="#2F312E" stroke-width="6.301" sketch:type="MSShapeGroup"></path>
            <path d="M161.188364,136.05 C161.188364,136.05 191.808364,148.99 184.908364,161.73 C178.018364,174.47 157.158364,162.39 157.158364,162.39 C157.158364,162.39 147.408364,159.86 148.028364,154.85 C148.658364,149.84 152.468364,136 152.468364,136 L161.188364,136.05" id="Fill-228" fill="#BD837D" sketch:type="MSShapeGroup"></path>
            <path d="M117,137.92 C117,152.78 124.95,164.84 134.76,164.84 C144.56,164.84 152.51,152.78 152.51,137.92 C152.51,123.05 144.56,111 134.76,111 C124.95,111 117,123.05 117,137.92 L117,137.92 Z M164.679688,135.87793 C165.094747,132.497536 162.181635,134.691999 152.367,137.083723 L164.679688,135.87793 Z" id="Stroke-229" stroke="#2F312E" stroke-width="6.301" sketch:type="MSShapeGroup"></path>
            <path d="M179.778211,61.91 L201.548211,45.3 L151.718211,54.47 L165.468211,39 L128.798211,50.46 L130.518211,41.29 C130.518211,41.29 73.9382111,47.7 68.2082111,57.44 C62.4782111,67.18 176.918211,72.22 176.918211,72.22" id="Fill-230" fill="#2F312E" sketch:type="MSShapeGroup"></path>
            <path d="M188.03,135.68 C188.03,138.73 185.56,141.2 182.52,141.2 C179.47,141.2 177,138.73 177,135.68 L177,132.52 C177,129.48 179.47,127 182.52,127 C185.56,127 188.03,129.48 188.03,132.52 L188.03,135.68" id="Fill-231" fill="#2F312E" sketch:type="MSShapeGroup"></path>
            <path d="M146.48,142.39 C146.48,146.39 143.24,149.63 139.24,149.63 C135.24,149.63 132,146.39 132,142.39 L132,138.24 C132,134.24 135.24,131 139.24,131 C143.24,131 146.48,134.24 146.48,138.24 L146.48,142.39" id="Fill-232" fill="#2F312E" sketch:type="MSShapeGroup"></path>
            <path d="M114.8,133.31 L67,116" id="Stroke-233" stroke="#2F312E" stroke-width="6.301" sketch:type="MSShapeGroup"></path>
            <path d="M147,178 C147,178 153.83,185.97 163.51,185.4" id="Stroke-234" stroke="#2F312E" stroke-width="4.582" sketch:type="MSShapeGroup"></path>
            <path d="M59.04,247.05 L58.99,250.17 L57.35,249.15 L56.94,255.92 L54.62,254.51 L54.63,247.46 L53,246.47 L53.06,243 L59.04,247.05" id="Fill-235" fill="#BDC7B1" sketch:type="MSShapeGroup"></path>
            <path d="M65.56,261.78 L62.82,260.1 L62.8,256.64 L61.53,255.79 L61.46,259 L59,257.33 L59.21,247 L61.82,248.94 L61.66,254.17 L62.87,255 L62.88,249.26 L65.38,251.05 L65.56,261.78" id="Fill-236" fill="#BDC7B1" sketch:type="MSShapeGroup"></path>
            <path d="M68.91,253.77 L68.31,263.5 L66,262.09 L66,252 L68.91,253.77" id="Fill-237" fill="#BDC7B1" sketch:type="MSShapeGroup"></path>
            <path d="M75.75,264.434649 C75.75,265.114649 75.66,265.654649 75.49,266.044649 C75.32,266.434649 75.08,266.694649 74.78,266.824649 C74.48,266.954649 74.12,266.974649 73.72,266.864649 C73.31,266.764649 72.88,266.554649 72.42,266.234649 C72.24,266.114649 72.04,265.944649 71.83,265.734649 C71.61,265.524649 71.4,265.304649 71.18,265.054649 C70.96,264.804649 70.75,264.564649 70.54,264.314649 C70.34,264.064649 70.16,263.834649 70,263.624649 L70.24,260.724649 C70.56,261.194649 70.9,261.614649 71.28,262.004649 C71.66,262.394649 72.03,262.714649 72.39,262.954649 C72.46,263.004649 72.55,263.064649 72.65,263.124649 C72.74,263.174649 72.84,263.224649 72.93,263.244649 C73.02,263.264649 73.09,263.264649 73.16,263.234649 C73.22,263.194649 73.25,263.114649 73.25,262.974649 C73.25,262.884649 73.23,262.784649 73.18,262.684649 C73.14,262.594649 73.08,262.494649 73.01,262.404649 C72.94,262.324649 72.87,262.234649 72.78,262.154649 C72.69,262.074649 72.6,261.994649 72.52,261.924649 C72.44,261.864649 72.36,261.804649 72.28,261.754649 C72.21,261.704649 72.15,261.664649 72.11,261.634649 C71.79,261.424649 71.51,261.154649 71.25,260.824649 C70.99,260.504649 70.77,260.144649 70.59,259.754649 C70.4,259.364649 70.26,258.954649 70.16,258.514649 C70.05,258.084649 70,257.654649 70,257.224649 C70,256.644649 70.09,256.174649 70.26,255.824649 C70.44,255.484649 70.67,255.244649 70.96,255.114649 C71.25,254.994649 71.58,254.964649 71.96,255.044649 C72.34,255.134649 72.73,255.304649 73.13,255.584649 C73.31,255.704649 73.49,255.834649 73.68,255.984649 C73.87,256.134649 74.06,256.294649 74.25,256.464649 C74.44,256.634649 74.62,256.814649 74.8,257.004649 C74.98,257.194649 75.15,257.404649 75.31,257.614649 L75.1,260.494649 C74.85,260.214649 74.59,259.944649 74.32,259.674649 C74.05,259.414649 73.78,259.194649 73.52,259.024649 C73.48,258.984649 73.41,258.944649 73.34,258.904649 C73.26,258.854649 73.19,258.804649 73.1,258.764649 C73.02,258.714649 72.94,258.684649 72.85,258.644649 C72.77,258.614649 72.69,258.594649 72.63,258.594649 C72.56,258.594649 72.51,258.614649 72.47,258.654649 C72.43,258.694649 72.41,258.764649 72.42,258.864649 C72.42,258.974649 72.45,259.084649 72.51,259.194649 C72.56,259.294649 72.64,259.394649 72.73,259.494649 C72.82,259.594649 72.91,259.684649 73.02,259.774649 C73.13,259.864649 73.24,259.944649 73.34,260.014649 C73.45,260.094649 73.55,260.164649 73.64,260.224649 C73.73,260.284649 73.81,260.334649 73.86,260.384649 C74.16,260.604649 74.42,260.874649 74.65,261.174649 C74.89,261.474649 75.09,261.804649 75.25,262.154649 C75.41,262.494649 75.53,262.864649 75.62,263.254649 C75.71,263.644649 75.75,264.034649 75.75,264.434649" id="Fill-238" fill="#BDC7B1" sketch:type="MSShapeGroup"></path>
            <path d="M80.92,261.78 L80.31,271.51 L78,270.1 L78,260 L80.92,261.78" id="Fill-239" fill="#BDC7B1" sketch:type="MSShapeGroup"></path>
            <path d="M86.75,272.437378 C86.75,273.117378 86.66,273.647378 86.49,274.037378 C86.32,274.427378 86.08,274.687378 85.78,274.827378 C85.48,274.957378 85.12,274.967378 84.72,274.867378 C84.32,274.757378 83.88,274.547378 83.42,274.237378 C83.24,274.107378 83.04,273.947378 82.83,273.737378 C82.61,273.527378 82.4,273.297378 82.18,273.057378 C81.96,272.807378 81.75,272.557378 81.54,272.307378 C81.34,272.057378 81.16,271.837378 81,271.627378 L81.24,268.727378 C81.56,269.187378 81.9,269.617378 82.28,270.007378 C82.66,270.387378 83.03,270.707378 83.39,270.957378 C83.46,271.007378 83.55,271.057378 83.65,271.117378 C83.74,271.177378 83.84,271.217378 83.93,271.247378 C84.02,271.267378 84.09,271.257378 84.16,271.227378 C84.22,271.197378 84.25,271.107378 84.25,270.977378 C84.25,270.877378 84.23,270.787378 84.18,270.687378 C84.14,270.587378 84.08,270.497378 84.01,270.407378 C83.95,270.317378 83.87,270.227378 83.78,270.147378 C83.69,270.067378 83.61,269.997378 83.52,269.927378 C83.44,269.857378 83.36,269.797378 83.28,269.747378 C83.21,269.697378 83.15,269.667378 83.11,269.627378 C82.8,269.417378 82.51,269.147378 82.25,268.827378 C81.99,268.507378 81.77,268.147378 81.59,267.757378 C81.4,267.367378 81.26,266.947378 81.16,266.517378 C81.06,266.087378 81,265.647378 81,265.227378 C81,264.637378 81.09,264.167378 81.26,263.827378 C81.44,263.477378 81.67,263.247378 81.96,263.117378 C82.25,262.987378 82.58,262.967378 82.96,263.047378 C83.34,263.127378 83.73,263.307378 84.13,263.577378 C84.31,263.697378 84.49,263.837378 84.68,263.977378 C84.87,264.127378 85.06,264.287378 85.25,264.457378 C85.44,264.637378 85.62,264.817378 85.8,265.007378 C85.98,265.197378 86.15,265.397378 86.31,265.617378 L86.1,268.497378 C85.85,268.207378 85.59,267.937378 85.32,267.677378 C85.05,267.417378 84.78,267.197378 84.52,267.017378 C84.48,266.987378 84.42,266.947378 84.34,266.897378 C84.27,266.847378 84.19,266.807378 84.11,266.757378 C84.02,266.717378 83.94,266.677378 83.86,266.647378 C83.77,266.617378 83.7,266.597378 83.63,266.597378 C83.56,266.587378 83.51,266.617378 83.47,266.657378 C83.43,266.697378 83.41,266.767378 83.42,266.867378 C83.42,266.977378 83.45,267.087378 83.51,267.187378 C83.56,267.297378 83.64,267.397378 83.73,267.497378 C83.82,267.587378 83.91,267.687378 84.02,267.777378 C84.13,267.857378 84.24,267.947378 84.34,268.017378 C84.45,268.087378 84.55,268.157378 84.64,268.217378 C84.73,268.277378 84.81,268.337378 84.86,268.377378 C85.16,268.607378 85.42,268.867378 85.65,269.167378 C85.89,269.477378 86.09,269.797378 86.25,270.147378 C86.41,270.497378 86.54,270.867378 86.62,271.257378 C86.71,271.647378 86.75,272.037378 86.75,272.437378" id="Fill-240" fill="#BDC7B1" sketch:type="MSShapeGroup"></path>
            <path d="M64.19,264.19 L62.08,298.16 L54,293.25 L54,258 L64.19,264.19" id="Fill-241" fill="#BD837D" sketch:type="MSShapeGroup"></path>
            <path d="M86.1,279.13 L85.91,290.02 L80.2,286.45 L78.74,310.11 L70.66,305.19 L70.7,280.58 L65,277.12 L65.23,265 L86.1,279.13" id="Fill-242" fill="#BD837D" sketch:type="MSShapeGroup"></path>
        </g>
    </g>
</svg>