<?xml version="1.0" encoding="UTF-8" standalone="no"?>
<svg width="364px" height="627px" viewBox="0 0 364 627" version="1.1" xmlns="http://www.w3.org/2000/svg" xmlns:xlink="http://www.w3.org/1999/xlink" xmlns:sketch="http://www.bohemiancoding.com/sketch/ns">
    <!-- Generator: Sketch 3.2.2 (9983) - http://www.bohemiancoding.com/sketch -->
    <title>Group</title>
    <desc>Created with Sketch.</desc>
    <defs></defs>
    <g id="Page-1" stroke="none" stroke-width="1" fill="none" fill-rule="evenodd" sketch:type="MSPage">
        <g id="Group" sketch:type="MSLayerGroup">
            <path d="M363.037,597.553 C363.037,613.323 281.768,626.108 181.519,626.108 C81.269,626.108 0,613.323 0,597.553 C0,581.784 81.269,569 181.519,569 C281.768,569 363.037,581.784 363.037,597.553" id="Fill-1" fill="#BDC7B1" sketch:type="MSShapeGroup"></path>
            <path d="M201.90595,387 C201.90595,387 153.29995,438.818 172.48095,454.576 C191.66195,470.336 192.48395,466.668 192.48395,466.668" id="Fill-86" fill="#2F312E" sketch:type="MSShapeGroup"></path>
            <path d="M245.700914,591 L227.944914,592.558 C227.944914,592.558 224.924914,595.207 221.153914,596.192 C217.385914,597.18 208.117914,596.783 209.067914,599.548 C210.014914,602.316 229.459914,600.644 230.937914,600.588 C232.415914,600.532 237.255914,599.878 237.255914,599.878 L237.333914,600.563 L247.368914,600.294 C247.368914,600.294 247.739914,593.198 245.700914,591" id="Fill-87" fill="#2F312E" sketch:type="MSShapeGroup"></path>
            <path d="M279.703782,593.145 L265.151782,592 C265.151782,592 258.924782,597.35 255.155782,598.337 C251.385782,599.323 242.118782,598.926 243.067782,601.692 C244.015782,604.459 263.461782,602.788 264.940782,602.73 C266.418782,602.676 271.257782,602.02 271.257782,602.02 L271.335782,602.706 L281.370782,602.438 C281.370782,602.438 281.740782,595.342 279.703782,593.145" id="Fill-88" fill="#2F312E" sketch:type="MSShapeGroup"></path>
            <path d="M242.744,522.939 L262.463,594.114 L281.079,597.85 L289.596,478.332 L227.346,472 L192,486.244 L226.917,592.867 L246.712,593.752 L242.744,522.939" id="Fill-89" fill="#AA2F41" sketch:type="MSShapeGroup"></path>
            <path d="M294.38071,485.81702 C296.53071,468.42202 297.41771,434.45102 282.09271,391.48102 C259.51771,328.17502 202.16171,390.16602 202.16171,390.16602 C202.16171,390.16602 186.55171,429.99102 186.02671,460.06202 C185.79571,473.30102 187.09671,484.69602 188.62671,493.30702 L294.38071,485.81702" id="Fill-90" fill="#2F312E" sketch:type="MSShapeGroup"></path>
            <path d="M232.716,389.055 L219,458.691 L229.023,477.682 L245.377,457.636 L244.322,388 L232.716,389.055" id="Fill-91" fill="#E7B640" sketch:type="MSShapeGroup"></path>
            <path d="M200.617809,389.541775 L238.525809,394.279775 L281.543809,391.864775 C281.543809,391.864775 288.453809,279.927775 231.913809,286.258775 C175.372809,292.590775 200.617809,389.541775 200.617809,389.541775" id="Fill-92" fill="#F4DAB9" sketch:type="MSShapeGroup"></path>
            <path d="M288.353,338.715 C288.353,346.29 284.693,352.432 280.176,352.432 C275.66,352.432 272,346.29 272,338.715 C272,331.14 275.66,325 280.176,325 C284.693,325 288.353,331.14 288.353,338.715" id="Fill-93" fill="#F4DAB9" sketch:type="MSShapeGroup"></path>
            <path d="M253.958,301.713121 L184,299.355121 C184,299.355121 211.564,266.132121 268.892,284.575121" id="Fill-94" fill="#2F312E" sketch:type="MSShapeGroup"></path>
            <path d="M221.125,346.253 C221.125,347.904 219.787,349.244 218.135,349.244 L192.991,349.244 C191.339,349.244 190,347.904 190,346.253 L190,337.992 C190,336.34 191.339,335 192.991,335 L218.135,335 C219.787,335 221.125,336.34 221.125,337.992 L221.125,346.253 L221.125,346.253 Z" id="Stroke-95" stroke="#1C5466" stroke-width="3.165" sketch:type="MSShapeGroup"></path>
            <path d="M227.175233,338 C227.175233,338 202.731233,346.698 207.655233,359.102 C210.217233,365.552 234.485233,356.759 234.485233,356.759" id="Fill-96" fill="#BD837D" sketch:type="MSShapeGroup"></path>
            <path d="M260.681,349.557 C260.681,351.208 259.343,352.547 257.691,352.547 L232.546,352.547 C230.895,352.547 229.555,351.208 229.555,349.557 L229.555,341.294 C229.555,339.642 230.895,338.303 232.546,338.303 L257.691,338.303 C259.343,338.303 260.681,339.642 260.681,341.294 L260.681,349.557 L260.681,349.557 Z M221,338 L230.497,340.637 L221,338 Z" id="Stroke-97" stroke="#1C5466" stroke-width="3.165" sketch:type="MSShapeGroup"></path>
            <path d="M229,366.702501 C229,366.702501 252.488,352.928501 253.543,358.203501 C254.598,363.478501 238.42,372.624501 238.42,372.624501" id="Fill-98" fill="#AA2F41" sketch:type="MSShapeGroup"></path>
            <path d="M201,389 L220.403,413.02 L237.284,393.501 L201,389" id="Fill-99" fill="#BD837D" sketch:type="MSShapeGroup"></path>
            <path d="M237,393.11 L249.661,413.157 L282.369,391 L237,393.11" id="Fill-100" fill="#BD837D" sketch:type="MSShapeGroup"></path>
            <path d="M213.021,453.834656 L212.931,453.812656 C213.761,453.517656 214.429,452.899656 214.672,452.064656 C215.09,450.628656 214.102,449.120656 212.465,448.695656 L204.999,446.770656 C205.454,446.497656 205.81,446.116656 206.032,445.673656 L210.34,441.754656 C211.456,440.741656 211.541,439.008656 210.525,437.895656 C209.508,436.777656 207.778,436.695656 206.664,437.709656 L201.529,442.379656 L187.309,448.444656 C187.103,448.460656 186.911,448.501656 186.725,448.554656 L185,456.953656 L202.141,465.104656 L203.653,465.400656 C205.104,465.776656 206.625,464.914656 207.039,463.477656 C207.118,463.219656 207.137,462.958656 207.133,462.701656 L208.311,463.007656 C209.948,463.430656 211.614,462.607656 212.032,461.170656 C212.243,460.433656 212.085,459.680656 211.663,459.062656 C213.247,459.398656 214.824,458.593656 215.226,457.198656 C215.644,455.764656 214.656,454.256656 213.021,453.834656" id="Fill-101" fill="#F4DAB9" sketch:type="MSShapeGroup"></path>
            <path d="M263.155393,432 C263.155393,432 256.631393,479.579 257.016393,479.579 C261.237393,479.579 321.023393,486.726 321.023393,486.726 L329.922393,443.894 L263.155393,432" id="Fill-102" fill="#BDC7B1" sketch:type="MSShapeGroup"></path>
            <path d="M280.286927,488.484 C279.139927,489.447 277.397927,489.321 276.404927,488.202 C276.220927,487.999 276.094927,487.774 275.987927,487.542 L275.054927,488.321 C273.756927,489.407 271.899927,489.379 270.906927,488.259 C270.395927,487.688 270.216927,486.938 270.333927,486.199 C269.047927,487.183 267.277927,487.132 266.314927,486.047 C265.320927,484.933 265.566927,483.143 266.861927,482.06 L266.933927,482 C266.056927,482.093 265.189927,481.823 264.608927,481.171 C263.617927,480.056 263.861927,478.268 265.155927,477.179 L271.072927,472.236 C270.037927,472.137 269.162927,471.513 268.852927,470.521 C268.416927,469.078 269.330927,467.43 270.899927,466.837 L287.766927,466.151 C287.958927,466.077 288.150927,466.03 288.341927,466 L293.504927,472.845 L281.526927,487.566 L280.286927,488.484" id="Fill-103" fill="#E8D3B0" sketch:type="MSShapeGroup"></path>
            <path d="M281.812,395 C281.812,395 340.59,437.497 318.218,457.833 C309.778,465.505 291.359,475.864 291.359,475.864 L281,465.89 L294.044,447.088 L281.812,395" id="Fill-104" fill="#2F312E" sketch:type="MSShapeGroup"></path>
            <path d="M232,492.678 L235.627,477 L240.652,491.005 L232,492.678" id="Fill-105" fill="#AA2F41" sketch:type="MSShapeGroup"></path>
            <path d="M220.735,324.659 C220.735,327.346 218.555,329.526 215.868,329.526 C213.178,329.526 211,327.346 211,324.659 L211,321.865 C211,319.178 213.178,317 215.868,317 C218.555,317 220.735,319.178 220.735,321.865 L220.735,324.659" id="Fill-106" fill="#2F312E" sketch:type="MSShapeGroup"></path>
            <path d="M252.736,329.66 C252.736,332.348 250.556,334.526 247.869,334.526 C245.178,334.526 243,332.348 243,329.66 L243,326.866 C243,324.18 245.178,322 247.869,322 C250.556,322 252.736,324.18 252.736,326.866 L252.736,329.66" id="Fill-107" fill="#2F312E" sketch:type="MSShapeGroup"></path>
            <path d="M279.345,322.326 C279.345,304.718 272.687,290.311 264.261,289.129 C262.651,287.696 261.57,287 261.57,287 L259.872,289.739 C257.852,290.593 255.967,292.202 254.297,294.443 L256.03,295.932 L248,308.883 L264.022,303.861 L278.206,334.585 C278.938,330.79 279.345,326.658 279.345,322.326" id="Fill-108" fill="#2F312E" sketch:type="MSShapeGroup"></path>
            <path d="M178.076,360.819514 L178.757,360.019514 C179.706,358.910514 179.776,357.361514 178.917,356.560514 C178.478,356.145514 177.879,356.014514 177.271,356.127514 C178.137,355.032514 178.185,353.556514 177.352,352.777514 C176.497,351.974514 175.03,352.222514 174.084,353.331514 L174.03,353.392514 C174.149,352.656514 173.975,351.936514 173.476,351.468514 C172.619,350.669514 171.153,350.917514 170.203,352.021514 L165.882,357.081514 C165.854,356.218514 165.392,355.503514 164.602,355.267514 C163.451,354.936514 162.065,355.738514 161.503,357.064514 L160.089,371.164514 C160.018,371.328514 159.971,371.488514 159.937,371.647514 L159.944,371.653514 L146.824,405.565514 L127.069,386.232514 L113,391.858514 C113,391.858514 147.467,428.436514 151.688,422.809514 C155.714,417.441514 166.814,377.349514 167.83,373.663514 L177.813,365.445514 L178.624,364.386514 C179.463,363.407514 179.45,361.953514 178.592,361.151514 C178.437,361.002514 178.26,360.904514 178.076,360.819514" id="Fill-494" fill="#F4DAB9" sketch:type="MSShapeGroup"></path>
            <path d="M110.807769,596.245 C110.807769,596.245 112.207769,600.856 118.545769,603.571 C124.884769,606.287 130.315769,607.44 122.495769,607.852 C114.677769,608.263 103.071769,605.299 103.071769,605.299 L102.989769,607.192 L97.6387688,607.192 C97.6387688,607.192 94.1817688,601.266 97.3097688,596 L110.807769,596.245" id="Fill-495" fill="#AA2F41" sketch:type="MSShapeGroup"></path>
            <path d="M60.8087688,596.245 C60.8087688,596.245 62.2087688,600.856 68.5457688,603.571 C74.8827688,606.287 80.3157688,607.44 72.4977688,607.852 C64.6757688,608.263 53.0717688,605.299 53.0717688,605.299 L52.9897688,607.192 L47.6387688,607.192 C47.6387688,607.192 44.1817688,601.266 47.3097688,596 L60.8087688,596.245" id="Fill-496" fill="#AA2F41" sketch:type="MSShapeGroup"></path>
            <path d="M113.354,451.76 C113.354,451.76 115.358,450.307 114.937,499.717 C114.518,549.128 111.739,596.291 111.739,596.291 L96.915,597.271 L81,445" id="Fill-497" fill="#1C5466" sketch:type="MSShapeGroup"></path>
            <path d="M53.514,457.383 C53.514,457.383 51.372,450.031 48.997,499.45 C46.626,548.869 46,596.319 46,596.319 L63.546,597.155 L88.687,447" id="Fill-498" fill="#1C5466" sketch:type="MSShapeGroup"></path>
            <path d="M48,400.817 C48,400.817 52.213,383.044 54.707,374.07 C55.906,362.998 65.208,359 90.916,359 C102.575,359 120.188,368.099 123.98,373.115 L133.055,385.215 L121.206,401.034 L119.161,400.876 C119.99,402.571 120.464,404.487 120.464,406.526 C120.464,410.468 118.709,413.968 115.992,416.221 C115.856,416.827 115.71,417.453 115.54,418.132 C112.294,431.118 116.947,464.556 116.947,464.556 L51.53,459.633 C51.53,459.633 56.611,445.029 58.842,429.708 C60.157,420.687 58.439,414.403 59.608,402.681 L48,400.817" id="Fill-499" fill="#2F312E" sketch:type="MSShapeGroup"></path>
            <path d="M105.390701,431.078 L105.317701,431.046 C106.054701,430.932 106.682701,430.544 106.976701,429.923 C107.471701,428.863 106.785701,427.544 105.441701,426.981 L99.2957014,424.43 C100.109701,424.138 100.645701,423.478 100.625701,422.655 C100.587701,421.456 99.3957014,420.385 97.9617014,420.259 L84.4427014,423.189 L61.1617014,418.205 L63.1757014,400.621 L50.7887014,399 C50.7887014,399 42.0597014,427.839 55.4887014,429.949 C63.8677014,431.266 76.1667014,431.487 84.2337014,431.468 L95.0167014,438.358 L96.2737014,438.802 C97.4657014,439.301 98.8427014,438.84 99.3397014,437.776 C99.4347014,437.582 99.4757014,437.383 99.4987014,437.182 L100.468701,437.584 C101.816701,438.145 103.312701,437.734 103.809701,436.671 C104.068701,436.123 104.008701,435.515 103.713701,434.969 C105.021701,435.456 106.441701,435.047 106.925701,434.015 C107.424701,432.953 106.736701,431.634 105.390701,431.078" id="Fill-500" fill="#F4DAB9" sketch:type="MSShapeGroup"></path>
            <path d="M165,363.903 C165,365.556 166.34,366.895 167.991,366.895 L171.625,366.895 C173.275,366.895 174.616,365.556 174.616,363.903 L174.616,348.991 C174.616,347.339 173.275,346 171.625,346 L167.991,346 C166.34,346 165,347.339 165,348.991 L165,363.903" id="Fill-501" fill="#2F312E" sketch:type="MSShapeGroup"></path>
            <path d="M162.151628,357.663426 C161.526628,358.891426 162.957628,369.611426 164.185628,370.237426 L163.261628,368.943426 C164.489628,369.570426 165.844628,361.790426 166.470628,360.562426 L169.494628,354.631426 C170.120628,353.402426 169.631628,351.899426 168.403628,351.273426 C167.174628,350.646426 165.672628,351.134426 165.045628,352.362426 L162.151628,357.663426" id="Fill-502" fill="#F4DAB9" sketch:type="MSShapeGroup"></path>
            <path d="M69,312.616 L70.6,332.631 L73.402,333.032 L73.002,341.438 L79.808,343.441 L83.41,293" id="Fill-503" fill="#2F312E" sketch:type="MSShapeGroup"></path>
            <path d="M97,269.882171 C97,269.882171 98.601,264.278171 106.607,265.078171 C114.614,265.879171 124.622,269.883171 133.028,273.486171 C141.434,277.088171 145.838,287.897171 146.639,294.302171 C147.44,300.706171 141.836,323.125171 141.836,323.125171 L140.235,321.123171 L138.233,329.130171 L132.628,325.127171" id="Fill-504" fill="#2F312E" sketch:type="MSShapeGroup"></path>
            <path d="M140.376,298.457 C140.376,298.457 127.41,361.066 119.875,364.897 C112.341,368.728 103.326,364.757 103.326,364.757 L101.247,377.053 L77,365.732 L81.326,284.087 L124.499,276 L140.376,298.457" id="Fill-505" fill="#F4DAB9" sketch:type="MSShapeGroup"></path>
            <path d="M117.383,317 C117.383,317 121.664,330.294 124.478,333.384 C128.15,337.417 131.954,342.184 114,340.144" id="Fill-506" fill="#BD837D" sketch:type="MSShapeGroup"></path>
            <path d="M123,315.659 C123,318.346 125.179,320.524 127.866,320.524 C130.555,320.524 132.736,318.346 132.736,315.659 L132.736,312.866 C132.736,310.178 130.555,308 127.866,308 C125.179,308 123,310.178 123,312.866 L123,315.659" id="Fill-507" fill="#2F312E" sketch:type="MSShapeGroup"></path>
            <path d="M104,312.659 C104,315.347 106.179,317.526 108.866,317.526 C111.555,317.526 113.736,315.347 113.736,312.659 L113.736,309.866 C113.736,307.179 111.555,305 108.866,305 C106.179,305 104,307.179 104,309.866 L104,312.659" id="Fill-508" fill="#2F312E" sketch:type="MSShapeGroup"></path>
            <path d="M108.075715,346.586702 C107.519715,347.724702 110.085715,350.125702 113.806715,351.951702 C117.528715,353.780702 120.999715,354.338702 121.556715,353.204702 C122.114715,352.067702 119.548715,349.666702 115.825715,347.839702 C112.104715,346.011702 108.635715,345.452702 108.075715,346.586702" id="Fill-509" fill="#AA2F41" sketch:type="MSShapeGroup"></path>
            <path d="M110.076419,349.573184 C109.632419,350.481184 111.168419,352.150184 113.508419,353.299184 C115.850419,354.448184 118.110419,354.643184 118.555419,353.734184 C119.002419,352.824184 117.465419,351.157184 115.124419,350.007184 C112.782419,348.859184 110.523419,348.662184 110.076419,349.573184" id="Fill-510" fill="#AA2F41" sketch:type="MSShapeGroup"></path>
            <path d="M109,274 L125.982,274 C128.432,277.39 129.879,281.553 129.879,286.055 C129.879,292.813 126.628,298.812 121.604,302.572 C122.296,300.343 122.668,297.976 122.668,295.519 C122.668,286.004 117.077,277.798 109,274" id="Fill-511" fill="#2F312E" sketch:type="MSShapeGroup"></path>
            <path d="M117.54025,278.211687 L93.52125,305.032687 L91.92025,290.221687 L85.51425,321.045687 L81.51225,310.636687 L75.50725,323.847687 L73.90525,311.037687 L67.50125,330.653687 L66.30025,311.037687 C66.30025,311.037687 65.09925,295.825687 67.50125,283.416687 C69.90325,271.004687 81.91225,263.799687 99.52625,266.602687" id="Fill-512" fill="#2F312E" sketch:type="MSShapeGroup"></path>
            <path d="M87.811,318.01 C87.811,325.195 84.944,331.02 81.407,331.02 C77.869,331.02 75,325.195 75,318.01 C75,310.825 77.869,305 81.407,305 C84.944,305 87.811,310.825 87.811,318.01" id="Fill-513" fill="#F4DAB9" sketch:type="MSShapeGroup"></path>
            <path d="M83.604,327.801 C83.604,329.35 82.35,330.604 80.803,330.604 C79.254,330.604 78,329.35 78,327.801 C78,326.255 79.254,325 80.803,325 C82.35,325 83.604,326.255 83.604,327.801" id="Fill-514" fill="#AA2F41" sketch:type="MSShapeGroup"></path>
            <path d="M78,300.411 L82.003,315.623 L84.405,311.619 L88.809,320.827 L92.811,286" id="Fill-515" fill="#2F312E" sketch:type="MSShapeGroup"></path>
            <path d="M91.0510867,389.792337 C90.7420867,389.077337 90.0540867,388.554337 89.2230867,388.497337 C89.0740867,388.486337 88.9280867,388.492337 88.7870867,388.510337 C89.0790867,388.170337 89.2690867,387.737337 89.3010867,387.256337 C89.3260867,386.907337 89.2660867,386.572337 89.1390867,386.270337 C89.2160867,386.284337 89.2950867,386.295337 89.3750867,386.301337 C90.2060867,386.359337 90.9610867,385.935337 91.3650867,385.268337 C91.6740867,385.985337 92.3620867,386.507337 93.1940867,386.565337 C93.2010867,386.566337 93.2090867,386.566337 93.2150867,386.566337 C93.0510867,386.844337 92.9490867,387.164337 92.9240867,387.506337 C92.8920867,387.973337 93.0120867,388.415337 93.2400867,388.785337 C93.1750867,388.774337 93.1100867,388.766337 93.0410867,388.762337 C92.2090867,388.703337 91.4560867,389.125337 91.0510867,389.792337 L91.0510867,389.792337 Z M97.2220867,387.805337 C97.3030867,386.618337 96.4090867,385.588337 95.2220867,385.506337 L95.2000867,385.506337 C95.3640867,385.226337 95.4680867,384.910337 95.4920867,384.566337 C95.5740867,383.380337 94.6780867,382.350337 93.4920867,382.267337 C92.6600867,382.210337 91.9060867,382.634337 91.5020867,383.300337 C91.1920867,382.584337 90.5050867,382.061337 89.6740867,382.005337 C88.4860867,381.922337 87.4580867,382.817337 87.3760867,384.003337 C87.3520867,384.352337 87.4130867,384.686337 87.5390867,384.988337 C87.4620867,384.973337 87.3830867,384.964337 87.3030867,384.957337 C86.1160867,384.875337 85.0880867,385.771337 85.0050867,386.957337 C84.9240867,388.143337 85.8200867,389.172337 87.0050867,389.253337 C87.1530867,389.264337 87.2990867,389.259337 87.4410867,389.241337 C87.1480867,389.578337 86.9580867,390.015337 86.9260867,390.494337 C86.8430867,391.681337 87.7380867,392.710337 88.9240867,392.793337 C89.7560867,392.851337 90.5100867,392.427337 90.9160867,391.762337 C91.2240867,392.477337 91.9120867,393.000337 92.7440867,393.058337 C93.9290867,393.141337 94.9590867,392.244337 95.0420867,391.058337 C95.0740867,390.592337 94.9540867,390.149337 94.7250867,389.779337 C94.7900867,389.790337 94.8570867,389.798337 94.9240867,389.804337 C96.1110867,389.886337 97.1400867,388.990337 97.2220867,387.805337 L97.2220867,387.805337 Z" id="Fill-516" fill="#E7B640" sketch:type="MSShapeGroup"></path>
            <path d="M93.6400159,388.019775 C93.5320159,389.574775 92.1830159,390.747775 90.6280159,390.639775 C89.0720159,390.530775 87.8980159,389.183775 88.0070159,387.628775 C88.1140159,386.072775 89.4620159,384.899775 91.0190159,385.006775 C92.5740159,385.114775 93.7480159,386.462775 93.6400159,388.019775" id="Fill-517" fill="#BD837D" sketch:type="MSShapeGroup"></path>
            <path d="M81.0336286,385.022325 C81.6636286,385.067325 82.3026286,385.168325 82.9476286,385.326325 C83.4766286,385.453325 83.8496286,385.603325 84.0696286,385.777325 C84.2896286,385.950325 84.3896286,386.175325 84.3716286,386.450325 C84.3586286,386.625325 84.3066286,386.757325 84.2156286,386.851325 C84.1236286,386.944325 83.9336286,387.051325 83.6416286,387.173325 C83.3036286,387.319325 83.1026286,387.504325 83.0406286,387.727325 C82.9756286,387.953325 82.8706286,388.835325 82.7246286,390.375325 C82.6046286,391.863325 82.5266286,392.760325 82.4926286,393.056325 C82.4566286,393.353325 82.4026286,393.639325 82.3266286,393.917325 C82.1046286,394.729325 81.7326286,395.349325 81.2046286,395.781325 C80.7716286,396.136325 80.2316286,396.402325 79.5806286,396.577325 C78.9276286,396.752325 78.2516286,396.817325 77.5476286,396.768325 C76.9236286,396.724325 76.3016286,396.598325 75.6856286,396.392325 C75.0706286,396.185325 74.5416286,395.922325 74.0996286,395.604325 C73.7346286,395.341325 73.4516286,395.000325 73.2556286,394.581325 C73.0586286,394.164325 72.9746286,393.728325 73.0066286,393.272325 C73.0456286,392.709325 73.2556286,392.254325 73.6346286,391.912325 C74.0156286,391.567325 74.4736286,391.413325 75.0076286,391.449325 C75.5306286,391.487325 75.9636286,391.673325 76.3086286,392.007325 C76.6526286,392.348325 76.8086286,392.748325 76.7766286,393.210325 C76.7676286,393.328325 76.7216286,393.524325 76.6346286,393.796325 C76.6186286,393.851325 76.6106286,393.913325 76.6056286,393.979325 C76.5926286,394.161325 76.6466286,394.310325 76.7676286,394.432325 C76.8896286,394.553325 77.0586286,394.621325 77.2726286,394.635325 C77.6496286,394.662325 77.9646286,394.514325 78.2186286,394.192325 C78.4726286,393.872325 78.6186286,393.434325 78.6566286,392.883325 L78.7016286,392.114325 L78.8286286,390.044325 C78.8656286,388.786325 78.8776286,388.046325 78.8676286,387.821325 C78.8586286,387.598325 78.8076286,387.411325 78.7156286,387.263325 C78.6396286,387.145325 78.5696286,387.067325 78.5076286,387.027325 C78.4446286,386.991325 78.2726286,386.925325 77.9906286,386.831325 C77.8576286,386.793325 77.7486286,386.706325 77.6616286,386.572325 C77.5746286,386.434325 77.5366286,386.295325 77.5476286,386.146325 C77.5686286,385.842325 77.7036286,385.608325 77.9556286,385.440325 C78.2076286,385.276325 78.6086286,385.154325 79.1566286,385.080325 C79.7676286,384.998325 80.3926286,384.979325 81.0336286,385.022325" id="Fill-518" fill="#AA2F41" sketch:type="MSShapeGroup"></path>
            <path d="M87.4506997,393.865229 C87.2026997,393.848229 86.9816997,393.934229 86.7846997,394.125229 C86.5866997,394.314229 86.4786997,394.549229 86.4596997,394.833229 C86.4406997,395.102229 86.4906997,395.326229 86.6086997,395.499229 C86.7256997,395.674229 86.8916997,395.769229 87.1056997,395.785229 C87.5556997,395.815229 87.8076997,395.450229 87.8596997,394.691229 C87.8816997,394.383229 87.8636997,394.172229 87.8066997,394.060229 C87.7496997,393.948229 87.6306997,393.885229 87.4506997,393.865229 L87.4506997,393.865229 Z M88.3546997,389.016229 C89.3336997,389.085229 90.1476997,389.390229 90.7946997,389.934229 C91.1366997,390.222229 91.3676997,390.543229 91.4876997,390.894229 C91.6066997,391.244229 91.6456997,391.717229 91.6036997,392.314229 L91.5006997,393.570229 C91.4396997,394.443229 91.4636997,395.012229 91.5686997,395.280229 C91.6216997,395.408229 91.6756997,395.491229 91.7296997,395.528229 C91.7836997,395.567229 91.8996997,395.604229 92.0786997,395.646229 C92.2556997,395.686229 92.3376997,395.812229 92.3236997,396.020229 C92.3046997,396.289229 92.1776997,396.563229 91.9396997,396.839229 C91.7026997,397.118229 91.4056997,397.343229 91.0496997,397.516229 C90.6086997,397.735229 90.1596997,397.828229 89.6986997,397.796229 C89.1066997,397.754229 88.6536997,397.520229 88.3386997,397.091229 C88.2316997,396.937229 88.1266997,396.857229 88.0246997,396.849229 C87.9116997,396.842229 87.7596997,396.901229 87.5626997,397.029229 C86.9716997,397.400229 86.3176997,397.561229 85.6036997,397.511229 C84.8666997,397.460229 84.2806997,397.263229 83.8466997,396.916229 C83.5626997,396.688229 83.3446997,396.398229 83.1936997,396.051229 C83.0426997,395.704229 82.9796997,395.347229 83.0056997,394.982229 C83.0466997,394.397229 83.3186997,393.896229 83.8216997,393.479229 C84.6076997,392.821229 85.7366997,392.539229 87.2046997,392.636229 C87.5326997,392.659229 87.7396997,392.640229 87.8286997,392.581229 C87.9176997,392.521229 87.9706997,392.375229 87.9866997,392.139229 C88.0276997,391.543229 87.9956997,391.106229 87.8906997,390.830229 C87.7846997,390.554229 87.5926997,390.406229 87.3106997,390.385229 C87.1416997,390.375229 86.9886997,390.415229 86.8476997,390.507229 C86.7106997,390.600229 86.5326997,390.775229 86.3166997,391.030229 C85.7656997,391.711229 85.2166997,392.031229 84.6716997,391.993229 C84.3956997,391.975229 84.1766997,391.876229 84.0126997,391.701229 C83.8496997,391.526229 83.7766997,391.307229 83.7966997,391.042229 C83.8146997,390.772229 83.9416997,390.509229 84.1766997,390.254229 C84.4116997,389.998229 84.7226997,389.785229 85.1076997,389.607229 C86.1646997,389.136229 87.2466997,388.939229 88.3546997,389.016229 L88.3546997,389.016229 Z" id="Fill-519" fill="#AA2F41" sketch:type="MSShapeGroup"></path>
            <path d="M101.160946,392.054154 L98.6779459,396.155154 C98.2949459,396.791154 97.9759459,397.229154 97.7229459,397.467154 C97.4689459,397.706154 97.2049459,397.818154 96.9359459,397.799154 C96.6709459,397.781154 96.4639459,397.671154 96.3139459,397.467154 C95.9969459,397.062154 95.7259459,396.605154 95.5009459,396.105154 L93.4189459,391.388154 C93.3059459,391.131154 93.1949459,390.944154 93.0799459,390.825154 C92.9669459,390.708154 92.8049459,390.613154 92.5959459,390.543154 C92.1759459,390.389154 91.9779459,390.143154 92.0019459,389.805154 C92.0249459,389.463154 92.3079459,389.231154 92.8479459,389.109154 C93.3869459,388.988154 94.2279459,388.968154 95.3719459,389.047154 C96.3279459,389.113154 97.0279459,389.231154 97.4699459,389.400154 C97.9149459,389.569154 98.1269459,389.797154 98.1069459,390.085154 C98.0929459,390.288154 97.9719459,390.473154 97.7459459,390.646154 C97.6019459,390.760154 97.5089459,390.846154 97.4659459,390.906154 C97.4219459,390.965154 97.3959459,391.043154 97.3889459,391.138154 C97.3759459,391.329154 97.4769459,391.656154 97.6949459,392.117154 C97.9119459,392.567154 98.1269459,392.800154 98.3409459,392.816154 C98.4819459,392.825154 98.6009459,392.781154 98.6989459,392.678154 C98.7959459,392.579154 98.9789459,392.314154 99.2459459,391.886154 C99.4429459,391.572154 99.5469459,391.331154 99.5589459,391.162154 C99.5679459,391.026154 99.4889459,390.859154 99.3219459,390.661154 C99.1439459,390.445154 99.0629459,390.249154 99.0749459,390.076154 C99.0939459,389.805154 99.2849459,389.624154 99.6509459,389.530154 C100.016946,389.437154 100.606946,389.419154 101.423946,389.474154 C102.571946,389.554154 103.128946,389.842154 103.094946,390.337154 C103.074946,390.623154 102.854946,390.818154 102.434946,390.920154 C102.106946,390.998154 101.880946,391.092154 101.757946,391.202154 C101.635946,391.313154 101.433946,391.596154 101.160946,392.054154" id="Fill-520" fill="#AA2F41" sketch:type="MSShapeGroup"></path>
            <path d="M106.451327,394.864606 C106.203327,394.848606 105.980327,394.934606 105.784327,395.124606 C105.588327,395.314606 105.478327,395.550606 105.459327,395.831606 C105.441327,396.101606 105.490327,396.325606 105.609327,396.499606 C105.726327,396.674606 105.891327,396.768606 106.106327,396.784606 C106.556327,396.815606 106.807327,396.451606 106.860327,395.691606 C106.880327,395.382606 106.863327,395.171606 106.806327,395.059606 C106.749327,394.948606 106.630327,394.883606 106.451327,394.864606 L106.451327,394.864606 Z M107.356327,390.015606 C108.335327,390.083606 109.147327,390.390606 109.794327,390.932606 C110.135327,391.222606 110.366327,391.541606 110.487327,391.893606 C110.607327,392.243606 110.647327,392.716606 110.605327,393.314606 L110.501327,394.571606 C110.439327,395.442606 110.463327,396.013606 110.568327,396.280606 C110.622327,396.407606 110.675327,396.490606 110.728327,396.528606 C110.783327,396.567606 110.900327,396.605606 111.078327,396.645606 C111.256327,396.687606 111.337327,396.810606 111.322327,397.018606 C111.304327,397.288606 111.177327,397.562606 110.940327,397.841606 C110.702327,398.119606 110.405327,398.343606 110.048327,398.517606 C109.609327,398.735606 109.158327,398.827606 108.697327,398.796606 C108.106327,398.754606 107.653327,398.521606 107.338327,398.090606 C107.229327,397.936606 107.126327,397.856606 107.024327,397.849606 C106.911327,397.841606 106.758327,397.900606 106.563327,398.028606 C105.971327,398.401606 105.318327,398.562606 104.602327,398.511606 C103.865327,398.460606 103.280327,398.261606 102.845327,397.915606 C102.562327,397.687606 102.344327,397.397606 102.194327,397.051606 C102.043327,396.703606 101.980327,396.348606 102.005327,395.982606 C102.045327,395.397606 102.318327,394.896606 102.821327,394.478606 C103.609327,393.820606 104.736327,393.538606 106.205327,393.635606 C106.531327,393.658606 106.740327,393.640606 106.827327,393.581606 C106.918327,393.522606 106.969327,393.374606 106.985327,393.139606 C107.027327,392.541606 106.995327,392.104606 106.890327,391.830606 C106.785327,391.553606 106.591327,391.407606 106.311327,391.386606 C106.141327,391.373606 105.987327,391.415606 105.848327,391.507606 C105.709327,391.598606 105.532327,391.774606 105.315327,392.030606 C104.764327,392.709606 104.216327,393.030606 103.671327,392.993606 C103.395327,392.973606 103.176327,392.876606 103.011327,392.700606 C102.849327,392.526606 102.776327,392.307606 102.795327,392.041606 C102.814327,391.771606 102.941327,391.509606 103.177327,391.254606 C103.412327,390.999606 103.722327,390.783606 104.108327,390.607606 C105.164327,390.135606 106.246327,389.940606 107.356327,390.015606 L107.356327,390.015606 Z" id="Fill-521" fill="#AA2F41" sketch:type="MSShapeGroup"></path>
            <path d="M70.3373383,403.1 L70.3663383,402.686 C70.4013383,402.179 70.2783383,401.916 69.9963383,401.898 C69.7833383,401.882 69.5753383,401.984 69.3733383,402.202 L67.9623383,403.706 C67.5533383,404.148 67.3413383,404.47 67.3263383,404.673 C67.3173383,404.818 67.3893383,404.917 67.5443383,404.972 C67.6983383,405.025 68.0883383,405.082 68.7123383,405.14 L69.3773383,405.197 C69.6653383,405.216 69.8623383,405.197 69.9653383,405.14 C70.0733383,405.083 70.1413383,404.958 70.1713383,404.768 C70.2263383,404.46 70.2813383,403.905 70.3373383,403.1 L70.3373383,403.1 Z M74.1863383,398.964 L73.7813383,404.798 C73.7703383,404.972 73.7853383,405.093 73.8293383,405.161 C73.8733383,405.23 73.9583383,405.268 74.0883383,405.276 L74.4423383,405.302 C74.7073383,405.314 74.8343383,405.485 74.8233383,405.812 L74.7053383,407.525 C74.6843383,407.824 74.5203383,407.982 74.2133383,408 C74.0153383,408.008 73.8893383,408.036 73.8343383,408.083 C73.7813383,408.131 73.7463383,408.25 73.7323383,408.443 L73.6643383,409.438 C73.6623383,409.794 73.4853383,409.969 73.1363383,409.961 L70.2483383,409.76 C70.0463383,409.746 69.9173383,409.703 69.8593383,409.627 C69.8023383,409.552 69.7813383,409.401 69.7973383,409.169 L69.8583383,408.3 C69.8753383,408.064 69.8413383,407.895 69.7573383,407.797 C69.6733383,407.699 69.5203383,407.64 69.2933383,407.625 L66.0023383,407.397 C65.6083383,407.37 65.3353383,407.268 65.1883383,407.09 C65.0383383,406.912 64.9793383,406.622 65.0063383,406.216 C65.0443383,405.676 65.1383383,405.258 65.2893383,404.963 C65.4713383,404.599 65.9693383,403.993 66.7803383,403.15 L69.1033383,400.724 C70.2673383,399.509 71.1173383,398.743 71.6543383,398.425 C71.8973383,398.282 72.1863383,398.172 72.5213383,398.095 C72.8583383,398.015 73.1683383,397.985 73.4563383,398.007 C73.7383383,398.025 73.9353383,398.109 74.0493383,398.26 C74.1643383,398.408 74.2093383,398.643 74.1863383,398.964 L74.1863383,398.964 Z" id="Fill-522" fill="#AA2F41" sketch:type="MSShapeGroup"></path>
            <path d="M76.6531505,402.000735 C76.7931505,402.011735 76.9421505,402.029735 77.0981505,402.057735 C77.7741505,402.177735 78.2921505,402.251735 78.6521505,402.276735 C79.0181505,402.302735 79.2841505,402.305735 79.4481505,402.287735 C79.6421505,402.275735 79.7691505,402.269735 79.8311505,402.273735 C80.0061505,402.285735 80.0841505,402.420735 80.0651505,402.679735 C80.0491505,402.920735 79.9741505,403.227735 79.8421505,403.596735 C79.7091505,403.965735 79.5461505,404.318735 79.3531505,404.648735 C79.1991505,404.904735 79.0731505,405.075735 78.9731505,405.165735 C78.8741505,405.254735 78.7621505,405.293735 78.6381505,405.285735 C78.5321505,405.278735 78.3951505,405.254735 78.2271505,405.215735 C77.7321505,405.095735 77.1591505,405.013735 76.5071505,404.968735 C76.2311505,404.948735 75.9751505,404.943735 75.7441505,404.950735 C75.5561505,404.954735 75.4161505,404.951735 75.3191505,404.945735 C75.0901505,404.928735 74.9831505,404.787735 75.0021505,404.516735 C75.0141505,404.337735 75.1011505,404.038735 75.2631505,403.618735 C75.4261505,403.200735 75.5771505,402.879735 75.7151505,402.657735 C75.8871505,402.398735 76.0351505,402.221735 76.1641505,402.128735 C76.2921505,402.036735 76.4551505,401.993735 76.6531505,402.000735" id="Fill-523" fill="#AA2F41" sketch:type="MSShapeGroup"></path>
            <path d="M85.1873946,403.023633 L86.0403946,403.082633 C86.4003946,403.108633 86.5933946,402.953633 86.6143946,402.622633 C86.6363946,402.318633 86.5663946,402.064633 86.4063946,401.860633 C86.2443946,401.658633 86.0223946,401.546633 85.7413946,401.527633 C85.4253946,401.505633 85.1683946,401.612633 84.9733946,401.846633 C84.7873946,402.065633 84.6873946,402.292633 84.6713946,402.529633 C84.6593946,402.698633 84.6923946,402.820633 84.7673946,402.893633 C84.8453946,402.966633 84.9843946,403.009633 85.1873946,403.023633 L85.1873946,403.023633 Z M88.8263946,404.862633 L84.8583946,404.586633 C84.6843946,404.575633 84.5913946,404.644633 84.5813946,404.797633 C84.5563946,405.163633 84.7303946,405.522633 85.1043946,405.872633 C85.4783946,406.224633 85.8943946,406.413633 86.3503946,406.446633 C86.6203946,406.464633 86.9243946,406.434633 87.2593946,406.351633 C87.5963946,406.271633 87.8763946,406.163633 88.1003946,406.023633 C88.3023946,405.902633 88.4593946,405.846633 88.5713946,405.853633 C88.7173946,405.863633 88.8533946,405.963633 88.9823946,406.155633 C89.1113946,406.344633 89.1693946,406.534633 89.1553946,406.725633 C89.1273946,407.130633 88.8473946,407.504633 88.3143946,407.845633 C87.3723946,408.454633 86.3163946,408.718633 85.1463946,408.635633 C83.9643946,408.554633 82.9973946,408.142633 82.2463946,407.400633 C81.8813946,407.036633 81.5883946,406.605633 81.3693946,406.107633 C81.0803946,405.450633 80.9623946,404.769633 81.0103946,404.065633 C81.0753946,403.120633 81.4203946,402.290633 82.0483946,401.576633 C82.5893946,400.957633 83.2523946,400.514633 84.0403946,400.246633 C84.6323946,400.044633 85.2603946,399.965633 85.9313946,400.013633 C86.9993946,400.087633 87.8883946,400.454633 88.5953946,401.113633 C88.9513946,401.443633 89.2283946,401.824633 89.4313946,402.256633 C89.6623946,402.748633 89.7623946,403.220633 89.7323946,403.668633 C89.7063946,404.035633 89.6103946,404.330633 89.4413946,404.553633 C89.2733946,404.774633 89.0683946,404.878633 88.8263946,404.862633 L88.8263946,404.862633 Z" id="Fill-524" fill="#AA2F41" sketch:type="MSShapeGroup"></path>
            <path d="M98.1588109,404.052746 L95.6778109,408.156746 C95.2948109,408.790746 94.9758109,409.227746 94.7218109,409.467746 C94.4668109,409.707746 94.2058109,409.816746 93.9348109,409.797746 C93.6708109,409.779746 93.4638109,409.671746 93.3128109,409.468746 C92.9978109,409.061746 92.7258109,408.607746 92.5008109,408.104746 L90.4178109,403.388746 C90.3058109,403.132746 90.1928109,402.944746 90.0808109,402.826746 C89.9668109,402.706746 89.8048109,402.613746 89.5948109,402.542746 C89.1748109,402.390746 88.9788109,402.143746 89.0018109,401.806746 C89.0258109,401.462746 89.3078109,401.230746 89.8468109,401.110746 C90.3858109,400.988746 91.2278109,400.967746 92.3718109,401.046746 C93.3278109,401.113746 94.0278109,401.229746 94.4718109,401.399746 C94.9138109,401.570746 95.1278109,401.796746 95.1078109,402.085746 C95.0928109,402.286746 94.9718109,402.473746 94.7448109,402.645746 C94.6018109,402.758746 94.5078109,402.846746 94.4648109,402.904746 C94.4208109,402.964746 94.3948109,403.042746 94.3878109,403.137746 C94.3758109,403.329746 94.4768109,403.654746 94.6938109,404.117746 C94.9118109,404.567746 95.1278109,404.802746 95.3408109,404.816746 C95.4808109,404.825746 95.5998109,404.780746 95.6978109,404.679746 C95.7958109,404.578746 95.9778109,404.313746 96.2458109,403.886746 C96.4418109,403.571746 96.5458109,403.329746 96.5588109,403.161746 C96.5668109,403.027746 96.4898109,402.860746 96.3218109,402.661746 C96.1438109,402.445746 96.0628109,402.249746 96.0748109,402.075746 C96.0928109,401.806746 96.2848109,401.623746 96.6508109,401.530746 C97.0158109,401.437746 97.6078109,401.417746 98.4228109,401.475746 C99.5718109,401.554746 100.128811,401.841746 100.093811,402.339746 C100.073811,402.624746 99.8538109,402.817746 99.4338109,402.919746 C99.1078109,402.998746 98.8808109,403.092746 98.7568109,403.202746 C98.6338109,403.312746 98.4358109,403.597746 98.1588109,404.052746" id="Fill-525" fill="#AA2F41" sketch:type="MSShapeGroup"></path>
            <path d="M103.188338,405.024254 L104.042338,405.083254 C104.401338,405.107254 104.592338,404.954254 104.616338,404.621254 C104.635338,404.317254 104.567338,404.063254 104.406338,403.859254 C104.244338,403.658254 104.022338,403.545254 103.741338,403.526254 C103.427338,403.504254 103.170338,403.610254 102.973338,403.846254 C102.789338,404.065254 102.688338,404.292254 102.670338,404.528254 C102.659338,404.698254 102.692338,404.818254 102.769338,404.891254 C102.847338,404.966254 102.986338,405.009254 103.188338,405.024254 L103.188338,405.024254 Z M106.827338,406.862254 L102.859338,406.585254 C102.685338,406.574254 102.592338,406.644254 102.582338,406.795254 C102.557338,407.161254 102.730338,407.521254 103.105338,407.872254 C103.480338,408.223254 103.895338,408.414254 104.350338,408.444254 C104.621338,408.464254 104.925338,408.434254 105.261338,408.351254 C105.596338,408.271254 105.877338,408.161254 106.102338,408.024254 C106.302338,407.904254 106.459338,407.845254 106.573338,407.852254 C106.717338,407.864254 106.855338,407.962254 106.983338,408.154254 C107.112338,408.343254 107.169338,408.532254 107.155338,408.725254 C107.127338,409.131254 106.848338,409.504254 106.316338,409.845254 C105.374338,410.453254 104.317338,410.716254 103.147338,410.636254 C101.966338,410.553254 100.999338,410.141254 100.248338,409.400254 C99.8823384,409.035254 99.5893384,408.605254 99.3703384,408.108254 C99.0813384,407.449254 98.9623384,406.768254 99.0103384,406.065254 C99.0763384,405.119254 99.4213384,404.289254 100.049338,403.575254 C100.589338,402.956254 101.252338,402.513254 102.041338,402.247254 C102.631338,402.044254 103.262338,401.966254 103.931338,402.013254 C105.001338,402.086254 105.888338,402.453254 106.595338,403.113254 C106.951338,403.443254 107.230338,403.825254 107.432338,404.257254 C107.664338,404.748254 107.764338,405.219254 107.732338,405.668254 C107.706338,406.034254 107.611338,406.329254 107.442338,406.553254 C107.274338,406.775254 107.069338,406.879254 106.827338,406.862254 L106.827338,406.862254 Z" id="Fill-526" fill="#AA2F41" sketch:type="MSShapeGroup"></path>
            <path d="M112.613431,402.007913 C112.912431,402.028913 113.089431,402.082913 113.148431,402.173913 C113.208431,402.261913 113.247431,402.536913 113.265431,402.994913 C113.276431,403.244913 113.354431,403.373913 113.501431,403.384913 C113.614431,403.392913 113.726431,403.318913 113.840431,403.162913 C114.338431,402.489913 114.951431,402.179913 115.676431,402.229913 C116.188431,402.265913 116.597431,402.458913 116.900431,402.814913 C117.046431,402.989913 117.161431,403.206913 117.245431,403.471913 C117.328431,403.735913 117.361431,403.982913 117.345431,404.219913 C117.327431,404.484913 117.246431,404.751913 117.102431,405.020913 C116.960431,405.290913 116.783431,405.507913 116.574431,405.675913 C116.190431,405.994913 115.737431,406.135913 115.213431,406.099913 C114.926431,406.079913 114.690431,406.011913 114.501431,405.897913 C114.314431,405.783913 114.074431,405.559913 113.780431,405.228913 C113.670431,405.101913 113.564431,405.034913 113.463431,405.027913 C113.307431,405.016913 113.198431,405.099913 113.137431,405.273913 C113.078431,405.445913 113.026431,405.817913 112.987431,406.387913 C112.928431,407.235913 112.920431,407.817913 112.960431,408.132913 C112.987431,408.303913 113.033431,408.424913 113.101431,408.492913 C113.167431,408.562913 113.312431,408.639913 113.538431,408.724913 C114.034431,408.911913 114.269431,409.191913 114.244431,409.569913 C114.227431,409.799913 114.131431,409.994913 113.956431,410.155913 C113.781431,410.316913 113.556431,410.416913 113.283431,410.452913 C112.734431,410.528913 111.937431,410.528913 110.890431,410.456913 C109.894431,410.387913 109.144431,410.247913 108.637431,410.037913 C108.188431,409.847913 107.974431,409.559913 108.002431,409.171913 C108.022431,408.878913 108.209431,408.627913 108.562431,408.421913 C108.733431,408.325913 108.852431,408.234913 108.921431,408.153913 C108.989431,408.070913 109.039431,407.952913 109.073431,407.802913 C109.199431,407.298913 109.309431,406.352913 109.405431,404.967913 C109.422431,404.713913 109.407431,404.531913 109.359431,404.416913 C109.309431,404.303913 109.203431,404.207913 109.039431,404.127913 C108.650431,403.941913 108.467431,403.700913 108.487431,403.401913 C108.506431,403.131913 108.660431,402.909913 108.949431,402.733913 C109.238431,402.559913 109.713431,402.398913 110.373431,402.252913 C111.258431,402.053913 112.004431,401.972913 112.613431,402.007913" id="Fill-527" fill="#AA2F41" sketch:type="MSShapeGroup"></path>
            <path d="M343.815,237.045 L10.406,232.755 L9,6.861 L343.113,0 L343.815,237.045" id="Fill-528" fill="#BDC7B1" sketch:type="MSShapeGroup"></path>
            <path d="M67.96,111.329 L67.96,114.766 C67.96,115.901 67.901,117.047 67.784,118.202 C67.568,120.65 67.039,122.966 66.198,125.149 C65.356,127.332 64.215,129.247 62.776,130.891 C61.337,132.536 59.589,133.839 57.532,134.798 C55.476,135.757 53.116,136.237 50.454,136.237 C49.416,136.237 48.334,136.149 47.208,135.973 C46.082,135.796 44.966,135.532 43.86,135.18 C42.753,134.827 41.696,134.392 40.687,133.873 C39.678,133.354 38.782,132.752 38,132.066 L39.821,119.906 C40.976,121.022 42.259,121.928 43.669,122.623 C45.078,123.318 46.615,123.665 48.28,123.665 C49.357,123.665 50.267,123.509 51.012,123.196 C51.756,122.883 52.373,122.452 52.863,121.903 C53.352,121.355 53.739,120.713 54.023,119.98 C54.306,119.245 54.512,118.462 54.639,117.629 C54.766,116.797 54.845,115.94 54.874,115.059 C54.904,114.178 54.919,113.307 54.919,112.445 C54.919,109.331 54.761,106.233 54.448,103.148 C54.135,100.064 53.861,96.976 53.626,93.881 L67.079,93 C67.666,99.11 67.96,105.219 67.96,111.329" id="Fill-529" fill="#AA2F41" sketch:type="MSShapeGroup"></path>
            <path d="M89.089,119.79 L86.856,109.568 L84.683,119.79 L89.089,119.79 L89.089,119.79 Z M106.477,133.536 L91.908,135.416 L90.146,128.778 L83.449,128.778 L81.98,135.416 L67,133.948 L78.691,94.822 L95.022,94 L106.477,133.536 L106.477,133.536 Z" id="Fill-530" fill="#AA2F41" sketch:type="MSShapeGroup"></path>
            <path d="M140.537,94.882 L129.786,135.768 L115.218,136.591 L102,95.293 L115.923,94 L121.562,118.086 L127.026,94 L140.537,94.882" id="Fill-531" fill="#AA2F41" sketch:type="MSShapeGroup"></path>
            <path d="M158.088,119.79 L155.856,109.568 L153.683,119.79 L158.088,119.79 L158.088,119.79 Z M175.477,133.536 L160.908,135.416 L159.146,128.778 L152.449,128.778 L150.98,135.416 L136,133.948 L147.69,94.822 L164.022,94 L175.477,133.536 L175.477,133.536 Z" id="Fill-532" fill="#AA2F41" sketch:type="MSShapeGroup"></path>
            <path d="M204.022,103.574 L190.569,121.726 L203.552,121.726 L203.376,134.18 L177.175,135.238 L176,123.724 L191.333,103.75 L177.293,104.808 L177.175,93 L203.493,93 L204.022,103.574" id="Fill-533" fill="#AA2F41" sketch:type="MSShapeGroup"></path>
            <path d="M229.262,115.563 C229.262,114.721 229.139,113.903 228.895,113.11 C228.65,112.317 228.293,111.612 227.823,110.995 C227.353,110.378 226.77,109.879 226.075,109.497 C225.38,109.115 224.582,108.924 223.681,108.924 C222.76,108.924 221.938,109.091 221.214,109.424 C220.489,109.757 219.867,110.212 219.349,110.79 C218.83,111.367 218.433,112.043 218.159,112.817 C217.884,113.59 217.748,114.407 217.748,115.269 C217.748,116.091 217.865,116.914 218.1,117.736 C218.335,118.559 218.688,119.303 219.158,119.968 C219.628,120.634 220.21,121.173 220.906,121.584 C221.6,121.995 222.408,122.201 223.329,122.201 C224.249,122.201 225.076,122.02 225.811,121.657 C226.545,121.295 227.167,120.806 227.676,120.189 C228.185,119.572 228.576,118.862 228.851,118.059 C229.125,117.256 229.262,116.424 229.262,115.563 L229.262,115.563 Z M242.303,114.799 C242.303,116.581 242.098,118.299 241.687,119.954 C241.276,121.609 240.683,123.161 239.91,124.609 C239.136,126.059 238.196,127.385 237.09,128.589 C235.984,129.794 234.74,130.827 233.36,131.689 C231.979,132.55 230.476,133.221 228.851,133.7 C227.225,134.18 225.502,134.42 223.681,134.42 C221.919,134.42 220.239,134.195 218.644,133.745 C217.048,133.294 215.554,132.663 214.164,131.85 C212.774,131.038 211.516,130.058 210.39,128.913 C209.264,127.767 208.304,126.494 207.511,125.094 C206.719,123.694 206.101,122.192 205.661,120.585 C205.22,118.98 205,117.306 205,115.563 C205,113.859 205.206,112.19 205.617,110.555 C206.028,108.92 206.62,107.377 207.394,105.928 C208.167,104.48 209.102,103.148 210.199,101.934 C211.296,100.72 212.524,99.672 213.885,98.791 C215.246,97.91 216.72,97.224 218.306,96.734 C219.892,96.245 221.566,96 223.329,96 C226.168,96 228.758,96.441 231.098,97.322 C233.438,98.203 235.435,99.461 237.09,101.096 C238.744,102.732 240.027,104.709 240.938,107.03 C241.848,109.35 242.303,111.94 242.303,114.799 L242.303,114.799 Z" id="Fill-534" fill="#AA2F41" sketch:type="MSShapeGroup"></path>
            <path d="M285.242,93.705 L283.127,133.534 L267.735,134.944 L259.51,113.619 L258.218,135.355 L245,135.355 L246.058,93.705 L260.744,93 L270.907,114.148 L271.377,94.174 L285.242,93.705" id="Fill-535" fill="#AA2F41" sketch:type="MSShapeGroup"></path>
            <path d="M316.022,94 C315.905,95.842 315.797,97.662 315.699,99.464 C315.601,101.266 315.473,103.087 315.317,104.927 L302.863,105.573 L302.569,109.274 L311.323,109.274 L310.676,118.38 L301.864,118.674 L301.571,122.962 L314.025,122.962 C313.907,125.117 313.785,127.256 313.658,129.38 C313.53,131.505 313.417,133.634 313.32,135.769 L288,136.356 L288.94,94 L316.022,94" id="Fill-536" fill="#AA2F41" sketch:type="MSShapeGroup"></path>
            <path d="M140.785,157.331 C140.785,158.898 140.501,160.391 139.933,161.81 C139.365,163.23 138.616,164.562 137.687,165.805 C136.756,167.048 135.699,168.194 134.514,169.241 C133.329,170.289 132.13,171.235 130.916,172.076 L140.198,172.076 L139.493,184.295 L112,183.355 L112,172.664 C113.038,172.311 114.129,171.885 115.275,171.386 C116.42,170.886 117.546,170.314 118.653,169.668 C119.759,169.021 120.807,168.297 121.795,167.494 C122.784,166.691 123.656,165.815 124.41,164.865 C125.164,163.916 125.761,162.882 126.202,161.766 C126.642,160.65 126.862,159.446 126.862,158.153 C126.862,157.409 126.73,156.754 126.466,156.185 C126.202,155.618 125.834,155.143 125.364,154.761 C124.895,154.379 124.351,154.095 123.734,153.909 C123.117,153.723 122.457,153.63 121.751,153.63 C121.164,153.63 120.566,153.694 119.96,153.821 C119.353,153.948 118.755,154.129 118.168,154.365 C117.581,154.599 117.027,154.888 116.508,155.231 C115.989,155.573 115.524,155.961 115.113,156.391 L112.528,144.877 C113.252,144.153 114.085,143.546 115.025,143.056 C115.965,142.567 116.954,142.17 117.992,141.866 C119.029,141.563 120.087,141.343 121.164,141.205 C122.241,141.069 123.298,141 124.337,141 C126.647,141 128.801,141.416 130.798,142.248 C132.796,143.08 134.533,144.226 136.012,145.685 C137.49,147.144 138.656,148.871 139.507,150.869 C140.359,152.866 140.785,155.021 140.785,157.331" id="Fill-537" fill="#AA2F41" sketch:type="MSShapeGroup"></path>
            <path d="M167.968,165.088 C167.968,164.227 167.85,163.268 167.615,162.21 C167.38,161.152 167.018,160.164 166.528,159.243 C166.039,158.323 165.412,157.55 164.649,156.923 C163.885,156.296 162.974,155.983 161.917,155.983 C160.839,155.983 159.92,156.296 159.156,156.923 C158.392,157.55 157.76,158.323 157.261,159.243 C156.762,160.164 156.395,161.152 156.16,162.21 C155.925,163.268 155.807,164.227 155.807,165.088 C155.807,165.95 155.925,166.91 156.16,167.967 C156.395,169.024 156.762,170.014 157.261,170.934 C157.76,171.854 158.392,172.627 159.156,173.254 C159.92,173.881 160.839,174.194 161.917,174.194 C162.974,174.194 163.885,173.881 164.649,173.254 C165.412,172.627 166.039,171.854 166.528,170.934 C167.018,170.014 167.38,169.024 167.615,167.967 C167.85,166.91 167.968,165.95 167.968,165.088 L167.968,165.088 Z M180.363,164.207 C180.363,165.931 180.172,167.644 179.79,169.348 C179.408,171.051 178.855,172.686 178.13,174.253 C177.406,175.82 176.52,177.278 175.472,178.629 C174.425,179.98 173.225,181.155 171.874,182.154 C170.523,183.153 169.04,183.936 167.424,184.504 C165.809,185.072 164.071,185.356 162.211,185.356 C160.331,185.356 158.578,185.072 156.953,184.504 C155.327,183.936 153.844,183.153 152.503,182.154 C151.161,181.155 149.962,179.98 148.905,178.629 C147.847,177.278 146.956,175.82 146.232,174.253 C145.507,172.686 144.954,171.046 144.572,169.333 C144.191,167.62 144,165.911 144,164.207 C144,162.503 144.191,160.79 144.572,159.067 C144.954,157.344 145.507,155.699 146.232,154.132 C146.956,152.566 147.847,151.103 148.905,149.741 C149.962,148.38 151.161,147.2 152.503,146.202 C153.844,145.203 155.332,144.42 156.967,143.852 C158.602,143.284 160.35,143 162.211,143 C164.071,143 165.809,143.284 167.424,143.852 C169.04,144.42 170.523,145.203 171.874,146.202 C173.225,147.2 174.425,148.38 175.472,149.741 C176.52,151.103 177.406,152.566 178.13,154.132 C178.855,155.699 179.408,157.344 179.79,159.067 C180.172,160.79 180.363,162.503 180.363,164.207 L180.363,164.207 Z" id="Fill-538" fill="#AA2F41" sketch:type="MSShapeGroup"></path>
            <path d="M202.912,142.587 L201.208,184.355 L188.401,183.768 L189.107,155.981 L184.407,159.212 L180,149.166 L189.576,142 L202.912,142.587" id="Fill-539" fill="#AA2F41" sketch:type="MSShapeGroup"></path>
            <path d="M235.547,170.374 C235.547,172.92 235.092,175.133 234.182,177.013 C233.271,178.893 232.032,180.449 230.466,181.683 C228.899,182.917 227.059,183.837 224.944,184.444 C222.829,185.051 220.568,185.355 218.159,185.355 C217.003,185.355 215.868,185.271 214.752,185.105 C213.635,184.939 212.534,184.713 211.447,184.429 C210.36,184.146 209.283,183.817 208.216,183.445 C207.149,183.073 206.076,182.672 205,182.241 L206.116,170.55 C206.821,170.942 207.574,171.305 208.378,171.637 C209.18,171.971 210.008,172.254 210.86,172.489 C211.712,172.724 212.573,172.911 213.444,173.047 C214.316,173.185 215.163,173.253 215.985,173.253 C216.474,173.253 217.072,173.209 217.777,173.121 C218.482,173.033 219.157,172.866 219.804,172.621 C220.45,172.376 221.003,172.044 221.463,171.622 C221.923,171.202 222.154,170.649 222.154,169.963 C222.154,169.317 221.972,168.759 221.61,168.289 C221.248,167.819 220.777,167.433 220.2,167.128 C219.622,166.825 218.971,166.585 218.247,166.409 C217.522,166.233 216.793,166.096 216.059,165.997 C215.324,165.9 214.629,165.841 213.973,165.821 C213.317,165.802 212.774,165.792 212.343,165.792 C211.462,165.792 210.566,165.831 209.655,165.91 C208.745,165.988 207.859,166.144 206.997,166.379 L208.172,142.646 L231.964,142 L232.61,154.278 L217.865,153.456 L217.571,158.684 C218.452,158.469 219.334,158.307 220.215,158.199 C221.096,158.092 221.977,158.038 222.859,158.038 C224.64,158.038 226.3,158.327 227.837,158.904 C229.374,159.482 230.715,160.31 231.861,161.386 C233.007,162.463 233.907,163.761 234.564,165.278 C235.219,166.796 235.547,168.495 235.547,170.374" id="Fill-540" fill="#AA2F41" sketch:type="MSShapeGroup"></path>
            <path d="M251.454,180.947 C251.454,181.809 251.287,182.612 250.954,183.356 C250.621,184.1 250.176,184.751 249.618,185.309 C249.06,185.867 248.409,186.308 247.665,186.631 C246.92,186.954 246.127,187.116 245.286,187.116 C244.424,187.116 243.621,186.954 242.877,186.631 C242.133,186.308 241.482,185.867 240.924,185.309 C240.366,184.751 239.925,184.1 239.602,183.356 C239.279,182.612 239.117,181.809 239.117,180.947 C239.117,180.106 239.279,179.303 239.602,178.539 C239.925,177.775 240.366,177.114 240.924,176.556 C241.482,175.998 242.133,175.553 242.877,175.219 C243.621,174.887 244.424,174.72 245.286,174.72 C246.127,174.72 246.92,174.887 247.665,175.219 C248.409,175.553 249.06,175.998 249.618,176.556 C250.176,177.114 250.621,177.775 250.954,178.539 C251.287,179.303 251.454,180.106 251.454,180.947 L251.454,180.947 Z M253.392,141 L250.984,171.9 L240.116,171.9 L239,141 L253.392,141 L253.392,141 Z" id="Fill-541" fill="#AA2F41" sketch:type="MSShapeGroup"></path>
            <path d="M45.484,212.967 C45.493,212.45 45.439,211.952 45.319,211.473 C45.199,210.995 45.003,210.571 44.73,210.202 C44.457,209.834 44.11,209.537 43.689,209.312 C43.268,209.087 42.765,208.965 42.181,208.946 L41.607,217.85 C42.181,217.764 42.703,217.575 43.172,217.282 C43.641,216.991 44.046,216.631 44.385,216.205 C44.725,215.779 44.988,215.306 45.176,214.784 C45.362,214.262 45.465,213.723 45.484,213.168 L45.484,212.967 L45.484,212.967 Z M51.372,212.048 C51.372,213.388 51.2,214.597 50.855,215.674 C50.51,216.751 50.029,217.709 49.412,218.546 C48.795,219.384 48.06,220.105 47.208,220.708 C46.355,221.311 45.422,221.806 44.407,222.194 C43.392,222.582 42.313,222.869 41.169,223.056 C40.024,223.243 38.849,223.336 37.643,223.336 C37.193,223.336 36.752,223.324 36.321,223.3 C35.891,223.276 35.45,223.24 35,223.193 L35.403,203.919 C36.455,203.584 37.54,203.347 38.655,203.208 C39.771,203.069 40.879,203 41.98,203 C43.349,203 44.608,203.206 45.757,203.618 C46.906,204.029 47.897,204.623 48.73,205.398 C49.563,206.174 50.211,207.122 50.676,208.242 C51.14,209.362 51.372,210.631 51.372,212.048 L51.372,212.048 Z" id="Fill-542" fill="#1C5466" sketch:type="MSShapeGroup"></path>
            <path d="M66.701,202 C66.644,202.901 66.591,203.791 66.543,204.672 C66.496,205.553 66.433,206.443 66.357,207.343 L60.268,207.659 L60.124,209.469 L64.404,209.469 L64.087,213.921 L59.779,214.064 L59.636,216.161 L65.725,216.161 C65.668,217.214 65.607,218.26 65.545,219.299 C65.483,220.338 65.428,221.379 65.38,222.423 L53,222.71 L53.46,202 L66.701,202" id="Fill-543" fill="#1C5466" sketch:type="MSShapeGroup"></path>
            <path d="M76.8,214.61 L75.709,209.612 L74.645,214.61 L76.8,214.61 L76.8,214.61 Z M85.302,221.331 L78.178,222.25 L77.317,219.004 L74.042,219.004 L73.324,222.25 L66,221.532 L71.716,202.402 L79.701,202 L85.302,221.331 L85.302,221.331 Z" id="Fill-544" fill="#1C5466" sketch:type="MSShapeGroup"></path>
            <path d="M96.484,212.967 C96.493,212.45 96.438,211.952 96.319,211.473 C96.199,210.995 96.003,210.571 95.73,210.202 C95.457,209.834 95.11,209.537 94.689,209.312 C94.267,209.087 93.764,208.965 93.18,208.946 L92.606,217.85 C93.18,217.764 93.702,217.575 94.172,217.282 C94.64,216.991 95.045,216.631 95.385,216.205 C95.725,215.779 95.988,215.306 96.175,214.784 C96.362,214.262 96.465,213.723 96.484,213.168 L96.484,212.967 L96.484,212.967 Z M102.372,212.048 C102.372,213.388 102.2,214.597 101.855,215.674 C101.51,216.751 101.029,217.709 100.412,218.546 C99.794,219.384 99.059,220.105 98.207,220.708 C97.355,221.311 96.421,221.806 95.407,222.194 C94.392,222.582 93.312,222.869 92.168,223.056 C91.024,223.243 89.849,223.336 88.642,223.336 C88.192,223.336 87.752,223.324 87.321,223.3 C86.89,223.276 86.45,223.24 86,223.193 L86.402,203.919 C87.455,203.584 88.539,203.347 89.655,203.208 C90.77,203.069 91.878,203 92.98,203 C94.348,203 95.608,203.206 96.757,203.618 C97.906,204.029 98.896,204.623 99.729,205.398 C100.562,206.174 101.211,207.122 101.676,208.242 C102.14,209.362 102.372,210.631 102.372,212.048 L102.372,212.048 Z" id="Fill-545" fill="#1C5466" sketch:type="MSShapeGroup"></path>
            <path d="M115.695,214.61 L115.092,220.986 L103,221.934 C103.058,218.593 103.122,215.27 103.194,211.967 C103.266,208.664 103.354,205.342 103.459,202 L110.928,202 C110.707,204.097 110.496,206.192 110.295,208.284 C110.095,210.375 109.951,212.484 109.865,214.61 C110.314,214.629 110.76,214.639 111.2,214.639 L112.536,214.639 C113.072,214.639 113.599,214.634 114.116,214.624 C114.633,214.615 115.159,214.61 115.695,214.61" id="Fill-546" fill="#1C5466" sketch:type="MSShapeGroup"></path>
            <path d="M124.64,203 L123.06,222.56 L117,222.876 L117,203.402 L124.64,203" id="Fill-547" fill="#1C5466" sketch:type="MSShapeGroup"></path>
            <path d="M145.676,202.345 L144.642,221.819 L137.116,222.508 L133.095,212.081 L132.463,222.709 L126,222.709 L126.518,202.345 L133.698,202 L138.667,212.34 L138.897,202.574 L145.676,202.345" id="Fill-548" fill="#1C5466" sketch:type="MSShapeGroup"></path>
            <path d="M160.7,202 C160.643,202.901 160.59,203.791 160.543,204.672 C160.495,205.553 160.432,206.443 160.356,207.343 L154.267,207.659 L154.123,209.469 L158.403,209.469 L158.087,213.921 L153.779,214.064 L153.635,216.161 L159.724,216.161 C159.667,217.214 159.607,218.26 159.545,219.299 C159.482,220.338 159.427,221.379 159.38,222.423 L147,222.71 L147.459,202 L160.7,202" id="Fill-549" fill="#1C5466" sketch:type="MSShapeGroup"></path>
            <path d="M167.032,220.236 C167.032,220.658 166.95,221.05 166.788,221.414 C166.625,221.778 166.407,222.096 166.134,222.369 C165.861,222.642 165.543,222.857 165.179,223.015 C164.815,223.173 164.428,223.252 164.016,223.252 C163.595,223.252 163.202,223.173 162.838,223.015 C162.474,222.857 162.156,222.642 161.883,222.369 C161.61,222.096 161.395,221.778 161.237,221.414 C161.079,221.05 161,220.658 161,220.236 C161,219.825 161.079,219.432 161.237,219.058 C161.395,218.685 161.61,218.362 161.883,218.089 C162.156,217.816 162.474,217.599 162.838,217.436 C163.202,217.273 163.595,217.192 164.016,217.192 C164.428,217.192 164.815,217.273 165.179,217.436 C165.543,217.599 165.861,217.816 166.134,218.089 C166.407,218.362 166.625,218.685 166.788,219.058 C166.95,219.432 167.032,219.825 167.032,220.236 L167.032,220.236 Z M167.032,211.045 C167.032,211.466 166.95,211.859 166.788,212.223 C166.625,212.586 166.407,212.905 166.134,213.178 C165.861,213.451 165.543,213.666 165.179,213.824 C164.815,213.982 164.428,214.061 164.016,214.061 C163.595,214.061 163.202,213.982 162.838,213.824 C162.474,213.666 162.156,213.451 161.883,213.178 C161.61,212.905 161.395,212.586 161.237,212.223 C161.079,211.859 161,211.466 161,211.045 C161,210.633 161.079,210.241 161.237,209.867 C161.395,209.494 161.61,209.171 161.883,208.898 C162.156,208.625 162.474,208.407 162.838,208.245 C163.202,208.082 163.595,208 164.016,208 C164.428,208 164.815,208.082 165.179,208.245 C165.543,208.407 165.861,208.625 166.134,208.898 C166.407,209.171 166.625,209.494 166.788,209.867 C166.95,210.241 167.032,210.633 167.032,211.045 L167.032,211.045 Z" id="Fill-550" fill="#1C5466" sketch:type="MSShapeGroup"></path>
            <path d="M184.8,214.61 L183.709,209.612 L182.646,214.61 L184.8,214.61 L184.8,214.61 Z M193.302,221.331 L186.178,222.25 L185.317,219.004 L182.043,219.004 L181.324,222.25 L174,221.532 L179.716,202.402 L187.701,202 L193.302,221.331 L193.302,221.331 Z" id="Fill-551" fill="#1C5466" sketch:type="MSShapeGroup"></path>
            <path d="M204.311,209.726 C204.311,209.104 204.122,208.618 203.744,208.269 C203.366,207.919 202.875,207.744 202.272,207.744 C202.071,207.744 201.862,207.761 201.647,207.794 C201.432,207.828 201.228,207.869 201.037,207.917 L200.864,212.11 C200.999,212.13 201.127,212.139 201.252,212.139 L201.64,212.139 C201.985,212.139 202.317,212.082 202.638,211.967 C202.958,211.852 203.244,211.687 203.493,211.471 C203.741,211.256 203.94,211.002 204.088,210.71 C204.237,210.418 204.311,210.09 204.311,209.726 L204.311,209.726 Z M210.687,209.238 C210.687,210.167 210.549,210.99 210.271,211.708 C209.993,212.426 209.613,213.053 209.129,213.589 C208.646,214.126 208.079,214.581 207.428,214.954 C206.776,215.327 206.08,215.631 205.338,215.866 C204.596,216.101 203.828,216.273 203.033,216.383 C202.238,216.493 201.458,216.553 200.692,216.563 L200.692,223.255 L194,223.255 C194,221.063 194.004,218.88 194.014,216.706 C194.023,214.533 194.038,212.34 194.057,210.128 C194.076,208.96 194.081,207.792 194.071,206.624 C194.062,205.456 194.086,204.278 194.143,203.091 C195.369,202.728 196.594,202.455 197.82,202.272 C199.045,202.091 200.309,202 201.611,202 C202.348,202 203.085,202.06 203.823,202.179 C204.56,202.299 205.266,202.488 205.941,202.747 C206.616,203.005 207.243,203.328 207.823,203.716 C208.402,204.104 208.902,204.566 209.323,205.102 C209.745,205.638 210.077,206.249 210.321,206.933 C210.565,207.618 210.687,208.386 210.687,209.238 L210.687,209.238 Z" id="Fill-552" fill="#1C5466" sketch:type="MSShapeGroup"></path>
            <path d="M221.512,209.669 C221.512,209.267 221.457,208.899 221.347,208.563 C221.237,208.228 221.074,207.938 220.859,207.694 C220.643,207.45 220.375,207.259 220.054,207.12 C219.734,206.981 219.358,206.912 218.927,206.912 C218.736,206.912 218.549,206.923 218.367,206.947 C218.185,206.971 218.008,207.007 217.836,207.055 L217.606,212.397 L217.95,212.397 C218.362,212.397 218.781,212.345 219.207,212.24 C219.633,212.134 220.016,211.972 220.356,211.751 C220.696,211.531 220.974,211.249 221.189,210.904 C221.405,210.559 221.512,210.147 221.512,209.669 L221.512,209.669 Z M227.946,209.21 C227.946,209.956 227.882,210.633 227.752,211.241 C227.623,211.85 227.42,212.407 227.142,212.915 C226.864,213.422 226.505,213.891 226.065,214.322 C225.624,214.753 225.093,215.165 224.47,215.557 L227.889,221.647 L221.426,222.91 L219.215,216.792 L217.433,216.85 L217.175,222.824 L211,222.824 C211.048,220.641 211.093,218.468 211.136,216.304 C211.179,214.14 211.229,211.967 211.287,209.784 C211.306,208.683 211.325,207.591 211.344,206.509 C211.363,205.427 211.402,204.336 211.459,203.235 C212.129,202.986 212.79,202.78 213.441,202.617 C214.092,202.455 214.745,202.328 215.402,202.237 C216.057,202.146 216.723,202.084 217.398,202.05 C218.072,202.017 218.764,202 219.473,202 C220.564,202 221.62,202.15 222.639,202.452 C223.659,202.754 224.562,203.206 225.347,203.81 C226.132,204.413 226.762,205.164 227.235,206.064 C227.709,206.964 227.946,208.013 227.946,209.21 L227.946,209.21 Z" id="Fill-553" fill="#1C5466" sketch:type="MSShapeGroup"></path>
            <path d="M237.641,203 L236.061,222.56 L230,222.876 L230,203.402 L237.641,203" id="Fill-554" fill="#1C5466" sketch:type="MSShapeGroup"></path>
            <path d="M251.695,214.61 L251.092,220.986 L239,221.934 C239.058,218.593 239.122,215.27 239.194,211.967 C239.266,208.664 239.354,205.342 239.459,202 L246.928,202 C246.707,204.097 246.497,206.192 246.295,208.284 C246.095,210.375 245.951,212.484 245.865,214.61 C246.314,214.629 246.76,214.639 247.2,214.639 L248.536,214.639 C249.072,214.639 249.599,214.634 250.116,214.624 C250.633,214.615 251.159,214.61 251.695,214.61" id="Fill-555" fill="#1C5466" sketch:type="MSShapeGroup"></path>
            <path d="M272.075,208.985 C272.075,209.752 271.935,210.482 271.658,211.175 C271.38,211.87 271.014,212.521 270.56,213.129 C270.104,213.736 269.587,214.297 269.008,214.809 C268.429,215.321 267.843,215.783 267.249,216.195 L271.787,216.195 L271.442,222.169 L258,221.71 L258,216.482 C258.508,216.31 259.041,216.101 259.602,215.857 C260.162,215.613 260.712,215.333 261.253,215.017 C261.794,214.701 262.306,214.347 262.79,213.954 C263.273,213.562 263.699,213.133 264.068,212.669 C264.436,212.205 264.728,211.7 264.944,211.154 C265.16,210.608 265.267,210.019 265.267,209.387 C265.267,209.023 265.203,208.703 265.073,208.425 C264.944,208.148 264.765,207.915 264.535,207.729 C264.305,207.542 264.039,207.403 263.738,207.312 C263.436,207.221 263.113,207.176 262.768,207.176 C262.481,207.176 262.189,207.207 261.892,207.269 C261.595,207.332 261.303,207.42 261.016,207.535 C260.729,207.65 260.458,207.791 260.205,207.959 C259.951,208.126 259.724,208.315 259.522,208.525 L258.259,202.896 C258.613,202.542 259.02,202.245 259.479,202.006 C259.939,201.766 260.422,201.572 260.93,201.424 C261.437,201.275 261.955,201.168 262.481,201.101 C263.007,201.034 263.524,201 264.032,201 C265.162,201 266.215,201.204 267.191,201.61 C268.168,202.018 269.018,202.578 269.741,203.291 C270.463,204.004 271.033,204.849 271.45,205.826 C271.866,206.802 272.075,207.856 272.075,208.985" id="Fill-556" fill="#1C5466" sketch:type="MSShapeGroup"></path>
            <path d="M284.718,212.8 C284.718,212.379 284.661,211.91 284.546,211.392 C284.431,210.875 284.254,210.392 284.015,209.942 C283.776,209.492 283.469,209.114 283.096,208.808 C282.722,208.501 282.277,208.348 281.76,208.348 C281.233,208.348 280.783,208.501 280.41,208.808 C280.037,209.114 279.728,209.492 279.484,209.942 C279.24,210.392 279.06,210.875 278.945,211.392 C278.83,211.91 278.773,212.379 278.773,212.8 C278.773,213.221 278.83,213.69 278.945,214.207 C279.06,214.724 279.24,215.208 279.484,215.658 C279.728,216.108 280.037,216.486 280.41,216.792 C280.783,217.099 281.233,217.252 281.76,217.252 C282.277,217.252 282.722,217.099 283.096,216.792 C283.469,216.486 283.776,216.108 284.015,215.658 C284.254,215.208 284.431,214.724 284.546,214.207 C284.661,213.69 284.718,213.221 284.718,212.8 L284.718,212.8 Z M290.779,212.369 C290.779,213.211 290.686,214.049 290.499,214.882 C290.312,215.715 290.042,216.515 289.688,217.281 C289.333,218.047 288.9,218.76 288.388,219.42 C287.876,220.081 287.289,220.656 286.628,221.144 C285.968,221.632 285.243,222.015 284.453,222.293 C283.663,222.571 282.813,222.709 281.904,222.709 C280.984,222.709 280.127,222.571 279.333,222.293 C278.538,222.015 277.813,221.632 277.157,221.144 C276.502,220.656 275.915,220.081 275.398,219.42 C274.881,218.76 274.445,218.047 274.091,217.281 C273.737,216.515 273.466,215.713 273.279,214.875 C273.093,214.038 273,213.202 273,212.369 C273,211.536 273.093,210.698 273.279,209.856 C273.466,209.013 273.737,208.209 274.091,207.443 C274.445,206.677 274.881,205.961 275.398,205.296 C275.915,204.631 276.502,204.054 277.157,203.565 C277.813,203.077 278.541,202.694 279.34,202.416 C280.139,202.139 280.994,202 281.904,202 C282.813,202 283.663,202.139 284.453,202.416 C285.243,202.694 285.968,203.077 286.628,203.565 C287.289,204.054 287.876,204.631 288.388,205.296 C288.9,205.961 289.333,206.677 289.688,207.443 C290.042,208.209 290.312,209.013 290.499,209.856 C290.686,210.698 290.779,211.536 290.779,212.369 L290.779,212.369 Z" id="Fill-557" fill="#1C5466" sketch:type="MSShapeGroup"></path>
            <path d="M307.827,202 L307.683,208.089 L303.404,208.261 L302.312,221.876 L296.252,222.192 L296.28,208.577 L292,208.807 L292.173,202.029 L307.827,202" id="Fill-558" fill="#1C5466" sketch:type="MSShapeGroup"></path>
            <path d="M326.176,222.652 L318.995,222.997 L318.938,216.361 L315.635,216.361 L315.434,222.652 L309,222.652 L309.545,202.459 L316.381,202.775 L315.951,213.087 L319.139,213.087 L319.167,202 L325.716,202.172 L326.176,222.652" id="Fill-559" fill="#1C5466" sketch:type="MSShapeGroup"></path>
            <path d="M154.421,31.103 C154.421,30.736 154.345,30.423 154.193,30.163 C154.041,29.904 153.854,29.692 153.633,29.527 C153.411,29.363 153.17,29.242 152.911,29.166 C152.651,29.09 152.42,29.052 152.218,29.052 C151.964,29.052 151.717,29.09 151.477,29.166 C151.236,29.242 151.003,29.331 150.774,29.432 L150.661,33.648 C150.952,33.648 151.313,33.623 151.743,33.572 C152.173,33.522 152.588,33.411 152.987,33.24 C153.386,33.069 153.725,32.816 154.003,32.48 C154.281,32.145 154.421,31.686 154.421,31.103 L154.421,31.103 Z M151.724,37.295 C151.356,37.295 151.003,37.333 150.661,37.408 L150.584,41.739 C150.774,41.777 150.961,41.812 151.145,41.843 C151.328,41.875 151.509,41.891 151.686,41.891 C151.952,41.891 152.243,41.862 152.56,41.805 C152.876,41.748 153.174,41.634 153.452,41.463 C153.73,41.292 153.962,41.062 154.146,40.77 C154.329,40.479 154.421,40.093 154.421,39.612 C154.421,39.131 154.329,38.738 154.146,38.434 C153.962,38.13 153.737,37.893 153.471,37.722 C153.206,37.551 152.914,37.437 152.598,37.38 C152.281,37.323 151.99,37.295 151.724,37.295 L151.724,37.295 Z M164.069,41.929 C164.069,42.98 163.876,43.885 163.489,44.644 C163.103,45.404 162.587,46.05 161.941,46.582 C161.296,47.114 160.552,47.547 159.71,47.883 C158.868,48.218 157.991,48.481 157.08,48.671 C156.168,48.861 155.253,48.987 154.335,49.051 C153.417,49.114 152.56,49.145 151.762,49.145 C150.977,49.145 150.164,49.117 149.322,49.06 C148.48,49.003 147.641,48.905 146.805,48.766 C145.97,48.627 145.146,48.44 144.336,48.205 C143.526,47.971 142.76,47.677 142.038,47.323 L142,22.861 C142.709,22.57 143.462,22.307 144.26,22.073 C145.058,21.839 145.871,21.642 146.701,21.484 C147.53,21.326 148.356,21.206 149.179,21.123 C150.002,21.041 150.8,21 151.572,21 C152.471,21 153.379,21.057 154.297,21.171 C155.215,21.284 156.098,21.474 156.947,21.741 C157.795,22.006 158.586,22.351 159.321,22.776 C160.055,23.2 160.698,23.722 161.249,24.342 C161.799,24.963 162.23,25.684 162.54,26.507 C162.85,27.33 163.005,28.28 163.005,29.356 C163.005,30.065 162.904,30.73 162.701,31.35 C162.499,31.971 162.208,32.528 161.828,33.021 C161.448,33.515 160.985,33.936 160.441,34.284 C159.896,34.633 159.283,34.889 158.599,35.054 C159.422,35.269 160.172,35.585 160.85,36.003 C161.527,36.421 162.103,36.928 162.578,37.523 C163.053,38.118 163.42,38.789 163.679,39.536 C163.938,40.283 164.069,41.08 164.069,41.929 L164.069,41.929 Z" id="Fill-560" fill="#2F312E" sketch:type="MSShapeGroup"></path>
            <path d="M183.118,21 C183.043,22.19 182.973,23.367 182.91,24.532 C182.846,25.697 182.764,26.875 182.663,28.064 L174.61,28.482 L174.42,30.875 L180.08,30.875 L179.662,36.763 L173.964,36.953 L173.774,39.726 L181.827,39.726 C181.751,41.119 181.672,42.501 181.589,43.875 C181.507,45.249 181.434,46.626 181.371,48.006 L165,48.386 L165.608,21 L183.118,21" id="Fill-561" fill="#2F312E" sketch:type="MSShapeGroup"></path>
            <path d="M205.282,37.675 L203.838,31.066 L202.433,37.675 L205.282,37.675 L205.282,37.675 Z M216.525,46.563 L207.105,47.779 L205.966,43.487 L201.636,43.487 L200.686,47.779 L191,46.83 L198.559,21.532 L209.118,21 L216.525,46.563 L216.525,46.563 Z" id="Fill-562" fill="#2F312E" sketch:type="MSShapeGroup"></path>
            <path d="M94.903,71.042 C94.903,72.777 94.603,74.293 94.002,75.591 C93.4,76.888 92.577,77.968 91.532,78.829 C90.488,79.69 89.266,80.336 87.867,80.766 C86.468,81.196 84.964,81.412 83.357,81.412 C82.736,81.412 82.056,81.329 81.315,81.165 C80.574,81 79.824,80.794 79.065,80.548 C78.305,80.301 77.573,80.035 76.871,79.75 C76.168,79.465 75.545,79.196 75,78.943 L75.836,71.118 C76.912,71.764 78.106,72.255 79.416,72.59 C80.726,72.926 82.014,73.093 83.28,73.093 C83.521,73.093 83.813,73.084 84.154,73.065 C84.496,73.046 84.822,72.989 85.132,72.894 C85.443,72.799 85.705,72.656 85.92,72.467 C86.136,72.277 86.243,72.005 86.243,71.65 C86.243,71.409 86.168,71.203 86.015,71.032 C85.863,70.862 85.667,70.722 85.427,70.615 C85.186,70.508 84.914,70.425 84.61,70.368 C84.306,70.311 84.008,70.27 83.717,70.244 C83.426,70.219 83.154,70.206 82.901,70.206 L82.293,70.206 C81.204,70.206 80.214,70.016 79.321,69.637 C78.428,69.257 77.662,68.728 77.023,68.051 C76.383,67.374 75.886,66.57 75.532,65.639 C75.177,64.708 75,63.699 75,62.61 C75,61.116 75.301,59.777 75.902,58.593 C76.503,57.409 77.308,56.403 78.314,55.573 C79.321,54.744 80.476,54.108 81.78,53.665 C83.084,53.221 84.433,53 85.825,53 C86.446,53 87.085,53.022 87.744,53.066 C88.402,53.111 89.057,53.19 89.709,53.304 C90.361,53.418 90.998,53.563 91.618,53.74 C92.238,53.918 92.827,54.139 93.384,54.406 L92.663,62.116 C91.801,61.825 90.899,61.581 89.956,61.385 C89.013,61.189 88.092,61.091 87.193,61.091 C87.028,61.091 86.816,61.094 86.557,61.1 C86.297,61.107 86.025,61.125 85.74,61.157 C85.455,61.189 85.167,61.236 84.876,61.3 C84.585,61.363 84.325,61.448 84.097,61.556 C83.869,61.663 83.686,61.806 83.547,61.983 C83.407,62.16 83.344,62.369 83.357,62.61 C83.369,62.888 83.473,63.113 83.67,63.284 C83.866,63.455 84.119,63.588 84.43,63.683 C84.74,63.778 85.082,63.844 85.455,63.882 C85.828,63.92 86.199,63.943 86.566,63.948 C86.933,63.955 87.275,63.955 87.592,63.948 C87.908,63.943 88.168,63.952 88.37,63.977 C89.383,64.041 90.295,64.256 91.105,64.623 C91.915,64.99 92.602,65.477 93.166,66.085 C93.729,66.693 94.16,67.418 94.457,68.26 C94.754,69.102 94.903,70.03 94.903,71.042" id="Fill-563" fill="#2F312E" sketch:type="MSShapeGroup"></path>
            <path d="M110.636,63.217 C110.636,62.394 110.386,61.752 109.886,61.289 C109.386,60.828 108.737,60.597 107.939,60.597 C107.673,60.597 107.398,60.619 107.113,60.663 C106.829,60.707 106.559,60.761 106.306,60.824 L106.078,66.37 C106.255,66.395 106.426,66.408 106.591,66.408 L107.104,66.408 C107.56,66.408 107.999,66.332 108.424,66.18 C108.848,66.028 109.224,65.81 109.554,65.525 C109.883,65.24 110.145,64.905 110.342,64.519 C110.538,64.132 110.636,63.699 110.636,63.217 L110.636,63.217 Z M119.069,62.572 C119.069,63.8 118.885,64.889 118.518,65.838 C118.15,66.788 117.647,67.617 117.008,68.326 C116.369,69.036 115.618,69.637 114.757,70.13 C113.897,70.624 112.975,71.026 111.994,71.336 C111.013,71.647 109.997,71.874 108.946,72.02 C107.895,72.166 106.863,72.245 105.85,72.257 L105.85,81.108 L97,81.108 C97,78.208 97.006,75.322 97.019,72.447 C97.032,69.573 97.051,66.674 97.076,63.749 C97.102,62.205 97.107,60.66 97.095,59.115 C97.082,57.571 97.114,56.013 97.19,54.443 C98.811,53.962 100.431,53.602 102.052,53.361 C103.672,53.12 105.344,53 107.066,53 C108.04,53 109.016,53.079 109.991,53.237 C110.965,53.395 111.899,53.645 112.792,53.987 C113.685,54.329 114.514,54.756 115.28,55.269 C116.046,55.782 116.707,56.393 117.264,57.102 C117.821,57.811 118.261,58.619 118.584,59.523 C118.907,60.429 119.069,61.445 119.069,62.572 L119.069,62.572 Z" id="Fill-564" fill="#2F312E" sketch:type="MSShapeGroup"></path>
            <path d="M138.118,54 C138.042,55.19 137.972,56.367 137.909,57.532 C137.845,58.697 137.763,59.875 137.662,61.064 L129.609,61.482 L129.42,63.875 L135.079,63.875 L134.661,69.763 L128.964,69.953 L128.774,72.726 L136.827,72.726 C136.751,74.119 136.671,75.501 136.589,76.875 C136.507,78.249 136.434,79.626 136.371,81.006 L120,81.386 L120.608,54 L138.118,54" id="Fill-565" fill="#2F312E" sketch:type="MSShapeGroup"></path>
            <path d="M152.283,70.675 L150.839,64.066 L149.433,70.675 L152.283,70.675 L152.283,70.675 Z M163.525,79.563 L154.105,80.779 L152.966,76.487 L148.636,76.487 L147.686,80.779 L138,79.83 L145.559,54.532 L156.119,54 L163.525,79.563 L163.525,79.563 Z" id="Fill-566" fill="#2F312E" sketch:type="MSShapeGroup"></path>
            <path d="M188.234,53.759 L179.08,66.408 L186.791,79.854 L177.978,81.411 L172.205,73.207 L171.901,81.791 L164,82.095 L164.608,53 L173.458,53.494 L172.774,62.078 L178.662,53 L188.234,53.759" id="Fill-567" fill="#2F312E" sketch:type="MSShapeGroup"></path>
            <path d="M206.118,54 C206.042,55.19 205.972,56.367 205.909,57.532 C205.845,58.697 205.763,59.875 205.662,61.064 L197.61,61.482 L197.42,63.875 L203.079,63.875 L202.661,69.763 L196.964,69.953 L196.774,72.726 L204.827,72.726 C204.751,74.119 204.672,75.501 204.589,76.875 C204.507,78.249 204.434,79.626 204.371,81.006 L188,81.386 L188.608,54 L206.118,54" id="Fill-568" fill="#2F312E" sketch:type="MSShapeGroup"></path>
            <path d="M220.903,63.142 C220.903,62.61 220.829,62.123 220.684,61.679 C220.538,61.236 220.323,60.853 220.038,60.53 C219.754,60.207 219.399,59.954 218.975,59.77 C218.551,59.587 218.053,59.495 217.484,59.495 C217.231,59.495 216.984,59.511 216.743,59.542 C216.503,59.574 216.268,59.622 216.041,59.685 L215.737,66.75 L216.193,66.75 C216.737,66.75 217.291,66.681 217.854,66.541 C218.418,66.402 218.924,66.186 219.374,65.895 C219.823,65.604 220.19,65.23 220.475,64.775 C220.76,64.319 220.903,63.775 220.903,63.142 L220.903,63.142 Z M229.411,62.534 C229.411,63.521 229.325,64.417 229.155,65.221 C228.984,66.025 228.714,66.763 228.347,67.434 C227.98,68.105 227.505,68.725 226.923,69.295 C226.341,69.865 225.637,70.409 224.815,70.928 L229.335,78.98 L220.788,80.652 L217.864,72.561 L215.509,72.637 L215.167,80.538 L207,80.538 C207.064,77.651 207.124,74.777 207.181,71.915 C207.238,69.054 207.304,66.18 207.38,63.293 C207.405,61.837 207.431,60.394 207.456,58.963 C207.482,57.533 207.533,56.089 207.608,54.633 C208.494,54.304 209.368,54.032 210.229,53.816 C211.09,53.602 211.954,53.434 212.822,53.313 C213.689,53.193 214.569,53.111 215.461,53.066 C216.354,53.022 217.268,53 218.206,53 C219.649,53 221.045,53.199 222.393,53.598 C223.742,53.997 224.935,54.595 225.973,55.393 C227.012,56.19 227.844,57.185 228.47,58.374 C229.097,59.565 229.411,60.951 229.411,62.534 L229.411,62.534 Z" id="Fill-569" fill="#2F312E" sketch:type="MSShapeGroup"></path>
            <path d="M252.282,70.675 L250.838,64.066 L249.433,70.675 L252.282,70.675 L252.282,70.675 Z M263.525,79.563 L254.105,80.779 L252.966,76.487 L248.635,76.487 L247.686,80.779 L238,79.83 L245.559,54.532 L256.118,54 L263.525,79.563 L263.525,79.563 Z" id="Fill-570" fill="#2F312E" sketch:type="MSShapeGroup"></path>
            <path d="M281.929,54 L281.739,62.052 L276.079,62.28 L274.636,80.284 L266.621,80.702 L266.659,62.698 L261,63.001 L261.228,54.038 L281.929,54" id="Fill-571" fill="#2F312E" sketch:type="MSShapeGroup"></path>
        </g>
    </g>
</svg>