<?xml version="1.0" encoding="UTF-8" standalone="no"?>
<svg width="377px" height="460px" viewBox="0 0 377 460" version="1.1" xmlns="http://www.w3.org/2000/svg" xmlns:xlink="http://www.w3.org/1999/xlink" xmlns:sketch="http://www.bohemiancoding.com/sketch/ns">
    <!-- Generator: Sketch 3.2.2 (9983) - http://www.bohemiancoding.com/sketch -->
    <title>talk</title>
    <desc>Created with Sketch.</desc>
    <defs></defs>
    <g id="Page-1" stroke="none" stroke-width="1" fill="none" fill-rule="evenodd" sketch:type="MSPage">
        <g id="talk" sketch:type="MSLayerGroup">
            <path d="M188.408,376.824 C84.358,376.824 0,292.464 0,188.414 C0,84.355 84.358,0 188.408,0 C292.468,0 376.818,84.355 376.818,188.414 C376.818,292.464 292.468,376.824 188.408,376.824 Z" id="Fill-4" fill="#E7B640" sketch:type="MSShapeGroup"></path>
            <path d="M155.904417,243 C155.904417,243 107.294417,294.82 126.484417,310.58 C145.664417,326.34 146.484417,322.67 146.484417,322.67" id="Fill-109" fill="#2F312E" sketch:type="MSShapeGroup"></path>
            <path d="M199.7079,447 L181.9479,448.56 C181.9479,448.56 178.9279,451.21 175.1579,452.19 C171.3879,453.18 162.1179,452.78 163.0679,455.55 C164.0179,458.32 183.4679,456.64 184.9379,456.59 C186.4179,456.53 191.2579,455.88 191.2579,455.88 L191.3379,456.56 L201.3679,456.29 C201.3679,456.29 201.7379,449.2 199.7079,447" id="Fill-110" fill="#2F312E" sketch:type="MSShapeGroup"></path>
            <path d="M233.7079,449.15 L219.1579,448 C219.1579,448 212.9279,453.35 209.1579,454.34 C205.3879,455.32 196.1179,454.93 197.0679,457.69 C198.0179,460.46 217.4679,458.79 218.9479,458.73 C220.4179,458.68 225.2579,458.02 225.2579,458.02 L225.3379,458.71 L235.3679,458.44 C235.3679,458.44 235.7379,451.34 233.7079,449.15" id="Fill-111" fill="#2F312E" sketch:type="MSShapeGroup"></path>
            <path d="M196.75,378.94 L216.47,450.11 L235.08,453.85 L243.6,334.33 L181.35,328 L146,342.24 L180.92,448.87 L200.71,449.75 L196.75,378.94" id="Fill-112" fill="#AA2F41" sketch:type="MSShapeGroup"></path>
            <path d="M247.386512,341.817026 C249.536512,324.427026 250.416512,290.447026 235.096512,247.477026 C212.516512,184.177026 155.166512,246.167026 155.166512,246.167026 C155.166512,246.167026 139.556512,285.987026 139.026512,316.067026 C138.796512,329.297026 140.096512,340.697026 141.626512,349.307026 L247.386512,341.817026" id="Fill-113" fill="#2F312E" sketch:type="MSShapeGroup"></path>
            <path d="M185.72,245.05 L172,314.69 L182.02,333.68 L198.38,313.63 L197.32,244 L185.72,245.05" id="Fill-114" fill="#E7B640" sketch:type="MSShapeGroup"></path>
            <path d="M154.620202,245.543855 L192.530202,250.273855 L235.540202,247.863855 C235.540202,247.863855 242.450202,135.926855 185.910202,142.258855 C129.370202,148.588855 154.620202,245.543855 154.620202,245.543855" id="Fill-115" fill="#F4DAB9" sketch:type="MSShapeGroup"></path>
            <path d="M242.35,194.72 C242.35,202.29 238.69,208.43 234.18,208.43 C229.66,208.43 226,202.29 226,194.72 C226,187.14 229.66,181 234.18,181 C238.69,181 242.35,187.14 242.35,194.72" id="Fill-116" fill="#F4DAB9" sketch:type="MSShapeGroup"></path>
            <path d="M206.96,157.713041 L137,155.355041 C137,155.355041 164.57,122.131041 221.89,140.576041" id="Fill-117" fill="#2F312E" sketch:type="MSShapeGroup"></path>
            <path d="M175.13,202.25 C175.13,203.91 173.79,205.24 172.14,205.24 L146.99,205.24 C145.34,205.24 144,203.91 144,202.25 L144,193.99 C144,192.34 145.34,191 146.99,191 L172.14,191 C173.79,191 175.13,192.34 175.13,193.99 L175.13,202.25 L175.13,202.25 Z" id="Stroke-118" stroke="#1C5466" stroke-width="3.165" sketch:type="MSShapeGroup"></path>
            <path d="M181.174326,194 C181.174326,194 156.734326,202.7 161.654326,215.1 C164.224326,221.55 188.484326,212.76 188.484326,212.76" id="Fill-119" fill="#BD837D" sketch:type="MSShapeGroup"></path>
            <path d="M214.68,205.56 C214.68,207.21 213.34,208.55 211.69,208.55 L186.55,208.55 C184.9,208.55 183.56,207.21 183.56,205.56 L183.56,197.29 C183.56,195.64 184.9,194.3 186.55,194.3 L211.69,194.3 C213.34,194.3 214.68,195.64 214.68,197.29 L214.68,205.56 L214.68,205.56 Z M175,194 L184.5,196.64 L175,194 Z" id="Stroke-120" stroke="#1C5466" stroke-width="3.165" sketch:type="MSShapeGroup"></path>
            <path d="M183,222.70513 C183,222.70513 206.49,208.92513 207.55,214.20513 C208.6,219.47513 192.42,228.62513 192.42,228.62513" id="Fill-121" fill="#AA2F41" sketch:type="MSShapeGroup"></path>
            <path d="M154,245 L173.4,269.02 L190.28,249.5 L154,245" id="Fill-122" fill="#BD837D" sketch:type="MSShapeGroup"></path>
            <path d="M191,249.11 L203.67,269.16 L236.37,247 L191,249.11" id="Fill-123" fill="#BD837D" sketch:type="MSShapeGroup"></path>
            <path d="M167.02,309.836957 L166.93,309.816957 C167.76,309.516957 168.42,308.896957 168.67,308.066957 C169.09,306.626957 168.1,305.116957 166.46,304.696957 L158.99,302.776957 C159.29,302.476957 159.59,302.076957 160.03,301.676957 L164.33,297.756957 C165.45,296.736957 165.53,295.006957 164.52,293.896957 C163.5,292.776957 161.77,292.696957 160.66,293.706957 L155.52,298.376957 L141.3,304.446957 C141.1,304.466957 140.91,304.496957 140.72,304.556957 L139,312.956957 L156.14,321.106957 L157.65,321.396957 C159.1,321.776957 160.62,320.916957 161.03,319.476957 C161.11,319.216957 161.13,318.956957 161.13,318.706957 L162.31,319.006957 C163.94,319.426957 165.61,318.606957 166.03,317.176957 C166.24,316.436957 166.08,315.676957 165.66,315.066957 C167.24,315.396957 168.82,314.596957 169.22,313.196957 C169.64,311.766957 168.65,310.256957 167.02,309.836957" id="Fill-124" fill="#F4DAB9" sketch:type="MSShapeGroup"></path>
            <path d="M216.146824,287 C216.146824,287 209.626824,334.58 210.016824,334.58 C214.236824,334.58 274.016824,341.73 274.016824,341.73 L282.916824,298.9 L216.146824,287" id="Fill-125" fill="#FFFFFF" sketch:type="MSShapeGroup"></path>
            <path d="M233.286182,344.48 C232.136182,345.45 230.396182,345.32 229.406182,344.2 C229.226182,344 229.096182,343.77 228.986182,343.54 L228.056182,344.32 C226.756182,345.41 224.896182,345.38 223.906182,344.26 C223.396182,343.69 223.216182,342.94 223.336182,342.2 C222.046182,343.18 220.276182,343.13 219.316182,342.05 C218.316182,340.93 218.566182,339.14 219.866182,338.06 L219.936182,338 C219.056182,338.09 218.196182,337.82 217.606182,337.17 C216.616182,336.06 216.866182,334.27 218.156182,333.18 L224.076182,328.24 C223.036182,328.14 222.166182,327.51 221.856182,326.52 C221.416182,325.08 222.336182,323.43 223.896182,322.84 L240.766182,322.15 C240.966182,322.08 241.156182,322.03 241.346182,322 L246.506182,328.84 L234.526182,343.56 L233.286182,344.48" id="Fill-126" fill="#E8D3B0" sketch:type="MSShapeGroup"></path>
            <path d="M234.81,251 C234.81,251 293.58,293.49 271.22,313.83 C262.77,321.5 244.35,331.86 244.35,331.86 L234,321.89 L247.04,303.08 L234.81,251" id="Fill-127" fill="#2F312E" sketch:type="MSShapeGroup"></path>
            <path d="M186,348.68 L189.63,333 L194.66,347 L186,348.68" id="Fill-128" fill="#AA2F41" sketch:type="MSShapeGroup"></path>
            <path d="M173.74,180.662 C173.74,183.342 171.56,185.522 168.87,185.522 C166.18,185.522 164,183.342 164,180.662 L164,177.866 C164,175.178 166.18,173 168.87,173 C171.56,173 173.74,175.178 173.74,177.866 L173.74,180.662" id="Fill-129" fill="#2F312E" sketch:type="MSShapeGroup"></path>
            <path d="M205.74,185.655 C205.74,188.345 203.55,190.525 200.87,190.525 C198.18,190.525 196,188.345 196,185.655 L196,182.865 C196,180.185 198.18,178 200.87,178 C203.55,178 205.74,180.185 205.74,182.865 L205.74,185.655" id="Fill-130" fill="#2F312E" sketch:type="MSShapeGroup"></path>
            <path d="M233.34,178.329 C233.34,160.719 226.69,146.313 218.26,145.131 C216.65,143.698 215.57,143 215.57,143 L213.87,145.74 C211.85,146.594 209.97,148.204 208.3,150.444 L210.03,151.933 L202,164.885 L218.02,159.864 L232.21,190.591 C232.94,186.791 233.34,182.661 233.34,178.329" id="Fill-131" fill="#2F312E" sketch:type="MSShapeGroup"></path>
            <path d="M172.69,66.762 C172.69,66.106 172.55,65.519 172.27,64.999 C171.98,64.481 171.61,64.036 171.15,63.665 C170.7,63.295 170.17,63.009 169.58,62.808 C168.99,62.606 168.4,62.506 167.8,62.506 C167.21,62.506 166.63,62.606 166.06,62.808 C165.49,63.009 164.97,63.295 164.52,63.665 C164.06,64.036 163.69,64.481 163.4,64.999 C163.12,65.519 162.98,66.106 162.98,66.762 C162.98,67.398 163.12,67.975 163.4,68.493 C163.69,69.012 164.06,69.451 164.52,69.811 C164.97,70.171 165.49,70.452 166.06,70.653 C166.63,70.855 167.21,70.955 167.8,70.955 C168.4,70.955 168.99,70.855 169.58,70.653 C170.17,70.452 170.7,70.171 171.15,69.811 C171.61,69.451 171.98,69.012 172.27,68.493 C172.55,67.975 172.69,67.398 172.69,66.762 L172.69,66.762 Z M184.76,65.809 C184.76,68.393 184.31,70.738 183.4,72.844 C182.49,74.952 181.23,76.751 179.64,78.244 C178.04,79.737 176.14,80.896 173.93,81.722 C171.73,82.548 169.35,82.96 166.79,82.96 C164.69,82.96 162.8,82.675 161.12,82.103 C159.43,81.531 157.93,80.737 156.61,79.721 C155.28,78.705 154.15,77.498 153.19,76.1 C152.24,74.703 151.45,73.189 150.83,71.558 C150.2,69.928 149.74,68.202 149.44,66.381 C149.15,64.56 149,62.718 149,60.855 C149,58.567 149.17,56.339 149.51,54.169 C149.85,51.998 150.37,49.96 151.08,48.054 C151.79,46.148 152.71,44.391 153.83,42.782 C154.95,41.173 156.28,39.796 157.83,38.653 C159.38,37.509 161.15,36.615 163.15,35.969 C165.15,35.323 167.4,35 169.9,35 C170.81,35 171.74,35.037 172.69,35.111 C173.65,35.186 174.6,35.317 175.55,35.508 C176.51,35.699 177.43,35.953 178.33,36.271 C179.23,36.588 180.08,36.991 180.89,37.478 L179.94,49.992 C178.43,49.251 176.81,48.685 175.06,48.293 C173.31,47.901 171.61,47.705 169.96,47.705 C168.65,47.705 167.52,47.901 166.57,48.293 C165.61,48.685 164.81,49.24 164.15,49.96 C163.49,50.68 162.98,51.543 162.61,52.548 C162.24,53.555 162,54.671 161.9,55.9 C163.29,55.095 164.79,54.46 166.37,53.994 C167.96,53.528 169.58,53.295 171.23,53.295 C173.1,53.295 174.86,53.581 176.51,54.152 C178.16,54.724 179.59,55.55 180.81,56.63 C182.03,57.71 182.99,59.023 183.7,60.568 C184.41,62.114 184.76,63.861 184.76,65.809 L184.76,65.809 Z" id="Fill-168" fill="#AA2F41" sketch:type="MSShapeGroup"></path>
            <path d="M212.92,60.885 C212.92,59.954 212.8,58.916 212.54,57.772 C212.29,56.629 211.9,55.56 211.37,54.564 C210.84,53.569 210.16,52.733 209.33,52.055 C208.51,51.378 207.52,51.039 206.38,51.039 C205.21,51.039 204.22,51.378 203.39,52.055 C202.57,52.733 201.89,53.569 201.35,54.564 C200.81,55.56 200.41,56.629 200.15,57.772 C199.9,58.916 199.77,59.954 199.77,60.885 C199.77,61.817 199.9,62.855 200.15,63.998 C200.41,65.141 200.81,66.21 201.35,67.206 C201.89,68.201 202.57,69.038 203.39,69.715 C204.22,70.393 205.21,70.731 206.38,70.731 C207.52,70.731 208.51,70.393 209.33,69.715 C210.16,69.038 210.84,68.201 211.37,67.206 C211.9,66.21 212.29,65.141 212.54,63.998 C212.8,62.855 212.92,61.817 212.92,60.885 L212.92,60.885 Z M226.33,59.932 C226.33,61.796 226.12,63.648 225.71,65.491 C225.29,67.333 224.69,69.101 223.91,70.795 C223.13,72.489 222.17,74.067 221.04,75.527 C219.9,76.988 218.61,78.259 217.15,79.339 C215.69,80.419 214.08,81.266 212.33,81.88 C210.59,82.494 208.71,82.801 206.7,82.801 C204.66,82.801 202.77,82.494 201.01,81.88 C199.25,81.266 197.65,80.419 196.2,79.339 C194.75,78.259 193.45,76.988 192.31,75.527 C191.17,74.067 190.2,72.489 189.42,70.795 C188.64,69.101 188.04,67.328 187.62,65.475 C187.21,63.622 187,61.775 187,59.932 C187,58.09 187.21,56.237 187.62,54.374 C188.04,52.511 188.64,50.732 189.42,49.038 C190.2,47.344 191.17,45.761 192.31,44.29 C193.45,42.818 194.75,41.542 196.2,40.462 C197.65,39.382 199.26,38.536 201.03,37.921 C202.8,37.307 204.68,37 206.7,37 C208.71,37 210.59,37.307 212.33,37.921 C214.08,38.536 215.69,39.382 217.15,40.462 C218.61,41.542 219.9,42.818 221.04,44.29 C222.17,45.761 223.13,47.344 223.91,49.038 C224.69,50.732 225.29,52.511 225.71,54.374 C226.12,56.237 226.33,58.09 226.33,59.932 L226.33,59.932 Z" id="Fill-169" fill="#AA2F41" sketch:type="MSShapeGroup"></path>
            <path d="M134.4,93 L132.42,124.675 L122.58,125.107 L122.66,108.406 L118.22,121.87 L114.42,121.87 L111.01,109.83 L110.97,123.812 L101,124.114 L101.43,94.294 L112.52,93.862 L116.93,108.147 L122.79,93 L134.4,93" id="Fill-170" fill="#1C5466" sketch:type="MSShapeGroup"></path>
            <path d="M147.48,94 L145.11,123.389 L136,123.863 L136,94.605 L147.48,94" id="Fill-171" fill="#1C5466" sketch:type="MSShapeGroup"></path>
            <path d="M179.56,93.517 L178.01,122.776 L166.7,123.812 L160.66,108.147 L159.71,124.114 L150,124.114 L150.77,93.517 L161.56,93 L169.03,108.535 L169.37,93.862 L179.56,93.517" id="Fill-172" fill="#1C5466" sketch:type="MSShapeGroup"></path>
            <path d="M207.2,100.042 C207.2,101.107 207.15,102.279 207.05,103.56 C206.94,104.84 206.78,106.163 206.55,107.53 C206.32,108.896 206.02,110.281 205.65,111.684 C205.29,113.086 204.83,114.435 204.28,115.729 C203.74,117.024 203.1,118.236 202.37,119.365 C201.65,120.495 200.81,121.479 199.87,122.321 C198.93,123.162 197.88,123.825 196.71,124.306 C195.54,124.788 194.25,125.029 192.83,125.029 C191.16,125.029 189.71,124.759 188.48,124.22 C187.25,123.681 186.19,122.955 185.32,122.04 C184.44,121.127 183.72,120.063 183.16,118.847 C182.6,117.632 182.16,116.344 181.84,114.985 C181.53,113.625 181.31,112.237 181.18,110.82 C181.06,109.404 181,108.04 181,106.731 C181,104.718 181.1,102.707 181.3,100.701 C181.51,98.694 181.79,96.691 182.17,94.691 L192.26,95.08 C191.88,97.338 191.54,99.607 191.26,101.887 C190.98,104.167 190.84,106.458 190.84,108.76 C190.84,109.004 190.85,109.368 190.87,109.849 C190.89,110.331 190.93,110.871 190.99,111.468 C191.05,112.065 191.13,112.676 191.24,113.302 C191.35,113.928 191.5,114.499 191.68,115.017 C191.87,115.535 192.1,115.959 192.36,116.29 C192.63,116.622 192.94,116.786 193.3,116.786 C193.72,116.786 194.09,116.589 194.42,116.193 C194.75,115.798 195.04,115.269 195.3,114.607 C195.55,113.946 195.77,113.183 195.95,112.32 C196.14,111.457 196.3,110.558 196.43,109.622 C196.56,108.688 196.66,107.753 196.74,106.818 C196.82,105.883 196.89,105.013 196.94,104.207 C196.99,103.401 197.02,102.689 197.03,102.071 C197.05,101.452 197.06,100.992 197.06,100.689 C197.06,99.568 197.04,98.449 197,97.334 C196.97,96.22 196.91,95.108 196.84,94 L206.94,94 C207.11,95.986 207.2,98 207.2,100.042" id="Fill-173" fill="#1C5466" sketch:type="MSShapeGroup"></path>
            <path d="M231.78,93 L231.57,102.149 L225.14,102.407 L223.5,122.863 L214.39,123.337 L214.43,102.882 L208,103.228 L208.26,93.043 L231.78,93" id="Fill-174" fill="#1C5466" sketch:type="MSShapeGroup"></path>
            <path d="M254.58,93 C254.5,94.352 254.42,95.69 254.35,97.013 C254.28,98.337 254.18,99.675 254.07,101.027 L244.92,101.501 L244.7,104.22 L251.13,104.22 L250.66,110.909 L244.18,111.125 L243.97,114.275 L253.12,114.275 C253.03,115.858 252.94,117.429 252.85,118.99 C252.75,120.551 252.67,122.115 252.6,123.683 L234,124.114 L234.69,93 L254.58,93" id="Fill-175" fill="#1C5466" sketch:type="MSShapeGroup"></path>
            <path d="M277.62,112.498 C277.62,114.469 277.27,116.192 276.59,117.666 C275.91,119.141 274.97,120.367 273.79,121.345 C272.6,122.323 271.21,123.057 269.62,123.546 C268.03,124.035 266.32,124.28 264.5,124.28 C263.79,124.28 263.02,124.186 262.18,123.999 C261.34,123.813 260.48,123.578 259.62,123.298 C258.76,123.018 257.93,122.715 257.13,122.392 C256.33,122.068 255.62,121.763 255,121.475 L255.95,112.584 C257.17,113.318 258.53,113.876 260.02,114.257 C261.51,114.638 262.97,114.829 264.41,114.829 C264.68,114.829 265.01,114.818 265.4,114.796 C265.79,114.775 266.16,114.71 266.51,114.602 C266.87,114.494 267.17,114.332 267.41,114.117 C267.65,113.901 267.78,113.592 267.78,113.189 C267.78,112.915 267.69,112.682 267.52,112.487 C267.34,112.293 267.12,112.135 266.85,112.013 C266.58,111.891 266.27,111.797 265.92,111.732 C265.58,111.667 265.24,111.621 264.91,111.592 C264.58,111.563 264.27,111.549 263.98,111.549 L263.29,111.549 C262.05,111.549 260.93,111.333 259.91,110.901 C258.9,110.47 258.03,109.87 257.3,109.1 C256.57,108.331 256.01,107.417 255.61,106.359 C255.2,105.302 255,104.155 255,102.918 C255,101.221 255.34,99.699 256.03,98.354 C256.71,97.009 257.62,95.866 258.77,94.923 C259.91,93.981 261.22,93.258 262.71,92.755 C264.19,92.251 265.72,92 267.3,92 C268.01,92 268.73,92.025 269.48,92.075 C270.23,92.126 270.97,92.215 271.71,92.345 C272.45,92.474 273.18,92.64 273.88,92.841 C274.59,93.042 275.26,93.294 275.89,93.596 L275.07,102.357 C274.09,102.026 273.07,101.749 272,101.526 C270.92,101.303 269.88,101.191 268.86,101.191 C268.67,101.191 268.43,101.195 268.13,101.203 C267.84,101.21 267.53,101.231 267.2,101.267 C266.88,101.303 266.55,101.357 266.22,101.429 C265.89,101.501 265.6,101.598 265.34,101.72 C265.08,101.843 264.87,102.004 264.71,102.206 C264.55,102.407 264.48,102.644 264.5,102.918 C264.51,103.234 264.63,103.49 264.85,103.684 C265.08,103.878 265.36,104.029 265.72,104.137 C266.07,104.245 266.46,104.32 266.88,104.363 C267.3,104.407 267.73,104.432 268.14,104.439 C268.56,104.446 268.95,104.446 269.31,104.439 C269.67,104.432 269.96,104.443 270.19,104.471 C271.34,104.543 272.38,104.788 273.3,105.205 C274.22,105.623 275,106.176 275.64,106.867 C276.28,107.557 276.77,108.381 277.11,109.337 C277.45,110.294 277.62,111.348 277.62,112.498" id="Fill-176" fill="#1C5466" sketch:type="MSShapeGroup"></path>
        </g>
    </g>
</svg>