<?xml version="1.0" encoding="UTF-8" standalone="no"?>
<svg width="429px" height="457px" viewBox="0 0 429 457" version="1.1" xmlns="http://www.w3.org/2000/svg" xmlns:xlink="http://www.w3.org/1999/xlink" xmlns:sketch="http://www.bohemiancoding.com/sketch/ns">
    <!-- Generator: Sketch 3.2.2 (9983) - http://www.bohemiancoding.com/sketch -->
    <title>workshop</title>
    <desc>Created with Sketch.</desc>
    <defs></defs>
    <g id="Page-1" stroke="none" stroke-width="1" fill="none" fill-rule="evenodd" sketch:type="MSPage">
        <g id="workshop" sketch:type="MSLayerGroup">
            <path d="M404.82,213.413 C404.82,317.463 320.46,401.823 216.41,401.823 C112.35,401.823 28,317.463 28,213.413 C28,109.354 112.35,25 216.41,25 C320.46,25 404.82,109.354 404.82,213.413" id="Fill-2" fill="#BDC7B1" sketch:type="MSShapeGroup"></path>
            <path d="M116,0 L326.77,0 L326.77,270.054 L116,270.054 L116,0 Z" id="Fill-39" fill="#1C5466" sketch:type="MSShapeGroup"></path>
            <path d="M120,13 L324.19,13 L324.19,251.769 L120,251.769 L120,13 Z" id="Fill-40" fill="#BD837D" sketch:type="MSShapeGroup"></path>
            <path d="M163.04,350.15 L149,348.68 L158.42,259 L172.46,260.48 L163.04,350.15" id="Fill-41" fill="#1C5466" sketch:type="MSShapeGroup"></path>
            <path d="M277.42,350.15 L291.46,348.68 L282.04,259 L268,260.48 L277.42,350.15" id="Fill-42" fill="#1C5466" sketch:type="MSShapeGroup"></path>
            <path d="M144.36,260.68 C144.36,262.71 142.71,264.36 140.68,264.36 C138.64,264.36 137,262.71 137,260.68 C137,258.65 138.64,257 140.68,257 C142.71,257 144.36,258.65 144.36,260.68" id="Fill-43" fill="#BDC7B1" sketch:type="MSShapeGroup"></path>
            <path d="M303.36,260.68 C303.36,262.71 301.71,264.36 299.68,264.36 C297.65,264.36 296,262.71 296,260.68 C296,258.65 297.65,257 299.68,257 C301.71,257 303.36,258.65 303.36,260.68" id="Fill-44" fill="#BDC7B1" sketch:type="MSShapeGroup"></path>
            <path d="M224.36,260.68 C224.36,262.71 222.71,264.36 220.68,264.36 C218.65,264.36 217,262.71 217,260.68 C217,258.65 218.65,257 220.68,257 C222.71,257 224.36,258.65 224.36,260.68" id="Fill-45" fill="#BDC7B1" sketch:type="MSShapeGroup"></path>
            <path d="M83.14,190.34 L90.44,218.63 L108.55,211.07 L110.67,219.05 C110.67,219.05 91.8,235.4 84.92,236.87 C78.04,238.34 74,190 74,190" id="Fill-46" fill="#F4DAB9" sketch:type="MSShapeGroup"></path>
            <path d="M124.86,219.099189 C126.13,218.909189 127.08,217.809189 126.96,216.639189 C126.94,216.419189 126.87,216.229189 126.79,216.049189 L127.83,215.889189 C129.27,215.679189 130.34,214.559189 130.22,213.389189 C130.16,212.789189 129.79,212.299189 129.26,211.979189 C130.64,211.729189 131.64,210.649189 131.53,209.509189 C131.41,208.349189 130.14,207.569189 128.7,207.779189 L128.62,207.789189 C129.19,207.319189 129.53,206.659189 129.47,205.979189 C129.35,204.809189 128.08,204.039189 126.64,204.239189 L120.05,205.219189 C120.6,204.549189 120.72,203.709189 120.28,203.009189 C119.63,201.999189 118.06,201.699189 116.77,202.329189 L106.43,212.029189 C106.27,212.099189 106.13,212.189189 106,212.289189 L107.27,218.899189 L123.55,219.359189 L124.86,219.099189" id="Fill-47" fill="#F4DAB9" sketch:type="MSShapeGroup"></path>
            <path d="M64.8104242,401.25 C64.8104242,401.25 66.2004242,405.86 72.5404242,408.57 C78.8804242,411.29 84.3104242,412.44 76.4904242,412.85 C68.6704242,413.26 57.0704242,410.3 57.0704242,410.3 L56.9904242,412.2 L51.6404242,412.2 C51.6404242,412.2 48.1804242,406.27 51.3104242,401 L64.8104242,401.25" id="Fill-48" fill="#2F312E" sketch:type="MSShapeGroup"></path>
            <path d="M14.8104242,401.25 C14.8104242,401.25 16.2104242,405.86 22.5404242,408.57 C28.8804242,411.29 34.3204242,412.44 26.5004242,412.85 C18.6804242,413.26 7.07042419,410.3 7.07042419,410.3 L6.99042419,412.2 L1.64042419,412.2 C1.64042419,412.2 -1.81957581,406.27 1.31042419,401 L14.8104242,401.25" id="Fill-49" fill="#2F312E" sketch:type="MSShapeGroup"></path>
            <path d="M67.36,257.76 C67.36,257.76 69.36,256.31 68.94,305.72 C68.52,355.13 65.74,402.29 65.74,402.29 L50.92,403.27 L35,251" id="Fill-50" fill="#1C5466" sketch:type="MSShapeGroup"></path>
            <path d="M7.52,263.39 C7.52,263.39 5.37,256.04 3,305.46 C0.63,354.87 0,402.32 0,402.32 L17.55,403.16 L42.69,253" id="Fill-51" fill="#1C5466" sketch:type="MSShapeGroup"></path>
            <path d="M2,206.815 C2,206.815 6.21,189.045 8.7,180.075 C9.9,169 19.2,165 44.91,165 C56.57,165 79.8,173.805 81.8,181.285 L87.64,200.085 L75.2,207.035 L73.16,206.875 C73.99,208.575 74.46,210.485 74.46,212.525 C74.46,216.465 72.71,219.965 69.99,222.225 C69.85,222.825 69.71,223.455 69.54,224.135 C66.29,237.115 70.94,270.555 70.94,270.555 L5.53,265.635 C5.53,265.635 10.61,251.025 12.84,235.705 C14.15,226.685 12.44,220.405 13.6,208.675 L2,206.815" id="Fill-52" fill="#2F312E" sketch:type="MSShapeGroup"></path>
            <path d="M60.1405123,236.65 L60.0605123,236.62 C60.8005123,236.5 61.4305123,236.12 61.7205123,235.49 C62.2205123,234.43 61.5305123,233.12 60.1905123,232.55 L54.0405123,230 C54.8605123,229.71 55.3905123,229.05 55.3705123,228.23 C55.3305123,227.03 54.1405123,225.96 52.7105123,225.83 L39.8005123,228.63 L13.6005123,223.47 L15.6805123,205 L3.48051231,206.24 C3.48051231,206.24 -4.84948769,233.23 9.02051231,235.44 C17.7705123,236.84 30.6605123,237.06 38.9805123,237.04 L49.7605123,243.93 L51.0205123,244.37 C52.2105123,244.87 53.5905123,244.41 54.0905123,243.35 C54.1805123,243.15 54.2205123,242.95 54.2505123,242.75 L55.2205123,243.16 C56.5605123,243.72 58.0605123,243.3 58.5605123,242.24 C58.8205123,241.69 58.7605123,241.09 58.4605123,240.54 C59.7705123,241.03 61.1905123,240.62 61.6705123,239.59 C62.1705123,238.53 61.4805123,237.21 60.1405123,236.65" id="Fill-53" fill="#F4DAB9" sketch:type="MSShapeGroup"></path>
            <path d="M23,118.616 L24.6,138.631 L27.41,139.031 L27.01,147.438 L33.81,149.44 L37.42,99" id="Fill-54" fill="#2F312E" sketch:type="MSShapeGroup"></path>
            <path d="M51,74.8813582 C51,74.8813582 52.6,69.2773582 60.6,70.0783582 C68.61,70.8783582 78.62,74.8823582 87.02,78.4843582 C95.43,82.0883582 99.83,92.8963582 100.64,99.3013582 C101.44,105.707358 95.83,128.124358 95.83,128.124358 L94.23,126.123358 L92.23,134.129358 L86.62,130.126358" id="Fill-55" fill="#2F312E" sketch:type="MSShapeGroup"></path>
            <path d="M94.37,103.456 C94.37,103.456 81.41,166.067 73.87,169.897 C66.34,173.726 57.33,169.757 57.33,169.757 L55.25,182.056 L31,170.732 L35.33,89.087 L78.5,81 L94.37,103.456" id="Fill-56" fill="#F4DAB9" sketch:type="MSShapeGroup"></path>
            <path d="M71.38,122 C71.38,122 75.66,135.296 78.47,138.385 C82.14,142.417 85.95,147.186 68,145.146" id="Fill-57" fill="#BD837D" sketch:type="MSShapeGroup"></path>
            <path d="M77,120.661 C77,123.346 79.18,125.526 81.87,125.526 C84.56,125.526 86.74,123.346 86.74,120.661 L86.74,117.867 C86.74,115.178 84.56,113 81.87,113 C79.18,113 77,115.178 77,117.867 L77,120.661" id="Fill-58" fill="#2F312E" sketch:type="MSShapeGroup"></path>
            <path d="M58,118.658 C58,121.346 60.18,123.526 62.87,123.526 C65.56,123.526 67.74,121.346 67.74,118.658 L67.74,115.865 C67.74,113.178 65.56,111 62.87,111 C60.18,111 58,113.178 58,115.865 L58,118.658" id="Fill-59" fill="#2F312E" sketch:type="MSShapeGroup"></path>
            <path d="M62.076625,151.587914 C61.516625,152.722914 64.086625,155.125914 67.806625,156.950914 C71.526625,158.779914 74.996625,159.338914 75.556625,158.202914 C76.116625,157.065914 73.546625,154.665914 69.826625,152.838914 C66.106625,151.011914 62.636625,150.451914 62.076625,151.587914" id="Fill-60" fill="#AA2F41" sketch:type="MSShapeGroup"></path>
            <path d="M64.0781328,154.571455 C63.6281328,155.480455 65.1681328,157.149455 67.5081328,158.298455 C69.8481328,159.447455 72.1081328,159.641455 72.5581328,158.733455 C73.0081328,157.823455 71.4681328,156.156455 69.1281328,155.007455 C66.7881328,153.858455 64.5281328,153.663455 64.0781328,154.571455" id="Fill-61" fill="#AA2F41" sketch:type="MSShapeGroup"></path>
            <path d="M63,80 L79.98,80 C82.43,83.39 83.88,87.553 83.88,92.055 C83.88,98.813 80.63,104.813 75.6,108.573 C76.29,106.344 76.67,103.977 76.67,101.52 C76.67,92.006 71.07,83.799 63,80" id="Fill-62" fill="#2F312E" sketch:type="MSShapeGroup"></path>
            <path d="M71.54,83.213204 L47.52,110.033204 L45.92,95.222204 L39.52,126.047204 L35.51,115.637204 L29.51,128.848204 L27.91,116.039204 L21.5,135.653204 L20.3,116.039204 C20.3,116.039204 19.1,100.827204 21.5,88.417204 C23.9,76.007204 35.91,68.800204 53.53,71.602204" id="Fill-63" fill="#2F312E" sketch:type="MSShapeGroup"></path>
            <path d="M41.81,124.011 C41.81,131.197 38.94,137.022 35.4,137.022 C31.87,137.022 29,131.197 29,124.011 C29,116.825 31.87,111 35.4,111 C38.94,111 41.81,116.825 41.81,124.011" id="Fill-64" fill="#F4DAB9" sketch:type="MSShapeGroup"></path>
            <path d="M37.61,132.801 C37.61,134.349 36.35,135.604 34.8,135.604 C33.26,135.604 32,134.349 32,132.801 C32,131.254 33.26,130 34.8,130 C36.35,130 37.61,131.254 37.61,132.801" id="Fill-65" fill="#AA2F41" sketch:type="MSShapeGroup"></path>
            <path d="M32,106.41 L36,121.624 L38.41,117.62 L42.81,126.827 L46.81,92" id="Fill-66" fill="#2F312E" sketch:type="MSShapeGroup"></path>
            <path d="M45.0549459,195.794996 C44.7449459,195.084996 44.0549459,194.554996 43.2249459,194.494996 C43.0749459,194.484996 42.9349459,194.494996 42.7949459,194.514996 C43.0849459,194.174996 43.2749459,193.734996 43.3049459,193.254996 C43.3349459,192.904996 43.2649459,192.574996 43.1449459,192.274996 C43.2249459,192.284996 43.3049459,192.294996 43.3849459,192.304996 C44.2149459,192.364996 44.9649459,191.934996 45.3749459,191.274996 C45.6749459,191.984996 46.3649459,192.514996 47.1949459,192.564996 L47.2249459,192.564996 C47.0549459,192.844996 46.9549459,193.164996 46.9249459,193.504996 C46.8949459,193.974996 47.0149459,194.414996 47.2449459,194.784996 C47.1849459,194.774996 47.1149459,194.764996 47.0449459,194.764996 C46.2149459,194.704996 45.4649459,195.134996 45.0549459,195.794996 L45.0549459,195.794996 Z M51.2249459,193.804996 C51.3049459,192.624996 50.4149459,191.594996 49.2249459,191.514996 L49.2049459,191.514996 C49.3649459,191.234996 49.4749459,190.914996 49.4949459,190.564996 C49.5749459,189.384996 48.6849459,188.354996 47.4949459,188.274996 C46.6649459,188.214996 45.9149459,188.634996 45.5049459,189.304996 C45.1949459,188.584996 44.5049459,188.064996 43.6749459,188.004996 C42.4949459,187.924996 41.4649459,188.814996 41.3849459,190.004996 C41.3549459,190.354996 41.4149459,190.684996 41.5449459,190.994996 C41.4649459,190.974996 41.3949459,190.964996 41.3049459,190.964996 C40.1249459,190.874996 39.0949459,191.774996 39.0049459,192.964996 C38.9249459,194.144996 39.8249459,195.174996 41.0149459,195.254996 C41.1549459,195.264996 41.3049459,195.264996 41.4449459,195.244996 C41.1549459,195.584996 40.9649459,196.014996 40.9349459,196.494996 C40.8449459,197.684996 41.7449459,198.714996 42.9349459,198.794996 C43.7649459,198.854996 44.5149459,198.434996 44.9249459,197.764996 C45.2249459,198.484996 45.9149459,199.004996 46.7449459,199.064996 C47.9349459,199.144996 48.9649459,198.244996 49.0449459,197.064996 C49.0749459,196.594996 48.9549459,196.154996 48.7349459,195.784996 C48.7949459,195.794996 48.8649459,195.804996 48.9249459,195.804996 C50.1149459,195.884996 51.1449459,194.994996 51.2249459,193.804996 L51.2249459,193.804996 Z" id="Fill-67" fill="#E7B640" sketch:type="MSShapeGroup"></path>
            <path d="M47.6371621,194.017162 C47.5271621,195.567162 46.1871621,196.747162 44.6271621,196.637162 C43.0671621,196.527162 41.8971621,195.177162 42.0071621,193.627162 C42.1171621,192.067162 43.4571621,190.897162 45.0171621,191.007162 C46.5671621,191.107162 47.7471621,192.457162 47.6371621,194.017162" id="Fill-68" fill="#BD837D" sketch:type="MSShapeGroup"></path>
            <path d="M35.0361112,190.02726 C35.6661112,190.06726 36.2961112,190.16726 36.9461112,190.32726 C37.4761112,190.44726 37.8461112,190.59726 38.0661112,190.77726 C38.2861112,190.94726 38.3861112,191.17726 38.3661112,191.44726 C38.3561112,191.62726 38.3061112,191.75726 38.2161112,191.84726 C38.1261112,191.94726 37.9361112,192.04726 37.6361112,192.16726 C37.3061112,192.31726 37.0961112,192.50726 37.0361112,192.72726 C36.9761112,192.94726 36.8661112,193.83726 36.7261112,195.37726 C36.6061112,196.86726 36.5261112,197.75726 36.4861112,198.05726 C36.4561112,198.35726 36.4061112,198.63726 36.3261112,198.91726 C36.1061112,199.72726 35.7361112,200.34726 35.2061112,200.77726 C34.7661112,201.13726 34.2261112,201.39726 33.5761112,201.57726 C32.9261112,201.75726 32.2461112,201.81726 31.5461112,201.76726 C30.9161112,201.72726 30.2961112,201.59726 29.6861112,201.38726 C29.0661112,201.18726 28.5361112,200.91726 28.0961112,200.60726 C27.7361112,200.33726 27.4461112,199.99726 27.2561112,199.57726 C27.0561112,199.16726 26.9761112,198.72726 27.0061112,198.26726 C27.0461112,197.70726 27.2561112,197.25726 27.6361112,196.90726 C28.0161112,196.56726 28.4661112,196.41726 29.0061112,196.44726 C29.5261112,196.48726 29.9661112,196.67726 30.3061112,197.00726 C30.6561112,197.34726 30.8061112,197.74726 30.7761112,198.20726 C30.7661112,198.32726 30.7161112,198.52726 30.6361112,198.79726 C30.6161112,198.84726 30.6061112,198.90726 30.6061112,198.97726 C30.5861112,199.15726 30.6461112,199.30726 30.7661112,199.42726 C30.8861112,199.55726 31.0561112,199.61726 31.2661112,199.63726 C31.6461112,199.65726 31.9661112,199.51726 32.2161112,199.18726 C32.4661112,198.86726 32.6161112,198.43726 32.6561112,197.88726 L32.6961112,197.11726 L32.8261112,195.04726 C32.8661112,193.78726 32.8761112,193.04726 32.8661112,192.81726 C32.8561112,192.59726 32.8061112,192.40726 32.7161112,192.25726 C32.6361112,192.14726 32.5661112,192.06726 32.5061112,192.02726 C32.4461112,191.98726 32.2661112,191.92726 31.9861112,191.82726 C31.8561112,191.79726 31.7461112,191.70726 31.6561112,191.56726 C31.5761112,191.43726 31.5361112,191.29726 31.5461112,191.14726 C31.5661112,190.84726 31.7061112,190.60726 31.9561112,190.43726 C32.2061112,190.27726 32.6061112,190.15726 33.1561112,190.07726 C33.7661112,189.99726 34.3961112,189.97726 35.0361112,190.02726" id="Fill-69" fill="#AA2F41" sketch:type="MSShapeGroup"></path>
            <path d="M41.4537307,198.867172 C41.2037307,198.847172 40.9837307,198.937172 40.7837307,199.127172 C40.5837307,199.317172 40.4737307,199.547172 40.4637307,199.837172 C40.4437307,200.107172 40.4937307,200.327172 40.6037307,200.497172 C40.7237307,200.677172 40.8937307,200.767172 41.1037307,200.787172 C41.5537307,200.817172 41.8037307,200.457172 41.8637307,199.697172 C41.8837307,199.387172 41.8637307,199.167172 41.8037307,199.057172 C41.7537307,198.947172 41.6337307,198.887172 41.4537307,198.867172 L41.4537307,198.867172 Z M42.3537307,194.017172 C43.3337307,194.087172 44.1437307,194.387172 44.7937307,194.937172 C45.1337307,195.227172 45.3737307,195.547172 45.4837307,195.897172 C45.6037307,196.247172 45.6437307,196.717172 45.6037307,197.317172 L45.5037307,198.567172 C45.4437307,199.447172 45.4637307,200.017172 45.5637307,200.277172 C45.6237307,200.407172 45.6737307,200.487172 45.7337307,200.527172 C45.7837307,200.567172 45.9037307,200.607172 46.0837307,200.647172 C46.2537307,200.687172 46.3437307,200.817172 46.3237307,201.017172 C46.3037307,201.287172 46.1737307,201.567172 45.9437307,201.837172 C45.7037307,202.117172 45.4137307,202.347172 45.0537307,202.517172 C44.6137307,202.737172 44.1637307,202.827172 43.7037307,202.797172 C43.1037307,202.757172 42.6537307,202.527172 42.3437307,202.097172 C42.2337307,201.937172 42.1237307,201.857172 42.0237307,201.847172 C41.9137307,201.847172 41.7637307,201.907172 41.5637307,202.027172 C40.9737307,202.397172 40.3137307,202.567172 39.6037307,202.517172 C38.8637307,202.467172 38.2837307,202.267172 37.8437307,201.917172 C37.5637307,201.687172 37.3437307,201.397172 37.1937307,201.057172 C37.0437307,200.707172 36.9837307,200.347172 37.0037307,199.987172 C37.0537307,199.397172 37.3237307,198.897172 37.8237307,198.477172 C38.6137307,197.827172 39.7337307,197.537172 41.2037307,197.637172 C41.5337307,197.657172 41.7337307,197.637172 41.8337307,197.587172 C41.9237307,197.527172 41.9737307,197.377172 41.9837307,197.137172 C42.0337307,196.547172 41.9937307,196.107172 41.8937307,195.827172 C41.7837307,195.557172 41.5937307,195.407172 41.3137307,195.387172 C41.1437307,195.377172 40.9937307,195.417172 40.8437307,195.507172 C40.7137307,195.597172 40.5337307,195.777172 40.3137307,196.027172 C39.7637307,196.707172 39.2137307,197.037172 38.6737307,196.997172 C38.3937307,196.977172 38.1737307,196.877172 38.0137307,196.707172 C37.8537307,196.527172 37.7837307,196.307172 37.8037307,196.047172 C37.8137307,195.777172 37.9437307,195.507172 38.1737307,195.257172 C38.4137307,194.997172 38.7237307,194.787172 39.1137307,194.607172 C40.1637307,194.137172 41.2537307,193.937172 42.3537307,194.017172 L42.3537307,194.017172 Z" id="Fill-70" fill="#AA2F41" sketch:type="MSShapeGroup"></path>
            <path d="M55.1613636,198.048 L52.6813636,202.158 C52.3013636,202.788 51.9813636,203.228 51.7213636,203.468 C51.4713636,203.708 51.2113636,203.818 50.9413636,203.798 C50.6713636,203.778 50.4713636,203.668 50.3213636,203.468 C50.0013636,203.058 49.7313636,202.608 49.5013636,202.108 L47.4213636,197.388 C47.3113636,197.128 47.2013636,196.938 47.0813636,196.828 C46.9713636,196.708 46.8113636,196.608 46.6013636,196.538 C46.1813636,196.388 45.9813636,196.138 46.0013636,195.808 C46.0313636,195.458 46.3113636,195.228 46.8513636,195.108 C47.3913636,194.988 48.2313636,194.968 49.3713636,195.048 C50.3313636,195.108 51.0313636,195.228 51.4713636,195.398 C51.9213636,195.568 52.1313636,195.798 52.1113636,196.088 C52.0913636,196.288 51.9813636,196.468 51.7513636,196.638 C51.6013636,196.758 51.5113636,196.848 51.4713636,196.908 C51.4213636,196.968 51.4013636,197.038 51.3913636,197.138 C51.3813636,197.328 51.4813636,197.658 51.7013636,198.118 C51.9113636,198.568 52.1313636,198.798 52.3413636,198.818 C52.4813636,198.828 52.6013636,198.778 52.7013636,198.678 C52.8013636,198.578 52.9813636,198.318 53.2513636,197.888 C53.4413636,197.568 53.5513636,197.328 53.5613636,197.158 C53.5713636,197.028 53.4913636,196.858 53.3213636,196.658 C53.1513636,196.448 53.0613636,196.248 53.0813636,196.078 C53.1013636,195.808 53.2913636,195.618 53.6513636,195.528 C54.0213636,195.438 54.6113636,195.418 55.4313636,195.468 C56.5713636,195.558 57.1313636,195.838 57.1013636,196.338 C57.0813636,196.618 56.8613636,196.818 56.4413636,196.918 C56.1113636,196.998 55.8813636,197.088 55.7613636,197.198 C55.6413636,197.308 55.4413636,197.598 55.1613636,198.048" id="Fill-71" fill="#AA2F41" sketch:type="MSShapeGroup"></path>
            <path d="M60.4537307,200.864086 C60.2037307,200.854086 59.9837307,200.934086 59.7837307,201.124086 C59.5837307,201.314086 59.4737307,201.554086 59.4637307,201.834086 C59.4437307,202.104086 59.4937307,202.324086 59.6037307,202.504086 C59.7237307,202.674086 59.8937307,202.774086 60.1037307,202.784086 C60.5537307,202.814086 60.8037307,202.454086 60.8637307,201.694086 C60.8837307,201.384086 60.8637307,201.174086 60.8037307,201.064086 C60.7537307,200.954086 60.6337307,200.884086 60.4537307,200.864086 L60.4537307,200.864086 Z M61.3537307,196.014086 C62.3337307,196.084086 63.1437307,196.394086 63.7937307,196.934086 C64.1337307,197.224086 64.3637307,197.544086 64.4837307,197.894086 C64.6037307,198.244086 64.6437307,198.724086 64.6037307,199.314086 L64.5037307,200.574086 C64.4437307,201.444086 64.4637307,202.014086 64.5637307,202.284086 C64.6237307,202.414086 64.6737307,202.494086 64.7337307,202.534086 C64.7837307,202.564086 64.9037307,202.604086 65.0737307,202.644086 C65.2637307,202.684086 65.3337307,202.814086 65.3237307,203.024086 C65.3037307,203.294086 65.1737307,203.564086 64.9437307,203.844086 C64.7037307,204.124086 64.4037307,204.344086 64.0437307,204.524086 C63.6137307,204.734086 63.1637307,204.834086 62.6937307,204.794086 C62.1037307,204.754086 61.6537307,204.524086 61.3437307,204.094086 C61.2237307,203.944086 61.1237307,203.854086 61.0237307,203.854086 C60.9137307,203.844086 60.7637307,203.904086 60.5637307,204.034086 C59.9737307,204.404086 59.3137307,204.564086 58.6037307,204.514086 C57.8637307,204.464086 57.2837307,204.264086 56.8437307,203.914086 C56.5637307,203.694086 56.3437307,203.404086 56.1937307,203.054086 C56.0437307,202.704086 55.9837307,202.354086 56.0037307,201.984086 C56.0437307,201.404086 56.3137307,200.894086 56.8237307,200.484086 C57.6037307,199.824086 58.7337307,199.544086 60.2037307,199.634086 C60.5337307,199.664086 60.7437307,199.644086 60.8337307,199.584086 C60.9137307,199.524086 60.9737307,199.374086 60.9837307,199.144086 C61.0237307,198.544086 60.9937307,198.104086 60.8837307,197.834086 C60.7837307,197.554086 60.5937307,197.404086 60.3137307,197.384086 C60.1437307,197.374086 59.9837307,197.414086 59.8437307,197.504086 C59.7137307,197.604086 59.5337307,197.774086 59.3137307,198.034086 C58.7637307,198.714086 58.2137307,199.034086 57.6737307,198.994086 C57.3937307,198.974086 57.1737307,198.884086 57.0137307,198.704086 C56.8437307,198.524086 56.7737307,198.304086 56.7937307,198.044086 C56.8137307,197.774086 56.9437307,197.514086 57.1737307,197.254086 C57.4137307,197.004086 57.7237307,196.784086 58.1037307,196.604086 C59.1637307,196.134086 60.2437307,195.944086 61.3537307,196.014086 L61.3537307,196.014086 Z" id="Fill-72" fill="#AA2F41" sketch:type="MSShapeGroup"></path>
            <path d="M24.3337307,208.106 L24.3637307,207.686 C24.4037307,207.186 24.2737307,206.916 23.9937307,206.896 C23.7837307,206.886 23.5737307,206.986 23.3737307,207.206 L21.9637307,208.706 C21.5537307,209.156 21.3437307,209.476 21.3237307,209.676 C21.3137307,209.826 21.3937307,209.926 21.5437307,209.976 C21.7037307,210.026 22.0937307,210.086 22.7137307,210.146 L23.3737307,210.196 C23.6637307,210.226 23.8637307,210.206 23.9637307,210.146 C24.0737307,210.086 24.1437307,209.966 24.1737307,209.776 C24.2237307,209.466 24.2837307,208.906 24.3337307,208.106 L24.3337307,208.106 Z M28.1837307,203.966 L27.7837307,209.796 C27.7737307,209.976 27.7837307,210.096 27.8337307,210.166 C27.8737307,210.236 27.9537307,210.266 28.0937307,210.276 L28.4437307,210.306 C28.7037307,210.316 28.8337307,210.486 28.8237307,210.816 L28.7037307,212.526 C28.6837307,212.826 28.5137307,212.986 28.2137307,213.006 C28.0137307,213.016 27.8937307,213.036 27.8337307,213.086 C27.7837307,213.136 27.7437307,213.256 27.7337307,213.446 L27.6637307,214.446 C27.6637307,214.796 27.4837307,214.976 27.1337307,214.966 L24.2437307,214.766 C24.0437307,214.746 23.9137307,214.706 23.8537307,214.636 C23.8037307,214.556 23.7837307,214.406 23.7937307,214.176 L23.8537307,213.306 C23.8737307,213.066 23.8437307,212.896 23.7537307,212.806 C23.6737307,212.706 23.5237307,212.646 23.2937307,212.626 L20.0037307,212.396 C19.6137307,212.376 19.3337307,212.276 19.1937307,212.096 C19.0437307,211.916 18.9837307,211.626 19.0037307,211.216 C19.0437307,210.676 19.1337307,210.266 19.2937307,209.966 C19.4737307,209.606 19.9737307,208.996 20.7837307,208.156 L23.1037307,205.726 C24.2637307,204.516 25.1137307,203.746 25.6537307,203.426 C25.8937307,203.286 26.1837307,203.176 26.5237307,203.096 C26.8537307,203.016 27.1637307,202.986 27.4537307,203.006 C27.7337307,203.026 27.9337307,203.116 28.0537307,203.266 C28.1637307,203.416 28.2037307,203.646 28.1837307,203.966 L28.1837307,203.966 Z" id="Fill-73" fill="#AA2F41" sketch:type="MSShapeGroup"></path>
            <path d="M30.6523123,208.001262 C30.7923123,208.011262 30.9423123,208.031262 31.1023123,208.061262 C31.7723123,208.181262 32.2923123,208.251262 32.6523123,208.281262 C33.0123123,208.301262 33.2823123,208.311262 33.4423123,208.291262 C33.6423123,208.271262 33.7723123,208.271262 33.8323123,208.271262 C34.0023123,208.291262 34.0823123,208.421262 34.0623123,208.681262 C34.0523123,208.921262 33.9723123,209.231262 33.8423123,209.601262 C33.7123123,209.971262 33.5523123,210.321262 33.3523123,210.651262 C33.2023123,210.901262 33.0723123,211.081262 32.9723123,211.171262 C32.8723123,211.261262 32.7623123,211.301262 32.6423123,211.291262 C32.5323123,211.281262 32.3923123,211.261262 32.2223123,211.221262 C31.7323123,211.101262 31.1623123,211.011262 30.5023123,210.971262 C30.2323123,210.951262 29.9723123,210.941262 29.7423123,210.951262 L29.3223123,210.951262 C29.0923123,210.931262 28.9823123,210.791262 29.0023123,210.521262 C29.0123123,210.341262 29.1023123,210.041262 29.2623123,209.621262 C29.4223123,209.201262 29.5723123,208.881262 29.7123123,208.661262 C29.8823123,208.401262 30.0323123,208.221262 30.1623123,208.131262 C30.2923123,208.041262 30.4523123,207.991262 30.6523123,208.001262" id="Fill-74" fill="#AA2F41" sketch:type="MSShapeGroup"></path>
            <path d="M39.1810294,209.020735 L40.0410294,209.080735 C40.4010294,209.110735 40.5910294,208.950735 40.6110294,208.620735 C40.6310294,208.320735 40.5610294,208.060735 40.4010294,207.860735 C40.2410294,207.660735 40.0210294,207.550735 39.7310294,207.530735 C39.4210294,207.500735 39.1610294,207.610735 38.9710294,207.850735 C38.7810294,208.070735 38.6810294,208.290735 38.6710294,208.530735 C38.6510294,208.700735 38.6910294,208.820735 38.7610294,208.890735 C38.8410294,208.970735 38.9810294,209.010735 39.1810294,209.020735 L39.1810294,209.020735 Z M42.8210294,210.860735 L38.8510294,210.590735 C38.6810294,210.570735 38.5910294,210.640735 38.5810294,210.800735 C38.5510294,211.160735 38.7310294,211.520735 39.1010294,211.870735 C39.4710294,212.220735 39.8910294,212.410735 40.3510294,212.450735 C40.6210294,212.460735 40.9210294,212.430735 41.2510294,212.350735 C41.5910294,212.270735 41.8710294,212.160735 42.1010294,212.020735 C42.3010294,211.900735 42.4510294,211.850735 42.5710294,211.850735 C42.7110294,211.860735 42.8510294,211.960735 42.9810294,212.150735 C43.1110294,212.340735 43.1610294,212.530735 43.1510294,212.730735 C43.1210294,213.130735 42.8410294,213.500735 42.3110294,213.850735 C41.3710294,214.450735 40.3110294,214.720735 39.1410294,214.640735 C37.9610294,214.550735 36.9910294,214.140735 36.2410294,213.400735 C35.8810294,213.040735 35.5810294,212.610735 35.3710294,212.110735 C35.0810294,211.450735 34.9610294,210.770735 35.0110294,210.070735 C35.0710294,209.120735 35.4210294,208.290735 36.0410294,207.570735 C36.5910294,206.960735 37.2510294,206.510735 38.0410294,206.250735 C38.6310294,206.040735 39.2610294,205.970735 39.9310294,206.010735 C41.0010294,206.090735 41.8810294,206.450735 42.5910294,207.110735 C42.9510294,207.440735 43.2210294,207.830735 43.4310294,208.260735 C43.6610294,208.750735 43.7610294,209.220735 43.7310294,209.670735 C43.7010294,210.030735 43.6110294,210.330735 43.4410294,210.550735 C43.2710294,210.780735 43.0610294,210.880735 42.8210294,210.860735 L42.8210294,210.860735 Z" id="Fill-75" fill="#AA2F41" sketch:type="MSShapeGroup"></path>
            <path d="M52.1613636,209.048 L49.6813636,213.148 C49.3013636,213.788 48.9813636,214.228 48.7213636,214.468 C48.4713636,214.708 48.2113636,214.818 47.9413636,214.798 C47.6713636,214.778 47.4613636,214.668 47.3113636,214.468 C47.0013636,214.058 46.7313636,213.608 46.5013636,213.098 L44.4213636,208.388 C44.3113636,208.128 44.1913636,207.938 44.0813636,207.828 C43.9713636,207.708 43.8113636,207.608 43.6013636,207.538 C43.1813636,207.388 42.9813636,207.138 43.0013636,206.808 C43.0313636,206.458 43.3113636,206.228 43.8513636,206.108 C44.3913636,205.988 45.2313636,205.968 46.3713636,206.048 C47.3313636,206.108 48.0313636,206.228 48.4713636,206.398 C48.9213636,206.568 49.1313636,206.798 49.1113636,207.078 C49.0913636,207.288 48.9713636,207.468 48.7513636,207.638 C48.6013636,207.758 48.5113636,207.848 48.4713636,207.898 C48.4213636,207.958 48.4013636,208.038 48.3913636,208.138 C48.3813636,208.328 48.4813636,208.648 48.7013636,209.118 C48.9113636,209.568 49.1313636,209.798 49.3413636,209.818 C49.4813636,209.818 49.6013636,209.778 49.7013636,209.678 C49.8013636,209.578 49.9813636,209.308 50.2513636,208.888 C50.4413636,208.568 50.5513636,208.328 50.5613636,208.158 C50.5713636,208.018 50.4913636,207.858 50.3213636,207.658 C50.1413636,207.438 50.0613636,207.248 50.0813636,207.078 C50.0913636,206.798 50.2913636,206.618 50.6513636,206.528 C51.0213636,206.438 51.6113636,206.418 52.4313636,206.468 C53.5713636,206.548 54.1313636,206.838 54.0913636,207.338 C54.0813636,207.618 53.8513636,207.818 53.4413636,207.918 C53.1113636,207.998 52.8813636,208.088 52.7613636,208.198 C52.6413636,208.308 52.4413636,208.598 52.1613636,209.048" id="Fill-76" fill="#AA2F41" sketch:type="MSShapeGroup"></path>
            <path d="M57.1904985,210.020735 L58.0404985,210.080735 C58.4004985,210.110735 58.5904985,209.950735 58.6204985,209.620735 C58.6404985,209.320735 58.5704985,209.060735 58.4104985,208.860735 C58.2504985,208.660735 58.0304985,208.550735 57.7404985,208.530735 C57.4304985,208.500735 57.1704985,208.610735 56.9704985,208.850735 C56.7904985,209.070735 56.6904985,209.290735 56.6704985,209.530735 C56.6604985,209.700735 56.7004985,209.820735 56.7704985,209.890735 C56.8504985,209.970735 56.9904985,210.010735 57.1904985,210.020735 L57.1904985,210.020735 Z M60.8304985,211.860735 L56.8604985,211.590735 C56.6904985,211.570735 56.5904985,211.640735 56.5904985,211.800735 C56.5604985,212.160735 56.7404985,212.520735 57.1104985,212.870735 C57.4804985,213.220735 57.9004985,213.410735 58.3504985,213.450735 C58.6204985,213.460735 58.9304985,213.430735 59.2604985,213.350735 C59.6004985,213.270735 59.8804985,213.160735 60.1004985,213.020735 C60.3104985,212.900735 60.4704985,212.840735 60.5804985,212.850735 C60.7204985,212.860735 60.8604985,212.960735 60.9904985,213.150735 C61.1104985,213.340735 61.1704985,213.530735 61.1604985,213.730735 C61.1304985,214.130735 60.8504985,214.500735 60.3204985,214.850735 C59.3804985,215.450735 58.3204985,215.720735 57.1504985,215.640735 C55.9704985,215.550735 55.0004985,215.140735 54.2504985,214.400735 C53.8804985,214.040735 53.5904985,213.610735 53.3704985,213.110735 C53.0904985,212.450735 52.9604985,211.770735 53.0104985,211.070735 C53.0804985,210.120735 53.4304985,209.290735 54.0504985,208.570735 C54.5904985,207.960735 55.2604985,207.510735 56.0404985,207.250735 C56.6304985,207.040735 57.2604985,206.970735 57.9304985,207.010735 C59.0004985,207.090735 59.8904985,207.450735 60.6004985,208.110735 C60.9504985,208.440735 61.2304985,208.820735 61.4404985,209.260735 C61.6704985,209.750735 61.7704985,210.220735 61.7404985,210.670735 C61.7104985,211.030735 61.6204985,211.330735 61.4504985,211.550735 C61.2804985,211.780735 61.0704985,211.880735 60.8304985,211.860735 L60.8304985,211.860735 Z" id="Fill-77" fill="#AA2F41" sketch:type="MSShapeGroup"></path>
            <path d="M66.6028125,208.006111 C66.9028125,208.026111 67.0828125,208.086111 67.1428125,208.176111 C67.2028125,208.266111 67.2428125,208.536111 67.2628125,208.996111 C67.2728125,209.246111 67.3528125,209.376111 67.4928125,209.386111 C67.6128125,209.396111 67.7228125,209.316111 67.8328125,209.166111 C68.3328125,208.486111 68.9428125,208.176111 69.6728125,208.226111 C70.1828125,208.266111 70.5928125,208.456111 70.8928125,208.816111 C71.0428125,208.986111 71.1528125,209.206111 71.2428125,209.476111 C71.3228125,209.736111 71.3528125,209.986111 71.3428125,210.216111 C71.3228125,210.486111 71.2428125,210.756111 71.0928125,211.026111 C70.9528125,211.296111 70.7728125,211.506111 70.5728125,211.676111 C70.1828125,211.996111 69.7328125,212.136111 69.2128125,212.096111 C68.9228125,212.076111 68.6828125,212.016111 68.4928125,211.896111 C68.3128125,211.786111 68.0728125,211.556111 67.7728125,211.226111 C67.6628125,211.106111 67.5628125,211.036111 67.4628125,211.026111 C67.3028125,211.016111 67.1928125,211.096111 67.1328125,211.276111 C67.0728125,211.446111 67.0228125,211.816111 66.9828125,212.386111 C66.9228125,213.236111 66.9128125,213.816111 66.9528125,214.136111 C66.9828125,214.306111 67.0328125,214.426111 67.0928125,214.496111 C67.1628125,214.566111 67.3028125,214.636111 67.5328125,214.726111 C68.0328125,214.906111 68.2628125,215.196111 68.2328125,215.566111 C68.2228125,215.796111 68.1228125,215.996111 67.9528125,216.156111 C67.7728125,216.316111 67.5528125,216.416111 67.2828125,216.456111 C66.7228125,216.526111 65.9328125,216.526111 64.8828125,216.456111 C63.8928125,216.386111 63.1428125,216.246111 62.6328125,216.036111 C62.1828125,215.846111 61.9728125,215.556111 62.0028125,215.166111 C62.0128125,214.876111 62.2028125,214.626111 62.5528125,214.416111 C62.7228125,214.326111 62.8528125,214.236111 62.9128125,214.156111 C62.9828125,214.066111 63.0328125,213.956111 63.0628125,213.806111 C63.1928125,213.296111 63.3028125,212.356111 63.4028125,210.966111 C63.4128125,210.716111 63.4028125,210.536111 63.3528125,210.416111 C63.3028125,210.306111 63.2028125,210.206111 63.0328125,210.126111 C62.6428125,209.946111 62.4628125,209.696111 62.4828125,209.406111 C62.5028125,209.136111 62.6528125,208.906111 62.9428125,208.736111 C63.2328125,208.556111 63.7028125,208.396111 64.3728125,208.256111 C65.2528125,208.056111 66.0028125,207.976111 66.6028125,208.006111" id="Fill-78" fill="#AA2F41" sketch:type="MSShapeGroup"></path>
            <path d="M130.47,191.96 L126.69,193.65 L125,189.87 L129.61,186 L130.47,191.96" id="Fill-79" fill="#FFFFFF" sketch:type="MSShapeGroup"></path>
            <path d="M121.49,217.32 L116,215.23 L125.61,190 L131.1,192.09 L121.49,217.32" id="Fill-80" fill="#2F312E" sketch:type="MSShapeGroup"></path>
            <path d="M129.73,188.120316 C130.09,187.140316 130.01,186.210316 129.54,186.030316 C129.06,185.850316 128.38,186.490316 128,187.460316 L129.73,188.120316" id="Fill-81" fill="#2F312E" sketch:type="MSShapeGroup"></path>
            <path d="M116.762007,202.278454 C115.482007,202.788454 109.512007,211.808454 110.032007,213.088454 L110.182007,211.508454 C110.692007,212.788454 116.832007,207.808454 118.112007,207.298454 L124.282007,204.818454 C125.562007,204.298454 126.182007,202.848454 125.672007,201.568454 C125.162007,200.288454 123.702007,199.668454 122.422007,200.178454 L116.762007,202.278454" id="Fill-82" fill="#F4DAB9" sketch:type="MSShapeGroup"></path>
            <path d="M162.83,37.757 L158.81,61.604 L149.03,61.81 L146.93,49.457 L144.83,60.915 L135.06,61.26 L131,37.757 L139.54,37 L141.26,51.281 L143.56,37 L150.27,37 L152.96,51.453 L154.33,37 L162.83,37.757" id="Fill-184" fill="#2F312E" sketch:type="MSShapeGroup"></path>
            <path d="M177.21,50.458 C177.21,49.966 177.14,49.486 177,49.022 C176.85,48.557 176.64,48.144 176.37,47.783 C176.09,47.422 175.75,47.129 175.34,46.906 C174.94,46.682 174.47,46.57 173.94,46.57 C173.4,46.57 172.92,46.668 172.5,46.863 C172.07,47.058 171.71,47.325 171.4,47.663 C171.1,48.001 170.87,48.397 170.71,48.85 C170.55,49.303 170.47,49.782 170.47,50.286 C170.47,50.768 170.53,51.25 170.67,51.732 C170.81,52.213 171.02,52.649 171.29,53.039 C171.57,53.43 171.91,53.744 172.32,53.986 C172.72,54.226 173.2,54.347 173.73,54.347 C174.27,54.347 174.76,54.241 175.19,54.029 C175.62,53.816 175.98,53.53 176.28,53.168 C176.58,52.807 176.81,52.392 176.97,51.921 C177.13,51.451 177.21,50.963 177.21,50.458 L177.21,50.458 Z M184.85,50.011 C184.85,51.055 184.73,52.061 184.49,53.031 C184.25,54 183.9,54.909 183.45,55.758 C182.99,56.607 182.44,57.384 181.79,58.089 C181.15,58.794 180.42,59.4 179.61,59.904 C178.8,60.409 177.92,60.802 176.97,61.083 C176.02,61.364 175.01,61.504 173.94,61.504 C172.91,61.504 171.92,61.372 170.99,61.109 C170.06,60.845 169.18,60.475 168.37,59.999 C167.55,59.523 166.82,58.949 166.16,58.278 C165.5,57.607 164.93,56.862 164.47,56.041 C164,55.222 163.64,54.341 163.39,53.401 C163.13,52.46 163,51.479 163,50.458 C163,49.461 163.12,48.483 163.36,47.525 C163.6,46.567 163.95,45.664 164.4,44.815 C164.85,43.967 165.4,43.186 166.04,42.476 C166.69,41.764 167.41,41.15 168.2,40.634 C169,40.118 169.86,39.717 170.79,39.43 C171.72,39.143 172.7,39 173.73,39 C175.4,39 176.92,39.258 178.29,39.774 C179.66,40.29 180.83,41.027 181.79,41.985 C182.76,42.943 183.52,44.101 184.05,45.46 C184.58,46.82 184.85,48.337 184.85,50.011 L184.85,50.011 Z" id="Fill-185" fill="#2F312E" sketch:type="MSShapeGroup"></path>
            <path d="M198.59,46.188 C198.59,45.706 198.53,45.265 198.39,44.863 C198.26,44.462 198.07,44.115 197.81,43.822 C197.55,43.53 197.23,43.3 196.85,43.134 C196.46,42.968 196.01,42.884 195.5,42.884 C195.27,42.884 195.04,42.899 194.82,42.927 C194.61,42.956 194.39,42.999 194.19,43.057 L193.91,49.457 L194.33,49.457 C194.82,49.457 195.32,49.394 195.83,49.267 C196.34,49.142 196.8,48.947 197.21,48.683 C197.61,48.419 197.95,48.08 198.21,47.667 C198.46,47.254 198.59,46.762 198.59,46.188 L198.59,46.188 Z M206.3,45.637 C206.3,46.532 206.22,47.344 206.07,48.072 C205.91,48.8 205.67,49.468 205.34,50.076 C205,50.684 204.57,51.246 204.05,51.762 C203.52,52.278 202.88,52.772 202.14,53.242 L206.23,60.537 L198.49,62.051 L195.84,54.722 L193.71,54.791 L193.4,61.948 L186,61.948 C186.06,59.333 186.11,56.729 186.16,54.137 C186.21,51.544 186.27,48.941 186.34,46.326 C186.36,45.007 186.39,43.699 186.41,42.403 C186.43,41.106 186.48,39.799 186.55,38.48 C187.35,38.182 188.14,37.935 188.92,37.74 C189.7,37.545 190.49,37.393 191.27,37.284 C192.06,37.175 192.85,37.101 193.66,37.061 C194.47,37.02 195.3,37 196.15,37 C197.46,37 198.72,37.181 199.94,37.542 C201.16,37.903 202.25,38.445 203.19,39.168 C204.13,39.891 204.88,40.791 205.45,41.869 C206.02,42.948 206.3,44.204 206.3,45.637 L206.3,45.637 Z" id="Fill-186" fill="#2F312E" sketch:type="MSShapeGroup"></path>
            <path d="M229.95,37.688 L221.66,49.147 L228.65,61.328 L220.66,62.739 L215.43,55.307 L215.16,63.083 L208,63.358 L208.55,37 L216.57,37.447 L215.95,45.224 L221.28,37 L229.95,37.688" id="Fill-187" fill="#2F312E" sketch:type="MSShapeGroup"></path>
            <path d="M247.03,53.345 C247.03,54.917 246.75,56.29 246.21,57.465 C245.66,58.642 244.92,59.619 243.97,60.399 C243.03,61.179 241.92,61.764 240.65,62.154 C239.38,62.544 238.02,62.739 236.57,62.739 C236,62.739 235.39,62.664 234.72,62.515 C234.05,62.366 233.37,62.18 232.68,61.956 C231.99,61.733 231.33,61.492 230.69,61.233 C230.05,60.976 229.49,60.732 229,60.503 L229.75,53.414 C230.73,53.999 231.81,54.443 233,54.747 C234.18,55.051 235.35,55.203 236.5,55.203 C236.71,55.203 236.98,55.194 237.29,55.177 C237.6,55.16 237.89,55.108 238.17,55.022 C238.46,54.937 238.69,54.807 238.89,54.635 C239.08,54.463 239.18,54.217 239.18,53.896 C239.18,53.678 239.11,53.491 238.97,53.337 C238.84,53.182 238.66,53.055 238.44,52.958 C238.22,52.86 237.98,52.786 237.7,52.734 C237.43,52.683 237.16,52.646 236.89,52.622 C236.63,52.6 236.38,52.588 236.15,52.588 L235.6,52.588 C234.62,52.588 233.72,52.416 232.91,52.072 C232.1,51.728 231.41,51.249 230.83,50.635 C230.25,50.022 229.8,49.293 229.48,48.45 C229.16,47.607 229,46.692 229,45.706 C229,44.353 229.27,43.14 229.81,42.067 C230.36,40.995 231.09,40.083 232,39.331 C232.91,38.58 233.96,38.004 235.14,37.602 C236.32,37.201 237.54,37 238.8,37 C239.36,37 239.94,37.02 240.54,37.06 C241.14,37.101 241.73,37.172 242.32,37.275 C242.91,37.378 243.49,37.51 244.05,37.671 C244.61,37.832 245.15,38.032 245.65,38.273 L245,45.258 C244.22,44.995 243.4,44.774 242.54,44.596 C241.69,44.418 240.86,44.329 240.04,44.329 C239.89,44.329 239.7,44.332 239.46,44.338 C239.23,44.344 238.98,44.361 238.73,44.39 C238.47,44.418 238.21,44.462 237.94,44.519 C237.68,44.576 237.44,44.653 237.24,44.751 C237.03,44.849 236.86,44.978 236.74,45.138 C236.61,45.299 236.55,45.488 236.57,45.706 C236.58,45.958 236.67,46.162 236.85,46.316 C237.03,46.471 237.26,46.592 237.54,46.678 C237.82,46.764 238.13,46.824 238.47,46.858 C238.81,46.893 239.14,46.913 239.47,46.919 C239.81,46.925 240.12,46.925 240.4,46.919 C240.69,46.913 240.92,46.922 241.11,46.944 C242.03,47.002 242.85,47.197 243.59,47.529 C244.32,47.862 244.94,48.304 245.45,48.855 C245.96,49.405 246.35,50.062 246.62,50.824 C246.89,51.587 247.03,52.427 247.03,53.345" id="Fill-188" fill="#2F312E" sketch:type="MSShapeGroup"></path>
            <path d="M268.58,61.741 L259.97,62.154 L259.9,54.205 L255.95,54.205 L255.71,61.741 L248,61.741 L248.65,37.551 L256.84,37.929 L256.33,50.283 L260.15,50.283 L260.18,37 L268.03,37.206 L268.58,61.741" id="Fill-189" fill="#2F312E" sketch:type="MSShapeGroup"></path>
            <path d="M284.21,50.458 C284.21,49.966 284.14,49.486 283.99,49.022 C283.85,48.557 283.64,48.144 283.37,47.783 C283.09,47.422 282.75,47.129 282.34,46.906 C281.93,46.682 281.47,46.57 280.94,46.57 C280.4,46.57 279.92,46.668 279.5,46.863 C279.07,47.058 278.71,47.325 278.4,47.663 C278.1,48.001 277.87,48.397 277.7,48.85 C277.54,49.303 277.46,49.782 277.46,50.286 C277.46,50.768 277.53,51.25 277.67,51.732 C277.81,52.213 278.02,52.649 278.29,53.039 C278.57,53.43 278.91,53.744 279.31,53.986 C279.72,54.226 280.19,54.347 280.73,54.347 C281.27,54.347 281.76,54.241 282.19,54.029 C282.62,53.816 282.98,53.53 283.28,53.168 C283.58,52.807 283.81,52.392 283.97,51.921 C284.13,51.451 284.21,50.963 284.21,50.458 L284.21,50.458 Z M291.85,50.011 C291.85,51.055 291.73,52.061 291.49,53.031 C291.25,54 290.9,54.909 290.45,55.758 C289.99,56.607 289.44,57.384 288.79,58.089 C288.15,58.794 287.42,59.4 286.61,59.904 C285.8,60.409 284.92,60.802 283.97,61.083 C283.02,61.364 282.01,61.504 280.94,61.504 C279.91,61.504 278.92,61.372 277.99,61.109 C277.05,60.845 276.18,60.475 275.37,59.999 C274.55,59.523 273.81,58.949 273.15,58.278 C272.5,57.607 271.93,56.862 271.47,56.041 C271,55.222 270.64,54.341 270.38,53.401 C270.13,52.46 270,51.479 270,50.458 C270,49.461 270.12,48.483 270.36,47.525 C270.6,46.567 270.95,45.664 271.4,44.815 C271.85,43.967 272.4,43.186 273.04,42.476 C273.69,41.764 274.41,41.15 275.2,40.634 C276,40.118 276.86,39.717 277.79,39.43 C278.72,39.143 279.7,39 280.73,39 C282.4,39 283.91,39.258 285.28,39.774 C286.66,40.29 287.83,41.027 288.79,41.985 C289.76,42.943 290.51,44.101 291.05,45.46 C291.58,46.82 291.85,48.337 291.85,50.011 L291.85,50.011 Z" id="Fill-190" fill="#2F312E" sketch:type="MSShapeGroup"></path>
            <path d="M306.35,46.257 C306.35,45.511 306.12,44.929 305.67,44.51 C305.22,44.092 304.63,43.882 303.91,43.882 C303.67,43.882 303.42,43.902 303.16,43.942 C302.9,43.983 302.66,44.032 302.43,44.089 L302.22,49.113 C302.38,49.136 302.54,49.147 302.69,49.147 L303.15,49.147 C303.56,49.147 303.96,49.078 304.35,48.941 C304.73,48.803 305.07,48.605 305.37,48.347 C305.67,48.089 305.91,47.785 306.08,47.435 C306.26,47.085 306.35,46.693 306.35,46.257 L306.35,46.257 Z M313.99,45.672 C313.99,46.784 313.82,47.77 313.49,48.631 C313.16,49.491 312.7,50.243 312.12,50.885 C311.54,51.527 310.86,52.072 310.08,52.52 C309.3,52.967 308.47,53.331 307.58,53.612 C306.69,53.893 305.77,54.1 304.82,54.231 C303.87,54.363 302.93,54.435 302.01,54.446 L302.01,62.464 L294,62.464 C294,59.837 294,57.222 294.01,54.619 C294.03,52.015 294.04,49.388 294.07,46.738 C294.09,45.339 294.09,43.94 294.08,42.541 C294.07,41.141 294.1,39.73 294.17,38.308 C295.64,37.872 297.1,37.545 298.57,37.327 C300.04,37.109 301.56,37 303.12,37 C304,37 304.88,37.072 305.76,37.215 C306.65,37.359 307.49,37.585 308.3,37.895 C309.11,38.205 309.86,38.592 310.56,39.056 C311.25,39.521 311.85,40.074 312.35,40.717 C312.86,41.359 313.26,42.09 313.55,42.91 C313.84,43.73 313.99,44.651 313.99,45.672 L313.99,45.672 Z" id="Fill-191" fill="#2F312E" sketch:type="MSShapeGroup"></path>
            <path d="M10,344.06 L308.24,311 L349.74,381.34 L41.65,442.54 L10,344.06" id="Fill-192" fill="#AA2F41" sketch:type="MSShapeGroup"></path>
            <path d="M253.14,379.81 L289.94,327.25 L238.4,299 L196,350.2 L253.14,379.81" id="Fill-193" fill="#2F312E" sketch:type="MSShapeGroup"></path>
            <path d="M308.98,332.03 L278.93,326 L270,339.89 L297.77,347.27" id="Fill-194" fill="#F4DAB9" sketch:type="MSShapeGroup"></path>
            <path d="M428.284583,365.148798 C428.094583,361.618798 427.644583,358.068798 426.894583,354.498798 C419.154583,317.528798 383.224583,293.768798 346.664583,301.438798 C310.094583,309.098798 286.734583,345.278798 294.484583,382.248798 C295.224583,385.808798 296.244583,389.248798 297.484583,392.548798 L428.284583,365.148798" id="Fill-195" fill="#E7B640" sketch:type="MSShapeGroup"></path>
            <path d="M242.36,307.09 L238.08,256 L176,306.78 L205.57,351.57 L242.36,307.09" id="Fill-196" fill="#2F312E" sketch:type="MSShapeGroup"></path>
            <path d="M233.02,267 L239.18,304.66 L206.54,344.23 L184,307.05 L233.02,267" id="Fill-197" fill="#FFFFFF" sketch:type="MSShapeGroup"></path>
            <path d="M416.759824,300.253975 C411.799824,322.603975 380.229824,338.703975 346.229824,336.213975 C312.239824,333.713975 288.699824,313.573975 293.659824,291.213975 C298.619824,268.863975 330.199824,252.763975 364.189824,255.253975 C398.189824,257.753975 421.719824,277.893975 416.759824,300.253975" id="Fill-198" fill="#F4DAB9" sketch:type="MSShapeGroup"></path>
            <path d="M326.93,284 L306,312.77 L318.93,320.83 L326.93,284" id="Fill-199" fill="#BD837D" sketch:type="MSShapeGroup"></path>
            <path d="M261.446038,362.227851 C258.956038,367.587851 252.586038,369.927851 247.216038,367.437851 C241.846038,364.947851 239.506038,358.577851 241.996038,353.207851 C244.486038,347.837851 250.856038,345.507851 256.226038,347.997851 C261.596038,350.487851 263.936038,356.857851 261.446038,362.227851" id="Fill-200" fill="#F4DAB9" sketch:type="MSShapeGroup"></path>
            <path d="M280.437851,337.217851 C277.947851,342.587851 271.577851,344.927851 266.207851,342.437851 C260.837851,339.947851 258.507851,333.577851 260.997851,328.207851 C263.487851,322.837851 269.857851,320.507851 275.217851,322.997851 C280.597851,325.487851 282.927851,331.857851 280.437851,337.217851" id="Fill-201" fill="#F4DAB9" sketch:type="MSShapeGroup"></path>
            <path d="M317,328.526663 C323.83,331.836663 331.84,334.216663 340.68,335.386663 C358.58,323.956663 358.31,303.806663 341.62,317.726663 C333.28,324.686663 324.58,327.586663 317,328.526663" id="Fill-202" fill="#2F312E" sketch:type="MSShapeGroup"></path>
            <path d="M324.39088,276.88 C315.15088,299.84 301.49088,296.24 301.49088,296.24 C280.17088,293.19 295.05088,270 295.05088,270 L363.84088,284.93 C363.84088,284.93 359.97088,310.67 341.22088,305.57 C327.88088,301.94 329.52088,277.94 329.52088,277.94" id="Stroke-203" stroke="#1C5466" stroke-width="2.11" sketch:type="MSShapeGroup"></path>
            <path d="M302,284.66 C302,287.35 304.18,289.53 306.87,289.53 C309.56,289.53 311.74,287.35 311.74,284.66 L311.74,281.87 C311.74,279.18 309.56,277 306.87,277 C304.18,277 302,279.18 302,281.87 L302,284.66" id="Fill-204" fill="#2F312E" sketch:type="MSShapeGroup"></path>
            <path d="M336,294.66 C336,297.35 338.18,299.52 340.87,299.52 C343.56,299.52 345.74,297.35 345.74,294.66 L345.74,291.86 C345.74,289.18 343.56,287 340.87,287 C338.18,287 336,289.18 336,291.86 L336,294.66" id="Fill-205" fill="#2F312E" sketch:type="MSShapeGroup"></path>
            <path d="M341.86,358.8 L258.93,353 L250,366.89 L327.22,384.83" id="Fill-206" fill="#F4DAB9" sketch:type="MSShapeGroup"></path>
            <path d="M332.301309,260.65 C332.301309,260.65 328.321309,251 349.291309,251 C370.251309,251 388.771309,255.6 397.801309,261.11 C406.831309,266.62 415.711309,278.55 417.391309,285.13 C419.081309,291.72 419.691309,301.82 411.881309,311.15 C404.081309,320.49 404.231309,292.79 404.231309,292.79 L396.881309,292.79 C396.881309,292.79 393.361309,305.34 389.381309,305.34 C385.411309,305.34 373.931309,293.25 378.521309,281.77 C383.111309,270.29 373.161309,265.24 368.111309,265.24 C363.061309,265.24 335.051309,268.6 332.301309,260.65" id="Fill-207" fill="#2F312E" sketch:type="MSShapeGroup"></path>
            <path d="M404.80345,306.623515 C400.65345,312.603515 393.75345,314.993515 389.39345,311.963515 C385.02345,308.933515 384.85345,301.633515 389.00345,295.653515 C393.15345,289.673515 400.05345,287.283515 404.41345,290.313515 C408.77345,293.343515 408.95345,300.643515 404.80345,306.623515" id="Fill-208" fill="#F4DAB9" sketch:type="MSShapeGroup"></path>
            <path d="M84.6530099,357.862331 C86.5630099,367.062331 84.0830099,375.892331 79.1030099,377.592331 C74.1330099,379.292331 68.5530099,373.212331 66.6430099,364.022331 C64.7330099,354.822331 67.2230099,345.982331 72.1930099,344.282331 C77.1730099,342.592331 82.7430099,348.662331 84.6530099,357.862331" id="Fill-209" fill="#F4DAB9" sketch:type="MSShapeGroup"></path>
            <path d="M177.650452,351.166859 C176.370452,360.546859 171.220452,367.216859 166.150452,366.076859 C161.080452,364.936859 158.010452,356.416859 159.290452,347.036859 C160.570452,337.656859 165.720452,330.986859 170.790452,332.126859 C175.860452,333.266859 178.930452,341.786859 177.650452,351.166859" id="Fill-210" fill="#F4DAB9" sketch:type="MSShapeGroup"></path>
            <path d="M166.46,349.7 C166.46,378.26 146.21,401.4 121.23,401.4 C96.24,401.4 76,378.26 76,349.7 C76,321.15 96.24,298 121.23,298 C146.21,298 166.46,321.15 166.46,349.7" id="Fill-211" fill="#2F312E" sketch:type="MSShapeGroup"></path>
            <path d="M187.35,455.86 C187.82,451.9 188.07,447.84 188.07,443.7 C188.07,400.79 162.08,366 130.03,366 C97.99,366 72,400.79 72,443.7 C72,447.84 72.25,451.9 72.71,455.86 L187.35,455.86" id="Fill-212" fill="#1C5466" sketch:type="MSShapeGroup"></path>
            <path d="M180.485232,395.151333 C182.465232,402.171333 181.015232,409.131333 177.255232,410.721333 C173.495232,412.301333 168.855232,407.901333 166.875232,400.881333 C164.915232,393.871333 166.355232,386.901333 170.115232,385.321333 C173.875232,383.741333 178.515232,388.141333 180.485232,395.151333" id="Fill-213" fill="#F4DAB9" sketch:type="MSShapeGroup"></path>
            <path d="M270.464228,390.867572 C269.474228,398.137572 265.484228,403.317572 261.554228,402.427572 C257.614228,401.547572 255.234228,394.937572 256.224228,387.667572 C257.224228,380.387572 261.214228,375.217572 265.144228,376.097572 C269.084228,376.977572 271.464228,383.597572 270.464228,390.867572" id="Fill-214" fill="#F4DAB9" sketch:type="MSShapeGroup"></path>
            <path d="M282.35,455.79 C282.81,453.15 283.06,450.45 283.06,447.7 C283.06,419.15 257.08,396 225.03,396 C192.98,396 167,419.15 167,447.7 C167,450.45 167.25,453.15 167.71,455.79 L282.35,455.79" id="Fill-215" fill="#2F312E" sketch:type="MSShapeGroup"></path>
            <path d="M262.64,385.19 C262.64,411.8 243.02,433.37 218.82,433.37 C194.62,433.37 175,411.8 175,385.19 C175,358.58 194.62,337 218.82,337 C243.02,337 262.64,358.58 262.64,385.19" id="Fill-216" fill="#E7B640" sketch:type="MSShapeGroup"></path>
            <path d="M311.24967,440.58421 C310.46967,433.92421 313.64967,429.92421 313.80967,424.62421 C313.96967,419.31421 311.01967,416.96421 310.16967,414.55421 C309.31967,412.14421 309.47967,404.60421 309.47967,404.60421 C309.47967,404.60421 309.37967,404.33421 309.53967,402.03421 L309.71967,402.04421 C310.11967,402.07421 310.46967,401.83421 310.49967,401.50421 L310.75967,398.26421 C310.77967,397.93421 310.46967,397.64421 310.06967,397.61421 L302.32967,397.00421 C301.91967,396.96421 301.56967,397.21421 301.54967,397.54421 L301.28967,400.78421 C301.26967,401.11421 301.56967,401.40421 301.97967,401.43421 L302.15967,401.45421 C301.98967,403.38421 301.88967,404.00421 301.88967,404.00421 C301.88967,404.00421 301.09967,411.60421 299.87967,413.84421 C298.65967,416.08421 295.22967,417.84421 294.54967,423.10421 C293.87967,428.36421 296.39967,432.82421 294.57967,439.26421 C292.76967,445.71421 285.83967,454.10421 293.59967,455.14421 C297.86967,455.71421 299.16967,455.72421 299.47967,455.62421 C301.82967,455.93421 305.41967,456.30421 309.73967,456.41421 C317.55967,456.60421 312.02967,447.23421 311.24967,440.58421" id="Fill-219" fill="#BDC7B1" sketch:type="MSShapeGroup"></path>
            <path d="M309.891063,433.43 L296.401063,433 C296.511063,434.97 296.451063,437.06 295.851063,439.46 C294.311063,445.61 288.611063,453.66 294.871063,454.55 C298.321063,455.05 299.371063,455.05 299.611063,454.95 C301.511063,455.22 304.411063,455.53 307.891063,455.58 C314.211063,455.67 309.851063,446.83 309.291063,440.52 C309.051063,437.79 309.401063,435.53 309.891063,433.43" id="Fill-220" fill="#2F312E" sketch:type="MSShapeGroup"></path>
            <path d="M305.616018,419.979611 C305.026018,423.089611 303.556018,425.459611 302.356018,425.279611 C301.146018,425.089611 300.656018,422.419611 301.256018,419.309611 C301.846018,416.199611 303.306018,413.829611 304.516018,414.009611 C305.726018,414.199611 306.216018,416.869611 305.616018,419.979611" id="Fill-221" fill="#FFFFFF" sketch:type="MSShapeGroup"></path>
            <path d="M300.771114,447.777715 C300.281114,449.657715 299.081114,451.017715 298.101114,450.817715 C297.111114,450.627715 296.721114,448.937715 297.211114,447.057715 C297.711114,445.187715 298.911114,443.827715 299.891114,444.017715 C300.881114,444.217715 301.271114,445.897715 300.771114,447.777715" id="Fill-222" fill="#FFFFFF" sketch:type="MSShapeGroup"></path>
        </g>
    </g>
</svg>